<?xml version="1.0" encoding="utf-8" standalone="no"?>
<!DOCTYPE svg PUBLIC "-//W3C//DTD SVG 1.1//EN"
  "http://www.w3.org/Graphics/SVG/1.1/DTD/svg11.dtd">
<svg xmlns:xlink="http://www.w3.org/1999/xlink" width="460.8pt" height="345.6pt" viewBox="0 0 460.8 345.6" xmlns="http://www.w3.org/2000/svg" version="1.1">
 <metadata>
  <rdf:RDF xmlns:dc="http://purl.org/dc/elements/1.1/" xmlns:cc="http://creativecommons.org/ns#" xmlns:rdf="http://www.w3.org/1999/02/22-rdf-syntax-ns#">
   <cc:Work>
    <dc:type rdf:resource="http://purl.org/dc/dcmitype/StillImage"/>
    <dc:date>2025-01-06T16:41:45.666054</dc:date>
    <dc:format>image/svg+xml</dc:format>
    <dc:creator>
     <cc:Agent>
      <dc:title>Matplotlib v3.8.4, https://matplotlib.org/</dc:title>
     </cc:Agent>
    </dc:creator>
   </cc:Work>
  </rdf:RDF>
 </metadata>
 <defs>
  <style type="text/css">*{stroke-linejoin: round; stroke-linecap: butt}</style>
 </defs>
 <g id="figure_1">
  <g id="patch_1">
   <path d="M 0 345.6 
L 460.8 345.6 
L 460.8 0 
L 0 0 
z
" style="fill: #ffffff"/>
  </g>
  <g id="axes_1">
   <g id="patch_2">
    <path d="M 71.441053 286.02 
L 447.84 286.02 
L 447.84 31.92 
L 71.441053 31.92 
z
" style="fill: #ffffff"/>
   </g>
   <g id="matplotlib.axis_1">
    <g id="xtick_1">
     <g id="text_1">
      <!-- 4194304.0 -->
      <g style="fill: #262626" transform="translate(216.378027 307.6775) scale(0.16 -0.16)">
       <defs>
        <path id="DejaVuSans-34" d="M 2419 4116 
L 825 1625 
L 2419 1625 
L 2419 4116 
z
M 2253 4666 
L 3047 4666 
L 3047 1625 
L 3713 1625 
L 3713 1100 
L 3047 1100 
L 3047 0 
L 2419 0 
L 2419 1100 
L 313 1100 
L 313 1709 
L 2253 4666 
z
" transform="scale(0.015625)"/>
        <path id="DejaVuSans-31" d="M 794 531 
L 1825 531 
L 1825 4091 
L 703 3866 
L 703 4441 
L 1819 4666 
L 2450 4666 
L 2450 531 
L 3481 531 
L 3481 0 
L 794 0 
L 794 531 
z
" transform="scale(0.015625)"/>
        <path id="DejaVuSans-39" d="M 703 97 
L 703 672 
Q 941 559 1184 500 
Q 1428 441 1663 441 
Q 2288 441 2617 861 
Q 2947 1281 2994 2138 
Q 2813 1869 2534 1725 
Q 2256 1581 1919 1581 
Q 1219 1581 811 2004 
Q 403 2428 403 3163 
Q 403 3881 828 4315 
Q 1253 4750 1959 4750 
Q 2769 4750 3195 4129 
Q 3622 3509 3622 2328 
Q 3622 1225 3098 567 
Q 2575 -91 1691 -91 
Q 1453 -91 1209 -44 
Q 966 3 703 97 
z
M 1959 2075 
Q 2384 2075 2632 2365 
Q 2881 2656 2881 3163 
Q 2881 3666 2632 3958 
Q 2384 4250 1959 4250 
Q 1534 4250 1286 3958 
Q 1038 3666 1038 3163 
Q 1038 2656 1286 2365 
Q 1534 2075 1959 2075 
z
" transform="scale(0.015625)"/>
        <path id="DejaVuSans-33" d="M 2597 2516 
Q 3050 2419 3304 2112 
Q 3559 1806 3559 1356 
Q 3559 666 3084 287 
Q 2609 -91 1734 -91 
Q 1441 -91 1130 -33 
Q 819 25 488 141 
L 488 750 
Q 750 597 1062 519 
Q 1375 441 1716 441 
Q 2309 441 2620 675 
Q 2931 909 2931 1356 
Q 2931 1769 2642 2001 
Q 2353 2234 1838 2234 
L 1294 2234 
L 1294 2753 
L 1863 2753 
Q 2328 2753 2575 2939 
Q 2822 3125 2822 3475 
Q 2822 3834 2567 4026 
Q 2313 4219 1838 4219 
Q 1578 4219 1281 4162 
Q 984 4106 628 3988 
L 628 4550 
Q 988 4650 1302 4700 
Q 1616 4750 1894 4750 
Q 2613 4750 3031 4423 
Q 3450 4097 3450 3541 
Q 3450 3153 3228 2886 
Q 3006 2619 2597 2516 
z
" transform="scale(0.015625)"/>
        <path id="DejaVuSans-30" d="M 2034 4250 
Q 1547 4250 1301 3770 
Q 1056 3291 1056 2328 
Q 1056 1369 1301 889 
Q 1547 409 2034 409 
Q 2525 409 2770 889 
Q 3016 1369 3016 2328 
Q 3016 3291 2770 3770 
Q 2525 4250 2034 4250 
z
M 2034 4750 
Q 2819 4750 3233 4129 
Q 3647 3509 3647 2328 
Q 3647 1150 3233 529 
Q 2819 -91 2034 -91 
Q 1250 -91 836 529 
Q 422 1150 422 2328 
Q 422 3509 836 4129 
Q 1250 4750 2034 4750 
z
" transform="scale(0.015625)"/>
        <path id="DejaVuSans-2e" d="M 684 794 
L 1344 794 
L 1344 0 
L 684 0 
L 684 794 
z
" transform="scale(0.015625)"/>
       </defs>
       <use xlink:href="#DejaVuSans-34"/>
       <use xlink:href="#DejaVuSans-31" x="63.623047"/>
       <use xlink:href="#DejaVuSans-39" x="127.246094"/>
       <use xlink:href="#DejaVuSans-34" x="190.869141"/>
       <use xlink:href="#DejaVuSans-33" x="254.492188"/>
       <use xlink:href="#DejaVuSans-30" x="318.115234"/>
       <use xlink:href="#DejaVuSans-34" x="381.738281"/>
       <use xlink:href="#DejaVuSans-2e" x="445.361328"/>
       <use xlink:href="#DejaVuSans-30" x="477.148438"/>
      </g>
     </g>
    </g>
    <g id="text_2">
     <!-- Message size in bytes -->
     <g style="fill: #262626" transform="translate(172.105527 327.1625) scale(0.16 -0.16)">
      <defs>
       <path id="DejaVuSans-4d" d="M 628 4666 
L 1569 4666 
L 2759 1491 
L 3956 4666 
L 4897 4666 
L 4897 0 
L 4281 0 
L 4281 4097 
L 3078 897 
L 2444 897 
L 1241 4097 
L 1241 0 
L 628 0 
L 628 4666 
z
" transform="scale(0.015625)"/>
       <path id="DejaVuSans-65" d="M 3597 1894 
L 3597 1613 
L 953 1613 
Q 991 1019 1311 708 
Q 1631 397 2203 397 
Q 2534 397 2845 478 
Q 3156 559 3463 722 
L 3463 178 
Q 3153 47 2828 -22 
Q 2503 -91 2169 -91 
Q 1331 -91 842 396 
Q 353 884 353 1716 
Q 353 2575 817 3079 
Q 1281 3584 2069 3584 
Q 2775 3584 3186 3129 
Q 3597 2675 3597 1894 
z
M 3022 2063 
Q 3016 2534 2758 2815 
Q 2500 3097 2075 3097 
Q 1594 3097 1305 2825 
Q 1016 2553 972 2059 
L 3022 2063 
z
" transform="scale(0.015625)"/>
       <path id="DejaVuSans-73" d="M 2834 3397 
L 2834 2853 
Q 2591 2978 2328 3040 
Q 2066 3103 1784 3103 
Q 1356 3103 1142 2972 
Q 928 2841 928 2578 
Q 928 2378 1081 2264 
Q 1234 2150 1697 2047 
L 1894 2003 
Q 2506 1872 2764 1633 
Q 3022 1394 3022 966 
Q 3022 478 2636 193 
Q 2250 -91 1575 -91 
Q 1294 -91 989 -36 
Q 684 19 347 128 
L 347 722 
Q 666 556 975 473 
Q 1284 391 1588 391 
Q 1994 391 2212 530 
Q 2431 669 2431 922 
Q 2431 1156 2273 1281 
Q 2116 1406 1581 1522 
L 1381 1569 
Q 847 1681 609 1914 
Q 372 2147 372 2553 
Q 372 3047 722 3315 
Q 1072 3584 1716 3584 
Q 2034 3584 2315 3537 
Q 2597 3491 2834 3397 
z
" transform="scale(0.015625)"/>
       <path id="DejaVuSans-61" d="M 2194 1759 
Q 1497 1759 1228 1600 
Q 959 1441 959 1056 
Q 959 750 1161 570 
Q 1363 391 1709 391 
Q 2188 391 2477 730 
Q 2766 1069 2766 1631 
L 2766 1759 
L 2194 1759 
z
M 3341 1997 
L 3341 0 
L 2766 0 
L 2766 531 
Q 2569 213 2275 61 
Q 1981 -91 1556 -91 
Q 1019 -91 701 211 
Q 384 513 384 1019 
Q 384 1609 779 1909 
Q 1175 2209 1959 2209 
L 2766 2209 
L 2766 2266 
Q 2766 2663 2505 2880 
Q 2244 3097 1772 3097 
Q 1472 3097 1187 3025 
Q 903 2953 641 2809 
L 641 3341 
Q 956 3463 1253 3523 
Q 1550 3584 1831 3584 
Q 2591 3584 2966 3190 
Q 3341 2797 3341 1997 
z
" transform="scale(0.015625)"/>
       <path id="DejaVuSans-67" d="M 2906 1791 
Q 2906 2416 2648 2759 
Q 2391 3103 1925 3103 
Q 1463 3103 1205 2759 
Q 947 2416 947 1791 
Q 947 1169 1205 825 
Q 1463 481 1925 481 
Q 2391 481 2648 825 
Q 2906 1169 2906 1791 
z
M 3481 434 
Q 3481 -459 3084 -895 
Q 2688 -1331 1869 -1331 
Q 1566 -1331 1297 -1286 
Q 1028 -1241 775 -1147 
L 775 -588 
Q 1028 -725 1275 -790 
Q 1522 -856 1778 -856 
Q 2344 -856 2625 -561 
Q 2906 -266 2906 331 
L 2906 616 
Q 2728 306 2450 153 
Q 2172 0 1784 0 
Q 1141 0 747 490 
Q 353 981 353 1791 
Q 353 2603 747 3093 
Q 1141 3584 1784 3584 
Q 2172 3584 2450 3431 
Q 2728 3278 2906 2969 
L 2906 3500 
L 3481 3500 
L 3481 434 
z
" transform="scale(0.015625)"/>
       <path id="DejaVuSans-20" transform="scale(0.015625)"/>
       <path id="DejaVuSans-69" d="M 603 3500 
L 1178 3500 
L 1178 0 
L 603 0 
L 603 3500 
z
M 603 4863 
L 1178 4863 
L 1178 4134 
L 603 4134 
L 603 4863 
z
" transform="scale(0.015625)"/>
       <path id="DejaVuSans-7a" d="M 353 3500 
L 3084 3500 
L 3084 2975 
L 922 459 
L 3084 459 
L 3084 0 
L 275 0 
L 275 525 
L 2438 3041 
L 353 3041 
L 353 3500 
z
" transform="scale(0.015625)"/>
       <path id="DejaVuSans-6e" d="M 3513 2113 
L 3513 0 
L 2938 0 
L 2938 2094 
Q 2938 2591 2744 2837 
Q 2550 3084 2163 3084 
Q 1697 3084 1428 2787 
Q 1159 2491 1159 1978 
L 1159 0 
L 581 0 
L 581 3500 
L 1159 3500 
L 1159 2956 
Q 1366 3272 1645 3428 
Q 1925 3584 2291 3584 
Q 2894 3584 3203 3211 
Q 3513 2838 3513 2113 
z
" transform="scale(0.015625)"/>
       <path id="DejaVuSans-62" d="M 3116 1747 
Q 3116 2381 2855 2742 
Q 2594 3103 2138 3103 
Q 1681 3103 1420 2742 
Q 1159 2381 1159 1747 
Q 1159 1113 1420 752 
Q 1681 391 2138 391 
Q 2594 391 2855 752 
Q 3116 1113 3116 1747 
z
M 1159 2969 
Q 1341 3281 1617 3432 
Q 1894 3584 2278 3584 
Q 2916 3584 3314 3078 
Q 3713 2572 3713 1747 
Q 3713 922 3314 415 
Q 2916 -91 2278 -91 
Q 1894 -91 1617 61 
Q 1341 213 1159 525 
L 1159 0 
L 581 0 
L 581 4863 
L 1159 4863 
L 1159 2969 
z
" transform="scale(0.015625)"/>
       <path id="DejaVuSans-79" d="M 2059 -325 
Q 1816 -950 1584 -1140 
Q 1353 -1331 966 -1331 
L 506 -1331 
L 506 -850 
L 844 -850 
Q 1081 -850 1212 -737 
Q 1344 -625 1503 -206 
L 1606 56 
L 191 3500 
L 800 3500 
L 1894 763 
L 2988 3500 
L 3597 3500 
L 2059 -325 
z
" transform="scale(0.015625)"/>
       <path id="DejaVuSans-74" d="M 1172 4494 
L 1172 3500 
L 2356 3500 
L 2356 3053 
L 1172 3053 
L 1172 1153 
Q 1172 725 1289 603 
Q 1406 481 1766 481 
L 2356 481 
L 2356 0 
L 1766 0 
Q 1100 0 847 248 
Q 594 497 594 1153 
L 594 3053 
L 172 3053 
L 172 3500 
L 594 3500 
L 594 4494 
L 1172 4494 
z
" transform="scale(0.015625)"/>
      </defs>
      <use xlink:href="#DejaVuSans-4d"/>
      <use xlink:href="#DejaVuSans-65" x="86.279297"/>
      <use xlink:href="#DejaVuSans-73" x="147.802734"/>
      <use xlink:href="#DejaVuSans-73" x="199.902344"/>
      <use xlink:href="#DejaVuSans-61" x="252.001953"/>
      <use xlink:href="#DejaVuSans-67" x="313.28125"/>
      <use xlink:href="#DejaVuSans-65" x="376.757812"/>
      <use xlink:href="#DejaVuSans-20" x="438.28125"/>
      <use xlink:href="#DejaVuSans-73" x="470.068359"/>
      <use xlink:href="#DejaVuSans-69" x="522.167969"/>
      <use xlink:href="#DejaVuSans-7a" x="549.951172"/>
      <use xlink:href="#DejaVuSans-65" x="602.441406"/>
      <use xlink:href="#DejaVuSans-20" x="663.964844"/>
      <use xlink:href="#DejaVuSans-69" x="695.751953"/>
      <use xlink:href="#DejaVuSans-6e" x="723.535156"/>
      <use xlink:href="#DejaVuSans-20" x="786.914062"/>
      <use xlink:href="#DejaVuSans-62" x="818.701172"/>
      <use xlink:href="#DejaVuSans-79" x="882.177734"/>
      <use xlink:href="#DejaVuSans-74" x="941.357422"/>
      <use xlink:href="#DejaVuSans-65" x="980.566406"/>
      <use xlink:href="#DejaVuSans-73" x="1042.089844"/>
     </g>
    </g>
   </g>
   <g id="matplotlib.axis_2">
    <g id="ytick_1">
     <g id="line2d_1">
      <path d="M 71.441053 267.638857 
L 447.84 267.638857 
" clip-path="url(#p34132e8580)" style="fill: none; stroke: #cccccc; stroke-linecap: round"/>
     </g>
     <g id="text_3">
      <!-- $\mathdefault{10^{3}}$ -->
      <g style="fill: #262626" transform="translate(33.781053 273.717607) scale(0.16 -0.16)">
       <use xlink:href="#DejaVuSans-31" transform="translate(0 0.765625)"/>
       <use xlink:href="#DejaVuSans-30" transform="translate(63.623047 0.765625)"/>
       <use xlink:href="#DejaVuSans-33" transform="translate(128.203125 39.046875) scale(0.7)"/>
      </g>
     </g>
    </g>
    <g id="ytick_2">
     <g id="line2d_2">
      <path d="M 71.441053 106.626597 
L 447.84 106.626597 
" clip-path="url(#p34132e8580)" style="fill: none; stroke: #cccccc; stroke-linecap: round"/>
     </g>
     <g id="text_4">
      <!-- $\mathdefault{10^{4}}$ -->
      <g style="fill: #262626" transform="translate(33.781053 112.705347) scale(0.16 -0.16)">
       <use xlink:href="#DejaVuSans-31" transform="translate(0 0.684375)"/>
       <use xlink:href="#DejaVuSans-30" transform="translate(63.623047 0.684375)"/>
       <use xlink:href="#DejaVuSans-34" transform="translate(128.203125 38.965625) scale(0.7)"/>
      </g>
     </g>
    </g>
    <g id="ytick_3"/>
    <g id="ytick_4"/>
    <g id="ytick_5"/>
    <g id="ytick_6"/>
    <g id="ytick_7"/>
    <g id="ytick_8"/>
    <g id="ytick_9"/>
    <g id="ytick_10"/>
    <g id="ytick_11"/>
    <g id="ytick_12"/>
    <g id="ytick_13"/>
    <g id="text_5">
     <!-- bandwidth mb s (logscale) -->
     <g style="fill: #262626" transform="translate(26.453553 264.86875) rotate(-90) scale(0.16 -0.16)">
      <defs>
       <path id="DejaVuSans-64" d="M 2906 2969 
L 2906 4863 
L 3481 4863 
L 3481 0 
L 2906 0 
L 2906 525 
Q 2725 213 2448 61 
Q 2172 -91 1784 -91 
Q 1150 -91 751 415 
Q 353 922 353 1747 
Q 353 2572 751 3078 
Q 1150 3584 1784 3584 
Q 2172 3584 2448 3432 
Q 2725 3281 2906 2969 
z
M 947 1747 
Q 947 1113 1208 752 
Q 1469 391 1925 391 
Q 2381 391 2643 752 
Q 2906 1113 2906 1747 
Q 2906 2381 2643 2742 
Q 2381 3103 1925 3103 
Q 1469 3103 1208 2742 
Q 947 2381 947 1747 
z
" transform="scale(0.015625)"/>
       <path id="DejaVuSans-77" d="M 269 3500 
L 844 3500 
L 1563 769 
L 2278 3500 
L 2956 3500 
L 3675 769 
L 4391 3500 
L 4966 3500 
L 4050 0 
L 3372 0 
L 2619 2869 
L 1863 0 
L 1184 0 
L 269 3500 
z
" transform="scale(0.015625)"/>
       <path id="DejaVuSans-68" d="M 3513 2113 
L 3513 0 
L 2938 0 
L 2938 2094 
Q 2938 2591 2744 2837 
Q 2550 3084 2163 3084 
Q 1697 3084 1428 2787 
Q 1159 2491 1159 1978 
L 1159 0 
L 581 0 
L 581 4863 
L 1159 4863 
L 1159 2956 
Q 1366 3272 1645 3428 
Q 1925 3584 2291 3584 
Q 2894 3584 3203 3211 
Q 3513 2838 3513 2113 
z
" transform="scale(0.015625)"/>
       <path id="DejaVuSans-6d" d="M 3328 2828 
Q 3544 3216 3844 3400 
Q 4144 3584 4550 3584 
Q 5097 3584 5394 3201 
Q 5691 2819 5691 2113 
L 5691 0 
L 5113 0 
L 5113 2094 
Q 5113 2597 4934 2840 
Q 4756 3084 4391 3084 
Q 3944 3084 3684 2787 
Q 3425 2491 3425 1978 
L 3425 0 
L 2847 0 
L 2847 2094 
Q 2847 2600 2669 2842 
Q 2491 3084 2119 3084 
Q 1678 3084 1418 2786 
Q 1159 2488 1159 1978 
L 1159 0 
L 581 0 
L 581 3500 
L 1159 3500 
L 1159 2956 
Q 1356 3278 1631 3431 
Q 1906 3584 2284 3584 
Q 2666 3584 2933 3390 
Q 3200 3197 3328 2828 
z
" transform="scale(0.015625)"/>
       <path id="DejaVuSans-28" d="M 1984 4856 
Q 1566 4138 1362 3434 
Q 1159 2731 1159 2009 
Q 1159 1288 1364 580 
Q 1569 -128 1984 -844 
L 1484 -844 
Q 1016 -109 783 600 
Q 550 1309 550 2009 
Q 550 2706 781 3412 
Q 1013 4119 1484 4856 
L 1984 4856 
z
" transform="scale(0.015625)"/>
       <path id="DejaVuSans-6c" d="M 603 4863 
L 1178 4863 
L 1178 0 
L 603 0 
L 603 4863 
z
" transform="scale(0.015625)"/>
       <path id="DejaVuSans-6f" d="M 1959 3097 
Q 1497 3097 1228 2736 
Q 959 2375 959 1747 
Q 959 1119 1226 758 
Q 1494 397 1959 397 
Q 2419 397 2687 759 
Q 2956 1122 2956 1747 
Q 2956 2369 2687 2733 
Q 2419 3097 1959 3097 
z
M 1959 3584 
Q 2709 3584 3137 3096 
Q 3566 2609 3566 1747 
Q 3566 888 3137 398 
Q 2709 -91 1959 -91 
Q 1206 -91 779 398 
Q 353 888 353 1747 
Q 353 2609 779 3096 
Q 1206 3584 1959 3584 
z
" transform="scale(0.015625)"/>
       <path id="DejaVuSans-63" d="M 3122 3366 
L 3122 2828 
Q 2878 2963 2633 3030 
Q 2388 3097 2138 3097 
Q 1578 3097 1268 2742 
Q 959 2388 959 1747 
Q 959 1106 1268 751 
Q 1578 397 2138 397 
Q 2388 397 2633 464 
Q 2878 531 3122 666 
L 3122 134 
Q 2881 22 2623 -34 
Q 2366 -91 2075 -91 
Q 1284 -91 818 406 
Q 353 903 353 1747 
Q 353 2603 823 3093 
Q 1294 3584 2113 3584 
Q 2378 3584 2631 3529 
Q 2884 3475 3122 3366 
z
" transform="scale(0.015625)"/>
       <path id="DejaVuSans-29" d="M 513 4856 
L 1013 4856 
Q 1481 4119 1714 3412 
Q 1947 2706 1947 2009 
Q 1947 1309 1714 600 
Q 1481 -109 1013 -844 
L 513 -844 
Q 928 -128 1133 580 
Q 1338 1288 1338 2009 
Q 1338 2731 1133 3434 
Q 928 4138 513 4856 
z
" transform="scale(0.015625)"/>
      </defs>
      <use xlink:href="#DejaVuSans-62"/>
      <use xlink:href="#DejaVuSans-61" x="63.476562"/>
      <use xlink:href="#DejaVuSans-6e" x="124.755859"/>
      <use xlink:href="#DejaVuSans-64" x="188.134766"/>
      <use xlink:href="#DejaVuSans-77" x="251.611328"/>
      <use xlink:href="#DejaVuSans-69" x="333.398438"/>
      <use xlink:href="#DejaVuSans-64" x="361.181641"/>
      <use xlink:href="#DejaVuSans-74" x="424.658203"/>
      <use xlink:href="#DejaVuSans-68" x="463.867188"/>
      <use xlink:href="#DejaVuSans-20" x="527.246094"/>
      <use xlink:href="#DejaVuSans-6d" x="559.033203"/>
      <use xlink:href="#DejaVuSans-62" x="656.445312"/>
      <use xlink:href="#DejaVuSans-20" x="719.921875"/>
      <use xlink:href="#DejaVuSans-73" x="751.708984"/>
      <use xlink:href="#DejaVuSans-20" x="803.808594"/>
      <use xlink:href="#DejaVuSans-28" x="835.595703"/>
      <use xlink:href="#DejaVuSans-6c" x="874.609375"/>
      <use xlink:href="#DejaVuSans-6f" x="902.392578"/>
      <use xlink:href="#DejaVuSans-67" x="963.574219"/>
      <use xlink:href="#DejaVuSans-73" x="1027.050781"/>
      <use xlink:href="#DejaVuSans-63" x="1079.150391"/>
      <use xlink:href="#DejaVuSans-61" x="1134.130859"/>
      <use xlink:href="#DejaVuSans-6c" x="1195.410156"/>
      <use xlink:href="#DejaVuSans-65" x="1223.193359"/>
      <use xlink:href="#DejaVuSans-29" x="1284.716797"/>
     </g>
    </g>
   </g>
   <g id="patch_3">
    <path d="M 259.640527 161762.935498 
L 259.640527 161762.935498 
L 259.640527 161762.935498 
L 259.640527 161762.935498 
z
" clip-path="url(#p34132e8580)" style="fill: #826246; stroke: #3c3c3c; stroke-width: 0.4; stroke-linejoin: miter"/>
   </g>
   <g id="patch_4">
    <path d="M 259.640527 161762.935498 
L 259.640527 161762.935498 
L 259.640527 161762.935498 
L 259.640527 161762.935498 
z
" clip-path="url(#p34132e8580)" style="fill: #9475ab; stroke: #3c3c3c; stroke-width: 0.4; stroke-linejoin: miter"/>
   </g>
   <g id="patch_5">
    <path d="M 259.640527 161762.935498 
L 259.640527 161762.935498 
L 259.640527 161762.935498 
L 259.640527 161762.935498 
z
" clip-path="url(#p34132e8580)" style="fill: #597dbf; stroke: #3c3c3c; stroke-width: 0.4; stroke-linejoin: miter"/>
   </g>
   <g id="patch_6">
    <path d="M 259.640527 161762.935498 
L 259.640527 161762.935498 
L 259.640527 161762.935498 
L 259.640527 161762.935498 
z
" clip-path="url(#p34132e8580)" style="fill: #d98b5f; stroke: #3c3c3c; stroke-width: 0.4; stroke-linejoin: miter"/>
   </g>
   <g id="patch_7">
    <path d="M 259.640527 161762.935498 
L 259.640527 161762.935498 
L 259.640527 161762.935498 
L 259.640527 161762.935498 
z
" clip-path="url(#p34132e8580)" style="fill: #c76e6e; stroke: #3c3c3c; stroke-width: 0.4; stroke-linejoin: miter"/>
   </g>
   <g id="patch_8">
    <path d="M 109.080948 188.847535 
L 169.30478 188.847535 
L 169.30478 184.591448 
L 109.080948 184.591448 
L 109.080948 188.847535 
z
" clip-path="url(#p34132e8580)" style="fill: #826246; stroke: #3c3c3c; stroke-width: 0.4; stroke-linejoin: miter"/>
   </g>
   <g id="line2d_3">
    <path d="M 139.192864 188.847535 
L 139.192864 190.086082 
" clip-path="url(#p34132e8580)" style="fill: none; stroke: #3c3c3c; stroke-width: 0.4"/>
   </g>
   <g id="line2d_4">
    <path d="M 139.192864 184.591448 
L 139.192864 181.605869 
" clip-path="url(#p34132e8580)" style="fill: none; stroke: #3c3c3c; stroke-width: 0.4"/>
   </g>
   <g id="line2d_5">
    <path d="M 124.136906 190.086082 
L 154.248822 190.086082 
" clip-path="url(#p34132e8580)" style="fill: none; stroke: #3c3c3c; stroke-width: 0.4; stroke-linecap: round"/>
   </g>
   <g id="line2d_6">
    <path d="M 124.136906 181.605869 
L 154.248822 181.605869 
" clip-path="url(#p34132e8580)" style="fill: none; stroke: #3c3c3c; stroke-width: 0.4; stroke-linecap: round"/>
   </g>
   <g id="line2d_7">
    <defs>
     <path id="m6f9ede2e5b" d="M 0 2.5 
C 0.663008 2.5 1.29895 2.236584 1.767767 1.767767 
C 2.236584 1.29895 2.5 0.663008 2.5 0 
C 2.5 -0.663008 2.236584 -1.29895 1.767767 -1.767767 
C 1.29895 -2.236584 0.663008 -2.5 0 -2.5 
C -0.663008 -2.5 -1.29895 -2.236584 -1.767767 -1.767767 
C -2.236584 -1.29895 -2.5 -0.663008 -2.5 0 
C -2.5 0.663008 -2.236584 1.29895 -1.767767 1.767767 
C -1.29895 2.236584 -0.663008 2.5 0 2.5 
z
" style="stroke: #000000"/>
    </defs>
    <g clip-path="url(#p34132e8580)">
     <use xlink:href="#m6f9ede2e5b" x="139.192864" y="190.281962" style="fill-opacity: 0; stroke: #000000"/>
     <use xlink:href="#m6f9ede2e5b" x="139.192864" y="191.348079" style="fill-opacity: 0; stroke: #000000"/>
     <use xlink:href="#m6f9ede2e5b" x="139.192864" y="181.389011" style="fill-opacity: 0; stroke: #000000"/>
     <use xlink:href="#m6f9ede2e5b" x="139.192864" y="180.561243" style="fill-opacity: 0; stroke: #000000"/>
    </g>
   </g>
   <g id="patch_9">
    <path d="M 169.30478 273.531053 
L 229.528611 273.531053 
L 229.528611 272.248857 
L 169.30478 272.248857 
L 169.30478 273.531053 
z
" clip-path="url(#p34132e8580)" style="fill: #9475ab; stroke: #3c3c3c; stroke-width: 0.4; stroke-linejoin: miter"/>
   </g>
   <g id="line2d_8">
    <path d="M 199.416695 273.531053 
L 199.416695 274.231389 
" clip-path="url(#p34132e8580)" style="fill: none; stroke: #3c3c3c; stroke-width: 0.4"/>
   </g>
   <g id="line2d_9">
    <path d="M 199.416695 272.248857 
L 199.416695 270.435885 
" clip-path="url(#p34132e8580)" style="fill: none; stroke: #3c3c3c; stroke-width: 0.4"/>
   </g>
   <g id="line2d_10">
    <path d="M 184.360737 274.231389 
L 214.472653 274.231389 
" clip-path="url(#p34132e8580)" style="fill: none; stroke: #3c3c3c; stroke-width: 0.4; stroke-linecap: round"/>
   </g>
   <g id="line2d_11">
    <path d="M 184.360737 270.435885 
L 214.472653 270.435885 
" clip-path="url(#p34132e8580)" style="fill: none; stroke: #3c3c3c; stroke-width: 0.4; stroke-linecap: round"/>
   </g>
   <g id="line2d_12">
    <g clip-path="url(#p34132e8580)">
     <use xlink:href="#m6f9ede2e5b" x="199.416695" y="274.327505" style="fill-opacity: 0; stroke: #000000"/>
     <use xlink:href="#m6f9ede2e5b" x="199.416695" y="274.47" style="fill-opacity: 0; stroke: #000000"/>
     <use xlink:href="#m6f9ede2e5b" x="199.416695" y="269.374114" style="fill-opacity: 0; stroke: #000000"/>
     <use xlink:href="#m6f9ede2e5b" x="199.416695" y="206.710985" style="fill-opacity: 0; stroke: #000000"/>
    </g>
   </g>
   <g id="patch_10">
    <path d="M 229.528611 103.390012 
L 289.752442 103.390012 
L 289.752442 102.254991 
L 229.528611 102.254991 
L 229.528611 103.390012 
z
" clip-path="url(#p34132e8580)" style="fill: #597dbf; stroke: #3c3c3c; stroke-width: 0.4; stroke-linejoin: miter"/>
   </g>
   <g id="line2d_13">
    <path d="M 259.640527 103.390012 
L 259.640527 103.670666 
" clip-path="url(#p34132e8580)" style="fill: none; stroke: #3c3c3c; stroke-width: 0.4"/>
   </g>
   <g id="line2d_14">
    <path d="M 259.640527 102.254991 
L 259.640527 101.918783 
" clip-path="url(#p34132e8580)" style="fill: none; stroke: #3c3c3c; stroke-width: 0.4"/>
   </g>
   <g id="line2d_15">
    <path d="M 244.584569 103.670666 
L 274.696485 103.670666 
" clip-path="url(#p34132e8580)" style="fill: none; stroke: #3c3c3c; stroke-width: 0.4; stroke-linecap: round"/>
   </g>
   <g id="line2d_16">
    <path d="M 244.584569 101.918783 
L 274.696485 101.918783 
" clip-path="url(#p34132e8580)" style="fill: none; stroke: #3c3c3c; stroke-width: 0.4; stroke-linecap: round"/>
   </g>
   <g id="line2d_17">
    <g clip-path="url(#p34132e8580)">
     <use xlink:href="#m6f9ede2e5b" x="259.640527" y="103.70855" style="fill-opacity: 0; stroke: #000000"/>
     <use xlink:href="#m6f9ede2e5b" x="259.640527" y="143.505641" style="fill-opacity: 0; stroke: #000000"/>
     <use xlink:href="#m6f9ede2e5b" x="259.640527" y="101.579012" style="fill-opacity: 0; stroke: #000000"/>
     <use xlink:href="#m6f9ede2e5b" x="259.640527" y="101.577645" style="fill-opacity: 0; stroke: #000000"/>
    </g>
   </g>
   <g id="patch_11">
    <path d="M 289.752442 93.659033 
L 349.976274 93.659033 
L 349.976274 93.538352 
L 289.752442 93.538352 
L 289.752442 93.659033 
z
" clip-path="url(#p34132e8580)" style="fill: #d98b5f; stroke: #3c3c3c; stroke-width: 0.4; stroke-linejoin: miter"/>
   </g>
   <g id="line2d_18">
    <path d="M 319.864358 93.659033 
L 319.864358 93.753843 
" clip-path="url(#p34132e8580)" style="fill: none; stroke: #3c3c3c; stroke-width: 0.4"/>
   </g>
   <g id="line2d_19">
    <path d="M 319.864358 93.538352 
L 319.864358 93.439563 
" clip-path="url(#p34132e8580)" style="fill: none; stroke: #3c3c3c; stroke-width: 0.4"/>
   </g>
   <g id="line2d_20">
    <path d="M 304.8084 93.753843 
L 334.920316 93.753843 
" clip-path="url(#p34132e8580)" style="fill: none; stroke: #3c3c3c; stroke-width: 0.4; stroke-linecap: round"/>
   </g>
   <g id="line2d_21">
    <path d="M 304.8084 93.439563 
L 334.920316 93.439563 
" clip-path="url(#p34132e8580)" style="fill: none; stroke: #3c3c3c; stroke-width: 0.4; stroke-linecap: round"/>
   </g>
   <g id="line2d_22">
    <g clip-path="url(#p34132e8580)">
     <use xlink:href="#m6f9ede2e5b" x="319.864358" y="93.764314" style="fill-opacity: 0; stroke: #000000"/>
     <use xlink:href="#m6f9ede2e5b" x="319.864358" y="93.775369" style="fill-opacity: 0; stroke: #000000"/>
     <use xlink:href="#m6f9ede2e5b" x="319.864358" y="93.421671" style="fill-opacity: 0; stroke: #000000"/>
     <use xlink:href="#m6f9ede2e5b" x="319.864358" y="93.430124" style="fill-opacity: 0; stroke: #000000"/>
    </g>
   </g>
   <g id="patch_12">
    <path d="M 349.976274 43.491889 
L 410.200105 43.491889 
L 410.200105 43.473925 
L 349.976274 43.473925 
L 349.976274 43.491889 
z
" clip-path="url(#p34132e8580)" style="fill: #c76e6e; stroke: #3c3c3c; stroke-width: 0.4; stroke-linejoin: miter"/>
   </g>
   <g id="line2d_23">
    <path d="M 380.08819 43.491889 
L 380.08819 43.905718 
" clip-path="url(#p34132e8580)" style="fill: none; stroke: #3c3c3c; stroke-width: 0.4"/>
   </g>
   <g id="line2d_24">
    <path d="M 380.08819 43.473925 
L 380.08819 43.4717 
" clip-path="url(#p34132e8580)" style="fill: none; stroke: #3c3c3c; stroke-width: 0.4"/>
   </g>
   <g id="line2d_25">
    <path d="M 365.032232 43.905718 
L 395.144147 43.905718 
" clip-path="url(#p34132e8580)" style="fill: none; stroke: #3c3c3c; stroke-width: 0.4; stroke-linecap: round"/>
   </g>
   <g id="line2d_26">
    <path d="M 365.032232 43.4717 
L 395.144147 43.4717 
" clip-path="url(#p34132e8580)" style="fill: none; stroke: #3c3c3c; stroke-width: 0.4; stroke-linecap: round"/>
   </g>
   <g id="line2d_27">
    <g clip-path="url(#p34132e8580)">
     <use xlink:href="#m6f9ede2e5b" x="380.08819" y="44.069826" style="fill-opacity: 0; stroke: #000000"/>
     <use xlink:href="#m6f9ede2e5b" x="380.08819" y="44.114946" style="fill-opacity: 0; stroke: #000000"/>
     <use xlink:href="#m6f9ede2e5b" x="380.08819" y="44.220683" style="fill-opacity: 0; stroke: #000000"/>
     <use xlink:href="#m6f9ede2e5b" x="380.08819" y="44.020393" style="fill-opacity: 0; stroke: #000000"/>
     <use xlink:href="#m6f9ede2e5b" x="380.08819" y="43.944997" style="fill-opacity: 0; stroke: #000000"/>
     <use xlink:href="#m6f9ede2e5b" x="380.08819" y="43.470879" style="fill-opacity: 0; stroke: #000000"/>
     <use xlink:href="#m6f9ede2e5b" x="380.08819" y="43.470312" style="fill-opacity: 0; stroke: #000000"/>
     <use xlink:href="#m6f9ede2e5b" x="380.08819" y="43.47" style="fill-opacity: 0; stroke: #000000"/>
     <use xlink:href="#m6f9ede2e5b" x="380.08819" y="43.470595" style="fill-opacity: 0; stroke: #000000"/>
     <use xlink:href="#m6f9ede2e5b" x="380.08819" y="43.471162" style="fill-opacity: 0; stroke: #000000"/>
    </g>
   </g>
   <g id="line2d_28">
    <path d="M 109.080948 187.334302 
L 169.30478 187.334302 
" clip-path="url(#p34132e8580)" style="fill: none; stroke: #3c3c3c; stroke-width: 0.4"/>
   </g>
   <g id="line2d_29">
    <path d="M 169.30478 272.969603 
L 229.528611 272.969603 
" clip-path="url(#p34132e8580)" style="fill: none; stroke: #3c3c3c; stroke-width: 0.4"/>
   </g>
   <g id="line2d_30">
    <path d="M 229.528611 103.178907 
L 289.752442 103.178907 
" clip-path="url(#p34132e8580)" style="fill: none; stroke: #3c3c3c; stroke-width: 0.4"/>
   </g>
   <g id="line2d_31">
    <path d="M 289.752442 93.613766 
L 349.976274 93.613766 
" clip-path="url(#p34132e8580)" style="fill: none; stroke: #3c3c3c; stroke-width: 0.4"/>
   </g>
   <g id="line2d_32">
    <path d="M 349.976274 43.477142 
L 410.200105 43.477142 
" clip-path="url(#p34132e8580)" style="fill: none; stroke: #3c3c3c; stroke-width: 0.4"/>
   </g>
   <g id="patch_13">
    <path d="M 71.441053 286.02 
L 71.441053 31.92 
" style="fill: none; stroke: #cccccc; stroke-width: 1.25; stroke-linejoin: miter; stroke-linecap: square"/>
   </g>
   <g id="patch_14">
    <path d="M 447.84 286.02 
L 447.84 31.92 
" style="fill: none; stroke: #cccccc; stroke-width: 1.25; stroke-linejoin: miter; stroke-linecap: square"/>
   </g>
   <g id="patch_15">
    <path d="M 71.441053 286.02 
L 447.84 286.02 
" style="fill: none; stroke: #cccccc; stroke-width: 1.25; stroke-linejoin: miter; stroke-linecap: square"/>
   </g>
   <g id="patch_16">
    <path d="M 71.441053 31.92 
L 447.84 31.92 
" style="fill: none; stroke: #cccccc; stroke-width: 1.25; stroke-linejoin: miter; stroke-linecap: square"/>
   </g>
   <g id="text_6">
    <!-- osu_bw CPU 32 Nodes -->
    <g style="fill: #262626" transform="translate(170.765527 25.92) scale(0.16 -0.16)">
     <defs>
      <path id="DejaVuSans-75" d="M 544 1381 
L 544 3500 
L 1119 3500 
L 1119 1403 
Q 1119 906 1312 657 
Q 1506 409 1894 409 
Q 2359 409 2629 706 
Q 2900 1003 2900 1516 
L 2900 3500 
L 3475 3500 
L 3475 0 
L 2900 0 
L 2900 538 
Q 2691 219 2414 64 
Q 2138 -91 1772 -91 
Q 1169 -91 856 284 
Q 544 659 544 1381 
z
M 1991 3584 
L 1991 3584 
z
" transform="scale(0.015625)"/>
      <path id="DejaVuSans-5f" d="M 3263 -1063 
L 3263 -1509 
L -63 -1509 
L -63 -1063 
L 3263 -1063 
z
" transform="scale(0.015625)"/>
      <path id="DejaVuSans-43" d="M 4122 4306 
L 4122 3641 
Q 3803 3938 3442 4084 
Q 3081 4231 2675 4231 
Q 1875 4231 1450 3742 
Q 1025 3253 1025 2328 
Q 1025 1406 1450 917 
Q 1875 428 2675 428 
Q 3081 428 3442 575 
Q 3803 722 4122 1019 
L 4122 359 
Q 3791 134 3420 21 
Q 3050 -91 2638 -91 
Q 1578 -91 968 557 
Q 359 1206 359 2328 
Q 359 3453 968 4101 
Q 1578 4750 2638 4750 
Q 3056 4750 3426 4639 
Q 3797 4528 4122 4306 
z
" transform="scale(0.015625)"/>
      <path id="DejaVuSans-50" d="M 1259 4147 
L 1259 2394 
L 2053 2394 
Q 2494 2394 2734 2622 
Q 2975 2850 2975 3272 
Q 2975 3691 2734 3919 
Q 2494 4147 2053 4147 
L 1259 4147 
z
M 628 4666 
L 2053 4666 
Q 2838 4666 3239 4311 
Q 3641 3956 3641 3272 
Q 3641 2581 3239 2228 
Q 2838 1875 2053 1875 
L 1259 1875 
L 1259 0 
L 628 0 
L 628 4666 
z
" transform="scale(0.015625)"/>
      <path id="DejaVuSans-55" d="M 556 4666 
L 1191 4666 
L 1191 1831 
Q 1191 1081 1462 751 
Q 1734 422 2344 422 
Q 2950 422 3222 751 
Q 3494 1081 3494 1831 
L 3494 4666 
L 4128 4666 
L 4128 1753 
Q 4128 841 3676 375 
Q 3225 -91 2344 -91 
Q 1459 -91 1007 375 
Q 556 841 556 1753 
L 556 4666 
z
" transform="scale(0.015625)"/>
      <path id="DejaVuSans-32" d="M 1228 531 
L 3431 531 
L 3431 0 
L 469 0 
L 469 531 
Q 828 903 1448 1529 
Q 2069 2156 2228 2338 
Q 2531 2678 2651 2914 
Q 2772 3150 2772 3378 
Q 2772 3750 2511 3984 
Q 2250 4219 1831 4219 
Q 1534 4219 1204 4116 
Q 875 4013 500 3803 
L 500 4441 
Q 881 4594 1212 4672 
Q 1544 4750 1819 4750 
Q 2544 4750 2975 4387 
Q 3406 4025 3406 3419 
Q 3406 3131 3298 2873 
Q 3191 2616 2906 2266 
Q 2828 2175 2409 1742 
Q 1991 1309 1228 531 
z
" transform="scale(0.015625)"/>
      <path id="DejaVuSans-4e" d="M 628 4666 
L 1478 4666 
L 3547 763 
L 3547 4666 
L 4159 4666 
L 4159 0 
L 3309 0 
L 1241 3903 
L 1241 0 
L 628 0 
L 628 4666 
z
" transform="scale(0.015625)"/>
     </defs>
     <use xlink:href="#DejaVuSans-6f"/>
     <use xlink:href="#DejaVuSans-73" x="61.181641"/>
     <use xlink:href="#DejaVuSans-75" x="113.28125"/>
     <use xlink:href="#DejaVuSans-5f" x="176.660156"/>
     <use xlink:href="#DejaVuSans-62" x="226.660156"/>
     <use xlink:href="#DejaVuSans-77" x="290.136719"/>
     <use xlink:href="#DejaVuSans-20" x="371.923828"/>
     <use xlink:href="#DejaVuSans-43" x="403.710938"/>
     <use xlink:href="#DejaVuSans-50" x="473.535156"/>
     <use xlink:href="#DejaVuSans-55" x="533.837891"/>
     <use xlink:href="#DejaVuSans-20" x="607.03125"/>
     <use xlink:href="#DejaVuSans-33" x="638.818359"/>
     <use xlink:href="#DejaVuSans-32" x="702.441406"/>
     <use xlink:href="#DejaVuSans-20" x="766.064453"/>
     <use xlink:href="#DejaVuSans-4e" x="797.851562"/>
     <use xlink:href="#DejaVuSans-6f" x="872.65625"/>
     <use xlink:href="#DejaVuSans-64" x="933.837891"/>
     <use xlink:href="#DejaVuSans-65" x="997.314453"/>
     <use xlink:href="#DejaVuSans-73" x="1058.837891"/>
    </g>
   </g>
   <g id="legend_1">
    <g id="patch_17">
     <path d="M 205.640625 201.749687 
L 440.14 201.749687 
Q 442.34 201.749687 442.34 199.549688 
L 442.34 118.390312 
Q 442.34 116.190312 440.14 116.190312 
L 205.640625 116.190312 
Q 203.440625 116.190312 203.440625 118.390312 
L 203.440625 199.549688 
Q 203.440625 201.749687 205.640625 201.749687 
z
" style="fill: #ffffff; opacity: 0.8; stroke: #cccccc; stroke-linejoin: miter"/>
    </g>
    <g id="patch_18">
     <path d="M 207.840625 128.948594 
L 229.840625 128.948594 
L 229.840625 121.248594 
L 207.840625 121.248594 
z
" style="fill: #826246; stroke: #3c3c3c; stroke-width: 0.4; stroke-linejoin: miter"/>
    </g>
    <g id="text_7">
     <!-- google/gke/cpu/osu_bw -->
     <g style="fill: #262626" transform="translate(238.640625 128.948594) scale(0.11 -0.11)">
      <defs>
       <path id="DejaVuSans-2f" d="M 1625 4666 
L 2156 4666 
L 531 -594 
L 0 -594 
L 1625 4666 
z
" transform="scale(0.015625)"/>
       <path id="DejaVuSans-6b" d="M 581 4863 
L 1159 4863 
L 1159 1991 
L 2875 3500 
L 3609 3500 
L 1753 1863 
L 3688 0 
L 2938 0 
L 1159 1709 
L 1159 0 
L 581 0 
L 581 4863 
z
" transform="scale(0.015625)"/>
       <path id="DejaVuSans-70" d="M 1159 525 
L 1159 -1331 
L 581 -1331 
L 581 3500 
L 1159 3500 
L 1159 2969 
Q 1341 3281 1617 3432 
Q 1894 3584 2278 3584 
Q 2916 3584 3314 3078 
Q 3713 2572 3713 1747 
Q 3713 922 3314 415 
Q 2916 -91 2278 -91 
Q 1894 -91 1617 61 
Q 1341 213 1159 525 
z
M 3116 1747 
Q 3116 2381 2855 2742 
Q 2594 3103 2138 3103 
Q 1681 3103 1420 2742 
Q 1159 2381 1159 1747 
Q 1159 1113 1420 752 
Q 1681 391 2138 391 
Q 2594 391 2855 752 
Q 3116 1113 3116 1747 
z
" transform="scale(0.015625)"/>
      </defs>
      <use xlink:href="#DejaVuSans-67"/>
      <use xlink:href="#DejaVuSans-6f" x="63.476562"/>
      <use xlink:href="#DejaVuSans-6f" x="124.658203"/>
      <use xlink:href="#DejaVuSans-67" x="185.839844"/>
      <use xlink:href="#DejaVuSans-6c" x="249.316406"/>
      <use xlink:href="#DejaVuSans-65" x="277.099609"/>
      <use xlink:href="#DejaVuSans-2f" x="338.623047"/>
      <use xlink:href="#DejaVuSans-67" x="372.314453"/>
      <use xlink:href="#DejaVuSans-6b" x="435.791016"/>
      <use xlink:href="#DejaVuSans-65" x="490.076172"/>
      <use xlink:href="#DejaVuSans-2f" x="551.599609"/>
      <use xlink:href="#DejaVuSans-63" x="585.291016"/>
      <use xlink:href="#DejaVuSans-70" x="640.271484"/>
      <use xlink:href="#DejaVuSans-75" x="703.748047"/>
      <use xlink:href="#DejaVuSans-2f" x="767.126953"/>
      <use xlink:href="#DejaVuSans-6f" x="800.818359"/>
      <use xlink:href="#DejaVuSans-73" x="862"/>
      <use xlink:href="#DejaVuSans-75" x="914.099609"/>
      <use xlink:href="#DejaVuSans-5f" x="977.478516"/>
      <use xlink:href="#DejaVuSans-62" x="1027.478516"/>
      <use xlink:href="#DejaVuSans-77" x="1090.955078"/>
     </g>
    </g>
    <g id="patch_19">
     <path d="M 207.840625 145.400469 
L 229.840625 145.400469 
L 229.840625 137.700469 
L 207.840625 137.700469 
z
" style="fill: #9475ab; stroke: #3c3c3c; stroke-width: 0.4; stroke-linejoin: miter"/>
    </g>
    <g id="text_8">
     <!-- google/compute-engine/cpu/osu_bw -->
     <g style="fill: #262626" transform="translate(238.640625 145.400469) scale(0.11 -0.11)">
      <defs>
       <path id="DejaVuSans-2d" d="M 313 2009 
L 1997 2009 
L 1997 1497 
L 313 1497 
L 313 2009 
z
" transform="scale(0.015625)"/>
      </defs>
      <use xlink:href="#DejaVuSans-67"/>
      <use xlink:href="#DejaVuSans-6f" x="63.476562"/>
      <use xlink:href="#DejaVuSans-6f" x="124.658203"/>
      <use xlink:href="#DejaVuSans-67" x="185.839844"/>
      <use xlink:href="#DejaVuSans-6c" x="249.316406"/>
      <use xlink:href="#DejaVuSans-65" x="277.099609"/>
      <use xlink:href="#DejaVuSans-2f" x="338.623047"/>
      <use xlink:href="#DejaVuSans-63" x="372.314453"/>
      <use xlink:href="#DejaVuSans-6f" x="427.294922"/>
      <use xlink:href="#DejaVuSans-6d" x="488.476562"/>
      <use xlink:href="#DejaVuSans-70" x="585.888672"/>
      <use xlink:href="#DejaVuSans-75" x="649.365234"/>
      <use xlink:href="#DejaVuSans-74" x="712.744141"/>
      <use xlink:href="#DejaVuSans-65" x="751.953125"/>
      <use xlink:href="#DejaVuSans-2d" x="813.476562"/>
      <use xlink:href="#DejaVuSans-65" x="849.560547"/>
      <use xlink:href="#DejaVuSans-6e" x="911.083984"/>
      <use xlink:href="#DejaVuSans-67" x="974.462891"/>
      <use xlink:href="#DejaVuSans-69" x="1037.939453"/>
      <use xlink:href="#DejaVuSans-6e" x="1065.722656"/>
      <use xlink:href="#DejaVuSans-65" x="1129.101562"/>
      <use xlink:href="#DejaVuSans-2f" x="1190.625"/>
      <use xlink:href="#DejaVuSans-63" x="1224.316406"/>
      <use xlink:href="#DejaVuSans-70" x="1279.296875"/>
      <use xlink:href="#DejaVuSans-75" x="1342.773438"/>
      <use xlink:href="#DejaVuSans-2f" x="1406.152344"/>
      <use xlink:href="#DejaVuSans-6f" x="1439.84375"/>
      <use xlink:href="#DejaVuSans-73" x="1501.025391"/>
      <use xlink:href="#DejaVuSans-75" x="1553.125"/>
      <use xlink:href="#DejaVuSans-5f" x="1616.503906"/>
      <use xlink:href="#DejaVuSans-62" x="1666.503906"/>
      <use xlink:href="#DejaVuSans-77" x="1729.980469"/>
     </g>
    </g>
    <g id="patch_20">
     <path d="M 207.840625 161.852344 
L 229.840625 161.852344 
L 229.840625 154.152344 
L 207.840625 154.152344 
z
" style="fill: #597dbf; stroke: #3c3c3c; stroke-width: 0.4; stroke-linejoin: miter"/>
    </g>
    <g id="text_9">
     <!-- aws/eks/cpu/osu_bw -->
     <g style="fill: #262626" transform="translate(238.640625 161.852344) scale(0.11 -0.11)">
      <use xlink:href="#DejaVuSans-61"/>
      <use xlink:href="#DejaVuSans-77" x="61.279297"/>
      <use xlink:href="#DejaVuSans-73" x="143.066406"/>
      <use xlink:href="#DejaVuSans-2f" x="195.166016"/>
      <use xlink:href="#DejaVuSans-65" x="228.857422"/>
      <use xlink:href="#DejaVuSans-6b" x="290.380859"/>
      <use xlink:href="#DejaVuSans-73" x="348.291016"/>
      <use xlink:href="#DejaVuSans-2f" x="400.390625"/>
      <use xlink:href="#DejaVuSans-63" x="434.082031"/>
      <use xlink:href="#DejaVuSans-70" x="489.0625"/>
      <use xlink:href="#DejaVuSans-75" x="552.539062"/>
      <use xlink:href="#DejaVuSans-2f" x="615.917969"/>
      <use xlink:href="#DejaVuSans-6f" x="649.609375"/>
      <use xlink:href="#DejaVuSans-73" x="710.791016"/>
      <use xlink:href="#DejaVuSans-75" x="762.890625"/>
      <use xlink:href="#DejaVuSans-5f" x="826.269531"/>
      <use xlink:href="#DejaVuSans-62" x="876.269531"/>
      <use xlink:href="#DejaVuSans-77" x="939.746094"/>
     </g>
    </g>
    <g id="patch_21">
     <path d="M 207.840625 178.304219 
L 229.840625 178.304219 
L 229.840625 170.604219 
L 207.840625 170.604219 
z
" style="fill: #d98b5f; stroke: #3c3c3c; stroke-width: 0.4; stroke-linejoin: miter"/>
    </g>
    <g id="text_10">
     <!-- aws/parallel-cluster/cpu/osu_bw -->
     <g style="fill: #262626" transform="translate(238.640625 178.304219) scale(0.11 -0.11)">
      <defs>
       <path id="DejaVuSans-72" d="M 2631 2963 
Q 2534 3019 2420 3045 
Q 2306 3072 2169 3072 
Q 1681 3072 1420 2755 
Q 1159 2438 1159 1844 
L 1159 0 
L 581 0 
L 581 3500 
L 1159 3500 
L 1159 2956 
Q 1341 3275 1631 3429 
Q 1922 3584 2338 3584 
Q 2397 3584 2469 3576 
Q 2541 3569 2628 3553 
L 2631 2963 
z
" transform="scale(0.015625)"/>
      </defs>
      <use xlink:href="#DejaVuSans-61"/>
      <use xlink:href="#DejaVuSans-77" x="61.279297"/>
      <use xlink:href="#DejaVuSans-73" x="143.066406"/>
      <use xlink:href="#DejaVuSans-2f" x="195.166016"/>
      <use xlink:href="#DejaVuSans-70" x="228.857422"/>
      <use xlink:href="#DejaVuSans-61" x="292.333984"/>
      <use xlink:href="#DejaVuSans-72" x="353.613281"/>
      <use xlink:href="#DejaVuSans-61" x="394.726562"/>
      <use xlink:href="#DejaVuSans-6c" x="456.005859"/>
      <use xlink:href="#DejaVuSans-6c" x="483.789062"/>
      <use xlink:href="#DejaVuSans-65" x="511.572266"/>
      <use xlink:href="#DejaVuSans-6c" x="573.095703"/>
      <use xlink:href="#DejaVuSans-2d" x="600.878906"/>
      <use xlink:href="#DejaVuSans-63" x="636.962891"/>
      <use xlink:href="#DejaVuSans-6c" x="691.943359"/>
      <use xlink:href="#DejaVuSans-75" x="719.726562"/>
      <use xlink:href="#DejaVuSans-73" x="783.105469"/>
      <use xlink:href="#DejaVuSans-74" x="835.205078"/>
      <use xlink:href="#DejaVuSans-65" x="874.414062"/>
      <use xlink:href="#DejaVuSans-72" x="935.9375"/>
      <use xlink:href="#DejaVuSans-2f" x="977.050781"/>
      <use xlink:href="#DejaVuSans-63" x="1010.742188"/>
      <use xlink:href="#DejaVuSans-70" x="1065.722656"/>
      <use xlink:href="#DejaVuSans-75" x="1129.199219"/>
      <use xlink:href="#DejaVuSans-2f" x="1192.578125"/>
      <use xlink:href="#DejaVuSans-6f" x="1226.269531"/>
      <use xlink:href="#DejaVuSans-73" x="1287.451172"/>
      <use xlink:href="#DejaVuSans-75" x="1339.550781"/>
      <use xlink:href="#DejaVuSans-5f" x="1402.929688"/>
      <use xlink:href="#DejaVuSans-62" x="1452.929688"/>
      <use xlink:href="#DejaVuSans-77" x="1516.40625"/>
     </g>
    </g>
    <g id="patch_22">
     <path d="M 207.840625 194.756094 
L 229.840625 194.756094 
L 229.840625 187.056094 
L 207.840625 187.056094 
z
" style="fill: #c76e6e; stroke: #3c3c3c; stroke-width: 0.4; stroke-linejoin: miter"/>
    </g>
    <g id="text_11">
     <!-- azure/cyclecloud/cpu/osu_bw -->
     <g style="fill: #262626" transform="translate(238.640625 194.756094) scale(0.11 -0.11)">
      <use xlink:href="#DejaVuSans-61"/>
      <use xlink:href="#DejaVuSans-7a" x="61.279297"/>
      <use xlink:href="#DejaVuSans-75" x="113.769531"/>
      <use xlink:href="#DejaVuSans-72" x="177.148438"/>
      <use xlink:href="#DejaVuSans-65" x="216.011719"/>
      <use xlink:href="#DejaVuSans-2f" x="277.535156"/>
      <use xlink:href="#DejaVuSans-63" x="311.226562"/>
      <use xlink:href="#DejaVuSans-79" x="366.207031"/>
      <use xlink:href="#DejaVuSans-63" x="425.386719"/>
      <use xlink:href="#DejaVuSans-6c" x="480.367188"/>
      <use xlink:href="#DejaVuSans-65" x="508.150391"/>
      <use xlink:href="#DejaVuSans-63" x="569.673828"/>
      <use xlink:href="#DejaVuSans-6c" x="624.654297"/>
      <use xlink:href="#DejaVuSans-6f" x="652.4375"/>
      <use xlink:href="#DejaVuSans-75" x="713.619141"/>
      <use xlink:href="#DejaVuSans-64" x="776.998047"/>
      <use xlink:href="#DejaVuSans-2f" x="840.474609"/>
      <use xlink:href="#DejaVuSans-63" x="874.166016"/>
      <use xlink:href="#DejaVuSans-70" x="929.146484"/>
      <use xlink:href="#DejaVuSans-75" x="992.623047"/>
      <use xlink:href="#DejaVuSans-2f" x="1056.001953"/>
      <use xlink:href="#DejaVuSans-6f" x="1089.693359"/>
      <use xlink:href="#DejaVuSans-73" x="1150.875"/>
      <use xlink:href="#DejaVuSans-75" x="1202.974609"/>
      <use xlink:href="#DejaVuSans-5f" x="1266.353516"/>
      <use xlink:href="#DejaVuSans-62" x="1316.353516"/>
      <use xlink:href="#DejaVuSans-77" x="1379.830078"/>
     </g>
    </g>
   </g>
  </g>
 </g>
 <defs>
  <clipPath id="p34132e8580">
   <rect x="71.441053" y="31.92" width="376.398947" height="254.1"/>
  </clipPath>
 </defs>
</svg>
