<?xml version="1.0" encoding="utf-8" standalone="no"?>
<!DOCTYPE svg PUBLIC "-//W3C//DTD SVG 1.1//EN"
  "http://www.w3.org/Graphics/SVG/1.1/DTD/svg11.dtd">
<svg xmlns:xlink="http://www.w3.org/1999/xlink" width="576pt" height="288pt" viewBox="0 0 576 288" xmlns="http://www.w3.org/2000/svg" version="1.1">
 <metadata>
  <rdf:RDF xmlns:dc="http://purl.org/dc/elements/1.1/" xmlns:cc="http://creativecommons.org/ns#" xmlns:rdf="http://www.w3.org/1999/02/22-rdf-syntax-ns#">
   <cc:Work>
    <dc:type rdf:resource="http://purl.org/dc/dcmitype/StillImage"/>
    <dc:date>2025-02-04T10:13:37.263548</dc:date>
    <dc:format>image/svg+xml</dc:format>
    <dc:creator>
     <cc:Agent>
      <dc:title>Matplotlib v3.8.4, https://matplotlib.org/</dc:title>
     </cc:Agent>
    </dc:creator>
   </cc:Work>
  </rdf:RDF>
 </metadata>
 <defs>
  <style type="text/css">*{stroke-linejoin: round; stroke-linecap: butt}</style>
 </defs>
 <g id="figure_1">
  <g id="patch_1">
   <path d="M 0 288 
L 576 288 
L 576 0 
L 0 0 
z
" style="fill: #ffffff"/>
  </g>
  <g id="axes_1">
   <g id="patch_2">
    <path d="M 71.441053 226.836 
L 563.04 226.836 
L 563.04 31.92 
L 71.441053 31.92 
z
" style="fill: #ffffff"/>
   </g>
   <g id="matplotlib.axis_1">
    <g id="xtick_1">
     <g id="line2d_1">
      <path d="M 126.607594 226.836 
L 126.607594 31.92 
" clip-path="url(#pbe55f5f2c0)" style="fill: none; stroke: #cccccc; stroke-linecap: round"/>
     </g>
     <g id="text_1">
      <!-- $\mathdefault{10^{1}}$ -->
      <g style="fill: #262626" transform="translate(112.527594 248.4935) scale(0.16 -0.16)">
       <defs>
        <path id="DejaVuSans-31" d="M 794 531 
L 1825 531 
L 1825 4091 
L 703 3866 
L 703 4441 
L 1819 4666 
L 2450 4666 
L 2450 531 
L 3481 531 
L 3481 0 
L 794 0 
L 794 531 
z
" transform="scale(0.015625)"/>
        <path id="DejaVuSans-30" d="M 2034 4250 
Q 1547 4250 1301 3770 
Q 1056 3291 1056 2328 
Q 1056 1369 1301 889 
Q 1547 409 2034 409 
Q 2525 409 2770 889 
Q 3016 1369 3016 2328 
Q 3016 3291 2770 3770 
Q 2525 4250 2034 4250 
z
M 2034 4750 
Q 2819 4750 3233 4129 
Q 3647 3509 3647 2328 
Q 3647 1150 3233 529 
Q 2819 -91 2034 -91 
Q 1250 -91 836 529 
Q 422 1150 422 2328 
Q 422 3509 836 4129 
Q 1250 4750 2034 4750 
z
" transform="scale(0.015625)"/>
       </defs>
       <use xlink:href="#DejaVuSans-31" transform="translate(0 0.684375)"/>
       <use xlink:href="#DejaVuSans-30" transform="translate(63.623047 0.684375)"/>
       <use xlink:href="#DejaVuSans-31" transform="translate(128.203125 38.965625) scale(0.7)"/>
      </g>
     </g>
    </g>
    <g id="xtick_2">
     <g id="line2d_2">
      <path d="M 209.085188 226.836 
L 209.085188 31.92 
" clip-path="url(#pbe55f5f2c0)" style="fill: none; stroke: #cccccc; stroke-linecap: round"/>
     </g>
     <g id="text_2">
      <!-- $\mathdefault{10^{2}}$ -->
      <g style="fill: #262626" transform="translate(195.005188 248.4935) scale(0.16 -0.16)">
       <defs>
        <path id="DejaVuSans-32" d="M 1228 531 
L 3431 531 
L 3431 0 
L 469 0 
L 469 531 
Q 828 903 1448 1529 
Q 2069 2156 2228 2338 
Q 2531 2678 2651 2914 
Q 2772 3150 2772 3378 
Q 2772 3750 2511 3984 
Q 2250 4219 1831 4219 
Q 1534 4219 1204 4116 
Q 875 4013 500 3803 
L 500 4441 
Q 881 4594 1212 4672 
Q 1544 4750 1819 4750 
Q 2544 4750 2975 4387 
Q 3406 4025 3406 3419 
Q 3406 3131 3298 2873 
Q 3191 2616 2906 2266 
Q 2828 2175 2409 1742 
Q 1991 1309 1228 531 
z
" transform="scale(0.015625)"/>
       </defs>
       <use xlink:href="#DejaVuSans-31" transform="translate(0 0.765625)"/>
       <use xlink:href="#DejaVuSans-30" transform="translate(63.623047 0.765625)"/>
       <use xlink:href="#DejaVuSans-32" transform="translate(128.203125 39.046875) scale(0.7)"/>
      </g>
     </g>
    </g>
    <g id="xtick_3">
     <g id="line2d_3">
      <path d="M 291.562781 226.836 
L 291.562781 31.92 
" clip-path="url(#pbe55f5f2c0)" style="fill: none; stroke: #cccccc; stroke-linecap: round"/>
     </g>
     <g id="text_3">
      <!-- $\mathdefault{10^{3}}$ -->
      <g style="fill: #262626" transform="translate(277.482781 248.4935) scale(0.16 -0.16)">
       <defs>
        <path id="DejaVuSans-33" d="M 2597 2516 
Q 3050 2419 3304 2112 
Q 3559 1806 3559 1356 
Q 3559 666 3084 287 
Q 2609 -91 1734 -91 
Q 1441 -91 1130 -33 
Q 819 25 488 141 
L 488 750 
Q 750 597 1062 519 
Q 1375 441 1716 441 
Q 2309 441 2620 675 
Q 2931 909 2931 1356 
Q 2931 1769 2642 2001 
Q 2353 2234 1838 2234 
L 1294 2234 
L 1294 2753 
L 1863 2753 
Q 2328 2753 2575 2939 
Q 2822 3125 2822 3475 
Q 2822 3834 2567 4026 
Q 2313 4219 1838 4219 
Q 1578 4219 1281 4162 
Q 984 4106 628 3988 
L 628 4550 
Q 988 4650 1302 4700 
Q 1616 4750 1894 4750 
Q 2613 4750 3031 4423 
Q 3450 4097 3450 3541 
Q 3450 3153 3228 2886 
Q 3006 2619 2597 2516 
z
" transform="scale(0.015625)"/>
       </defs>
       <use xlink:href="#DejaVuSans-31" transform="translate(0 0.765625)"/>
       <use xlink:href="#DejaVuSans-30" transform="translate(63.623047 0.765625)"/>
       <use xlink:href="#DejaVuSans-33" transform="translate(128.203125 39.046875) scale(0.7)"/>
      </g>
     </g>
    </g>
    <g id="xtick_4">
     <g id="line2d_4">
      <path d="M 374.040375 226.836 
L 374.040375 31.92 
" clip-path="url(#pbe55f5f2c0)" style="fill: none; stroke: #cccccc; stroke-linecap: round"/>
     </g>
     <g id="text_4">
      <!-- $\mathdefault{10^{4}}$ -->
      <g style="fill: #262626" transform="translate(359.960375 248.4935) scale(0.16 -0.16)">
       <defs>
        <path id="DejaVuSans-34" d="M 2419 4116 
L 825 1625 
L 2419 1625 
L 2419 4116 
z
M 2253 4666 
L 3047 4666 
L 3047 1625 
L 3713 1625 
L 3713 1100 
L 3047 1100 
L 3047 0 
L 2419 0 
L 2419 1100 
L 313 1100 
L 313 1709 
L 2253 4666 
z
" transform="scale(0.015625)"/>
       </defs>
       <use xlink:href="#DejaVuSans-31" transform="translate(0 0.684375)"/>
       <use xlink:href="#DejaVuSans-30" transform="translate(63.623047 0.684375)"/>
       <use xlink:href="#DejaVuSans-34" transform="translate(128.203125 38.965625) scale(0.7)"/>
      </g>
     </g>
    </g>
    <g id="xtick_5">
     <g id="line2d_5">
      <path d="M 456.517969 226.836 
L 456.517969 31.92 
" clip-path="url(#pbe55f5f2c0)" style="fill: none; stroke: #cccccc; stroke-linecap: round"/>
     </g>
     <g id="text_5">
      <!-- $\mathdefault{10^{5}}$ -->
      <g style="fill: #262626" transform="translate(442.437969 248.4935) scale(0.16 -0.16)">
       <defs>
        <path id="DejaVuSans-35" d="M 691 4666 
L 3169 4666 
L 3169 4134 
L 1269 4134 
L 1269 2991 
Q 1406 3038 1543 3061 
Q 1681 3084 1819 3084 
Q 2600 3084 3056 2656 
Q 3513 2228 3513 1497 
Q 3513 744 3044 326 
Q 2575 -91 1722 -91 
Q 1428 -91 1123 -41 
Q 819 9 494 109 
L 494 744 
Q 775 591 1075 516 
Q 1375 441 1709 441 
Q 2250 441 2565 725 
Q 2881 1009 2881 1497 
Q 2881 1984 2565 2268 
Q 2250 2553 1709 2553 
Q 1456 2553 1204 2497 
Q 953 2441 691 2322 
L 691 4666 
z
" transform="scale(0.015625)"/>
       </defs>
       <use xlink:href="#DejaVuSans-31" transform="translate(0 0.684375)"/>
       <use xlink:href="#DejaVuSans-30" transform="translate(63.623047 0.684375)"/>
       <use xlink:href="#DejaVuSans-35" transform="translate(128.203125 38.965625) scale(0.7)"/>
      </g>
     </g>
    </g>
    <g id="xtick_6">
     <g id="line2d_6">
      <path d="M 538.995562 226.836 
L 538.995562 31.92 
" clip-path="url(#pbe55f5f2c0)" style="fill: none; stroke: #cccccc; stroke-linecap: round"/>
     </g>
     <g id="text_6">
      <!-- $\mathdefault{10^{6}}$ -->
      <g style="fill: #262626" transform="translate(524.915562 248.4935) scale(0.16 -0.16)">
       <defs>
        <path id="DejaVuSans-36" d="M 2113 2584 
Q 1688 2584 1439 2293 
Q 1191 2003 1191 1497 
Q 1191 994 1439 701 
Q 1688 409 2113 409 
Q 2538 409 2786 701 
Q 3034 994 3034 1497 
Q 3034 2003 2786 2293 
Q 2538 2584 2113 2584 
z
M 3366 4563 
L 3366 3988 
Q 3128 4100 2886 4159 
Q 2644 4219 2406 4219 
Q 1781 4219 1451 3797 
Q 1122 3375 1075 2522 
Q 1259 2794 1537 2939 
Q 1816 3084 2150 3084 
Q 2853 3084 3261 2657 
Q 3669 2231 3669 1497 
Q 3669 778 3244 343 
Q 2819 -91 2113 -91 
Q 1303 -91 875 529 
Q 447 1150 447 2328 
Q 447 3434 972 4092 
Q 1497 4750 2381 4750 
Q 2619 4750 2861 4703 
Q 3103 4656 3366 4563 
z
" transform="scale(0.015625)"/>
       </defs>
       <use xlink:href="#DejaVuSans-31" transform="translate(0 0.765625)"/>
       <use xlink:href="#DejaVuSans-30" transform="translate(63.623047 0.765625)"/>
       <use xlink:href="#DejaVuSans-36" transform="translate(128.203125 39.046875) scale(0.7)"/>
      </g>
     </g>
    </g>
    <g id="xtick_7"/>
    <g id="xtick_8"/>
    <g id="xtick_9"/>
    <g id="xtick_10"/>
    <g id="xtick_11"/>
    <g id="xtick_12"/>
    <g id="xtick_13"/>
    <g id="xtick_14"/>
    <g id="xtick_15"/>
    <g id="xtick_16"/>
    <g id="xtick_17"/>
    <g id="xtick_18"/>
    <g id="xtick_19"/>
    <g id="xtick_20"/>
    <g id="xtick_21"/>
    <g id="xtick_22"/>
    <g id="xtick_23"/>
    <g id="xtick_24"/>
    <g id="xtick_25"/>
    <g id="xtick_26"/>
    <g id="xtick_27"/>
    <g id="xtick_28"/>
    <g id="xtick_29"/>
    <g id="xtick_30"/>
    <g id="xtick_31"/>
    <g id="xtick_32"/>
    <g id="xtick_33"/>
    <g id="xtick_34"/>
    <g id="xtick_35"/>
    <g id="xtick_36"/>
    <g id="xtick_37"/>
    <g id="xtick_38"/>
    <g id="xtick_39"/>
    <g id="xtick_40"/>
    <g id="xtick_41"/>
    <g id="xtick_42"/>
    <g id="xtick_43"/>
    <g id="xtick_44"/>
    <g id="xtick_45"/>
    <g id="xtick_46"/>
    <g id="xtick_47"/>
    <g id="xtick_48"/>
    <g id="xtick_49"/>
    <g id="xtick_50"/>
    <g id="xtick_51"/>
    <g id="xtick_52"/>
    <g id="xtick_53"/>
    <g id="text_7">
     <!-- Message size in bytes (logscale) -->
     <g style="fill: #262626" transform="translate(188.110527 267.9785) scale(0.16 -0.16)">
      <defs>
       <path id="DejaVuSans-4d" d="M 628 4666 
L 1569 4666 
L 2759 1491 
L 3956 4666 
L 4897 4666 
L 4897 0 
L 4281 0 
L 4281 4097 
L 3078 897 
L 2444 897 
L 1241 4097 
L 1241 0 
L 628 0 
L 628 4666 
z
" transform="scale(0.015625)"/>
       <path id="DejaVuSans-65" d="M 3597 1894 
L 3597 1613 
L 953 1613 
Q 991 1019 1311 708 
Q 1631 397 2203 397 
Q 2534 397 2845 478 
Q 3156 559 3463 722 
L 3463 178 
Q 3153 47 2828 -22 
Q 2503 -91 2169 -91 
Q 1331 -91 842 396 
Q 353 884 353 1716 
Q 353 2575 817 3079 
Q 1281 3584 2069 3584 
Q 2775 3584 3186 3129 
Q 3597 2675 3597 1894 
z
M 3022 2063 
Q 3016 2534 2758 2815 
Q 2500 3097 2075 3097 
Q 1594 3097 1305 2825 
Q 1016 2553 972 2059 
L 3022 2063 
z
" transform="scale(0.015625)"/>
       <path id="DejaVuSans-73" d="M 2834 3397 
L 2834 2853 
Q 2591 2978 2328 3040 
Q 2066 3103 1784 3103 
Q 1356 3103 1142 2972 
Q 928 2841 928 2578 
Q 928 2378 1081 2264 
Q 1234 2150 1697 2047 
L 1894 2003 
Q 2506 1872 2764 1633 
Q 3022 1394 3022 966 
Q 3022 478 2636 193 
Q 2250 -91 1575 -91 
Q 1294 -91 989 -36 
Q 684 19 347 128 
L 347 722 
Q 666 556 975 473 
Q 1284 391 1588 391 
Q 1994 391 2212 530 
Q 2431 669 2431 922 
Q 2431 1156 2273 1281 
Q 2116 1406 1581 1522 
L 1381 1569 
Q 847 1681 609 1914 
Q 372 2147 372 2553 
Q 372 3047 722 3315 
Q 1072 3584 1716 3584 
Q 2034 3584 2315 3537 
Q 2597 3491 2834 3397 
z
" transform="scale(0.015625)"/>
       <path id="DejaVuSans-61" d="M 2194 1759 
Q 1497 1759 1228 1600 
Q 959 1441 959 1056 
Q 959 750 1161 570 
Q 1363 391 1709 391 
Q 2188 391 2477 730 
Q 2766 1069 2766 1631 
L 2766 1759 
L 2194 1759 
z
M 3341 1997 
L 3341 0 
L 2766 0 
L 2766 531 
Q 2569 213 2275 61 
Q 1981 -91 1556 -91 
Q 1019 -91 701 211 
Q 384 513 384 1019 
Q 384 1609 779 1909 
Q 1175 2209 1959 2209 
L 2766 2209 
L 2766 2266 
Q 2766 2663 2505 2880 
Q 2244 3097 1772 3097 
Q 1472 3097 1187 3025 
Q 903 2953 641 2809 
L 641 3341 
Q 956 3463 1253 3523 
Q 1550 3584 1831 3584 
Q 2591 3584 2966 3190 
Q 3341 2797 3341 1997 
z
" transform="scale(0.015625)"/>
       <path id="DejaVuSans-67" d="M 2906 1791 
Q 2906 2416 2648 2759 
Q 2391 3103 1925 3103 
Q 1463 3103 1205 2759 
Q 947 2416 947 1791 
Q 947 1169 1205 825 
Q 1463 481 1925 481 
Q 2391 481 2648 825 
Q 2906 1169 2906 1791 
z
M 3481 434 
Q 3481 -459 3084 -895 
Q 2688 -1331 1869 -1331 
Q 1566 -1331 1297 -1286 
Q 1028 -1241 775 -1147 
L 775 -588 
Q 1028 -725 1275 -790 
Q 1522 -856 1778 -856 
Q 2344 -856 2625 -561 
Q 2906 -266 2906 331 
L 2906 616 
Q 2728 306 2450 153 
Q 2172 0 1784 0 
Q 1141 0 747 490 
Q 353 981 353 1791 
Q 353 2603 747 3093 
Q 1141 3584 1784 3584 
Q 2172 3584 2450 3431 
Q 2728 3278 2906 2969 
L 2906 3500 
L 3481 3500 
L 3481 434 
z
" transform="scale(0.015625)"/>
       <path id="DejaVuSans-20" transform="scale(0.015625)"/>
       <path id="DejaVuSans-69" d="M 603 3500 
L 1178 3500 
L 1178 0 
L 603 0 
L 603 3500 
z
M 603 4863 
L 1178 4863 
L 1178 4134 
L 603 4134 
L 603 4863 
z
" transform="scale(0.015625)"/>
       <path id="DejaVuSans-7a" d="M 353 3500 
L 3084 3500 
L 3084 2975 
L 922 459 
L 3084 459 
L 3084 0 
L 275 0 
L 275 525 
L 2438 3041 
L 353 3041 
L 353 3500 
z
" transform="scale(0.015625)"/>
       <path id="DejaVuSans-6e" d="M 3513 2113 
L 3513 0 
L 2938 0 
L 2938 2094 
Q 2938 2591 2744 2837 
Q 2550 3084 2163 3084 
Q 1697 3084 1428 2787 
Q 1159 2491 1159 1978 
L 1159 0 
L 581 0 
L 581 3500 
L 1159 3500 
L 1159 2956 
Q 1366 3272 1645 3428 
Q 1925 3584 2291 3584 
Q 2894 3584 3203 3211 
Q 3513 2838 3513 2113 
z
" transform="scale(0.015625)"/>
       <path id="DejaVuSans-62" d="M 3116 1747 
Q 3116 2381 2855 2742 
Q 2594 3103 2138 3103 
Q 1681 3103 1420 2742 
Q 1159 2381 1159 1747 
Q 1159 1113 1420 752 
Q 1681 391 2138 391 
Q 2594 391 2855 752 
Q 3116 1113 3116 1747 
z
M 1159 2969 
Q 1341 3281 1617 3432 
Q 1894 3584 2278 3584 
Q 2916 3584 3314 3078 
Q 3713 2572 3713 1747 
Q 3713 922 3314 415 
Q 2916 -91 2278 -91 
Q 1894 -91 1617 61 
Q 1341 213 1159 525 
L 1159 0 
L 581 0 
L 581 4863 
L 1159 4863 
L 1159 2969 
z
" transform="scale(0.015625)"/>
       <path id="DejaVuSans-79" d="M 2059 -325 
Q 1816 -950 1584 -1140 
Q 1353 -1331 966 -1331 
L 506 -1331 
L 506 -850 
L 844 -850 
Q 1081 -850 1212 -737 
Q 1344 -625 1503 -206 
L 1606 56 
L 191 3500 
L 800 3500 
L 1894 763 
L 2988 3500 
L 3597 3500 
L 2059 -325 
z
" transform="scale(0.015625)"/>
       <path id="DejaVuSans-74" d="M 1172 4494 
L 1172 3500 
L 2356 3500 
L 2356 3053 
L 1172 3053 
L 1172 1153 
Q 1172 725 1289 603 
Q 1406 481 1766 481 
L 2356 481 
L 2356 0 
L 1766 0 
Q 1100 0 847 248 
Q 594 497 594 1153 
L 594 3053 
L 172 3053 
L 172 3500 
L 594 3500 
L 594 4494 
L 1172 4494 
z
" transform="scale(0.015625)"/>
       <path id="DejaVuSans-28" d="M 1984 4856 
Q 1566 4138 1362 3434 
Q 1159 2731 1159 2009 
Q 1159 1288 1364 580 
Q 1569 -128 1984 -844 
L 1484 -844 
Q 1016 -109 783 600 
Q 550 1309 550 2009 
Q 550 2706 781 3412 
Q 1013 4119 1484 4856 
L 1984 4856 
z
" transform="scale(0.015625)"/>
       <path id="DejaVuSans-6c" d="M 603 4863 
L 1178 4863 
L 1178 0 
L 603 0 
L 603 4863 
z
" transform="scale(0.015625)"/>
       <path id="DejaVuSans-6f" d="M 1959 3097 
Q 1497 3097 1228 2736 
Q 959 2375 959 1747 
Q 959 1119 1226 758 
Q 1494 397 1959 397 
Q 2419 397 2687 759 
Q 2956 1122 2956 1747 
Q 2956 2369 2687 2733 
Q 2419 3097 1959 3097 
z
M 1959 3584 
Q 2709 3584 3137 3096 
Q 3566 2609 3566 1747 
Q 3566 888 3137 398 
Q 2709 -91 1959 -91 
Q 1206 -91 779 398 
Q 353 888 353 1747 
Q 353 2609 779 3096 
Q 1206 3584 1959 3584 
z
" transform="scale(0.015625)"/>
       <path id="DejaVuSans-63" d="M 3122 3366 
L 3122 2828 
Q 2878 2963 2633 3030 
Q 2388 3097 2138 3097 
Q 1578 3097 1268 2742 
Q 959 2388 959 1747 
Q 959 1106 1268 751 
Q 1578 397 2138 397 
Q 2388 397 2633 464 
Q 2878 531 3122 666 
L 3122 134 
Q 2881 22 2623 -34 
Q 2366 -91 2075 -91 
Q 1284 -91 818 406 
Q 353 903 353 1747 
Q 353 2603 823 3093 
Q 1294 3584 2113 3584 
Q 2378 3584 2631 3529 
Q 2884 3475 3122 3366 
z
" transform="scale(0.015625)"/>
       <path id="DejaVuSans-29" d="M 513 4856 
L 1013 4856 
Q 1481 4119 1714 3412 
Q 1947 2706 1947 2009 
Q 1947 1309 1714 600 
Q 1481 -109 1013 -844 
L 513 -844 
Q 928 -128 1133 580 
Q 1338 1288 1338 2009 
Q 1338 2731 1133 3434 
Q 928 4138 513 4856 
z
" transform="scale(0.015625)"/>
      </defs>
      <use xlink:href="#DejaVuSans-4d"/>
      <use xlink:href="#DejaVuSans-65" x="86.279297"/>
      <use xlink:href="#DejaVuSans-73" x="147.802734"/>
      <use xlink:href="#DejaVuSans-73" x="199.902344"/>
      <use xlink:href="#DejaVuSans-61" x="252.001953"/>
      <use xlink:href="#DejaVuSans-67" x="313.28125"/>
      <use xlink:href="#DejaVuSans-65" x="376.757812"/>
      <use xlink:href="#DejaVuSans-20" x="438.28125"/>
      <use xlink:href="#DejaVuSans-73" x="470.068359"/>
      <use xlink:href="#DejaVuSans-69" x="522.167969"/>
      <use xlink:href="#DejaVuSans-7a" x="549.951172"/>
      <use xlink:href="#DejaVuSans-65" x="602.441406"/>
      <use xlink:href="#DejaVuSans-20" x="663.964844"/>
      <use xlink:href="#DejaVuSans-69" x="695.751953"/>
      <use xlink:href="#DejaVuSans-6e" x="723.535156"/>
      <use xlink:href="#DejaVuSans-20" x="786.914062"/>
      <use xlink:href="#DejaVuSans-62" x="818.701172"/>
      <use xlink:href="#DejaVuSans-79" x="882.177734"/>
      <use xlink:href="#DejaVuSans-74" x="941.357422"/>
      <use xlink:href="#DejaVuSans-65" x="980.566406"/>
      <use xlink:href="#DejaVuSans-73" x="1042.089844"/>
      <use xlink:href="#DejaVuSans-20" x="1094.189453"/>
      <use xlink:href="#DejaVuSans-28" x="1125.976562"/>
      <use xlink:href="#DejaVuSans-6c" x="1164.990234"/>
      <use xlink:href="#DejaVuSans-6f" x="1192.773438"/>
      <use xlink:href="#DejaVuSans-67" x="1253.955078"/>
      <use xlink:href="#DejaVuSans-73" x="1317.431641"/>
      <use xlink:href="#DejaVuSans-63" x="1369.53125"/>
      <use xlink:href="#DejaVuSans-61" x="1424.511719"/>
      <use xlink:href="#DejaVuSans-6c" x="1485.791016"/>
      <use xlink:href="#DejaVuSans-65" x="1513.574219"/>
      <use xlink:href="#DejaVuSans-29" x="1575.097656"/>
     </g>
    </g>
   </g>
   <g id="matplotlib.axis_2">
    <g id="ytick_1">
     <g id="line2d_7">
      <path d="M 71.441053 193.506042 
L 563.04 193.506042 
" clip-path="url(#pbe55f5f2c0)" style="fill: none; stroke: #cccccc; stroke-linecap: round"/>
     </g>
     <g id="text_8">
      <!-- $\mathdefault{10^{2}}$ -->
      <g style="fill: #262626" transform="translate(33.781053 199.584792) scale(0.16 -0.16)">
       <use xlink:href="#DejaVuSans-31" transform="translate(0 0.765625)"/>
       <use xlink:href="#DejaVuSans-30" transform="translate(63.623047 0.765625)"/>
       <use xlink:href="#DejaVuSans-32" transform="translate(128.203125 39.046875) scale(0.7)"/>
      </g>
     </g>
    </g>
    <g id="ytick_2">
     <g id="line2d_8">
      <path d="M 71.441053 151.099526 
L 563.04 151.099526 
" clip-path="url(#pbe55f5f2c0)" style="fill: none; stroke: #cccccc; stroke-linecap: round"/>
     </g>
     <g id="text_9">
      <!-- $\mathdefault{10^{3}}$ -->
      <g style="fill: #262626" transform="translate(33.781053 157.178276) scale(0.16 -0.16)">
       <use xlink:href="#DejaVuSans-31" transform="translate(0 0.765625)"/>
       <use xlink:href="#DejaVuSans-30" transform="translate(63.623047 0.765625)"/>
       <use xlink:href="#DejaVuSans-33" transform="translate(128.203125 39.046875) scale(0.7)"/>
      </g>
     </g>
    </g>
    <g id="ytick_3">
     <g id="line2d_9">
      <path d="M 71.441053 108.69301 
L 563.04 108.69301 
" clip-path="url(#pbe55f5f2c0)" style="fill: none; stroke: #cccccc; stroke-linecap: round"/>
     </g>
     <g id="text_10">
      <!-- $\mathdefault{10^{4}}$ -->
      <g style="fill: #262626" transform="translate(33.781053 114.77176) scale(0.16 -0.16)">
       <use xlink:href="#DejaVuSans-31" transform="translate(0 0.684375)"/>
       <use xlink:href="#DejaVuSans-30" transform="translate(63.623047 0.684375)"/>
       <use xlink:href="#DejaVuSans-34" transform="translate(128.203125 38.965625) scale(0.7)"/>
      </g>
     </g>
    </g>
    <g id="ytick_4">
     <g id="line2d_10">
      <path d="M 71.441053 66.286493 
L 563.04 66.286493 
" clip-path="url(#pbe55f5f2c0)" style="fill: none; stroke: #cccccc; stroke-linecap: round"/>
     </g>
     <g id="text_11">
      <!-- $\mathdefault{10^{5}}$ -->
      <g style="fill: #262626" transform="translate(33.781053 72.365243) scale(0.16 -0.16)">
       <use xlink:href="#DejaVuSans-31" transform="translate(0 0.684375)"/>
       <use xlink:href="#DejaVuSans-30" transform="translate(63.623047 0.684375)"/>
       <use xlink:href="#DejaVuSans-35" transform="translate(128.203125 38.965625) scale(0.7)"/>
      </g>
     </g>
    </g>
    <g id="ytick_5"/>
    <g id="ytick_6"/>
    <g id="ytick_7"/>
    <g id="ytick_8"/>
    <g id="ytick_9"/>
    <g id="ytick_10"/>
    <g id="ytick_11"/>
    <g id="ytick_12"/>
    <g id="ytick_13"/>
    <g id="ytick_14"/>
    <g id="ytick_15"/>
    <g id="ytick_16"/>
    <g id="ytick_17"/>
    <g id="ytick_18"/>
    <g id="ytick_19"/>
    <g id="ytick_20"/>
    <g id="ytick_21"/>
    <g id="ytick_22"/>
    <g id="ytick_23"/>
    <g id="ytick_24"/>
    <g id="ytick_25"/>
    <g id="ytick_26"/>
    <g id="ytick_27"/>
    <g id="ytick_28"/>
    <g id="ytick_29"/>
    <g id="ytick_30"/>
    <g id="ytick_31"/>
    <g id="ytick_32"/>
    <g id="ytick_33"/>
    <g id="ytick_34"/>
    <g id="ytick_35"/>
    <g id="ytick_36"/>
    <g id="ytick_37"/>
    <g id="ytick_38"/>
    <g id="ytick_39"/>
    <g id="ytick_40"/>
    <g id="ytick_41"/>
    <g id="text_12">
     <!-- avg latency us (logscale) -->
     <g style="fill: #262626" transform="translate(26.453553 229.39925) rotate(-90) scale(0.16 -0.16)">
      <defs>
       <path id="DejaVuSans-76" d="M 191 3500 
L 800 3500 
L 1894 563 
L 2988 3500 
L 3597 3500 
L 2284 0 
L 1503 0 
L 191 3500 
z
" transform="scale(0.015625)"/>
       <path id="DejaVuSans-75" d="M 544 1381 
L 544 3500 
L 1119 3500 
L 1119 1403 
Q 1119 906 1312 657 
Q 1506 409 1894 409 
Q 2359 409 2629 706 
Q 2900 1003 2900 1516 
L 2900 3500 
L 3475 3500 
L 3475 0 
L 2900 0 
L 2900 538 
Q 2691 219 2414 64 
Q 2138 -91 1772 -91 
Q 1169 -91 856 284 
Q 544 659 544 1381 
z
M 1991 3584 
L 1991 3584 
z
" transform="scale(0.015625)"/>
      </defs>
      <use xlink:href="#DejaVuSans-61"/>
      <use xlink:href="#DejaVuSans-76" x="61.279297"/>
      <use xlink:href="#DejaVuSans-67" x="120.458984"/>
      <use xlink:href="#DejaVuSans-20" x="183.935547"/>
      <use xlink:href="#DejaVuSans-6c" x="215.722656"/>
      <use xlink:href="#DejaVuSans-61" x="243.505859"/>
      <use xlink:href="#DejaVuSans-74" x="304.785156"/>
      <use xlink:href="#DejaVuSans-65" x="343.994141"/>
      <use xlink:href="#DejaVuSans-6e" x="405.517578"/>
      <use xlink:href="#DejaVuSans-63" x="468.896484"/>
      <use xlink:href="#DejaVuSans-79" x="523.876953"/>
      <use xlink:href="#DejaVuSans-20" x="583.056641"/>
      <use xlink:href="#DejaVuSans-75" x="614.84375"/>
      <use xlink:href="#DejaVuSans-73" x="678.222656"/>
      <use xlink:href="#DejaVuSans-20" x="730.322266"/>
      <use xlink:href="#DejaVuSans-28" x="762.109375"/>
      <use xlink:href="#DejaVuSans-6c" x="801.123047"/>
      <use xlink:href="#DejaVuSans-6f" x="828.90625"/>
      <use xlink:href="#DejaVuSans-67" x="890.087891"/>
      <use xlink:href="#DejaVuSans-73" x="953.564453"/>
      <use xlink:href="#DejaVuSans-63" x="1005.664062"/>
      <use xlink:href="#DejaVuSans-61" x="1060.644531"/>
      <use xlink:href="#DejaVuSans-6c" x="1121.923828"/>
      <use xlink:href="#DejaVuSans-65" x="1149.707031"/>
      <use xlink:href="#DejaVuSans-29" x="1211.230469"/>
     </g>
    </g>
   </g>
   <g id="PolyCollection_1"/>
   <g id="PolyCollection_2">
    <defs>
     <path id="mfdb94d31c8" d="M 93.78646 -139.931407 
L 93.78646 -136.033771 
L 118.61469 -139.438711 
L 143.442919 -137.600295 
L 168.271149 -137.951007 
L 193.099379 -137.297649 
L 217.927608 -137.656945 
L 242.755838 -137.178849 
L 267.584067 -140.000795 
L 292.412297 -138.741484 
L 317.240527 -141.977842 
L 342.068756 -143.157275 
L 366.896986 -145.818669 
L 391.725216 -153.066755 
L 416.553445 -151.681273 
L 441.381675 -151.924964 
L 466.209904 -153.554875 
L 491.038134 -155.578665 
L 515.866364 -161.340028 
L 540.694593 -168.072879 
L 540.694593 -168.299857 
L 540.694593 -168.299857 
L 515.866364 -161.460644 
L 491.038134 -166.010518 
L 466.209904 -154.252967 
L 441.381675 -152.882709 
L 416.553445 -151.728343 
L 391.725216 -155.319207 
L 366.896986 -145.899289 
L 342.068756 -143.526202 
L 317.240527 -142.096424 
L 292.412297 -144.492946 
L 267.584067 -140.273769 
L 242.755838 -137.358829 
L 217.927608 -140.644482 
L 193.099379 -137.480582 
L 168.271149 -141.684468 
L 143.442919 -137.838461 
L 118.61469 -140.089139 
L 93.78646 -139.931407 
z
" style="stroke: #6c3baa; stroke-opacity: 0.2"/>
    </defs>
    <g clip-path="url(#pbe55f5f2c0)">
     <use xlink:href="#mfdb94d31c8" x="0" y="288" style="fill: #6c3baa; fill-opacity: 0.2; stroke: #6c3baa; stroke-opacity: 0.2"/>
    </g>
   </g>
   <g id="PolyCollection_3">
    <defs>
     <path id="ma8af1ca072" d="M 93.78646 -76.063177 
L 93.78646 -70.709691 
L 118.61469 -70.023818 
L 143.442919 -78.928994 
L 168.271149 -78.245286 
L 193.099379 -78.440309 
L 217.927608 -78.916035 
L 242.755838 -79.848666 
L 267.584067 -80.575874 
L 292.412297 -82.489107 
L 317.240527 -84.08473 
L 342.068756 -85.832011 
L 366.896986 -141.142127 
L 391.725216 -145.979387 
L 416.553445 -123.663177 
L 441.381675 -123.750891 
L 466.209904 -131.117844 
L 491.038134 -130.724291 
L 515.866364 -134.676688 
L 540.694593 -152.689563 
L 540.694593 -153.625839 
L 540.694593 -153.625839 
L 515.866364 -137.07225 
L 491.038134 -132.843832 
L 466.209904 -134.915411 
L 441.381675 -125.8789 
L 416.553445 -125.151529 
L 391.725216 -146.755263 
L 366.896986 -141.770838 
L 342.068756 -87.755775 
L 317.240527 -86.853674 
L 292.412297 -83.900347 
L 267.584067 -82.574419 
L 242.755838 -82.951626 
L 217.927608 -80.575964 
L 193.099379 -81.838869 
L 168.271149 -81.576791 
L 143.442919 -81.780929 
L 118.61469 -74.665262 
L 93.78646 -76.063177 
z
" style="stroke: #dc7ec0; stroke-opacity: 0.2"/>
    </defs>
    <g clip-path="url(#pbe55f5f2c0)">
     <use xlink:href="#ma8af1ca072" x="0" y="288" style="fill: #dc7ec0; fill-opacity: 0.2; stroke: #dc7ec0; stroke-opacity: 0.2"/>
    </g>
   </g>
   <g id="PolyCollection_4"/>
   <g id="PolyCollection_5"/>
   <g id="PolyCollection_6">
    <defs>
     <path id="m8d295aa5cd" d="M 93.78646 -150.863046 
L 93.78646 -129.958035 
L 118.61469 -130.493356 
L 143.442919 -128.128285 
L 168.271149 -125.259857 
L 193.099379 -127.719834 
L 217.927608 -125.626398 
L 242.755838 -130.484229 
L 267.584067 -134.910736 
L 292.412297 -126.246382 
L 317.240527 -123.145013 
L 342.068756 -132.625824 
L 366.896986 -148.232856 
L 391.725216 -147.239316 
L 416.553445 -180.896091 
L 441.381675 -200.292753 
L 466.209904 -200.182336 
L 491.038134 -206.96665 
L 515.866364 -204.345224 
L 540.694593 -203.215288 
L 540.694593 -215.923227 
L 540.694593 -215.923227 
L 515.866364 -215.880232 
L 491.038134 -231.720712 
L 466.209904 -213.723617 
L 441.381675 -213.416657 
L 416.553445 -195.529535 
L 391.725216 -171.503879 
L 366.896986 -182.02118 
L 342.068756 -154.954883 
L 317.240527 -149.438877 
L 292.412297 -161.043416 
L 267.584067 -155.793465 
L 242.755838 -149.494202 
L 217.927608 -150.477478 
L 193.099379 -172.054356 
L 168.271149 -149.205232 
L 143.442919 -150.70004 
L 118.61469 -150.972164 
L 93.78646 -150.863046 
z
" style="stroke: #d65f5f; stroke-opacity: 0.2"/>
    </defs>
    <g clip-path="url(#pbe55f5f2c0)">
     <use xlink:href="#m8d295aa5cd" x="0" y="288" style="fill: #d65f5f; fill-opacity: 0.2; stroke: #d65f5f; stroke-opacity: 0.2"/>
    </g>
   </g>
   <g id="PolyCollection_7"/>
   <g id="line2d_11">
    <path d="M 93.78646 95.834632 
L 118.61469 95.813324 
L 143.442919 92.10239 
L 168.271149 96.065318 
L 193.099379 96.047681 
L 217.927608 96.043918 
L 242.755838 96.142159 
L 267.584067 94.517794 
L 292.412297 91.736412 
L 317.240527 87.853743 
L 342.068756 87.694353 
L 366.896986 87.625187 
L 391.725216 87.671865 
L 416.553445 78.661575 
L 441.381675 78.650122 
L 466.209904 78.921108 
L 491.038134 78.407156 
L 515.866364 78.453407 
L 540.694593 78.29473 
" clip-path="url(#pbe55f5f2c0)" style="fill: none; stroke: #8c613c; stroke-width: 1.5; stroke-linecap: round"/>
   </g>
   <g id="line2d_12">
    <path d="M 93.78646 149.914494 
L 118.61469 148.233204 
L 143.442919 150.280237 
L 168.271149 148.087818 
L 193.099379 150.610657 
L 217.927608 148.788774 
L 242.755838 150.730941 
L 267.584067 147.862212 
L 292.412297 146.159174 
L 317.240527 145.962772 
L 342.068756 144.657338 
L 366.896986 142.140977 
L 391.725216 133.772605 
L 416.553445 136.295177 
L 441.381675 135.589938 
L 466.209904 134.092771 
L 491.038134 126.476465 
L 515.866364 126.599565 
L 540.694593 119.813282 
" clip-path="url(#pbe55f5f2c0)" style="fill: none; stroke: #6c3baa; stroke-width: 1.5; stroke-linecap: round"/>
   </g>
   <g id="line2d_13">
    <path d="M 93.78646 214.842319 
L 118.61469 215.782686 
L 143.442919 207.750224 
L 168.271149 208.32062 
L 193.099379 208.075739 
L 217.927608 208.338249 
L 242.755838 206.694935 
L 267.584067 206.473746 
L 292.412297 204.864252 
L 317.240527 202.724543 
L 342.068756 201.219376 
L 366.896986 146.571015 
L 391.725216 141.653935 
L 416.553445 163.524421 
L 441.381675 163.201977 
L 466.209904 155.05683 
L 491.038134 156.261579 
L 515.866364 152.248197 
L 540.694593 134.89481 
" clip-path="url(#pbe55f5f2c0)" style="fill: none; stroke: #dc7ec0; stroke-width: 1.5; stroke-linecap: round"/>
   </g>
   <g id="line2d_14">
    <path d="M 93.78646 124.834693 
L 118.61469 126.386187 
L 143.442919 125.651831 
L 168.271149 122.350188 
L 193.099379 122.113641 
L 217.927608 125.173382 
L 242.755838 124.440044 
L 267.584067 123.361649 
L 292.412297 127.306132 
L 317.240527 120.818848 
L 342.068756 117.255852 
L 366.896986 117.172251 
L 391.725216 116.940262 
L 416.553445 40.779818 
L 441.381675 110.742819 
L 466.209904 111.228936 
L 491.038134 108.025717 
L 515.866364 103.514792 
L 540.694593 98.879147 
" clip-path="url(#pbe55f5f2c0)" style="fill: none; stroke: #4878d0; stroke-width: 1.5; stroke-linecap: round"/>
   </g>
   <g id="line2d_15">
    <path d="M 93.78646 160.3159 
L 118.61469 158.737256 
L 143.442919 166.831409 
L 168.271149 166.460446 
L 193.099379 165.138821 
L 217.927608 167.802465 
L 242.755838 161.160639 
L 267.584067 164.800521 
L 292.412297 163.27078 
L 317.240527 156.821001 
L 342.068756 155.508067 
L 366.896986 148.333252 
L 391.725216 138.971628 
L 416.553445 41.061754 
L 441.381675 138.129407 
L 466.209904 138.325147 
L 491.038134 131.832736 
L 515.866364 122.837202 
L 540.694593 112.603787 
" clip-path="url(#pbe55f5f2c0)" style="fill: none; stroke: #ee854a; stroke-width: 1.5; stroke-linecap: round"/>
   </g>
   <g id="line2d_16">
    <path d="M 93.78646 145.011495 
L 118.61469 144.77328 
L 143.442919 145.194602 
L 168.271149 147.119523 
L 193.099379 130.904623 
L 217.927608 146.147119 
L 242.755838 145.355921 
L 267.584067 140.635003 
L 292.412297 138.910005 
L 317.240527 147.206602 
L 342.068756 141.492686 
L 366.896986 119.269631 
L 391.725216 126.472119 
L 416.553445 97.752553 
L 441.381675 79.952142 
L 466.209904 79.693176 
L 491.038134 67.878635 
L 515.866364 76.972571 
L 540.694593 77.331788 
" clip-path="url(#pbe55f5f2c0)" style="fill: none; stroke: #d65f5f; stroke-width: 1.5; stroke-linecap: round"/>
   </g>
   <g id="line2d_17">
    <path d="M 93.78646 104.843321 
L 118.61469 92.733902 
L 143.442919 101.701542 
L 168.271149 102.313743 
L 193.099379 101.295464 
L 217.927608 101.731162 
L 242.755838 100.71254 
L 267.584067 100.48755 
L 292.412297 101.289487 
L 317.240527 100.6182 
L 342.068756 98.524868 
L 366.896986 80.02752 
L 391.725216 80.106986 
L 416.553445 75.487552 
L 441.381675 76.470502 
L 466.209904 76.217151 
L 491.038134 74.294212 
L 515.866364 74.216228 
L 540.694593 72.810258 
" clip-path="url(#pbe55f5f2c0)" style="fill: none; stroke: #008000; stroke-width: 1.5; stroke-linecap: round"/>
   </g>
   <g id="line2d_18"/>
   <g id="line2d_19"/>
   <g id="line2d_20"/>
   <g id="line2d_21"/>
   <g id="line2d_22"/>
   <g id="line2d_23"/>
   <g id="line2d_24"/>
   <g id="patch_3">
    <path d="M 71.441053 226.836 
L 71.441053 31.92 
" style="fill: none; stroke: #cccccc; stroke-width: 1.25; stroke-linejoin: miter; stroke-linecap: square"/>
   </g>
   <g id="patch_4">
    <path d="M 563.04 226.836 
L 563.04 31.92 
" style="fill: none; stroke: #cccccc; stroke-width: 1.25; stroke-linejoin: miter; stroke-linecap: square"/>
   </g>
   <g id="patch_5">
    <path d="M 71.441053 226.836 
L 563.04 226.836 
" style="fill: none; stroke: #cccccc; stroke-width: 1.25; stroke-linejoin: miter; stroke-linecap: square"/>
   </g>
   <g id="patch_6">
    <path d="M 71.441053 31.92 
L 563.04 31.92 
" style="fill: none; stroke: #cccccc; stroke-width: 1.25; stroke-linejoin: miter; stroke-linecap: square"/>
   </g>
   <g id="text_13">
    <!-- osu_allreduce CPU 256 Nodes -->
    <g style="fill: #262626" transform="translate(198.048027 25.92) scale(0.16 -0.16)">
     <defs>
      <path id="DejaVuSans-5f" d="M 3263 -1063 
L 3263 -1509 
L -63 -1509 
L -63 -1063 
L 3263 -1063 
z
" transform="scale(0.015625)"/>
      <path id="DejaVuSans-72" d="M 2631 2963 
Q 2534 3019 2420 3045 
Q 2306 3072 2169 3072 
Q 1681 3072 1420 2755 
Q 1159 2438 1159 1844 
L 1159 0 
L 581 0 
L 581 3500 
L 1159 3500 
L 1159 2956 
Q 1341 3275 1631 3429 
Q 1922 3584 2338 3584 
Q 2397 3584 2469 3576 
Q 2541 3569 2628 3553 
L 2631 2963 
z
" transform="scale(0.015625)"/>
      <path id="DejaVuSans-64" d="M 2906 2969 
L 2906 4863 
L 3481 4863 
L 3481 0 
L 2906 0 
L 2906 525 
Q 2725 213 2448 61 
Q 2172 -91 1784 -91 
Q 1150 -91 751 415 
Q 353 922 353 1747 
Q 353 2572 751 3078 
Q 1150 3584 1784 3584 
Q 2172 3584 2448 3432 
Q 2725 3281 2906 2969 
z
M 947 1747 
Q 947 1113 1208 752 
Q 1469 391 1925 391 
Q 2381 391 2643 752 
Q 2906 1113 2906 1747 
Q 2906 2381 2643 2742 
Q 2381 3103 1925 3103 
Q 1469 3103 1208 2742 
Q 947 2381 947 1747 
z
" transform="scale(0.015625)"/>
      <path id="DejaVuSans-43" d="M 4122 4306 
L 4122 3641 
Q 3803 3938 3442 4084 
Q 3081 4231 2675 4231 
Q 1875 4231 1450 3742 
Q 1025 3253 1025 2328 
Q 1025 1406 1450 917 
Q 1875 428 2675 428 
Q 3081 428 3442 575 
Q 3803 722 4122 1019 
L 4122 359 
Q 3791 134 3420 21 
Q 3050 -91 2638 -91 
Q 1578 -91 968 557 
Q 359 1206 359 2328 
Q 359 3453 968 4101 
Q 1578 4750 2638 4750 
Q 3056 4750 3426 4639 
Q 3797 4528 4122 4306 
z
" transform="scale(0.015625)"/>
      <path id="DejaVuSans-50" d="M 1259 4147 
L 1259 2394 
L 2053 2394 
Q 2494 2394 2734 2622 
Q 2975 2850 2975 3272 
Q 2975 3691 2734 3919 
Q 2494 4147 2053 4147 
L 1259 4147 
z
M 628 4666 
L 2053 4666 
Q 2838 4666 3239 4311 
Q 3641 3956 3641 3272 
Q 3641 2581 3239 2228 
Q 2838 1875 2053 1875 
L 1259 1875 
L 1259 0 
L 628 0 
L 628 4666 
z
" transform="scale(0.015625)"/>
      <path id="DejaVuSans-55" d="M 556 4666 
L 1191 4666 
L 1191 1831 
Q 1191 1081 1462 751 
Q 1734 422 2344 422 
Q 2950 422 3222 751 
Q 3494 1081 3494 1831 
L 3494 4666 
L 4128 4666 
L 4128 1753 
Q 4128 841 3676 375 
Q 3225 -91 2344 -91 
Q 1459 -91 1007 375 
Q 556 841 556 1753 
L 556 4666 
z
" transform="scale(0.015625)"/>
      <path id="DejaVuSans-4e" d="M 628 4666 
L 1478 4666 
L 3547 763 
L 3547 4666 
L 4159 4666 
L 4159 0 
L 3309 0 
L 1241 3903 
L 1241 0 
L 628 0 
L 628 4666 
z
" transform="scale(0.015625)"/>
     </defs>
     <use xlink:href="#DejaVuSans-6f"/>
     <use xlink:href="#DejaVuSans-73" x="61.181641"/>
     <use xlink:href="#DejaVuSans-75" x="113.28125"/>
     <use xlink:href="#DejaVuSans-5f" x="176.660156"/>
     <use xlink:href="#DejaVuSans-61" x="226.660156"/>
     <use xlink:href="#DejaVuSans-6c" x="287.939453"/>
     <use xlink:href="#DejaVuSans-6c" x="315.722656"/>
     <use xlink:href="#DejaVuSans-72" x="343.505859"/>
     <use xlink:href="#DejaVuSans-65" x="382.369141"/>
     <use xlink:href="#DejaVuSans-64" x="443.892578"/>
     <use xlink:href="#DejaVuSans-75" x="507.369141"/>
     <use xlink:href="#DejaVuSans-63" x="570.748047"/>
     <use xlink:href="#DejaVuSans-65" x="625.728516"/>
     <use xlink:href="#DejaVuSans-20" x="687.251953"/>
     <use xlink:href="#DejaVuSans-43" x="719.039062"/>
     <use xlink:href="#DejaVuSans-50" x="788.863281"/>
     <use xlink:href="#DejaVuSans-55" x="849.166016"/>
     <use xlink:href="#DejaVuSans-20" x="922.359375"/>
     <use xlink:href="#DejaVuSans-32" x="954.146484"/>
     <use xlink:href="#DejaVuSans-35" x="1017.769531"/>
     <use xlink:href="#DejaVuSans-36" x="1081.392578"/>
     <use xlink:href="#DejaVuSans-20" x="1145.015625"/>
     <use xlink:href="#DejaVuSans-4e" x="1176.802734"/>
     <use xlink:href="#DejaVuSans-6f" x="1251.607422"/>
     <use xlink:href="#DejaVuSans-64" x="1312.789062"/>
     <use xlink:href="#DejaVuSans-65" x="1376.265625"/>
     <use xlink:href="#DejaVuSans-73" x="1437.789062"/>
    </g>
   </g>
   <g id="legend_1">
    <g id="patch_7">
     <path d="M 286.152812 221.336 
L 555.34 221.336 
Q 557.54 221.336 557.54 219.136 
L 557.54 105.072875 
Q 557.54 102.872875 555.34 102.872875 
L 286.152812 102.872875 
Q 283.952812 102.872875 283.952812 105.072875 
L 283.952812 219.136 
Q 283.952812 221.336 286.152812 221.336 
z
" style="fill: #ffffff; opacity: 0.8; stroke: #cccccc; stroke-linejoin: miter"/>
    </g>
    <g id="line2d_25">
     <path d="M 288.352812 111.781156 
L 299.352812 111.781156 
L 310.352812 111.781156 
" style="fill: none; stroke: #8c613c; stroke-width: 1.5; stroke-linecap: round"/>
    </g>
    <g id="text_14">
     <!-- google/gke/cpu/osu_allreduce -->
     <g style="fill: #262626" transform="translate(319.152812 115.631156) scale(0.11 -0.11)">
      <defs>
       <path id="DejaVuSans-2f" d="M 1625 4666 
L 2156 4666 
L 531 -594 
L 0 -594 
L 1625 4666 
z
" transform="scale(0.015625)"/>
       <path id="DejaVuSans-6b" d="M 581 4863 
L 1159 4863 
L 1159 1991 
L 2875 3500 
L 3609 3500 
L 1753 1863 
L 3688 0 
L 2938 0 
L 1159 1709 
L 1159 0 
L 581 0 
L 581 4863 
z
" transform="scale(0.015625)"/>
       <path id="DejaVuSans-70" d="M 1159 525 
L 1159 -1331 
L 581 -1331 
L 581 3500 
L 1159 3500 
L 1159 2969 
Q 1341 3281 1617 3432 
Q 1894 3584 2278 3584 
Q 2916 3584 3314 3078 
Q 3713 2572 3713 1747 
Q 3713 922 3314 415 
Q 2916 -91 2278 -91 
Q 1894 -91 1617 61 
Q 1341 213 1159 525 
z
M 3116 1747 
Q 3116 2381 2855 2742 
Q 2594 3103 2138 3103 
Q 1681 3103 1420 2742 
Q 1159 2381 1159 1747 
Q 1159 1113 1420 752 
Q 1681 391 2138 391 
Q 2594 391 2855 752 
Q 3116 1113 3116 1747 
z
" transform="scale(0.015625)"/>
      </defs>
      <use xlink:href="#DejaVuSans-67"/>
      <use xlink:href="#DejaVuSans-6f" x="63.476562"/>
      <use xlink:href="#DejaVuSans-6f" x="124.658203"/>
      <use xlink:href="#DejaVuSans-67" x="185.839844"/>
      <use xlink:href="#DejaVuSans-6c" x="249.316406"/>
      <use xlink:href="#DejaVuSans-65" x="277.099609"/>
      <use xlink:href="#DejaVuSans-2f" x="338.623047"/>
      <use xlink:href="#DejaVuSans-67" x="372.314453"/>
      <use xlink:href="#DejaVuSans-6b" x="435.791016"/>
      <use xlink:href="#DejaVuSans-65" x="490.076172"/>
      <use xlink:href="#DejaVuSans-2f" x="551.599609"/>
      <use xlink:href="#DejaVuSans-63" x="585.291016"/>
      <use xlink:href="#DejaVuSans-70" x="640.271484"/>
      <use xlink:href="#DejaVuSans-75" x="703.748047"/>
      <use xlink:href="#DejaVuSans-2f" x="767.126953"/>
      <use xlink:href="#DejaVuSans-6f" x="800.818359"/>
      <use xlink:href="#DejaVuSans-73" x="862"/>
      <use xlink:href="#DejaVuSans-75" x="914.099609"/>
      <use xlink:href="#DejaVuSans-5f" x="977.478516"/>
      <use xlink:href="#DejaVuSans-61" x="1027.478516"/>
      <use xlink:href="#DejaVuSans-6c" x="1088.757812"/>
      <use xlink:href="#DejaVuSans-6c" x="1116.541016"/>
      <use xlink:href="#DejaVuSans-72" x="1144.324219"/>
      <use xlink:href="#DejaVuSans-65" x="1183.1875"/>
      <use xlink:href="#DejaVuSans-64" x="1244.710938"/>
      <use xlink:href="#DejaVuSans-75" x="1308.1875"/>
      <use xlink:href="#DejaVuSans-63" x="1371.566406"/>
      <use xlink:href="#DejaVuSans-65" x="1426.546875"/>
     </g>
    </g>
    <g id="line2d_26">
     <path d="M 288.352812 128.233031 
L 299.352812 128.233031 
L 310.352812 128.233031 
" style="fill: none; stroke: #6c3baa; stroke-width: 1.5; stroke-linecap: round"/>
    </g>
    <g id="text_15">
     <!-- google/compute-engine/cpu/osu_allreduce -->
     <g style="fill: #262626" transform="translate(319.152812 132.083031) scale(0.11 -0.11)">
      <defs>
       <path id="DejaVuSans-6d" d="M 3328 2828 
Q 3544 3216 3844 3400 
Q 4144 3584 4550 3584 
Q 5097 3584 5394 3201 
Q 5691 2819 5691 2113 
L 5691 0 
L 5113 0 
L 5113 2094 
Q 5113 2597 4934 2840 
Q 4756 3084 4391 3084 
Q 3944 3084 3684 2787 
Q 3425 2491 3425 1978 
L 3425 0 
L 2847 0 
L 2847 2094 
Q 2847 2600 2669 2842 
Q 2491 3084 2119 3084 
Q 1678 3084 1418 2786 
Q 1159 2488 1159 1978 
L 1159 0 
L 581 0 
L 581 3500 
L 1159 3500 
L 1159 2956 
Q 1356 3278 1631 3431 
Q 1906 3584 2284 3584 
Q 2666 3584 2933 3390 
Q 3200 3197 3328 2828 
z
" transform="scale(0.015625)"/>
       <path id="DejaVuSans-2d" d="M 313 2009 
L 1997 2009 
L 1997 1497 
L 313 1497 
L 313 2009 
z
" transform="scale(0.015625)"/>
      </defs>
      <use xlink:href="#DejaVuSans-67"/>
      <use xlink:href="#DejaVuSans-6f" x="63.476562"/>
      <use xlink:href="#DejaVuSans-6f" x="124.658203"/>
      <use xlink:href="#DejaVuSans-67" x="185.839844"/>
      <use xlink:href="#DejaVuSans-6c" x="249.316406"/>
      <use xlink:href="#DejaVuSans-65" x="277.099609"/>
      <use xlink:href="#DejaVuSans-2f" x="338.623047"/>
      <use xlink:href="#DejaVuSans-63" x="372.314453"/>
      <use xlink:href="#DejaVuSans-6f" x="427.294922"/>
      <use xlink:href="#DejaVuSans-6d" x="488.476562"/>
      <use xlink:href="#DejaVuSans-70" x="585.888672"/>
      <use xlink:href="#DejaVuSans-75" x="649.365234"/>
      <use xlink:href="#DejaVuSans-74" x="712.744141"/>
      <use xlink:href="#DejaVuSans-65" x="751.953125"/>
      <use xlink:href="#DejaVuSans-2d" x="813.476562"/>
      <use xlink:href="#DejaVuSans-65" x="849.560547"/>
      <use xlink:href="#DejaVuSans-6e" x="911.083984"/>
      <use xlink:href="#DejaVuSans-67" x="974.462891"/>
      <use xlink:href="#DejaVuSans-69" x="1037.939453"/>
      <use xlink:href="#DejaVuSans-6e" x="1065.722656"/>
      <use xlink:href="#DejaVuSans-65" x="1129.101562"/>
      <use xlink:href="#DejaVuSans-2f" x="1190.625"/>
      <use xlink:href="#DejaVuSans-63" x="1224.316406"/>
      <use xlink:href="#DejaVuSans-70" x="1279.296875"/>
      <use xlink:href="#DejaVuSans-75" x="1342.773438"/>
      <use xlink:href="#DejaVuSans-2f" x="1406.152344"/>
      <use xlink:href="#DejaVuSans-6f" x="1439.84375"/>
      <use xlink:href="#DejaVuSans-73" x="1501.025391"/>
      <use xlink:href="#DejaVuSans-75" x="1553.125"/>
      <use xlink:href="#DejaVuSans-5f" x="1616.503906"/>
      <use xlink:href="#DejaVuSans-61" x="1666.503906"/>
      <use xlink:href="#DejaVuSans-6c" x="1727.783203"/>
      <use xlink:href="#DejaVuSans-6c" x="1755.566406"/>
      <use xlink:href="#DejaVuSans-72" x="1783.349609"/>
      <use xlink:href="#DejaVuSans-65" x="1822.212891"/>
      <use xlink:href="#DejaVuSans-64" x="1883.736328"/>
      <use xlink:href="#DejaVuSans-75" x="1947.212891"/>
      <use xlink:href="#DejaVuSans-63" x="2010.591797"/>
      <use xlink:href="#DejaVuSans-65" x="2065.572266"/>
     </g>
    </g>
    <g id="line2d_27">
     <path d="M 288.352812 144.684906 
L 299.352812 144.684906 
L 310.352812 144.684906 
" style="fill: none; stroke: #dc7ec0; stroke-width: 1.5; stroke-linecap: round"/>
    </g>
    <g id="text_16">
     <!-- on-premises/dane/cpu/osu_allreduce -->
     <g style="fill: #262626" transform="translate(319.152812 148.534906) scale(0.11 -0.11)">
      <use xlink:href="#DejaVuSans-6f"/>
      <use xlink:href="#DejaVuSans-6e" x="61.181641"/>
      <use xlink:href="#DejaVuSans-2d" x="124.560547"/>
      <use xlink:href="#DejaVuSans-70" x="160.644531"/>
      <use xlink:href="#DejaVuSans-72" x="224.121094"/>
      <use xlink:href="#DejaVuSans-65" x="262.984375"/>
      <use xlink:href="#DejaVuSans-6d" x="324.507812"/>
      <use xlink:href="#DejaVuSans-69" x="421.919922"/>
      <use xlink:href="#DejaVuSans-73" x="449.703125"/>
      <use xlink:href="#DejaVuSans-65" x="501.802734"/>
      <use xlink:href="#DejaVuSans-73" x="563.326172"/>
      <use xlink:href="#DejaVuSans-2f" x="615.425781"/>
      <use xlink:href="#DejaVuSans-64" x="649.117188"/>
      <use xlink:href="#DejaVuSans-61" x="712.59375"/>
      <use xlink:href="#DejaVuSans-6e" x="773.873047"/>
      <use xlink:href="#DejaVuSans-65" x="837.251953"/>
      <use xlink:href="#DejaVuSans-2f" x="898.775391"/>
      <use xlink:href="#DejaVuSans-63" x="932.466797"/>
      <use xlink:href="#DejaVuSans-70" x="987.447266"/>
      <use xlink:href="#DejaVuSans-75" x="1050.923828"/>
      <use xlink:href="#DejaVuSans-2f" x="1114.302734"/>
      <use xlink:href="#DejaVuSans-6f" x="1147.994141"/>
      <use xlink:href="#DejaVuSans-73" x="1209.175781"/>
      <use xlink:href="#DejaVuSans-75" x="1261.275391"/>
      <use xlink:href="#DejaVuSans-5f" x="1324.654297"/>
      <use xlink:href="#DejaVuSans-61" x="1374.654297"/>
      <use xlink:href="#DejaVuSans-6c" x="1435.933594"/>
      <use xlink:href="#DejaVuSans-6c" x="1463.716797"/>
      <use xlink:href="#DejaVuSans-72" x="1491.5"/>
      <use xlink:href="#DejaVuSans-65" x="1530.363281"/>
      <use xlink:href="#DejaVuSans-64" x="1591.886719"/>
      <use xlink:href="#DejaVuSans-75" x="1655.363281"/>
      <use xlink:href="#DejaVuSans-63" x="1718.742188"/>
      <use xlink:href="#DejaVuSans-65" x="1773.722656"/>
     </g>
    </g>
    <g id="line2d_28">
     <path d="M 288.352812 161.136781 
L 299.352812 161.136781 
L 310.352812 161.136781 
" style="fill: none; stroke: #4878d0; stroke-width: 1.5; stroke-linecap: round"/>
    </g>
    <g id="text_17">
     <!-- aws/eks/cpu/osu_allreduce -->
     <g style="fill: #262626" transform="translate(319.152812 164.986781) scale(0.11 -0.11)">
      <defs>
       <path id="DejaVuSans-77" d="M 269 3500 
L 844 3500 
L 1563 769 
L 2278 3500 
L 2956 3500 
L 3675 769 
L 4391 3500 
L 4966 3500 
L 4050 0 
L 3372 0 
L 2619 2869 
L 1863 0 
L 1184 0 
L 269 3500 
z
" transform="scale(0.015625)"/>
      </defs>
      <use xlink:href="#DejaVuSans-61"/>
      <use xlink:href="#DejaVuSans-77" x="61.279297"/>
      <use xlink:href="#DejaVuSans-73" x="143.066406"/>
      <use xlink:href="#DejaVuSans-2f" x="195.166016"/>
      <use xlink:href="#DejaVuSans-65" x="228.857422"/>
      <use xlink:href="#DejaVuSans-6b" x="290.380859"/>
      <use xlink:href="#DejaVuSans-73" x="348.291016"/>
      <use xlink:href="#DejaVuSans-2f" x="400.390625"/>
      <use xlink:href="#DejaVuSans-63" x="434.082031"/>
      <use xlink:href="#DejaVuSans-70" x="489.0625"/>
      <use xlink:href="#DejaVuSans-75" x="552.539062"/>
      <use xlink:href="#DejaVuSans-2f" x="615.917969"/>
      <use xlink:href="#DejaVuSans-6f" x="649.609375"/>
      <use xlink:href="#DejaVuSans-73" x="710.791016"/>
      <use xlink:href="#DejaVuSans-75" x="762.890625"/>
      <use xlink:href="#DejaVuSans-5f" x="826.269531"/>
      <use xlink:href="#DejaVuSans-61" x="876.269531"/>
      <use xlink:href="#DejaVuSans-6c" x="937.548828"/>
      <use xlink:href="#DejaVuSans-6c" x="965.332031"/>
      <use xlink:href="#DejaVuSans-72" x="993.115234"/>
      <use xlink:href="#DejaVuSans-65" x="1031.978516"/>
      <use xlink:href="#DejaVuSans-64" x="1093.501953"/>
      <use xlink:href="#DejaVuSans-75" x="1156.978516"/>
      <use xlink:href="#DejaVuSans-63" x="1220.357422"/>
      <use xlink:href="#DejaVuSans-65" x="1275.337891"/>
     </g>
    </g>
    <g id="line2d_29">
     <path d="M 288.352812 177.588656 
L 299.352812 177.588656 
L 310.352812 177.588656 
" style="fill: none; stroke: #ee854a; stroke-width: 1.5; stroke-linecap: round"/>
    </g>
    <g id="text_18">
     <!-- aws/parallel-cluster/cpu/osu_allreduce -->
     <g style="fill: #262626" transform="translate(319.152812 181.438656) scale(0.11 -0.11)">
      <use xlink:href="#DejaVuSans-61"/>
      <use xlink:href="#DejaVuSans-77" x="61.279297"/>
      <use xlink:href="#DejaVuSans-73" x="143.066406"/>
      <use xlink:href="#DejaVuSans-2f" x="195.166016"/>
      <use xlink:href="#DejaVuSans-70" x="228.857422"/>
      <use xlink:href="#DejaVuSans-61" x="292.333984"/>
      <use xlink:href="#DejaVuSans-72" x="353.613281"/>
      <use xlink:href="#DejaVuSans-61" x="394.726562"/>
      <use xlink:href="#DejaVuSans-6c" x="456.005859"/>
      <use xlink:href="#DejaVuSans-6c" x="483.789062"/>
      <use xlink:href="#DejaVuSans-65" x="511.572266"/>
      <use xlink:href="#DejaVuSans-6c" x="573.095703"/>
      <use xlink:href="#DejaVuSans-2d" x="600.878906"/>
      <use xlink:href="#DejaVuSans-63" x="636.962891"/>
      <use xlink:href="#DejaVuSans-6c" x="691.943359"/>
      <use xlink:href="#DejaVuSans-75" x="719.726562"/>
      <use xlink:href="#DejaVuSans-73" x="783.105469"/>
      <use xlink:href="#DejaVuSans-74" x="835.205078"/>
      <use xlink:href="#DejaVuSans-65" x="874.414062"/>
      <use xlink:href="#DejaVuSans-72" x="935.9375"/>
      <use xlink:href="#DejaVuSans-2f" x="977.050781"/>
      <use xlink:href="#DejaVuSans-63" x="1010.742188"/>
      <use xlink:href="#DejaVuSans-70" x="1065.722656"/>
      <use xlink:href="#DejaVuSans-75" x="1129.199219"/>
      <use xlink:href="#DejaVuSans-2f" x="1192.578125"/>
      <use xlink:href="#DejaVuSans-6f" x="1226.269531"/>
      <use xlink:href="#DejaVuSans-73" x="1287.451172"/>
      <use xlink:href="#DejaVuSans-75" x="1339.550781"/>
      <use xlink:href="#DejaVuSans-5f" x="1402.929688"/>
      <use xlink:href="#DejaVuSans-61" x="1452.929688"/>
      <use xlink:href="#DejaVuSans-6c" x="1514.208984"/>
      <use xlink:href="#DejaVuSans-6c" x="1541.992188"/>
      <use xlink:href="#DejaVuSans-72" x="1569.775391"/>
      <use xlink:href="#DejaVuSans-65" x="1608.638672"/>
      <use xlink:href="#DejaVuSans-64" x="1670.162109"/>
      <use xlink:href="#DejaVuSans-75" x="1733.638672"/>
      <use xlink:href="#DejaVuSans-63" x="1797.017578"/>
      <use xlink:href="#DejaVuSans-65" x="1851.998047"/>
     </g>
    </g>
    <g id="line2d_30">
     <path d="M 288.352812 194.040531 
L 299.352812 194.040531 
L 310.352812 194.040531 
" style="fill: none; stroke: #d65f5f; stroke-width: 1.5; stroke-linecap: round"/>
    </g>
    <g id="text_19">
     <!-- azure/cyclecloud/cpu/osu_allreduce -->
     <g style="fill: #262626" transform="translate(319.152812 197.890531) scale(0.11 -0.11)">
      <use xlink:href="#DejaVuSans-61"/>
      <use xlink:href="#DejaVuSans-7a" x="61.279297"/>
      <use xlink:href="#DejaVuSans-75" x="113.769531"/>
      <use xlink:href="#DejaVuSans-72" x="177.148438"/>
      <use xlink:href="#DejaVuSans-65" x="216.011719"/>
      <use xlink:href="#DejaVuSans-2f" x="277.535156"/>
      <use xlink:href="#DejaVuSans-63" x="311.226562"/>
      <use xlink:href="#DejaVuSans-79" x="366.207031"/>
      <use xlink:href="#DejaVuSans-63" x="425.386719"/>
      <use xlink:href="#DejaVuSans-6c" x="480.367188"/>
      <use xlink:href="#DejaVuSans-65" x="508.150391"/>
      <use xlink:href="#DejaVuSans-63" x="569.673828"/>
      <use xlink:href="#DejaVuSans-6c" x="624.654297"/>
      <use xlink:href="#DejaVuSans-6f" x="652.4375"/>
      <use xlink:href="#DejaVuSans-75" x="713.619141"/>
      <use xlink:href="#DejaVuSans-64" x="776.998047"/>
      <use xlink:href="#DejaVuSans-2f" x="840.474609"/>
      <use xlink:href="#DejaVuSans-63" x="874.166016"/>
      <use xlink:href="#DejaVuSans-70" x="929.146484"/>
      <use xlink:href="#DejaVuSans-75" x="992.623047"/>
      <use xlink:href="#DejaVuSans-2f" x="1056.001953"/>
      <use xlink:href="#DejaVuSans-6f" x="1089.693359"/>
      <use xlink:href="#DejaVuSans-73" x="1150.875"/>
      <use xlink:href="#DejaVuSans-75" x="1202.974609"/>
      <use xlink:href="#DejaVuSans-5f" x="1266.353516"/>
      <use xlink:href="#DejaVuSans-61" x="1316.353516"/>
      <use xlink:href="#DejaVuSans-6c" x="1377.632812"/>
      <use xlink:href="#DejaVuSans-6c" x="1405.416016"/>
      <use xlink:href="#DejaVuSans-72" x="1433.199219"/>
      <use xlink:href="#DejaVuSans-65" x="1472.0625"/>
      <use xlink:href="#DejaVuSans-64" x="1533.585938"/>
      <use xlink:href="#DejaVuSans-75" x="1597.0625"/>
      <use xlink:href="#DejaVuSans-63" x="1660.441406"/>
      <use xlink:href="#DejaVuSans-65" x="1715.421875"/>
     </g>
    </g>
    <g id="line2d_31">
     <path d="M 288.352812 210.492406 
L 299.352812 210.492406 
L 310.352812 210.492406 
" style="fill: none; stroke: #008000; stroke-width: 1.5; stroke-linecap: round"/>
    </g>
    <g id="text_20">
     <!-- azure/aks/cpu/osu_allreduce -->
     <g style="fill: #262626" transform="translate(319.152812 214.342406) scale(0.11 -0.11)">
      <use xlink:href="#DejaVuSans-61"/>
      <use xlink:href="#DejaVuSans-7a" x="61.279297"/>
      <use xlink:href="#DejaVuSans-75" x="113.769531"/>
      <use xlink:href="#DejaVuSans-72" x="177.148438"/>
      <use xlink:href="#DejaVuSans-65" x="216.011719"/>
      <use xlink:href="#DejaVuSans-2f" x="277.535156"/>
      <use xlink:href="#DejaVuSans-61" x="311.226562"/>
      <use xlink:href="#DejaVuSans-6b" x="372.505859"/>
      <use xlink:href="#DejaVuSans-73" x="430.416016"/>
      <use xlink:href="#DejaVuSans-2f" x="482.515625"/>
      <use xlink:href="#DejaVuSans-63" x="516.207031"/>
      <use xlink:href="#DejaVuSans-70" x="571.1875"/>
      <use xlink:href="#DejaVuSans-75" x="634.664062"/>
      <use xlink:href="#DejaVuSans-2f" x="698.042969"/>
      <use xlink:href="#DejaVuSans-6f" x="731.734375"/>
      <use xlink:href="#DejaVuSans-73" x="792.916016"/>
      <use xlink:href="#DejaVuSans-75" x="845.015625"/>
      <use xlink:href="#DejaVuSans-5f" x="908.394531"/>
      <use xlink:href="#DejaVuSans-61" x="958.394531"/>
      <use xlink:href="#DejaVuSans-6c" x="1019.673828"/>
      <use xlink:href="#DejaVuSans-6c" x="1047.457031"/>
      <use xlink:href="#DejaVuSans-72" x="1075.240234"/>
      <use xlink:href="#DejaVuSans-65" x="1114.103516"/>
      <use xlink:href="#DejaVuSans-64" x="1175.626953"/>
      <use xlink:href="#DejaVuSans-75" x="1239.103516"/>
      <use xlink:href="#DejaVuSans-63" x="1302.482422"/>
      <use xlink:href="#DejaVuSans-65" x="1357.462891"/>
     </g>
    </g>
   </g>
  </g>
 </g>
 <defs>
  <clipPath id="pbe55f5f2c0">
   <rect x="71.441053" y="31.92" width="491.598947" height="194.916"/>
  </clipPath>
 </defs>
</svg>
