<?xml version="1.0" encoding="utf-8" standalone="no"?>
<!DOCTYPE svg PUBLIC "-//W3C//DTD SVG 1.1//EN"
  "http://www.w3.org/Graphics/SVG/1.1/DTD/svg11.dtd">
<svg xmlns:xlink="http://www.w3.org/1999/xlink" width="576pt" height="288pt" viewBox="0 0 576 288" xmlns="http://www.w3.org/2000/svg" version="1.1">
 <metadata>
  <rdf:RDF xmlns:dc="http://purl.org/dc/elements/1.1/" xmlns:cc="http://creativecommons.org/ns#" xmlns:rdf="http://www.w3.org/1999/02/22-rdf-syntax-ns#">
   <cc:Work>
    <dc:type rdf:resource="http://purl.org/dc/dcmitype/StillImage"/>
    <dc:date>2025-02-04T10:26:43.519633</dc:date>
    <dc:format>image/svg+xml</dc:format>
    <dc:creator>
     <cc:Agent>
      <dc:title>Matplotlib v3.8.4, https://matplotlib.org/</dc:title>
     </cc:Agent>
    </dc:creator>
   </cc:Work>
  </rdf:RDF>
 </metadata>
 <defs>
  <style type="text/css">*{stroke-linejoin: round; stroke-linecap: butt}</style>
 </defs>
 <g id="figure_1">
  <g id="patch_1">
   <path d="M 0 288 
L 576 288 
L 576 0 
L 0 0 
z
" style="fill: #ffffff"/>
  </g>
  <g id="axes_1">
   <g id="patch_2">
    <path d="M 71.193553 226.836 
L 563.04 226.836 
L 563.04 31.92 
L 71.193553 31.92 
z
" style="fill: #ffffff"/>
   </g>
   <g id="matplotlib.axis_1">
    <g id="xtick_1">
     <g id="line2d_1">
      <path d="M 93.55021 226.836 
L 93.55021 31.92 
" clip-path="url(#p614b8b6b00)" style="fill: none; stroke: #cccccc; stroke-linecap: round"/>
     </g>
     <g id="text_1">
      <!-- $\mathdefault{10^{0}}$ -->
      <g style="fill: #262626" transform="translate(79.47021 248.4935) scale(0.16 -0.16)">
       <defs>
        <path id="DejaVuSans-31" d="M 794 531 
L 1825 531 
L 1825 4091 
L 703 3866 
L 703 4441 
L 1819 4666 
L 2450 4666 
L 2450 531 
L 3481 531 
L 3481 0 
L 794 0 
L 794 531 
z
" transform="scale(0.015625)"/>
        <path id="DejaVuSans-30" d="M 2034 4250 
Q 1547 4250 1301 3770 
Q 1056 3291 1056 2328 
Q 1056 1369 1301 889 
Q 1547 409 2034 409 
Q 2525 409 2770 889 
Q 3016 1369 3016 2328 
Q 3016 3291 2770 3770 
Q 2525 4250 2034 4250 
z
M 2034 4750 
Q 2819 4750 3233 4129 
Q 3647 3509 3647 2328 
Q 3647 1150 3233 529 
Q 2819 -91 2034 -91 
Q 1250 -91 836 529 
Q 422 1150 422 2328 
Q 422 3509 836 4129 
Q 1250 4750 2034 4750 
z
" transform="scale(0.015625)"/>
       </defs>
       <use xlink:href="#DejaVuSans-31" transform="translate(0 0.765625)"/>
       <use xlink:href="#DejaVuSans-30" transform="translate(63.623047 0.765625)"/>
       <use xlink:href="#DejaVuSans-30" transform="translate(128.203125 39.046875) scale(0.7)"/>
      </g>
     </g>
    </g>
    <g id="xtick_2">
     <g id="line2d_2">
      <path d="M 161.065852 226.836 
L 161.065852 31.92 
" clip-path="url(#p614b8b6b00)" style="fill: none; stroke: #cccccc; stroke-linecap: round"/>
     </g>
     <g id="text_2">
      <!-- $\mathdefault{10^{1}}$ -->
      <g style="fill: #262626" transform="translate(146.985852 248.4935) scale(0.16 -0.16)">
       <use xlink:href="#DejaVuSans-31" transform="translate(0 0.684375)"/>
       <use xlink:href="#DejaVuSans-30" transform="translate(63.623047 0.684375)"/>
       <use xlink:href="#DejaVuSans-31" transform="translate(128.203125 38.965625) scale(0.7)"/>
      </g>
     </g>
    </g>
    <g id="xtick_3">
     <g id="line2d_3">
      <path d="M 228.581493 226.836 
L 228.581493 31.92 
" clip-path="url(#p614b8b6b00)" style="fill: none; stroke: #cccccc; stroke-linecap: round"/>
     </g>
     <g id="text_3">
      <!-- $\mathdefault{10^{2}}$ -->
      <g style="fill: #262626" transform="translate(214.501493 248.4935) scale(0.16 -0.16)">
       <defs>
        <path id="DejaVuSans-32" d="M 1228 531 
L 3431 531 
L 3431 0 
L 469 0 
L 469 531 
Q 828 903 1448 1529 
Q 2069 2156 2228 2338 
Q 2531 2678 2651 2914 
Q 2772 3150 2772 3378 
Q 2772 3750 2511 3984 
Q 2250 4219 1831 4219 
Q 1534 4219 1204 4116 
Q 875 4013 500 3803 
L 500 4441 
Q 881 4594 1212 4672 
Q 1544 4750 1819 4750 
Q 2544 4750 2975 4387 
Q 3406 4025 3406 3419 
Q 3406 3131 3298 2873 
Q 3191 2616 2906 2266 
Q 2828 2175 2409 1742 
Q 1991 1309 1228 531 
z
" transform="scale(0.015625)"/>
       </defs>
       <use xlink:href="#DejaVuSans-31" transform="translate(0 0.765625)"/>
       <use xlink:href="#DejaVuSans-30" transform="translate(63.623047 0.765625)"/>
       <use xlink:href="#DejaVuSans-32" transform="translate(128.203125 39.046875) scale(0.7)"/>
      </g>
     </g>
    </g>
    <g id="xtick_4">
     <g id="line2d_4">
      <path d="M 296.097135 226.836 
L 296.097135 31.92 
" clip-path="url(#p614b8b6b00)" style="fill: none; stroke: #cccccc; stroke-linecap: round"/>
     </g>
     <g id="text_4">
      <!-- $\mathdefault{10^{3}}$ -->
      <g style="fill: #262626" transform="translate(282.017135 248.4935) scale(0.16 -0.16)">
       <defs>
        <path id="DejaVuSans-33" d="M 2597 2516 
Q 3050 2419 3304 2112 
Q 3559 1806 3559 1356 
Q 3559 666 3084 287 
Q 2609 -91 1734 -91 
Q 1441 -91 1130 -33 
Q 819 25 488 141 
L 488 750 
Q 750 597 1062 519 
Q 1375 441 1716 441 
Q 2309 441 2620 675 
Q 2931 909 2931 1356 
Q 2931 1769 2642 2001 
Q 2353 2234 1838 2234 
L 1294 2234 
L 1294 2753 
L 1863 2753 
Q 2328 2753 2575 2939 
Q 2822 3125 2822 3475 
Q 2822 3834 2567 4026 
Q 2313 4219 1838 4219 
Q 1578 4219 1281 4162 
Q 984 4106 628 3988 
L 628 4550 
Q 988 4650 1302 4700 
Q 1616 4750 1894 4750 
Q 2613 4750 3031 4423 
Q 3450 4097 3450 3541 
Q 3450 3153 3228 2886 
Q 3006 2619 2597 2516 
z
" transform="scale(0.015625)"/>
       </defs>
       <use xlink:href="#DejaVuSans-31" transform="translate(0 0.765625)"/>
       <use xlink:href="#DejaVuSans-30" transform="translate(63.623047 0.765625)"/>
       <use xlink:href="#DejaVuSans-33" transform="translate(128.203125 39.046875) scale(0.7)"/>
      </g>
     </g>
    </g>
    <g id="xtick_5">
     <g id="line2d_5">
      <path d="M 363.612777 226.836 
L 363.612777 31.92 
" clip-path="url(#p614b8b6b00)" style="fill: none; stroke: #cccccc; stroke-linecap: round"/>
     </g>
     <g id="text_5">
      <!-- $\mathdefault{10^{4}}$ -->
      <g style="fill: #262626" transform="translate(349.532777 248.4935) scale(0.16 -0.16)">
       <defs>
        <path id="DejaVuSans-34" d="M 2419 4116 
L 825 1625 
L 2419 1625 
L 2419 4116 
z
M 2253 4666 
L 3047 4666 
L 3047 1625 
L 3713 1625 
L 3713 1100 
L 3047 1100 
L 3047 0 
L 2419 0 
L 2419 1100 
L 313 1100 
L 313 1709 
L 2253 4666 
z
" transform="scale(0.015625)"/>
       </defs>
       <use xlink:href="#DejaVuSans-31" transform="translate(0 0.684375)"/>
       <use xlink:href="#DejaVuSans-30" transform="translate(63.623047 0.684375)"/>
       <use xlink:href="#DejaVuSans-34" transform="translate(128.203125 38.965625) scale(0.7)"/>
      </g>
     </g>
    </g>
    <g id="xtick_6">
     <g id="line2d_6">
      <path d="M 431.128419 226.836 
L 431.128419 31.92 
" clip-path="url(#p614b8b6b00)" style="fill: none; stroke: #cccccc; stroke-linecap: round"/>
     </g>
     <g id="text_6">
      <!-- $\mathdefault{10^{5}}$ -->
      <g style="fill: #262626" transform="translate(417.048419 248.4935) scale(0.16 -0.16)">
       <defs>
        <path id="DejaVuSans-35" d="M 691 4666 
L 3169 4666 
L 3169 4134 
L 1269 4134 
L 1269 2991 
Q 1406 3038 1543 3061 
Q 1681 3084 1819 3084 
Q 2600 3084 3056 2656 
Q 3513 2228 3513 1497 
Q 3513 744 3044 326 
Q 2575 -91 1722 -91 
Q 1428 -91 1123 -41 
Q 819 9 494 109 
L 494 744 
Q 775 591 1075 516 
Q 1375 441 1709 441 
Q 2250 441 2565 725 
Q 2881 1009 2881 1497 
Q 2881 1984 2565 2268 
Q 2250 2553 1709 2553 
Q 1456 2553 1204 2497 
Q 953 2441 691 2322 
L 691 4666 
z
" transform="scale(0.015625)"/>
       </defs>
       <use xlink:href="#DejaVuSans-31" transform="translate(0 0.684375)"/>
       <use xlink:href="#DejaVuSans-30" transform="translate(63.623047 0.684375)"/>
       <use xlink:href="#DejaVuSans-35" transform="translate(128.203125 38.965625) scale(0.7)"/>
      </g>
     </g>
    </g>
    <g id="xtick_7">
     <g id="line2d_7">
      <path d="M 498.64406 226.836 
L 498.64406 31.92 
" clip-path="url(#p614b8b6b00)" style="fill: none; stroke: #cccccc; stroke-linecap: round"/>
     </g>
     <g id="text_7">
      <!-- $\mathdefault{10^{6}}$ -->
      <g style="fill: #262626" transform="translate(484.56406 248.4935) scale(0.16 -0.16)">
       <defs>
        <path id="DejaVuSans-36" d="M 2113 2584 
Q 1688 2584 1439 2293 
Q 1191 2003 1191 1497 
Q 1191 994 1439 701 
Q 1688 409 2113 409 
Q 2538 409 2786 701 
Q 3034 994 3034 1497 
Q 3034 2003 2786 2293 
Q 2538 2584 2113 2584 
z
M 3366 4563 
L 3366 3988 
Q 3128 4100 2886 4159 
Q 2644 4219 2406 4219 
Q 1781 4219 1451 3797 
Q 1122 3375 1075 2522 
Q 1259 2794 1537 2939 
Q 1816 3084 2150 3084 
Q 2853 3084 3261 2657 
Q 3669 2231 3669 1497 
Q 3669 778 3244 343 
Q 2819 -91 2113 -91 
Q 1303 -91 875 529 
Q 447 1150 447 2328 
Q 447 3434 972 4092 
Q 1497 4750 2381 4750 
Q 2619 4750 2861 4703 
Q 3103 4656 3366 4563 
z
" transform="scale(0.015625)"/>
       </defs>
       <use xlink:href="#DejaVuSans-31" transform="translate(0 0.765625)"/>
       <use xlink:href="#DejaVuSans-30" transform="translate(63.623047 0.765625)"/>
       <use xlink:href="#DejaVuSans-36" transform="translate(128.203125 39.046875) scale(0.7)"/>
      </g>
     </g>
    </g>
    <g id="xtick_8"/>
    <g id="xtick_9"/>
    <g id="xtick_10"/>
    <g id="xtick_11"/>
    <g id="xtick_12"/>
    <g id="xtick_13"/>
    <g id="xtick_14"/>
    <g id="xtick_15"/>
    <g id="xtick_16"/>
    <g id="xtick_17"/>
    <g id="xtick_18"/>
    <g id="xtick_19"/>
    <g id="xtick_20"/>
    <g id="xtick_21"/>
    <g id="xtick_22"/>
    <g id="xtick_23"/>
    <g id="xtick_24"/>
    <g id="xtick_25"/>
    <g id="xtick_26"/>
    <g id="xtick_27"/>
    <g id="xtick_28"/>
    <g id="xtick_29"/>
    <g id="xtick_30"/>
    <g id="xtick_31"/>
    <g id="xtick_32"/>
    <g id="xtick_33"/>
    <g id="xtick_34"/>
    <g id="xtick_35"/>
    <g id="xtick_36"/>
    <g id="xtick_37"/>
    <g id="xtick_38"/>
    <g id="xtick_39"/>
    <g id="xtick_40"/>
    <g id="xtick_41"/>
    <g id="xtick_42"/>
    <g id="xtick_43"/>
    <g id="xtick_44"/>
    <g id="xtick_45"/>
    <g id="xtick_46"/>
    <g id="xtick_47"/>
    <g id="xtick_48"/>
    <g id="xtick_49"/>
    <g id="xtick_50"/>
    <g id="xtick_51"/>
    <g id="xtick_52"/>
    <g id="xtick_53"/>
    <g id="xtick_54"/>
    <g id="xtick_55"/>
    <g id="xtick_56"/>
    <g id="xtick_57"/>
    <g id="xtick_58"/>
    <g id="xtick_59"/>
    <g id="xtick_60"/>
    <g id="xtick_61"/>
    <g id="xtick_62"/>
    <g id="xtick_63"/>
    <g id="xtick_64"/>
    <g id="xtick_65"/>
    <g id="xtick_66"/>
    <g id="xtick_67"/>
    <g id="text_8">
     <!-- Message size in bytes (logscale) -->
     <g style="fill: #262626" transform="translate(187.986777 267.9785) scale(0.16 -0.16)">
      <defs>
       <path id="DejaVuSans-4d" d="M 628 4666 
L 1569 4666 
L 2759 1491 
L 3956 4666 
L 4897 4666 
L 4897 0 
L 4281 0 
L 4281 4097 
L 3078 897 
L 2444 897 
L 1241 4097 
L 1241 0 
L 628 0 
L 628 4666 
z
" transform="scale(0.015625)"/>
       <path id="DejaVuSans-65" d="M 3597 1894 
L 3597 1613 
L 953 1613 
Q 991 1019 1311 708 
Q 1631 397 2203 397 
Q 2534 397 2845 478 
Q 3156 559 3463 722 
L 3463 178 
Q 3153 47 2828 -22 
Q 2503 -91 2169 -91 
Q 1331 -91 842 396 
Q 353 884 353 1716 
Q 353 2575 817 3079 
Q 1281 3584 2069 3584 
Q 2775 3584 3186 3129 
Q 3597 2675 3597 1894 
z
M 3022 2063 
Q 3016 2534 2758 2815 
Q 2500 3097 2075 3097 
Q 1594 3097 1305 2825 
Q 1016 2553 972 2059 
L 3022 2063 
z
" transform="scale(0.015625)"/>
       <path id="DejaVuSans-73" d="M 2834 3397 
L 2834 2853 
Q 2591 2978 2328 3040 
Q 2066 3103 1784 3103 
Q 1356 3103 1142 2972 
Q 928 2841 928 2578 
Q 928 2378 1081 2264 
Q 1234 2150 1697 2047 
L 1894 2003 
Q 2506 1872 2764 1633 
Q 3022 1394 3022 966 
Q 3022 478 2636 193 
Q 2250 -91 1575 -91 
Q 1294 -91 989 -36 
Q 684 19 347 128 
L 347 722 
Q 666 556 975 473 
Q 1284 391 1588 391 
Q 1994 391 2212 530 
Q 2431 669 2431 922 
Q 2431 1156 2273 1281 
Q 2116 1406 1581 1522 
L 1381 1569 
Q 847 1681 609 1914 
Q 372 2147 372 2553 
Q 372 3047 722 3315 
Q 1072 3584 1716 3584 
Q 2034 3584 2315 3537 
Q 2597 3491 2834 3397 
z
" transform="scale(0.015625)"/>
       <path id="DejaVuSans-61" d="M 2194 1759 
Q 1497 1759 1228 1600 
Q 959 1441 959 1056 
Q 959 750 1161 570 
Q 1363 391 1709 391 
Q 2188 391 2477 730 
Q 2766 1069 2766 1631 
L 2766 1759 
L 2194 1759 
z
M 3341 1997 
L 3341 0 
L 2766 0 
L 2766 531 
Q 2569 213 2275 61 
Q 1981 -91 1556 -91 
Q 1019 -91 701 211 
Q 384 513 384 1019 
Q 384 1609 779 1909 
Q 1175 2209 1959 2209 
L 2766 2209 
L 2766 2266 
Q 2766 2663 2505 2880 
Q 2244 3097 1772 3097 
Q 1472 3097 1187 3025 
Q 903 2953 641 2809 
L 641 3341 
Q 956 3463 1253 3523 
Q 1550 3584 1831 3584 
Q 2591 3584 2966 3190 
Q 3341 2797 3341 1997 
z
" transform="scale(0.015625)"/>
       <path id="DejaVuSans-67" d="M 2906 1791 
Q 2906 2416 2648 2759 
Q 2391 3103 1925 3103 
Q 1463 3103 1205 2759 
Q 947 2416 947 1791 
Q 947 1169 1205 825 
Q 1463 481 1925 481 
Q 2391 481 2648 825 
Q 2906 1169 2906 1791 
z
M 3481 434 
Q 3481 -459 3084 -895 
Q 2688 -1331 1869 -1331 
Q 1566 -1331 1297 -1286 
Q 1028 -1241 775 -1147 
L 775 -588 
Q 1028 -725 1275 -790 
Q 1522 -856 1778 -856 
Q 2344 -856 2625 -561 
Q 2906 -266 2906 331 
L 2906 616 
Q 2728 306 2450 153 
Q 2172 0 1784 0 
Q 1141 0 747 490 
Q 353 981 353 1791 
Q 353 2603 747 3093 
Q 1141 3584 1784 3584 
Q 2172 3584 2450 3431 
Q 2728 3278 2906 2969 
L 2906 3500 
L 3481 3500 
L 3481 434 
z
" transform="scale(0.015625)"/>
       <path id="DejaVuSans-20" transform="scale(0.015625)"/>
       <path id="DejaVuSans-69" d="M 603 3500 
L 1178 3500 
L 1178 0 
L 603 0 
L 603 3500 
z
M 603 4863 
L 1178 4863 
L 1178 4134 
L 603 4134 
L 603 4863 
z
" transform="scale(0.015625)"/>
       <path id="DejaVuSans-7a" d="M 353 3500 
L 3084 3500 
L 3084 2975 
L 922 459 
L 3084 459 
L 3084 0 
L 275 0 
L 275 525 
L 2438 3041 
L 353 3041 
L 353 3500 
z
" transform="scale(0.015625)"/>
       <path id="DejaVuSans-6e" d="M 3513 2113 
L 3513 0 
L 2938 0 
L 2938 2094 
Q 2938 2591 2744 2837 
Q 2550 3084 2163 3084 
Q 1697 3084 1428 2787 
Q 1159 2491 1159 1978 
L 1159 0 
L 581 0 
L 581 3500 
L 1159 3500 
L 1159 2956 
Q 1366 3272 1645 3428 
Q 1925 3584 2291 3584 
Q 2894 3584 3203 3211 
Q 3513 2838 3513 2113 
z
" transform="scale(0.015625)"/>
       <path id="DejaVuSans-62" d="M 3116 1747 
Q 3116 2381 2855 2742 
Q 2594 3103 2138 3103 
Q 1681 3103 1420 2742 
Q 1159 2381 1159 1747 
Q 1159 1113 1420 752 
Q 1681 391 2138 391 
Q 2594 391 2855 752 
Q 3116 1113 3116 1747 
z
M 1159 2969 
Q 1341 3281 1617 3432 
Q 1894 3584 2278 3584 
Q 2916 3584 3314 3078 
Q 3713 2572 3713 1747 
Q 3713 922 3314 415 
Q 2916 -91 2278 -91 
Q 1894 -91 1617 61 
Q 1341 213 1159 525 
L 1159 0 
L 581 0 
L 581 4863 
L 1159 4863 
L 1159 2969 
z
" transform="scale(0.015625)"/>
       <path id="DejaVuSans-79" d="M 2059 -325 
Q 1816 -950 1584 -1140 
Q 1353 -1331 966 -1331 
L 506 -1331 
L 506 -850 
L 844 -850 
Q 1081 -850 1212 -737 
Q 1344 -625 1503 -206 
L 1606 56 
L 191 3500 
L 800 3500 
L 1894 763 
L 2988 3500 
L 3597 3500 
L 2059 -325 
z
" transform="scale(0.015625)"/>
       <path id="DejaVuSans-74" d="M 1172 4494 
L 1172 3500 
L 2356 3500 
L 2356 3053 
L 1172 3053 
L 1172 1153 
Q 1172 725 1289 603 
Q 1406 481 1766 481 
L 2356 481 
L 2356 0 
L 1766 0 
Q 1100 0 847 248 
Q 594 497 594 1153 
L 594 3053 
L 172 3053 
L 172 3500 
L 594 3500 
L 594 4494 
L 1172 4494 
z
" transform="scale(0.015625)"/>
       <path id="DejaVuSans-28" d="M 1984 4856 
Q 1566 4138 1362 3434 
Q 1159 2731 1159 2009 
Q 1159 1288 1364 580 
Q 1569 -128 1984 -844 
L 1484 -844 
Q 1016 -109 783 600 
Q 550 1309 550 2009 
Q 550 2706 781 3412 
Q 1013 4119 1484 4856 
L 1984 4856 
z
" transform="scale(0.015625)"/>
       <path id="DejaVuSans-6c" d="M 603 4863 
L 1178 4863 
L 1178 0 
L 603 0 
L 603 4863 
z
" transform="scale(0.015625)"/>
       <path id="DejaVuSans-6f" d="M 1959 3097 
Q 1497 3097 1228 2736 
Q 959 2375 959 1747 
Q 959 1119 1226 758 
Q 1494 397 1959 397 
Q 2419 397 2687 759 
Q 2956 1122 2956 1747 
Q 2956 2369 2687 2733 
Q 2419 3097 1959 3097 
z
M 1959 3584 
Q 2709 3584 3137 3096 
Q 3566 2609 3566 1747 
Q 3566 888 3137 398 
Q 2709 -91 1959 -91 
Q 1206 -91 779 398 
Q 353 888 353 1747 
Q 353 2609 779 3096 
Q 1206 3584 1959 3584 
z
" transform="scale(0.015625)"/>
       <path id="DejaVuSans-63" d="M 3122 3366 
L 3122 2828 
Q 2878 2963 2633 3030 
Q 2388 3097 2138 3097 
Q 1578 3097 1268 2742 
Q 959 2388 959 1747 
Q 959 1106 1268 751 
Q 1578 397 2138 397 
Q 2388 397 2633 464 
Q 2878 531 3122 666 
L 3122 134 
Q 2881 22 2623 -34 
Q 2366 -91 2075 -91 
Q 1284 -91 818 406 
Q 353 903 353 1747 
Q 353 2603 823 3093 
Q 1294 3584 2113 3584 
Q 2378 3584 2631 3529 
Q 2884 3475 3122 3366 
z
" transform="scale(0.015625)"/>
       <path id="DejaVuSans-29" d="M 513 4856 
L 1013 4856 
Q 1481 4119 1714 3412 
Q 1947 2706 1947 2009 
Q 1947 1309 1714 600 
Q 1481 -109 1013 -844 
L 513 -844 
Q 928 -128 1133 580 
Q 1338 1288 1338 2009 
Q 1338 2731 1133 3434 
Q 928 4138 513 4856 
z
" transform="scale(0.015625)"/>
      </defs>
      <use xlink:href="#DejaVuSans-4d"/>
      <use xlink:href="#DejaVuSans-65" x="86.279297"/>
      <use xlink:href="#DejaVuSans-73" x="147.802734"/>
      <use xlink:href="#DejaVuSans-73" x="199.902344"/>
      <use xlink:href="#DejaVuSans-61" x="252.001953"/>
      <use xlink:href="#DejaVuSans-67" x="313.28125"/>
      <use xlink:href="#DejaVuSans-65" x="376.757812"/>
      <use xlink:href="#DejaVuSans-20" x="438.28125"/>
      <use xlink:href="#DejaVuSans-73" x="470.068359"/>
      <use xlink:href="#DejaVuSans-69" x="522.167969"/>
      <use xlink:href="#DejaVuSans-7a" x="549.951172"/>
      <use xlink:href="#DejaVuSans-65" x="602.441406"/>
      <use xlink:href="#DejaVuSans-20" x="663.964844"/>
      <use xlink:href="#DejaVuSans-69" x="695.751953"/>
      <use xlink:href="#DejaVuSans-6e" x="723.535156"/>
      <use xlink:href="#DejaVuSans-20" x="786.914062"/>
      <use xlink:href="#DejaVuSans-62" x="818.701172"/>
      <use xlink:href="#DejaVuSans-79" x="882.177734"/>
      <use xlink:href="#DejaVuSans-74" x="941.357422"/>
      <use xlink:href="#DejaVuSans-65" x="980.566406"/>
      <use xlink:href="#DejaVuSans-73" x="1042.089844"/>
      <use xlink:href="#DejaVuSans-20" x="1094.189453"/>
      <use xlink:href="#DejaVuSans-28" x="1125.976562"/>
      <use xlink:href="#DejaVuSans-6c" x="1164.990234"/>
      <use xlink:href="#DejaVuSans-6f" x="1192.773438"/>
      <use xlink:href="#DejaVuSans-67" x="1253.955078"/>
      <use xlink:href="#DejaVuSans-73" x="1317.431641"/>
      <use xlink:href="#DejaVuSans-63" x="1369.53125"/>
      <use xlink:href="#DejaVuSans-61" x="1424.511719"/>
      <use xlink:href="#DejaVuSans-6c" x="1485.791016"/>
      <use xlink:href="#DejaVuSans-65" x="1513.574219"/>
      <use xlink:href="#DejaVuSans-29" x="1575.097656"/>
     </g>
    </g>
   </g>
   <g id="matplotlib.axis_2">
    <g id="ytick_1">
     <g id="line2d_8">
      <path d="M 71.193553 176.0538 
L 563.04 176.0538 
" clip-path="url(#p614b8b6b00)" style="fill: none; stroke: #cccccc; stroke-linecap: round"/>
     </g>
     <g id="text_9">
      <!-- $\mathdefault{10^{1}}$ -->
      <g style="fill: #262626" transform="translate(33.533553 182.13255) scale(0.16 -0.16)">
       <use xlink:href="#DejaVuSans-31" transform="translate(0 0.684375)"/>
       <use xlink:href="#DejaVuSans-30" transform="translate(63.623047 0.684375)"/>
       <use xlink:href="#DejaVuSans-31" transform="translate(128.203125 38.965625) scale(0.7)"/>
      </g>
     </g>
    </g>
    <g id="ytick_2">
     <g id="line2d_9">
      <path d="M 71.193553 124.039723 
L 563.04 124.039723 
" clip-path="url(#p614b8b6b00)" style="fill: none; stroke: #cccccc; stroke-linecap: round"/>
     </g>
     <g id="text_10">
      <!-- $\mathdefault{10^{2}}$ -->
      <g style="fill: #262626" transform="translate(33.533553 130.118473) scale(0.16 -0.16)">
       <use xlink:href="#DejaVuSans-31" transform="translate(0 0.765625)"/>
       <use xlink:href="#DejaVuSans-30" transform="translate(63.623047 0.765625)"/>
       <use xlink:href="#DejaVuSans-32" transform="translate(128.203125 39.046875) scale(0.7)"/>
      </g>
     </g>
    </g>
    <g id="ytick_3">
     <g id="line2d_10">
      <path d="M 71.193553 72.025647 
L 563.04 72.025647 
" clip-path="url(#p614b8b6b00)" style="fill: none; stroke: #cccccc; stroke-linecap: round"/>
     </g>
     <g id="text_11">
      <!-- $\mathdefault{10^{3}}$ -->
      <g style="fill: #262626" transform="translate(33.533553 78.104397) scale(0.16 -0.16)">
       <use xlink:href="#DejaVuSans-31" transform="translate(0 0.765625)"/>
       <use xlink:href="#DejaVuSans-30" transform="translate(63.623047 0.765625)"/>
       <use xlink:href="#DejaVuSans-33" transform="translate(128.203125 39.046875) scale(0.7)"/>
      </g>
     </g>
    </g>
    <g id="ytick_4"/>
    <g id="ytick_5"/>
    <g id="ytick_6"/>
    <g id="ytick_7"/>
    <g id="ytick_8"/>
    <g id="ytick_9"/>
    <g id="ytick_10"/>
    <g id="ytick_11"/>
    <g id="ytick_12"/>
    <g id="ytick_13"/>
    <g id="ytick_14"/>
    <g id="ytick_15"/>
    <g id="ytick_16"/>
    <g id="ytick_17"/>
    <g id="ytick_18"/>
    <g id="ytick_19"/>
    <g id="ytick_20"/>
    <g id="ytick_21"/>
    <g id="ytick_22"/>
    <g id="ytick_23"/>
    <g id="ytick_24"/>
    <g id="ytick_25"/>
    <g id="ytick_26"/>
    <g id="ytick_27"/>
    <g id="ytick_28"/>
    <g id="ytick_29"/>
    <g id="ytick_30"/>
    <g id="ytick_31"/>
    <g id="text_12">
     <!-- latency us (logscale) -->
     <g style="fill: #262626" transform="translate(26.206053 212.1405) rotate(-90) scale(0.16 -0.16)">
      <defs>
       <path id="DejaVuSans-75" d="M 544 1381 
L 544 3500 
L 1119 3500 
L 1119 1403 
Q 1119 906 1312 657 
Q 1506 409 1894 409 
Q 2359 409 2629 706 
Q 2900 1003 2900 1516 
L 2900 3500 
L 3475 3500 
L 3475 0 
L 2900 0 
L 2900 538 
Q 2691 219 2414 64 
Q 2138 -91 1772 -91 
Q 1169 -91 856 284 
Q 544 659 544 1381 
z
M 1991 3584 
L 1991 3584 
z
" transform="scale(0.015625)"/>
      </defs>
      <use xlink:href="#DejaVuSans-6c"/>
      <use xlink:href="#DejaVuSans-61" x="27.783203"/>
      <use xlink:href="#DejaVuSans-74" x="89.0625"/>
      <use xlink:href="#DejaVuSans-65" x="128.271484"/>
      <use xlink:href="#DejaVuSans-6e" x="189.794922"/>
      <use xlink:href="#DejaVuSans-63" x="253.173828"/>
      <use xlink:href="#DejaVuSans-79" x="308.154297"/>
      <use xlink:href="#DejaVuSans-20" x="367.333984"/>
      <use xlink:href="#DejaVuSans-75" x="399.121094"/>
      <use xlink:href="#DejaVuSans-73" x="462.5"/>
      <use xlink:href="#DejaVuSans-20" x="514.599609"/>
      <use xlink:href="#DejaVuSans-28" x="546.386719"/>
      <use xlink:href="#DejaVuSans-6c" x="585.400391"/>
      <use xlink:href="#DejaVuSans-6f" x="613.183594"/>
      <use xlink:href="#DejaVuSans-67" x="674.365234"/>
      <use xlink:href="#DejaVuSans-73" x="737.841797"/>
      <use xlink:href="#DejaVuSans-63" x="789.941406"/>
      <use xlink:href="#DejaVuSans-61" x="844.921875"/>
      <use xlink:href="#DejaVuSans-6c" x="906.201172"/>
      <use xlink:href="#DejaVuSans-65" x="933.984375"/>
      <use xlink:href="#DejaVuSans-29" x="995.507812"/>
     </g>
    </g>
   </g>
   <g id="PolyCollection_1">
    <path d="M -67422.091495 146.8653 
L -67422.091495 147.221826 
L 93.55021 147.36589 
L 113.874443 147.291685 
L 134.198677 147.259595 
L 154.52291 147.301008 
L 174.847143 147.272052 
L 195.171377 147.237343 
L 215.49561 145.484838 
L 235.819843 145.246506 
L 256.144077 144.316596 
L 276.46831 144.077559 
L 296.792543 143.83446 
L 317.116777 142.669401 
L 337.44101 141.084641 
L 357.765243 137.783443 
L 378.089477 134.278598 
L 398.41371 127.621805 
L 418.737943 108.063717 
L 439.062177 103.81612 
L 459.38641 97.542513 
L 479.710643 89.736891 
L 500.034877 79.088845 
L 520.35911 66.237205 
L 540.683343 52.130983 
L 540.683343 52.008837 
L 540.683343 52.008837 
L 520.35911 66.124178 
L 500.034877 78.980684 
L 479.710643 89.570756 
L 459.38641 97.380401 
L 439.062177 103.623976 
L 418.737943 107.797492 
L 398.41371 127.394251 
L 378.089477 134.015522 
L 357.765243 137.473762 
L 337.44101 140.76567 
L 317.116777 142.353529 
L 296.792543 143.514407 
L 276.46831 143.779619 
L 256.144077 143.996947 
L 235.819843 144.941413 
L 215.49561 145.164334 
L 195.171377 146.912096 
L 174.847143 146.929824 
L 154.52291 146.961126 
L 134.198677 146.927207 
L 113.874443 146.954539 
L 93.55021 147.04463 
L -67422.091495 146.8653 
z
" clip-path="url(#p614b8b6b00)" style="fill: #8c613c; fill-opacity: 0.2; stroke: #8c613c; stroke-opacity: 0.2"/>
   </g>
   <g id="PolyCollection_2">
    <path d="M -67422.091495 148.586085 
L -67422.091495 149.692398 
L 93.55021 149.819833 
L 113.874443 149.761545 
L 134.198677 149.66879 
L 154.52291 149.676518 
L 174.847143 149.653735 
L 195.171377 147.68585 
L 215.49561 147.566244 
L 235.819843 147.459807 
L 256.144077 147.38226 
L 276.46831 147.02858 
L 296.792543 146.388203 
L 317.116777 142.927082 
L 337.44101 140.53323 
L 357.765243 136.524841 
L 378.089477 130.69061 
L 398.41371 121.626864 
L 418.737943 100.92448 
L 439.062177 100.924225 
L 459.38641 98.111996 
L 479.710643 90.331751 
L 500.034877 79.598687 
L 520.35911 61.927769 
L 540.683343 42.27125 
L 540.683343 40.779818 
L 540.683343 40.779818 
L 520.35911 59.518828 
L 500.034877 76.877151 
L 479.710643 88.446259 
L 459.38641 97.171578 
L 439.062177 100.396859 
L 418.737943 99.570065 
L 398.41371 120.829212 
L 378.089477 129.660793 
L 357.765243 135.541491 
L 337.44101 139.450537 
L 317.116777 142.047616 
L 296.792543 145.462855 
L 276.46831 146.106082 
L 256.144077 146.490733 
L 235.819843 146.559343 
L 215.49561 146.646491 
L 195.171377 146.698857 
L 174.847143 148.608104 
L 154.52291 148.65266 
L 134.198677 148.611078 
L 113.874443 148.660613 
L 93.55021 148.750468 
L -67422.091495 148.586085 
z
" clip-path="url(#p614b8b6b00)" style="fill: #6c3baa; fill-opacity: 0.2; stroke: #6c3baa; stroke-opacity: 0.2"/>
   </g>
   <g id="PolyCollection_3">
    <path d="M -67422.091495 213.480596 
L -67422.091495 214.468187 
L 93.55021 214.380625 
L 113.874443 214.258747 
L 134.198677 214.687461 
L 154.52291 214.479568 
L 174.847143 210.68222 
L 195.171377 210.874189 
L 215.49561 210.550231 
L 235.819843 210.139394 
L 256.144077 209.896215 
L 276.46831 208.923645 
L 296.792543 208.151697 
L 317.116777 205.640482 
L 337.44101 201.995067 
L 357.765243 198.789842 
L 378.089477 178.83304 
L 398.41371 176.69927 
L 418.737943 162.117993 
L 439.062177 154.702996 
L 459.38641 146.50341 
L 479.710643 137.062955 
L 500.034877 124.707346 
L 520.35911 111.202772 
L 540.683343 97.223064 
L 540.683343 96.64834 
L 540.683343 96.64834 
L 520.35911 110.713644 
L 500.034877 124.29211 
L 479.710643 136.510272 
L 459.38641 145.941249 
L 439.062177 154.3598 
L 418.737943 161.623268 
L 398.41371 176.049351 
L 378.089477 178.367561 
L 357.765243 198.223695 
L 337.44101 201.179151 
L 317.116777 205.068403 
L 296.792543 207.27777 
L 276.46831 208.085296 
L 256.144077 209.220671 
L 235.819843 209.368247 
L 215.49561 209.858694 
L 195.171377 210.261367 
L 174.847143 209.937377 
L 154.52291 213.641895 
L 134.198677 213.874594 
L 113.874443 213.076084 
L 93.55021 213.538065 
L -67422.091495 213.480596 
z
" clip-path="url(#p614b8b6b00)" style="fill: #dc7ec0; fill-opacity: 0.2; stroke: #dc7ec0; stroke-opacity: 0.2"/>
   </g>
   <g id="PolyCollection_4">
    <path d="M -67422.091495 165.707422 
L -67422.091495 167.136511 
L 93.55021 167.122232 
L 113.874443 167.201705 
L 134.198677 167.204895 
L 154.52291 166.07286 
L 174.847143 166.116194 
L 195.171377 166.08387 
L 215.49561 166.015947 
L 235.819843 166.077294 
L 256.144077 165.963138 
L 276.46831 165.825343 
L 296.792543 165.572429 
L 317.116777 165.166605 
L 337.44101 164.04045 
L 357.765243 161.611307 
L 378.089477 160.762908 
L 398.41371 158.910802 
L 418.737943 155.689241 
L 439.062177 133.894421 
L 459.38641 129.656393 
L 479.710643 117.009023 
L 500.034877 102.956551 
L 520.35911 88.191153 
L 540.683343 73.709673 
L 540.683343 72.71142 
L 540.683343 72.71142 
L 520.35911 87.17764 
L 500.034877 101.940033 
L 479.710643 115.92653 
L 459.38641 128.526245 
L 439.062177 132.538992 
L 418.737943 154.33931 
L 398.41371 157.378784 
L 378.089477 159.149804 
L 357.765243 159.978214 
L 337.44101 162.582704 
L 317.116777 163.793614 
L 296.792543 164.220494 
L 276.46831 164.423946 
L 256.144077 164.530711 
L 235.819843 164.606891 
L 215.49561 164.634077 
L 195.171377 164.755243 
L 174.847143 164.816911 
L 154.52291 164.730782 
L 134.198677 165.748284 
L 113.874443 165.763703 
L 93.55021 165.709068 
L -67422.091495 165.707422 
z
" clip-path="url(#p614b8b6b00)" style="fill: #4878d0; fill-opacity: 0.2; stroke: #4878d0; stroke-opacity: 0.2"/>
   </g>
   <g id="PolyCollection_5">
    <path d="M -67422.091495 165.534176 
L -67422.091495 166.720089 
L 93.55021 166.732741 
L 113.874443 166.51065 
L 134.198677 166.699191 
L 154.52291 166.070876 
L 174.847143 166.061129 
L 195.171377 166.082301 
L 215.49561 165.916761 
L 235.819843 165.884335 
L 256.144077 165.87472 
L 276.46831 165.761235 
L 296.792543 165.530669 
L 317.116777 165.046427 
L 337.44101 163.889546 
L 357.765243 161.432086 
L 378.089477 160.290563 
L 398.41371 158.649748 
L 418.737943 155.663513 
L 439.062177 133.566579 
L 459.38641 129.567995 
L 479.710643 117.07551 
L 500.034877 103.007366 
L 520.35911 88.325016 
L 540.683343 73.892619 
L 540.683343 73.100276 
L 540.683343 73.100276 
L 520.35911 87.495357 
L 500.034877 102.222444 
L 479.710643 116.164063 
L 459.38641 128.694824 
L 439.062177 132.49626 
L 418.737943 154.598157 
L 398.41371 157.479333 
L 378.089477 159.176857 
L 357.765243 160.10693 
L 337.44101 162.73079 
L 317.116777 163.928448 
L 296.792543 164.364735 
L 276.46831 164.611861 
L 256.144077 164.759182 
L 235.819843 164.7624 
L 215.49561 164.815035 
L 195.171377 164.970444 
L 174.847143 164.934934 
L 154.52291 164.979436 
L 134.198677 165.567661 
L 113.874443 165.339392 
L 93.55021 165.56453 
L -67422.091495 165.534176 
z
" clip-path="url(#p614b8b6b00)" style="fill: #ee854a; fill-opacity: 0.2; stroke: #ee854a; stroke-opacity: 0.2"/>
   </g>
   <g id="PolyCollection_6">
    <path d="M -67422.091495 217.742507 
L -67422.091495 217.911762 
L 93.55021 217.95297 
L 113.874443 217.976182 
L 134.198677 217.927206 
L 154.52291 217.922057 
L 174.847143 217.850091 
L 195.171377 215.737541 
L 215.49561 215.115202 
L 235.819843 214.529479 
L 256.144077 208.980981 
L 276.46831 207.883502 
L 296.792543 206.395198 
L 317.116777 205.276649 
L 337.44101 199.944545 
L 357.765243 196.810848 
L 378.089477 190.433423 
L 398.41371 184.750883 
L 418.737943 178.599388 
L 439.062177 168.917701 
L 459.38641 163.860302 
L 479.710643 152.958239 
L 500.034877 139.898089 
L 520.35911 125.855149 
L 540.683343 111.169878 
L 540.683343 111.165131 
L 540.683343 111.165131 
L 520.35911 125.817361 
L 500.034877 139.822819 
L 479.710643 152.921256 
L 459.38641 163.804406 
L 439.062177 168.730479 
L 418.737943 178.373842 
L 398.41371 184.620764 
L 378.089477 190.386204 
L 357.765243 196.746206 
L 337.44101 199.866856 
L 317.116777 205.138782 
L 296.792543 206.235004 
L 276.46831 207.714079 
L 256.144077 208.854836 
L 235.819843 214.339706 
L 215.49561 214.949787 
L 195.171377 215.572105 
L 174.847143 217.683907 
L 154.52291 217.742444 
L 134.198677 217.752789 
L 113.874443 217.803949 
L 93.55021 217.78603 
L -67422.091495 217.742507 
z
" clip-path="url(#p614b8b6b00)" style="fill: #d65f5f; fill-opacity: 0.2; stroke: #d65f5f; stroke-opacity: 0.2"/>
   </g>
   <g id="PolyCollection_7">
    <path d="M -67422.091495 148.179199 
L -67422.091495 165.962635 
L 93.55021 172.275235 
L 113.874443 189.216814 
L 134.198677 192.823751 
L 154.52291 189.008066 
L 174.847143 193.602638 
L 195.171377 197.793444 
L 215.49561 200.867271 
L 235.819843 200.220284 
L 256.144077 195.585595 
L 276.46831 195.590623 
L 296.792543 193.422478 
L 317.116777 191.186256 
L 337.44101 185.821117 
L 357.765243 181.179354 
L 378.089477 172.94095 
L 398.41371 168.334758 
L 418.737943 162.325312 
L 439.062177 152.71281 
L 459.38641 140.773537 
L 479.710643 129.812607 
L 500.034877 117.160663 
L 520.35911 102.744698 
L 540.683343 89.541126 
L 540.683343 86.171985 
L 540.683343 86.171985 
L 520.35911 97.411718 
L 500.034877 112.520816 
L 479.710643 123.908879 
L 459.38641 134.297904 
L 439.062177 145.687927 
L 418.737943 154.505064 
L 398.41371 159.240773 
L 378.089477 163.744309 
L 357.765243 165.379693 
L 337.44101 171.118449 
L 317.116777 174.023151 
L 296.792543 178.426148 
L 276.46831 173.399316 
L 256.144077 166.488148 
L 235.819843 178.426013 
L 215.49561 191.374198 
L 195.171377 173.570181 
L 174.847143 169.328652 
L 154.52291 168.978783 
L 134.198677 173.156469 
L 113.874443 165.359622 
L 93.55021 156.843897 
L -67422.091495 148.179199 
z
" clip-path="url(#p614b8b6b00)" style="fill: #008000; fill-opacity: 0.2; stroke: #008000; stroke-opacity: 0.2"/>
   </g>
   <g id="line2d_11">
    <path d="M -1 147.183313 
L 93.55021 147.183547 
L 113.874443 147.09987 
L 134.198677 147.06832 
L 154.52291 147.104573 
L 174.847143 147.077489 
L 195.171377 147.052672 
L 215.49561 145.305156 
L 235.819843 145.077157 
L 256.144077 144.140308 
L 276.46831 143.908543 
L 296.792543 143.658741 
L 317.116777 142.499373 
L 337.44101 140.931744 
L 357.765243 137.611506 
L 378.089477 134.141271 
L 398.41371 127.500731 
L 418.737943 107.921154 
L 439.062177 103.711138 
L 459.38641 97.457644 
L 479.710643 89.652508 
L 500.034877 79.034678 
L 520.35911 66.178658 
L 540.683343 52.071476 
" clip-path="url(#p614b8b6b00)" style="fill: none; stroke: #8c613c; stroke-width: 1.5; stroke-linecap: round"/>
   </g>
   <g id="line2d_12">
    <path d="M -1 149.296554 
L 93.55021 149.296736 
L 113.874443 149.224788 
L 134.198677 149.151352 
L 154.52291 149.147184 
L 174.847143 149.157973 
L 195.171377 147.200859 
L 215.49561 147.104125 
L 235.819843 147.01918 
L 256.144077 146.933219 
L 276.46831 146.566788 
L 296.792543 145.920257 
L 317.116777 142.490424 
L 337.44101 139.998668 
L 357.765243 136.052094 
L 378.089477 130.158456 
L 398.41371 121.237241 
L 418.737943 100.223645 
L 439.062177 100.656966 
L 459.38641 97.649439 
L 479.710643 89.365444 
L 500.034877 78.300226 
L 520.35911 60.717871 
L 540.683343 41.541883 
" clip-path="url(#p614b8b6b00)" style="fill: none; stroke: #6c3baa; stroke-width: 1.5; stroke-linecap: round"/>
   </g>
   <g id="line2d_13">
    <path d="M -1 213.945592 
L 93.55021 213.945549 
L 113.874443 213.709323 
L 134.198677 214.274337 
L 154.52291 214.048541 
L 174.847143 210.292308 
L 195.171377 210.572439 
L 215.49561 210.216774 
L 235.819843 209.769516 
L 256.144077 209.553785 
L 276.46831 208.498207 
L 296.792543 207.758029 
L 317.116777 205.357059 
L 337.44101 201.633689 
L 357.765243 198.499873 
L 378.089477 178.606241 
L 398.41371 176.4034 
L 418.737943 161.871625 
L 439.062177 154.536592 
L 459.38641 146.237912 
L 479.710643 136.806247 
L 500.034877 124.506548 
L 520.35911 110.962658 
L 540.683343 96.927848 
" clip-path="url(#p614b8b6b00)" style="fill: none; stroke: #dc7ec0; stroke-width: 1.5; stroke-linecap: round"/>
   </g>
   <g id="line2d_14">
    <path d="M -1 166.374631 
L 93.55021 166.374595 
L 113.874443 166.410365 
L 134.198677 166.395103 
L 154.52291 165.420054 
L 174.847143 165.408468 
L 195.171377 165.398902 
L 215.49561 165.295442 
L 235.819843 165.276408 
L 256.144077 165.216908 
L 276.46831 165.094401 
L 296.792543 164.847434 
L 317.116777 164.435134 
L 337.44101 163.274519 
L 357.765243 160.730041 
L 378.089477 159.87011 
L 398.41371 158.109545 
L 418.737943 154.992937 
L 439.062177 133.161303 
L 459.38641 129.079803 
L 479.710643 116.44898 
L 500.034877 102.420015 
L 520.35911 87.652889 
L 540.683343 73.171361 
" clip-path="url(#p614b8b6b00)" style="fill: none; stroke: #4878d0; stroke-width: 1.5; stroke-linecap: round"/>
   </g>
   <g id="line2d_15">
    <path d="M -1 166.114854 
L 93.55021 166.114869 
L 113.874443 165.880196 
L 134.198677 166.087347 
L 154.52291 165.492221 
L 174.847143 165.485145 
L 195.171377 165.473021 
L 215.49561 165.359672 
L 235.819843 165.28442 
L 256.144077 165.246889 
L 276.46831 165.140139 
L 296.792543 164.872009 
L 317.116777 164.452023 
L 337.44101 163.265357 
L 357.765243 160.720627 
L 378.089477 159.703627 
L 398.41371 158.030213 
L 418.737943 155.093512 
L 439.062177 132.967147 
L 459.38641 129.104826 
L 479.710643 116.56539 
L 500.034877 102.582193 
L 520.35911 87.866172 
L 540.683343 73.460639 
" clip-path="url(#p614b8b6b00)" style="fill: none; stroke: #ee854a; stroke-width: 1.5; stroke-linecap: round"/>
   </g>
   <g id="line2d_16">
    <path d="M -1 217.873133 
L 93.55021 217.873198 
L 113.874443 217.891186 
L 134.198677 217.837265 
L 154.52291 217.832136 
L 174.847143 217.768125 
L 195.171377 215.658165 
L 215.49561 215.033448 
L 235.819843 214.434366 
L 256.144077 208.918685 
L 276.46831 207.801078 
L 296.792543 206.3134 
L 317.116777 205.20466 
L 337.44101 199.905088 
L 357.765243 196.778517 
L 378.089477 190.410563 
L 398.41371 184.683388 
L 418.737943 178.487682 
L 439.062177 168.824936 
L 459.38641 163.832574 
L 479.710643 152.940539 
L 500.034877 139.860672 
L 520.35911 125.836225 
L 540.683343 111.167527 
" clip-path="url(#p614b8b6b00)" style="fill: none; stroke: #d65f5f; stroke-width: 1.5; stroke-linecap: round"/>
   </g>
   <g id="line2d_17">
    <path d="M -1 163.400919 
L 93.55021 163.411478 
L 113.874443 175.720654 
L 134.198677 182.480416 
L 154.52291 178.234814 
L 174.847143 180.264822 
L 195.171377 185.312069 
L 215.49561 195.817877 
L 235.819843 188.144295 
L 256.144077 179.252569 
L 276.46831 183.876983 
L 296.792543 185.682155 
L 317.116777 183.289275 
L 337.44101 178.929567 
L 357.765243 174.003711 
L 378.089477 168.334113 
L 398.41371 163.758489 
L 418.737943 158.295868 
L 439.062177 149.212983 
L 459.38641 137.434188 
L 479.710643 126.646336 
L 500.034877 114.691807 
L 520.35911 99.963245 
L 540.683343 87.7688 
" clip-path="url(#p614b8b6b00)" style="fill: none; stroke: #008000; stroke-width: 1.5; stroke-linecap: round"/>
   </g>
   <g id="line2d_18"/>
   <g id="line2d_19"/>
   <g id="line2d_20"/>
   <g id="line2d_21"/>
   <g id="line2d_22"/>
   <g id="line2d_23"/>
   <g id="line2d_24"/>
   <g id="patch_3">
    <path d="M 71.193553 226.836 
L 71.193553 31.92 
" style="fill: none; stroke: #cccccc; stroke-width: 1.25; stroke-linejoin: miter; stroke-linecap: square"/>
   </g>
   <g id="patch_4">
    <path d="M 563.04 226.836 
L 563.04 31.92 
" style="fill: none; stroke: #cccccc; stroke-width: 1.25; stroke-linejoin: miter; stroke-linecap: square"/>
   </g>
   <g id="patch_5">
    <path d="M 71.193553 226.836 
L 563.04 226.836 
" style="fill: none; stroke: #cccccc; stroke-width: 1.25; stroke-linejoin: miter; stroke-linecap: square"/>
   </g>
   <g id="patch_6">
    <path d="M 71.193553 31.92 
L 563.04 31.92 
" style="fill: none; stroke: #cccccc; stroke-width: 1.25; stroke-linejoin: miter; stroke-linecap: square"/>
   </g>
   <g id="text_13">
    <!-- osu_latency CPU 128 Nodes -->
    <g style="fill: #262626" transform="translate(205.385527 25.92) scale(0.16 -0.16)">
     <defs>
      <path id="DejaVuSans-5f" d="M 3263 -1063 
L 3263 -1509 
L -63 -1509 
L -63 -1063 
L 3263 -1063 
z
" transform="scale(0.015625)"/>
      <path id="DejaVuSans-43" d="M 4122 4306 
L 4122 3641 
Q 3803 3938 3442 4084 
Q 3081 4231 2675 4231 
Q 1875 4231 1450 3742 
Q 1025 3253 1025 2328 
Q 1025 1406 1450 917 
Q 1875 428 2675 428 
Q 3081 428 3442 575 
Q 3803 722 4122 1019 
L 4122 359 
Q 3791 134 3420 21 
Q 3050 -91 2638 -91 
Q 1578 -91 968 557 
Q 359 1206 359 2328 
Q 359 3453 968 4101 
Q 1578 4750 2638 4750 
Q 3056 4750 3426 4639 
Q 3797 4528 4122 4306 
z
" transform="scale(0.015625)"/>
      <path id="DejaVuSans-50" d="M 1259 4147 
L 1259 2394 
L 2053 2394 
Q 2494 2394 2734 2622 
Q 2975 2850 2975 3272 
Q 2975 3691 2734 3919 
Q 2494 4147 2053 4147 
L 1259 4147 
z
M 628 4666 
L 2053 4666 
Q 2838 4666 3239 4311 
Q 3641 3956 3641 3272 
Q 3641 2581 3239 2228 
Q 2838 1875 2053 1875 
L 1259 1875 
L 1259 0 
L 628 0 
L 628 4666 
z
" transform="scale(0.015625)"/>
      <path id="DejaVuSans-55" d="M 556 4666 
L 1191 4666 
L 1191 1831 
Q 1191 1081 1462 751 
Q 1734 422 2344 422 
Q 2950 422 3222 751 
Q 3494 1081 3494 1831 
L 3494 4666 
L 4128 4666 
L 4128 1753 
Q 4128 841 3676 375 
Q 3225 -91 2344 -91 
Q 1459 -91 1007 375 
Q 556 841 556 1753 
L 556 4666 
z
" transform="scale(0.015625)"/>
      <path id="DejaVuSans-38" d="M 2034 2216 
Q 1584 2216 1326 1975 
Q 1069 1734 1069 1313 
Q 1069 891 1326 650 
Q 1584 409 2034 409 
Q 2484 409 2743 651 
Q 3003 894 3003 1313 
Q 3003 1734 2745 1975 
Q 2488 2216 2034 2216 
z
M 1403 2484 
Q 997 2584 770 2862 
Q 544 3141 544 3541 
Q 544 4100 942 4425 
Q 1341 4750 2034 4750 
Q 2731 4750 3128 4425 
Q 3525 4100 3525 3541 
Q 3525 3141 3298 2862 
Q 3072 2584 2669 2484 
Q 3125 2378 3379 2068 
Q 3634 1759 3634 1313 
Q 3634 634 3220 271 
Q 2806 -91 2034 -91 
Q 1263 -91 848 271 
Q 434 634 434 1313 
Q 434 1759 690 2068 
Q 947 2378 1403 2484 
z
M 1172 3481 
Q 1172 3119 1398 2916 
Q 1625 2713 2034 2713 
Q 2441 2713 2670 2916 
Q 2900 3119 2900 3481 
Q 2900 3844 2670 4047 
Q 2441 4250 2034 4250 
Q 1625 4250 1398 4047 
Q 1172 3844 1172 3481 
z
" transform="scale(0.015625)"/>
      <path id="DejaVuSans-4e" d="M 628 4666 
L 1478 4666 
L 3547 763 
L 3547 4666 
L 4159 4666 
L 4159 0 
L 3309 0 
L 1241 3903 
L 1241 0 
L 628 0 
L 628 4666 
z
" transform="scale(0.015625)"/>
      <path id="DejaVuSans-64" d="M 2906 2969 
L 2906 4863 
L 3481 4863 
L 3481 0 
L 2906 0 
L 2906 525 
Q 2725 213 2448 61 
Q 2172 -91 1784 -91 
Q 1150 -91 751 415 
Q 353 922 353 1747 
Q 353 2572 751 3078 
Q 1150 3584 1784 3584 
Q 2172 3584 2448 3432 
Q 2725 3281 2906 2969 
z
M 947 1747 
Q 947 1113 1208 752 
Q 1469 391 1925 391 
Q 2381 391 2643 752 
Q 2906 1113 2906 1747 
Q 2906 2381 2643 2742 
Q 2381 3103 1925 3103 
Q 1469 3103 1208 2742 
Q 947 2381 947 1747 
z
" transform="scale(0.015625)"/>
     </defs>
     <use xlink:href="#DejaVuSans-6f"/>
     <use xlink:href="#DejaVuSans-73" x="61.181641"/>
     <use xlink:href="#DejaVuSans-75" x="113.28125"/>
     <use xlink:href="#DejaVuSans-5f" x="176.660156"/>
     <use xlink:href="#DejaVuSans-6c" x="226.660156"/>
     <use xlink:href="#DejaVuSans-61" x="254.443359"/>
     <use xlink:href="#DejaVuSans-74" x="315.722656"/>
     <use xlink:href="#DejaVuSans-65" x="354.931641"/>
     <use xlink:href="#DejaVuSans-6e" x="416.455078"/>
     <use xlink:href="#DejaVuSans-63" x="479.833984"/>
     <use xlink:href="#DejaVuSans-79" x="534.814453"/>
     <use xlink:href="#DejaVuSans-20" x="593.994141"/>
     <use xlink:href="#DejaVuSans-43" x="625.78125"/>
     <use xlink:href="#DejaVuSans-50" x="695.605469"/>
     <use xlink:href="#DejaVuSans-55" x="755.908203"/>
     <use xlink:href="#DejaVuSans-20" x="829.101562"/>
     <use xlink:href="#DejaVuSans-31" x="860.888672"/>
     <use xlink:href="#DejaVuSans-32" x="924.511719"/>
     <use xlink:href="#DejaVuSans-38" x="988.134766"/>
     <use xlink:href="#DejaVuSans-20" x="1051.757812"/>
     <use xlink:href="#DejaVuSans-4e" x="1083.544922"/>
     <use xlink:href="#DejaVuSans-6f" x="1158.349609"/>
     <use xlink:href="#DejaVuSans-64" x="1219.53125"/>
     <use xlink:href="#DejaVuSans-65" x="1283.007812"/>
     <use xlink:href="#DejaVuSans-73" x="1344.53125"/>
    </g>
   </g>
   <g id="legend_1">
    <g id="patch_7">
     <path d="M 78.893553 155.883125 
L 337.821522 155.883125 
Q 340.021522 155.883125 340.021522 153.683125 
L 340.021522 39.62 
Q 340.021522 37.42 337.821522 37.42 
L 78.893553 37.42 
Q 76.693553 37.42 76.693553 39.62 
L 76.693553 153.683125 
Q 76.693553 155.883125 78.893553 155.883125 
z
" style="fill: #ffffff; opacity: 0.8; stroke: #cccccc; stroke-linejoin: miter"/>
    </g>
    <g id="line2d_25">
     <path d="M 81.093553 46.328281 
L 92.093553 46.328281 
L 103.093553 46.328281 
" style="fill: none; stroke: #8c613c; stroke-width: 1.5; stroke-linecap: round"/>
    </g>
    <g id="text_14">
     <!-- google/gke/cpu/osu_latency -->
     <g style="fill: #262626" transform="translate(111.893553 50.178281) scale(0.11 -0.11)">
      <defs>
       <path id="DejaVuSans-2f" d="M 1625 4666 
L 2156 4666 
L 531 -594 
L 0 -594 
L 1625 4666 
z
" transform="scale(0.015625)"/>
       <path id="DejaVuSans-6b" d="M 581 4863 
L 1159 4863 
L 1159 1991 
L 2875 3500 
L 3609 3500 
L 1753 1863 
L 3688 0 
L 2938 0 
L 1159 1709 
L 1159 0 
L 581 0 
L 581 4863 
z
" transform="scale(0.015625)"/>
       <path id="DejaVuSans-70" d="M 1159 525 
L 1159 -1331 
L 581 -1331 
L 581 3500 
L 1159 3500 
L 1159 2969 
Q 1341 3281 1617 3432 
Q 1894 3584 2278 3584 
Q 2916 3584 3314 3078 
Q 3713 2572 3713 1747 
Q 3713 922 3314 415 
Q 2916 -91 2278 -91 
Q 1894 -91 1617 61 
Q 1341 213 1159 525 
z
M 3116 1747 
Q 3116 2381 2855 2742 
Q 2594 3103 2138 3103 
Q 1681 3103 1420 2742 
Q 1159 2381 1159 1747 
Q 1159 1113 1420 752 
Q 1681 391 2138 391 
Q 2594 391 2855 752 
Q 3116 1113 3116 1747 
z
" transform="scale(0.015625)"/>
      </defs>
      <use xlink:href="#DejaVuSans-67"/>
      <use xlink:href="#DejaVuSans-6f" x="63.476562"/>
      <use xlink:href="#DejaVuSans-6f" x="124.658203"/>
      <use xlink:href="#DejaVuSans-67" x="185.839844"/>
      <use xlink:href="#DejaVuSans-6c" x="249.316406"/>
      <use xlink:href="#DejaVuSans-65" x="277.099609"/>
      <use xlink:href="#DejaVuSans-2f" x="338.623047"/>
      <use xlink:href="#DejaVuSans-67" x="372.314453"/>
      <use xlink:href="#DejaVuSans-6b" x="435.791016"/>
      <use xlink:href="#DejaVuSans-65" x="490.076172"/>
      <use xlink:href="#DejaVuSans-2f" x="551.599609"/>
      <use xlink:href="#DejaVuSans-63" x="585.291016"/>
      <use xlink:href="#DejaVuSans-70" x="640.271484"/>
      <use xlink:href="#DejaVuSans-75" x="703.748047"/>
      <use xlink:href="#DejaVuSans-2f" x="767.126953"/>
      <use xlink:href="#DejaVuSans-6f" x="800.818359"/>
      <use xlink:href="#DejaVuSans-73" x="862"/>
      <use xlink:href="#DejaVuSans-75" x="914.099609"/>
      <use xlink:href="#DejaVuSans-5f" x="977.478516"/>
      <use xlink:href="#DejaVuSans-6c" x="1027.478516"/>
      <use xlink:href="#DejaVuSans-61" x="1055.261719"/>
      <use xlink:href="#DejaVuSans-74" x="1116.541016"/>
      <use xlink:href="#DejaVuSans-65" x="1155.75"/>
      <use xlink:href="#DejaVuSans-6e" x="1217.273438"/>
      <use xlink:href="#DejaVuSans-63" x="1280.652344"/>
      <use xlink:href="#DejaVuSans-79" x="1335.632812"/>
     </g>
    </g>
    <g id="line2d_26">
     <path d="M 81.093553 62.780156 
L 92.093553 62.780156 
L 103.093553 62.780156 
" style="fill: none; stroke: #6c3baa; stroke-width: 1.5; stroke-linecap: round"/>
    </g>
    <g id="text_15">
     <!-- google/compute-engine/cpu/osu_latency -->
     <g style="fill: #262626" transform="translate(111.893553 66.630156) scale(0.11 -0.11)">
      <defs>
       <path id="DejaVuSans-6d" d="M 3328 2828 
Q 3544 3216 3844 3400 
Q 4144 3584 4550 3584 
Q 5097 3584 5394 3201 
Q 5691 2819 5691 2113 
L 5691 0 
L 5113 0 
L 5113 2094 
Q 5113 2597 4934 2840 
Q 4756 3084 4391 3084 
Q 3944 3084 3684 2787 
Q 3425 2491 3425 1978 
L 3425 0 
L 2847 0 
L 2847 2094 
Q 2847 2600 2669 2842 
Q 2491 3084 2119 3084 
Q 1678 3084 1418 2786 
Q 1159 2488 1159 1978 
L 1159 0 
L 581 0 
L 581 3500 
L 1159 3500 
L 1159 2956 
Q 1356 3278 1631 3431 
Q 1906 3584 2284 3584 
Q 2666 3584 2933 3390 
Q 3200 3197 3328 2828 
z
" transform="scale(0.015625)"/>
       <path id="DejaVuSans-2d" d="M 313 2009 
L 1997 2009 
L 1997 1497 
L 313 1497 
L 313 2009 
z
" transform="scale(0.015625)"/>
      </defs>
      <use xlink:href="#DejaVuSans-67"/>
      <use xlink:href="#DejaVuSans-6f" x="63.476562"/>
      <use xlink:href="#DejaVuSans-6f" x="124.658203"/>
      <use xlink:href="#DejaVuSans-67" x="185.839844"/>
      <use xlink:href="#DejaVuSans-6c" x="249.316406"/>
      <use xlink:href="#DejaVuSans-65" x="277.099609"/>
      <use xlink:href="#DejaVuSans-2f" x="338.623047"/>
      <use xlink:href="#DejaVuSans-63" x="372.314453"/>
      <use xlink:href="#DejaVuSans-6f" x="427.294922"/>
      <use xlink:href="#DejaVuSans-6d" x="488.476562"/>
      <use xlink:href="#DejaVuSans-70" x="585.888672"/>
      <use xlink:href="#DejaVuSans-75" x="649.365234"/>
      <use xlink:href="#DejaVuSans-74" x="712.744141"/>
      <use xlink:href="#DejaVuSans-65" x="751.953125"/>
      <use xlink:href="#DejaVuSans-2d" x="813.476562"/>
      <use xlink:href="#DejaVuSans-65" x="849.560547"/>
      <use xlink:href="#DejaVuSans-6e" x="911.083984"/>
      <use xlink:href="#DejaVuSans-67" x="974.462891"/>
      <use xlink:href="#DejaVuSans-69" x="1037.939453"/>
      <use xlink:href="#DejaVuSans-6e" x="1065.722656"/>
      <use xlink:href="#DejaVuSans-65" x="1129.101562"/>
      <use xlink:href="#DejaVuSans-2f" x="1190.625"/>
      <use xlink:href="#DejaVuSans-63" x="1224.316406"/>
      <use xlink:href="#DejaVuSans-70" x="1279.296875"/>
      <use xlink:href="#DejaVuSans-75" x="1342.773438"/>
      <use xlink:href="#DejaVuSans-2f" x="1406.152344"/>
      <use xlink:href="#DejaVuSans-6f" x="1439.84375"/>
      <use xlink:href="#DejaVuSans-73" x="1501.025391"/>
      <use xlink:href="#DejaVuSans-75" x="1553.125"/>
      <use xlink:href="#DejaVuSans-5f" x="1616.503906"/>
      <use xlink:href="#DejaVuSans-6c" x="1666.503906"/>
      <use xlink:href="#DejaVuSans-61" x="1694.287109"/>
      <use xlink:href="#DejaVuSans-74" x="1755.566406"/>
      <use xlink:href="#DejaVuSans-65" x="1794.775391"/>
      <use xlink:href="#DejaVuSans-6e" x="1856.298828"/>
      <use xlink:href="#DejaVuSans-63" x="1919.677734"/>
      <use xlink:href="#DejaVuSans-79" x="1974.658203"/>
     </g>
    </g>
    <g id="line2d_27">
     <path d="M 81.093553 79.232031 
L 92.093553 79.232031 
L 103.093553 79.232031 
" style="fill: none; stroke: #dc7ec0; stroke-width: 1.5; stroke-linecap: round"/>
    </g>
    <g id="text_16">
     <!-- on-premises/a/cpu/osu_latency -->
     <g style="fill: #262626" transform="translate(111.893553 83.082031) scale(0.11 -0.11)">
      <defs>
       <path id="DejaVuSans-72" d="M 2631 2963 
Q 2534 3019 2420 3045 
Q 2306 3072 2169 3072 
Q 1681 3072 1420 2755 
Q 1159 2438 1159 1844 
L 1159 0 
L 581 0 
L 581 3500 
L 1159 3500 
L 1159 2956 
Q 1341 3275 1631 3429 
Q 1922 3584 2338 3584 
Q 2397 3584 2469 3576 
Q 2541 3569 2628 3553 
L 2631 2963 
z
" transform="scale(0.015625)"/>
      </defs>
      <use xlink:href="#DejaVuSans-6f"/>
      <use xlink:href="#DejaVuSans-6e" x="61.181641"/>
      <use xlink:href="#DejaVuSans-2d" x="124.560547"/>
      <use xlink:href="#DejaVuSans-70" x="160.644531"/>
      <use xlink:href="#DejaVuSans-72" x="224.121094"/>
      <use xlink:href="#DejaVuSans-65" x="262.984375"/>
      <use xlink:href="#DejaVuSans-6d" x="324.507812"/>
      <use xlink:href="#DejaVuSans-69" x="421.919922"/>
      <use xlink:href="#DejaVuSans-73" x="449.703125"/>
      <use xlink:href="#DejaVuSans-65" x="501.802734"/>
      <use xlink:href="#DejaVuSans-73" x="563.326172"/>
      <use xlink:href="#DejaVuSans-2f" x="615.425781"/>
      <use xlink:href="#DejaVuSans-61" x="649.117188"/>
      <use xlink:href="#DejaVuSans-2f" x="710.396484"/>
      <use xlink:href="#DejaVuSans-63" x="744.087891"/>
      <use xlink:href="#DejaVuSans-70" x="799.068359"/>
      <use xlink:href="#DejaVuSans-75" x="862.544922"/>
      <use xlink:href="#DejaVuSans-2f" x="925.923828"/>
      <use xlink:href="#DejaVuSans-6f" x="959.615234"/>
      <use xlink:href="#DejaVuSans-73" x="1020.796875"/>
      <use xlink:href="#DejaVuSans-75" x="1072.896484"/>
      <use xlink:href="#DejaVuSans-5f" x="1136.275391"/>
      <use xlink:href="#DejaVuSans-6c" x="1186.275391"/>
      <use xlink:href="#DejaVuSans-61" x="1214.058594"/>
      <use xlink:href="#DejaVuSans-74" x="1275.337891"/>
      <use xlink:href="#DejaVuSans-65" x="1314.546875"/>
      <use xlink:href="#DejaVuSans-6e" x="1376.070312"/>
      <use xlink:href="#DejaVuSans-63" x="1439.449219"/>
      <use xlink:href="#DejaVuSans-79" x="1494.429688"/>
     </g>
    </g>
    <g id="line2d_28">
     <path d="M 81.093553 95.683906 
L 92.093553 95.683906 
L 103.093553 95.683906 
" style="fill: none; stroke: #4878d0; stroke-width: 1.5; stroke-linecap: round"/>
    </g>
    <g id="text_17">
     <!-- aws/eks/cpu/osu_latency -->
     <g style="fill: #262626" transform="translate(111.893553 99.533906) scale(0.11 -0.11)">
      <defs>
       <path id="DejaVuSans-77" d="M 269 3500 
L 844 3500 
L 1563 769 
L 2278 3500 
L 2956 3500 
L 3675 769 
L 4391 3500 
L 4966 3500 
L 4050 0 
L 3372 0 
L 2619 2869 
L 1863 0 
L 1184 0 
L 269 3500 
z
" transform="scale(0.015625)"/>
      </defs>
      <use xlink:href="#DejaVuSans-61"/>
      <use xlink:href="#DejaVuSans-77" x="61.279297"/>
      <use xlink:href="#DejaVuSans-73" x="143.066406"/>
      <use xlink:href="#DejaVuSans-2f" x="195.166016"/>
      <use xlink:href="#DejaVuSans-65" x="228.857422"/>
      <use xlink:href="#DejaVuSans-6b" x="290.380859"/>
      <use xlink:href="#DejaVuSans-73" x="348.291016"/>
      <use xlink:href="#DejaVuSans-2f" x="400.390625"/>
      <use xlink:href="#DejaVuSans-63" x="434.082031"/>
      <use xlink:href="#DejaVuSans-70" x="489.0625"/>
      <use xlink:href="#DejaVuSans-75" x="552.539062"/>
      <use xlink:href="#DejaVuSans-2f" x="615.917969"/>
      <use xlink:href="#DejaVuSans-6f" x="649.609375"/>
      <use xlink:href="#DejaVuSans-73" x="710.791016"/>
      <use xlink:href="#DejaVuSans-75" x="762.890625"/>
      <use xlink:href="#DejaVuSans-5f" x="826.269531"/>
      <use xlink:href="#DejaVuSans-6c" x="876.269531"/>
      <use xlink:href="#DejaVuSans-61" x="904.052734"/>
      <use xlink:href="#DejaVuSans-74" x="965.332031"/>
      <use xlink:href="#DejaVuSans-65" x="1004.541016"/>
      <use xlink:href="#DejaVuSans-6e" x="1066.064453"/>
      <use xlink:href="#DejaVuSans-63" x="1129.443359"/>
      <use xlink:href="#DejaVuSans-79" x="1184.423828"/>
     </g>
    </g>
    <g id="line2d_29">
     <path d="M 81.093553 112.135781 
L 92.093553 112.135781 
L 103.093553 112.135781 
" style="fill: none; stroke: #ee854a; stroke-width: 1.5; stroke-linecap: round"/>
    </g>
    <g id="text_18">
     <!-- aws/parallel-cluster/cpu/osu_latency -->
     <g style="fill: #262626" transform="translate(111.893553 115.985781) scale(0.11 -0.11)">
      <use xlink:href="#DejaVuSans-61"/>
      <use xlink:href="#DejaVuSans-77" x="61.279297"/>
      <use xlink:href="#DejaVuSans-73" x="143.066406"/>
      <use xlink:href="#DejaVuSans-2f" x="195.166016"/>
      <use xlink:href="#DejaVuSans-70" x="228.857422"/>
      <use xlink:href="#DejaVuSans-61" x="292.333984"/>
      <use xlink:href="#DejaVuSans-72" x="353.613281"/>
      <use xlink:href="#DejaVuSans-61" x="394.726562"/>
      <use xlink:href="#DejaVuSans-6c" x="456.005859"/>
      <use xlink:href="#DejaVuSans-6c" x="483.789062"/>
      <use xlink:href="#DejaVuSans-65" x="511.572266"/>
      <use xlink:href="#DejaVuSans-6c" x="573.095703"/>
      <use xlink:href="#DejaVuSans-2d" x="600.878906"/>
      <use xlink:href="#DejaVuSans-63" x="636.962891"/>
      <use xlink:href="#DejaVuSans-6c" x="691.943359"/>
      <use xlink:href="#DejaVuSans-75" x="719.726562"/>
      <use xlink:href="#DejaVuSans-73" x="783.105469"/>
      <use xlink:href="#DejaVuSans-74" x="835.205078"/>
      <use xlink:href="#DejaVuSans-65" x="874.414062"/>
      <use xlink:href="#DejaVuSans-72" x="935.9375"/>
      <use xlink:href="#DejaVuSans-2f" x="977.050781"/>
      <use xlink:href="#DejaVuSans-63" x="1010.742188"/>
      <use xlink:href="#DejaVuSans-70" x="1065.722656"/>
      <use xlink:href="#DejaVuSans-75" x="1129.199219"/>
      <use xlink:href="#DejaVuSans-2f" x="1192.578125"/>
      <use xlink:href="#DejaVuSans-6f" x="1226.269531"/>
      <use xlink:href="#DejaVuSans-73" x="1287.451172"/>
      <use xlink:href="#DejaVuSans-75" x="1339.550781"/>
      <use xlink:href="#DejaVuSans-5f" x="1402.929688"/>
      <use xlink:href="#DejaVuSans-6c" x="1452.929688"/>
      <use xlink:href="#DejaVuSans-61" x="1480.712891"/>
      <use xlink:href="#DejaVuSans-74" x="1541.992188"/>
      <use xlink:href="#DejaVuSans-65" x="1581.201172"/>
      <use xlink:href="#DejaVuSans-6e" x="1642.724609"/>
      <use xlink:href="#DejaVuSans-63" x="1706.103516"/>
      <use xlink:href="#DejaVuSans-79" x="1761.083984"/>
     </g>
    </g>
    <g id="line2d_30">
     <path d="M 81.093553 128.587656 
L 92.093553 128.587656 
L 103.093553 128.587656 
" style="fill: none; stroke: #d65f5f; stroke-width: 1.5; stroke-linecap: round"/>
    </g>
    <g id="text_19">
     <!-- azure/cyclecloud/cpu/osu_latency -->
     <g style="fill: #262626" transform="translate(111.893553 132.437656) scale(0.11 -0.11)">
      <use xlink:href="#DejaVuSans-61"/>
      <use xlink:href="#DejaVuSans-7a" x="61.279297"/>
      <use xlink:href="#DejaVuSans-75" x="113.769531"/>
      <use xlink:href="#DejaVuSans-72" x="177.148438"/>
      <use xlink:href="#DejaVuSans-65" x="216.011719"/>
      <use xlink:href="#DejaVuSans-2f" x="277.535156"/>
      <use xlink:href="#DejaVuSans-63" x="311.226562"/>
      <use xlink:href="#DejaVuSans-79" x="366.207031"/>
      <use xlink:href="#DejaVuSans-63" x="425.386719"/>
      <use xlink:href="#DejaVuSans-6c" x="480.367188"/>
      <use xlink:href="#DejaVuSans-65" x="508.150391"/>
      <use xlink:href="#DejaVuSans-63" x="569.673828"/>
      <use xlink:href="#DejaVuSans-6c" x="624.654297"/>
      <use xlink:href="#DejaVuSans-6f" x="652.4375"/>
      <use xlink:href="#DejaVuSans-75" x="713.619141"/>
      <use xlink:href="#DejaVuSans-64" x="776.998047"/>
      <use xlink:href="#DejaVuSans-2f" x="840.474609"/>
      <use xlink:href="#DejaVuSans-63" x="874.166016"/>
      <use xlink:href="#DejaVuSans-70" x="929.146484"/>
      <use xlink:href="#DejaVuSans-75" x="992.623047"/>
      <use xlink:href="#DejaVuSans-2f" x="1056.001953"/>
      <use xlink:href="#DejaVuSans-6f" x="1089.693359"/>
      <use xlink:href="#DejaVuSans-73" x="1150.875"/>
      <use xlink:href="#DejaVuSans-75" x="1202.974609"/>
      <use xlink:href="#DejaVuSans-5f" x="1266.353516"/>
      <use xlink:href="#DejaVuSans-6c" x="1316.353516"/>
      <use xlink:href="#DejaVuSans-61" x="1344.136719"/>
      <use xlink:href="#DejaVuSans-74" x="1405.416016"/>
      <use xlink:href="#DejaVuSans-65" x="1444.625"/>
      <use xlink:href="#DejaVuSans-6e" x="1506.148438"/>
      <use xlink:href="#DejaVuSans-63" x="1569.527344"/>
      <use xlink:href="#DejaVuSans-79" x="1624.507812"/>
     </g>
    </g>
    <g id="line2d_31">
     <path d="M 81.093553 145.039531 
L 92.093553 145.039531 
L 103.093553 145.039531 
" style="fill: none; stroke: #008000; stroke-width: 1.5; stroke-linecap: round"/>
    </g>
    <g id="text_20">
     <!-- azure/aks/cpu/osu_latency -->
     <g style="fill: #262626" transform="translate(111.893553 148.889531) scale(0.11 -0.11)">
      <use xlink:href="#DejaVuSans-61"/>
      <use xlink:href="#DejaVuSans-7a" x="61.279297"/>
      <use xlink:href="#DejaVuSans-75" x="113.769531"/>
      <use xlink:href="#DejaVuSans-72" x="177.148438"/>
      <use xlink:href="#DejaVuSans-65" x="216.011719"/>
      <use xlink:href="#DejaVuSans-2f" x="277.535156"/>
      <use xlink:href="#DejaVuSans-61" x="311.226562"/>
      <use xlink:href="#DejaVuSans-6b" x="372.505859"/>
      <use xlink:href="#DejaVuSans-73" x="430.416016"/>
      <use xlink:href="#DejaVuSans-2f" x="482.515625"/>
      <use xlink:href="#DejaVuSans-63" x="516.207031"/>
      <use xlink:href="#DejaVuSans-70" x="571.1875"/>
      <use xlink:href="#DejaVuSans-75" x="634.664062"/>
      <use xlink:href="#DejaVuSans-2f" x="698.042969"/>
      <use xlink:href="#DejaVuSans-6f" x="731.734375"/>
      <use xlink:href="#DejaVuSans-73" x="792.916016"/>
      <use xlink:href="#DejaVuSans-75" x="845.015625"/>
      <use xlink:href="#DejaVuSans-5f" x="908.394531"/>
      <use xlink:href="#DejaVuSans-6c" x="958.394531"/>
      <use xlink:href="#DejaVuSans-61" x="986.177734"/>
      <use xlink:href="#DejaVuSans-74" x="1047.457031"/>
      <use xlink:href="#DejaVuSans-65" x="1086.666016"/>
      <use xlink:href="#DejaVuSans-6e" x="1148.189453"/>
      <use xlink:href="#DejaVuSans-63" x="1211.568359"/>
      <use xlink:href="#DejaVuSans-79" x="1266.548828"/>
     </g>
    </g>
   </g>
  </g>
 </g>
 <defs>
  <clipPath id="p614b8b6b00">
   <rect x="71.193553" y="31.92" width="491.846447" height="194.916"/>
  </clipPath>
 </defs>
</svg>
