<?xml version="1.0" encoding="utf-8" standalone="no"?>
<!DOCTYPE svg PUBLIC "-//W3C//DTD SVG 1.1//EN"
  "http://www.w3.org/Graphics/SVG/1.1/DTD/svg11.dtd">
<svg xmlns:xlink="http://www.w3.org/1999/xlink" width="576pt" height="288pt" viewBox="0 0 576 288" xmlns="http://www.w3.org/2000/svg" version="1.1">
 <metadata>
  <rdf:RDF xmlns:dc="http://purl.org/dc/elements/1.1/" xmlns:cc="http://creativecommons.org/ns#" xmlns:rdf="http://www.w3.org/1999/02/22-rdf-syntax-ns#">
   <cc:Work>
    <dc:type rdf:resource="http://purl.org/dc/dcmitype/StillImage"/>
    <dc:date>2025-02-04T10:13:47.495420</dc:date>
    <dc:format>image/svg+xml</dc:format>
    <dc:creator>
     <cc:Agent>
      <dc:title>Matplotlib v3.8.4, https://matplotlib.org/</dc:title>
     </cc:Agent>
    </dc:creator>
   </cc:Work>
  </rdf:RDF>
 </metadata>
 <defs>
  <style type="text/css">*{stroke-linejoin: round; stroke-linecap: butt}</style>
 </defs>
 <g id="figure_1">
  <g id="patch_1">
   <path d="M 0 288 
L 576 288 
L 576 0 
L 0 0 
z
" style="fill: #ffffff"/>
  </g>
  <g id="axes_1">
   <g id="patch_2">
    <path d="M 71.193553 226.836 
L 563.04 226.836 
L 563.04 31.92 
L 71.193553 31.92 
z
" style="fill: #ffffff"/>
   </g>
   <g id="matplotlib.axis_1">
    <g id="xtick_1">
     <g id="line2d_1">
      <path d="M 126.387868 226.836 
L 126.387868 31.92 
" clip-path="url(#p7cb6ef7cad)" style="fill: none; stroke: #cccccc; stroke-linecap: round"/>
     </g>
     <g id="text_1">
      <!-- $\mathdefault{10^{1}}$ -->
      <g style="fill: #262626" transform="translate(112.307868 248.4935) scale(0.16 -0.16)">
       <defs>
        <path id="DejaVuSans-31" d="M 794 531 
L 1825 531 
L 1825 4091 
L 703 3866 
L 703 4441 
L 1819 4666 
L 2450 4666 
L 2450 531 
L 3481 531 
L 3481 0 
L 794 0 
L 794 531 
z
" transform="scale(0.015625)"/>
        <path id="DejaVuSans-30" d="M 2034 4250 
Q 1547 4250 1301 3770 
Q 1056 3291 1056 2328 
Q 1056 1369 1301 889 
Q 1547 409 2034 409 
Q 2525 409 2770 889 
Q 3016 1369 3016 2328 
Q 3016 3291 2770 3770 
Q 2525 4250 2034 4250 
z
M 2034 4750 
Q 2819 4750 3233 4129 
Q 3647 3509 3647 2328 
Q 3647 1150 3233 529 
Q 2819 -91 2034 -91 
Q 1250 -91 836 529 
Q 422 1150 422 2328 
Q 422 3509 836 4129 
Q 1250 4750 2034 4750 
z
" transform="scale(0.015625)"/>
       </defs>
       <use xlink:href="#DejaVuSans-31" transform="translate(0 0.684375)"/>
       <use xlink:href="#DejaVuSans-30" transform="translate(63.623047 0.684375)"/>
       <use xlink:href="#DejaVuSans-31" transform="translate(128.203125 38.965625) scale(0.7)"/>
      </g>
     </g>
    </g>
    <g id="xtick_2">
     <g id="line2d_2">
      <path d="M 208.906986 226.836 
L 208.906986 31.92 
" clip-path="url(#p7cb6ef7cad)" style="fill: none; stroke: #cccccc; stroke-linecap: round"/>
     </g>
     <g id="text_2">
      <!-- $\mathdefault{10^{2}}$ -->
      <g style="fill: #262626" transform="translate(194.826986 248.4935) scale(0.16 -0.16)">
       <defs>
        <path id="DejaVuSans-32" d="M 1228 531 
L 3431 531 
L 3431 0 
L 469 0 
L 469 531 
Q 828 903 1448 1529 
Q 2069 2156 2228 2338 
Q 2531 2678 2651 2914 
Q 2772 3150 2772 3378 
Q 2772 3750 2511 3984 
Q 2250 4219 1831 4219 
Q 1534 4219 1204 4116 
Q 875 4013 500 3803 
L 500 4441 
Q 881 4594 1212 4672 
Q 1544 4750 1819 4750 
Q 2544 4750 2975 4387 
Q 3406 4025 3406 3419 
Q 3406 3131 3298 2873 
Q 3191 2616 2906 2266 
Q 2828 2175 2409 1742 
Q 1991 1309 1228 531 
z
" transform="scale(0.015625)"/>
       </defs>
       <use xlink:href="#DejaVuSans-31" transform="translate(0 0.765625)"/>
       <use xlink:href="#DejaVuSans-30" transform="translate(63.623047 0.765625)"/>
       <use xlink:href="#DejaVuSans-32" transform="translate(128.203125 39.046875) scale(0.7)"/>
      </g>
     </g>
    </g>
    <g id="xtick_3">
     <g id="line2d_3">
      <path d="M 291.426104 226.836 
L 291.426104 31.92 
" clip-path="url(#p7cb6ef7cad)" style="fill: none; stroke: #cccccc; stroke-linecap: round"/>
     </g>
     <g id="text_3">
      <!-- $\mathdefault{10^{3}}$ -->
      <g style="fill: #262626" transform="translate(277.346104 248.4935) scale(0.16 -0.16)">
       <defs>
        <path id="DejaVuSans-33" d="M 2597 2516 
Q 3050 2419 3304 2112 
Q 3559 1806 3559 1356 
Q 3559 666 3084 287 
Q 2609 -91 1734 -91 
Q 1441 -91 1130 -33 
Q 819 25 488 141 
L 488 750 
Q 750 597 1062 519 
Q 1375 441 1716 441 
Q 2309 441 2620 675 
Q 2931 909 2931 1356 
Q 2931 1769 2642 2001 
Q 2353 2234 1838 2234 
L 1294 2234 
L 1294 2753 
L 1863 2753 
Q 2328 2753 2575 2939 
Q 2822 3125 2822 3475 
Q 2822 3834 2567 4026 
Q 2313 4219 1838 4219 
Q 1578 4219 1281 4162 
Q 984 4106 628 3988 
L 628 4550 
Q 988 4650 1302 4700 
Q 1616 4750 1894 4750 
Q 2613 4750 3031 4423 
Q 3450 4097 3450 3541 
Q 3450 3153 3228 2886 
Q 3006 2619 2597 2516 
z
" transform="scale(0.015625)"/>
       </defs>
       <use xlink:href="#DejaVuSans-31" transform="translate(0 0.765625)"/>
       <use xlink:href="#DejaVuSans-30" transform="translate(63.623047 0.765625)"/>
       <use xlink:href="#DejaVuSans-33" transform="translate(128.203125 39.046875) scale(0.7)"/>
      </g>
     </g>
    </g>
    <g id="xtick_4">
     <g id="line2d_4">
      <path d="M 373.945221 226.836 
L 373.945221 31.92 
" clip-path="url(#p7cb6ef7cad)" style="fill: none; stroke: #cccccc; stroke-linecap: round"/>
     </g>
     <g id="text_4">
      <!-- $\mathdefault{10^{4}}$ -->
      <g style="fill: #262626" transform="translate(359.865221 248.4935) scale(0.16 -0.16)">
       <defs>
        <path id="DejaVuSans-34" d="M 2419 4116 
L 825 1625 
L 2419 1625 
L 2419 4116 
z
M 2253 4666 
L 3047 4666 
L 3047 1625 
L 3713 1625 
L 3713 1100 
L 3047 1100 
L 3047 0 
L 2419 0 
L 2419 1100 
L 313 1100 
L 313 1709 
L 2253 4666 
z
" transform="scale(0.015625)"/>
       </defs>
       <use xlink:href="#DejaVuSans-31" transform="translate(0 0.684375)"/>
       <use xlink:href="#DejaVuSans-30" transform="translate(63.623047 0.684375)"/>
       <use xlink:href="#DejaVuSans-34" transform="translate(128.203125 38.965625) scale(0.7)"/>
      </g>
     </g>
    </g>
    <g id="xtick_5">
     <g id="line2d_5">
      <path d="M 456.464339 226.836 
L 456.464339 31.92 
" clip-path="url(#p7cb6ef7cad)" style="fill: none; stroke: #cccccc; stroke-linecap: round"/>
     </g>
     <g id="text_5">
      <!-- $\mathdefault{10^{5}}$ -->
      <g style="fill: #262626" transform="translate(442.384339 248.4935) scale(0.16 -0.16)">
       <defs>
        <path id="DejaVuSans-35" d="M 691 4666 
L 3169 4666 
L 3169 4134 
L 1269 4134 
L 1269 2991 
Q 1406 3038 1543 3061 
Q 1681 3084 1819 3084 
Q 2600 3084 3056 2656 
Q 3513 2228 3513 1497 
Q 3513 744 3044 326 
Q 2575 -91 1722 -91 
Q 1428 -91 1123 -41 
Q 819 9 494 109 
L 494 744 
Q 775 591 1075 516 
Q 1375 441 1709 441 
Q 2250 441 2565 725 
Q 2881 1009 2881 1497 
Q 2881 1984 2565 2268 
Q 2250 2553 1709 2553 
Q 1456 2553 1204 2497 
Q 953 2441 691 2322 
L 691 4666 
z
" transform="scale(0.015625)"/>
       </defs>
       <use xlink:href="#DejaVuSans-31" transform="translate(0 0.684375)"/>
       <use xlink:href="#DejaVuSans-30" transform="translate(63.623047 0.684375)"/>
       <use xlink:href="#DejaVuSans-35" transform="translate(128.203125 38.965625) scale(0.7)"/>
      </g>
     </g>
    </g>
    <g id="xtick_6">
     <g id="line2d_6">
      <path d="M 538.983457 226.836 
L 538.983457 31.92 
" clip-path="url(#p7cb6ef7cad)" style="fill: none; stroke: #cccccc; stroke-linecap: round"/>
     </g>
     <g id="text_6">
      <!-- $\mathdefault{10^{6}}$ -->
      <g style="fill: #262626" transform="translate(524.903457 248.4935) scale(0.16 -0.16)">
       <defs>
        <path id="DejaVuSans-36" d="M 2113 2584 
Q 1688 2584 1439 2293 
Q 1191 2003 1191 1497 
Q 1191 994 1439 701 
Q 1688 409 2113 409 
Q 2538 409 2786 701 
Q 3034 994 3034 1497 
Q 3034 2003 2786 2293 
Q 2538 2584 2113 2584 
z
M 3366 4563 
L 3366 3988 
Q 3128 4100 2886 4159 
Q 2644 4219 2406 4219 
Q 1781 4219 1451 3797 
Q 1122 3375 1075 2522 
Q 1259 2794 1537 2939 
Q 1816 3084 2150 3084 
Q 2853 3084 3261 2657 
Q 3669 2231 3669 1497 
Q 3669 778 3244 343 
Q 2819 -91 2113 -91 
Q 1303 -91 875 529 
Q 447 1150 447 2328 
Q 447 3434 972 4092 
Q 1497 4750 2381 4750 
Q 2619 4750 2861 4703 
Q 3103 4656 3366 4563 
z
" transform="scale(0.015625)"/>
       </defs>
       <use xlink:href="#DejaVuSans-31" transform="translate(0 0.765625)"/>
       <use xlink:href="#DejaVuSans-30" transform="translate(63.623047 0.765625)"/>
       <use xlink:href="#DejaVuSans-36" transform="translate(128.203125 39.046875) scale(0.7)"/>
      </g>
     </g>
    </g>
    <g id="xtick_7"/>
    <g id="xtick_8"/>
    <g id="xtick_9"/>
    <g id="xtick_10"/>
    <g id="xtick_11"/>
    <g id="xtick_12"/>
    <g id="xtick_13"/>
    <g id="xtick_14"/>
    <g id="xtick_15"/>
    <g id="xtick_16"/>
    <g id="xtick_17"/>
    <g id="xtick_18"/>
    <g id="xtick_19"/>
    <g id="xtick_20"/>
    <g id="xtick_21"/>
    <g id="xtick_22"/>
    <g id="xtick_23"/>
    <g id="xtick_24"/>
    <g id="xtick_25"/>
    <g id="xtick_26"/>
    <g id="xtick_27"/>
    <g id="xtick_28"/>
    <g id="xtick_29"/>
    <g id="xtick_30"/>
    <g id="xtick_31"/>
    <g id="xtick_32"/>
    <g id="xtick_33"/>
    <g id="xtick_34"/>
    <g id="xtick_35"/>
    <g id="xtick_36"/>
    <g id="xtick_37"/>
    <g id="xtick_38"/>
    <g id="xtick_39"/>
    <g id="xtick_40"/>
    <g id="xtick_41"/>
    <g id="xtick_42"/>
    <g id="xtick_43"/>
    <g id="xtick_44"/>
    <g id="xtick_45"/>
    <g id="xtick_46"/>
    <g id="xtick_47"/>
    <g id="xtick_48"/>
    <g id="xtick_49"/>
    <g id="xtick_50"/>
    <g id="xtick_51"/>
    <g id="xtick_52"/>
    <g id="xtick_53"/>
    <g id="text_7">
     <!-- Message size in bytes (logscale) -->
     <g style="fill: #262626" transform="translate(187.986777 267.9785) scale(0.16 -0.16)">
      <defs>
       <path id="DejaVuSans-4d" d="M 628 4666 
L 1569 4666 
L 2759 1491 
L 3956 4666 
L 4897 4666 
L 4897 0 
L 4281 0 
L 4281 4097 
L 3078 897 
L 2444 897 
L 1241 4097 
L 1241 0 
L 628 0 
L 628 4666 
z
" transform="scale(0.015625)"/>
       <path id="DejaVuSans-65" d="M 3597 1894 
L 3597 1613 
L 953 1613 
Q 991 1019 1311 708 
Q 1631 397 2203 397 
Q 2534 397 2845 478 
Q 3156 559 3463 722 
L 3463 178 
Q 3153 47 2828 -22 
Q 2503 -91 2169 -91 
Q 1331 -91 842 396 
Q 353 884 353 1716 
Q 353 2575 817 3079 
Q 1281 3584 2069 3584 
Q 2775 3584 3186 3129 
Q 3597 2675 3597 1894 
z
M 3022 2063 
Q 3016 2534 2758 2815 
Q 2500 3097 2075 3097 
Q 1594 3097 1305 2825 
Q 1016 2553 972 2059 
L 3022 2063 
z
" transform="scale(0.015625)"/>
       <path id="DejaVuSans-73" d="M 2834 3397 
L 2834 2853 
Q 2591 2978 2328 3040 
Q 2066 3103 1784 3103 
Q 1356 3103 1142 2972 
Q 928 2841 928 2578 
Q 928 2378 1081 2264 
Q 1234 2150 1697 2047 
L 1894 2003 
Q 2506 1872 2764 1633 
Q 3022 1394 3022 966 
Q 3022 478 2636 193 
Q 2250 -91 1575 -91 
Q 1294 -91 989 -36 
Q 684 19 347 128 
L 347 722 
Q 666 556 975 473 
Q 1284 391 1588 391 
Q 1994 391 2212 530 
Q 2431 669 2431 922 
Q 2431 1156 2273 1281 
Q 2116 1406 1581 1522 
L 1381 1569 
Q 847 1681 609 1914 
Q 372 2147 372 2553 
Q 372 3047 722 3315 
Q 1072 3584 1716 3584 
Q 2034 3584 2315 3537 
Q 2597 3491 2834 3397 
z
" transform="scale(0.015625)"/>
       <path id="DejaVuSans-61" d="M 2194 1759 
Q 1497 1759 1228 1600 
Q 959 1441 959 1056 
Q 959 750 1161 570 
Q 1363 391 1709 391 
Q 2188 391 2477 730 
Q 2766 1069 2766 1631 
L 2766 1759 
L 2194 1759 
z
M 3341 1997 
L 3341 0 
L 2766 0 
L 2766 531 
Q 2569 213 2275 61 
Q 1981 -91 1556 -91 
Q 1019 -91 701 211 
Q 384 513 384 1019 
Q 384 1609 779 1909 
Q 1175 2209 1959 2209 
L 2766 2209 
L 2766 2266 
Q 2766 2663 2505 2880 
Q 2244 3097 1772 3097 
Q 1472 3097 1187 3025 
Q 903 2953 641 2809 
L 641 3341 
Q 956 3463 1253 3523 
Q 1550 3584 1831 3584 
Q 2591 3584 2966 3190 
Q 3341 2797 3341 1997 
z
" transform="scale(0.015625)"/>
       <path id="DejaVuSans-67" d="M 2906 1791 
Q 2906 2416 2648 2759 
Q 2391 3103 1925 3103 
Q 1463 3103 1205 2759 
Q 947 2416 947 1791 
Q 947 1169 1205 825 
Q 1463 481 1925 481 
Q 2391 481 2648 825 
Q 2906 1169 2906 1791 
z
M 3481 434 
Q 3481 -459 3084 -895 
Q 2688 -1331 1869 -1331 
Q 1566 -1331 1297 -1286 
Q 1028 -1241 775 -1147 
L 775 -588 
Q 1028 -725 1275 -790 
Q 1522 -856 1778 -856 
Q 2344 -856 2625 -561 
Q 2906 -266 2906 331 
L 2906 616 
Q 2728 306 2450 153 
Q 2172 0 1784 0 
Q 1141 0 747 490 
Q 353 981 353 1791 
Q 353 2603 747 3093 
Q 1141 3584 1784 3584 
Q 2172 3584 2450 3431 
Q 2728 3278 2906 2969 
L 2906 3500 
L 3481 3500 
L 3481 434 
z
" transform="scale(0.015625)"/>
       <path id="DejaVuSans-20" transform="scale(0.015625)"/>
       <path id="DejaVuSans-69" d="M 603 3500 
L 1178 3500 
L 1178 0 
L 603 0 
L 603 3500 
z
M 603 4863 
L 1178 4863 
L 1178 4134 
L 603 4134 
L 603 4863 
z
" transform="scale(0.015625)"/>
       <path id="DejaVuSans-7a" d="M 353 3500 
L 3084 3500 
L 3084 2975 
L 922 459 
L 3084 459 
L 3084 0 
L 275 0 
L 275 525 
L 2438 3041 
L 353 3041 
L 353 3500 
z
" transform="scale(0.015625)"/>
       <path id="DejaVuSans-6e" d="M 3513 2113 
L 3513 0 
L 2938 0 
L 2938 2094 
Q 2938 2591 2744 2837 
Q 2550 3084 2163 3084 
Q 1697 3084 1428 2787 
Q 1159 2491 1159 1978 
L 1159 0 
L 581 0 
L 581 3500 
L 1159 3500 
L 1159 2956 
Q 1366 3272 1645 3428 
Q 1925 3584 2291 3584 
Q 2894 3584 3203 3211 
Q 3513 2838 3513 2113 
z
" transform="scale(0.015625)"/>
       <path id="DejaVuSans-62" d="M 3116 1747 
Q 3116 2381 2855 2742 
Q 2594 3103 2138 3103 
Q 1681 3103 1420 2742 
Q 1159 2381 1159 1747 
Q 1159 1113 1420 752 
Q 1681 391 2138 391 
Q 2594 391 2855 752 
Q 3116 1113 3116 1747 
z
M 1159 2969 
Q 1341 3281 1617 3432 
Q 1894 3584 2278 3584 
Q 2916 3584 3314 3078 
Q 3713 2572 3713 1747 
Q 3713 922 3314 415 
Q 2916 -91 2278 -91 
Q 1894 -91 1617 61 
Q 1341 213 1159 525 
L 1159 0 
L 581 0 
L 581 4863 
L 1159 4863 
L 1159 2969 
z
" transform="scale(0.015625)"/>
       <path id="DejaVuSans-79" d="M 2059 -325 
Q 1816 -950 1584 -1140 
Q 1353 -1331 966 -1331 
L 506 -1331 
L 506 -850 
L 844 -850 
Q 1081 -850 1212 -737 
Q 1344 -625 1503 -206 
L 1606 56 
L 191 3500 
L 800 3500 
L 1894 763 
L 2988 3500 
L 3597 3500 
L 2059 -325 
z
" transform="scale(0.015625)"/>
       <path id="DejaVuSans-74" d="M 1172 4494 
L 1172 3500 
L 2356 3500 
L 2356 3053 
L 1172 3053 
L 1172 1153 
Q 1172 725 1289 603 
Q 1406 481 1766 481 
L 2356 481 
L 2356 0 
L 1766 0 
Q 1100 0 847 248 
Q 594 497 594 1153 
L 594 3053 
L 172 3053 
L 172 3500 
L 594 3500 
L 594 4494 
L 1172 4494 
z
" transform="scale(0.015625)"/>
       <path id="DejaVuSans-28" d="M 1984 4856 
Q 1566 4138 1362 3434 
Q 1159 2731 1159 2009 
Q 1159 1288 1364 580 
Q 1569 -128 1984 -844 
L 1484 -844 
Q 1016 -109 783 600 
Q 550 1309 550 2009 
Q 550 2706 781 3412 
Q 1013 4119 1484 4856 
L 1984 4856 
z
" transform="scale(0.015625)"/>
       <path id="DejaVuSans-6c" d="M 603 4863 
L 1178 4863 
L 1178 0 
L 603 0 
L 603 4863 
z
" transform="scale(0.015625)"/>
       <path id="DejaVuSans-6f" d="M 1959 3097 
Q 1497 3097 1228 2736 
Q 959 2375 959 1747 
Q 959 1119 1226 758 
Q 1494 397 1959 397 
Q 2419 397 2687 759 
Q 2956 1122 2956 1747 
Q 2956 2369 2687 2733 
Q 2419 3097 1959 3097 
z
M 1959 3584 
Q 2709 3584 3137 3096 
Q 3566 2609 3566 1747 
Q 3566 888 3137 398 
Q 2709 -91 1959 -91 
Q 1206 -91 779 398 
Q 353 888 353 1747 
Q 353 2609 779 3096 
Q 1206 3584 1959 3584 
z
" transform="scale(0.015625)"/>
       <path id="DejaVuSans-63" d="M 3122 3366 
L 3122 2828 
Q 2878 2963 2633 3030 
Q 2388 3097 2138 3097 
Q 1578 3097 1268 2742 
Q 959 2388 959 1747 
Q 959 1106 1268 751 
Q 1578 397 2138 397 
Q 2388 397 2633 464 
Q 2878 531 3122 666 
L 3122 134 
Q 2881 22 2623 -34 
Q 2366 -91 2075 -91 
Q 1284 -91 818 406 
Q 353 903 353 1747 
Q 353 2603 823 3093 
Q 1294 3584 2113 3584 
Q 2378 3584 2631 3529 
Q 2884 3475 3122 3366 
z
" transform="scale(0.015625)"/>
       <path id="DejaVuSans-29" d="M 513 4856 
L 1013 4856 
Q 1481 4119 1714 3412 
Q 1947 2706 1947 2009 
Q 1947 1309 1714 600 
Q 1481 -109 1013 -844 
L 513 -844 
Q 928 -128 1133 580 
Q 1338 1288 1338 2009 
Q 1338 2731 1133 3434 
Q 928 4138 513 4856 
z
" transform="scale(0.015625)"/>
      </defs>
      <use xlink:href="#DejaVuSans-4d"/>
      <use xlink:href="#DejaVuSans-65" x="86.279297"/>
      <use xlink:href="#DejaVuSans-73" x="147.802734"/>
      <use xlink:href="#DejaVuSans-73" x="199.902344"/>
      <use xlink:href="#DejaVuSans-61" x="252.001953"/>
      <use xlink:href="#DejaVuSans-67" x="313.28125"/>
      <use xlink:href="#DejaVuSans-65" x="376.757812"/>
      <use xlink:href="#DejaVuSans-20" x="438.28125"/>
      <use xlink:href="#DejaVuSans-73" x="470.068359"/>
      <use xlink:href="#DejaVuSans-69" x="522.167969"/>
      <use xlink:href="#DejaVuSans-7a" x="549.951172"/>
      <use xlink:href="#DejaVuSans-65" x="602.441406"/>
      <use xlink:href="#DejaVuSans-20" x="663.964844"/>
      <use xlink:href="#DejaVuSans-69" x="695.751953"/>
      <use xlink:href="#DejaVuSans-6e" x="723.535156"/>
      <use xlink:href="#DejaVuSans-20" x="786.914062"/>
      <use xlink:href="#DejaVuSans-62" x="818.701172"/>
      <use xlink:href="#DejaVuSans-79" x="882.177734"/>
      <use xlink:href="#DejaVuSans-74" x="941.357422"/>
      <use xlink:href="#DejaVuSans-65" x="980.566406"/>
      <use xlink:href="#DejaVuSans-73" x="1042.089844"/>
      <use xlink:href="#DejaVuSans-20" x="1094.189453"/>
      <use xlink:href="#DejaVuSans-28" x="1125.976562"/>
      <use xlink:href="#DejaVuSans-6c" x="1164.990234"/>
      <use xlink:href="#DejaVuSans-6f" x="1192.773438"/>
      <use xlink:href="#DejaVuSans-67" x="1253.955078"/>
      <use xlink:href="#DejaVuSans-73" x="1317.431641"/>
      <use xlink:href="#DejaVuSans-63" x="1369.53125"/>
      <use xlink:href="#DejaVuSans-61" x="1424.511719"/>
      <use xlink:href="#DejaVuSans-6c" x="1485.791016"/>
      <use xlink:href="#DejaVuSans-65" x="1513.574219"/>
      <use xlink:href="#DejaVuSans-29" x="1575.097656"/>
     </g>
    </g>
   </g>
   <g id="matplotlib.axis_2">
    <g id="ytick_1">
     <g id="line2d_7">
      <path d="M 71.193553 217.615153 
L 563.04 217.615153 
" clip-path="url(#p7cb6ef7cad)" style="fill: none; stroke: #cccccc; stroke-linecap: round"/>
     </g>
     <g id="text_8">
      <!-- $\mathdefault{10^{1}}$ -->
      <g style="fill: #262626" transform="translate(33.533553 223.693903) scale(0.16 -0.16)">
       <use xlink:href="#DejaVuSans-31" transform="translate(0 0.684375)"/>
       <use xlink:href="#DejaVuSans-30" transform="translate(63.623047 0.684375)"/>
       <use xlink:href="#DejaVuSans-31" transform="translate(128.203125 38.965625) scale(0.7)"/>
      </g>
     </g>
    </g>
    <g id="ytick_2">
     <g id="line2d_8">
      <path d="M 71.193553 150.991457 
L 563.04 150.991457 
" clip-path="url(#p7cb6ef7cad)" style="fill: none; stroke: #cccccc; stroke-linecap: round"/>
     </g>
     <g id="text_9">
      <!-- $\mathdefault{10^{2}}$ -->
      <g style="fill: #262626" transform="translate(33.533553 157.070207) scale(0.16 -0.16)">
       <use xlink:href="#DejaVuSans-31" transform="translate(0 0.765625)"/>
       <use xlink:href="#DejaVuSans-30" transform="translate(63.623047 0.765625)"/>
       <use xlink:href="#DejaVuSans-32" transform="translate(128.203125 39.046875) scale(0.7)"/>
      </g>
     </g>
    </g>
    <g id="ytick_3">
     <g id="line2d_9">
      <path d="M 71.193553 84.36776 
L 563.04 84.36776 
" clip-path="url(#p7cb6ef7cad)" style="fill: none; stroke: #cccccc; stroke-linecap: round"/>
     </g>
     <g id="text_10">
      <!-- $\mathdefault{10^{3}}$ -->
      <g style="fill: #262626" transform="translate(33.533553 90.44651) scale(0.16 -0.16)">
       <use xlink:href="#DejaVuSans-31" transform="translate(0 0.765625)"/>
       <use xlink:href="#DejaVuSans-30" transform="translate(63.623047 0.765625)"/>
       <use xlink:href="#DejaVuSans-33" transform="translate(128.203125 39.046875) scale(0.7)"/>
      </g>
     </g>
    </g>
    <g id="ytick_4"/>
    <g id="ytick_5"/>
    <g id="ytick_6"/>
    <g id="ytick_7"/>
    <g id="ytick_8"/>
    <g id="ytick_9"/>
    <g id="ytick_10"/>
    <g id="ytick_11"/>
    <g id="ytick_12"/>
    <g id="ytick_13"/>
    <g id="ytick_14"/>
    <g id="ytick_15"/>
    <g id="ytick_16"/>
    <g id="ytick_17"/>
    <g id="ytick_18"/>
    <g id="ytick_19"/>
    <g id="ytick_20"/>
    <g id="ytick_21"/>
    <g id="ytick_22"/>
    <g id="ytick_23"/>
    <g id="ytick_24"/>
    <g id="ytick_25"/>
    <g id="ytick_26"/>
    <g id="text_11">
     <!-- avg latency us (logscale) -->
     <g style="fill: #262626" transform="translate(26.206053 229.39925) rotate(-90) scale(0.16 -0.16)">
      <defs>
       <path id="DejaVuSans-76" d="M 191 3500 
L 800 3500 
L 1894 563 
L 2988 3500 
L 3597 3500 
L 2284 0 
L 1503 0 
L 191 3500 
z
" transform="scale(0.015625)"/>
       <path id="DejaVuSans-75" d="M 544 1381 
L 544 3500 
L 1119 3500 
L 1119 1403 
Q 1119 906 1312 657 
Q 1506 409 1894 409 
Q 2359 409 2629 706 
Q 2900 1003 2900 1516 
L 2900 3500 
L 3475 3500 
L 3475 0 
L 2900 0 
L 2900 538 
Q 2691 219 2414 64 
Q 2138 -91 1772 -91 
Q 1169 -91 856 284 
Q 544 659 544 1381 
z
M 1991 3584 
L 1991 3584 
z
" transform="scale(0.015625)"/>
      </defs>
      <use xlink:href="#DejaVuSans-61"/>
      <use xlink:href="#DejaVuSans-76" x="61.279297"/>
      <use xlink:href="#DejaVuSans-67" x="120.458984"/>
      <use xlink:href="#DejaVuSans-20" x="183.935547"/>
      <use xlink:href="#DejaVuSans-6c" x="215.722656"/>
      <use xlink:href="#DejaVuSans-61" x="243.505859"/>
      <use xlink:href="#DejaVuSans-74" x="304.785156"/>
      <use xlink:href="#DejaVuSans-65" x="343.994141"/>
      <use xlink:href="#DejaVuSans-6e" x="405.517578"/>
      <use xlink:href="#DejaVuSans-63" x="468.896484"/>
      <use xlink:href="#DejaVuSans-79" x="523.876953"/>
      <use xlink:href="#DejaVuSans-20" x="583.056641"/>
      <use xlink:href="#DejaVuSans-75" x="614.84375"/>
      <use xlink:href="#DejaVuSans-73" x="678.222656"/>
      <use xlink:href="#DejaVuSans-20" x="730.322266"/>
      <use xlink:href="#DejaVuSans-28" x="762.109375"/>
      <use xlink:href="#DejaVuSans-6c" x="801.123047"/>
      <use xlink:href="#DejaVuSans-6f" x="828.90625"/>
      <use xlink:href="#DejaVuSans-67" x="890.087891"/>
      <use xlink:href="#DejaVuSans-73" x="953.564453"/>
      <use xlink:href="#DejaVuSans-63" x="1005.664062"/>
      <use xlink:href="#DejaVuSans-61" x="1060.644531"/>
      <use xlink:href="#DejaVuSans-6c" x="1121.923828"/>
      <use xlink:href="#DejaVuSans-65" x="1149.707031"/>
      <use xlink:href="#DejaVuSans-29" x="1211.230469"/>
     </g>
    </g>
   </g>
   <g id="PolyCollection_1">
    <defs>
     <path id="me554c77b9d" d="M 93.55021 -180.650013 
L 93.55021 -177.751499 
L 118.39094 -177.308763 
L 143.231669 -177.788137 
L 168.072399 -177.774138 
L 192.913129 -178.75639 
L 217.753858 -178.911268 
L 242.594588 -179.602346 
L 267.435317 -179.944605 
L 292.276047 -181.491656 
L 317.116777 -182.562567 
L 341.957506 -192.580224 
L 366.798236 -193.849796 
L 391.638966 -195.497472 
L 416.479695 -198.079067 
L 441.320425 -201.15353 
L 466.161154 -207.153411 
L 491.001884 -216.175723 
L 515.842614 -228.113008 
L 540.683343 -245.222734 
L 540.683343 -245.626125 
L 540.683343 -245.626125 
L 515.842614 -228.627909 
L 491.001884 -216.526685 
L 466.161154 -209.011852 
L 441.320425 -201.970604 
L 416.479695 -198.565047 
L 391.638966 -196.708287 
L 366.798236 -194.269435 
L 341.957506 -193.539617 
L 317.116777 -185.039538 
L 292.276047 -183.467278 
L 267.435317 -184.768588 
L 242.594588 -181.995723 
L 217.753858 -181.943114 
L 192.913129 -181.123131 
L 168.072399 -184.288149 
L 143.231669 -188.200502 
L 118.39094 -180.046511 
L 93.55021 -180.650013 
z
" style="stroke: #8c613c; stroke-opacity: 0.2"/>
    </defs>
    <g clip-path="url(#p7cb6ef7cad)">
     <use xlink:href="#me554c77b9d" x="0" y="288" style="fill: #8c613c; fill-opacity: 0.2; stroke: #8c613c; stroke-opacity: 0.2"/>
    </g>
   </g>
   <g id="PolyCollection_2">
    <defs>
     <path id="me065a367af" d="M 93.55021 -176.654489 
L 93.55021 -174.806935 
L 118.39094 -174.088667 
L 143.231669 -173.832584 
L 168.072399 -174.30665 
L 192.913129 -174.500838 
L 217.753858 -174.750628 
L 242.594588 -175.689121 
L 267.435317 -175.315059 
L 292.276047 -177.514571 
L 317.116777 -179.687861 
L 341.957506 -193.931235 
L 366.798236 -195.008907 
L 391.638966 -199.068556 
L 416.479695 -200.177851 
L 441.320425 -201.342862 
L 466.161154 -209.933331 
L 491.001884 -217.688972 
L 515.842614 -230.410676 
L 540.683343 -246.577052 
L 540.683343 -247.220182 
L 540.683343 -247.220182 
L 515.842614 -230.915768 
L 491.001884 -219.127234 
L 466.161154 -210.40922 
L 441.320425 -204.124256 
L 416.479695 -203.103319 
L 391.638966 -203.402109 
L 366.798236 -196.702354 
L 341.957506 -194.746159 
L 317.116777 -181.64338 
L 292.276047 -179.940901 
L 267.435317 -177.335485 
L 242.594588 -177.520992 
L 217.753858 -176.511086 
L 192.913129 -176.472054 
L 168.072399 -176.655812 
L 143.231669 -176.304239 
L 118.39094 -175.961747 
L 93.55021 -176.654489 
z
" style="stroke: #6c3baa; stroke-opacity: 0.2"/>
    </defs>
    <g clip-path="url(#p7cb6ef7cad)">
     <use xlink:href="#me065a367af" x="0" y="288" style="fill: #6c3baa; fill-opacity: 0.2; stroke: #6c3baa; stroke-opacity: 0.2"/>
    </g>
   </g>
   <g id="PolyCollection_3">
    <defs>
     <path id="m10be7fadae" d="M 93.55021 -97.336663 
L 93.55021 -85.95366 
L 118.39094 -86.688065 
L 143.231669 -87.627812 
L 168.072399 -88.15657 
L 192.913129 -87.533412 
L 217.753858 -89.07624 
L 242.594588 -94.11308 
L 267.435317 -97.623409 
L 292.276047 -101.90868 
L 317.116777 -107.451963 
L 341.957506 -119.335787 
L 366.798236 -130.099969 
L 391.638966 -181.267654 
L 416.479695 -181.415245 
L 441.320425 -185.283482 
L 466.161154 -188.346773 
L 491.001884 -195.29943 
L 515.842614 -202.551059 
L 540.683343 -215.491793 
L 540.683343 -217.022272 
L 540.683343 -217.022272 
L 515.842614 -204.385458 
L 491.001884 -197.131448 
L 466.161154 -190.908843 
L 441.320425 -187.586077 
L 416.479695 -183.686922 
L 391.638966 -182.768041 
L 366.798236 -134.371186 
L 341.957506 -124.474092 
L 317.116777 -115.254312 
L 292.276047 -111.472338 
L 267.435317 -107.964593 
L 242.594588 -107.994326 
L 217.753858 -101.068438 
L 192.913129 -97.930859 
L 168.072399 -98.626431 
L 143.231669 -98.718583 
L 118.39094 -98.312417 
L 93.55021 -97.336663 
z
" style="stroke: #797979; stroke-opacity: 0.2"/>
    </defs>
    <g clip-path="url(#p7cb6ef7cad)">
     <use xlink:href="#m10be7fadae" x="0" y="288" style="fill: #797979; fill-opacity: 0.2; stroke: #797979; stroke-opacity: 0.2"/>
    </g>
   </g>
   <g id="PolyCollection_4">
    <defs>
     <path id="m40f88d798f" d="M 93.55021 -159.602858 
L 93.55021 -159.446061 
L 118.39094 -159.160052 
L 143.231669 -159.25758 
L 168.072399 -160.501807 
L 192.913129 -159.70551 
L 217.753858 -159.954801 
L 242.594588 -160.44883 
L 267.435317 -160.711982 
L 292.276047 -160.81223 
L 317.116777 -162.301494 
L 341.957506 -177.748668 
L 366.798236 -180.143499 
L 391.638966 -179.682168 
L 416.479695 -180.576416 
L 441.320425 -182.914025 
L 466.161154 -184.285936 
L 491.001884 -189.013916 
L 515.842614 -199.175168 
L 540.683343 -213.601704 
L 540.683343 -213.8263 
L 540.683343 -213.8263 
L 515.842614 -199.592743 
L 491.001884 -189.752844 
L 466.161154 -186.549865 
L 441.320425 -185.520424 
L 416.479695 -181.24407 
L 391.638966 -180.303606 
L 366.798236 -181.019897 
L 341.957506 -178.208469 
L 317.116777 -162.463304 
L 292.276047 -160.925706 
L 267.435317 -161.133338 
L 242.594588 -161.121772 
L 217.753858 -160.222203 
L 192.913129 -161.116742 
L 168.072399 -163.335469 
L 143.231669 -159.322417 
L 118.39094 -159.245904 
L 93.55021 -159.602858 
z
" style="stroke: #d65f5f; stroke-opacity: 0.2"/>
    </defs>
    <g clip-path="url(#p7cb6ef7cad)">
     <use xlink:href="#m40f88d798f" x="0" y="288" style="fill: #d65f5f; fill-opacity: 0.2; stroke: #d65f5f; stroke-opacity: 0.2"/>
    </g>
   </g>
   <g id="PolyCollection_5">
    <defs>
     <path id="m41273c8449" d="M 93.55021 -77.599817 
L 93.55021 -76.20952 
L 118.39094 -70.193247 
L 143.231669 -70.047247 
L 168.072399 -70.023818 
L 192.913129 -72.3964 
L 217.753858 -73.663933 
L 242.594588 -78.579682 
L 267.435317 -81.115818 
L 292.276047 -82.968215 
L 317.116777 -85.792619 
L 341.957506 -100.031081 
L 366.798236 -133.409556 
L 391.638966 -131.820792 
L 416.479695 -142.282769 
L 441.320425 -154.916539 
L 466.161154 -171.465342 
L 491.001884 -189.80126 
L 515.842614 -209.360226 
L 540.683343 -229.132091 
L 540.683343 -229.287274 
L 540.683343 -229.287274 
L 515.842614 -209.449957 
L 491.001884 -190.028289 
L 466.161154 -172.027995 
L 441.320425 -155.451629 
L 416.479695 -142.59232 
L 391.638966 -132.729248 
L 366.798236 -141.030308 
L 341.957506 -100.914817 
L 317.116777 -86.387837 
L 292.276047 -84.308126 
L 267.435317 -81.681353 
L 242.594588 -79.485227 
L 217.753858 -74.604349 
L 192.913129 -73.299975 
L 168.072399 -71.917551 
L 143.231669 -72.782617 
L 118.39094 -71.03714 
L 93.55021 -77.599817 
z
" style="stroke: #008000; stroke-opacity: 0.2"/>
    </defs>
    <g clip-path="url(#p7cb6ef7cad)">
     <use xlink:href="#m41273c8449" x="0" y="288" style="fill: #008000; fill-opacity: 0.2; stroke: #008000; stroke-opacity: 0.2"/>
    </g>
   </g>
   <g id="line2d_10">
    <path d="M 93.55021 108.812489 
L 118.39094 109.379964 
L 143.231669 105.698958 
L 168.072399 106.785929 
L 192.913129 108.148709 
L 217.753858 107.569795 
L 242.594588 107.196726 
L 267.435317 105.864289 
L 292.276047 105.45254 
L 317.116777 104.138336 
L 341.957506 94.897149 
L 366.798236 93.954813 
L 391.638966 91.794907 
L 416.479695 89.718597 
L 441.320425 86.452364 
L 466.161154 80.185394 
L 491.001884 71.639298 
L 515.842614 59.639889 
L 540.683343 42.603949 
" clip-path="url(#p7cb6ef7cad)" style="fill: none; stroke: #8c613c; stroke-width: 1.5; stroke-linecap: round"/>
   </g>
   <g id="line2d_11">
    <path d="M 93.55021 112.335515 
L 118.39094 112.932215 
L 143.231669 112.843207 
L 168.072399 112.548679 
L 192.913129 112.49677 
L 217.753858 112.403752 
L 242.594588 111.32141 
L 267.435317 111.604091 
L 292.276047 109.201941 
L 317.116777 107.345377 
L 341.957506 93.632517 
L 366.798236 92.207686 
L 391.638966 86.747785 
L 416.479695 86.321932 
L 441.320425 85.621947 
L 466.161154 77.842129 
L 491.001884 69.639099 
L 515.842614 57.366639 
L 540.683343 41.145727 
" clip-path="url(#p7cb6ef7cad)" style="fill: none; stroke: #6c3baa; stroke-width: 1.5; stroke-linecap: round"/>
   </g>
   <g id="line2d_12">
    <path d="M 93.55021 196.104206 
L 118.39094 195.696567 
L 143.231669 195.036746 
L 168.072399 194.646387 
L 192.913129 195.344935 
L 217.753858 192.976099 
L 242.594588 186.873215 
L 267.435317 185.467182 
L 292.276047 181.029374 
L 317.116777 176.900096 
L 341.957506 166.090516 
L 366.798236 155.940238 
L 391.638966 106.029468 
L 416.479695 105.538247 
L 441.320425 101.639634 
L 466.161154 98.428844 
L 491.001884 91.851079 
L 515.842614 84.647947 
L 540.683343 71.766559 
" clip-path="url(#p7cb6ef7cad)" style="fill: none; stroke: #797979; stroke-width: 1.5; stroke-linecap: round"/>
   </g>
   <g id="line2d_13">
    <path d="M 93.55021 128.475435 
L 118.39094 128.796651 
L 143.231669 128.710787 
L 168.072399 126.420148 
L 192.913129 127.80453 
L 217.753858 127.911189 
L 242.594588 127.182611 
L 267.435317 127.048227 
L 292.276047 127.127007 
L 317.116777 125.624233 
L 341.957506 109.99062 
L 366.798236 107.430389 
L 391.638966 107.965128 
L 416.479695 107.064174 
L 441.320425 103.633812 
L 466.161154 102.580284 
L 491.001884 98.627695 
L 515.842614 88.615137 
L 540.683343 74.285147 
" clip-path="url(#p7cb6ef7cad)" style="fill: none; stroke: #d65f5f; stroke-width: 1.5; stroke-linecap: round"/>
   </g>
   <g id="line2d_14">
    <path d="M 93.55021 211.029314 
L 118.39094 217.390341 
L 143.231669 216.586245 
L 168.072399 217.013825 
L 192.913129 215.212057 
L 217.753858 213.97663 
L 242.594588 208.944699 
L 267.435317 206.645547 
L 292.276047 204.537805 
L 317.116777 201.990745 
L 341.957506 187.605584 
L 366.798236 149.513137 
L 391.638966 155.687022 
L 416.479695 145.565082 
L 441.320425 132.826569 
L 466.161154 116.245526 
L 491.001884 98.085003 
L 515.842614 78.595087 
L 540.683343 58.780186 
" clip-path="url(#p7cb6ef7cad)" style="fill: none; stroke: #008000; stroke-width: 1.5; stroke-linecap: round"/>
   </g>
   <g id="line2d_15"/>
   <g id="line2d_16"/>
   <g id="line2d_17"/>
   <g id="line2d_18"/>
   <g id="line2d_19"/>
   <g id="patch_3">
    <path d="M 71.193553 226.836 
L 71.193553 31.92 
" style="fill: none; stroke: #cccccc; stroke-width: 1.25; stroke-linejoin: miter; stroke-linecap: square"/>
   </g>
   <g id="patch_4">
    <path d="M 563.04 226.836 
L 563.04 31.92 
" style="fill: none; stroke: #cccccc; stroke-width: 1.25; stroke-linejoin: miter; stroke-linecap: square"/>
   </g>
   <g id="patch_5">
    <path d="M 71.193553 226.836 
L 563.04 226.836 
" style="fill: none; stroke: #cccccc; stroke-width: 1.25; stroke-linejoin: miter; stroke-linecap: square"/>
   </g>
   <g id="patch_6">
    <path d="M 71.193553 31.92 
L 563.04 31.92 
" style="fill: none; stroke: #cccccc; stroke-width: 1.25; stroke-linejoin: miter; stroke-linecap: square"/>
   </g>
   <g id="text_12">
    <!-- osu_allreduce 256 GPUs -->
    <g style="fill: #262626" transform="translate(220.735527 25.92) scale(0.16 -0.16)">
     <defs>
      <path id="DejaVuSans-5f" d="M 3263 -1063 
L 3263 -1509 
L -63 -1509 
L -63 -1063 
L 3263 -1063 
z
" transform="scale(0.015625)"/>
      <path id="DejaVuSans-72" d="M 2631 2963 
Q 2534 3019 2420 3045 
Q 2306 3072 2169 3072 
Q 1681 3072 1420 2755 
Q 1159 2438 1159 1844 
L 1159 0 
L 581 0 
L 581 3500 
L 1159 3500 
L 1159 2956 
Q 1341 3275 1631 3429 
Q 1922 3584 2338 3584 
Q 2397 3584 2469 3576 
Q 2541 3569 2628 3553 
L 2631 2963 
z
" transform="scale(0.015625)"/>
      <path id="DejaVuSans-64" d="M 2906 2969 
L 2906 4863 
L 3481 4863 
L 3481 0 
L 2906 0 
L 2906 525 
Q 2725 213 2448 61 
Q 2172 -91 1784 -91 
Q 1150 -91 751 415 
Q 353 922 353 1747 
Q 353 2572 751 3078 
Q 1150 3584 1784 3584 
Q 2172 3584 2448 3432 
Q 2725 3281 2906 2969 
z
M 947 1747 
Q 947 1113 1208 752 
Q 1469 391 1925 391 
Q 2381 391 2643 752 
Q 2906 1113 2906 1747 
Q 2906 2381 2643 2742 
Q 2381 3103 1925 3103 
Q 1469 3103 1208 2742 
Q 947 2381 947 1747 
z
" transform="scale(0.015625)"/>
      <path id="DejaVuSans-47" d="M 3809 666 
L 3809 1919 
L 2778 1919 
L 2778 2438 
L 4434 2438 
L 4434 434 
Q 4069 175 3628 42 
Q 3188 -91 2688 -91 
Q 1594 -91 976 548 
Q 359 1188 359 2328 
Q 359 3472 976 4111 
Q 1594 4750 2688 4750 
Q 3144 4750 3555 4637 
Q 3966 4525 4313 4306 
L 4313 3634 
Q 3963 3931 3569 4081 
Q 3175 4231 2741 4231 
Q 1884 4231 1454 3753 
Q 1025 3275 1025 2328 
Q 1025 1384 1454 906 
Q 1884 428 2741 428 
Q 3075 428 3337 486 
Q 3600 544 3809 666 
z
" transform="scale(0.015625)"/>
      <path id="DejaVuSans-50" d="M 1259 4147 
L 1259 2394 
L 2053 2394 
Q 2494 2394 2734 2622 
Q 2975 2850 2975 3272 
Q 2975 3691 2734 3919 
Q 2494 4147 2053 4147 
L 1259 4147 
z
M 628 4666 
L 2053 4666 
Q 2838 4666 3239 4311 
Q 3641 3956 3641 3272 
Q 3641 2581 3239 2228 
Q 2838 1875 2053 1875 
L 1259 1875 
L 1259 0 
L 628 0 
L 628 4666 
z
" transform="scale(0.015625)"/>
      <path id="DejaVuSans-55" d="M 556 4666 
L 1191 4666 
L 1191 1831 
Q 1191 1081 1462 751 
Q 1734 422 2344 422 
Q 2950 422 3222 751 
Q 3494 1081 3494 1831 
L 3494 4666 
L 4128 4666 
L 4128 1753 
Q 4128 841 3676 375 
Q 3225 -91 2344 -91 
Q 1459 -91 1007 375 
Q 556 841 556 1753 
L 556 4666 
z
" transform="scale(0.015625)"/>
     </defs>
     <use xlink:href="#DejaVuSans-6f"/>
     <use xlink:href="#DejaVuSans-73" x="61.181641"/>
     <use xlink:href="#DejaVuSans-75" x="113.28125"/>
     <use xlink:href="#DejaVuSans-5f" x="176.660156"/>
     <use xlink:href="#DejaVuSans-61" x="226.660156"/>
     <use xlink:href="#DejaVuSans-6c" x="287.939453"/>
     <use xlink:href="#DejaVuSans-6c" x="315.722656"/>
     <use xlink:href="#DejaVuSans-72" x="343.505859"/>
     <use xlink:href="#DejaVuSans-65" x="382.369141"/>
     <use xlink:href="#DejaVuSans-64" x="443.892578"/>
     <use xlink:href="#DejaVuSans-75" x="507.369141"/>
     <use xlink:href="#DejaVuSans-63" x="570.748047"/>
     <use xlink:href="#DejaVuSans-65" x="625.728516"/>
     <use xlink:href="#DejaVuSans-20" x="687.251953"/>
     <use xlink:href="#DejaVuSans-32" x="719.039062"/>
     <use xlink:href="#DejaVuSans-35" x="782.662109"/>
     <use xlink:href="#DejaVuSans-36" x="846.285156"/>
     <use xlink:href="#DejaVuSans-20" x="909.908203"/>
     <use xlink:href="#DejaVuSans-47" x="941.695312"/>
     <use xlink:href="#DejaVuSans-50" x="1019.185547"/>
     <use xlink:href="#DejaVuSans-55" x="1079.488281"/>
     <use xlink:href="#DejaVuSans-73" x="1152.681641"/>
    </g>
   </g>
   <g id="legend_1">
    <g id="patch_7">
     <path d="M 285.217812 221.336 
L 555.34 221.336 
Q 557.54 221.336 557.54 219.136 
L 557.54 137.976625 
Q 557.54 135.776625 555.34 135.776625 
L 285.217812 135.776625 
Q 283.017812 135.776625 283.017812 137.976625 
L 283.017812 219.136 
Q 283.017812 221.336 285.217812 221.336 
z
" style="fill: #ffffff; opacity: 0.8; stroke: #cccccc; stroke-linejoin: miter"/>
    </g>
    <g id="line2d_20">
     <path d="M 287.417812 144.684906 
L 298.417812 144.684906 
L 309.417812 144.684906 
" style="fill: none; stroke: #8c613c; stroke-width: 1.5; stroke-linecap: round"/>
    </g>
    <g id="text_13">
     <!-- google/gke/gpu/osu_allreduce -->
     <g style="fill: #262626" transform="translate(318.217812 148.534906) scale(0.11 -0.11)">
      <defs>
       <path id="DejaVuSans-2f" d="M 1625 4666 
L 2156 4666 
L 531 -594 
L 0 -594 
L 1625 4666 
z
" transform="scale(0.015625)"/>
       <path id="DejaVuSans-6b" d="M 581 4863 
L 1159 4863 
L 1159 1991 
L 2875 3500 
L 3609 3500 
L 1753 1863 
L 3688 0 
L 2938 0 
L 1159 1709 
L 1159 0 
L 581 0 
L 581 4863 
z
" transform="scale(0.015625)"/>
       <path id="DejaVuSans-70" d="M 1159 525 
L 1159 -1331 
L 581 -1331 
L 581 3500 
L 1159 3500 
L 1159 2969 
Q 1341 3281 1617 3432 
Q 1894 3584 2278 3584 
Q 2916 3584 3314 3078 
Q 3713 2572 3713 1747 
Q 3713 922 3314 415 
Q 2916 -91 2278 -91 
Q 1894 -91 1617 61 
Q 1341 213 1159 525 
z
M 3116 1747 
Q 3116 2381 2855 2742 
Q 2594 3103 2138 3103 
Q 1681 3103 1420 2742 
Q 1159 2381 1159 1747 
Q 1159 1113 1420 752 
Q 1681 391 2138 391 
Q 2594 391 2855 752 
Q 3116 1113 3116 1747 
z
" transform="scale(0.015625)"/>
      </defs>
      <use xlink:href="#DejaVuSans-67"/>
      <use xlink:href="#DejaVuSans-6f" x="63.476562"/>
      <use xlink:href="#DejaVuSans-6f" x="124.658203"/>
      <use xlink:href="#DejaVuSans-67" x="185.839844"/>
      <use xlink:href="#DejaVuSans-6c" x="249.316406"/>
      <use xlink:href="#DejaVuSans-65" x="277.099609"/>
      <use xlink:href="#DejaVuSans-2f" x="338.623047"/>
      <use xlink:href="#DejaVuSans-67" x="372.314453"/>
      <use xlink:href="#DejaVuSans-6b" x="435.791016"/>
      <use xlink:href="#DejaVuSans-65" x="490.076172"/>
      <use xlink:href="#DejaVuSans-2f" x="551.599609"/>
      <use xlink:href="#DejaVuSans-67" x="585.291016"/>
      <use xlink:href="#DejaVuSans-70" x="648.767578"/>
      <use xlink:href="#DejaVuSans-75" x="712.244141"/>
      <use xlink:href="#DejaVuSans-2f" x="775.623047"/>
      <use xlink:href="#DejaVuSans-6f" x="809.314453"/>
      <use xlink:href="#DejaVuSans-73" x="870.496094"/>
      <use xlink:href="#DejaVuSans-75" x="922.595703"/>
      <use xlink:href="#DejaVuSans-5f" x="985.974609"/>
      <use xlink:href="#DejaVuSans-61" x="1035.974609"/>
      <use xlink:href="#DejaVuSans-6c" x="1097.253906"/>
      <use xlink:href="#DejaVuSans-6c" x="1125.037109"/>
      <use xlink:href="#DejaVuSans-72" x="1152.820312"/>
      <use xlink:href="#DejaVuSans-65" x="1191.683594"/>
      <use xlink:href="#DejaVuSans-64" x="1253.207031"/>
      <use xlink:href="#DejaVuSans-75" x="1316.683594"/>
      <use xlink:href="#DejaVuSans-63" x="1380.0625"/>
      <use xlink:href="#DejaVuSans-65" x="1435.042969"/>
     </g>
    </g>
    <g id="line2d_21">
     <path d="M 287.417812 161.136781 
L 298.417812 161.136781 
L 309.417812 161.136781 
" style="fill: none; stroke: #6c3baa; stroke-width: 1.5; stroke-linecap: round"/>
    </g>
    <g id="text_14">
     <!-- google/compute-engine/gpu/osu_allreduce -->
     <g style="fill: #262626" transform="translate(318.217812 164.986781) scale(0.11 -0.11)">
      <defs>
       <path id="DejaVuSans-6d" d="M 3328 2828 
Q 3544 3216 3844 3400 
Q 4144 3584 4550 3584 
Q 5097 3584 5394 3201 
Q 5691 2819 5691 2113 
L 5691 0 
L 5113 0 
L 5113 2094 
Q 5113 2597 4934 2840 
Q 4756 3084 4391 3084 
Q 3944 3084 3684 2787 
Q 3425 2491 3425 1978 
L 3425 0 
L 2847 0 
L 2847 2094 
Q 2847 2600 2669 2842 
Q 2491 3084 2119 3084 
Q 1678 3084 1418 2786 
Q 1159 2488 1159 1978 
L 1159 0 
L 581 0 
L 581 3500 
L 1159 3500 
L 1159 2956 
Q 1356 3278 1631 3431 
Q 1906 3584 2284 3584 
Q 2666 3584 2933 3390 
Q 3200 3197 3328 2828 
z
" transform="scale(0.015625)"/>
       <path id="DejaVuSans-2d" d="M 313 2009 
L 1997 2009 
L 1997 1497 
L 313 1497 
L 313 2009 
z
" transform="scale(0.015625)"/>
      </defs>
      <use xlink:href="#DejaVuSans-67"/>
      <use xlink:href="#DejaVuSans-6f" x="63.476562"/>
      <use xlink:href="#DejaVuSans-6f" x="124.658203"/>
      <use xlink:href="#DejaVuSans-67" x="185.839844"/>
      <use xlink:href="#DejaVuSans-6c" x="249.316406"/>
      <use xlink:href="#DejaVuSans-65" x="277.099609"/>
      <use xlink:href="#DejaVuSans-2f" x="338.623047"/>
      <use xlink:href="#DejaVuSans-63" x="372.314453"/>
      <use xlink:href="#DejaVuSans-6f" x="427.294922"/>
      <use xlink:href="#DejaVuSans-6d" x="488.476562"/>
      <use xlink:href="#DejaVuSans-70" x="585.888672"/>
      <use xlink:href="#DejaVuSans-75" x="649.365234"/>
      <use xlink:href="#DejaVuSans-74" x="712.744141"/>
      <use xlink:href="#DejaVuSans-65" x="751.953125"/>
      <use xlink:href="#DejaVuSans-2d" x="813.476562"/>
      <use xlink:href="#DejaVuSans-65" x="849.560547"/>
      <use xlink:href="#DejaVuSans-6e" x="911.083984"/>
      <use xlink:href="#DejaVuSans-67" x="974.462891"/>
      <use xlink:href="#DejaVuSans-69" x="1037.939453"/>
      <use xlink:href="#DejaVuSans-6e" x="1065.722656"/>
      <use xlink:href="#DejaVuSans-65" x="1129.101562"/>
      <use xlink:href="#DejaVuSans-2f" x="1190.625"/>
      <use xlink:href="#DejaVuSans-67" x="1224.316406"/>
      <use xlink:href="#DejaVuSans-70" x="1287.792969"/>
      <use xlink:href="#DejaVuSans-75" x="1351.269531"/>
      <use xlink:href="#DejaVuSans-2f" x="1414.648438"/>
      <use xlink:href="#DejaVuSans-6f" x="1448.339844"/>
      <use xlink:href="#DejaVuSans-73" x="1509.521484"/>
      <use xlink:href="#DejaVuSans-75" x="1561.621094"/>
      <use xlink:href="#DejaVuSans-5f" x="1625"/>
      <use xlink:href="#DejaVuSans-61" x="1675"/>
      <use xlink:href="#DejaVuSans-6c" x="1736.279297"/>
      <use xlink:href="#DejaVuSans-6c" x="1764.0625"/>
      <use xlink:href="#DejaVuSans-72" x="1791.845703"/>
      <use xlink:href="#DejaVuSans-65" x="1830.708984"/>
      <use xlink:href="#DejaVuSans-64" x="1892.232422"/>
      <use xlink:href="#DejaVuSans-75" x="1955.708984"/>
      <use xlink:href="#DejaVuSans-63" x="2019.087891"/>
      <use xlink:href="#DejaVuSans-65" x="2074.068359"/>
     </g>
    </g>
    <g id="line2d_22">
     <path d="M 287.417812 177.588656 
L 298.417812 177.588656 
L 309.417812 177.588656 
" style="fill: none; stroke: #797979; stroke-width: 1.5; stroke-linecap: round"/>
    </g>
    <g id="text_15">
     <!-- on-premises/lassen/gpu/osu_allreduce -->
     <g style="fill: #262626" transform="translate(318.217812 181.438656) scale(0.11 -0.11)">
      <use xlink:href="#DejaVuSans-6f"/>
      <use xlink:href="#DejaVuSans-6e" x="61.181641"/>
      <use xlink:href="#DejaVuSans-2d" x="124.560547"/>
      <use xlink:href="#DejaVuSans-70" x="160.644531"/>
      <use xlink:href="#DejaVuSans-72" x="224.121094"/>
      <use xlink:href="#DejaVuSans-65" x="262.984375"/>
      <use xlink:href="#DejaVuSans-6d" x="324.507812"/>
      <use xlink:href="#DejaVuSans-69" x="421.919922"/>
      <use xlink:href="#DejaVuSans-73" x="449.703125"/>
      <use xlink:href="#DejaVuSans-65" x="501.802734"/>
      <use xlink:href="#DejaVuSans-73" x="563.326172"/>
      <use xlink:href="#DejaVuSans-2f" x="615.425781"/>
      <use xlink:href="#DejaVuSans-6c" x="649.117188"/>
      <use xlink:href="#DejaVuSans-61" x="676.900391"/>
      <use xlink:href="#DejaVuSans-73" x="738.179688"/>
      <use xlink:href="#DejaVuSans-73" x="790.279297"/>
      <use xlink:href="#DejaVuSans-65" x="842.378906"/>
      <use xlink:href="#DejaVuSans-6e" x="903.902344"/>
      <use xlink:href="#DejaVuSans-2f" x="967.28125"/>
      <use xlink:href="#DejaVuSans-67" x="1000.972656"/>
      <use xlink:href="#DejaVuSans-70" x="1064.449219"/>
      <use xlink:href="#DejaVuSans-75" x="1127.925781"/>
      <use xlink:href="#DejaVuSans-2f" x="1191.304688"/>
      <use xlink:href="#DejaVuSans-6f" x="1224.996094"/>
      <use xlink:href="#DejaVuSans-73" x="1286.177734"/>
      <use xlink:href="#DejaVuSans-75" x="1338.277344"/>
      <use xlink:href="#DejaVuSans-5f" x="1401.65625"/>
      <use xlink:href="#DejaVuSans-61" x="1451.65625"/>
      <use xlink:href="#DejaVuSans-6c" x="1512.935547"/>
      <use xlink:href="#DejaVuSans-6c" x="1540.71875"/>
      <use xlink:href="#DejaVuSans-72" x="1568.501953"/>
      <use xlink:href="#DejaVuSans-65" x="1607.365234"/>
      <use xlink:href="#DejaVuSans-64" x="1668.888672"/>
      <use xlink:href="#DejaVuSans-75" x="1732.365234"/>
      <use xlink:href="#DejaVuSans-63" x="1795.744141"/>
      <use xlink:href="#DejaVuSans-65" x="1850.724609"/>
     </g>
    </g>
    <g id="line2d_23">
     <path d="M 287.417812 194.040531 
L 298.417812 194.040531 
L 309.417812 194.040531 
" style="fill: none; stroke: #d65f5f; stroke-width: 1.5; stroke-linecap: round"/>
    </g>
    <g id="text_16">
     <!-- azure/cyclecloud/gpu/osu_allreduce -->
     <g style="fill: #262626" transform="translate(318.217812 197.890531) scale(0.11 -0.11)">
      <use xlink:href="#DejaVuSans-61"/>
      <use xlink:href="#DejaVuSans-7a" x="61.279297"/>
      <use xlink:href="#DejaVuSans-75" x="113.769531"/>
      <use xlink:href="#DejaVuSans-72" x="177.148438"/>
      <use xlink:href="#DejaVuSans-65" x="216.011719"/>
      <use xlink:href="#DejaVuSans-2f" x="277.535156"/>
      <use xlink:href="#DejaVuSans-63" x="311.226562"/>
      <use xlink:href="#DejaVuSans-79" x="366.207031"/>
      <use xlink:href="#DejaVuSans-63" x="425.386719"/>
      <use xlink:href="#DejaVuSans-6c" x="480.367188"/>
      <use xlink:href="#DejaVuSans-65" x="508.150391"/>
      <use xlink:href="#DejaVuSans-63" x="569.673828"/>
      <use xlink:href="#DejaVuSans-6c" x="624.654297"/>
      <use xlink:href="#DejaVuSans-6f" x="652.4375"/>
      <use xlink:href="#DejaVuSans-75" x="713.619141"/>
      <use xlink:href="#DejaVuSans-64" x="776.998047"/>
      <use xlink:href="#DejaVuSans-2f" x="840.474609"/>
      <use xlink:href="#DejaVuSans-67" x="874.166016"/>
      <use xlink:href="#DejaVuSans-70" x="937.642578"/>
      <use xlink:href="#DejaVuSans-75" x="1001.119141"/>
      <use xlink:href="#DejaVuSans-2f" x="1064.498047"/>
      <use xlink:href="#DejaVuSans-6f" x="1098.189453"/>
      <use xlink:href="#DejaVuSans-73" x="1159.371094"/>
      <use xlink:href="#DejaVuSans-75" x="1211.470703"/>
      <use xlink:href="#DejaVuSans-5f" x="1274.849609"/>
      <use xlink:href="#DejaVuSans-61" x="1324.849609"/>
      <use xlink:href="#DejaVuSans-6c" x="1386.128906"/>
      <use xlink:href="#DejaVuSans-6c" x="1413.912109"/>
      <use xlink:href="#DejaVuSans-72" x="1441.695312"/>
      <use xlink:href="#DejaVuSans-65" x="1480.558594"/>
      <use xlink:href="#DejaVuSans-64" x="1542.082031"/>
      <use xlink:href="#DejaVuSans-75" x="1605.558594"/>
      <use xlink:href="#DejaVuSans-63" x="1668.9375"/>
      <use xlink:href="#DejaVuSans-65" x="1723.917969"/>
     </g>
    </g>
    <g id="line2d_24">
     <path d="M 287.417812 210.492406 
L 298.417812 210.492406 
L 309.417812 210.492406 
" style="fill: none; stroke: #008000; stroke-width: 1.5; stroke-linecap: round"/>
    </g>
    <g id="text_17">
     <!-- azure/aks/gpu/osu_allreduce -->
     <g style="fill: #262626" transform="translate(318.217812 214.342406) scale(0.11 -0.11)">
      <use xlink:href="#DejaVuSans-61"/>
      <use xlink:href="#DejaVuSans-7a" x="61.279297"/>
      <use xlink:href="#DejaVuSans-75" x="113.769531"/>
      <use xlink:href="#DejaVuSans-72" x="177.148438"/>
      <use xlink:href="#DejaVuSans-65" x="216.011719"/>
      <use xlink:href="#DejaVuSans-2f" x="277.535156"/>
      <use xlink:href="#DejaVuSans-61" x="311.226562"/>
      <use xlink:href="#DejaVuSans-6b" x="372.505859"/>
      <use xlink:href="#DejaVuSans-73" x="430.416016"/>
      <use xlink:href="#DejaVuSans-2f" x="482.515625"/>
      <use xlink:href="#DejaVuSans-67" x="516.207031"/>
      <use xlink:href="#DejaVuSans-70" x="579.683594"/>
      <use xlink:href="#DejaVuSans-75" x="643.160156"/>
      <use xlink:href="#DejaVuSans-2f" x="706.539062"/>
      <use xlink:href="#DejaVuSans-6f" x="740.230469"/>
      <use xlink:href="#DejaVuSans-73" x="801.412109"/>
      <use xlink:href="#DejaVuSans-75" x="853.511719"/>
      <use xlink:href="#DejaVuSans-5f" x="916.890625"/>
      <use xlink:href="#DejaVuSans-61" x="966.890625"/>
      <use xlink:href="#DejaVuSans-6c" x="1028.169922"/>
      <use xlink:href="#DejaVuSans-6c" x="1055.953125"/>
      <use xlink:href="#DejaVuSans-72" x="1083.736328"/>
      <use xlink:href="#DejaVuSans-65" x="1122.599609"/>
      <use xlink:href="#DejaVuSans-64" x="1184.123047"/>
      <use xlink:href="#DejaVuSans-75" x="1247.599609"/>
      <use xlink:href="#DejaVuSans-63" x="1310.978516"/>
      <use xlink:href="#DejaVuSans-65" x="1365.958984"/>
     </g>
    </g>
   </g>
  </g>
 </g>
 <defs>
  <clipPath id="p7cb6ef7cad">
   <rect x="71.193553" y="31.92" width="491.846447" height="194.916"/>
  </clipPath>
 </defs>
</svg>
