<?xml version="1.0" encoding="utf-8" standalone="no"?>
<!DOCTYPE svg PUBLIC "-//W3C//DTD SVG 1.1//EN"
  "http://www.w3.org/Graphics/SVG/1.1/DTD/svg11.dtd">
<svg xmlns:xlink="http://www.w3.org/1999/xlink" width="576pt" height="288pt" viewBox="0 0 576 288" xmlns="http://www.w3.org/2000/svg" version="1.1">
 <metadata>
  <rdf:RDF xmlns:dc="http://purl.org/dc/elements/1.1/" xmlns:cc="http://creativecommons.org/ns#" xmlns:rdf="http://www.w3.org/1999/02/22-rdf-syntax-ns#">
   <cc:Work>
    <dc:type rdf:resource="http://purl.org/dc/dcmitype/StillImage"/>
    <dc:date>2025-02-04T10:13:24.482391</dc:date>
    <dc:format>image/svg+xml</dc:format>
    <dc:creator>
     <cc:Agent>
      <dc:title>Matplotlib v3.8.4, https://matplotlib.org/</dc:title>
     </cc:Agent>
    </dc:creator>
   </cc:Work>
  </rdf:RDF>
 </metadata>
 <defs>
  <style type="text/css">*{stroke-linejoin: round; stroke-linecap: butt}</style>
 </defs>
 <g id="figure_1">
  <g id="patch_1">
   <path d="M 0 288 
L 576 288 
L 576 0 
L 0 0 
z
" style="fill: #ffffff"/>
  </g>
  <g id="axes_1">
   <g id="patch_2">
    <path d="M 71.193553 226.836 
L 563.04 226.836 
L 563.04 31.92 
L 71.193553 31.92 
z
" style="fill: #ffffff"/>
   </g>
   <g id="matplotlib.axis_1">
    <g id="xtick_1">
     <g id="line2d_1">
      <path d="M 93.55021 226.836 
L 93.55021 31.92 
" clip-path="url(#p96deaecee2)" style="fill: none; stroke: #cccccc; stroke-linecap: round"/>
     </g>
     <g id="text_1">
      <!-- $\mathdefault{10^{0}}$ -->
      <g style="fill: #262626" transform="translate(79.47021 248.4935) scale(0.16 -0.16)">
       <defs>
        <path id="DejaVuSans-31" d="M 794 531 
L 1825 531 
L 1825 4091 
L 703 3866 
L 703 4441 
L 1819 4666 
L 2450 4666 
L 2450 531 
L 3481 531 
L 3481 0 
L 794 0 
L 794 531 
z
" transform="scale(0.015625)"/>
        <path id="DejaVuSans-30" d="M 2034 4250 
Q 1547 4250 1301 3770 
Q 1056 3291 1056 2328 
Q 1056 1369 1301 889 
Q 1547 409 2034 409 
Q 2525 409 2770 889 
Q 3016 1369 3016 2328 
Q 3016 3291 2770 3770 
Q 2525 4250 2034 4250 
z
M 2034 4750 
Q 2819 4750 3233 4129 
Q 3647 3509 3647 2328 
Q 3647 1150 3233 529 
Q 2819 -91 2034 -91 
Q 1250 -91 836 529 
Q 422 1150 422 2328 
Q 422 3509 836 4129 
Q 1250 4750 2034 4750 
z
" transform="scale(0.015625)"/>
       </defs>
       <use xlink:href="#DejaVuSans-31" transform="translate(0 0.765625)"/>
       <use xlink:href="#DejaVuSans-30" transform="translate(63.623047 0.765625)"/>
       <use xlink:href="#DejaVuSans-30" transform="translate(128.203125 39.046875) scale(0.7)"/>
      </g>
     </g>
    </g>
    <g id="xtick_2">
     <g id="line2d_2">
      <path d="M 161.065852 226.836 
L 161.065852 31.92 
" clip-path="url(#p96deaecee2)" style="fill: none; stroke: #cccccc; stroke-linecap: round"/>
     </g>
     <g id="text_2">
      <!-- $\mathdefault{10^{1}}$ -->
      <g style="fill: #262626" transform="translate(146.985852 248.4935) scale(0.16 -0.16)">
       <use xlink:href="#DejaVuSans-31" transform="translate(0 0.684375)"/>
       <use xlink:href="#DejaVuSans-30" transform="translate(63.623047 0.684375)"/>
       <use xlink:href="#DejaVuSans-31" transform="translate(128.203125 38.965625) scale(0.7)"/>
      </g>
     </g>
    </g>
    <g id="xtick_3">
     <g id="line2d_3">
      <path d="M 228.581493 226.836 
L 228.581493 31.92 
" clip-path="url(#p96deaecee2)" style="fill: none; stroke: #cccccc; stroke-linecap: round"/>
     </g>
     <g id="text_3">
      <!-- $\mathdefault{10^{2}}$ -->
      <g style="fill: #262626" transform="translate(214.501493 248.4935) scale(0.16 -0.16)">
       <defs>
        <path id="DejaVuSans-32" d="M 1228 531 
L 3431 531 
L 3431 0 
L 469 0 
L 469 531 
Q 828 903 1448 1529 
Q 2069 2156 2228 2338 
Q 2531 2678 2651 2914 
Q 2772 3150 2772 3378 
Q 2772 3750 2511 3984 
Q 2250 4219 1831 4219 
Q 1534 4219 1204 4116 
Q 875 4013 500 3803 
L 500 4441 
Q 881 4594 1212 4672 
Q 1544 4750 1819 4750 
Q 2544 4750 2975 4387 
Q 3406 4025 3406 3419 
Q 3406 3131 3298 2873 
Q 3191 2616 2906 2266 
Q 2828 2175 2409 1742 
Q 1991 1309 1228 531 
z
" transform="scale(0.015625)"/>
       </defs>
       <use xlink:href="#DejaVuSans-31" transform="translate(0 0.765625)"/>
       <use xlink:href="#DejaVuSans-30" transform="translate(63.623047 0.765625)"/>
       <use xlink:href="#DejaVuSans-32" transform="translate(128.203125 39.046875) scale(0.7)"/>
      </g>
     </g>
    </g>
    <g id="xtick_4">
     <g id="line2d_4">
      <path d="M 296.097135 226.836 
L 296.097135 31.92 
" clip-path="url(#p96deaecee2)" style="fill: none; stroke: #cccccc; stroke-linecap: round"/>
     </g>
     <g id="text_4">
      <!-- $\mathdefault{10^{3}}$ -->
      <g style="fill: #262626" transform="translate(282.017135 248.4935) scale(0.16 -0.16)">
       <defs>
        <path id="DejaVuSans-33" d="M 2597 2516 
Q 3050 2419 3304 2112 
Q 3559 1806 3559 1356 
Q 3559 666 3084 287 
Q 2609 -91 1734 -91 
Q 1441 -91 1130 -33 
Q 819 25 488 141 
L 488 750 
Q 750 597 1062 519 
Q 1375 441 1716 441 
Q 2309 441 2620 675 
Q 2931 909 2931 1356 
Q 2931 1769 2642 2001 
Q 2353 2234 1838 2234 
L 1294 2234 
L 1294 2753 
L 1863 2753 
Q 2328 2753 2575 2939 
Q 2822 3125 2822 3475 
Q 2822 3834 2567 4026 
Q 2313 4219 1838 4219 
Q 1578 4219 1281 4162 
Q 984 4106 628 3988 
L 628 4550 
Q 988 4650 1302 4700 
Q 1616 4750 1894 4750 
Q 2613 4750 3031 4423 
Q 3450 4097 3450 3541 
Q 3450 3153 3228 2886 
Q 3006 2619 2597 2516 
z
" transform="scale(0.015625)"/>
       </defs>
       <use xlink:href="#DejaVuSans-31" transform="translate(0 0.765625)"/>
       <use xlink:href="#DejaVuSans-30" transform="translate(63.623047 0.765625)"/>
       <use xlink:href="#DejaVuSans-33" transform="translate(128.203125 39.046875) scale(0.7)"/>
      </g>
     </g>
    </g>
    <g id="xtick_5">
     <g id="line2d_5">
      <path d="M 363.612777 226.836 
L 363.612777 31.92 
" clip-path="url(#p96deaecee2)" style="fill: none; stroke: #cccccc; stroke-linecap: round"/>
     </g>
     <g id="text_5">
      <!-- $\mathdefault{10^{4}}$ -->
      <g style="fill: #262626" transform="translate(349.532777 248.4935) scale(0.16 -0.16)">
       <defs>
        <path id="DejaVuSans-34" d="M 2419 4116 
L 825 1625 
L 2419 1625 
L 2419 4116 
z
M 2253 4666 
L 3047 4666 
L 3047 1625 
L 3713 1625 
L 3713 1100 
L 3047 1100 
L 3047 0 
L 2419 0 
L 2419 1100 
L 313 1100 
L 313 1709 
L 2253 4666 
z
" transform="scale(0.015625)"/>
       </defs>
       <use xlink:href="#DejaVuSans-31" transform="translate(0 0.684375)"/>
       <use xlink:href="#DejaVuSans-30" transform="translate(63.623047 0.684375)"/>
       <use xlink:href="#DejaVuSans-34" transform="translate(128.203125 38.965625) scale(0.7)"/>
      </g>
     </g>
    </g>
    <g id="xtick_6">
     <g id="line2d_6">
      <path d="M 431.128419 226.836 
L 431.128419 31.92 
" clip-path="url(#p96deaecee2)" style="fill: none; stroke: #cccccc; stroke-linecap: round"/>
     </g>
     <g id="text_6">
      <!-- $\mathdefault{10^{5}}$ -->
      <g style="fill: #262626" transform="translate(417.048419 248.4935) scale(0.16 -0.16)">
       <defs>
        <path id="DejaVuSans-35" d="M 691 4666 
L 3169 4666 
L 3169 4134 
L 1269 4134 
L 1269 2991 
Q 1406 3038 1543 3061 
Q 1681 3084 1819 3084 
Q 2600 3084 3056 2656 
Q 3513 2228 3513 1497 
Q 3513 744 3044 326 
Q 2575 -91 1722 -91 
Q 1428 -91 1123 -41 
Q 819 9 494 109 
L 494 744 
Q 775 591 1075 516 
Q 1375 441 1709 441 
Q 2250 441 2565 725 
Q 2881 1009 2881 1497 
Q 2881 1984 2565 2268 
Q 2250 2553 1709 2553 
Q 1456 2553 1204 2497 
Q 953 2441 691 2322 
L 691 4666 
z
" transform="scale(0.015625)"/>
       </defs>
       <use xlink:href="#DejaVuSans-31" transform="translate(0 0.684375)"/>
       <use xlink:href="#DejaVuSans-30" transform="translate(63.623047 0.684375)"/>
       <use xlink:href="#DejaVuSans-35" transform="translate(128.203125 38.965625) scale(0.7)"/>
      </g>
     </g>
    </g>
    <g id="xtick_7">
     <g id="line2d_7">
      <path d="M 498.64406 226.836 
L 498.64406 31.92 
" clip-path="url(#p96deaecee2)" style="fill: none; stroke: #cccccc; stroke-linecap: round"/>
     </g>
     <g id="text_7">
      <!-- $\mathdefault{10^{6}}$ -->
      <g style="fill: #262626" transform="translate(484.56406 248.4935) scale(0.16 -0.16)">
       <defs>
        <path id="DejaVuSans-36" d="M 2113 2584 
Q 1688 2584 1439 2293 
Q 1191 2003 1191 1497 
Q 1191 994 1439 701 
Q 1688 409 2113 409 
Q 2538 409 2786 701 
Q 3034 994 3034 1497 
Q 3034 2003 2786 2293 
Q 2538 2584 2113 2584 
z
M 3366 4563 
L 3366 3988 
Q 3128 4100 2886 4159 
Q 2644 4219 2406 4219 
Q 1781 4219 1451 3797 
Q 1122 3375 1075 2522 
Q 1259 2794 1537 2939 
Q 1816 3084 2150 3084 
Q 2853 3084 3261 2657 
Q 3669 2231 3669 1497 
Q 3669 778 3244 343 
Q 2819 -91 2113 -91 
Q 1303 -91 875 529 
Q 447 1150 447 2328 
Q 447 3434 972 4092 
Q 1497 4750 2381 4750 
Q 2619 4750 2861 4703 
Q 3103 4656 3366 4563 
z
" transform="scale(0.015625)"/>
       </defs>
       <use xlink:href="#DejaVuSans-31" transform="translate(0 0.765625)"/>
       <use xlink:href="#DejaVuSans-30" transform="translate(63.623047 0.765625)"/>
       <use xlink:href="#DejaVuSans-36" transform="translate(128.203125 39.046875) scale(0.7)"/>
      </g>
     </g>
    </g>
    <g id="xtick_8"/>
    <g id="xtick_9"/>
    <g id="xtick_10"/>
    <g id="xtick_11"/>
    <g id="xtick_12"/>
    <g id="xtick_13"/>
    <g id="xtick_14"/>
    <g id="xtick_15"/>
    <g id="xtick_16"/>
    <g id="xtick_17"/>
    <g id="xtick_18"/>
    <g id="xtick_19"/>
    <g id="xtick_20"/>
    <g id="xtick_21"/>
    <g id="xtick_22"/>
    <g id="xtick_23"/>
    <g id="xtick_24"/>
    <g id="xtick_25"/>
    <g id="xtick_26"/>
    <g id="xtick_27"/>
    <g id="xtick_28"/>
    <g id="xtick_29"/>
    <g id="xtick_30"/>
    <g id="xtick_31"/>
    <g id="xtick_32"/>
    <g id="xtick_33"/>
    <g id="xtick_34"/>
    <g id="xtick_35"/>
    <g id="xtick_36"/>
    <g id="xtick_37"/>
    <g id="xtick_38"/>
    <g id="xtick_39"/>
    <g id="xtick_40"/>
    <g id="xtick_41"/>
    <g id="xtick_42"/>
    <g id="xtick_43"/>
    <g id="xtick_44"/>
    <g id="xtick_45"/>
    <g id="xtick_46"/>
    <g id="xtick_47"/>
    <g id="xtick_48"/>
    <g id="xtick_49"/>
    <g id="xtick_50"/>
    <g id="xtick_51"/>
    <g id="xtick_52"/>
    <g id="xtick_53"/>
    <g id="xtick_54"/>
    <g id="xtick_55"/>
    <g id="xtick_56"/>
    <g id="xtick_57"/>
    <g id="xtick_58"/>
    <g id="xtick_59"/>
    <g id="xtick_60"/>
    <g id="xtick_61"/>
    <g id="xtick_62"/>
    <g id="xtick_63"/>
    <g id="xtick_64"/>
    <g id="xtick_65"/>
    <g id="xtick_66"/>
    <g id="xtick_67"/>
    <g id="text_8">
     <!-- Message size in bytes (logscale) -->
     <g style="fill: #262626" transform="translate(187.986777 267.9785) scale(0.16 -0.16)">
      <defs>
       <path id="DejaVuSans-4d" d="M 628 4666 
L 1569 4666 
L 2759 1491 
L 3956 4666 
L 4897 4666 
L 4897 0 
L 4281 0 
L 4281 4097 
L 3078 897 
L 2444 897 
L 1241 4097 
L 1241 0 
L 628 0 
L 628 4666 
z
" transform="scale(0.015625)"/>
       <path id="DejaVuSans-65" d="M 3597 1894 
L 3597 1613 
L 953 1613 
Q 991 1019 1311 708 
Q 1631 397 2203 397 
Q 2534 397 2845 478 
Q 3156 559 3463 722 
L 3463 178 
Q 3153 47 2828 -22 
Q 2503 -91 2169 -91 
Q 1331 -91 842 396 
Q 353 884 353 1716 
Q 353 2575 817 3079 
Q 1281 3584 2069 3584 
Q 2775 3584 3186 3129 
Q 3597 2675 3597 1894 
z
M 3022 2063 
Q 3016 2534 2758 2815 
Q 2500 3097 2075 3097 
Q 1594 3097 1305 2825 
Q 1016 2553 972 2059 
L 3022 2063 
z
" transform="scale(0.015625)"/>
       <path id="DejaVuSans-73" d="M 2834 3397 
L 2834 2853 
Q 2591 2978 2328 3040 
Q 2066 3103 1784 3103 
Q 1356 3103 1142 2972 
Q 928 2841 928 2578 
Q 928 2378 1081 2264 
Q 1234 2150 1697 2047 
L 1894 2003 
Q 2506 1872 2764 1633 
Q 3022 1394 3022 966 
Q 3022 478 2636 193 
Q 2250 -91 1575 -91 
Q 1294 -91 989 -36 
Q 684 19 347 128 
L 347 722 
Q 666 556 975 473 
Q 1284 391 1588 391 
Q 1994 391 2212 530 
Q 2431 669 2431 922 
Q 2431 1156 2273 1281 
Q 2116 1406 1581 1522 
L 1381 1569 
Q 847 1681 609 1914 
Q 372 2147 372 2553 
Q 372 3047 722 3315 
Q 1072 3584 1716 3584 
Q 2034 3584 2315 3537 
Q 2597 3491 2834 3397 
z
" transform="scale(0.015625)"/>
       <path id="DejaVuSans-61" d="M 2194 1759 
Q 1497 1759 1228 1600 
Q 959 1441 959 1056 
Q 959 750 1161 570 
Q 1363 391 1709 391 
Q 2188 391 2477 730 
Q 2766 1069 2766 1631 
L 2766 1759 
L 2194 1759 
z
M 3341 1997 
L 3341 0 
L 2766 0 
L 2766 531 
Q 2569 213 2275 61 
Q 1981 -91 1556 -91 
Q 1019 -91 701 211 
Q 384 513 384 1019 
Q 384 1609 779 1909 
Q 1175 2209 1959 2209 
L 2766 2209 
L 2766 2266 
Q 2766 2663 2505 2880 
Q 2244 3097 1772 3097 
Q 1472 3097 1187 3025 
Q 903 2953 641 2809 
L 641 3341 
Q 956 3463 1253 3523 
Q 1550 3584 1831 3584 
Q 2591 3584 2966 3190 
Q 3341 2797 3341 1997 
z
" transform="scale(0.015625)"/>
       <path id="DejaVuSans-67" d="M 2906 1791 
Q 2906 2416 2648 2759 
Q 2391 3103 1925 3103 
Q 1463 3103 1205 2759 
Q 947 2416 947 1791 
Q 947 1169 1205 825 
Q 1463 481 1925 481 
Q 2391 481 2648 825 
Q 2906 1169 2906 1791 
z
M 3481 434 
Q 3481 -459 3084 -895 
Q 2688 -1331 1869 -1331 
Q 1566 -1331 1297 -1286 
Q 1028 -1241 775 -1147 
L 775 -588 
Q 1028 -725 1275 -790 
Q 1522 -856 1778 -856 
Q 2344 -856 2625 -561 
Q 2906 -266 2906 331 
L 2906 616 
Q 2728 306 2450 153 
Q 2172 0 1784 0 
Q 1141 0 747 490 
Q 353 981 353 1791 
Q 353 2603 747 3093 
Q 1141 3584 1784 3584 
Q 2172 3584 2450 3431 
Q 2728 3278 2906 2969 
L 2906 3500 
L 3481 3500 
L 3481 434 
z
" transform="scale(0.015625)"/>
       <path id="DejaVuSans-20" transform="scale(0.015625)"/>
       <path id="DejaVuSans-69" d="M 603 3500 
L 1178 3500 
L 1178 0 
L 603 0 
L 603 3500 
z
M 603 4863 
L 1178 4863 
L 1178 4134 
L 603 4134 
L 603 4863 
z
" transform="scale(0.015625)"/>
       <path id="DejaVuSans-7a" d="M 353 3500 
L 3084 3500 
L 3084 2975 
L 922 459 
L 3084 459 
L 3084 0 
L 275 0 
L 275 525 
L 2438 3041 
L 353 3041 
L 353 3500 
z
" transform="scale(0.015625)"/>
       <path id="DejaVuSans-6e" d="M 3513 2113 
L 3513 0 
L 2938 0 
L 2938 2094 
Q 2938 2591 2744 2837 
Q 2550 3084 2163 3084 
Q 1697 3084 1428 2787 
Q 1159 2491 1159 1978 
L 1159 0 
L 581 0 
L 581 3500 
L 1159 3500 
L 1159 2956 
Q 1366 3272 1645 3428 
Q 1925 3584 2291 3584 
Q 2894 3584 3203 3211 
Q 3513 2838 3513 2113 
z
" transform="scale(0.015625)"/>
       <path id="DejaVuSans-62" d="M 3116 1747 
Q 3116 2381 2855 2742 
Q 2594 3103 2138 3103 
Q 1681 3103 1420 2742 
Q 1159 2381 1159 1747 
Q 1159 1113 1420 752 
Q 1681 391 2138 391 
Q 2594 391 2855 752 
Q 3116 1113 3116 1747 
z
M 1159 2969 
Q 1341 3281 1617 3432 
Q 1894 3584 2278 3584 
Q 2916 3584 3314 3078 
Q 3713 2572 3713 1747 
Q 3713 922 3314 415 
Q 2916 -91 2278 -91 
Q 1894 -91 1617 61 
Q 1341 213 1159 525 
L 1159 0 
L 581 0 
L 581 4863 
L 1159 4863 
L 1159 2969 
z
" transform="scale(0.015625)"/>
       <path id="DejaVuSans-79" d="M 2059 -325 
Q 1816 -950 1584 -1140 
Q 1353 -1331 966 -1331 
L 506 -1331 
L 506 -850 
L 844 -850 
Q 1081 -850 1212 -737 
Q 1344 -625 1503 -206 
L 1606 56 
L 191 3500 
L 800 3500 
L 1894 763 
L 2988 3500 
L 3597 3500 
L 2059 -325 
z
" transform="scale(0.015625)"/>
       <path id="DejaVuSans-74" d="M 1172 4494 
L 1172 3500 
L 2356 3500 
L 2356 3053 
L 1172 3053 
L 1172 1153 
Q 1172 725 1289 603 
Q 1406 481 1766 481 
L 2356 481 
L 2356 0 
L 1766 0 
Q 1100 0 847 248 
Q 594 497 594 1153 
L 594 3053 
L 172 3053 
L 172 3500 
L 594 3500 
L 594 4494 
L 1172 4494 
z
" transform="scale(0.015625)"/>
       <path id="DejaVuSans-28" d="M 1984 4856 
Q 1566 4138 1362 3434 
Q 1159 2731 1159 2009 
Q 1159 1288 1364 580 
Q 1569 -128 1984 -844 
L 1484 -844 
Q 1016 -109 783 600 
Q 550 1309 550 2009 
Q 550 2706 781 3412 
Q 1013 4119 1484 4856 
L 1984 4856 
z
" transform="scale(0.015625)"/>
       <path id="DejaVuSans-6c" d="M 603 4863 
L 1178 4863 
L 1178 0 
L 603 0 
L 603 4863 
z
" transform="scale(0.015625)"/>
       <path id="DejaVuSans-6f" d="M 1959 3097 
Q 1497 3097 1228 2736 
Q 959 2375 959 1747 
Q 959 1119 1226 758 
Q 1494 397 1959 397 
Q 2419 397 2687 759 
Q 2956 1122 2956 1747 
Q 2956 2369 2687 2733 
Q 2419 3097 1959 3097 
z
M 1959 3584 
Q 2709 3584 3137 3096 
Q 3566 2609 3566 1747 
Q 3566 888 3137 398 
Q 2709 -91 1959 -91 
Q 1206 -91 779 398 
Q 353 888 353 1747 
Q 353 2609 779 3096 
Q 1206 3584 1959 3584 
z
" transform="scale(0.015625)"/>
       <path id="DejaVuSans-63" d="M 3122 3366 
L 3122 2828 
Q 2878 2963 2633 3030 
Q 2388 3097 2138 3097 
Q 1578 3097 1268 2742 
Q 959 2388 959 1747 
Q 959 1106 1268 751 
Q 1578 397 2138 397 
Q 2388 397 2633 464 
Q 2878 531 3122 666 
L 3122 134 
Q 2881 22 2623 -34 
Q 2366 -91 2075 -91 
Q 1284 -91 818 406 
Q 353 903 353 1747 
Q 353 2603 823 3093 
Q 1294 3584 2113 3584 
Q 2378 3584 2631 3529 
Q 2884 3475 3122 3366 
z
" transform="scale(0.015625)"/>
       <path id="DejaVuSans-29" d="M 513 4856 
L 1013 4856 
Q 1481 4119 1714 3412 
Q 1947 2706 1947 2009 
Q 1947 1309 1714 600 
Q 1481 -109 1013 -844 
L 513 -844 
Q 928 -128 1133 580 
Q 1338 1288 1338 2009 
Q 1338 2731 1133 3434 
Q 928 4138 513 4856 
z
" transform="scale(0.015625)"/>
      </defs>
      <use xlink:href="#DejaVuSans-4d"/>
      <use xlink:href="#DejaVuSans-65" x="86.279297"/>
      <use xlink:href="#DejaVuSans-73" x="147.802734"/>
      <use xlink:href="#DejaVuSans-73" x="199.902344"/>
      <use xlink:href="#DejaVuSans-61" x="252.001953"/>
      <use xlink:href="#DejaVuSans-67" x="313.28125"/>
      <use xlink:href="#DejaVuSans-65" x="376.757812"/>
      <use xlink:href="#DejaVuSans-20" x="438.28125"/>
      <use xlink:href="#DejaVuSans-73" x="470.068359"/>
      <use xlink:href="#DejaVuSans-69" x="522.167969"/>
      <use xlink:href="#DejaVuSans-7a" x="549.951172"/>
      <use xlink:href="#DejaVuSans-65" x="602.441406"/>
      <use xlink:href="#DejaVuSans-20" x="663.964844"/>
      <use xlink:href="#DejaVuSans-69" x="695.751953"/>
      <use xlink:href="#DejaVuSans-6e" x="723.535156"/>
      <use xlink:href="#DejaVuSans-20" x="786.914062"/>
      <use xlink:href="#DejaVuSans-62" x="818.701172"/>
      <use xlink:href="#DejaVuSans-79" x="882.177734"/>
      <use xlink:href="#DejaVuSans-74" x="941.357422"/>
      <use xlink:href="#DejaVuSans-65" x="980.566406"/>
      <use xlink:href="#DejaVuSans-73" x="1042.089844"/>
      <use xlink:href="#DejaVuSans-20" x="1094.189453"/>
      <use xlink:href="#DejaVuSans-28" x="1125.976562"/>
      <use xlink:href="#DejaVuSans-6c" x="1164.990234"/>
      <use xlink:href="#DejaVuSans-6f" x="1192.773438"/>
      <use xlink:href="#DejaVuSans-67" x="1253.955078"/>
      <use xlink:href="#DejaVuSans-73" x="1317.431641"/>
      <use xlink:href="#DejaVuSans-63" x="1369.53125"/>
      <use xlink:href="#DejaVuSans-61" x="1424.511719"/>
      <use xlink:href="#DejaVuSans-6c" x="1485.791016"/>
      <use xlink:href="#DejaVuSans-65" x="1513.574219"/>
      <use xlink:href="#DejaVuSans-29" x="1575.097656"/>
     </g>
    </g>
   </g>
   <g id="matplotlib.axis_2">
    <g id="ytick_1">
     <g id="line2d_8">
      <path d="M 71.193553 176.099653 
L 563.04 176.099653 
" clip-path="url(#p96deaecee2)" style="fill: none; stroke: #cccccc; stroke-linecap: round"/>
     </g>
     <g id="text_9">
      <!-- $\mathdefault{10^{1}}$ -->
      <g style="fill: #262626" transform="translate(33.533553 182.178403) scale(0.16 -0.16)">
       <use xlink:href="#DejaVuSans-31" transform="translate(0 0.684375)"/>
       <use xlink:href="#DejaVuSans-30" transform="translate(63.623047 0.684375)"/>
       <use xlink:href="#DejaVuSans-31" transform="translate(128.203125 38.965625) scale(0.7)"/>
      </g>
     </g>
    </g>
    <g id="ytick_2">
     <g id="line2d_9">
      <path d="M 71.193553 124.285344 
L 563.04 124.285344 
" clip-path="url(#p96deaecee2)" style="fill: none; stroke: #cccccc; stroke-linecap: round"/>
     </g>
     <g id="text_10">
      <!-- $\mathdefault{10^{2}}$ -->
      <g style="fill: #262626" transform="translate(33.533553 130.364094) scale(0.16 -0.16)">
       <use xlink:href="#DejaVuSans-31" transform="translate(0 0.765625)"/>
       <use xlink:href="#DejaVuSans-30" transform="translate(63.623047 0.765625)"/>
       <use xlink:href="#DejaVuSans-32" transform="translate(128.203125 39.046875) scale(0.7)"/>
      </g>
     </g>
    </g>
    <g id="ytick_3">
     <g id="line2d_10">
      <path d="M 71.193553 72.471036 
L 563.04 72.471036 
" clip-path="url(#p96deaecee2)" style="fill: none; stroke: #cccccc; stroke-linecap: round"/>
     </g>
     <g id="text_11">
      <!-- $\mathdefault{10^{3}}$ -->
      <g style="fill: #262626" transform="translate(33.533553 78.549786) scale(0.16 -0.16)">
       <use xlink:href="#DejaVuSans-31" transform="translate(0 0.765625)"/>
       <use xlink:href="#DejaVuSans-30" transform="translate(63.623047 0.765625)"/>
       <use xlink:href="#DejaVuSans-33" transform="translate(128.203125 39.046875) scale(0.7)"/>
      </g>
     </g>
    </g>
    <g id="ytick_4"/>
    <g id="ytick_5"/>
    <g id="ytick_6"/>
    <g id="ytick_7"/>
    <g id="ytick_8"/>
    <g id="ytick_9"/>
    <g id="ytick_10"/>
    <g id="ytick_11"/>
    <g id="ytick_12"/>
    <g id="ytick_13"/>
    <g id="ytick_14"/>
    <g id="ytick_15"/>
    <g id="ytick_16"/>
    <g id="ytick_17"/>
    <g id="ytick_18"/>
    <g id="ytick_19"/>
    <g id="ytick_20"/>
    <g id="ytick_21"/>
    <g id="ytick_22"/>
    <g id="ytick_23"/>
    <g id="ytick_24"/>
    <g id="ytick_25"/>
    <g id="ytick_26"/>
    <g id="ytick_27"/>
    <g id="ytick_28"/>
    <g id="ytick_29"/>
    <g id="ytick_30"/>
    <g id="ytick_31"/>
    <g id="ytick_32"/>
    <g id="text_12">
     <!-- latency us (logscale) -->
     <g style="fill: #262626" transform="translate(26.206053 212.1405) rotate(-90) scale(0.16 -0.16)">
      <defs>
       <path id="DejaVuSans-75" d="M 544 1381 
L 544 3500 
L 1119 3500 
L 1119 1403 
Q 1119 906 1312 657 
Q 1506 409 1894 409 
Q 2359 409 2629 706 
Q 2900 1003 2900 1516 
L 2900 3500 
L 3475 3500 
L 3475 0 
L 2900 0 
L 2900 538 
Q 2691 219 2414 64 
Q 2138 -91 1772 -91 
Q 1169 -91 856 284 
Q 544 659 544 1381 
z
M 1991 3584 
L 1991 3584 
z
" transform="scale(0.015625)"/>
      </defs>
      <use xlink:href="#DejaVuSans-6c"/>
      <use xlink:href="#DejaVuSans-61" x="27.783203"/>
      <use xlink:href="#DejaVuSans-74" x="89.0625"/>
      <use xlink:href="#DejaVuSans-65" x="128.271484"/>
      <use xlink:href="#DejaVuSans-6e" x="189.794922"/>
      <use xlink:href="#DejaVuSans-63" x="253.173828"/>
      <use xlink:href="#DejaVuSans-79" x="308.154297"/>
      <use xlink:href="#DejaVuSans-20" x="367.333984"/>
      <use xlink:href="#DejaVuSans-75" x="399.121094"/>
      <use xlink:href="#DejaVuSans-73" x="462.5"/>
      <use xlink:href="#DejaVuSans-20" x="514.599609"/>
      <use xlink:href="#DejaVuSans-28" x="546.386719"/>
      <use xlink:href="#DejaVuSans-6c" x="585.400391"/>
      <use xlink:href="#DejaVuSans-6f" x="613.183594"/>
      <use xlink:href="#DejaVuSans-67" x="674.365234"/>
      <use xlink:href="#DejaVuSans-73" x="737.841797"/>
      <use xlink:href="#DejaVuSans-63" x="789.941406"/>
      <use xlink:href="#DejaVuSans-61" x="844.921875"/>
      <use xlink:href="#DejaVuSans-6c" x="906.201172"/>
      <use xlink:href="#DejaVuSans-65" x="933.984375"/>
      <use xlink:href="#DejaVuSans-29" x="995.507812"/>
     </g>
    </g>
   </g>
   <g id="PolyCollection_1">
    <path d="M -67422.091495 146.977534 
L -67422.091495 147.446199 
L 93.55021 147.636414 
L 113.874443 147.572996 
L 134.198677 147.518544 
L 154.52291 147.554019 
L 174.847143 147.543138 
L 195.171377 147.529921 
L 215.49561 145.782025 
L 235.819843 145.503737 
L 256.144077 144.560847 
L 276.46831 144.365741 
L 296.792543 144.092419 
L 317.116777 142.886606 
L 337.44101 141.284829 
L 357.765243 138.08068 
L 378.089477 134.59061 
L 398.41371 127.963686 
L 418.737943 108.417648 
L 439.062177 104.150877 
L 459.38641 97.93133 
L 479.710643 90.151515 
L 500.034877 79.571898 
L 520.35911 66.74381 
L 540.683343 52.69717 
L 540.683343 52.585486 
L 540.683343 52.585486 
L 520.35911 66.638594 
L 500.034877 79.461215 
L 479.710643 89.968473 
L 459.38641 97.716562 
L 439.062177 103.88599 
L 418.737943 108.069582 
L 398.41371 127.586827 
L 378.089477 134.230004 
L 357.765243 137.620806 
L 337.44101 140.746471 
L 317.116777 142.39938 
L 296.792543 143.647747 
L 276.46831 143.933645 
L 256.144077 144.101088 
L 235.819843 145.009828 
L 215.49561 145.333308 
L 195.171377 147.041564 
L 174.847143 147.041801 
L 154.52291 147.044447 
L 134.198677 147.035163 
L 113.874443 147.076515 
L 93.55021 147.127894 
L -67422.091495 146.977534 
z
" clip-path="url(#p96deaecee2)" style="fill: #8c613c; fill-opacity: 0.2; stroke: #8c613c; stroke-opacity: 0.2"/>
   </g>
   <g id="PolyCollection_2">
    <path d="M -67422.091495 148.619349 
L -67422.091495 149.648864 
L 93.55021 149.686193 
L 113.874443 149.676206 
L 134.198677 149.606105 
L 154.52291 149.599841 
L 174.847143 149.628822 
L 195.171377 147.709477 
L 215.49561 147.579608 
L 235.819843 147.478236 
L 256.144077 147.357835 
L 276.46831 147.047408 
L 296.792543 146.293727 
L 317.116777 142.862336 
L 337.44101 140.568883 
L 357.765243 137.048095 
L 378.089477 131.258821 
L 398.41371 122.78855 
L 418.737943 100.673091 
L 439.062177 100.966742 
L 459.38641 97.902074 
L 479.710643 90.050884 
L 500.034877 78.882568 
L 520.35911 61.312061 
L 540.683343 43.045315 
L 540.683343 40.779818 
L 540.683343 40.779818 
L 520.35911 58.1723 
L 500.034877 75.309851 
L 479.710643 87.690228 
L 459.38641 96.546498 
L 439.062177 100.38365 
L 418.737943 99.361944 
L 398.41371 121.932685 
L 378.089477 130.444056 
L 357.765243 136.095092 
L 337.44101 139.519917 
L 317.116777 141.937863 
L 296.792543 145.340246 
L 276.46831 146.018087 
L 256.144077 146.406792 
L 235.819843 146.436162 
L 215.49561 146.639063 
L 195.171377 146.770247 
L 174.847143 148.553582 
L 154.52291 148.480728 
L 134.198677 148.544587 
L 113.874443 148.548503 
L 93.55021 148.637592 
L -67422.091495 148.619349 
z
" clip-path="url(#p96deaecee2)" style="fill: #6c3baa; fill-opacity: 0.2; stroke: #6c3baa; stroke-opacity: 0.2"/>
   </g>
   <g id="PolyCollection_3">
    <path d="M -67422.091495 213.806319 
L -67422.091495 214.312649 
L 93.55021 214.388303 
L 113.874443 214.446537 
L 134.198677 214.464301 
L 154.52291 214.374209 
L 174.847143 210.742072 
L 195.171377 210.6232 
L 215.49561 210.309397 
L 235.819843 210.126534 
L 256.144077 209.680196 
L 276.46831 208.975069 
L 296.792543 208.10003 
L 317.116777 205.579836 
L 337.44101 202.177685 
L 357.765243 198.903783 
L 378.089477 179.025624 
L 398.41371 176.961586 
L 418.737943 162.474926 
L 439.062177 154.983484 
L 459.38641 146.851169 
L 479.710643 137.512486 
L 500.034877 125.236442 
L 520.35911 111.618799 
L 540.683343 97.722473 
L 540.683343 97.116911 
L 540.683343 97.116911 
L 520.35911 111.123625 
L 500.034877 124.86894 
L 479.710643 137.18262 
L 459.38641 146.559798 
L 439.062177 154.653856 
L 418.737943 162.135022 
L 398.41371 176.508706 
L 378.089477 178.802476 
L 357.765243 198.467748 
L 337.44101 201.769079 
L 317.116777 205.004579 
L 296.792543 207.534582 
L 276.46831 208.310899 
L 256.144077 208.456657 
L 235.819843 209.538979 
L 215.49561 209.679374 
L 195.171377 210.004787 
L 174.847143 210.178052 
L 154.52291 213.793463 
L 134.198677 213.943243 
L 113.874443 213.936247 
L 93.55021 213.757384 
L -67422.091495 213.806319 
z
" clip-path="url(#p96deaecee2)" style="fill: #dc7ec0; fill-opacity: 0.2; stroke: #dc7ec0; stroke-opacity: 0.2"/>
   </g>
   <g id="PolyCollection_4">
    <path d="M -67422.091495 166.440273 
L -67422.091495 167.596515 
L 93.55021 167.619149 
L 113.874443 167.639516 
L 134.198677 167.630109 
L 154.52291 166.582833 
L 174.847143 166.542683 
L 195.171377 166.541763 
L 215.49561 166.449287 
L 235.819843 166.422061 
L 256.144077 166.327158 
L 276.46831 166.221577 
L 296.792543 166.001175 
L 317.116777 165.596948 
L 337.44101 164.330044 
L 357.765243 161.80656 
L 378.089477 160.838112 
L 398.41371 159.003201 
L 418.737943 155.783695 
L 439.062177 134.141796 
L 459.38641 129.866576 
L 479.710643 117.229472 
L 500.034877 103.237273 
L 520.35911 88.558805 
L 540.683343 74.058068 
L 540.683343 73.28681 
L 540.683343 73.28681 
L 520.35911 87.716785 
L 500.034877 102.441005 
L 479.710643 116.404364 
L 459.38641 128.985784 
L 439.062177 133.027726 
L 418.737943 154.645919 
L 398.41371 157.763472 
L 378.089477 159.512581 
L 357.765243 160.441347 
L 337.44101 163.203001 
L 317.116777 164.398098 
L 296.792543 164.823325 
L 276.46831 165.100837 
L 256.144077 165.216695 
L 235.819843 165.26111 
L 215.49561 165.298849 
L 195.171377 165.379495 
L 174.847143 165.422858 
L 154.52291 165.402952 
L 134.198677 166.424112 
L 113.874443 166.465295 
L 93.55021 166.419421 
L -67422.091495 166.440273 
z
" clip-path="url(#p96deaecee2)" style="fill: #4878d0; fill-opacity: 0.2; stroke: #4878d0; stroke-opacity: 0.2"/>
   </g>
   <g id="PolyCollection_5">
    <path d="M -67422.091495 167.00398 
L -67422.091495 168.706633 
L 93.55021 168.931885 
L 113.874443 168.589896 
L 134.198677 168.777016 
L 154.52291 167.99558 
L 174.847143 168.010189 
L 195.171377 167.943195 
L 215.49561 167.900406 
L 235.819843 167.826308 
L 256.144077 167.796378 
L 276.46831 167.703812 
L 296.792543 167.484466 
L 317.116777 167.108374 
L 337.44101 166.147723 
L 357.765243 163.777633 
L 378.089477 162.650943 
L 398.41371 160.847567 
L 418.737943 157.779639 
L 439.062177 135.7391 
L 459.38641 131.553401 
L 479.710643 118.868354 
L 500.034877 104.930802 
L 520.35911 90.189749 
L 540.683343 75.78928 
L 540.683343 74.575156 
L 540.683343 74.575156 
L 520.35911 88.94855 
L 500.034877 103.648601 
L 479.710643 117.562873 
L 459.38641 130.075943 
L 439.062177 134.076123 
L 418.737943 155.919378 
L 398.41371 159.005288 
L 378.089477 160.676409 
L 357.765243 161.751442 
L 337.44101 164.203998 
L 317.116777 165.411047 
L 296.792543 165.711735 
L 276.46831 165.96169 
L 256.144077 166.073815 
L 235.819843 166.087807 
L 215.49561 166.146651 
L 195.171377 166.282227 
L 174.847143 166.219077 
L 154.52291 166.275097 
L 134.198677 167.018952 
L 113.874443 166.774373 
L 93.55021 167.002384 
L -67422.091495 167.00398 
z
" clip-path="url(#p96deaecee2)" style="fill: #ee854a; fill-opacity: 0.2; stroke: #ee854a; stroke-opacity: 0.2"/>
   </g>
   <g id="PolyCollection_6">
    <path d="M -67422.091495 217.651179 
L -67422.091495 217.895413 
L 93.55021 217.976182 
L 113.874443 217.964085 
L 134.198677 217.922934 
L 154.52291 217.922805 
L 174.847143 217.843896 
L 195.171377 215.713372 
L 215.49561 215.124502 
L 235.819843 214.522673 
L 256.144077 208.986849 
L 276.46831 207.896643 
L 296.792543 206.388771 
L 317.116777 205.192193 
L 337.44101 199.99841 
L 357.765243 196.82807 
L 378.089477 190.497583 
L 398.41371 184.766282 
L 418.737943 178.58397 
L 439.062177 168.944902 
L 459.38641 163.957831 
L 479.710643 153.077635 
L 500.034877 140.099535 
L 520.35911 126.055197 
L 540.683343 111.439619 
L 540.683343 111.42169 
L 540.683343 111.42169 
L 520.35911 126.011927 
L 500.034877 140.019613 
L 479.710643 153.017219 
L 459.38641 163.868658 
L 439.062177 168.770719 
L 418.737943 178.39624 
L 398.41371 184.61205 
L 378.089477 190.363879 
L 357.765243 196.662436 
L 337.44101 199.798586 
L 317.116777 205.024903 
L 296.792543 206.16237 
L 276.46831 207.694958 
L 256.144077 208.786732 
L 235.819843 214.261105 
L 215.49561 214.889012 
L 195.171377 215.465431 
L 174.847143 217.596958 
L 154.52291 217.63934 
L 134.198677 217.658014 
L 113.874443 217.697024 
L 93.55021 217.707319 
L -67422.091495 217.651179 
z
" clip-path="url(#p96deaecee2)" style="fill: #d65f5f; fill-opacity: 0.2; stroke: #d65f5f; stroke-opacity: 0.2"/>
   </g>
   <g id="PolyCollection_7">
    <path d="M -67422.091495 173.354338 
L -67422.091495 183.458967 
L 93.55021 175.326791 
L 113.874443 175.828171 
L 134.198677 177.887471 
L 154.52291 185.602678 
L 174.847143 187.385774 
L 195.171377 187.181538 
L 215.49561 186.791822 
L 235.819843 186.437285 
L 256.144077 183.84472 
L 276.46831 184.129293 
L 296.792543 183.857678 
L 317.116777 181.983824 
L 337.44101 179.568642 
L 357.765243 178.267003 
L 378.089477 169.582718 
L 398.41371 164.26818 
L 418.737943 158.296591 
L 439.062177 149.213646 
L 459.38641 135.786965 
L 479.710643 125.921868 
L 500.034877 114.071775 
L 520.35911 102.162459 
L 540.683343 90.999717 
L 540.683343 87.593406 
L 540.683343 87.593406 
L 520.35911 97.641258 
L 500.034877 108.634717 
L 479.710643 119.825244 
L 459.38641 128.178894 
L 439.062177 140.008562 
L 418.737943 147.3866 
L 398.41371 153.750349 
L 378.089477 159.187185 
L 357.765243 171.005873 
L 337.44101 171.010696 
L 317.116777 173.511976 
L 296.792543 173.607167 
L 276.46831 176.112415 
L 256.144077 177.074647 
L 235.819843 178.071841 
L 215.49561 175.760641 
L 195.171377 178.281764 
L 174.847143 178.491518 
L 154.52291 171.178704 
L 134.198677 166.150744 
L 113.874443 161.949577 
L 93.55021 163.446232 
L -67422.091495 173.354338 
z
" clip-path="url(#p96deaecee2)" style="fill: #008000; fill-opacity: 0.2; stroke: #008000; stroke-opacity: 0.2"/>
   </g>
   <g id="line2d_11">
    <path d="M -1 147.34118 
L 93.55021 147.3414 
L 113.874443 147.287505 
L 134.198677 147.256479 
L 154.52291 147.260495 
L 174.847143 147.256033 
L 195.171377 147.248451 
L 215.49561 145.529137 
L 235.819843 145.206317 
L 256.144077 144.29621 
L 276.46831 144.114101 
L 296.792543 143.840316 
L 317.116777 142.608687 
L 337.44101 140.988398 
L 357.765243 137.816876 
L 378.089477 134.389106 
L 398.41371 127.755834 
L 418.737943 108.230768 
L 439.062177 104.007924 
L 459.38641 97.815641 
L 479.710643 90.056554 
L 500.034877 79.511896 
L 520.35911 66.688542 
L 540.683343 52.643904 
" clip-path="url(#p96deaecee2)" style="fill: none; stroke: #8c613c; stroke-width: 1.5; stroke-linecap: round"/>
   </g>
   <g id="line2d_12">
    <path d="M -1 149.181597 
L 93.55021 149.181641 
L 113.874443 149.168767 
L 134.198677 149.087563 
L 154.52291 149.08345 
L 174.847143 149.112499 
L 195.171377 147.243992 
L 215.49561 147.123486 
L 235.819843 146.986205 
L 256.144077 146.896903 
L 276.46831 146.553141 
L 296.792543 145.814146 
L 317.116777 142.416108 
L 337.44101 140.039783 
L 357.765243 136.561735 
L 378.089477 130.84248 
L 398.41371 122.332259 
L 418.737943 99.978349 
L 439.062177 100.686706 
L 459.38641 97.24518 
L 479.710643 88.894468 
L 500.034877 77.087304 
L 520.35911 59.771735 
L 540.683343 41.813464 
" clip-path="url(#p96deaecee2)" style="fill: none; stroke: #6c3baa; stroke-width: 1.5; stroke-linecap: round"/>
   </g>
   <g id="line2d_13">
    <path d="M -1 214.07408 
L 93.55021 214.074119 
L 113.874443 214.183876 
L 134.198677 214.188242 
L 154.52291 214.07325 
L 174.847143 210.456843 
L 195.171377 210.314488 
L 215.49561 210.013582 
L 235.819843 209.852375 
L 256.144077 209.214654 
L 276.46831 208.661361 
L 296.792543 207.838332 
L 317.116777 205.31273 
L 337.44101 201.966632 
L 357.765243 198.683789 
L 378.089477 178.924067 
L 398.41371 176.760721 
L 418.737943 162.320372 
L 439.062177 154.818386 
L 459.38641 146.713172 
L 479.710643 137.348284 
L 500.034877 125.053297 
L 520.35911 111.36129 
L 540.683343 97.419502 
" clip-path="url(#p96deaecee2)" style="fill: none; stroke: #dc7ec0; stroke-width: 1.5; stroke-linecap: round"/>
   </g>
   <g id="line2d_14">
    <path d="M -1 166.96921 
L 93.55021 166.969178 
L 113.874443 167.007776 
L 134.198677 166.992758 
L 154.52291 165.958464 
L 174.847143 165.941059 
L 195.171377 165.920089 
L 215.49561 165.821638 
L 235.819843 165.804848 
L 256.144077 165.746433 
L 276.46831 165.621478 
L 296.792543 165.364153 
L 317.116777 164.947095 
L 337.44101 163.714417 
L 357.765243 161.07171 
L 378.089477 160.115946 
L 398.41371 158.319299 
L 418.737943 155.162108 
L 439.062177 133.569528 
L 459.38641 129.397567 
L 479.710643 116.794447 
L 500.034877 102.812955 
L 520.35911 88.093689 
L 540.683343 73.648031 
" clip-path="url(#p96deaecee2)" style="fill: none; stroke: #4878d0; stroke-width: 1.5; stroke-linecap: round"/>
   </g>
   <g id="line2d_15">
    <path d="M -1 167.896375 
L 93.55021 167.896443 
L 113.874443 167.684783 
L 134.198677 167.876916 
L 154.52291 167.116959 
L 174.847143 167.104562 
L 195.171377 167.077097 
L 215.49561 167.00563 
L 235.819843 166.933854 
L 256.144077 166.906597 
L 276.46831 166.783017 
L 296.792543 166.583109 
L 317.116777 166.225826 
L 337.44101 165.119109 
L 357.765243 162.751324 
L 378.089477 161.664266 
L 398.41371 159.888396 
L 418.737943 156.804735 
L 439.062177 134.879175 
L 459.38641 130.789948 
L 479.710643 118.216867 
L 500.034877 104.270326 
L 520.35911 89.547164 
L 540.683343 75.188046 
" clip-path="url(#p96deaecee2)" style="fill: none; stroke: #ee854a; stroke-width: 1.5; stroke-linecap: round"/>
   </g>
   <g id="line2d_16">
    <path d="M -1 217.821569 
L 93.55021 217.821646 
L 113.874443 217.814804 
L 134.198677 217.77209 
L 154.52291 217.753321 
L 174.847143 217.709021 
L 195.171377 215.572026 
L 215.49561 214.994376 
L 235.819843 214.381211 
L 256.144077 208.87507 
L 276.46831 207.786797 
L 296.792543 206.263499 
L 317.116777 205.0977 
L 337.44101 199.887075 
L 357.765243 196.739411 
L 378.089477 190.421518 
L 398.41371 184.684129 
L 418.737943 178.489008 
L 439.062177 168.856186 
L 459.38641 163.90962 
L 479.710643 153.044995 
L 500.034877 140.062671 
L 520.35911 126.033751 
L 540.683343 111.430607 
" clip-path="url(#p96deaecee2)" style="fill: none; stroke: #d65f5f; stroke-width: 1.5; stroke-linecap: round"/>
   </g>
   <g id="line2d_17">
    <path d="M -1 168.827829 
L 93.55021 168.815256 
L 113.874443 168.608064 
L 134.198677 171.413856 
L 154.52291 178.118803 
L 174.847143 182.647326 
L 195.171377 182.330269 
L 215.49561 181.192417 
L 235.819843 181.924767 
L 256.144077 180.411006 
L 276.46831 179.997252 
L 296.792543 178.453586 
L 317.116777 177.631807 
L 337.44101 175.124542 
L 357.765243 174.687835 
L 378.089477 163.838977 
L 398.41371 158.936346 
L 418.737943 152.655749 
L 439.062177 144.772515 
L 459.38641 132.033303 
L 479.710643 122.507352 
L 500.034877 111.151143 
L 520.35911 99.844495 
L 540.683343 89.252781 
" clip-path="url(#p96deaecee2)" style="fill: none; stroke: #008000; stroke-width: 1.5; stroke-linecap: round"/>
   </g>
   <g id="line2d_18"/>
   <g id="line2d_19"/>
   <g id="line2d_20"/>
   <g id="line2d_21"/>
   <g id="line2d_22"/>
   <g id="line2d_23"/>
   <g id="line2d_24"/>
   <g id="patch_3">
    <path d="M 71.193553 226.836 
L 71.193553 31.92 
" style="fill: none; stroke: #cccccc; stroke-width: 1.25; stroke-linejoin: miter; stroke-linecap: square"/>
   </g>
   <g id="patch_4">
    <path d="M 563.04 226.836 
L 563.04 31.92 
" style="fill: none; stroke: #cccccc; stroke-width: 1.25; stroke-linejoin: miter; stroke-linecap: square"/>
   </g>
   <g id="patch_5">
    <path d="M 71.193553 226.836 
L 563.04 226.836 
" style="fill: none; stroke: #cccccc; stroke-width: 1.25; stroke-linejoin: miter; stroke-linecap: square"/>
   </g>
   <g id="patch_6">
    <path d="M 71.193553 31.92 
L 563.04 31.92 
" style="fill: none; stroke: #cccccc; stroke-width: 1.25; stroke-linejoin: miter; stroke-linecap: square"/>
   </g>
   <g id="text_13">
    <!-- osu_latency CPU 64 Nodes -->
    <g style="fill: #262626" transform="translate(210.475527 25.92) scale(0.16 -0.16)">
     <defs>
      <path id="DejaVuSans-5f" d="M 3263 -1063 
L 3263 -1509 
L -63 -1509 
L -63 -1063 
L 3263 -1063 
z
" transform="scale(0.015625)"/>
      <path id="DejaVuSans-43" d="M 4122 4306 
L 4122 3641 
Q 3803 3938 3442 4084 
Q 3081 4231 2675 4231 
Q 1875 4231 1450 3742 
Q 1025 3253 1025 2328 
Q 1025 1406 1450 917 
Q 1875 428 2675 428 
Q 3081 428 3442 575 
Q 3803 722 4122 1019 
L 4122 359 
Q 3791 134 3420 21 
Q 3050 -91 2638 -91 
Q 1578 -91 968 557 
Q 359 1206 359 2328 
Q 359 3453 968 4101 
Q 1578 4750 2638 4750 
Q 3056 4750 3426 4639 
Q 3797 4528 4122 4306 
z
" transform="scale(0.015625)"/>
      <path id="DejaVuSans-50" d="M 1259 4147 
L 1259 2394 
L 2053 2394 
Q 2494 2394 2734 2622 
Q 2975 2850 2975 3272 
Q 2975 3691 2734 3919 
Q 2494 4147 2053 4147 
L 1259 4147 
z
M 628 4666 
L 2053 4666 
Q 2838 4666 3239 4311 
Q 3641 3956 3641 3272 
Q 3641 2581 3239 2228 
Q 2838 1875 2053 1875 
L 1259 1875 
L 1259 0 
L 628 0 
L 628 4666 
z
" transform="scale(0.015625)"/>
      <path id="DejaVuSans-55" d="M 556 4666 
L 1191 4666 
L 1191 1831 
Q 1191 1081 1462 751 
Q 1734 422 2344 422 
Q 2950 422 3222 751 
Q 3494 1081 3494 1831 
L 3494 4666 
L 4128 4666 
L 4128 1753 
Q 4128 841 3676 375 
Q 3225 -91 2344 -91 
Q 1459 -91 1007 375 
Q 556 841 556 1753 
L 556 4666 
z
" transform="scale(0.015625)"/>
      <path id="DejaVuSans-4e" d="M 628 4666 
L 1478 4666 
L 3547 763 
L 3547 4666 
L 4159 4666 
L 4159 0 
L 3309 0 
L 1241 3903 
L 1241 0 
L 628 0 
L 628 4666 
z
" transform="scale(0.015625)"/>
      <path id="DejaVuSans-64" d="M 2906 2969 
L 2906 4863 
L 3481 4863 
L 3481 0 
L 2906 0 
L 2906 525 
Q 2725 213 2448 61 
Q 2172 -91 1784 -91 
Q 1150 -91 751 415 
Q 353 922 353 1747 
Q 353 2572 751 3078 
Q 1150 3584 1784 3584 
Q 2172 3584 2448 3432 
Q 2725 3281 2906 2969 
z
M 947 1747 
Q 947 1113 1208 752 
Q 1469 391 1925 391 
Q 2381 391 2643 752 
Q 2906 1113 2906 1747 
Q 2906 2381 2643 2742 
Q 2381 3103 1925 3103 
Q 1469 3103 1208 2742 
Q 947 2381 947 1747 
z
" transform="scale(0.015625)"/>
     </defs>
     <use xlink:href="#DejaVuSans-6f"/>
     <use xlink:href="#DejaVuSans-73" x="61.181641"/>
     <use xlink:href="#DejaVuSans-75" x="113.28125"/>
     <use xlink:href="#DejaVuSans-5f" x="176.660156"/>
     <use xlink:href="#DejaVuSans-6c" x="226.660156"/>
     <use xlink:href="#DejaVuSans-61" x="254.443359"/>
     <use xlink:href="#DejaVuSans-74" x="315.722656"/>
     <use xlink:href="#DejaVuSans-65" x="354.931641"/>
     <use xlink:href="#DejaVuSans-6e" x="416.455078"/>
     <use xlink:href="#DejaVuSans-63" x="479.833984"/>
     <use xlink:href="#DejaVuSans-79" x="534.814453"/>
     <use xlink:href="#DejaVuSans-20" x="593.994141"/>
     <use xlink:href="#DejaVuSans-43" x="625.78125"/>
     <use xlink:href="#DejaVuSans-50" x="695.605469"/>
     <use xlink:href="#DejaVuSans-55" x="755.908203"/>
     <use xlink:href="#DejaVuSans-20" x="829.101562"/>
     <use xlink:href="#DejaVuSans-36" x="860.888672"/>
     <use xlink:href="#DejaVuSans-34" x="924.511719"/>
     <use xlink:href="#DejaVuSans-20" x="988.134766"/>
     <use xlink:href="#DejaVuSans-4e" x="1019.921875"/>
     <use xlink:href="#DejaVuSans-6f" x="1094.726562"/>
     <use xlink:href="#DejaVuSans-64" x="1155.908203"/>
     <use xlink:href="#DejaVuSans-65" x="1219.384766"/>
     <use xlink:href="#DejaVuSans-73" x="1280.908203"/>
    </g>
   </g>
   <g id="legend_1">
    <g id="patch_7">
     <path d="M 78.893553 155.883125 
L 337.821522 155.883125 
Q 340.021522 155.883125 340.021522 153.683125 
L 340.021522 39.62 
Q 340.021522 37.42 337.821522 37.42 
L 78.893553 37.42 
Q 76.693553 37.42 76.693553 39.62 
L 76.693553 153.683125 
Q 76.693553 155.883125 78.893553 155.883125 
z
" style="fill: #ffffff; opacity: 0.8; stroke: #cccccc; stroke-linejoin: miter"/>
    </g>
    <g id="line2d_25">
     <path d="M 81.093553 46.328281 
L 92.093553 46.328281 
L 103.093553 46.328281 
" style="fill: none; stroke: #8c613c; stroke-width: 1.5; stroke-linecap: round"/>
    </g>
    <g id="text_14">
     <!-- google/gke/cpu/osu_latency -->
     <g style="fill: #262626" transform="translate(111.893553 50.178281) scale(0.11 -0.11)">
      <defs>
       <path id="DejaVuSans-2f" d="M 1625 4666 
L 2156 4666 
L 531 -594 
L 0 -594 
L 1625 4666 
z
" transform="scale(0.015625)"/>
       <path id="DejaVuSans-6b" d="M 581 4863 
L 1159 4863 
L 1159 1991 
L 2875 3500 
L 3609 3500 
L 1753 1863 
L 3688 0 
L 2938 0 
L 1159 1709 
L 1159 0 
L 581 0 
L 581 4863 
z
" transform="scale(0.015625)"/>
       <path id="DejaVuSans-70" d="M 1159 525 
L 1159 -1331 
L 581 -1331 
L 581 3500 
L 1159 3500 
L 1159 2969 
Q 1341 3281 1617 3432 
Q 1894 3584 2278 3584 
Q 2916 3584 3314 3078 
Q 3713 2572 3713 1747 
Q 3713 922 3314 415 
Q 2916 -91 2278 -91 
Q 1894 -91 1617 61 
Q 1341 213 1159 525 
z
M 3116 1747 
Q 3116 2381 2855 2742 
Q 2594 3103 2138 3103 
Q 1681 3103 1420 2742 
Q 1159 2381 1159 1747 
Q 1159 1113 1420 752 
Q 1681 391 2138 391 
Q 2594 391 2855 752 
Q 3116 1113 3116 1747 
z
" transform="scale(0.015625)"/>
      </defs>
      <use xlink:href="#DejaVuSans-67"/>
      <use xlink:href="#DejaVuSans-6f" x="63.476562"/>
      <use xlink:href="#DejaVuSans-6f" x="124.658203"/>
      <use xlink:href="#DejaVuSans-67" x="185.839844"/>
      <use xlink:href="#DejaVuSans-6c" x="249.316406"/>
      <use xlink:href="#DejaVuSans-65" x="277.099609"/>
      <use xlink:href="#DejaVuSans-2f" x="338.623047"/>
      <use xlink:href="#DejaVuSans-67" x="372.314453"/>
      <use xlink:href="#DejaVuSans-6b" x="435.791016"/>
      <use xlink:href="#DejaVuSans-65" x="490.076172"/>
      <use xlink:href="#DejaVuSans-2f" x="551.599609"/>
      <use xlink:href="#DejaVuSans-63" x="585.291016"/>
      <use xlink:href="#DejaVuSans-70" x="640.271484"/>
      <use xlink:href="#DejaVuSans-75" x="703.748047"/>
      <use xlink:href="#DejaVuSans-2f" x="767.126953"/>
      <use xlink:href="#DejaVuSans-6f" x="800.818359"/>
      <use xlink:href="#DejaVuSans-73" x="862"/>
      <use xlink:href="#DejaVuSans-75" x="914.099609"/>
      <use xlink:href="#DejaVuSans-5f" x="977.478516"/>
      <use xlink:href="#DejaVuSans-6c" x="1027.478516"/>
      <use xlink:href="#DejaVuSans-61" x="1055.261719"/>
      <use xlink:href="#DejaVuSans-74" x="1116.541016"/>
      <use xlink:href="#DejaVuSans-65" x="1155.75"/>
      <use xlink:href="#DejaVuSans-6e" x="1217.273438"/>
      <use xlink:href="#DejaVuSans-63" x="1280.652344"/>
      <use xlink:href="#DejaVuSans-79" x="1335.632812"/>
     </g>
    </g>
    <g id="line2d_26">
     <path d="M 81.093553 62.780156 
L 92.093553 62.780156 
L 103.093553 62.780156 
" style="fill: none; stroke: #6c3baa; stroke-width: 1.5; stroke-linecap: round"/>
    </g>
    <g id="text_15">
     <!-- google/compute-engine/cpu/osu_latency -->
     <g style="fill: #262626" transform="translate(111.893553 66.630156) scale(0.11 -0.11)">
      <defs>
       <path id="DejaVuSans-6d" d="M 3328 2828 
Q 3544 3216 3844 3400 
Q 4144 3584 4550 3584 
Q 5097 3584 5394 3201 
Q 5691 2819 5691 2113 
L 5691 0 
L 5113 0 
L 5113 2094 
Q 5113 2597 4934 2840 
Q 4756 3084 4391 3084 
Q 3944 3084 3684 2787 
Q 3425 2491 3425 1978 
L 3425 0 
L 2847 0 
L 2847 2094 
Q 2847 2600 2669 2842 
Q 2491 3084 2119 3084 
Q 1678 3084 1418 2786 
Q 1159 2488 1159 1978 
L 1159 0 
L 581 0 
L 581 3500 
L 1159 3500 
L 1159 2956 
Q 1356 3278 1631 3431 
Q 1906 3584 2284 3584 
Q 2666 3584 2933 3390 
Q 3200 3197 3328 2828 
z
" transform="scale(0.015625)"/>
       <path id="DejaVuSans-2d" d="M 313 2009 
L 1997 2009 
L 1997 1497 
L 313 1497 
L 313 2009 
z
" transform="scale(0.015625)"/>
      </defs>
      <use xlink:href="#DejaVuSans-67"/>
      <use xlink:href="#DejaVuSans-6f" x="63.476562"/>
      <use xlink:href="#DejaVuSans-6f" x="124.658203"/>
      <use xlink:href="#DejaVuSans-67" x="185.839844"/>
      <use xlink:href="#DejaVuSans-6c" x="249.316406"/>
      <use xlink:href="#DejaVuSans-65" x="277.099609"/>
      <use xlink:href="#DejaVuSans-2f" x="338.623047"/>
      <use xlink:href="#DejaVuSans-63" x="372.314453"/>
      <use xlink:href="#DejaVuSans-6f" x="427.294922"/>
      <use xlink:href="#DejaVuSans-6d" x="488.476562"/>
      <use xlink:href="#DejaVuSans-70" x="585.888672"/>
      <use xlink:href="#DejaVuSans-75" x="649.365234"/>
      <use xlink:href="#DejaVuSans-74" x="712.744141"/>
      <use xlink:href="#DejaVuSans-65" x="751.953125"/>
      <use xlink:href="#DejaVuSans-2d" x="813.476562"/>
      <use xlink:href="#DejaVuSans-65" x="849.560547"/>
      <use xlink:href="#DejaVuSans-6e" x="911.083984"/>
      <use xlink:href="#DejaVuSans-67" x="974.462891"/>
      <use xlink:href="#DejaVuSans-69" x="1037.939453"/>
      <use xlink:href="#DejaVuSans-6e" x="1065.722656"/>
      <use xlink:href="#DejaVuSans-65" x="1129.101562"/>
      <use xlink:href="#DejaVuSans-2f" x="1190.625"/>
      <use xlink:href="#DejaVuSans-63" x="1224.316406"/>
      <use xlink:href="#DejaVuSans-70" x="1279.296875"/>
      <use xlink:href="#DejaVuSans-75" x="1342.773438"/>
      <use xlink:href="#DejaVuSans-2f" x="1406.152344"/>
      <use xlink:href="#DejaVuSans-6f" x="1439.84375"/>
      <use xlink:href="#DejaVuSans-73" x="1501.025391"/>
      <use xlink:href="#DejaVuSans-75" x="1553.125"/>
      <use xlink:href="#DejaVuSans-5f" x="1616.503906"/>
      <use xlink:href="#DejaVuSans-6c" x="1666.503906"/>
      <use xlink:href="#DejaVuSans-61" x="1694.287109"/>
      <use xlink:href="#DejaVuSans-74" x="1755.566406"/>
      <use xlink:href="#DejaVuSans-65" x="1794.775391"/>
      <use xlink:href="#DejaVuSans-6e" x="1856.298828"/>
      <use xlink:href="#DejaVuSans-63" x="1919.677734"/>
      <use xlink:href="#DejaVuSans-79" x="1974.658203"/>
     </g>
    </g>
    <g id="line2d_27">
     <path d="M 81.093553 79.232031 
L 92.093553 79.232031 
L 103.093553 79.232031 
" style="fill: none; stroke: #dc7ec0; stroke-width: 1.5; stroke-linecap: round"/>
    </g>
    <g id="text_16">
     <!-- on-premises/dane/cpu/osu_latency -->
     <g style="fill: #262626" transform="translate(111.893553 83.082031) scale(0.11 -0.11)">
      <defs>
       <path id="DejaVuSans-72" d="M 2631 2963 
Q 2534 3019 2420 3045 
Q 2306 3072 2169 3072 
Q 1681 3072 1420 2755 
Q 1159 2438 1159 1844 
L 1159 0 
L 581 0 
L 581 3500 
L 1159 3500 
L 1159 2956 
Q 1341 3275 1631 3429 
Q 1922 3584 2338 3584 
Q 2397 3584 2469 3576 
Q 2541 3569 2628 3553 
L 2631 2963 
z
" transform="scale(0.015625)"/>
      </defs>
      <use xlink:href="#DejaVuSans-6f"/>
      <use xlink:href="#DejaVuSans-6e" x="61.181641"/>
      <use xlink:href="#DejaVuSans-2d" x="124.560547"/>
      <use xlink:href="#DejaVuSans-70" x="160.644531"/>
      <use xlink:href="#DejaVuSans-72" x="224.121094"/>
      <use xlink:href="#DejaVuSans-65" x="262.984375"/>
      <use xlink:href="#DejaVuSans-6d" x="324.507812"/>
      <use xlink:href="#DejaVuSans-69" x="421.919922"/>
      <use xlink:href="#DejaVuSans-73" x="449.703125"/>
      <use xlink:href="#DejaVuSans-65" x="501.802734"/>
      <use xlink:href="#DejaVuSans-73" x="563.326172"/>
      <use xlink:href="#DejaVuSans-2f" x="615.425781"/>
      <use xlink:href="#DejaVuSans-64" x="649.117188"/>
      <use xlink:href="#DejaVuSans-61" x="712.59375"/>
      <use xlink:href="#DejaVuSans-6e" x="773.873047"/>
      <use xlink:href="#DejaVuSans-65" x="837.251953"/>
      <use xlink:href="#DejaVuSans-2f" x="898.775391"/>
      <use xlink:href="#DejaVuSans-63" x="932.466797"/>
      <use xlink:href="#DejaVuSans-70" x="987.447266"/>
      <use xlink:href="#DejaVuSans-75" x="1050.923828"/>
      <use xlink:href="#DejaVuSans-2f" x="1114.302734"/>
      <use xlink:href="#DejaVuSans-6f" x="1147.994141"/>
      <use xlink:href="#DejaVuSans-73" x="1209.175781"/>
      <use xlink:href="#DejaVuSans-75" x="1261.275391"/>
      <use xlink:href="#DejaVuSans-5f" x="1324.654297"/>
      <use xlink:href="#DejaVuSans-6c" x="1374.654297"/>
      <use xlink:href="#DejaVuSans-61" x="1402.4375"/>
      <use xlink:href="#DejaVuSans-74" x="1463.716797"/>
      <use xlink:href="#DejaVuSans-65" x="1502.925781"/>
      <use xlink:href="#DejaVuSans-6e" x="1564.449219"/>
      <use xlink:href="#DejaVuSans-63" x="1627.828125"/>
      <use xlink:href="#DejaVuSans-79" x="1682.808594"/>
     </g>
    </g>
    <g id="line2d_28">
     <path d="M 81.093553 95.683906 
L 92.093553 95.683906 
L 103.093553 95.683906 
" style="fill: none; stroke: #4878d0; stroke-width: 1.5; stroke-linecap: round"/>
    </g>
    <g id="text_17">
     <!-- aws/eks/cpu/osu_latency -->
     <g style="fill: #262626" transform="translate(111.893553 99.533906) scale(0.11 -0.11)">
      <defs>
       <path id="DejaVuSans-77" d="M 269 3500 
L 844 3500 
L 1563 769 
L 2278 3500 
L 2956 3500 
L 3675 769 
L 4391 3500 
L 4966 3500 
L 4050 0 
L 3372 0 
L 2619 2869 
L 1863 0 
L 1184 0 
L 269 3500 
z
" transform="scale(0.015625)"/>
      </defs>
      <use xlink:href="#DejaVuSans-61"/>
      <use xlink:href="#DejaVuSans-77" x="61.279297"/>
      <use xlink:href="#DejaVuSans-73" x="143.066406"/>
      <use xlink:href="#DejaVuSans-2f" x="195.166016"/>
      <use xlink:href="#DejaVuSans-65" x="228.857422"/>
      <use xlink:href="#DejaVuSans-6b" x="290.380859"/>
      <use xlink:href="#DejaVuSans-73" x="348.291016"/>
      <use xlink:href="#DejaVuSans-2f" x="400.390625"/>
      <use xlink:href="#DejaVuSans-63" x="434.082031"/>
      <use xlink:href="#DejaVuSans-70" x="489.0625"/>
      <use xlink:href="#DejaVuSans-75" x="552.539062"/>
      <use xlink:href="#DejaVuSans-2f" x="615.917969"/>
      <use xlink:href="#DejaVuSans-6f" x="649.609375"/>
      <use xlink:href="#DejaVuSans-73" x="710.791016"/>
      <use xlink:href="#DejaVuSans-75" x="762.890625"/>
      <use xlink:href="#DejaVuSans-5f" x="826.269531"/>
      <use xlink:href="#DejaVuSans-6c" x="876.269531"/>
      <use xlink:href="#DejaVuSans-61" x="904.052734"/>
      <use xlink:href="#DejaVuSans-74" x="965.332031"/>
      <use xlink:href="#DejaVuSans-65" x="1004.541016"/>
      <use xlink:href="#DejaVuSans-6e" x="1066.064453"/>
      <use xlink:href="#DejaVuSans-63" x="1129.443359"/>
      <use xlink:href="#DejaVuSans-79" x="1184.423828"/>
     </g>
    </g>
    <g id="line2d_29">
     <path d="M 81.093553 112.135781 
L 92.093553 112.135781 
L 103.093553 112.135781 
" style="fill: none; stroke: #ee854a; stroke-width: 1.5; stroke-linecap: round"/>
    </g>
    <g id="text_18">
     <!-- aws/parallel-cluster/cpu/osu_latency -->
     <g style="fill: #262626" transform="translate(111.893553 115.985781) scale(0.11 -0.11)">
      <use xlink:href="#DejaVuSans-61"/>
      <use xlink:href="#DejaVuSans-77" x="61.279297"/>
      <use xlink:href="#DejaVuSans-73" x="143.066406"/>
      <use xlink:href="#DejaVuSans-2f" x="195.166016"/>
      <use xlink:href="#DejaVuSans-70" x="228.857422"/>
      <use xlink:href="#DejaVuSans-61" x="292.333984"/>
      <use xlink:href="#DejaVuSans-72" x="353.613281"/>
      <use xlink:href="#DejaVuSans-61" x="394.726562"/>
      <use xlink:href="#DejaVuSans-6c" x="456.005859"/>
      <use xlink:href="#DejaVuSans-6c" x="483.789062"/>
      <use xlink:href="#DejaVuSans-65" x="511.572266"/>
      <use xlink:href="#DejaVuSans-6c" x="573.095703"/>
      <use xlink:href="#DejaVuSans-2d" x="600.878906"/>
      <use xlink:href="#DejaVuSans-63" x="636.962891"/>
      <use xlink:href="#DejaVuSans-6c" x="691.943359"/>
      <use xlink:href="#DejaVuSans-75" x="719.726562"/>
      <use xlink:href="#DejaVuSans-73" x="783.105469"/>
      <use xlink:href="#DejaVuSans-74" x="835.205078"/>
      <use xlink:href="#DejaVuSans-65" x="874.414062"/>
      <use xlink:href="#DejaVuSans-72" x="935.9375"/>
      <use xlink:href="#DejaVuSans-2f" x="977.050781"/>
      <use xlink:href="#DejaVuSans-63" x="1010.742188"/>
      <use xlink:href="#DejaVuSans-70" x="1065.722656"/>
      <use xlink:href="#DejaVuSans-75" x="1129.199219"/>
      <use xlink:href="#DejaVuSans-2f" x="1192.578125"/>
      <use xlink:href="#DejaVuSans-6f" x="1226.269531"/>
      <use xlink:href="#DejaVuSans-73" x="1287.451172"/>
      <use xlink:href="#DejaVuSans-75" x="1339.550781"/>
      <use xlink:href="#DejaVuSans-5f" x="1402.929688"/>
      <use xlink:href="#DejaVuSans-6c" x="1452.929688"/>
      <use xlink:href="#DejaVuSans-61" x="1480.712891"/>
      <use xlink:href="#DejaVuSans-74" x="1541.992188"/>
      <use xlink:href="#DejaVuSans-65" x="1581.201172"/>
      <use xlink:href="#DejaVuSans-6e" x="1642.724609"/>
      <use xlink:href="#DejaVuSans-63" x="1706.103516"/>
      <use xlink:href="#DejaVuSans-79" x="1761.083984"/>
     </g>
    </g>
    <g id="line2d_30">
     <path d="M 81.093553 128.587656 
L 92.093553 128.587656 
L 103.093553 128.587656 
" style="fill: none; stroke: #d65f5f; stroke-width: 1.5; stroke-linecap: round"/>
    </g>
    <g id="text_19">
     <!-- azure/cyclecloud/cpu/osu_latency -->
     <g style="fill: #262626" transform="translate(111.893553 132.437656) scale(0.11 -0.11)">
      <use xlink:href="#DejaVuSans-61"/>
      <use xlink:href="#DejaVuSans-7a" x="61.279297"/>
      <use xlink:href="#DejaVuSans-75" x="113.769531"/>
      <use xlink:href="#DejaVuSans-72" x="177.148438"/>
      <use xlink:href="#DejaVuSans-65" x="216.011719"/>
      <use xlink:href="#DejaVuSans-2f" x="277.535156"/>
      <use xlink:href="#DejaVuSans-63" x="311.226562"/>
      <use xlink:href="#DejaVuSans-79" x="366.207031"/>
      <use xlink:href="#DejaVuSans-63" x="425.386719"/>
      <use xlink:href="#DejaVuSans-6c" x="480.367188"/>
      <use xlink:href="#DejaVuSans-65" x="508.150391"/>
      <use xlink:href="#DejaVuSans-63" x="569.673828"/>
      <use xlink:href="#DejaVuSans-6c" x="624.654297"/>
      <use xlink:href="#DejaVuSans-6f" x="652.4375"/>
      <use xlink:href="#DejaVuSans-75" x="713.619141"/>
      <use xlink:href="#DejaVuSans-64" x="776.998047"/>
      <use xlink:href="#DejaVuSans-2f" x="840.474609"/>
      <use xlink:href="#DejaVuSans-63" x="874.166016"/>
      <use xlink:href="#DejaVuSans-70" x="929.146484"/>
      <use xlink:href="#DejaVuSans-75" x="992.623047"/>
      <use xlink:href="#DejaVuSans-2f" x="1056.001953"/>
      <use xlink:href="#DejaVuSans-6f" x="1089.693359"/>
      <use xlink:href="#DejaVuSans-73" x="1150.875"/>
      <use xlink:href="#DejaVuSans-75" x="1202.974609"/>
      <use xlink:href="#DejaVuSans-5f" x="1266.353516"/>
      <use xlink:href="#DejaVuSans-6c" x="1316.353516"/>
      <use xlink:href="#DejaVuSans-61" x="1344.136719"/>
      <use xlink:href="#DejaVuSans-74" x="1405.416016"/>
      <use xlink:href="#DejaVuSans-65" x="1444.625"/>
      <use xlink:href="#DejaVuSans-6e" x="1506.148438"/>
      <use xlink:href="#DejaVuSans-63" x="1569.527344"/>
      <use xlink:href="#DejaVuSans-79" x="1624.507812"/>
     </g>
    </g>
    <g id="line2d_31">
     <path d="M 81.093553 145.039531 
L 92.093553 145.039531 
L 103.093553 145.039531 
" style="fill: none; stroke: #008000; stroke-width: 1.5; stroke-linecap: round"/>
    </g>
    <g id="text_20">
     <!-- azure/aks/cpu/osu_latency -->
     <g style="fill: #262626" transform="translate(111.893553 148.889531) scale(0.11 -0.11)">
      <use xlink:href="#DejaVuSans-61"/>
      <use xlink:href="#DejaVuSans-7a" x="61.279297"/>
      <use xlink:href="#DejaVuSans-75" x="113.769531"/>
      <use xlink:href="#DejaVuSans-72" x="177.148438"/>
      <use xlink:href="#DejaVuSans-65" x="216.011719"/>
      <use xlink:href="#DejaVuSans-2f" x="277.535156"/>
      <use xlink:href="#DejaVuSans-61" x="311.226562"/>
      <use xlink:href="#DejaVuSans-6b" x="372.505859"/>
      <use xlink:href="#DejaVuSans-73" x="430.416016"/>
      <use xlink:href="#DejaVuSans-2f" x="482.515625"/>
      <use xlink:href="#DejaVuSans-63" x="516.207031"/>
      <use xlink:href="#DejaVuSans-70" x="571.1875"/>
      <use xlink:href="#DejaVuSans-75" x="634.664062"/>
      <use xlink:href="#DejaVuSans-2f" x="698.042969"/>
      <use xlink:href="#DejaVuSans-6f" x="731.734375"/>
      <use xlink:href="#DejaVuSans-73" x="792.916016"/>
      <use xlink:href="#DejaVuSans-75" x="845.015625"/>
      <use xlink:href="#DejaVuSans-5f" x="908.394531"/>
      <use xlink:href="#DejaVuSans-6c" x="958.394531"/>
      <use xlink:href="#DejaVuSans-61" x="986.177734"/>
      <use xlink:href="#DejaVuSans-74" x="1047.457031"/>
      <use xlink:href="#DejaVuSans-65" x="1086.666016"/>
      <use xlink:href="#DejaVuSans-6e" x="1148.189453"/>
      <use xlink:href="#DejaVuSans-63" x="1211.568359"/>
      <use xlink:href="#DejaVuSans-79" x="1266.548828"/>
     </g>
    </g>
   </g>
  </g>
 </g>
 <defs>
  <clipPath id="p96deaecee2">
   <rect x="71.193553" y="31.92" width="491.846447" height="194.916"/>
  </clipPath>
 </defs>
</svg>
