<?xml version="1.0" encoding="utf-8" standalone="no"?>
<!DOCTYPE svg PUBLIC "-//W3C//DTD SVG 1.1//EN"
  "http://www.w3.org/Graphics/SVG/1.1/DTD/svg11.dtd">
<svg xmlns:xlink="http://www.w3.org/1999/xlink" width="460.8pt" height="345.6pt" viewBox="0 0 460.8 345.6" xmlns="http://www.w3.org/2000/svg" version="1.1">
 <metadata>
  <rdf:RDF xmlns:dc="http://purl.org/dc/elements/1.1/" xmlns:cc="http://creativecommons.org/ns#" xmlns:rdf="http://www.w3.org/1999/02/22-rdf-syntax-ns#">
   <cc:Work>
    <dc:type rdf:resource="http://purl.org/dc/dcmitype/StillImage"/>
    <dc:date>2025-01-06T16:41:38.437663</dc:date>
    <dc:format>image/svg+xml</dc:format>
    <dc:creator>
     <cc:Agent>
      <dc:title>Matplotlib v3.8.4, https://matplotlib.org/</dc:title>
     </cc:Agent>
    </dc:creator>
   </cc:Work>
  </rdf:RDF>
 </metadata>
 <defs>
  <style type="text/css">*{stroke-linejoin: round; stroke-linecap: butt}</style>
 </defs>
 <g id="figure_1">
  <g id="patch_1">
   <path d="M 0 345.6 
L 460.8 345.6 
L 460.8 0 
L 0 0 
z
" style="fill: #ffffff"/>
  </g>
  <g id="axes_1">
   <g id="patch_2">
    <path d="M 71.103553 286.02 
L 447.84 286.02 
L 447.84 31.92 
L 71.103553 31.92 
z
" style="fill: #ffffff"/>
   </g>
   <g id="matplotlib.axis_1">
    <g id="xtick_1">
     <g id="text_1">
      <!-- 0.0 -->
      <g style="fill: #262626" transform="translate(246.749277 307.6775) scale(0.16 -0.16)">
       <defs>
        <path id="DejaVuSans-30" d="M 2034 4250 
Q 1547 4250 1301 3770 
Q 1056 3291 1056 2328 
Q 1056 1369 1301 889 
Q 1547 409 2034 409 
Q 2525 409 2770 889 
Q 3016 1369 3016 2328 
Q 3016 3291 2770 3770 
Q 2525 4250 2034 4250 
z
M 2034 4750 
Q 2819 4750 3233 4129 
Q 3647 3509 3647 2328 
Q 3647 1150 3233 529 
Q 2819 -91 2034 -91 
Q 1250 -91 836 529 
Q 422 1150 422 2328 
Q 422 3509 836 4129 
Q 1250 4750 2034 4750 
z
" transform="scale(0.015625)"/>
        <path id="DejaVuSans-2e" d="M 684 794 
L 1344 794 
L 1344 0 
L 684 0 
L 684 794 
z
" transform="scale(0.015625)"/>
       </defs>
       <use xlink:href="#DejaVuSans-30"/>
       <use xlink:href="#DejaVuSans-2e" x="63.623047"/>
       <use xlink:href="#DejaVuSans-30" x="95.410156"/>
      </g>
     </g>
    </g>
    <g id="text_2">
     <!-- Message size in bytes -->
     <g style="fill: #262626" transform="translate(171.936777 327.1625) scale(0.16 -0.16)">
      <defs>
       <path id="DejaVuSans-4d" d="M 628 4666 
L 1569 4666 
L 2759 1491 
L 3956 4666 
L 4897 4666 
L 4897 0 
L 4281 0 
L 4281 4097 
L 3078 897 
L 2444 897 
L 1241 4097 
L 1241 0 
L 628 0 
L 628 4666 
z
" transform="scale(0.015625)"/>
       <path id="DejaVuSans-65" d="M 3597 1894 
L 3597 1613 
L 953 1613 
Q 991 1019 1311 708 
Q 1631 397 2203 397 
Q 2534 397 2845 478 
Q 3156 559 3463 722 
L 3463 178 
Q 3153 47 2828 -22 
Q 2503 -91 2169 -91 
Q 1331 -91 842 396 
Q 353 884 353 1716 
Q 353 2575 817 3079 
Q 1281 3584 2069 3584 
Q 2775 3584 3186 3129 
Q 3597 2675 3597 1894 
z
M 3022 2063 
Q 3016 2534 2758 2815 
Q 2500 3097 2075 3097 
Q 1594 3097 1305 2825 
Q 1016 2553 972 2059 
L 3022 2063 
z
" transform="scale(0.015625)"/>
       <path id="DejaVuSans-73" d="M 2834 3397 
L 2834 2853 
Q 2591 2978 2328 3040 
Q 2066 3103 1784 3103 
Q 1356 3103 1142 2972 
Q 928 2841 928 2578 
Q 928 2378 1081 2264 
Q 1234 2150 1697 2047 
L 1894 2003 
Q 2506 1872 2764 1633 
Q 3022 1394 3022 966 
Q 3022 478 2636 193 
Q 2250 -91 1575 -91 
Q 1294 -91 989 -36 
Q 684 19 347 128 
L 347 722 
Q 666 556 975 473 
Q 1284 391 1588 391 
Q 1994 391 2212 530 
Q 2431 669 2431 922 
Q 2431 1156 2273 1281 
Q 2116 1406 1581 1522 
L 1381 1569 
Q 847 1681 609 1914 
Q 372 2147 372 2553 
Q 372 3047 722 3315 
Q 1072 3584 1716 3584 
Q 2034 3584 2315 3537 
Q 2597 3491 2834 3397 
z
" transform="scale(0.015625)"/>
       <path id="DejaVuSans-61" d="M 2194 1759 
Q 1497 1759 1228 1600 
Q 959 1441 959 1056 
Q 959 750 1161 570 
Q 1363 391 1709 391 
Q 2188 391 2477 730 
Q 2766 1069 2766 1631 
L 2766 1759 
L 2194 1759 
z
M 3341 1997 
L 3341 0 
L 2766 0 
L 2766 531 
Q 2569 213 2275 61 
Q 1981 -91 1556 -91 
Q 1019 -91 701 211 
Q 384 513 384 1019 
Q 384 1609 779 1909 
Q 1175 2209 1959 2209 
L 2766 2209 
L 2766 2266 
Q 2766 2663 2505 2880 
Q 2244 3097 1772 3097 
Q 1472 3097 1187 3025 
Q 903 2953 641 2809 
L 641 3341 
Q 956 3463 1253 3523 
Q 1550 3584 1831 3584 
Q 2591 3584 2966 3190 
Q 3341 2797 3341 1997 
z
" transform="scale(0.015625)"/>
       <path id="DejaVuSans-67" d="M 2906 1791 
Q 2906 2416 2648 2759 
Q 2391 3103 1925 3103 
Q 1463 3103 1205 2759 
Q 947 2416 947 1791 
Q 947 1169 1205 825 
Q 1463 481 1925 481 
Q 2391 481 2648 825 
Q 2906 1169 2906 1791 
z
M 3481 434 
Q 3481 -459 3084 -895 
Q 2688 -1331 1869 -1331 
Q 1566 -1331 1297 -1286 
Q 1028 -1241 775 -1147 
L 775 -588 
Q 1028 -725 1275 -790 
Q 1522 -856 1778 -856 
Q 2344 -856 2625 -561 
Q 2906 -266 2906 331 
L 2906 616 
Q 2728 306 2450 153 
Q 2172 0 1784 0 
Q 1141 0 747 490 
Q 353 981 353 1791 
Q 353 2603 747 3093 
Q 1141 3584 1784 3584 
Q 2172 3584 2450 3431 
Q 2728 3278 2906 2969 
L 2906 3500 
L 3481 3500 
L 3481 434 
z
" transform="scale(0.015625)"/>
       <path id="DejaVuSans-20" transform="scale(0.015625)"/>
       <path id="DejaVuSans-69" d="M 603 3500 
L 1178 3500 
L 1178 0 
L 603 0 
L 603 3500 
z
M 603 4863 
L 1178 4863 
L 1178 4134 
L 603 4134 
L 603 4863 
z
" transform="scale(0.015625)"/>
       <path id="DejaVuSans-7a" d="M 353 3500 
L 3084 3500 
L 3084 2975 
L 922 459 
L 3084 459 
L 3084 0 
L 275 0 
L 275 525 
L 2438 3041 
L 353 3041 
L 353 3500 
z
" transform="scale(0.015625)"/>
       <path id="DejaVuSans-6e" d="M 3513 2113 
L 3513 0 
L 2938 0 
L 2938 2094 
Q 2938 2591 2744 2837 
Q 2550 3084 2163 3084 
Q 1697 3084 1428 2787 
Q 1159 2491 1159 1978 
L 1159 0 
L 581 0 
L 581 3500 
L 1159 3500 
L 1159 2956 
Q 1366 3272 1645 3428 
Q 1925 3584 2291 3584 
Q 2894 3584 3203 3211 
Q 3513 2838 3513 2113 
z
" transform="scale(0.015625)"/>
       <path id="DejaVuSans-62" d="M 3116 1747 
Q 3116 2381 2855 2742 
Q 2594 3103 2138 3103 
Q 1681 3103 1420 2742 
Q 1159 2381 1159 1747 
Q 1159 1113 1420 752 
Q 1681 391 2138 391 
Q 2594 391 2855 752 
Q 3116 1113 3116 1747 
z
M 1159 2969 
Q 1341 3281 1617 3432 
Q 1894 3584 2278 3584 
Q 2916 3584 3314 3078 
Q 3713 2572 3713 1747 
Q 3713 922 3314 415 
Q 2916 -91 2278 -91 
Q 1894 -91 1617 61 
Q 1341 213 1159 525 
L 1159 0 
L 581 0 
L 581 4863 
L 1159 4863 
L 1159 2969 
z
" transform="scale(0.015625)"/>
       <path id="DejaVuSans-79" d="M 2059 -325 
Q 1816 -950 1584 -1140 
Q 1353 -1331 966 -1331 
L 506 -1331 
L 506 -850 
L 844 -850 
Q 1081 -850 1212 -737 
Q 1344 -625 1503 -206 
L 1606 56 
L 191 3500 
L 800 3500 
L 1894 763 
L 2988 3500 
L 3597 3500 
L 2059 -325 
z
" transform="scale(0.015625)"/>
       <path id="DejaVuSans-74" d="M 1172 4494 
L 1172 3500 
L 2356 3500 
L 2356 3053 
L 1172 3053 
L 1172 1153 
Q 1172 725 1289 603 
Q 1406 481 1766 481 
L 2356 481 
L 2356 0 
L 1766 0 
Q 1100 0 847 248 
Q 594 497 594 1153 
L 594 3053 
L 172 3053 
L 172 3500 
L 594 3500 
L 594 4494 
L 1172 4494 
z
" transform="scale(0.015625)"/>
      </defs>
      <use xlink:href="#DejaVuSans-4d"/>
      <use xlink:href="#DejaVuSans-65" x="86.279297"/>
      <use xlink:href="#DejaVuSans-73" x="147.802734"/>
      <use xlink:href="#DejaVuSans-73" x="199.902344"/>
      <use xlink:href="#DejaVuSans-61" x="252.001953"/>
      <use xlink:href="#DejaVuSans-67" x="313.28125"/>
      <use xlink:href="#DejaVuSans-65" x="376.757812"/>
      <use xlink:href="#DejaVuSans-20" x="438.28125"/>
      <use xlink:href="#DejaVuSans-73" x="470.068359"/>
      <use xlink:href="#DejaVuSans-69" x="522.167969"/>
      <use xlink:href="#DejaVuSans-7a" x="549.951172"/>
      <use xlink:href="#DejaVuSans-65" x="602.441406"/>
      <use xlink:href="#DejaVuSans-20" x="663.964844"/>
      <use xlink:href="#DejaVuSans-69" x="695.751953"/>
      <use xlink:href="#DejaVuSans-6e" x="723.535156"/>
      <use xlink:href="#DejaVuSans-20" x="786.914062"/>
      <use xlink:href="#DejaVuSans-62" x="818.701172"/>
      <use xlink:href="#DejaVuSans-79" x="882.177734"/>
      <use xlink:href="#DejaVuSans-74" x="941.357422"/>
      <use xlink:href="#DejaVuSans-65" x="980.566406"/>
      <use xlink:href="#DejaVuSans-73" x="1042.089844"/>
     </g>
    </g>
   </g>
   <g id="matplotlib.axis_2">
    <g id="ytick_1">
     <g id="line2d_1">
      <path d="M 71.103553 155.971452 
L 447.84 155.971452 
" clip-path="url(#pacdb4793ca)" style="fill: none; stroke: #cccccc; stroke-linecap: round"/>
     </g>
     <g id="text_3">
      <!-- $\mathdefault{10^{1}}$ -->
      <g style="fill: #262626" transform="translate(33.443553 162.050202) scale(0.16 -0.16)">
       <defs>
        <path id="DejaVuSans-31" d="M 794 531 
L 1825 531 
L 1825 4091 
L 703 3866 
L 703 4441 
L 1819 4666 
L 2450 4666 
L 2450 531 
L 3481 531 
L 3481 0 
L 794 0 
L 794 531 
z
" transform="scale(0.015625)"/>
       </defs>
       <use xlink:href="#DejaVuSans-31" transform="translate(0 0.684375)"/>
       <use xlink:href="#DejaVuSans-30" transform="translate(63.623047 0.684375)"/>
       <use xlink:href="#DejaVuSans-31" transform="translate(128.203125 38.965625) scale(0.7)"/>
      </g>
     </g>
    </g>
    <g id="ytick_2"/>
    <g id="ytick_3"/>
    <g id="ytick_4"/>
    <g id="ytick_5"/>
    <g id="ytick_6"/>
    <g id="ytick_7"/>
    <g id="ytick_8"/>
    <g id="ytick_9"/>
    <g id="ytick_10"/>
    <g id="ytick_11"/>
    <g id="ytick_12"/>
    <g id="ytick_13"/>
    <g id="ytick_14"/>
    <g id="ytick_15"/>
    <g id="ytick_16"/>
    <g id="text_4">
     <!-- latency us (logscale) -->
     <g style="fill: #262626" transform="translate(26.116053 241.7325) rotate(-90) scale(0.16 -0.16)">
      <defs>
       <path id="DejaVuSans-6c" d="M 603 4863 
L 1178 4863 
L 1178 0 
L 603 0 
L 603 4863 
z
" transform="scale(0.015625)"/>
       <path id="DejaVuSans-63" d="M 3122 3366 
L 3122 2828 
Q 2878 2963 2633 3030 
Q 2388 3097 2138 3097 
Q 1578 3097 1268 2742 
Q 959 2388 959 1747 
Q 959 1106 1268 751 
Q 1578 397 2138 397 
Q 2388 397 2633 464 
Q 2878 531 3122 666 
L 3122 134 
Q 2881 22 2623 -34 
Q 2366 -91 2075 -91 
Q 1284 -91 818 406 
Q 353 903 353 1747 
Q 353 2603 823 3093 
Q 1294 3584 2113 3584 
Q 2378 3584 2631 3529 
Q 2884 3475 3122 3366 
z
" transform="scale(0.015625)"/>
       <path id="DejaVuSans-75" d="M 544 1381 
L 544 3500 
L 1119 3500 
L 1119 1403 
Q 1119 906 1312 657 
Q 1506 409 1894 409 
Q 2359 409 2629 706 
Q 2900 1003 2900 1516 
L 2900 3500 
L 3475 3500 
L 3475 0 
L 2900 0 
L 2900 538 
Q 2691 219 2414 64 
Q 2138 -91 1772 -91 
Q 1169 -91 856 284 
Q 544 659 544 1381 
z
M 1991 3584 
L 1991 3584 
z
" transform="scale(0.015625)"/>
       <path id="DejaVuSans-28" d="M 1984 4856 
Q 1566 4138 1362 3434 
Q 1159 2731 1159 2009 
Q 1159 1288 1364 580 
Q 1569 -128 1984 -844 
L 1484 -844 
Q 1016 -109 783 600 
Q 550 1309 550 2009 
Q 550 2706 781 3412 
Q 1013 4119 1484 4856 
L 1984 4856 
z
" transform="scale(0.015625)"/>
       <path id="DejaVuSans-6f" d="M 1959 3097 
Q 1497 3097 1228 2736 
Q 959 2375 959 1747 
Q 959 1119 1226 758 
Q 1494 397 1959 397 
Q 2419 397 2687 759 
Q 2956 1122 2956 1747 
Q 2956 2369 2687 2733 
Q 2419 3097 1959 3097 
z
M 1959 3584 
Q 2709 3584 3137 3096 
Q 3566 2609 3566 1747 
Q 3566 888 3137 398 
Q 2709 -91 1959 -91 
Q 1206 -91 779 398 
Q 353 888 353 1747 
Q 353 2609 779 3096 
Q 1206 3584 1959 3584 
z
" transform="scale(0.015625)"/>
       <path id="DejaVuSans-29" d="M 513 4856 
L 1013 4856 
Q 1481 4119 1714 3412 
Q 1947 2706 1947 2009 
Q 1947 1309 1714 600 
Q 1481 -109 1013 -844 
L 513 -844 
Q 928 -128 1133 580 
Q 1338 1288 1338 2009 
Q 1338 2731 1133 3434 
Q 928 4138 513 4856 
z
" transform="scale(0.015625)"/>
      </defs>
      <use xlink:href="#DejaVuSans-6c"/>
      <use xlink:href="#DejaVuSans-61" x="27.783203"/>
      <use xlink:href="#DejaVuSans-74" x="89.0625"/>
      <use xlink:href="#DejaVuSans-65" x="128.271484"/>
      <use xlink:href="#DejaVuSans-6e" x="189.794922"/>
      <use xlink:href="#DejaVuSans-63" x="253.173828"/>
      <use xlink:href="#DejaVuSans-79" x="308.154297"/>
      <use xlink:href="#DejaVuSans-20" x="367.333984"/>
      <use xlink:href="#DejaVuSans-75" x="399.121094"/>
      <use xlink:href="#DejaVuSans-73" x="462.5"/>
      <use xlink:href="#DejaVuSans-20" x="514.599609"/>
      <use xlink:href="#DejaVuSans-28" x="546.386719"/>
      <use xlink:href="#DejaVuSans-6c" x="585.400391"/>
      <use xlink:href="#DejaVuSans-6f" x="613.183594"/>
      <use xlink:href="#DejaVuSans-67" x="674.365234"/>
      <use xlink:href="#DejaVuSans-73" x="737.841797"/>
      <use xlink:href="#DejaVuSans-63" x="789.941406"/>
      <use xlink:href="#DejaVuSans-61" x="844.921875"/>
      <use xlink:href="#DejaVuSans-6c" x="906.201172"/>
      <use xlink:href="#DejaVuSans-65" x="933.984375"/>
      <use xlink:href="#DejaVuSans-29" x="995.507812"/>
     </g>
    </g>
   </g>
   <g id="patch_3">
    <path d="M 259.471777 130996.346012 
L 259.471777 130996.346012 
L 259.471777 130996.346012 
L 259.471777 130996.346012 
z
" clip-path="url(#pacdb4793ca)" style="fill: #826246; stroke: #3c3c3c; stroke-width: 0.4; stroke-linejoin: miter"/>
   </g>
   <g id="patch_4">
    <path d="M 259.471777 130996.346012 
L 259.471777 130996.346012 
L 259.471777 130996.346012 
L 259.471777 130996.346012 
z
" clip-path="url(#pacdb4793ca)" style="fill: #9475ab; stroke: #3c3c3c; stroke-width: 0.4; stroke-linejoin: miter"/>
   </g>
   <g id="patch_5">
    <path d="M 259.471777 130996.346012 
L 259.471777 130996.346012 
L 259.471777 130996.346012 
L 259.471777 130996.346012 
z
" clip-path="url(#pacdb4793ca)" style="fill: #d08abb; stroke: #3c3c3c; stroke-width: 0.4; stroke-linejoin: miter"/>
   </g>
   <g id="patch_6">
    <path d="M 259.471777 130996.346012 
L 259.471777 130996.346012 
L 259.471777 130996.346012 
L 259.471777 130996.346012 
z
" clip-path="url(#pacdb4793ca)" style="fill: #597dbf; stroke: #3c3c3c; stroke-width: 0.4; stroke-linejoin: miter"/>
   </g>
   <g id="patch_7">
    <path d="M 259.471777 130996.346012 
L 259.471777 130996.346012 
L 259.471777 130996.346012 
L 259.471777 130996.346012 
z
" clip-path="url(#pacdb4793ca)" style="fill: #d98b5f; stroke: #3c3c3c; stroke-width: 0.4; stroke-linejoin: miter"/>
   </g>
   <g id="patch_8">
    <path d="M 259.471777 130996.346012 
L 259.471777 130996.346012 
L 259.471777 130996.346012 
L 259.471777 130996.346012 
z
" clip-path="url(#pacdb4793ca)" style="fill: #c76e6e; stroke: #3c3c3c; stroke-width: 0.4; stroke-linejoin: miter"/>
   </g>
   <g id="patch_9">
    <path d="M 259.471777 130996.346012 
L 259.471777 130996.346012 
L 259.471777 130996.346012 
L 259.471777 130996.346012 
z
" clip-path="url(#pacdb4793ca)" style="fill: #75bf71; stroke: #3c3c3c; stroke-width: 0.4; stroke-linejoin: miter"/>
   </g>
   <g id="patch_10">
    <path d="M 108.777198 83.213992 
L 151.832792 83.213992 
L 151.832792 82.5288 
L 108.777198 82.5288 
L 108.777198 83.213992 
z
" clip-path="url(#pacdb4793ca)" style="fill: #826246; stroke: #3c3c3c; stroke-width: 0.4; stroke-linejoin: miter"/>
   </g>
   <g id="line2d_2">
    <path d="M 130.304995 83.213992 
L 130.304995 83.891608 
" clip-path="url(#pacdb4793ca)" style="fill: none; stroke: #3c3c3c; stroke-width: 0.4"/>
   </g>
   <g id="line2d_3">
    <path d="M 130.304995 82.5288 
L 130.304995 81.932597 
" clip-path="url(#pacdb4793ca)" style="fill: none; stroke: #3c3c3c; stroke-width: 0.4"/>
   </g>
   <g id="line2d_4">
    <path d="M 119.541097 83.891608 
L 141.068893 83.891608 
" clip-path="url(#pacdb4793ca)" style="fill: none; stroke: #3c3c3c; stroke-width: 0.4; stroke-linecap: round"/>
   </g>
   <g id="line2d_5">
    <path d="M 119.541097 81.932597 
L 141.068893 81.932597 
" clip-path="url(#pacdb4793ca)" style="fill: none; stroke: #3c3c3c; stroke-width: 0.4; stroke-linecap: round"/>
   </g>
   <g id="line2d_6">
    <defs>
     <path id="m4c15bbc3ef" d="M 0 2.5 
C 0.663008 2.5 1.29895 2.236584 1.767767 1.767767 
C 2.236584 1.29895 2.5 0.663008 2.5 0 
C 2.5 -0.663008 2.236584 -1.29895 1.767767 -1.767767 
C 1.29895 -2.236584 0.663008 -2.5 0 -2.5 
C -0.663008 -2.5 -1.29895 -2.236584 -1.767767 -1.767767 
C -2.236584 -1.29895 -2.5 -0.663008 -2.5 0 
C -2.5 0.663008 -2.236584 1.29895 -1.767767 1.767767 
C -1.29895 2.236584 -0.663008 2.5 0 2.5 
z
" style="stroke: #000000"/>
    </defs>
    <g clip-path="url(#pacdb4793ca)">
     <use xlink:href="#m4c15bbc3ef" x="130.304995" y="84.179357" style="fill-opacity: 0; stroke: #000000"/>
     <use xlink:href="#m4c15bbc3ef" x="130.304995" y="88.767191" style="fill-opacity: 0; stroke: #000000"/>
     <use xlink:href="#m4c15bbc3ef" x="130.304995" y="81.748041" style="fill-opacity: 0; stroke: #000000"/>
     <use xlink:href="#m4c15bbc3ef" x="130.304995" y="81.579389" style="fill-opacity: 0; stroke: #000000"/>
    </g>
   </g>
   <g id="patch_11">
    <path d="M 151.832792 90.308298 
L 194.888386 90.308298 
L 194.888386 88.252603 
L 151.832792 88.252603 
L 151.832792 90.308298 
z
" clip-path="url(#pacdb4793ca)" style="fill: #9475ab; stroke: #3c3c3c; stroke-width: 0.4; stroke-linejoin: miter"/>
   </g>
   <g id="line2d_7">
    <path d="M 173.360589 90.308298 
L 173.360589 91.036026 
" clip-path="url(#pacdb4793ca)" style="fill: none; stroke: #3c3c3c; stroke-width: 0.4"/>
   </g>
   <g id="line2d_8">
    <path d="M 173.360589 88.252603 
L 173.360589 82.350057 
" clip-path="url(#pacdb4793ca)" style="fill: none; stroke: #3c3c3c; stroke-width: 0.4"/>
   </g>
   <g id="line2d_9">
    <path d="M 162.59669 91.036026 
L 184.124487 91.036026 
" clip-path="url(#pacdb4793ca)" style="fill: none; stroke: #3c3c3c; stroke-width: 0.4; stroke-linecap: round"/>
   </g>
   <g id="line2d_10">
    <path d="M 162.59669 82.350057 
L 184.124487 82.350057 
" clip-path="url(#pacdb4793ca)" style="fill: none; stroke: #3c3c3c; stroke-width: 0.4; stroke-linecap: round"/>
   </g>
   <g id="line2d_11">
    <g clip-path="url(#pacdb4793ca)">
     <use xlink:href="#m4c15bbc3ef" x="173.360589" y="98.48453" style="fill-opacity: 0; stroke: #000000"/>
     <use xlink:href="#m4c15bbc3ef" x="173.360589" y="91.271609" style="fill-opacity: 0; stroke: #000000"/>
     <use xlink:href="#m4c15bbc3ef" x="173.360589" y="81.824867" style="fill-opacity: 0; stroke: #000000"/>
     <use xlink:href="#m4c15bbc3ef" x="173.360589" y="81.395976" style="fill-opacity: 0; stroke: #000000"/>
    </g>
   </g>
   <g id="patch_12">
    <path d="M 194.888386 252.376223 
L 237.94398 252.376223 
L 237.94398 249.062649 
L 194.888386 249.062649 
L 194.888386 252.376223 
z
" clip-path="url(#pacdb4793ca)" style="fill: #d08abb; stroke: #3c3c3c; stroke-width: 0.4; stroke-linejoin: miter"/>
   </g>
   <g id="line2d_12">
    <path d="M 216.416183 252.376223 
L 216.416183 260.714716 
" clip-path="url(#pacdb4793ca)" style="fill: none; stroke: #3c3c3c; stroke-width: 0.4"/>
   </g>
   <g id="line2d_13">
    <path d="M 216.416183 249.062649 
L 216.416183 244.294266 
" clip-path="url(#pacdb4793ca)" style="fill: none; stroke: #3c3c3c; stroke-width: 0.4"/>
   </g>
   <g id="line2d_14">
    <path d="M 205.652284 260.714716 
L 227.180081 260.714716 
" clip-path="url(#pacdb4793ca)" style="fill: none; stroke: #3c3c3c; stroke-width: 0.4; stroke-linecap: round"/>
   </g>
   <g id="line2d_15">
    <path d="M 205.652284 244.294266 
L 227.180081 244.294266 
" clip-path="url(#pacdb4793ca)" style="fill: none; stroke: #3c3c3c; stroke-width: 0.4; stroke-linecap: round"/>
   </g>
   <g id="line2d_16">
    <g clip-path="url(#pacdb4793ca)">
     <use xlink:href="#m4c15bbc3ef" x="216.416183" y="274.47" style="fill-opacity: 0; stroke: #000000"/>
     <use xlink:href="#m4c15bbc3ef" x="216.416183" y="261.075139" style="fill-opacity: 0; stroke: #000000"/>
     <use xlink:href="#m4c15bbc3ef" x="216.416183" y="274.014042" style="fill-opacity: 0; stroke: #000000"/>
     <use xlink:href="#m4c15bbc3ef" x="216.416183" y="274.47" style="fill-opacity: 0; stroke: #000000"/>
     <use xlink:href="#m4c15bbc3ef" x="216.416183" y="274.014042" style="fill-opacity: 0; stroke: #000000"/>
     <use xlink:href="#m4c15bbc3ef" x="216.416183" y="241.665718" style="fill-opacity: 0; stroke: #000000"/>
     <use xlink:href="#m4c15bbc3ef" x="216.416183" y="241.154305" style="fill-opacity: 0; stroke: #000000"/>
     <use xlink:href="#m4c15bbc3ef" x="216.416183" y="231.358791" style="fill-opacity: 0; stroke: #000000"/>
     <use xlink:href="#m4c15bbc3ef" x="216.416183" y="231.144981" style="fill-opacity: 0; stroke: #000000"/>
     <use xlink:href="#m4c15bbc3ef" x="216.416183" y="214.124908" style="fill-opacity: 0; stroke: #000000"/>
     <use xlink:href="#m4c15bbc3ef" x="216.416183" y="239.895573" style="fill-opacity: 0; stroke: #000000"/>
    </g>
   </g>
   <g id="patch_13">
    <path d="M 237.94398 137.003038 
L 280.999574 137.003038 
L 280.999574 128.07998 
L 237.94398 128.07998 
L 237.94398 137.003038 
z
" clip-path="url(#pacdb4793ca)" style="fill: #597dbf; stroke: #3c3c3c; stroke-width: 0.4; stroke-linejoin: miter"/>
   </g>
   <g id="line2d_17">
    <path d="M 259.471777 137.003038 
L 259.471777 141.428366 
" clip-path="url(#pacdb4793ca)" style="fill: none; stroke: #3c3c3c; stroke-width: 0.4"/>
   </g>
   <g id="line2d_18">
    <path d="M 259.471777 128.07998 
L 259.471777 127.681982 
" clip-path="url(#pacdb4793ca)" style="fill: none; stroke: #3c3c3c; stroke-width: 0.4"/>
   </g>
   <g id="line2d_19">
    <path d="M 248.707878 141.428366 
L 270.235675 141.428366 
" clip-path="url(#pacdb4793ca)" style="fill: none; stroke: #3c3c3c; stroke-width: 0.4; stroke-linecap: round"/>
   </g>
   <g id="line2d_20">
    <path d="M 248.707878 127.681982 
L 270.235675 127.681982 
" clip-path="url(#pacdb4793ca)" style="fill: none; stroke: #3c3c3c; stroke-width: 0.4; stroke-linecap: round"/>
   </g>
   <g id="line2d_21">
    <g clip-path="url(#pacdb4793ca)">
     <use xlink:href="#m4c15bbc3ef" x="259.471777" y="142.492769" style="fill-opacity: 0; stroke: #000000"/>
     <use xlink:href="#m4c15bbc3ef" x="259.471777" y="142.582377" style="fill-opacity: 0; stroke: #000000"/>
     <use xlink:href="#m4c15bbc3ef" x="259.471777" y="127.40675" style="fill-opacity: 0; stroke: #000000"/>
     <use xlink:href="#m4c15bbc3ef" x="259.471777" y="127.647505" style="fill-opacity: 0; stroke: #000000"/>
    </g>
   </g>
   <g id="patch_14">
    <path d="M 280.999574 130.65547 
L 324.055168 130.65547 
L 324.055168 128.778869 
L 280.999574 128.778869 
L 280.999574 130.65547 
z
" clip-path="url(#pacdb4793ca)" style="fill: #d98b5f; stroke: #3c3c3c; stroke-width: 0.4; stroke-linejoin: miter"/>
   </g>
   <g id="line2d_22">
    <path d="M 302.527371 130.65547 
L 302.527371 138.893535 
" clip-path="url(#pacdb4793ca)" style="fill: none; stroke: #3c3c3c; stroke-width: 0.4"/>
   </g>
   <g id="line2d_23">
    <path d="M 302.527371 128.778869 
L 302.527371 126.758373 
" clip-path="url(#pacdb4793ca)" style="fill: none; stroke: #3c3c3c; stroke-width: 0.4"/>
   </g>
   <g id="line2d_24">
    <path d="M 291.763472 138.893535 
L 313.291269 138.893535 
" clip-path="url(#pacdb4793ca)" style="fill: none; stroke: #3c3c3c; stroke-width: 0.4; stroke-linecap: round"/>
   </g>
   <g id="line2d_25">
    <path d="M 291.763472 126.758373 
L 313.291269 126.758373 
" clip-path="url(#pacdb4793ca)" style="fill: none; stroke: #3c3c3c; stroke-width: 0.4; stroke-linecap: round"/>
   </g>
   <g id="line2d_26">
    <g clip-path="url(#pacdb4793ca)">
     <use xlink:href="#m4c15bbc3ef" x="302.527371" y="142.987371" style="fill-opacity: 0; stroke: #000000"/>
     <use xlink:href="#m4c15bbc3ef" x="302.527371" y="139.146206" style="fill-opacity: 0; stroke: #000000"/>
     <use xlink:href="#m4c15bbc3ef" x="302.527371" y="126.622811" style="fill-opacity: 0; stroke: #000000"/>
     <use xlink:href="#m4c15bbc3ef" x="302.527371" y="126.690551" style="fill-opacity: 0; stroke: #000000"/>
    </g>
   </g>
   <g id="patch_15">
    <path d="M 324.055168 261.437866 
L 367.110761 261.437866 
L 367.110761 260.356567 
L 324.055168 260.356567 
L 324.055168 261.437866 
z
" clip-path="url(#pacdb4793ca)" style="fill: #c76e6e; stroke: #3c3c3c; stroke-width: 0.4; stroke-linejoin: miter"/>
   </g>
   <g id="line2d_27">
    <path d="M 345.582964 261.437866 
L 345.582964 262.170347 
" clip-path="url(#pacdb4793ca)" style="fill: none; stroke: #3c3c3c; stroke-width: 0.4"/>
   </g>
   <g id="line2d_28">
    <path d="M 345.582964 260.356567 
L 345.582964 259.646976 
" clip-path="url(#pacdb4793ca)" style="fill: none; stroke: #3c3c3c; stroke-width: 0.4"/>
   </g>
   <g id="line2d_29">
    <path d="M 334.819066 262.170347 
L 356.346863 262.170347 
" clip-path="url(#pacdb4793ca)" style="fill: none; stroke: #3c3c3c; stroke-width: 0.4; stroke-linecap: round"/>
   </g>
   <g id="line2d_30">
    <path d="M 334.819066 259.646976 
L 356.346863 259.646976 
" clip-path="url(#pacdb4793ca)" style="fill: none; stroke: #3c3c3c; stroke-width: 0.4; stroke-linecap: round"/>
   </g>
   <g id="line2d_31">
    <g clip-path="url(#pacdb4793ca)">
     <use xlink:href="#m4c15bbc3ef" x="345.582964" y="262.540162" style="fill-opacity: 0; stroke: #000000"/>
     <use xlink:href="#m4c15bbc3ef" x="345.582964" y="258.59895" style="fill-opacity: 0; stroke: #000000"/>
    </g>
   </g>
   <g id="patch_16">
    <path d="M 367.110761 208.199332 
L 410.166355 208.199332 
L 410.166355 65.704045 
L 367.110761 65.704045 
L 367.110761 208.199332 
z
" clip-path="url(#pacdb4793ca)" style="fill: #75bf71; stroke: #3c3c3c; stroke-width: 0.4; stroke-linejoin: miter"/>
   </g>
   <g id="line2d_32">
    <path d="M 388.638558 208.199332 
L 388.638558 258.946146 
" clip-path="url(#pacdb4793ca)" style="fill: none; stroke: #3c3c3c; stroke-width: 0.4"/>
   </g>
   <g id="line2d_33">
    <path d="M 388.638558 65.704045 
L 388.638558 49.855725 
" clip-path="url(#pacdb4793ca)" style="fill: none; stroke: #3c3c3c; stroke-width: 0.4"/>
   </g>
   <g id="line2d_34">
    <path d="M 377.87466 258.946146 
L 399.402457 258.946146 
" clip-path="url(#pacdb4793ca)" style="fill: none; stroke: #3c3c3c; stroke-width: 0.4; stroke-linecap: round"/>
   </g>
   <g id="line2d_35">
    <path d="M 377.87466 49.855725 
L 399.402457 49.855725 
" clip-path="url(#pacdb4793ca)" style="fill: none; stroke: #3c3c3c; stroke-width: 0.4; stroke-linecap: round"/>
   </g>
   <g id="line2d_36">
    <g clip-path="url(#pacdb4793ca)">
     <use xlink:href="#m4c15bbc3ef" x="388.638558" y="261.075139" style="fill-opacity: 0; stroke: #000000"/>
     <use xlink:href="#m4c15bbc3ef" x="388.638558" y="259.29548" style="fill-opacity: 0; stroke: #000000"/>
     <use xlink:href="#m4c15bbc3ef" x="388.638558" y="43.47" style="fill-opacity: 0; stroke: #000000"/>
     <use xlink:href="#m4c15bbc3ef" x="388.638558" y="45.590124" style="fill-opacity: 0; stroke: #000000"/>
    </g>
   </g>
   <g id="line2d_37">
    <path d="M 108.777198 82.801885 
L 151.832792 82.801885 
" clip-path="url(#pacdb4793ca)" style="fill: none; stroke: #3c3c3c; stroke-width: 0.4"/>
   </g>
   <g id="line2d_38">
    <path d="M 151.832792 89.484104 
L 194.888386 89.484104 
" clip-path="url(#pacdb4793ca)" style="fill: none; stroke: #3c3c3c; stroke-width: 0.4"/>
   </g>
   <g id="line2d_39">
    <path d="M 194.888386 251.148792 
L 237.94398 251.148792 
" clip-path="url(#pacdb4793ca)" style="fill: none; stroke: #3c3c3c; stroke-width: 0.4"/>
   </g>
   <g id="line2d_40">
    <path d="M 237.94398 129.007873 
L 280.999574 129.007873 
" clip-path="url(#pacdb4793ca)" style="fill: none; stroke: #3c3c3c; stroke-width: 0.4"/>
   </g>
   <g id="line2d_41">
    <path d="M 280.999574 129.754109 
L 324.055168 129.754109 
" clip-path="url(#pacdb4793ca)" style="fill: none; stroke: #3c3c3c; stroke-width: 0.4"/>
   </g>
   <g id="line2d_42">
    <path d="M 324.055168 261.075139 
L 367.110761 261.075139 
" clip-path="url(#pacdb4793ca)" style="fill: none; stroke: #3c3c3c; stroke-width: 0.4"/>
   </g>
   <g id="line2d_43">
    <path d="M 367.110761 173.992213 
L 410.166355 173.992213 
" clip-path="url(#pacdb4793ca)" style="fill: none; stroke: #3c3c3c; stroke-width: 0.4"/>
   </g>
   <g id="patch_17">
    <path d="M 71.103553 286.02 
L 71.103553 31.92 
" style="fill: none; stroke: #cccccc; stroke-width: 1.25; stroke-linejoin: miter; stroke-linecap: square"/>
   </g>
   <g id="patch_18">
    <path d="M 447.84 286.02 
L 447.84 31.92 
" style="fill: none; stroke: #cccccc; stroke-width: 1.25; stroke-linejoin: miter; stroke-linecap: square"/>
   </g>
   <g id="patch_19">
    <path d="M 71.103553 286.02 
L 447.84 286.02 
" style="fill: none; stroke: #cccccc; stroke-width: 1.25; stroke-linejoin: miter; stroke-linecap: square"/>
   </g>
   <g id="patch_20">
    <path d="M 71.103553 31.92 
L 447.84 31.92 
" style="fill: none; stroke: #cccccc; stroke-width: 1.25; stroke-linejoin: miter; stroke-linecap: square"/>
   </g>
   <g id="text_5">
    <!-- osu_latency CPU 128 Nodes -->
    <g style="fill: #262626" transform="translate(147.740527 25.92) scale(0.16 -0.16)">
     <defs>
      <path id="DejaVuSans-5f" d="M 3263 -1063 
L 3263 -1509 
L -63 -1509 
L -63 -1063 
L 3263 -1063 
z
" transform="scale(0.015625)"/>
      <path id="DejaVuSans-43" d="M 4122 4306 
L 4122 3641 
Q 3803 3938 3442 4084 
Q 3081 4231 2675 4231 
Q 1875 4231 1450 3742 
Q 1025 3253 1025 2328 
Q 1025 1406 1450 917 
Q 1875 428 2675 428 
Q 3081 428 3442 575 
Q 3803 722 4122 1019 
L 4122 359 
Q 3791 134 3420 21 
Q 3050 -91 2638 -91 
Q 1578 -91 968 557 
Q 359 1206 359 2328 
Q 359 3453 968 4101 
Q 1578 4750 2638 4750 
Q 3056 4750 3426 4639 
Q 3797 4528 4122 4306 
z
" transform="scale(0.015625)"/>
      <path id="DejaVuSans-50" d="M 1259 4147 
L 1259 2394 
L 2053 2394 
Q 2494 2394 2734 2622 
Q 2975 2850 2975 3272 
Q 2975 3691 2734 3919 
Q 2494 4147 2053 4147 
L 1259 4147 
z
M 628 4666 
L 2053 4666 
Q 2838 4666 3239 4311 
Q 3641 3956 3641 3272 
Q 3641 2581 3239 2228 
Q 2838 1875 2053 1875 
L 1259 1875 
L 1259 0 
L 628 0 
L 628 4666 
z
" transform="scale(0.015625)"/>
      <path id="DejaVuSans-55" d="M 556 4666 
L 1191 4666 
L 1191 1831 
Q 1191 1081 1462 751 
Q 1734 422 2344 422 
Q 2950 422 3222 751 
Q 3494 1081 3494 1831 
L 3494 4666 
L 4128 4666 
L 4128 1753 
Q 4128 841 3676 375 
Q 3225 -91 2344 -91 
Q 1459 -91 1007 375 
Q 556 841 556 1753 
L 556 4666 
z
" transform="scale(0.015625)"/>
      <path id="DejaVuSans-32" d="M 1228 531 
L 3431 531 
L 3431 0 
L 469 0 
L 469 531 
Q 828 903 1448 1529 
Q 2069 2156 2228 2338 
Q 2531 2678 2651 2914 
Q 2772 3150 2772 3378 
Q 2772 3750 2511 3984 
Q 2250 4219 1831 4219 
Q 1534 4219 1204 4116 
Q 875 4013 500 3803 
L 500 4441 
Q 881 4594 1212 4672 
Q 1544 4750 1819 4750 
Q 2544 4750 2975 4387 
Q 3406 4025 3406 3419 
Q 3406 3131 3298 2873 
Q 3191 2616 2906 2266 
Q 2828 2175 2409 1742 
Q 1991 1309 1228 531 
z
" transform="scale(0.015625)"/>
      <path id="DejaVuSans-38" d="M 2034 2216 
Q 1584 2216 1326 1975 
Q 1069 1734 1069 1313 
Q 1069 891 1326 650 
Q 1584 409 2034 409 
Q 2484 409 2743 651 
Q 3003 894 3003 1313 
Q 3003 1734 2745 1975 
Q 2488 2216 2034 2216 
z
M 1403 2484 
Q 997 2584 770 2862 
Q 544 3141 544 3541 
Q 544 4100 942 4425 
Q 1341 4750 2034 4750 
Q 2731 4750 3128 4425 
Q 3525 4100 3525 3541 
Q 3525 3141 3298 2862 
Q 3072 2584 2669 2484 
Q 3125 2378 3379 2068 
Q 3634 1759 3634 1313 
Q 3634 634 3220 271 
Q 2806 -91 2034 -91 
Q 1263 -91 848 271 
Q 434 634 434 1313 
Q 434 1759 690 2068 
Q 947 2378 1403 2484 
z
M 1172 3481 
Q 1172 3119 1398 2916 
Q 1625 2713 2034 2713 
Q 2441 2713 2670 2916 
Q 2900 3119 2900 3481 
Q 2900 3844 2670 4047 
Q 2441 4250 2034 4250 
Q 1625 4250 1398 4047 
Q 1172 3844 1172 3481 
z
" transform="scale(0.015625)"/>
      <path id="DejaVuSans-4e" d="M 628 4666 
L 1478 4666 
L 3547 763 
L 3547 4666 
L 4159 4666 
L 4159 0 
L 3309 0 
L 1241 3903 
L 1241 0 
L 628 0 
L 628 4666 
z
" transform="scale(0.015625)"/>
      <path id="DejaVuSans-64" d="M 2906 2969 
L 2906 4863 
L 3481 4863 
L 3481 0 
L 2906 0 
L 2906 525 
Q 2725 213 2448 61 
Q 2172 -91 1784 -91 
Q 1150 -91 751 415 
Q 353 922 353 1747 
Q 353 2572 751 3078 
Q 1150 3584 1784 3584 
Q 2172 3584 2448 3432 
Q 2725 3281 2906 2969 
z
M 947 1747 
Q 947 1113 1208 752 
Q 1469 391 1925 391 
Q 2381 391 2643 752 
Q 2906 1113 2906 1747 
Q 2906 2381 2643 2742 
Q 2381 3103 1925 3103 
Q 1469 3103 1208 2742 
Q 947 2381 947 1747 
z
" transform="scale(0.015625)"/>
     </defs>
     <use xlink:href="#DejaVuSans-6f"/>
     <use xlink:href="#DejaVuSans-73" x="61.181641"/>
     <use xlink:href="#DejaVuSans-75" x="113.28125"/>
     <use xlink:href="#DejaVuSans-5f" x="176.660156"/>
     <use xlink:href="#DejaVuSans-6c" x="226.660156"/>
     <use xlink:href="#DejaVuSans-61" x="254.443359"/>
     <use xlink:href="#DejaVuSans-74" x="315.722656"/>
     <use xlink:href="#DejaVuSans-65" x="354.931641"/>
     <use xlink:href="#DejaVuSans-6e" x="416.455078"/>
     <use xlink:href="#DejaVuSans-63" x="479.833984"/>
     <use xlink:href="#DejaVuSans-79" x="534.814453"/>
     <use xlink:href="#DejaVuSans-20" x="593.994141"/>
     <use xlink:href="#DejaVuSans-43" x="625.78125"/>
     <use xlink:href="#DejaVuSans-50" x="695.605469"/>
     <use xlink:href="#DejaVuSans-55" x="755.908203"/>
     <use xlink:href="#DejaVuSans-20" x="829.101562"/>
     <use xlink:href="#DejaVuSans-31" x="860.888672"/>
     <use xlink:href="#DejaVuSans-32" x="924.511719"/>
     <use xlink:href="#DejaVuSans-38" x="988.134766"/>
     <use xlink:href="#DejaVuSans-20" x="1051.757812"/>
     <use xlink:href="#DejaVuSans-4e" x="1083.544922"/>
     <use xlink:href="#DejaVuSans-6f" x="1158.349609"/>
     <use xlink:href="#DejaVuSans-64" x="1219.53125"/>
     <use xlink:href="#DejaVuSans-65" x="1283.007812"/>
     <use xlink:href="#DejaVuSans-73" x="1344.53125"/>
    </g>
   </g>
   <g id="legend_1">
    <g id="patch_21">
     <path d="M 78.803553 280.52 
L 337.731522 280.52 
Q 339.931522 280.52 339.931522 278.32 
L 339.931522 164.256875 
Q 339.931522 162.056875 337.731522 162.056875 
L 78.803553 162.056875 
Q 76.603553 162.056875 76.603553 164.256875 
L 76.603553 278.32 
Q 76.603553 280.52 78.803553 280.52 
z
" style="fill: #ffffff; opacity: 0.8; stroke: #cccccc; stroke-linejoin: miter"/>
    </g>
    <g id="patch_22">
     <path d="M 81.003553 174.815156 
L 103.003553 174.815156 
L 103.003553 167.115156 
L 81.003553 167.115156 
z
" style="fill: #826246; stroke: #3c3c3c; stroke-width: 0.4; stroke-linejoin: miter"/>
    </g>
    <g id="text_6">
     <!-- google/gke/cpu/osu_latency -->
     <g style="fill: #262626" transform="translate(111.803553 174.815156) scale(0.11 -0.11)">
      <defs>
       <path id="DejaVuSans-2f" d="M 1625 4666 
L 2156 4666 
L 531 -594 
L 0 -594 
L 1625 4666 
z
" transform="scale(0.015625)"/>
       <path id="DejaVuSans-6b" d="M 581 4863 
L 1159 4863 
L 1159 1991 
L 2875 3500 
L 3609 3500 
L 1753 1863 
L 3688 0 
L 2938 0 
L 1159 1709 
L 1159 0 
L 581 0 
L 581 4863 
z
" transform="scale(0.015625)"/>
       <path id="DejaVuSans-70" d="M 1159 525 
L 1159 -1331 
L 581 -1331 
L 581 3500 
L 1159 3500 
L 1159 2969 
Q 1341 3281 1617 3432 
Q 1894 3584 2278 3584 
Q 2916 3584 3314 3078 
Q 3713 2572 3713 1747 
Q 3713 922 3314 415 
Q 2916 -91 2278 -91 
Q 1894 -91 1617 61 
Q 1341 213 1159 525 
z
M 3116 1747 
Q 3116 2381 2855 2742 
Q 2594 3103 2138 3103 
Q 1681 3103 1420 2742 
Q 1159 2381 1159 1747 
Q 1159 1113 1420 752 
Q 1681 391 2138 391 
Q 2594 391 2855 752 
Q 3116 1113 3116 1747 
z
" transform="scale(0.015625)"/>
      </defs>
      <use xlink:href="#DejaVuSans-67"/>
      <use xlink:href="#DejaVuSans-6f" x="63.476562"/>
      <use xlink:href="#DejaVuSans-6f" x="124.658203"/>
      <use xlink:href="#DejaVuSans-67" x="185.839844"/>
      <use xlink:href="#DejaVuSans-6c" x="249.316406"/>
      <use xlink:href="#DejaVuSans-65" x="277.099609"/>
      <use xlink:href="#DejaVuSans-2f" x="338.623047"/>
      <use xlink:href="#DejaVuSans-67" x="372.314453"/>
      <use xlink:href="#DejaVuSans-6b" x="435.791016"/>
      <use xlink:href="#DejaVuSans-65" x="490.076172"/>
      <use xlink:href="#DejaVuSans-2f" x="551.599609"/>
      <use xlink:href="#DejaVuSans-63" x="585.291016"/>
      <use xlink:href="#DejaVuSans-70" x="640.271484"/>
      <use xlink:href="#DejaVuSans-75" x="703.748047"/>
      <use xlink:href="#DejaVuSans-2f" x="767.126953"/>
      <use xlink:href="#DejaVuSans-6f" x="800.818359"/>
      <use xlink:href="#DejaVuSans-73" x="862"/>
      <use xlink:href="#DejaVuSans-75" x="914.099609"/>
      <use xlink:href="#DejaVuSans-5f" x="977.478516"/>
      <use xlink:href="#DejaVuSans-6c" x="1027.478516"/>
      <use xlink:href="#DejaVuSans-61" x="1055.261719"/>
      <use xlink:href="#DejaVuSans-74" x="1116.541016"/>
      <use xlink:href="#DejaVuSans-65" x="1155.75"/>
      <use xlink:href="#DejaVuSans-6e" x="1217.273438"/>
      <use xlink:href="#DejaVuSans-63" x="1280.652344"/>
      <use xlink:href="#DejaVuSans-79" x="1335.632812"/>
     </g>
    </g>
    <g id="patch_23">
     <path d="M 81.003553 191.267031 
L 103.003553 191.267031 
L 103.003553 183.567031 
L 81.003553 183.567031 
z
" style="fill: #9475ab; stroke: #3c3c3c; stroke-width: 0.4; stroke-linejoin: miter"/>
    </g>
    <g id="text_7">
     <!-- google/compute-engine/cpu/osu_latency -->
     <g style="fill: #262626" transform="translate(111.803553 191.267031) scale(0.11 -0.11)">
      <defs>
       <path id="DejaVuSans-6d" d="M 3328 2828 
Q 3544 3216 3844 3400 
Q 4144 3584 4550 3584 
Q 5097 3584 5394 3201 
Q 5691 2819 5691 2113 
L 5691 0 
L 5113 0 
L 5113 2094 
Q 5113 2597 4934 2840 
Q 4756 3084 4391 3084 
Q 3944 3084 3684 2787 
Q 3425 2491 3425 1978 
L 3425 0 
L 2847 0 
L 2847 2094 
Q 2847 2600 2669 2842 
Q 2491 3084 2119 3084 
Q 1678 3084 1418 2786 
Q 1159 2488 1159 1978 
L 1159 0 
L 581 0 
L 581 3500 
L 1159 3500 
L 1159 2956 
Q 1356 3278 1631 3431 
Q 1906 3584 2284 3584 
Q 2666 3584 2933 3390 
Q 3200 3197 3328 2828 
z
" transform="scale(0.015625)"/>
       <path id="DejaVuSans-2d" d="M 313 2009 
L 1997 2009 
L 1997 1497 
L 313 1497 
L 313 2009 
z
" transform="scale(0.015625)"/>
      </defs>
      <use xlink:href="#DejaVuSans-67"/>
      <use xlink:href="#DejaVuSans-6f" x="63.476562"/>
      <use xlink:href="#DejaVuSans-6f" x="124.658203"/>
      <use xlink:href="#DejaVuSans-67" x="185.839844"/>
      <use xlink:href="#DejaVuSans-6c" x="249.316406"/>
      <use xlink:href="#DejaVuSans-65" x="277.099609"/>
      <use xlink:href="#DejaVuSans-2f" x="338.623047"/>
      <use xlink:href="#DejaVuSans-63" x="372.314453"/>
      <use xlink:href="#DejaVuSans-6f" x="427.294922"/>
      <use xlink:href="#DejaVuSans-6d" x="488.476562"/>
      <use xlink:href="#DejaVuSans-70" x="585.888672"/>
      <use xlink:href="#DejaVuSans-75" x="649.365234"/>
      <use xlink:href="#DejaVuSans-74" x="712.744141"/>
      <use xlink:href="#DejaVuSans-65" x="751.953125"/>
      <use xlink:href="#DejaVuSans-2d" x="813.476562"/>
      <use xlink:href="#DejaVuSans-65" x="849.560547"/>
      <use xlink:href="#DejaVuSans-6e" x="911.083984"/>
      <use xlink:href="#DejaVuSans-67" x="974.462891"/>
      <use xlink:href="#DejaVuSans-69" x="1037.939453"/>
      <use xlink:href="#DejaVuSans-6e" x="1065.722656"/>
      <use xlink:href="#DejaVuSans-65" x="1129.101562"/>
      <use xlink:href="#DejaVuSans-2f" x="1190.625"/>
      <use xlink:href="#DejaVuSans-63" x="1224.316406"/>
      <use xlink:href="#DejaVuSans-70" x="1279.296875"/>
      <use xlink:href="#DejaVuSans-75" x="1342.773438"/>
      <use xlink:href="#DejaVuSans-2f" x="1406.152344"/>
      <use xlink:href="#DejaVuSans-6f" x="1439.84375"/>
      <use xlink:href="#DejaVuSans-73" x="1501.025391"/>
      <use xlink:href="#DejaVuSans-75" x="1553.125"/>
      <use xlink:href="#DejaVuSans-5f" x="1616.503906"/>
      <use xlink:href="#DejaVuSans-6c" x="1666.503906"/>
      <use xlink:href="#DejaVuSans-61" x="1694.287109"/>
      <use xlink:href="#DejaVuSans-74" x="1755.566406"/>
      <use xlink:href="#DejaVuSans-65" x="1794.775391"/>
      <use xlink:href="#DejaVuSans-6e" x="1856.298828"/>
      <use xlink:href="#DejaVuSans-63" x="1919.677734"/>
      <use xlink:href="#DejaVuSans-79" x="1974.658203"/>
     </g>
    </g>
    <g id="patch_24">
     <path d="M 81.003553 207.718906 
L 103.003553 207.718906 
L 103.003553 200.018906 
L 81.003553 200.018906 
z
" style="fill: #d08abb; stroke: #3c3c3c; stroke-width: 0.4; stroke-linejoin: miter"/>
    </g>
    <g id="text_8">
     <!-- on-premises/dane/cpu/osu_latency -->
     <g style="fill: #262626" transform="translate(111.803553 207.718906) scale(0.11 -0.11)">
      <defs>
       <path id="DejaVuSans-72" d="M 2631 2963 
Q 2534 3019 2420 3045 
Q 2306 3072 2169 3072 
Q 1681 3072 1420 2755 
Q 1159 2438 1159 1844 
L 1159 0 
L 581 0 
L 581 3500 
L 1159 3500 
L 1159 2956 
Q 1341 3275 1631 3429 
Q 1922 3584 2338 3584 
Q 2397 3584 2469 3576 
Q 2541 3569 2628 3553 
L 2631 2963 
z
" transform="scale(0.015625)"/>
      </defs>
      <use xlink:href="#DejaVuSans-6f"/>
      <use xlink:href="#DejaVuSans-6e" x="61.181641"/>
      <use xlink:href="#DejaVuSans-2d" x="124.560547"/>
      <use xlink:href="#DejaVuSans-70" x="160.644531"/>
      <use xlink:href="#DejaVuSans-72" x="224.121094"/>
      <use xlink:href="#DejaVuSans-65" x="262.984375"/>
      <use xlink:href="#DejaVuSans-6d" x="324.507812"/>
      <use xlink:href="#DejaVuSans-69" x="421.919922"/>
      <use xlink:href="#DejaVuSans-73" x="449.703125"/>
      <use xlink:href="#DejaVuSans-65" x="501.802734"/>
      <use xlink:href="#DejaVuSans-73" x="563.326172"/>
      <use xlink:href="#DejaVuSans-2f" x="615.425781"/>
      <use xlink:href="#DejaVuSans-64" x="649.117188"/>
      <use xlink:href="#DejaVuSans-61" x="712.59375"/>
      <use xlink:href="#DejaVuSans-6e" x="773.873047"/>
      <use xlink:href="#DejaVuSans-65" x="837.251953"/>
      <use xlink:href="#DejaVuSans-2f" x="898.775391"/>
      <use xlink:href="#DejaVuSans-63" x="932.466797"/>
      <use xlink:href="#DejaVuSans-70" x="987.447266"/>
      <use xlink:href="#DejaVuSans-75" x="1050.923828"/>
      <use xlink:href="#DejaVuSans-2f" x="1114.302734"/>
      <use xlink:href="#DejaVuSans-6f" x="1147.994141"/>
      <use xlink:href="#DejaVuSans-73" x="1209.175781"/>
      <use xlink:href="#DejaVuSans-75" x="1261.275391"/>
      <use xlink:href="#DejaVuSans-5f" x="1324.654297"/>
      <use xlink:href="#DejaVuSans-6c" x="1374.654297"/>
      <use xlink:href="#DejaVuSans-61" x="1402.4375"/>
      <use xlink:href="#DejaVuSans-74" x="1463.716797"/>
      <use xlink:href="#DejaVuSans-65" x="1502.925781"/>
      <use xlink:href="#DejaVuSans-6e" x="1564.449219"/>
      <use xlink:href="#DejaVuSans-63" x="1627.828125"/>
      <use xlink:href="#DejaVuSans-79" x="1682.808594"/>
     </g>
    </g>
    <g id="patch_25">
     <path d="M 81.003553 224.170781 
L 103.003553 224.170781 
L 103.003553 216.470781 
L 81.003553 216.470781 
z
" style="fill: #597dbf; stroke: #3c3c3c; stroke-width: 0.4; stroke-linejoin: miter"/>
    </g>
    <g id="text_9">
     <!-- aws/eks/cpu/osu_latency -->
     <g style="fill: #262626" transform="translate(111.803553 224.170781) scale(0.11 -0.11)">
      <defs>
       <path id="DejaVuSans-77" d="M 269 3500 
L 844 3500 
L 1563 769 
L 2278 3500 
L 2956 3500 
L 3675 769 
L 4391 3500 
L 4966 3500 
L 4050 0 
L 3372 0 
L 2619 2869 
L 1863 0 
L 1184 0 
L 269 3500 
z
" transform="scale(0.015625)"/>
      </defs>
      <use xlink:href="#DejaVuSans-61"/>
      <use xlink:href="#DejaVuSans-77" x="61.279297"/>
      <use xlink:href="#DejaVuSans-73" x="143.066406"/>
      <use xlink:href="#DejaVuSans-2f" x="195.166016"/>
      <use xlink:href="#DejaVuSans-65" x="228.857422"/>
      <use xlink:href="#DejaVuSans-6b" x="290.380859"/>
      <use xlink:href="#DejaVuSans-73" x="348.291016"/>
      <use xlink:href="#DejaVuSans-2f" x="400.390625"/>
      <use xlink:href="#DejaVuSans-63" x="434.082031"/>
      <use xlink:href="#DejaVuSans-70" x="489.0625"/>
      <use xlink:href="#DejaVuSans-75" x="552.539062"/>
      <use xlink:href="#DejaVuSans-2f" x="615.917969"/>
      <use xlink:href="#DejaVuSans-6f" x="649.609375"/>
      <use xlink:href="#DejaVuSans-73" x="710.791016"/>
      <use xlink:href="#DejaVuSans-75" x="762.890625"/>
      <use xlink:href="#DejaVuSans-5f" x="826.269531"/>
      <use xlink:href="#DejaVuSans-6c" x="876.269531"/>
      <use xlink:href="#DejaVuSans-61" x="904.052734"/>
      <use xlink:href="#DejaVuSans-74" x="965.332031"/>
      <use xlink:href="#DejaVuSans-65" x="1004.541016"/>
      <use xlink:href="#DejaVuSans-6e" x="1066.064453"/>
      <use xlink:href="#DejaVuSans-63" x="1129.443359"/>
      <use xlink:href="#DejaVuSans-79" x="1184.423828"/>
     </g>
    </g>
    <g id="patch_26">
     <path d="M 81.003553 240.622656 
L 103.003553 240.622656 
L 103.003553 232.922656 
L 81.003553 232.922656 
z
" style="fill: #d98b5f; stroke: #3c3c3c; stroke-width: 0.4; stroke-linejoin: miter"/>
    </g>
    <g id="text_10">
     <!-- aws/parallel-cluster/cpu/osu_latency -->
     <g style="fill: #262626" transform="translate(111.803553 240.622656) scale(0.11 -0.11)">
      <use xlink:href="#DejaVuSans-61"/>
      <use xlink:href="#DejaVuSans-77" x="61.279297"/>
      <use xlink:href="#DejaVuSans-73" x="143.066406"/>
      <use xlink:href="#DejaVuSans-2f" x="195.166016"/>
      <use xlink:href="#DejaVuSans-70" x="228.857422"/>
      <use xlink:href="#DejaVuSans-61" x="292.333984"/>
      <use xlink:href="#DejaVuSans-72" x="353.613281"/>
      <use xlink:href="#DejaVuSans-61" x="394.726562"/>
      <use xlink:href="#DejaVuSans-6c" x="456.005859"/>
      <use xlink:href="#DejaVuSans-6c" x="483.789062"/>
      <use xlink:href="#DejaVuSans-65" x="511.572266"/>
      <use xlink:href="#DejaVuSans-6c" x="573.095703"/>
      <use xlink:href="#DejaVuSans-2d" x="600.878906"/>
      <use xlink:href="#DejaVuSans-63" x="636.962891"/>
      <use xlink:href="#DejaVuSans-6c" x="691.943359"/>
      <use xlink:href="#DejaVuSans-75" x="719.726562"/>
      <use xlink:href="#DejaVuSans-73" x="783.105469"/>
      <use xlink:href="#DejaVuSans-74" x="835.205078"/>
      <use xlink:href="#DejaVuSans-65" x="874.414062"/>
      <use xlink:href="#DejaVuSans-72" x="935.9375"/>
      <use xlink:href="#DejaVuSans-2f" x="977.050781"/>
      <use xlink:href="#DejaVuSans-63" x="1010.742188"/>
      <use xlink:href="#DejaVuSans-70" x="1065.722656"/>
      <use xlink:href="#DejaVuSans-75" x="1129.199219"/>
      <use xlink:href="#DejaVuSans-2f" x="1192.578125"/>
      <use xlink:href="#DejaVuSans-6f" x="1226.269531"/>
      <use xlink:href="#DejaVuSans-73" x="1287.451172"/>
      <use xlink:href="#DejaVuSans-75" x="1339.550781"/>
      <use xlink:href="#DejaVuSans-5f" x="1402.929688"/>
      <use xlink:href="#DejaVuSans-6c" x="1452.929688"/>
      <use xlink:href="#DejaVuSans-61" x="1480.712891"/>
      <use xlink:href="#DejaVuSans-74" x="1541.992188"/>
      <use xlink:href="#DejaVuSans-65" x="1581.201172"/>
      <use xlink:href="#DejaVuSans-6e" x="1642.724609"/>
      <use xlink:href="#DejaVuSans-63" x="1706.103516"/>
      <use xlink:href="#DejaVuSans-79" x="1761.083984"/>
     </g>
    </g>
    <g id="patch_27">
     <path d="M 81.003553 257.074531 
L 103.003553 257.074531 
L 103.003553 249.374531 
L 81.003553 249.374531 
z
" style="fill: #c76e6e; stroke: #3c3c3c; stroke-width: 0.4; stroke-linejoin: miter"/>
    </g>
    <g id="text_11">
     <!-- azure/cyclecloud/cpu/osu_latency -->
     <g style="fill: #262626" transform="translate(111.803553 257.074531) scale(0.11 -0.11)">
      <use xlink:href="#DejaVuSans-61"/>
      <use xlink:href="#DejaVuSans-7a" x="61.279297"/>
      <use xlink:href="#DejaVuSans-75" x="113.769531"/>
      <use xlink:href="#DejaVuSans-72" x="177.148438"/>
      <use xlink:href="#DejaVuSans-65" x="216.011719"/>
      <use xlink:href="#DejaVuSans-2f" x="277.535156"/>
      <use xlink:href="#DejaVuSans-63" x="311.226562"/>
      <use xlink:href="#DejaVuSans-79" x="366.207031"/>
      <use xlink:href="#DejaVuSans-63" x="425.386719"/>
      <use xlink:href="#DejaVuSans-6c" x="480.367188"/>
      <use xlink:href="#DejaVuSans-65" x="508.150391"/>
      <use xlink:href="#DejaVuSans-63" x="569.673828"/>
      <use xlink:href="#DejaVuSans-6c" x="624.654297"/>
      <use xlink:href="#DejaVuSans-6f" x="652.4375"/>
      <use xlink:href="#DejaVuSans-75" x="713.619141"/>
      <use xlink:href="#DejaVuSans-64" x="776.998047"/>
      <use xlink:href="#DejaVuSans-2f" x="840.474609"/>
      <use xlink:href="#DejaVuSans-63" x="874.166016"/>
      <use xlink:href="#DejaVuSans-70" x="929.146484"/>
      <use xlink:href="#DejaVuSans-75" x="992.623047"/>
      <use xlink:href="#DejaVuSans-2f" x="1056.001953"/>
      <use xlink:href="#DejaVuSans-6f" x="1089.693359"/>
      <use xlink:href="#DejaVuSans-73" x="1150.875"/>
      <use xlink:href="#DejaVuSans-75" x="1202.974609"/>
      <use xlink:href="#DejaVuSans-5f" x="1266.353516"/>
      <use xlink:href="#DejaVuSans-6c" x="1316.353516"/>
      <use xlink:href="#DejaVuSans-61" x="1344.136719"/>
      <use xlink:href="#DejaVuSans-74" x="1405.416016"/>
      <use xlink:href="#DejaVuSans-65" x="1444.625"/>
      <use xlink:href="#DejaVuSans-6e" x="1506.148438"/>
      <use xlink:href="#DejaVuSans-63" x="1569.527344"/>
      <use xlink:href="#DejaVuSans-79" x="1624.507812"/>
     </g>
    </g>
    <g id="patch_28">
     <path d="M 81.003553 273.526406 
L 103.003553 273.526406 
L 103.003553 265.826406 
L 81.003553 265.826406 
z
" style="fill: #75bf71; stroke: #3c3c3c; stroke-width: 0.4; stroke-linejoin: miter"/>
    </g>
    <g id="text_12">
     <!-- azure/aks/cpu/osu_latency -->
     <g style="fill: #262626" transform="translate(111.803553 273.526406) scale(0.11 -0.11)">
      <use xlink:href="#DejaVuSans-61"/>
      <use xlink:href="#DejaVuSans-7a" x="61.279297"/>
      <use xlink:href="#DejaVuSans-75" x="113.769531"/>
      <use xlink:href="#DejaVuSans-72" x="177.148438"/>
      <use xlink:href="#DejaVuSans-65" x="216.011719"/>
      <use xlink:href="#DejaVuSans-2f" x="277.535156"/>
      <use xlink:href="#DejaVuSans-61" x="311.226562"/>
      <use xlink:href="#DejaVuSans-6b" x="372.505859"/>
      <use xlink:href="#DejaVuSans-73" x="430.416016"/>
      <use xlink:href="#DejaVuSans-2f" x="482.515625"/>
      <use xlink:href="#DejaVuSans-63" x="516.207031"/>
      <use xlink:href="#DejaVuSans-70" x="571.1875"/>
      <use xlink:href="#DejaVuSans-75" x="634.664062"/>
      <use xlink:href="#DejaVuSans-2f" x="698.042969"/>
      <use xlink:href="#DejaVuSans-6f" x="731.734375"/>
      <use xlink:href="#DejaVuSans-73" x="792.916016"/>
      <use xlink:href="#DejaVuSans-75" x="845.015625"/>
      <use xlink:href="#DejaVuSans-5f" x="908.394531"/>
      <use xlink:href="#DejaVuSans-6c" x="958.394531"/>
      <use xlink:href="#DejaVuSans-61" x="986.177734"/>
      <use xlink:href="#DejaVuSans-74" x="1047.457031"/>
      <use xlink:href="#DejaVuSans-65" x="1086.666016"/>
      <use xlink:href="#DejaVuSans-6e" x="1148.189453"/>
      <use xlink:href="#DejaVuSans-63" x="1211.568359"/>
      <use xlink:href="#DejaVuSans-79" x="1266.548828"/>
     </g>
    </g>
   </g>
  </g>
 </g>
 <defs>
  <clipPath id="pacdb4793ca">
   <rect x="71.103553" y="31.92" width="376.736447" height="254.1"/>
  </clipPath>
 </defs>
</svg>
