<?xml version="1.0" encoding="utf-8" standalone="no"?>
<!DOCTYPE svg PUBLIC "-//W3C//DTD SVG 1.1//EN"
  "http://www.w3.org/Graphics/SVG/1.1/DTD/svg11.dtd">
<svg xmlns:xlink="http://www.w3.org/1999/xlink" width="576pt" height="288pt" viewBox="0 0 576 288" xmlns="http://www.w3.org/2000/svg" version="1.1">
 <metadata>
  <rdf:RDF xmlns:dc="http://purl.org/dc/elements/1.1/" xmlns:cc="http://creativecommons.org/ns#" xmlns:rdf="http://www.w3.org/1999/02/22-rdf-syntax-ns#">
   <cc:Work>
    <dc:type rdf:resource="http://purl.org/dc/dcmitype/StillImage"/>
    <dc:date>2025-02-04T10:27:00.973771</dc:date>
    <dc:format>image/svg+xml</dc:format>
    <dc:creator>
     <cc:Agent>
      <dc:title>Matplotlib v3.8.4, https://matplotlib.org/</dc:title>
     </cc:Agent>
    </dc:creator>
   </cc:Work>
  </rdf:RDF>
 </metadata>
 <defs>
  <style type="text/css">*{stroke-linejoin: round; stroke-linecap: butt}</style>
 </defs>
 <g id="figure_1">
  <g id="patch_1">
   <path d="M 0 288 
L 576 288 
L 576 0 
L 0 0 
z
" style="fill: #ffffff"/>
  </g>
  <g id="axes_1">
   <g id="patch_2">
    <path d="M 71.373553 226.836 
L 563.04 226.836 
L 563.04 31.92 
L 71.373553 31.92 
z
" style="fill: #ffffff"/>
   </g>
   <g id="matplotlib.axis_1">
    <g id="xtick_1">
     <g id="line2d_1">
      <path d="M 93.722028 226.836 
L 93.722028 31.92 
" clip-path="url(#p633ad1feef)" style="fill: none; stroke: #cccccc; stroke-linecap: round"/>
     </g>
     <g id="text_1">
      <!-- $\mathdefault{10^{0}}$ -->
      <g style="fill: #262626" transform="translate(79.642028 248.4935) scale(0.16 -0.16)">
       <defs>
        <path id="DejaVuSans-31" d="M 794 531 
L 1825 531 
L 1825 4091 
L 703 3866 
L 703 4441 
L 1819 4666 
L 2450 4666 
L 2450 531 
L 3481 531 
L 3481 0 
L 794 0 
L 794 531 
z
" transform="scale(0.015625)"/>
        <path id="DejaVuSans-30" d="M 2034 4250 
Q 1547 4250 1301 3770 
Q 1056 3291 1056 2328 
Q 1056 1369 1301 889 
Q 1547 409 2034 409 
Q 2525 409 2770 889 
Q 3016 1369 3016 2328 
Q 3016 3291 2770 3770 
Q 2525 4250 2034 4250 
z
M 2034 4750 
Q 2819 4750 3233 4129 
Q 3647 3509 3647 2328 
Q 3647 1150 3233 529 
Q 2819 -91 2034 -91 
Q 1250 -91 836 529 
Q 422 1150 422 2328 
Q 422 3509 836 4129 
Q 1250 4750 2034 4750 
z
" transform="scale(0.015625)"/>
       </defs>
       <use xlink:href="#DejaVuSans-31" transform="translate(0 0.765625)"/>
       <use xlink:href="#DejaVuSans-30" transform="translate(63.623047 0.765625)"/>
       <use xlink:href="#DejaVuSans-30" transform="translate(128.203125 39.046875) scale(0.7)"/>
      </g>
     </g>
    </g>
    <g id="xtick_2">
     <g id="line2d_2">
      <path d="M 161.212961 226.836 
L 161.212961 31.92 
" clip-path="url(#p633ad1feef)" style="fill: none; stroke: #cccccc; stroke-linecap: round"/>
     </g>
     <g id="text_2">
      <!-- $\mathdefault{10^{1}}$ -->
      <g style="fill: #262626" transform="translate(147.132961 248.4935) scale(0.16 -0.16)">
       <use xlink:href="#DejaVuSans-31" transform="translate(0 0.684375)"/>
       <use xlink:href="#DejaVuSans-30" transform="translate(63.623047 0.684375)"/>
       <use xlink:href="#DejaVuSans-31" transform="translate(128.203125 38.965625) scale(0.7)"/>
      </g>
     </g>
    </g>
    <g id="xtick_3">
     <g id="line2d_3">
      <path d="M 228.703895 226.836 
L 228.703895 31.92 
" clip-path="url(#p633ad1feef)" style="fill: none; stroke: #cccccc; stroke-linecap: round"/>
     </g>
     <g id="text_3">
      <!-- $\mathdefault{10^{2}}$ -->
      <g style="fill: #262626" transform="translate(214.623895 248.4935) scale(0.16 -0.16)">
       <defs>
        <path id="DejaVuSans-32" d="M 1228 531 
L 3431 531 
L 3431 0 
L 469 0 
L 469 531 
Q 828 903 1448 1529 
Q 2069 2156 2228 2338 
Q 2531 2678 2651 2914 
Q 2772 3150 2772 3378 
Q 2772 3750 2511 3984 
Q 2250 4219 1831 4219 
Q 1534 4219 1204 4116 
Q 875 4013 500 3803 
L 500 4441 
Q 881 4594 1212 4672 
Q 1544 4750 1819 4750 
Q 2544 4750 2975 4387 
Q 3406 4025 3406 3419 
Q 3406 3131 3298 2873 
Q 3191 2616 2906 2266 
Q 2828 2175 2409 1742 
Q 1991 1309 1228 531 
z
" transform="scale(0.015625)"/>
       </defs>
       <use xlink:href="#DejaVuSans-31" transform="translate(0 0.765625)"/>
       <use xlink:href="#DejaVuSans-30" transform="translate(63.623047 0.765625)"/>
       <use xlink:href="#DejaVuSans-32" transform="translate(128.203125 39.046875) scale(0.7)"/>
      </g>
     </g>
    </g>
    <g id="xtick_4">
     <g id="line2d_4">
      <path d="M 296.194828 226.836 
L 296.194828 31.92 
" clip-path="url(#p633ad1feef)" style="fill: none; stroke: #cccccc; stroke-linecap: round"/>
     </g>
     <g id="text_4">
      <!-- $\mathdefault{10^{3}}$ -->
      <g style="fill: #262626" transform="translate(282.114828 248.4935) scale(0.16 -0.16)">
       <defs>
        <path id="DejaVuSans-33" d="M 2597 2516 
Q 3050 2419 3304 2112 
Q 3559 1806 3559 1356 
Q 3559 666 3084 287 
Q 2609 -91 1734 -91 
Q 1441 -91 1130 -33 
Q 819 25 488 141 
L 488 750 
Q 750 597 1062 519 
Q 1375 441 1716 441 
Q 2309 441 2620 675 
Q 2931 909 2931 1356 
Q 2931 1769 2642 2001 
Q 2353 2234 1838 2234 
L 1294 2234 
L 1294 2753 
L 1863 2753 
Q 2328 2753 2575 2939 
Q 2822 3125 2822 3475 
Q 2822 3834 2567 4026 
Q 2313 4219 1838 4219 
Q 1578 4219 1281 4162 
Q 984 4106 628 3988 
L 628 4550 
Q 988 4650 1302 4700 
Q 1616 4750 1894 4750 
Q 2613 4750 3031 4423 
Q 3450 4097 3450 3541 
Q 3450 3153 3228 2886 
Q 3006 2619 2597 2516 
z
" transform="scale(0.015625)"/>
       </defs>
       <use xlink:href="#DejaVuSans-31" transform="translate(0 0.765625)"/>
       <use xlink:href="#DejaVuSans-30" transform="translate(63.623047 0.765625)"/>
       <use xlink:href="#DejaVuSans-33" transform="translate(128.203125 39.046875) scale(0.7)"/>
      </g>
     </g>
    </g>
    <g id="xtick_5">
     <g id="line2d_5">
      <path d="M 363.685761 226.836 
L 363.685761 31.92 
" clip-path="url(#p633ad1feef)" style="fill: none; stroke: #cccccc; stroke-linecap: round"/>
     </g>
     <g id="text_5">
      <!-- $\mathdefault{10^{4}}$ -->
      <g style="fill: #262626" transform="translate(349.605761 248.4935) scale(0.16 -0.16)">
       <defs>
        <path id="DejaVuSans-34" d="M 2419 4116 
L 825 1625 
L 2419 1625 
L 2419 4116 
z
M 2253 4666 
L 3047 4666 
L 3047 1625 
L 3713 1625 
L 3713 1100 
L 3047 1100 
L 3047 0 
L 2419 0 
L 2419 1100 
L 313 1100 
L 313 1709 
L 2253 4666 
z
" transform="scale(0.015625)"/>
       </defs>
       <use xlink:href="#DejaVuSans-31" transform="translate(0 0.684375)"/>
       <use xlink:href="#DejaVuSans-30" transform="translate(63.623047 0.684375)"/>
       <use xlink:href="#DejaVuSans-34" transform="translate(128.203125 38.965625) scale(0.7)"/>
      </g>
     </g>
    </g>
    <g id="xtick_6">
     <g id="line2d_6">
      <path d="M 431.176694 226.836 
L 431.176694 31.92 
" clip-path="url(#p633ad1feef)" style="fill: none; stroke: #cccccc; stroke-linecap: round"/>
     </g>
     <g id="text_6">
      <!-- $\mathdefault{10^{5}}$ -->
      <g style="fill: #262626" transform="translate(417.096694 248.4935) scale(0.16 -0.16)">
       <defs>
        <path id="DejaVuSans-35" d="M 691 4666 
L 3169 4666 
L 3169 4134 
L 1269 4134 
L 1269 2991 
Q 1406 3038 1543 3061 
Q 1681 3084 1819 3084 
Q 2600 3084 3056 2656 
Q 3513 2228 3513 1497 
Q 3513 744 3044 326 
Q 2575 -91 1722 -91 
Q 1428 -91 1123 -41 
Q 819 9 494 109 
L 494 744 
Q 775 591 1075 516 
Q 1375 441 1709 441 
Q 2250 441 2565 725 
Q 2881 1009 2881 1497 
Q 2881 1984 2565 2268 
Q 2250 2553 1709 2553 
Q 1456 2553 1204 2497 
Q 953 2441 691 2322 
L 691 4666 
z
" transform="scale(0.015625)"/>
       </defs>
       <use xlink:href="#DejaVuSans-31" transform="translate(0 0.684375)"/>
       <use xlink:href="#DejaVuSans-30" transform="translate(63.623047 0.684375)"/>
       <use xlink:href="#DejaVuSans-35" transform="translate(128.203125 38.965625) scale(0.7)"/>
      </g>
     </g>
    </g>
    <g id="xtick_7">
     <g id="line2d_7">
      <path d="M 498.667627 226.836 
L 498.667627 31.92 
" clip-path="url(#p633ad1feef)" style="fill: none; stroke: #cccccc; stroke-linecap: round"/>
     </g>
     <g id="text_7">
      <!-- $\mathdefault{10^{6}}$ -->
      <g style="fill: #262626" transform="translate(484.587627 248.4935) scale(0.16 -0.16)">
       <defs>
        <path id="DejaVuSans-36" d="M 2113 2584 
Q 1688 2584 1439 2293 
Q 1191 2003 1191 1497 
Q 1191 994 1439 701 
Q 1688 409 2113 409 
Q 2538 409 2786 701 
Q 3034 994 3034 1497 
Q 3034 2003 2786 2293 
Q 2538 2584 2113 2584 
z
M 3366 4563 
L 3366 3988 
Q 3128 4100 2886 4159 
Q 2644 4219 2406 4219 
Q 1781 4219 1451 3797 
Q 1122 3375 1075 2522 
Q 1259 2794 1537 2939 
Q 1816 3084 2150 3084 
Q 2853 3084 3261 2657 
Q 3669 2231 3669 1497 
Q 3669 778 3244 343 
Q 2819 -91 2113 -91 
Q 1303 -91 875 529 
Q 447 1150 447 2328 
Q 447 3434 972 4092 
Q 1497 4750 2381 4750 
Q 2619 4750 2861 4703 
Q 3103 4656 3366 4563 
z
" transform="scale(0.015625)"/>
       </defs>
       <use xlink:href="#DejaVuSans-31" transform="translate(0 0.765625)"/>
       <use xlink:href="#DejaVuSans-30" transform="translate(63.623047 0.765625)"/>
       <use xlink:href="#DejaVuSans-36" transform="translate(128.203125 39.046875) scale(0.7)"/>
      </g>
     </g>
    </g>
    <g id="xtick_8"/>
    <g id="xtick_9"/>
    <g id="xtick_10"/>
    <g id="xtick_11"/>
    <g id="xtick_12"/>
    <g id="xtick_13"/>
    <g id="xtick_14"/>
    <g id="xtick_15"/>
    <g id="xtick_16"/>
    <g id="xtick_17"/>
    <g id="xtick_18"/>
    <g id="xtick_19"/>
    <g id="xtick_20"/>
    <g id="xtick_21"/>
    <g id="xtick_22"/>
    <g id="xtick_23"/>
    <g id="xtick_24"/>
    <g id="xtick_25"/>
    <g id="xtick_26"/>
    <g id="xtick_27"/>
    <g id="xtick_28"/>
    <g id="xtick_29"/>
    <g id="xtick_30"/>
    <g id="xtick_31"/>
    <g id="xtick_32"/>
    <g id="xtick_33"/>
    <g id="xtick_34"/>
    <g id="xtick_35"/>
    <g id="xtick_36"/>
    <g id="xtick_37"/>
    <g id="xtick_38"/>
    <g id="xtick_39"/>
    <g id="xtick_40"/>
    <g id="xtick_41"/>
    <g id="xtick_42"/>
    <g id="xtick_43"/>
    <g id="xtick_44"/>
    <g id="xtick_45"/>
    <g id="xtick_46"/>
    <g id="xtick_47"/>
    <g id="xtick_48"/>
    <g id="xtick_49"/>
    <g id="xtick_50"/>
    <g id="xtick_51"/>
    <g id="xtick_52"/>
    <g id="xtick_53"/>
    <g id="xtick_54"/>
    <g id="xtick_55"/>
    <g id="xtick_56"/>
    <g id="xtick_57"/>
    <g id="xtick_58"/>
    <g id="xtick_59"/>
    <g id="xtick_60"/>
    <g id="xtick_61"/>
    <g id="xtick_62"/>
    <g id="xtick_63"/>
    <g id="xtick_64"/>
    <g id="xtick_65"/>
    <g id="xtick_66"/>
    <g id="xtick_67"/>
    <g id="text_8">
     <!-- Message size in bytes (logscale) -->
     <g style="fill: #262626" transform="translate(188.076777 267.9785) scale(0.16 -0.16)">
      <defs>
       <path id="DejaVuSans-4d" d="M 628 4666 
L 1569 4666 
L 2759 1491 
L 3956 4666 
L 4897 4666 
L 4897 0 
L 4281 0 
L 4281 4097 
L 3078 897 
L 2444 897 
L 1241 4097 
L 1241 0 
L 628 0 
L 628 4666 
z
" transform="scale(0.015625)"/>
       <path id="DejaVuSans-65" d="M 3597 1894 
L 3597 1613 
L 953 1613 
Q 991 1019 1311 708 
Q 1631 397 2203 397 
Q 2534 397 2845 478 
Q 3156 559 3463 722 
L 3463 178 
Q 3153 47 2828 -22 
Q 2503 -91 2169 -91 
Q 1331 -91 842 396 
Q 353 884 353 1716 
Q 353 2575 817 3079 
Q 1281 3584 2069 3584 
Q 2775 3584 3186 3129 
Q 3597 2675 3597 1894 
z
M 3022 2063 
Q 3016 2534 2758 2815 
Q 2500 3097 2075 3097 
Q 1594 3097 1305 2825 
Q 1016 2553 972 2059 
L 3022 2063 
z
" transform="scale(0.015625)"/>
       <path id="DejaVuSans-73" d="M 2834 3397 
L 2834 2853 
Q 2591 2978 2328 3040 
Q 2066 3103 1784 3103 
Q 1356 3103 1142 2972 
Q 928 2841 928 2578 
Q 928 2378 1081 2264 
Q 1234 2150 1697 2047 
L 1894 2003 
Q 2506 1872 2764 1633 
Q 3022 1394 3022 966 
Q 3022 478 2636 193 
Q 2250 -91 1575 -91 
Q 1294 -91 989 -36 
Q 684 19 347 128 
L 347 722 
Q 666 556 975 473 
Q 1284 391 1588 391 
Q 1994 391 2212 530 
Q 2431 669 2431 922 
Q 2431 1156 2273 1281 
Q 2116 1406 1581 1522 
L 1381 1569 
Q 847 1681 609 1914 
Q 372 2147 372 2553 
Q 372 3047 722 3315 
Q 1072 3584 1716 3584 
Q 2034 3584 2315 3537 
Q 2597 3491 2834 3397 
z
" transform="scale(0.015625)"/>
       <path id="DejaVuSans-61" d="M 2194 1759 
Q 1497 1759 1228 1600 
Q 959 1441 959 1056 
Q 959 750 1161 570 
Q 1363 391 1709 391 
Q 2188 391 2477 730 
Q 2766 1069 2766 1631 
L 2766 1759 
L 2194 1759 
z
M 3341 1997 
L 3341 0 
L 2766 0 
L 2766 531 
Q 2569 213 2275 61 
Q 1981 -91 1556 -91 
Q 1019 -91 701 211 
Q 384 513 384 1019 
Q 384 1609 779 1909 
Q 1175 2209 1959 2209 
L 2766 2209 
L 2766 2266 
Q 2766 2663 2505 2880 
Q 2244 3097 1772 3097 
Q 1472 3097 1187 3025 
Q 903 2953 641 2809 
L 641 3341 
Q 956 3463 1253 3523 
Q 1550 3584 1831 3584 
Q 2591 3584 2966 3190 
Q 3341 2797 3341 1997 
z
" transform="scale(0.015625)"/>
       <path id="DejaVuSans-67" d="M 2906 1791 
Q 2906 2416 2648 2759 
Q 2391 3103 1925 3103 
Q 1463 3103 1205 2759 
Q 947 2416 947 1791 
Q 947 1169 1205 825 
Q 1463 481 1925 481 
Q 2391 481 2648 825 
Q 2906 1169 2906 1791 
z
M 3481 434 
Q 3481 -459 3084 -895 
Q 2688 -1331 1869 -1331 
Q 1566 -1331 1297 -1286 
Q 1028 -1241 775 -1147 
L 775 -588 
Q 1028 -725 1275 -790 
Q 1522 -856 1778 -856 
Q 2344 -856 2625 -561 
Q 2906 -266 2906 331 
L 2906 616 
Q 2728 306 2450 153 
Q 2172 0 1784 0 
Q 1141 0 747 490 
Q 353 981 353 1791 
Q 353 2603 747 3093 
Q 1141 3584 1784 3584 
Q 2172 3584 2450 3431 
Q 2728 3278 2906 2969 
L 2906 3500 
L 3481 3500 
L 3481 434 
z
" transform="scale(0.015625)"/>
       <path id="DejaVuSans-20" transform="scale(0.015625)"/>
       <path id="DejaVuSans-69" d="M 603 3500 
L 1178 3500 
L 1178 0 
L 603 0 
L 603 3500 
z
M 603 4863 
L 1178 4863 
L 1178 4134 
L 603 4134 
L 603 4863 
z
" transform="scale(0.015625)"/>
       <path id="DejaVuSans-7a" d="M 353 3500 
L 3084 3500 
L 3084 2975 
L 922 459 
L 3084 459 
L 3084 0 
L 275 0 
L 275 525 
L 2438 3041 
L 353 3041 
L 353 3500 
z
" transform="scale(0.015625)"/>
       <path id="DejaVuSans-6e" d="M 3513 2113 
L 3513 0 
L 2938 0 
L 2938 2094 
Q 2938 2591 2744 2837 
Q 2550 3084 2163 3084 
Q 1697 3084 1428 2787 
Q 1159 2491 1159 1978 
L 1159 0 
L 581 0 
L 581 3500 
L 1159 3500 
L 1159 2956 
Q 1366 3272 1645 3428 
Q 1925 3584 2291 3584 
Q 2894 3584 3203 3211 
Q 3513 2838 3513 2113 
z
" transform="scale(0.015625)"/>
       <path id="DejaVuSans-62" d="M 3116 1747 
Q 3116 2381 2855 2742 
Q 2594 3103 2138 3103 
Q 1681 3103 1420 2742 
Q 1159 2381 1159 1747 
Q 1159 1113 1420 752 
Q 1681 391 2138 391 
Q 2594 391 2855 752 
Q 3116 1113 3116 1747 
z
M 1159 2969 
Q 1341 3281 1617 3432 
Q 1894 3584 2278 3584 
Q 2916 3584 3314 3078 
Q 3713 2572 3713 1747 
Q 3713 922 3314 415 
Q 2916 -91 2278 -91 
Q 1894 -91 1617 61 
Q 1341 213 1159 525 
L 1159 0 
L 581 0 
L 581 4863 
L 1159 4863 
L 1159 2969 
z
" transform="scale(0.015625)"/>
       <path id="DejaVuSans-79" d="M 2059 -325 
Q 1816 -950 1584 -1140 
Q 1353 -1331 966 -1331 
L 506 -1331 
L 506 -850 
L 844 -850 
Q 1081 -850 1212 -737 
Q 1344 -625 1503 -206 
L 1606 56 
L 191 3500 
L 800 3500 
L 1894 763 
L 2988 3500 
L 3597 3500 
L 2059 -325 
z
" transform="scale(0.015625)"/>
       <path id="DejaVuSans-74" d="M 1172 4494 
L 1172 3500 
L 2356 3500 
L 2356 3053 
L 1172 3053 
L 1172 1153 
Q 1172 725 1289 603 
Q 1406 481 1766 481 
L 2356 481 
L 2356 0 
L 1766 0 
Q 1100 0 847 248 
Q 594 497 594 1153 
L 594 3053 
L 172 3053 
L 172 3500 
L 594 3500 
L 594 4494 
L 1172 4494 
z
" transform="scale(0.015625)"/>
       <path id="DejaVuSans-28" d="M 1984 4856 
Q 1566 4138 1362 3434 
Q 1159 2731 1159 2009 
Q 1159 1288 1364 580 
Q 1569 -128 1984 -844 
L 1484 -844 
Q 1016 -109 783 600 
Q 550 1309 550 2009 
Q 550 2706 781 3412 
Q 1013 4119 1484 4856 
L 1984 4856 
z
" transform="scale(0.015625)"/>
       <path id="DejaVuSans-6c" d="M 603 4863 
L 1178 4863 
L 1178 0 
L 603 0 
L 603 4863 
z
" transform="scale(0.015625)"/>
       <path id="DejaVuSans-6f" d="M 1959 3097 
Q 1497 3097 1228 2736 
Q 959 2375 959 1747 
Q 959 1119 1226 758 
Q 1494 397 1959 397 
Q 2419 397 2687 759 
Q 2956 1122 2956 1747 
Q 2956 2369 2687 2733 
Q 2419 3097 1959 3097 
z
M 1959 3584 
Q 2709 3584 3137 3096 
Q 3566 2609 3566 1747 
Q 3566 888 3137 398 
Q 2709 -91 1959 -91 
Q 1206 -91 779 398 
Q 353 888 353 1747 
Q 353 2609 779 3096 
Q 1206 3584 1959 3584 
z
" transform="scale(0.015625)"/>
       <path id="DejaVuSans-63" d="M 3122 3366 
L 3122 2828 
Q 2878 2963 2633 3030 
Q 2388 3097 2138 3097 
Q 1578 3097 1268 2742 
Q 959 2388 959 1747 
Q 959 1106 1268 751 
Q 1578 397 2138 397 
Q 2388 397 2633 464 
Q 2878 531 3122 666 
L 3122 134 
Q 2881 22 2623 -34 
Q 2366 -91 2075 -91 
Q 1284 -91 818 406 
Q 353 903 353 1747 
Q 353 2603 823 3093 
Q 1294 3584 2113 3584 
Q 2378 3584 2631 3529 
Q 2884 3475 3122 3366 
z
" transform="scale(0.015625)"/>
       <path id="DejaVuSans-29" d="M 513 4856 
L 1013 4856 
Q 1481 4119 1714 3412 
Q 1947 2706 1947 2009 
Q 1947 1309 1714 600 
Q 1481 -109 1013 -844 
L 513 -844 
Q 928 -128 1133 580 
Q 1338 1288 1338 2009 
Q 1338 2731 1133 3434 
Q 928 4138 513 4856 
z
" transform="scale(0.015625)"/>
      </defs>
      <use xlink:href="#DejaVuSans-4d"/>
      <use xlink:href="#DejaVuSans-65" x="86.279297"/>
      <use xlink:href="#DejaVuSans-73" x="147.802734"/>
      <use xlink:href="#DejaVuSans-73" x="199.902344"/>
      <use xlink:href="#DejaVuSans-61" x="252.001953"/>
      <use xlink:href="#DejaVuSans-67" x="313.28125"/>
      <use xlink:href="#DejaVuSans-65" x="376.757812"/>
      <use xlink:href="#DejaVuSans-20" x="438.28125"/>
      <use xlink:href="#DejaVuSans-73" x="470.068359"/>
      <use xlink:href="#DejaVuSans-69" x="522.167969"/>
      <use xlink:href="#DejaVuSans-7a" x="549.951172"/>
      <use xlink:href="#DejaVuSans-65" x="602.441406"/>
      <use xlink:href="#DejaVuSans-20" x="663.964844"/>
      <use xlink:href="#DejaVuSans-69" x="695.751953"/>
      <use xlink:href="#DejaVuSans-6e" x="723.535156"/>
      <use xlink:href="#DejaVuSans-20" x="786.914062"/>
      <use xlink:href="#DejaVuSans-62" x="818.701172"/>
      <use xlink:href="#DejaVuSans-79" x="882.177734"/>
      <use xlink:href="#DejaVuSans-74" x="941.357422"/>
      <use xlink:href="#DejaVuSans-65" x="980.566406"/>
      <use xlink:href="#DejaVuSans-73" x="1042.089844"/>
      <use xlink:href="#DejaVuSans-20" x="1094.189453"/>
      <use xlink:href="#DejaVuSans-28" x="1125.976562"/>
      <use xlink:href="#DejaVuSans-6c" x="1164.990234"/>
      <use xlink:href="#DejaVuSans-6f" x="1192.773438"/>
      <use xlink:href="#DejaVuSans-67" x="1253.955078"/>
      <use xlink:href="#DejaVuSans-73" x="1317.431641"/>
      <use xlink:href="#DejaVuSans-63" x="1369.53125"/>
      <use xlink:href="#DejaVuSans-61" x="1424.511719"/>
      <use xlink:href="#DejaVuSans-6c" x="1485.791016"/>
      <use xlink:href="#DejaVuSans-65" x="1513.574219"/>
      <use xlink:href="#DejaVuSans-29" x="1575.097656"/>
     </g>
    </g>
   </g>
   <g id="matplotlib.axis_2">
    <g id="ytick_1">
     <g id="line2d_8">
      <path d="M 71.373553 220.286185 
L 563.04 220.286185 
" clip-path="url(#p633ad1feef)" style="fill: none; stroke: #cccccc; stroke-linecap: round"/>
     </g>
     <g id="text_9">
      <!-- $\mathdefault{10^{0}}$ -->
      <g style="fill: #262626" transform="translate(33.713553 226.364935) scale(0.16 -0.16)">
       <use xlink:href="#DejaVuSans-31" transform="translate(0 0.765625)"/>
       <use xlink:href="#DejaVuSans-30" transform="translate(63.623047 0.765625)"/>
       <use xlink:href="#DejaVuSans-30" transform="translate(128.203125 39.046875) scale(0.7)"/>
      </g>
     </g>
    </g>
    <g id="ytick_2">
     <g id="line2d_9">
      <path d="M 71.373553 167.707964 
L 563.04 167.707964 
" clip-path="url(#p633ad1feef)" style="fill: none; stroke: #cccccc; stroke-linecap: round"/>
     </g>
     <g id="text_10">
      <!-- $\mathdefault{10^{1}}$ -->
      <g style="fill: #262626" transform="translate(33.713553 173.786714) scale(0.16 -0.16)">
       <use xlink:href="#DejaVuSans-31" transform="translate(0 0.684375)"/>
       <use xlink:href="#DejaVuSans-30" transform="translate(63.623047 0.684375)"/>
       <use xlink:href="#DejaVuSans-31" transform="translate(128.203125 38.965625) scale(0.7)"/>
      </g>
     </g>
    </g>
    <g id="ytick_3">
     <g id="line2d_10">
      <path d="M 71.373553 115.129743 
L 563.04 115.129743 
" clip-path="url(#p633ad1feef)" style="fill: none; stroke: #cccccc; stroke-linecap: round"/>
     </g>
     <g id="text_11">
      <!-- $\mathdefault{10^{2}}$ -->
      <g style="fill: #262626" transform="translate(33.713553 121.208493) scale(0.16 -0.16)">
       <use xlink:href="#DejaVuSans-31" transform="translate(0 0.765625)"/>
       <use xlink:href="#DejaVuSans-30" transform="translate(63.623047 0.765625)"/>
       <use xlink:href="#DejaVuSans-32" transform="translate(128.203125 39.046875) scale(0.7)"/>
      </g>
     </g>
    </g>
    <g id="ytick_4">
     <g id="line2d_11">
      <path d="M 71.373553 62.551522 
L 563.04 62.551522 
" clip-path="url(#p633ad1feef)" style="fill: none; stroke: #cccccc; stroke-linecap: round"/>
     </g>
     <g id="text_12">
      <!-- $\mathdefault{10^{3}}$ -->
      <g style="fill: #262626" transform="translate(33.713553 68.630272) scale(0.16 -0.16)">
       <use xlink:href="#DejaVuSans-31" transform="translate(0 0.765625)"/>
       <use xlink:href="#DejaVuSans-30" transform="translate(63.623047 0.765625)"/>
       <use xlink:href="#DejaVuSans-33" transform="translate(128.203125 39.046875) scale(0.7)"/>
      </g>
     </g>
    </g>
    <g id="ytick_5"/>
    <g id="ytick_6"/>
    <g id="ytick_7"/>
    <g id="ytick_8"/>
    <g id="ytick_9"/>
    <g id="ytick_10"/>
    <g id="ytick_11"/>
    <g id="ytick_12"/>
    <g id="ytick_13"/>
    <g id="ytick_14"/>
    <g id="ytick_15"/>
    <g id="ytick_16"/>
    <g id="ytick_17"/>
    <g id="ytick_18"/>
    <g id="ytick_19"/>
    <g id="ytick_20"/>
    <g id="ytick_21"/>
    <g id="ytick_22"/>
    <g id="ytick_23"/>
    <g id="ytick_24"/>
    <g id="ytick_25"/>
    <g id="ytick_26"/>
    <g id="ytick_27"/>
    <g id="ytick_28"/>
    <g id="ytick_29"/>
    <g id="ytick_30"/>
    <g id="ytick_31"/>
    <g id="ytick_32"/>
    <g id="text_13">
     <!-- latency us (logscale) -->
     <g style="fill: #262626" transform="translate(26.386053 212.1405) rotate(-90) scale(0.16 -0.16)">
      <defs>
       <path id="DejaVuSans-75" d="M 544 1381 
L 544 3500 
L 1119 3500 
L 1119 1403 
Q 1119 906 1312 657 
Q 1506 409 1894 409 
Q 2359 409 2629 706 
Q 2900 1003 2900 1516 
L 2900 3500 
L 3475 3500 
L 3475 0 
L 2900 0 
L 2900 538 
Q 2691 219 2414 64 
Q 2138 -91 1772 -91 
Q 1169 -91 856 284 
Q 544 659 544 1381 
z
M 1991 3584 
L 1991 3584 
z
" transform="scale(0.015625)"/>
      </defs>
      <use xlink:href="#DejaVuSans-6c"/>
      <use xlink:href="#DejaVuSans-61" x="27.783203"/>
      <use xlink:href="#DejaVuSans-74" x="89.0625"/>
      <use xlink:href="#DejaVuSans-65" x="128.271484"/>
      <use xlink:href="#DejaVuSans-6e" x="189.794922"/>
      <use xlink:href="#DejaVuSans-63" x="253.173828"/>
      <use xlink:href="#DejaVuSans-79" x="308.154297"/>
      <use xlink:href="#DejaVuSans-20" x="367.333984"/>
      <use xlink:href="#DejaVuSans-75" x="399.121094"/>
      <use xlink:href="#DejaVuSans-73" x="462.5"/>
      <use xlink:href="#DejaVuSans-20" x="514.599609"/>
      <use xlink:href="#DejaVuSans-28" x="546.386719"/>
      <use xlink:href="#DejaVuSans-6c" x="585.400391"/>
      <use xlink:href="#DejaVuSans-6f" x="613.183594"/>
      <use xlink:href="#DejaVuSans-67" x="674.365234"/>
      <use xlink:href="#DejaVuSans-73" x="737.841797"/>
      <use xlink:href="#DejaVuSans-63" x="789.941406"/>
      <use xlink:href="#DejaVuSans-61" x="844.921875"/>
      <use xlink:href="#DejaVuSans-6c" x="906.201172"/>
      <use xlink:href="#DejaVuSans-65" x="933.984375"/>
      <use xlink:href="#DejaVuSans-29" x="995.507812"/>
     </g>
    </g>
   </g>
   <g id="PolyCollection_1">
    <path d="M -67397.211121 136.587396 
L -67397.211121 140.016561 
L 93.722028 138.697228 
L 114.038824 136.791637 
L 134.355619 135.42439 
L 154.672414 135.377174 
L 174.98921 135.506579 
L 195.306005 136.936609 
L 215.6228 137.454351 
L 235.939595 137.309452 
L 256.256391 136.777511 
L 276.573186 137.298705 
L 296.889981 137.136228 
L 317.206777 136.054658 
L 337.523572 134.672446 
L 357.840367 131.457206 
L 378.157163 128.169211 
L 398.473958 121.077377 
L 418.790753 101.302421 
L 439.107549 97.848976 
L 459.424344 90.69076 
L 479.741139 84.197946 
L 500.057935 73.779715 
L 520.37473 60.581251 
L 540.691525 48.136006 
L 540.691525 45.620133 
L 540.691525 45.620133 
L 520.37473 57.406823 
L 500.057935 71.187913 
L 479.741139 81.672147 
L 459.424344 87.993332 
L 439.107549 95.060472 
L 418.790753 98.887759 
L 398.473958 119.286908 
L 378.157163 126.685658 
L 357.840367 130.024119 
L 337.523572 133.211465 
L 317.206777 133.498435 
L 296.889981 130.215367 
L 276.573186 135.621321 
L 256.256391 134.923577 
L 235.939595 135.165059 
L 215.6228 134.650693 
L 195.306005 133.399132 
L 174.98921 129.353624 
L 154.672414 128.725864 
L 134.355619 129.664407 
L 114.038824 131.445852 
L 93.722028 135.023168 
L -67397.211121 136.587396 
z
" clip-path="url(#p633ad1feef)" style="fill: #8c613c; fill-opacity: 0.2; stroke: #8c613c; stroke-opacity: 0.2"/>
   </g>
   <g id="PolyCollection_2">
    <path d="M -67397.211121 147.166879 
L -67397.211121 148.508909 
L 93.722028 148.580381 
L 114.038824 148.586389 
L 134.355619 148.610873 
L 154.672414 148.544071 
L 174.98921 148.582533 
L 195.306005 148.502982 
L 215.6228 148.519773 
L 235.939595 148.401104 
L 256.256391 146.881502 
L 276.573186 146.696625 
L 296.889981 146.094364 
L 317.206777 142.748069 
L 337.523572 141.02043 
L 357.840367 137.177151 
L 378.157163 130.797445 
L 398.473958 120.737769 
L 418.790753 99.841559 
L 439.107549 98.551104 
L 459.424344 94.433517 
L 479.741139 86.192739 
L 500.057935 76.275939 
L 520.37473 65.178545 
L 540.691525 52.901321 
L 540.691525 52.343839 
L 540.691525 52.343839 
L 520.37473 64.758508 
L 500.057935 75.975713 
L 479.741139 85.843126 
L 459.424344 93.829192 
L 439.107549 97.751182 
L 418.790753 99.06736 
L 398.473958 119.978451 
L 378.157163 129.928233 
L 357.840367 136.235915 
L 337.523572 140.051718 
L 317.206777 141.736541 
L 296.889981 144.989546 
L 276.573186 145.518835 
L 256.256391 145.755215 
L 235.939595 147.141592 
L 215.6228 147.309552 
L 195.306005 147.327609 
L 174.98921 147.385523 
L 154.672414 147.389986 
L 134.355619 147.405626 
L 114.038824 147.369771 
L 93.722028 147.335586 
L -67397.211121 147.166879 
z
" clip-path="url(#p633ad1feef)" style="fill: #6c3baa; fill-opacity: 0.2; stroke: #6c3baa; stroke-opacity: 0.2"/>
   </g>
   <g id="PolyCollection_3">
    <path d="M -67397.211121 214.870726 
L -67397.211121 217.673754 
L 93.722028 217.903183 
L 114.038824 217.976182 
L 134.355619 217.308827 
L 154.672414 217.419115 
L 174.98921 217.295946 
L 195.306005 216.843766 
L 215.6228 216.791957 
L 235.939595 215.739256 
L 256.256391 211.118076 
L 276.573186 209.938391 
L 296.889981 206.032105 
L 317.206777 202.105024 
L 337.523572 193.478419 
L 357.840367 186.334136 
L 378.157163 176.641115 
L 398.473958 168.233919 
L 418.790753 158.420358 
L 439.107549 149.209544 
L 459.424344 138.732165 
L 479.741139 125.831732 
L 500.057935 111.416454 
L 520.37473 96.014701 
L 540.691525 79.623296 
L 540.691525 77.532566 
L 540.691525 77.532566 
L 520.37473 93.39575 
L 500.057935 108.464299 
L 479.741139 123.190607 
L 459.424344 136.306115 
L 439.107549 146.443991 
L 418.790753 155.856155 
L 398.473958 166.206567 
L 378.157163 175.269181 
L 357.840367 183.808623 
L 337.523572 190.569388 
L 317.206777 199.484142 
L 296.889981 203.205516 
L 276.573186 207.308744 
L 256.256391 208.464108 
L 235.939595 213.343906 
L 215.6228 214.187601 
L 195.306005 214.159459 
L 174.98921 214.532345 
L 154.672414 214.557301 
L 134.355619 214.534849 
L 114.038824 215.283561 
L 93.722028 215.119761 
L -67397.211121 214.870726 
z
" clip-path="url(#p633ad1feef)" style="fill: #797979; fill-opacity: 0.2; stroke: #797979; stroke-opacity: 0.2"/>
   </g>
   <g id="PolyCollection_4">
    <path d="M -67397.211121 207.298814 
L -67397.211121 208.285134 
L 93.722028 208.32398 
L 114.038824 207.92161 
L 134.355619 208.189027 
L 154.672414 208.405869 
L 174.98921 208.347899 
L 195.306005 207.680989 
L 215.6228 206.177579 
L 235.939595 205.854216 
L 256.256391 197.88864 
L 276.573186 197.211332 
L 296.889981 195.775398 
L 317.206777 192.474454 
L 337.523572 186.715696 
L 357.840367 180.710272 
L 378.157163 173.558846 
L 398.473958 168.291143 
L 418.790753 162.214218 
L 439.107549 153.99149 
L 459.424344 141.153506 
L 479.741139 127.672067 
L 500.057935 112.783392 
L 520.37473 98.254947 
L 540.691525 82.065651 
L 540.691525 81.226767 
L 540.691525 81.226767 
L 520.37473 97.037 
L 500.057935 111.575504 
L 479.741139 126.563033 
L 459.424344 140.279704 
L 439.107549 153.361242 
L 418.790753 161.673578 
L 398.473958 167.871611 
L 378.157163 173.272934 
L 357.840367 180.433693 
L 337.523572 186.225726 
L 317.206777 191.897784 
L 296.889981 195.121301 
L 276.573186 196.609996 
L 256.256391 197.234351 
L 235.939595 204.903243 
L 215.6228 205.267864 
L 195.306005 206.733399 
L 174.98921 207.354409 
L 154.672414 207.400629 
L 134.355619 207.289581 
L 114.038824 206.841429 
L 93.722028 207.326653 
L -67397.211121 207.298814 
z
" clip-path="url(#p633ad1feef)" style="fill: #d65f5f; fill-opacity: 0.2; stroke: #d65f5f; stroke-opacity: 0.2"/>
   </g>
   <g id="PolyCollection_5">
    <path d="M -67397.211121 163.749618 
L -67397.211121 191.191467 
L 93.722028 189.562717 
L 114.038824 191.263251 
L 134.355619 185.676708 
L 154.672414 183.347449 
L 174.98921 185.53398 
L 195.306005 182.98006 
L 215.6228 180.72094 
L 235.939595 182.181095 
L 256.256391 175.571793 
L 276.573186 176.22891 
L 296.889981 174.821093 
L 317.206777 173.110585 
L 337.523572 168.866859 
L 357.840367 162.97841 
L 378.157163 154.642941 
L 398.473958 145.11882 
L 418.790753 133.393756 
L 439.107549 119.702381 
L 459.424344 108.225557 
L 479.741139 92.862863 
L 500.057935 76.632771 
L 520.37473 60.140232 
L 540.691525 49.647548 
L 540.691525 40.779818 
L 540.691525 40.779818 
L 520.37473 53.691622 
L 500.057935 71.347244 
L 479.741139 88.209035 
L 459.424344 104.05224 
L 439.107549 115.309265 
L 418.790753 129.047746 
L 398.473958 139.487207 
L 378.157163 147.644727 
L 357.840367 154.682553 
L 337.523572 159.490939 
L 317.206777 161.05451 
L 296.889981 161.392246 
L 276.573186 162.145879 
L 256.256391 162.277762 
L 235.939595 156.360001 
L 215.6228 150.527149 
L 195.306005 153.502579 
L 174.98921 167.462473 
L 154.672414 161.817003 
L 134.355619 156.012448 
L 114.038824 153.21175 
L 93.722028 155.482077 
L -67397.211121 163.749618 
z
" clip-path="url(#p633ad1feef)" style="fill: #008000; fill-opacity: 0.2; stroke: #008000; stroke-opacity: 0.2"/>
   </g>
   <g id="line2d_12">
    <path d="M -1 136.828873 
L 93.722028 136.826773 
L 114.038824 134.359634 
L 134.355619 132.821482 
L 154.672414 132.390391 
L 174.98921 132.499541 
L 195.306005 135.17165 
L 215.6228 136.145061 
L 235.939595 136.228528 
L 256.256391 135.843483 
L 276.573186 136.529022 
L 296.889981 134.37611 
L 317.206777 134.866701 
L 337.523572 133.996042 
L 357.840367 130.760211 
L 378.157163 127.447117 
L 398.473958 120.193113 
L 418.790753 100.185772 
L 439.107549 96.502476 
L 459.424344 89.357701 
L 479.741139 82.950036 
L 500.057935 72.535169 
L 520.37473 59.086396 
L 540.691525 46.933818 
" clip-path="url(#p633ad1feef)" style="fill: none; stroke: #8c613c; stroke-width: 1.5; stroke-linecap: round"/>
   </g>
   <g id="line2d_13">
    <path d="M -1 147.942342 
L 93.722028 147.942509 
L 114.038824 147.968604 
L 134.355619 147.98682 
L 154.672414 147.976851 
L 174.98921 147.964826 
L 195.306005 147.933931 
L 215.6228 147.891091 
L 235.939595 147.76169 
L 256.256391 146.297014 
L 276.573186 146.064784 
L 296.889981 145.521327 
L 317.206777 142.238458 
L 337.523572 140.520426 
L 357.840367 136.698061 
L 378.157163 130.346629 
L 398.473958 120.310275 
L 418.790753 99.444915 
L 439.107549 98.133026 
L 459.424344 94.122857 
L 479.741139 86.005646 
L 500.057935 76.129408 
L 520.37473 64.982329 
L 540.691525 52.667432 
" clip-path="url(#p633ad1feef)" style="fill: none; stroke: #6c3baa; stroke-width: 1.5; stroke-linecap: round"/>
   </g>
   <g id="line2d_14">
    <path d="M -1 216.407088 
L 93.722028 216.407452 
L 114.038824 216.492939 
L 134.355619 215.860803 
L 154.672414 215.922696 
L 174.98921 215.842 
L 195.306005 215.408463 
L 215.6228 215.400561 
L 235.939595 214.489283 
L 256.256391 209.728904 
L 276.573186 208.553697 
L 296.889981 204.461825 
L 317.206777 200.722024 
L 337.523572 191.973656 
L 357.840367 184.974517 
L 378.157163 175.929922 
L 398.473958 167.150488 
L 418.790753 156.988852 
L 439.107549 147.823466 
L 459.424344 137.447919 
L 479.741139 124.405081 
L 500.057935 109.948431 
L 520.37473 94.702367 
L 540.691525 78.50444 
" clip-path="url(#p633ad1feef)" style="fill: none; stroke: #797979; stroke-width: 1.5; stroke-linecap: round"/>
   </g>
   <g id="line2d_15">
    <path d="M -1 207.784218 
L 93.722028 207.78429 
L 114.038824 207.349781 
L 134.355619 207.704244 
L 154.672414 207.845692 
L 174.98921 207.807887 
L 195.306005 207.174591 
L 215.6228 205.69429 
L 235.939595 205.322852 
L 256.256391 197.53347 
L 276.573186 196.865879 
L 296.889981 195.421256 
L 317.206777 192.172302 
L 337.523572 186.441617 
L 357.840367 180.559373 
L 378.157163 173.421203 
L 398.473958 168.096998 
L 418.790753 161.983935 
L 439.107549 153.721022 
L 459.424344 140.741163 
L 479.741139 127.151551 
L 500.057935 112.226019 
L 520.37473 97.735692 
L 540.691525 81.740786 
" clip-path="url(#p633ad1feef)" style="fill: none; stroke: #d65f5f; stroke-width: 1.5; stroke-linecap: round"/>
   </g>
   <g id="line2d_16">
    <path d="M -1 168.498555 
L 93.722028 168.488555 
L 114.038824 167.053601 
L 134.355619 168.125219 
L 154.672414 171.0828 
L 174.98921 175.447129 
L 195.306005 166.591538 
L 215.6228 164.079002 
L 235.939595 167.738975 
L 256.256391 168.612943 
L 276.573186 168.990225 
L 296.889981 168.099487 
L 317.206777 166.775556 
L 337.523572 164.097794 
L 357.840367 159.013023 
L 378.157163 151.166621 
L 398.473958 142.331942 
L 418.790753 131.072151 
L 439.107549 117.468093 
L 459.424344 106.086069 
L 479.741139 90.446642 
L 500.057935 73.847216 
L 520.37473 56.643584 
L 540.691525 44.914869 
" clip-path="url(#p633ad1feef)" style="fill: none; stroke: #008000; stroke-width: 1.5; stroke-linecap: round"/>
   </g>
   <g id="line2d_17"/>
   <g id="line2d_18"/>
   <g id="line2d_19"/>
   <g id="line2d_20"/>
   <g id="line2d_21"/>
   <g id="patch_3">
    <path d="M 71.373553 226.836 
L 71.373553 31.92 
" style="fill: none; stroke: #cccccc; stroke-width: 1.25; stroke-linejoin: miter; stroke-linecap: square"/>
   </g>
   <g id="patch_4">
    <path d="M 563.04 226.836 
L 563.04 31.92 
" style="fill: none; stroke: #cccccc; stroke-width: 1.25; stroke-linejoin: miter; stroke-linecap: square"/>
   </g>
   <g id="patch_5">
    <path d="M 71.373553 226.836 
L 563.04 226.836 
" style="fill: none; stroke: #cccccc; stroke-width: 1.25; stroke-linejoin: miter; stroke-linecap: square"/>
   </g>
   <g id="patch_6">
    <path d="M 71.373553 31.92 
L 563.04 31.92 
" style="fill: none; stroke: #cccccc; stroke-width: 1.25; stroke-linejoin: miter; stroke-linecap: square"/>
   </g>
   <g id="text_14">
    <!-- osu_latency 64 GPUs -->
    <g style="fill: #262626" transform="translate(233.376777 25.92) scale(0.16 -0.16)">
     <defs>
      <path id="DejaVuSans-5f" d="M 3263 -1063 
L 3263 -1509 
L -63 -1509 
L -63 -1063 
L 3263 -1063 
z
" transform="scale(0.015625)"/>
      <path id="DejaVuSans-47" d="M 3809 666 
L 3809 1919 
L 2778 1919 
L 2778 2438 
L 4434 2438 
L 4434 434 
Q 4069 175 3628 42 
Q 3188 -91 2688 -91 
Q 1594 -91 976 548 
Q 359 1188 359 2328 
Q 359 3472 976 4111 
Q 1594 4750 2688 4750 
Q 3144 4750 3555 4637 
Q 3966 4525 4313 4306 
L 4313 3634 
Q 3963 3931 3569 4081 
Q 3175 4231 2741 4231 
Q 1884 4231 1454 3753 
Q 1025 3275 1025 2328 
Q 1025 1384 1454 906 
Q 1884 428 2741 428 
Q 3075 428 3337 486 
Q 3600 544 3809 666 
z
" transform="scale(0.015625)"/>
      <path id="DejaVuSans-50" d="M 1259 4147 
L 1259 2394 
L 2053 2394 
Q 2494 2394 2734 2622 
Q 2975 2850 2975 3272 
Q 2975 3691 2734 3919 
Q 2494 4147 2053 4147 
L 1259 4147 
z
M 628 4666 
L 2053 4666 
Q 2838 4666 3239 4311 
Q 3641 3956 3641 3272 
Q 3641 2581 3239 2228 
Q 2838 1875 2053 1875 
L 1259 1875 
L 1259 0 
L 628 0 
L 628 4666 
z
" transform="scale(0.015625)"/>
      <path id="DejaVuSans-55" d="M 556 4666 
L 1191 4666 
L 1191 1831 
Q 1191 1081 1462 751 
Q 1734 422 2344 422 
Q 2950 422 3222 751 
Q 3494 1081 3494 1831 
L 3494 4666 
L 4128 4666 
L 4128 1753 
Q 4128 841 3676 375 
Q 3225 -91 2344 -91 
Q 1459 -91 1007 375 
Q 556 841 556 1753 
L 556 4666 
z
" transform="scale(0.015625)"/>
     </defs>
     <use xlink:href="#DejaVuSans-6f"/>
     <use xlink:href="#DejaVuSans-73" x="61.181641"/>
     <use xlink:href="#DejaVuSans-75" x="113.28125"/>
     <use xlink:href="#DejaVuSans-5f" x="176.660156"/>
     <use xlink:href="#DejaVuSans-6c" x="226.660156"/>
     <use xlink:href="#DejaVuSans-61" x="254.443359"/>
     <use xlink:href="#DejaVuSans-74" x="315.722656"/>
     <use xlink:href="#DejaVuSans-65" x="354.931641"/>
     <use xlink:href="#DejaVuSans-6e" x="416.455078"/>
     <use xlink:href="#DejaVuSans-63" x="479.833984"/>
     <use xlink:href="#DejaVuSans-79" x="534.814453"/>
     <use xlink:href="#DejaVuSans-20" x="593.994141"/>
     <use xlink:href="#DejaVuSans-36" x="625.78125"/>
     <use xlink:href="#DejaVuSans-34" x="689.404297"/>
     <use xlink:href="#DejaVuSans-20" x="753.027344"/>
     <use xlink:href="#DejaVuSans-47" x="784.814453"/>
     <use xlink:href="#DejaVuSans-50" x="862.304688"/>
     <use xlink:href="#DejaVuSans-55" x="922.607422"/>
     <use xlink:href="#DejaVuSans-73" x="995.800781"/>
    </g>
   </g>
   <g id="legend_1">
    <g id="patch_7">
     <path d="M 79.073553 122.979375 
L 338.936522 122.979375 
Q 341.136522 122.979375 341.136522 120.779375 
L 341.136522 39.62 
Q 341.136522 37.42 338.936522 37.42 
L 79.073553 37.42 
Q 76.873553 37.42 76.873553 39.62 
L 76.873553 120.779375 
Q 76.873553 122.979375 79.073553 122.979375 
z
" style="fill: #ffffff; opacity: 0.8; stroke: #cccccc; stroke-linejoin: miter"/>
    </g>
    <g id="line2d_22">
     <path d="M 81.273553 46.328281 
L 92.273553 46.328281 
L 103.273553 46.328281 
" style="fill: none; stroke: #8c613c; stroke-width: 1.5; stroke-linecap: round"/>
    </g>
    <g id="text_15">
     <!-- google/gke/gpu/osu_latency -->
     <g style="fill: #262626" transform="translate(112.073553 50.178281) scale(0.11 -0.11)">
      <defs>
       <path id="DejaVuSans-2f" d="M 1625 4666 
L 2156 4666 
L 531 -594 
L 0 -594 
L 1625 4666 
z
" transform="scale(0.015625)"/>
       <path id="DejaVuSans-6b" d="M 581 4863 
L 1159 4863 
L 1159 1991 
L 2875 3500 
L 3609 3500 
L 1753 1863 
L 3688 0 
L 2938 0 
L 1159 1709 
L 1159 0 
L 581 0 
L 581 4863 
z
" transform="scale(0.015625)"/>
       <path id="DejaVuSans-70" d="M 1159 525 
L 1159 -1331 
L 581 -1331 
L 581 3500 
L 1159 3500 
L 1159 2969 
Q 1341 3281 1617 3432 
Q 1894 3584 2278 3584 
Q 2916 3584 3314 3078 
Q 3713 2572 3713 1747 
Q 3713 922 3314 415 
Q 2916 -91 2278 -91 
Q 1894 -91 1617 61 
Q 1341 213 1159 525 
z
M 3116 1747 
Q 3116 2381 2855 2742 
Q 2594 3103 2138 3103 
Q 1681 3103 1420 2742 
Q 1159 2381 1159 1747 
Q 1159 1113 1420 752 
Q 1681 391 2138 391 
Q 2594 391 2855 752 
Q 3116 1113 3116 1747 
z
" transform="scale(0.015625)"/>
      </defs>
      <use xlink:href="#DejaVuSans-67"/>
      <use xlink:href="#DejaVuSans-6f" x="63.476562"/>
      <use xlink:href="#DejaVuSans-6f" x="124.658203"/>
      <use xlink:href="#DejaVuSans-67" x="185.839844"/>
      <use xlink:href="#DejaVuSans-6c" x="249.316406"/>
      <use xlink:href="#DejaVuSans-65" x="277.099609"/>
      <use xlink:href="#DejaVuSans-2f" x="338.623047"/>
      <use xlink:href="#DejaVuSans-67" x="372.314453"/>
      <use xlink:href="#DejaVuSans-6b" x="435.791016"/>
      <use xlink:href="#DejaVuSans-65" x="490.076172"/>
      <use xlink:href="#DejaVuSans-2f" x="551.599609"/>
      <use xlink:href="#DejaVuSans-67" x="585.291016"/>
      <use xlink:href="#DejaVuSans-70" x="648.767578"/>
      <use xlink:href="#DejaVuSans-75" x="712.244141"/>
      <use xlink:href="#DejaVuSans-2f" x="775.623047"/>
      <use xlink:href="#DejaVuSans-6f" x="809.314453"/>
      <use xlink:href="#DejaVuSans-73" x="870.496094"/>
      <use xlink:href="#DejaVuSans-75" x="922.595703"/>
      <use xlink:href="#DejaVuSans-5f" x="985.974609"/>
      <use xlink:href="#DejaVuSans-6c" x="1035.974609"/>
      <use xlink:href="#DejaVuSans-61" x="1063.757812"/>
      <use xlink:href="#DejaVuSans-74" x="1125.037109"/>
      <use xlink:href="#DejaVuSans-65" x="1164.246094"/>
      <use xlink:href="#DejaVuSans-6e" x="1225.769531"/>
      <use xlink:href="#DejaVuSans-63" x="1289.148438"/>
      <use xlink:href="#DejaVuSans-79" x="1344.128906"/>
     </g>
    </g>
    <g id="line2d_23">
     <path d="M 81.273553 62.780156 
L 92.273553 62.780156 
L 103.273553 62.780156 
" style="fill: none; stroke: #6c3baa; stroke-width: 1.5; stroke-linecap: round"/>
    </g>
    <g id="text_16">
     <!-- google/compute-engine/gpu/osu_latency -->
     <g style="fill: #262626" transform="translate(112.073553 66.630156) scale(0.11 -0.11)">
      <defs>
       <path id="DejaVuSans-6d" d="M 3328 2828 
Q 3544 3216 3844 3400 
Q 4144 3584 4550 3584 
Q 5097 3584 5394 3201 
Q 5691 2819 5691 2113 
L 5691 0 
L 5113 0 
L 5113 2094 
Q 5113 2597 4934 2840 
Q 4756 3084 4391 3084 
Q 3944 3084 3684 2787 
Q 3425 2491 3425 1978 
L 3425 0 
L 2847 0 
L 2847 2094 
Q 2847 2600 2669 2842 
Q 2491 3084 2119 3084 
Q 1678 3084 1418 2786 
Q 1159 2488 1159 1978 
L 1159 0 
L 581 0 
L 581 3500 
L 1159 3500 
L 1159 2956 
Q 1356 3278 1631 3431 
Q 1906 3584 2284 3584 
Q 2666 3584 2933 3390 
Q 3200 3197 3328 2828 
z
" transform="scale(0.015625)"/>
       <path id="DejaVuSans-2d" d="M 313 2009 
L 1997 2009 
L 1997 1497 
L 313 1497 
L 313 2009 
z
" transform="scale(0.015625)"/>
      </defs>
      <use xlink:href="#DejaVuSans-67"/>
      <use xlink:href="#DejaVuSans-6f" x="63.476562"/>
      <use xlink:href="#DejaVuSans-6f" x="124.658203"/>
      <use xlink:href="#DejaVuSans-67" x="185.839844"/>
      <use xlink:href="#DejaVuSans-6c" x="249.316406"/>
      <use xlink:href="#DejaVuSans-65" x="277.099609"/>
      <use xlink:href="#DejaVuSans-2f" x="338.623047"/>
      <use xlink:href="#DejaVuSans-63" x="372.314453"/>
      <use xlink:href="#DejaVuSans-6f" x="427.294922"/>
      <use xlink:href="#DejaVuSans-6d" x="488.476562"/>
      <use xlink:href="#DejaVuSans-70" x="585.888672"/>
      <use xlink:href="#DejaVuSans-75" x="649.365234"/>
      <use xlink:href="#DejaVuSans-74" x="712.744141"/>
      <use xlink:href="#DejaVuSans-65" x="751.953125"/>
      <use xlink:href="#DejaVuSans-2d" x="813.476562"/>
      <use xlink:href="#DejaVuSans-65" x="849.560547"/>
      <use xlink:href="#DejaVuSans-6e" x="911.083984"/>
      <use xlink:href="#DejaVuSans-67" x="974.462891"/>
      <use xlink:href="#DejaVuSans-69" x="1037.939453"/>
      <use xlink:href="#DejaVuSans-6e" x="1065.722656"/>
      <use xlink:href="#DejaVuSans-65" x="1129.101562"/>
      <use xlink:href="#DejaVuSans-2f" x="1190.625"/>
      <use xlink:href="#DejaVuSans-67" x="1224.316406"/>
      <use xlink:href="#DejaVuSans-70" x="1287.792969"/>
      <use xlink:href="#DejaVuSans-75" x="1351.269531"/>
      <use xlink:href="#DejaVuSans-2f" x="1414.648438"/>
      <use xlink:href="#DejaVuSans-6f" x="1448.339844"/>
      <use xlink:href="#DejaVuSans-73" x="1509.521484"/>
      <use xlink:href="#DejaVuSans-75" x="1561.621094"/>
      <use xlink:href="#DejaVuSans-5f" x="1625"/>
      <use xlink:href="#DejaVuSans-6c" x="1675"/>
      <use xlink:href="#DejaVuSans-61" x="1702.783203"/>
      <use xlink:href="#DejaVuSans-74" x="1764.0625"/>
      <use xlink:href="#DejaVuSans-65" x="1803.271484"/>
      <use xlink:href="#DejaVuSans-6e" x="1864.794922"/>
      <use xlink:href="#DejaVuSans-63" x="1928.173828"/>
      <use xlink:href="#DejaVuSans-79" x="1983.154297"/>
     </g>
    </g>
    <g id="line2d_24">
     <path d="M 81.273553 79.232031 
L 92.273553 79.232031 
L 103.273553 79.232031 
" style="fill: none; stroke: #797979; stroke-width: 1.5; stroke-linecap: round"/>
    </g>
    <g id="text_17">
     <!-- on-premises/b/gpu/osu_latency -->
     <g style="fill: #262626" transform="translate(112.073553 83.082031) scale(0.11 -0.11)">
      <defs>
       <path id="DejaVuSans-72" d="M 2631 2963 
Q 2534 3019 2420 3045 
Q 2306 3072 2169 3072 
Q 1681 3072 1420 2755 
Q 1159 2438 1159 1844 
L 1159 0 
L 581 0 
L 581 3500 
L 1159 3500 
L 1159 2956 
Q 1341 3275 1631 3429 
Q 1922 3584 2338 3584 
Q 2397 3584 2469 3576 
Q 2541 3569 2628 3553 
L 2631 2963 
z
" transform="scale(0.015625)"/>
      </defs>
      <use xlink:href="#DejaVuSans-6f"/>
      <use xlink:href="#DejaVuSans-6e" x="61.181641"/>
      <use xlink:href="#DejaVuSans-2d" x="124.560547"/>
      <use xlink:href="#DejaVuSans-70" x="160.644531"/>
      <use xlink:href="#DejaVuSans-72" x="224.121094"/>
      <use xlink:href="#DejaVuSans-65" x="262.984375"/>
      <use xlink:href="#DejaVuSans-6d" x="324.507812"/>
      <use xlink:href="#DejaVuSans-69" x="421.919922"/>
      <use xlink:href="#DejaVuSans-73" x="449.703125"/>
      <use xlink:href="#DejaVuSans-65" x="501.802734"/>
      <use xlink:href="#DejaVuSans-73" x="563.326172"/>
      <use xlink:href="#DejaVuSans-2f" x="615.425781"/>
      <use xlink:href="#DejaVuSans-62" x="649.117188"/>
      <use xlink:href="#DejaVuSans-2f" x="712.59375"/>
      <use xlink:href="#DejaVuSans-67" x="746.285156"/>
      <use xlink:href="#DejaVuSans-70" x="809.761719"/>
      <use xlink:href="#DejaVuSans-75" x="873.238281"/>
      <use xlink:href="#DejaVuSans-2f" x="936.617188"/>
      <use xlink:href="#DejaVuSans-6f" x="970.308594"/>
      <use xlink:href="#DejaVuSans-73" x="1031.490234"/>
      <use xlink:href="#DejaVuSans-75" x="1083.589844"/>
      <use xlink:href="#DejaVuSans-5f" x="1146.96875"/>
      <use xlink:href="#DejaVuSans-6c" x="1196.96875"/>
      <use xlink:href="#DejaVuSans-61" x="1224.751953"/>
      <use xlink:href="#DejaVuSans-74" x="1286.03125"/>
      <use xlink:href="#DejaVuSans-65" x="1325.240234"/>
      <use xlink:href="#DejaVuSans-6e" x="1386.763672"/>
      <use xlink:href="#DejaVuSans-63" x="1450.142578"/>
      <use xlink:href="#DejaVuSans-79" x="1505.123047"/>
     </g>
    </g>
    <g id="line2d_25">
     <path d="M 81.273553 95.683906 
L 92.273553 95.683906 
L 103.273553 95.683906 
" style="fill: none; stroke: #d65f5f; stroke-width: 1.5; stroke-linecap: round"/>
    </g>
    <g id="text_18">
     <!-- azure/cyclecloud/gpu/osu_latency -->
     <g style="fill: #262626" transform="translate(112.073553 99.533906) scale(0.11 -0.11)">
      <defs>
       <path id="DejaVuSans-64" d="M 2906 2969 
L 2906 4863 
L 3481 4863 
L 3481 0 
L 2906 0 
L 2906 525 
Q 2725 213 2448 61 
Q 2172 -91 1784 -91 
Q 1150 -91 751 415 
Q 353 922 353 1747 
Q 353 2572 751 3078 
Q 1150 3584 1784 3584 
Q 2172 3584 2448 3432 
Q 2725 3281 2906 2969 
z
M 947 1747 
Q 947 1113 1208 752 
Q 1469 391 1925 391 
Q 2381 391 2643 752 
Q 2906 1113 2906 1747 
Q 2906 2381 2643 2742 
Q 2381 3103 1925 3103 
Q 1469 3103 1208 2742 
Q 947 2381 947 1747 
z
" transform="scale(0.015625)"/>
      </defs>
      <use xlink:href="#DejaVuSans-61"/>
      <use xlink:href="#DejaVuSans-7a" x="61.279297"/>
      <use xlink:href="#DejaVuSans-75" x="113.769531"/>
      <use xlink:href="#DejaVuSans-72" x="177.148438"/>
      <use xlink:href="#DejaVuSans-65" x="216.011719"/>
      <use xlink:href="#DejaVuSans-2f" x="277.535156"/>
      <use xlink:href="#DejaVuSans-63" x="311.226562"/>
      <use xlink:href="#DejaVuSans-79" x="366.207031"/>
      <use xlink:href="#DejaVuSans-63" x="425.386719"/>
      <use xlink:href="#DejaVuSans-6c" x="480.367188"/>
      <use xlink:href="#DejaVuSans-65" x="508.150391"/>
      <use xlink:href="#DejaVuSans-63" x="569.673828"/>
      <use xlink:href="#DejaVuSans-6c" x="624.654297"/>
      <use xlink:href="#DejaVuSans-6f" x="652.4375"/>
      <use xlink:href="#DejaVuSans-75" x="713.619141"/>
      <use xlink:href="#DejaVuSans-64" x="776.998047"/>
      <use xlink:href="#DejaVuSans-2f" x="840.474609"/>
      <use xlink:href="#DejaVuSans-67" x="874.166016"/>
      <use xlink:href="#DejaVuSans-70" x="937.642578"/>
      <use xlink:href="#DejaVuSans-75" x="1001.119141"/>
      <use xlink:href="#DejaVuSans-2f" x="1064.498047"/>
      <use xlink:href="#DejaVuSans-6f" x="1098.189453"/>
      <use xlink:href="#DejaVuSans-73" x="1159.371094"/>
      <use xlink:href="#DejaVuSans-75" x="1211.470703"/>
      <use xlink:href="#DejaVuSans-5f" x="1274.849609"/>
      <use xlink:href="#DejaVuSans-6c" x="1324.849609"/>
      <use xlink:href="#DejaVuSans-61" x="1352.632812"/>
      <use xlink:href="#DejaVuSans-74" x="1413.912109"/>
      <use xlink:href="#DejaVuSans-65" x="1453.121094"/>
      <use xlink:href="#DejaVuSans-6e" x="1514.644531"/>
      <use xlink:href="#DejaVuSans-63" x="1578.023438"/>
      <use xlink:href="#DejaVuSans-79" x="1633.003906"/>
     </g>
    </g>
    <g id="line2d_26">
     <path d="M 81.273553 112.135781 
L 92.273553 112.135781 
L 103.273553 112.135781 
" style="fill: none; stroke: #008000; stroke-width: 1.5; stroke-linecap: round"/>
    </g>
    <g id="text_19">
     <!-- azure/aks/gpu/osu_latency -->
     <g style="fill: #262626" transform="translate(112.073553 115.985781) scale(0.11 -0.11)">
      <use xlink:href="#DejaVuSans-61"/>
      <use xlink:href="#DejaVuSans-7a" x="61.279297"/>
      <use xlink:href="#DejaVuSans-75" x="113.769531"/>
      <use xlink:href="#DejaVuSans-72" x="177.148438"/>
      <use xlink:href="#DejaVuSans-65" x="216.011719"/>
      <use xlink:href="#DejaVuSans-2f" x="277.535156"/>
      <use xlink:href="#DejaVuSans-61" x="311.226562"/>
      <use xlink:href="#DejaVuSans-6b" x="372.505859"/>
      <use xlink:href="#DejaVuSans-73" x="430.416016"/>
      <use xlink:href="#DejaVuSans-2f" x="482.515625"/>
      <use xlink:href="#DejaVuSans-67" x="516.207031"/>
      <use xlink:href="#DejaVuSans-70" x="579.683594"/>
      <use xlink:href="#DejaVuSans-75" x="643.160156"/>
      <use xlink:href="#DejaVuSans-2f" x="706.539062"/>
      <use xlink:href="#DejaVuSans-6f" x="740.230469"/>
      <use xlink:href="#DejaVuSans-73" x="801.412109"/>
      <use xlink:href="#DejaVuSans-75" x="853.511719"/>
      <use xlink:href="#DejaVuSans-5f" x="916.890625"/>
      <use xlink:href="#DejaVuSans-6c" x="966.890625"/>
      <use xlink:href="#DejaVuSans-61" x="994.673828"/>
      <use xlink:href="#DejaVuSans-74" x="1055.953125"/>
      <use xlink:href="#DejaVuSans-65" x="1095.162109"/>
      <use xlink:href="#DejaVuSans-6e" x="1156.685547"/>
      <use xlink:href="#DejaVuSans-63" x="1220.064453"/>
      <use xlink:href="#DejaVuSans-79" x="1275.044922"/>
     </g>
    </g>
   </g>
  </g>
 </g>
 <defs>
  <clipPath id="p633ad1feef">
   <rect x="71.373553" y="31.92" width="491.666447" height="194.916"/>
  </clipPath>
 </defs>
</svg>
