<?xml version="1.0" encoding="utf-8" standalone="no"?>
<!DOCTYPE svg PUBLIC "-//W3C//DTD SVG 1.1//EN"
  "http://www.w3.org/Graphics/SVG/1.1/DTD/svg11.dtd">
<svg xmlns:xlink="http://www.w3.org/1999/xlink" width="576pt" height="288pt" viewBox="0 0 576 288" xmlns="http://www.w3.org/2000/svg" version="1.1">
 <metadata>
  <rdf:RDF xmlns:dc="http://purl.org/dc/elements/1.1/" xmlns:cc="http://creativecommons.org/ns#" xmlns:rdf="http://www.w3.org/1999/02/22-rdf-syntax-ns#">
   <cc:Work>
    <dc:type rdf:resource="http://purl.org/dc/dcmitype/StillImage"/>
    <dc:date>2025-02-04T10:27:06.290803</dc:date>
    <dc:format>image/svg+xml</dc:format>
    <dc:creator>
     <cc:Agent>
      <dc:title>Matplotlib v3.8.4, https://matplotlib.org/</dc:title>
     </cc:Agent>
    </dc:creator>
   </cc:Work>
  </rdf:RDF>
 </metadata>
 <defs>
  <style type="text/css">*{stroke-linejoin: round; stroke-linecap: butt}</style>
 </defs>
 <g id="figure_1">
  <g id="patch_1">
   <path d="M 0 288 
L 576 288 
L 576 0 
L 0 0 
z
" style="fill: #ffffff"/>
  </g>
  <g id="axes_1">
   <g id="patch_2">
    <path d="M 71.193553 226.836 
L 563.04 226.836 
L 563.04 31.92 
L 71.193553 31.92 
z
" style="fill: #ffffff"/>
   </g>
   <g id="matplotlib.axis_1">
    <g id="xtick_1">
     <g id="line2d_1">
      <path d="M 126.387868 226.836 
L 126.387868 31.92 
" clip-path="url(#p63dc9fc8e6)" style="fill: none; stroke: #cccccc; stroke-linecap: round"/>
     </g>
     <g id="text_1">
      <!-- $\mathdefault{10^{1}}$ -->
      <g style="fill: #262626" transform="translate(112.307868 248.4935) scale(0.16 -0.16)">
       <defs>
        <path id="DejaVuSans-31" d="M 794 531 
L 1825 531 
L 1825 4091 
L 703 3866 
L 703 4441 
L 1819 4666 
L 2450 4666 
L 2450 531 
L 3481 531 
L 3481 0 
L 794 0 
L 794 531 
z
" transform="scale(0.015625)"/>
        <path id="DejaVuSans-30" d="M 2034 4250 
Q 1547 4250 1301 3770 
Q 1056 3291 1056 2328 
Q 1056 1369 1301 889 
Q 1547 409 2034 409 
Q 2525 409 2770 889 
Q 3016 1369 3016 2328 
Q 3016 3291 2770 3770 
Q 2525 4250 2034 4250 
z
M 2034 4750 
Q 2819 4750 3233 4129 
Q 3647 3509 3647 2328 
Q 3647 1150 3233 529 
Q 2819 -91 2034 -91 
Q 1250 -91 836 529 
Q 422 1150 422 2328 
Q 422 3509 836 4129 
Q 1250 4750 2034 4750 
z
" transform="scale(0.015625)"/>
       </defs>
       <use xlink:href="#DejaVuSans-31" transform="translate(0 0.684375)"/>
       <use xlink:href="#DejaVuSans-30" transform="translate(63.623047 0.684375)"/>
       <use xlink:href="#DejaVuSans-31" transform="translate(128.203125 38.965625) scale(0.7)"/>
      </g>
     </g>
    </g>
    <g id="xtick_2">
     <g id="line2d_2">
      <path d="M 208.906986 226.836 
L 208.906986 31.92 
" clip-path="url(#p63dc9fc8e6)" style="fill: none; stroke: #cccccc; stroke-linecap: round"/>
     </g>
     <g id="text_2">
      <!-- $\mathdefault{10^{2}}$ -->
      <g style="fill: #262626" transform="translate(194.826986 248.4935) scale(0.16 -0.16)">
       <defs>
        <path id="DejaVuSans-32" d="M 1228 531 
L 3431 531 
L 3431 0 
L 469 0 
L 469 531 
Q 828 903 1448 1529 
Q 2069 2156 2228 2338 
Q 2531 2678 2651 2914 
Q 2772 3150 2772 3378 
Q 2772 3750 2511 3984 
Q 2250 4219 1831 4219 
Q 1534 4219 1204 4116 
Q 875 4013 500 3803 
L 500 4441 
Q 881 4594 1212 4672 
Q 1544 4750 1819 4750 
Q 2544 4750 2975 4387 
Q 3406 4025 3406 3419 
Q 3406 3131 3298 2873 
Q 3191 2616 2906 2266 
Q 2828 2175 2409 1742 
Q 1991 1309 1228 531 
z
" transform="scale(0.015625)"/>
       </defs>
       <use xlink:href="#DejaVuSans-31" transform="translate(0 0.765625)"/>
       <use xlink:href="#DejaVuSans-30" transform="translate(63.623047 0.765625)"/>
       <use xlink:href="#DejaVuSans-32" transform="translate(128.203125 39.046875) scale(0.7)"/>
      </g>
     </g>
    </g>
    <g id="xtick_3">
     <g id="line2d_3">
      <path d="M 291.426104 226.836 
L 291.426104 31.92 
" clip-path="url(#p63dc9fc8e6)" style="fill: none; stroke: #cccccc; stroke-linecap: round"/>
     </g>
     <g id="text_3">
      <!-- $\mathdefault{10^{3}}$ -->
      <g style="fill: #262626" transform="translate(277.346104 248.4935) scale(0.16 -0.16)">
       <defs>
        <path id="DejaVuSans-33" d="M 2597 2516 
Q 3050 2419 3304 2112 
Q 3559 1806 3559 1356 
Q 3559 666 3084 287 
Q 2609 -91 1734 -91 
Q 1441 -91 1130 -33 
Q 819 25 488 141 
L 488 750 
Q 750 597 1062 519 
Q 1375 441 1716 441 
Q 2309 441 2620 675 
Q 2931 909 2931 1356 
Q 2931 1769 2642 2001 
Q 2353 2234 1838 2234 
L 1294 2234 
L 1294 2753 
L 1863 2753 
Q 2328 2753 2575 2939 
Q 2822 3125 2822 3475 
Q 2822 3834 2567 4026 
Q 2313 4219 1838 4219 
Q 1578 4219 1281 4162 
Q 984 4106 628 3988 
L 628 4550 
Q 988 4650 1302 4700 
Q 1616 4750 1894 4750 
Q 2613 4750 3031 4423 
Q 3450 4097 3450 3541 
Q 3450 3153 3228 2886 
Q 3006 2619 2597 2516 
z
" transform="scale(0.015625)"/>
       </defs>
       <use xlink:href="#DejaVuSans-31" transform="translate(0 0.765625)"/>
       <use xlink:href="#DejaVuSans-30" transform="translate(63.623047 0.765625)"/>
       <use xlink:href="#DejaVuSans-33" transform="translate(128.203125 39.046875) scale(0.7)"/>
      </g>
     </g>
    </g>
    <g id="xtick_4">
     <g id="line2d_4">
      <path d="M 373.945221 226.836 
L 373.945221 31.92 
" clip-path="url(#p63dc9fc8e6)" style="fill: none; stroke: #cccccc; stroke-linecap: round"/>
     </g>
     <g id="text_4">
      <!-- $\mathdefault{10^{4}}$ -->
      <g style="fill: #262626" transform="translate(359.865221 248.4935) scale(0.16 -0.16)">
       <defs>
        <path id="DejaVuSans-34" d="M 2419 4116 
L 825 1625 
L 2419 1625 
L 2419 4116 
z
M 2253 4666 
L 3047 4666 
L 3047 1625 
L 3713 1625 
L 3713 1100 
L 3047 1100 
L 3047 0 
L 2419 0 
L 2419 1100 
L 313 1100 
L 313 1709 
L 2253 4666 
z
" transform="scale(0.015625)"/>
       </defs>
       <use xlink:href="#DejaVuSans-31" transform="translate(0 0.684375)"/>
       <use xlink:href="#DejaVuSans-30" transform="translate(63.623047 0.684375)"/>
       <use xlink:href="#DejaVuSans-34" transform="translate(128.203125 38.965625) scale(0.7)"/>
      </g>
     </g>
    </g>
    <g id="xtick_5">
     <g id="line2d_5">
      <path d="M 456.464339 226.836 
L 456.464339 31.92 
" clip-path="url(#p63dc9fc8e6)" style="fill: none; stroke: #cccccc; stroke-linecap: round"/>
     </g>
     <g id="text_5">
      <!-- $\mathdefault{10^{5}}$ -->
      <g style="fill: #262626" transform="translate(442.384339 248.4935) scale(0.16 -0.16)">
       <defs>
        <path id="DejaVuSans-35" d="M 691 4666 
L 3169 4666 
L 3169 4134 
L 1269 4134 
L 1269 2991 
Q 1406 3038 1543 3061 
Q 1681 3084 1819 3084 
Q 2600 3084 3056 2656 
Q 3513 2228 3513 1497 
Q 3513 744 3044 326 
Q 2575 -91 1722 -91 
Q 1428 -91 1123 -41 
Q 819 9 494 109 
L 494 744 
Q 775 591 1075 516 
Q 1375 441 1709 441 
Q 2250 441 2565 725 
Q 2881 1009 2881 1497 
Q 2881 1984 2565 2268 
Q 2250 2553 1709 2553 
Q 1456 2553 1204 2497 
Q 953 2441 691 2322 
L 691 4666 
z
" transform="scale(0.015625)"/>
       </defs>
       <use xlink:href="#DejaVuSans-31" transform="translate(0 0.684375)"/>
       <use xlink:href="#DejaVuSans-30" transform="translate(63.623047 0.684375)"/>
       <use xlink:href="#DejaVuSans-35" transform="translate(128.203125 38.965625) scale(0.7)"/>
      </g>
     </g>
    </g>
    <g id="xtick_6">
     <g id="line2d_6">
      <path d="M 538.983457 226.836 
L 538.983457 31.92 
" clip-path="url(#p63dc9fc8e6)" style="fill: none; stroke: #cccccc; stroke-linecap: round"/>
     </g>
     <g id="text_6">
      <!-- $\mathdefault{10^{6}}$ -->
      <g style="fill: #262626" transform="translate(524.903457 248.4935) scale(0.16 -0.16)">
       <defs>
        <path id="DejaVuSans-36" d="M 2113 2584 
Q 1688 2584 1439 2293 
Q 1191 2003 1191 1497 
Q 1191 994 1439 701 
Q 1688 409 2113 409 
Q 2538 409 2786 701 
Q 3034 994 3034 1497 
Q 3034 2003 2786 2293 
Q 2538 2584 2113 2584 
z
M 3366 4563 
L 3366 3988 
Q 3128 4100 2886 4159 
Q 2644 4219 2406 4219 
Q 1781 4219 1451 3797 
Q 1122 3375 1075 2522 
Q 1259 2794 1537 2939 
Q 1816 3084 2150 3084 
Q 2853 3084 3261 2657 
Q 3669 2231 3669 1497 
Q 3669 778 3244 343 
Q 2819 -91 2113 -91 
Q 1303 -91 875 529 
Q 447 1150 447 2328 
Q 447 3434 972 4092 
Q 1497 4750 2381 4750 
Q 2619 4750 2861 4703 
Q 3103 4656 3366 4563 
z
" transform="scale(0.015625)"/>
       </defs>
       <use xlink:href="#DejaVuSans-31" transform="translate(0 0.765625)"/>
       <use xlink:href="#DejaVuSans-30" transform="translate(63.623047 0.765625)"/>
       <use xlink:href="#DejaVuSans-36" transform="translate(128.203125 39.046875) scale(0.7)"/>
      </g>
     </g>
    </g>
    <g id="xtick_7"/>
    <g id="xtick_8"/>
    <g id="xtick_9"/>
    <g id="xtick_10"/>
    <g id="xtick_11"/>
    <g id="xtick_12"/>
    <g id="xtick_13"/>
    <g id="xtick_14"/>
    <g id="xtick_15"/>
    <g id="xtick_16"/>
    <g id="xtick_17"/>
    <g id="xtick_18"/>
    <g id="xtick_19"/>
    <g id="xtick_20"/>
    <g id="xtick_21"/>
    <g id="xtick_22"/>
    <g id="xtick_23"/>
    <g id="xtick_24"/>
    <g id="xtick_25"/>
    <g id="xtick_26"/>
    <g id="xtick_27"/>
    <g id="xtick_28"/>
    <g id="xtick_29"/>
    <g id="xtick_30"/>
    <g id="xtick_31"/>
    <g id="xtick_32"/>
    <g id="xtick_33"/>
    <g id="xtick_34"/>
    <g id="xtick_35"/>
    <g id="xtick_36"/>
    <g id="xtick_37"/>
    <g id="xtick_38"/>
    <g id="xtick_39"/>
    <g id="xtick_40"/>
    <g id="xtick_41"/>
    <g id="xtick_42"/>
    <g id="xtick_43"/>
    <g id="xtick_44"/>
    <g id="xtick_45"/>
    <g id="xtick_46"/>
    <g id="xtick_47"/>
    <g id="xtick_48"/>
    <g id="xtick_49"/>
    <g id="xtick_50"/>
    <g id="xtick_51"/>
    <g id="xtick_52"/>
    <g id="xtick_53"/>
    <g id="text_7">
     <!-- Message size in bytes (logscale) -->
     <g style="fill: #262626" transform="translate(187.986777 267.9785) scale(0.16 -0.16)">
      <defs>
       <path id="DejaVuSans-4d" d="M 628 4666 
L 1569 4666 
L 2759 1491 
L 3956 4666 
L 4897 4666 
L 4897 0 
L 4281 0 
L 4281 4097 
L 3078 897 
L 2444 897 
L 1241 4097 
L 1241 0 
L 628 0 
L 628 4666 
z
" transform="scale(0.015625)"/>
       <path id="DejaVuSans-65" d="M 3597 1894 
L 3597 1613 
L 953 1613 
Q 991 1019 1311 708 
Q 1631 397 2203 397 
Q 2534 397 2845 478 
Q 3156 559 3463 722 
L 3463 178 
Q 3153 47 2828 -22 
Q 2503 -91 2169 -91 
Q 1331 -91 842 396 
Q 353 884 353 1716 
Q 353 2575 817 3079 
Q 1281 3584 2069 3584 
Q 2775 3584 3186 3129 
Q 3597 2675 3597 1894 
z
M 3022 2063 
Q 3016 2534 2758 2815 
Q 2500 3097 2075 3097 
Q 1594 3097 1305 2825 
Q 1016 2553 972 2059 
L 3022 2063 
z
" transform="scale(0.015625)"/>
       <path id="DejaVuSans-73" d="M 2834 3397 
L 2834 2853 
Q 2591 2978 2328 3040 
Q 2066 3103 1784 3103 
Q 1356 3103 1142 2972 
Q 928 2841 928 2578 
Q 928 2378 1081 2264 
Q 1234 2150 1697 2047 
L 1894 2003 
Q 2506 1872 2764 1633 
Q 3022 1394 3022 966 
Q 3022 478 2636 193 
Q 2250 -91 1575 -91 
Q 1294 -91 989 -36 
Q 684 19 347 128 
L 347 722 
Q 666 556 975 473 
Q 1284 391 1588 391 
Q 1994 391 2212 530 
Q 2431 669 2431 922 
Q 2431 1156 2273 1281 
Q 2116 1406 1581 1522 
L 1381 1569 
Q 847 1681 609 1914 
Q 372 2147 372 2553 
Q 372 3047 722 3315 
Q 1072 3584 1716 3584 
Q 2034 3584 2315 3537 
Q 2597 3491 2834 3397 
z
" transform="scale(0.015625)"/>
       <path id="DejaVuSans-61" d="M 2194 1759 
Q 1497 1759 1228 1600 
Q 959 1441 959 1056 
Q 959 750 1161 570 
Q 1363 391 1709 391 
Q 2188 391 2477 730 
Q 2766 1069 2766 1631 
L 2766 1759 
L 2194 1759 
z
M 3341 1997 
L 3341 0 
L 2766 0 
L 2766 531 
Q 2569 213 2275 61 
Q 1981 -91 1556 -91 
Q 1019 -91 701 211 
Q 384 513 384 1019 
Q 384 1609 779 1909 
Q 1175 2209 1959 2209 
L 2766 2209 
L 2766 2266 
Q 2766 2663 2505 2880 
Q 2244 3097 1772 3097 
Q 1472 3097 1187 3025 
Q 903 2953 641 2809 
L 641 3341 
Q 956 3463 1253 3523 
Q 1550 3584 1831 3584 
Q 2591 3584 2966 3190 
Q 3341 2797 3341 1997 
z
" transform="scale(0.015625)"/>
       <path id="DejaVuSans-67" d="M 2906 1791 
Q 2906 2416 2648 2759 
Q 2391 3103 1925 3103 
Q 1463 3103 1205 2759 
Q 947 2416 947 1791 
Q 947 1169 1205 825 
Q 1463 481 1925 481 
Q 2391 481 2648 825 
Q 2906 1169 2906 1791 
z
M 3481 434 
Q 3481 -459 3084 -895 
Q 2688 -1331 1869 -1331 
Q 1566 -1331 1297 -1286 
Q 1028 -1241 775 -1147 
L 775 -588 
Q 1028 -725 1275 -790 
Q 1522 -856 1778 -856 
Q 2344 -856 2625 -561 
Q 2906 -266 2906 331 
L 2906 616 
Q 2728 306 2450 153 
Q 2172 0 1784 0 
Q 1141 0 747 490 
Q 353 981 353 1791 
Q 353 2603 747 3093 
Q 1141 3584 1784 3584 
Q 2172 3584 2450 3431 
Q 2728 3278 2906 2969 
L 2906 3500 
L 3481 3500 
L 3481 434 
z
" transform="scale(0.015625)"/>
       <path id="DejaVuSans-20" transform="scale(0.015625)"/>
       <path id="DejaVuSans-69" d="M 603 3500 
L 1178 3500 
L 1178 0 
L 603 0 
L 603 3500 
z
M 603 4863 
L 1178 4863 
L 1178 4134 
L 603 4134 
L 603 4863 
z
" transform="scale(0.015625)"/>
       <path id="DejaVuSans-7a" d="M 353 3500 
L 3084 3500 
L 3084 2975 
L 922 459 
L 3084 459 
L 3084 0 
L 275 0 
L 275 525 
L 2438 3041 
L 353 3041 
L 353 3500 
z
" transform="scale(0.015625)"/>
       <path id="DejaVuSans-6e" d="M 3513 2113 
L 3513 0 
L 2938 0 
L 2938 2094 
Q 2938 2591 2744 2837 
Q 2550 3084 2163 3084 
Q 1697 3084 1428 2787 
Q 1159 2491 1159 1978 
L 1159 0 
L 581 0 
L 581 3500 
L 1159 3500 
L 1159 2956 
Q 1366 3272 1645 3428 
Q 1925 3584 2291 3584 
Q 2894 3584 3203 3211 
Q 3513 2838 3513 2113 
z
" transform="scale(0.015625)"/>
       <path id="DejaVuSans-62" d="M 3116 1747 
Q 3116 2381 2855 2742 
Q 2594 3103 2138 3103 
Q 1681 3103 1420 2742 
Q 1159 2381 1159 1747 
Q 1159 1113 1420 752 
Q 1681 391 2138 391 
Q 2594 391 2855 752 
Q 3116 1113 3116 1747 
z
M 1159 2969 
Q 1341 3281 1617 3432 
Q 1894 3584 2278 3584 
Q 2916 3584 3314 3078 
Q 3713 2572 3713 1747 
Q 3713 922 3314 415 
Q 2916 -91 2278 -91 
Q 1894 -91 1617 61 
Q 1341 213 1159 525 
L 1159 0 
L 581 0 
L 581 4863 
L 1159 4863 
L 1159 2969 
z
" transform="scale(0.015625)"/>
       <path id="DejaVuSans-79" d="M 2059 -325 
Q 1816 -950 1584 -1140 
Q 1353 -1331 966 -1331 
L 506 -1331 
L 506 -850 
L 844 -850 
Q 1081 -850 1212 -737 
Q 1344 -625 1503 -206 
L 1606 56 
L 191 3500 
L 800 3500 
L 1894 763 
L 2988 3500 
L 3597 3500 
L 2059 -325 
z
" transform="scale(0.015625)"/>
       <path id="DejaVuSans-74" d="M 1172 4494 
L 1172 3500 
L 2356 3500 
L 2356 3053 
L 1172 3053 
L 1172 1153 
Q 1172 725 1289 603 
Q 1406 481 1766 481 
L 2356 481 
L 2356 0 
L 1766 0 
Q 1100 0 847 248 
Q 594 497 594 1153 
L 594 3053 
L 172 3053 
L 172 3500 
L 594 3500 
L 594 4494 
L 1172 4494 
z
" transform="scale(0.015625)"/>
       <path id="DejaVuSans-28" d="M 1984 4856 
Q 1566 4138 1362 3434 
Q 1159 2731 1159 2009 
Q 1159 1288 1364 580 
Q 1569 -128 1984 -844 
L 1484 -844 
Q 1016 -109 783 600 
Q 550 1309 550 2009 
Q 550 2706 781 3412 
Q 1013 4119 1484 4856 
L 1984 4856 
z
" transform="scale(0.015625)"/>
       <path id="DejaVuSans-6c" d="M 603 4863 
L 1178 4863 
L 1178 0 
L 603 0 
L 603 4863 
z
" transform="scale(0.015625)"/>
       <path id="DejaVuSans-6f" d="M 1959 3097 
Q 1497 3097 1228 2736 
Q 959 2375 959 1747 
Q 959 1119 1226 758 
Q 1494 397 1959 397 
Q 2419 397 2687 759 
Q 2956 1122 2956 1747 
Q 2956 2369 2687 2733 
Q 2419 3097 1959 3097 
z
M 1959 3584 
Q 2709 3584 3137 3096 
Q 3566 2609 3566 1747 
Q 3566 888 3137 398 
Q 2709 -91 1959 -91 
Q 1206 -91 779 398 
Q 353 888 353 1747 
Q 353 2609 779 3096 
Q 1206 3584 1959 3584 
z
" transform="scale(0.015625)"/>
       <path id="DejaVuSans-63" d="M 3122 3366 
L 3122 2828 
Q 2878 2963 2633 3030 
Q 2388 3097 2138 3097 
Q 1578 3097 1268 2742 
Q 959 2388 959 1747 
Q 959 1106 1268 751 
Q 1578 397 2138 397 
Q 2388 397 2633 464 
Q 2878 531 3122 666 
L 3122 134 
Q 2881 22 2623 -34 
Q 2366 -91 2075 -91 
Q 1284 -91 818 406 
Q 353 903 353 1747 
Q 353 2603 823 3093 
Q 1294 3584 2113 3584 
Q 2378 3584 2631 3529 
Q 2884 3475 3122 3366 
z
" transform="scale(0.015625)"/>
       <path id="DejaVuSans-29" d="M 513 4856 
L 1013 4856 
Q 1481 4119 1714 3412 
Q 1947 2706 1947 2009 
Q 1947 1309 1714 600 
Q 1481 -109 1013 -844 
L 513 -844 
Q 928 -128 1133 580 
Q 1338 1288 1338 2009 
Q 1338 2731 1133 3434 
Q 928 4138 513 4856 
z
" transform="scale(0.015625)"/>
      </defs>
      <use xlink:href="#DejaVuSans-4d"/>
      <use xlink:href="#DejaVuSans-65" x="86.279297"/>
      <use xlink:href="#DejaVuSans-73" x="147.802734"/>
      <use xlink:href="#DejaVuSans-73" x="199.902344"/>
      <use xlink:href="#DejaVuSans-61" x="252.001953"/>
      <use xlink:href="#DejaVuSans-67" x="313.28125"/>
      <use xlink:href="#DejaVuSans-65" x="376.757812"/>
      <use xlink:href="#DejaVuSans-20" x="438.28125"/>
      <use xlink:href="#DejaVuSans-73" x="470.068359"/>
      <use xlink:href="#DejaVuSans-69" x="522.167969"/>
      <use xlink:href="#DejaVuSans-7a" x="549.951172"/>
      <use xlink:href="#DejaVuSans-65" x="602.441406"/>
      <use xlink:href="#DejaVuSans-20" x="663.964844"/>
      <use xlink:href="#DejaVuSans-69" x="695.751953"/>
      <use xlink:href="#DejaVuSans-6e" x="723.535156"/>
      <use xlink:href="#DejaVuSans-20" x="786.914062"/>
      <use xlink:href="#DejaVuSans-62" x="818.701172"/>
      <use xlink:href="#DejaVuSans-79" x="882.177734"/>
      <use xlink:href="#DejaVuSans-74" x="941.357422"/>
      <use xlink:href="#DejaVuSans-65" x="980.566406"/>
      <use xlink:href="#DejaVuSans-73" x="1042.089844"/>
      <use xlink:href="#DejaVuSans-20" x="1094.189453"/>
      <use xlink:href="#DejaVuSans-28" x="1125.976562"/>
      <use xlink:href="#DejaVuSans-6c" x="1164.990234"/>
      <use xlink:href="#DejaVuSans-6f" x="1192.773438"/>
      <use xlink:href="#DejaVuSans-67" x="1253.955078"/>
      <use xlink:href="#DejaVuSans-73" x="1317.431641"/>
      <use xlink:href="#DejaVuSans-63" x="1369.53125"/>
      <use xlink:href="#DejaVuSans-61" x="1424.511719"/>
      <use xlink:href="#DejaVuSans-6c" x="1485.791016"/>
      <use xlink:href="#DejaVuSans-65" x="1513.574219"/>
      <use xlink:href="#DejaVuSans-29" x="1575.097656"/>
     </g>
    </g>
   </g>
   <g id="matplotlib.axis_2">
    <g id="ytick_1">
     <g id="line2d_7">
      <path d="M 71.193553 210.637634 
L 563.04 210.637634 
" clip-path="url(#p63dc9fc8e6)" style="fill: none; stroke: #cccccc; stroke-linecap: round"/>
     </g>
     <g id="text_8">
      <!-- $\mathdefault{10^{1}}$ -->
      <g style="fill: #262626" transform="translate(33.533553 216.716384) scale(0.16 -0.16)">
       <use xlink:href="#DejaVuSans-31" transform="translate(0 0.684375)"/>
       <use xlink:href="#DejaVuSans-30" transform="translate(63.623047 0.684375)"/>
       <use xlink:href="#DejaVuSans-31" transform="translate(128.203125 38.965625) scale(0.7)"/>
      </g>
     </g>
    </g>
    <g id="ytick_2">
     <g id="line2d_8">
      <path d="M 71.193553 145.663463 
L 563.04 145.663463 
" clip-path="url(#p63dc9fc8e6)" style="fill: none; stroke: #cccccc; stroke-linecap: round"/>
     </g>
     <g id="text_9">
      <!-- $\mathdefault{10^{2}}$ -->
      <g style="fill: #262626" transform="translate(33.533553 151.742213) scale(0.16 -0.16)">
       <use xlink:href="#DejaVuSans-31" transform="translate(0 0.765625)"/>
       <use xlink:href="#DejaVuSans-30" transform="translate(63.623047 0.765625)"/>
       <use xlink:href="#DejaVuSans-32" transform="translate(128.203125 39.046875) scale(0.7)"/>
      </g>
     </g>
    </g>
    <g id="ytick_3">
     <g id="line2d_9">
      <path d="M 71.193553 80.689293 
L 563.04 80.689293 
" clip-path="url(#p63dc9fc8e6)" style="fill: none; stroke: #cccccc; stroke-linecap: round"/>
     </g>
     <g id="text_10">
      <!-- $\mathdefault{10^{3}}$ -->
      <g style="fill: #262626" transform="translate(33.533553 86.768043) scale(0.16 -0.16)">
       <use xlink:href="#DejaVuSans-31" transform="translate(0 0.765625)"/>
       <use xlink:href="#DejaVuSans-30" transform="translate(63.623047 0.765625)"/>
       <use xlink:href="#DejaVuSans-33" transform="translate(128.203125 39.046875) scale(0.7)"/>
      </g>
     </g>
    </g>
    <g id="ytick_4"/>
    <g id="ytick_5"/>
    <g id="ytick_6"/>
    <g id="ytick_7"/>
    <g id="ytick_8"/>
    <g id="ytick_9"/>
    <g id="ytick_10"/>
    <g id="ytick_11"/>
    <g id="ytick_12"/>
    <g id="ytick_13"/>
    <g id="ytick_14"/>
    <g id="ytick_15"/>
    <g id="ytick_16"/>
    <g id="ytick_17"/>
    <g id="ytick_18"/>
    <g id="ytick_19"/>
    <g id="ytick_20"/>
    <g id="ytick_21"/>
    <g id="ytick_22"/>
    <g id="ytick_23"/>
    <g id="ytick_24"/>
    <g id="ytick_25"/>
    <g id="ytick_26"/>
    <g id="ytick_27"/>
    <g id="text_11">
     <!-- avg latency us (logscale) -->
     <g style="fill: #262626" transform="translate(26.206053 229.39925) rotate(-90) scale(0.16 -0.16)">
      <defs>
       <path id="DejaVuSans-76" d="M 191 3500 
L 800 3500 
L 1894 563 
L 2988 3500 
L 3597 3500 
L 2284 0 
L 1503 0 
L 191 3500 
z
" transform="scale(0.015625)"/>
       <path id="DejaVuSans-75" d="M 544 1381 
L 544 3500 
L 1119 3500 
L 1119 1403 
Q 1119 906 1312 657 
Q 1506 409 1894 409 
Q 2359 409 2629 706 
Q 2900 1003 2900 1516 
L 2900 3500 
L 3475 3500 
L 3475 0 
L 2900 0 
L 2900 538 
Q 2691 219 2414 64 
Q 2138 -91 1772 -91 
Q 1169 -91 856 284 
Q 544 659 544 1381 
z
M 1991 3584 
L 1991 3584 
z
" transform="scale(0.015625)"/>
      </defs>
      <use xlink:href="#DejaVuSans-61"/>
      <use xlink:href="#DejaVuSans-76" x="61.279297"/>
      <use xlink:href="#DejaVuSans-67" x="120.458984"/>
      <use xlink:href="#DejaVuSans-20" x="183.935547"/>
      <use xlink:href="#DejaVuSans-6c" x="215.722656"/>
      <use xlink:href="#DejaVuSans-61" x="243.505859"/>
      <use xlink:href="#DejaVuSans-74" x="304.785156"/>
      <use xlink:href="#DejaVuSans-65" x="343.994141"/>
      <use xlink:href="#DejaVuSans-6e" x="405.517578"/>
      <use xlink:href="#DejaVuSans-63" x="468.896484"/>
      <use xlink:href="#DejaVuSans-79" x="523.876953"/>
      <use xlink:href="#DejaVuSans-20" x="583.056641"/>
      <use xlink:href="#DejaVuSans-75" x="614.84375"/>
      <use xlink:href="#DejaVuSans-73" x="678.222656"/>
      <use xlink:href="#DejaVuSans-20" x="730.322266"/>
      <use xlink:href="#DejaVuSans-28" x="762.109375"/>
      <use xlink:href="#DejaVuSans-6c" x="801.123047"/>
      <use xlink:href="#DejaVuSans-6f" x="828.90625"/>
      <use xlink:href="#DejaVuSans-67" x="890.087891"/>
      <use xlink:href="#DejaVuSans-73" x="953.564453"/>
      <use xlink:href="#DejaVuSans-63" x="1005.664062"/>
      <use xlink:href="#DejaVuSans-61" x="1060.644531"/>
      <use xlink:href="#DejaVuSans-6c" x="1121.923828"/>
      <use xlink:href="#DejaVuSans-65" x="1149.707031"/>
      <use xlink:href="#DejaVuSans-29" x="1211.230469"/>
     </g>
    </g>
   </g>
   <g id="PolyCollection_1">
    <defs>
     <path id="m58a7029437" d="M 93.55021 -182.490752 
L 93.55021 -181.848588 
L 118.39094 -181.679731 
L 143.231669 -181.958291 
L 168.072399 -181.970623 
L 192.913129 -182.826402 
L 217.753858 -183.159348 
L 242.594588 -183.490742 
L 267.435317 -183.892724 
L 292.276047 -185.588115 
L 317.116777 -186.601355 
L 341.957506 -189.715654 
L 366.798236 -192.647042 
L 391.638966 -219.475044 
L 416.479695 -205.894904 
L 441.320425 -221.556986 
L 466.161154 -227.025581 
L 491.001884 -217.589948 
L 515.842614 -229.570058 
L 540.683343 -246.783217 
L 540.683343 -247.220182 
L 540.683343 -247.220182 
L 515.842614 -230.410406 
L 491.001884 -218.736736 
L 466.161154 -227.42762 
L 441.320425 -222.350517 
L 416.479695 -206.378715 
L 391.638966 -219.932089 
L 366.798236 -193.112435 
L 341.957506 -190.177386 
L 317.116777 -188.542214 
L 292.276047 -186.155235 
L 267.435317 -184.539435 
L 242.594588 -184.376034 
L 217.753858 -188.475274 
L 192.913129 -183.45228 
L 168.072399 -182.570565 
L 143.231669 -182.596863 
L 118.39094 -182.300751 
L 93.55021 -182.490752 
z
" style="stroke: #8c613c; stroke-opacity: 0.2"/>
    </defs>
    <g clip-path="url(#p63dc9fc8e6)">
     <use xlink:href="#m58a7029437" x="0" y="288" style="fill: #8c613c; fill-opacity: 0.2; stroke: #8c613c; stroke-opacity: 0.2"/>
    </g>
   </g>
   <g id="PolyCollection_2">
    <defs>
     <path id="ma2e3de16df" d="M 93.55021 -177.175178 
L 93.55021 -176.154863 
L 118.39094 -176.227972 
L 143.231669 -176.231521 
L 168.072399 -176.412958 
L 192.913129 -176.413607 
L 217.753858 -176.809619 
L 242.594588 -177.561041 
L 267.435317 -178.195856 
L 292.276047 -179.651195 
L 317.116777 -182.661382 
L 341.957506 -185.245024 
L 366.798236 -198.986095 
L 391.638966 -209.143153 
L 416.479695 -215.864355 
L 441.320425 -217.611072 
L 466.161154 -226.662396 
L 491.001884 -215.04858 
L 515.842614 -229.487341 
L 540.683343 -246.373907 
L 540.683343 -246.65768 
L 540.683343 -246.65768 
L 515.842614 -230.160246 
L 491.001884 -217.337393 
L 466.161154 -227.532143 
L 441.320425 -218.54868 
L 416.479695 -217.21843 
L 391.638966 -210.421451 
L 366.798236 -199.828031 
L 341.957506 -186.179639 
L 317.116777 -183.717735 
L 292.276047 -180.416206 
L 267.435317 -179.103716 
L 242.594588 -178.618271 
L 217.753858 -177.655124 
L 192.913129 -177.328775 
L 168.072399 -177.122916 
L 143.231669 -177.080113 
L 118.39094 -176.911731 
L 93.55021 -177.175178 
z
" style="stroke: #6c3baa; stroke-opacity: 0.2"/>
    </defs>
    <g clip-path="url(#p63dc9fc8e6)">
     <use xlink:href="#ma2e3de16df" x="0" y="288" style="fill: #6c3baa; fill-opacity: 0.2; stroke: #6c3baa; stroke-opacity: 0.2"/>
    </g>
   </g>
   <g id="PolyCollection_3">
    <defs>
     <path id="m058b5f7003" d="M 93.55021 -83.310467 
L 93.55021 -82.356056 
L 118.39094 -81.849246 
L 143.231669 -81.637878 
L 168.072399 -82.08179 
L 192.913129 -81.921393 
L 217.753858 -83.6917 
L 242.594588 -88.582763 
L 267.435317 -92.249127 
L 292.276047 -98.056743 
L 317.116777 -103.822311 
L 341.957506 -117.336711 
L 366.798236 -128.694243 
L 391.638966 -164.636422 
L 416.479695 -171.109524 
L 441.320425 -171.825818 
L 466.161154 -178.753249 
L 491.001884 -185.777613 
L 515.842614 -198.535875 
L 540.683343 -211.994404 
L 540.683343 -212.2643 
L 540.683343 -212.2643 
L 515.842614 -198.666711 
L 491.001884 -185.873696 
L 466.161154 -178.822245 
L 441.320425 -171.925757 
L 416.479695 -171.933351 
L 391.638966 -164.725024 
L 366.798236 -128.75779 
L 341.957506 -117.359637 
L 317.116777 -103.89625 
L 292.276047 -98.144039 
L 267.435317 -92.336444 
L 242.594588 -88.704837 
L 217.753858 -83.857 
L 192.913129 -82.098556 
L 168.072399 -82.265068 
L 143.231669 -81.777005 
L 118.39094 -82.524733 
L 93.55021 -83.310467 
z
" style="stroke: #797979; stroke-opacity: 0.2"/>
    </defs>
    <g clip-path="url(#p63dc9fc8e6)">
     <use xlink:href="#m058b5f7003" x="0" y="288" style="fill: #797979; fill-opacity: 0.2; stroke: #797979; stroke-opacity: 0.2"/>
    </g>
   </g>
   <g id="PolyCollection_4">
    <defs>
     <path id="m14dbbde0b6" d="M 93.55021 -164.474195 
L 93.55021 -151.596678 
L 118.39094 -151.897326 
L 143.231669 -151.55442 
L 168.072399 -151.96174 
L 192.913129 -152.23581 
L 217.753858 -158.511885 
L 242.594588 -158.334306 
L 267.435317 -158.710245 
L 292.276047 -159.319471 
L 317.116777 -160.022466 
L 341.957506 -161.982871 
L 366.798236 -168.989326 
L 391.638966 -171.224651 
L 416.479695 -177.343651 
L 441.320425 -183.509261 
L 466.161154 -201.148424 
L 491.001884 -204.441074 
L 515.842614 -217.68954 
L 540.683343 -233.379524 
L 540.683343 -235.604411 
L 540.683343 -235.604411 
L 515.842614 -220.446227 
L 491.001884 -207.362318 
L 466.161154 -211.736827 
L 441.320425 -189.987107 
L 416.479695 -185.790914 
L 391.638966 -177.849837 
L 366.798236 -177.006179 
L 341.957506 -170.853788 
L 317.116777 -168.811816 
L 292.276047 -168.204992 
L 267.435317 -167.399747 
L 242.594588 -166.977003 
L 217.753858 -167.059176 
L 192.913129 -165.261221 
L 168.072399 -165.151937 
L 143.231669 -165.669046 
L 118.39094 -164.66691 
L 93.55021 -164.474195 
z
" style="stroke: #4878d0; stroke-opacity: 0.2"/>
    </defs>
    <g clip-path="url(#p63dc9fc8e6)">
     <use xlink:href="#m14dbbde0b6" x="0" y="288" style="fill: #4878d0; fill-opacity: 0.2; stroke: #4878d0; stroke-opacity: 0.2"/>
    </g>
   </g>
   <g id="PolyCollection_5">
    <defs>
     <path id="m55cefb2a2a" d="M 93.55021 -160.790497 
L 93.55021 -160.518911 
L 118.39094 -160.179419 
L 143.231669 -160.247708 
L 168.072399 -160.567475 
L 192.913129 -161.030106 
L 217.753858 -160.681416 
L 242.594588 -160.853518 
L 267.435317 -161.335579 
L 292.276047 -162.15357 
L 317.116777 -163.021425 
L 341.957506 -177.329755 
L 366.798236 -179.076752 
L 391.638966 -179.098276 
L 416.479695 -180.950668 
L 441.320425 -182.355331 
L 466.161154 -184.232576 
L 491.001884 -189.252072 
L 515.842614 -199.920654 
L 540.683343 -213.601982 
L 540.683343 -213.821538 
L 540.683343 -213.821538 
L 515.842614 -200.580278 
L 491.001884 -189.615535 
L 466.161154 -185.6903 
L 441.320425 -183.080739 
L 416.479695 -181.239041 
L 391.638966 -179.424381 
L 366.798236 -179.582377 
L 341.957506 -177.535576 
L 317.116777 -163.161799 
L 292.276047 -162.335291 
L 267.435317 -161.616672 
L 242.594588 -160.901496 
L 217.753858 -160.803809 
L 192.913129 -161.329951 
L 168.072399 -160.793137 
L 143.231669 -160.317324 
L 118.39094 -160.293739 
L 93.55021 -160.790497 
z
" style="stroke: #d65f5f; stroke-opacity: 0.2"/>
    </defs>
    <g clip-path="url(#p63dc9fc8e6)">
     <use xlink:href="#m55cefb2a2a" x="0" y="288" style="fill: #d65f5f; fill-opacity: 0.2; stroke: #d65f5f; stroke-opacity: 0.2"/>
    </g>
   </g>
   <g id="PolyCollection_6">
    <defs>
     <path id="mf11413d648" d="M 93.55021 -76.912963 
L 93.55021 -73.959653 
L 118.39094 -71.079824 
L 143.231669 -70.023818 
L 168.072399 -70.365046 
L 192.913129 -72.226659 
L 217.753858 -73.309159 
L 242.594588 -80.138906 
L 267.435317 -84.195663 
L 292.276047 -85.063492 
L 317.116777 -87.257076 
L 341.957506 -103.472132 
L 366.798236 -128.03006 
L 391.638966 -143.195818 
L 416.479695 -143.934406 
L 441.320425 -153.801764 
L 466.161154 -167.996412 
L 491.001884 -184.848497 
L 515.842614 -203.407268 
L 540.683343 -223.273704 
L 540.683343 -224.400725 
L 540.683343 -224.400725 
L 515.842614 -203.731911 
L 491.001884 -185.258713 
L 466.161154 -168.264955 
L 441.320425 -154.122967 
L 416.479695 -144.18606 
L 391.638966 -143.585082 
L 366.798236 -128.680289 
L 341.957506 -104.259722 
L 317.116777 -87.569415 
L 292.276047 -85.868294 
L 267.435317 -84.350282 
L 242.594588 -81.369883 
L 217.753858 -73.549203 
L 192.913129 -72.496173 
L 168.072399 -71.459073 
L 143.231669 -70.30061 
L 118.39094 -72.381944 
L 93.55021 -76.912963 
z
" style="stroke: #008000; stroke-opacity: 0.2"/>
    </defs>
    <g clip-path="url(#p63dc9fc8e6)">
     <use xlink:href="#mf11413d648" x="0" y="288" style="fill: #008000; fill-opacity: 0.2; stroke: #008000; stroke-opacity: 0.2"/>
    </g>
   </g>
   <g id="line2d_10">
    <path d="M 93.55021 105.847514 
L 118.39094 106.008051 
L 143.231669 105.697058 
L 168.072399 105.711985 
L 192.913129 104.831492 
L 217.753858 102.81462 
L 242.594588 104.060467 
L 267.435317 103.751062 
L 292.276047 102.141095 
L 317.116777 100.674255 
L 341.957506 98.043258 
L 366.798236 95.093668 
L 391.638966 68.270084 
L 416.479695 81.864258 
L 441.320425 66.042653 
L 466.161154 60.781587 
L 491.001884 69.818141 
L 515.842614 58.00664 
L 540.683343 41.019957 
" clip-path="url(#p63dc9fc8e6)" style="fill: none; stroke: #8c613c; stroke-width: 1.5; stroke-linecap: round"/>
   </g>
   <g id="line2d_11">
    <path d="M 93.55021 111.338978 
L 118.39094 111.448382 
L 143.231669 111.332792 
L 168.072399 111.233995 
L 192.913129 111.145174 
L 217.753858 110.764462 
L 242.594588 109.905202 
L 267.435317 109.346563 
L 292.276047 107.963708 
L 317.116777 104.820739 
L 341.957506 102.292135 
L 366.798236 88.599264 
L 391.638966 78.103407 
L 416.479695 71.405877 
L 441.320425 69.869172 
L 466.161154 60.948949 
L 491.001884 72.024998 
L 515.842614 58.24031 
L 540.683343 41.492705 
" clip-path="url(#p63dc9fc8e6)" style="fill: none; stroke: #6c3baa; stroke-width: 1.5; stroke-linecap: round"/>
   </g>
   <g id="line2d_12">
    <path d="M 93.55021 205.155137 
L 118.39094 205.846654 
L 143.231669 206.288225 
L 168.072399 205.824042 
L 192.913129 205.986297 
L 217.753858 204.224967 
L 242.594588 199.357553 
L 267.435317 195.709259 
L 292.276047 189.899246 
L 317.116777 184.142909 
L 341.957506 170.651999 
L 366.798236 159.273508 
L 391.638966 123.31733 
L 416.479695 116.494284 
L 441.320425 116.126142 
L 466.161154 109.214313 
L 491.001884 102.180109 
L 515.842614 89.406989 
L 540.683343 75.897551 
" clip-path="url(#p63dc9fc8e6)" style="fill: none; stroke: #797979; stroke-width: 1.5; stroke-linecap: round"/>
   </g>
   <g id="line2d_13">
    <path d="M 93.55021 129.334775 
L 118.39094 128.989066 
L 143.231669 128.789117 
L 168.072399 128.834671 
L 192.913129 128.762543 
L 217.753858 125.020543 
L 242.594588 124.936038 
L 267.435317 124.668828 
L 292.276047 124.199674 
L 317.116777 123.266864 
L 341.957506 121.428475 
L 366.798236 114.482824 
L 391.638966 113.068888 
L 416.479695 105.945734 
L 441.320425 101.077686 
L 466.161154 80.867211 
L 491.001884 81.961819 
L 515.842614 68.911371 
L 540.683343 53.435673 
" clip-path="url(#p63dc9fc8e6)" style="fill: none; stroke: #4878d0; stroke-width: 1.5; stroke-linecap: round"/>
   </g>
   <g id="line2d_14">
    <path d="M 93.55021 127.345404 
L 118.39094 127.768152 
L 143.231669 127.715222 
L 168.072399 127.319468 
L 192.913129 126.793537 
L 217.753858 127.257377 
L 242.594588 127.123946 
L 267.435317 126.537067 
L 292.276047 125.755145 
L 317.116777 124.918445 
L 341.957506 110.565601 
L 366.798236 108.680277 
L 391.638966 108.738164 
L 416.479695 106.904205 
L 441.320425 105.29603 
L 466.161154 103.010988 
L 491.001884 98.557957 
L 515.842614 87.751194 
L 540.683343 74.291108 
" clip-path="url(#p63dc9fc8e6)" style="fill: none; stroke: #d65f5f; stroke-width: 1.5; stroke-linecap: round"/>
   </g>
   <g id="line2d_15">
    <path d="M 93.55021 212.837547 
L 118.39094 216.299517 
L 143.231669 217.830164 
L 168.072399 217.104099 
L 192.913129 215.638262 
L 217.753858 214.554349 
L 242.594588 207.309025 
L 267.435317 203.733549 
L 292.276047 202.615947 
L 317.116777 200.604064 
L 341.957506 184.22081 
L 366.798236 159.644805 
L 391.638966 144.589314 
L 416.479695 143.939486 
L 441.320425 134.037948 
L 466.161154 119.856444 
L 491.001884 102.976155 
L 515.842614 84.444181 
L 540.683343 64.116972 
" clip-path="url(#p63dc9fc8e6)" style="fill: none; stroke: #008000; stroke-width: 1.5; stroke-linecap: round"/>
   </g>
   <g id="line2d_16"/>
   <g id="line2d_17"/>
   <g id="line2d_18"/>
   <g id="line2d_19"/>
   <g id="line2d_20"/>
   <g id="line2d_21"/>
   <g id="patch_3">
    <path d="M 71.193553 226.836 
L 71.193553 31.92 
" style="fill: none; stroke: #cccccc; stroke-width: 1.25; stroke-linejoin: miter; stroke-linecap: square"/>
   </g>
   <g id="patch_4">
    <path d="M 563.04 226.836 
L 563.04 31.92 
" style="fill: none; stroke: #cccccc; stroke-width: 1.25; stroke-linejoin: miter; stroke-linecap: square"/>
   </g>
   <g id="patch_5">
    <path d="M 71.193553 226.836 
L 563.04 226.836 
" style="fill: none; stroke: #cccccc; stroke-width: 1.25; stroke-linejoin: miter; stroke-linecap: square"/>
   </g>
   <g id="patch_6">
    <path d="M 71.193553 31.92 
L 563.04 31.92 
" style="fill: none; stroke: #cccccc; stroke-width: 1.25; stroke-linejoin: miter; stroke-linecap: square"/>
   </g>
   <g id="text_12">
    <!-- osu_allreduce 128 GPUs -->
    <g style="fill: #262626" transform="translate(220.735527 25.92) scale(0.16 -0.16)">
     <defs>
      <path id="DejaVuSans-5f" d="M 3263 -1063 
L 3263 -1509 
L -63 -1509 
L -63 -1063 
L 3263 -1063 
z
" transform="scale(0.015625)"/>
      <path id="DejaVuSans-72" d="M 2631 2963 
Q 2534 3019 2420 3045 
Q 2306 3072 2169 3072 
Q 1681 3072 1420 2755 
Q 1159 2438 1159 1844 
L 1159 0 
L 581 0 
L 581 3500 
L 1159 3500 
L 1159 2956 
Q 1341 3275 1631 3429 
Q 1922 3584 2338 3584 
Q 2397 3584 2469 3576 
Q 2541 3569 2628 3553 
L 2631 2963 
z
" transform="scale(0.015625)"/>
      <path id="DejaVuSans-64" d="M 2906 2969 
L 2906 4863 
L 3481 4863 
L 3481 0 
L 2906 0 
L 2906 525 
Q 2725 213 2448 61 
Q 2172 -91 1784 -91 
Q 1150 -91 751 415 
Q 353 922 353 1747 
Q 353 2572 751 3078 
Q 1150 3584 1784 3584 
Q 2172 3584 2448 3432 
Q 2725 3281 2906 2969 
z
M 947 1747 
Q 947 1113 1208 752 
Q 1469 391 1925 391 
Q 2381 391 2643 752 
Q 2906 1113 2906 1747 
Q 2906 2381 2643 2742 
Q 2381 3103 1925 3103 
Q 1469 3103 1208 2742 
Q 947 2381 947 1747 
z
" transform="scale(0.015625)"/>
      <path id="DejaVuSans-38" d="M 2034 2216 
Q 1584 2216 1326 1975 
Q 1069 1734 1069 1313 
Q 1069 891 1326 650 
Q 1584 409 2034 409 
Q 2484 409 2743 651 
Q 3003 894 3003 1313 
Q 3003 1734 2745 1975 
Q 2488 2216 2034 2216 
z
M 1403 2484 
Q 997 2584 770 2862 
Q 544 3141 544 3541 
Q 544 4100 942 4425 
Q 1341 4750 2034 4750 
Q 2731 4750 3128 4425 
Q 3525 4100 3525 3541 
Q 3525 3141 3298 2862 
Q 3072 2584 2669 2484 
Q 3125 2378 3379 2068 
Q 3634 1759 3634 1313 
Q 3634 634 3220 271 
Q 2806 -91 2034 -91 
Q 1263 -91 848 271 
Q 434 634 434 1313 
Q 434 1759 690 2068 
Q 947 2378 1403 2484 
z
M 1172 3481 
Q 1172 3119 1398 2916 
Q 1625 2713 2034 2713 
Q 2441 2713 2670 2916 
Q 2900 3119 2900 3481 
Q 2900 3844 2670 4047 
Q 2441 4250 2034 4250 
Q 1625 4250 1398 4047 
Q 1172 3844 1172 3481 
z
" transform="scale(0.015625)"/>
      <path id="DejaVuSans-47" d="M 3809 666 
L 3809 1919 
L 2778 1919 
L 2778 2438 
L 4434 2438 
L 4434 434 
Q 4069 175 3628 42 
Q 3188 -91 2688 -91 
Q 1594 -91 976 548 
Q 359 1188 359 2328 
Q 359 3472 976 4111 
Q 1594 4750 2688 4750 
Q 3144 4750 3555 4637 
Q 3966 4525 4313 4306 
L 4313 3634 
Q 3963 3931 3569 4081 
Q 3175 4231 2741 4231 
Q 1884 4231 1454 3753 
Q 1025 3275 1025 2328 
Q 1025 1384 1454 906 
Q 1884 428 2741 428 
Q 3075 428 3337 486 
Q 3600 544 3809 666 
z
" transform="scale(0.015625)"/>
      <path id="DejaVuSans-50" d="M 1259 4147 
L 1259 2394 
L 2053 2394 
Q 2494 2394 2734 2622 
Q 2975 2850 2975 3272 
Q 2975 3691 2734 3919 
Q 2494 4147 2053 4147 
L 1259 4147 
z
M 628 4666 
L 2053 4666 
Q 2838 4666 3239 4311 
Q 3641 3956 3641 3272 
Q 3641 2581 3239 2228 
Q 2838 1875 2053 1875 
L 1259 1875 
L 1259 0 
L 628 0 
L 628 4666 
z
" transform="scale(0.015625)"/>
      <path id="DejaVuSans-55" d="M 556 4666 
L 1191 4666 
L 1191 1831 
Q 1191 1081 1462 751 
Q 1734 422 2344 422 
Q 2950 422 3222 751 
Q 3494 1081 3494 1831 
L 3494 4666 
L 4128 4666 
L 4128 1753 
Q 4128 841 3676 375 
Q 3225 -91 2344 -91 
Q 1459 -91 1007 375 
Q 556 841 556 1753 
L 556 4666 
z
" transform="scale(0.015625)"/>
     </defs>
     <use xlink:href="#DejaVuSans-6f"/>
     <use xlink:href="#DejaVuSans-73" x="61.181641"/>
     <use xlink:href="#DejaVuSans-75" x="113.28125"/>
     <use xlink:href="#DejaVuSans-5f" x="176.660156"/>
     <use xlink:href="#DejaVuSans-61" x="226.660156"/>
     <use xlink:href="#DejaVuSans-6c" x="287.939453"/>
     <use xlink:href="#DejaVuSans-6c" x="315.722656"/>
     <use xlink:href="#DejaVuSans-72" x="343.505859"/>
     <use xlink:href="#DejaVuSans-65" x="382.369141"/>
     <use xlink:href="#DejaVuSans-64" x="443.892578"/>
     <use xlink:href="#DejaVuSans-75" x="507.369141"/>
     <use xlink:href="#DejaVuSans-63" x="570.748047"/>
     <use xlink:href="#DejaVuSans-65" x="625.728516"/>
     <use xlink:href="#DejaVuSans-20" x="687.251953"/>
     <use xlink:href="#DejaVuSans-31" x="719.039062"/>
     <use xlink:href="#DejaVuSans-32" x="782.662109"/>
     <use xlink:href="#DejaVuSans-38" x="846.285156"/>
     <use xlink:href="#DejaVuSans-20" x="909.908203"/>
     <use xlink:href="#DejaVuSans-47" x="941.695312"/>
     <use xlink:href="#DejaVuSans-50" x="1019.185547"/>
     <use xlink:href="#DejaVuSans-55" x="1079.488281"/>
     <use xlink:href="#DejaVuSans-73" x="1152.681641"/>
    </g>
   </g>
   <g id="legend_1">
    <g id="patch_7">
     <path d="M 285.217812 221.336 
L 555.34 221.336 
Q 557.54 221.336 557.54 219.136 
L 557.54 121.52475 
Q 557.54 119.32475 555.34 119.32475 
L 285.217812 119.32475 
Q 283.017812 119.32475 283.017812 121.52475 
L 283.017812 219.136 
Q 283.017812 221.336 285.217812 221.336 
z
" style="fill: #ffffff; opacity: 0.8; stroke: #cccccc; stroke-linejoin: miter"/>
    </g>
    <g id="line2d_22">
     <path d="M 287.417812 128.233031 
L 298.417812 128.233031 
L 309.417812 128.233031 
" style="fill: none; stroke: #8c613c; stroke-width: 1.5; stroke-linecap: round"/>
    </g>
    <g id="text_13">
     <!-- google/gke/gpu/osu_allreduce -->
     <g style="fill: #262626" transform="translate(318.217812 132.083031) scale(0.11 -0.11)">
      <defs>
       <path id="DejaVuSans-2f" d="M 1625 4666 
L 2156 4666 
L 531 -594 
L 0 -594 
L 1625 4666 
z
" transform="scale(0.015625)"/>
       <path id="DejaVuSans-6b" d="M 581 4863 
L 1159 4863 
L 1159 1991 
L 2875 3500 
L 3609 3500 
L 1753 1863 
L 3688 0 
L 2938 0 
L 1159 1709 
L 1159 0 
L 581 0 
L 581 4863 
z
" transform="scale(0.015625)"/>
       <path id="DejaVuSans-70" d="M 1159 525 
L 1159 -1331 
L 581 -1331 
L 581 3500 
L 1159 3500 
L 1159 2969 
Q 1341 3281 1617 3432 
Q 1894 3584 2278 3584 
Q 2916 3584 3314 3078 
Q 3713 2572 3713 1747 
Q 3713 922 3314 415 
Q 2916 -91 2278 -91 
Q 1894 -91 1617 61 
Q 1341 213 1159 525 
z
M 3116 1747 
Q 3116 2381 2855 2742 
Q 2594 3103 2138 3103 
Q 1681 3103 1420 2742 
Q 1159 2381 1159 1747 
Q 1159 1113 1420 752 
Q 1681 391 2138 391 
Q 2594 391 2855 752 
Q 3116 1113 3116 1747 
z
" transform="scale(0.015625)"/>
      </defs>
      <use xlink:href="#DejaVuSans-67"/>
      <use xlink:href="#DejaVuSans-6f" x="63.476562"/>
      <use xlink:href="#DejaVuSans-6f" x="124.658203"/>
      <use xlink:href="#DejaVuSans-67" x="185.839844"/>
      <use xlink:href="#DejaVuSans-6c" x="249.316406"/>
      <use xlink:href="#DejaVuSans-65" x="277.099609"/>
      <use xlink:href="#DejaVuSans-2f" x="338.623047"/>
      <use xlink:href="#DejaVuSans-67" x="372.314453"/>
      <use xlink:href="#DejaVuSans-6b" x="435.791016"/>
      <use xlink:href="#DejaVuSans-65" x="490.076172"/>
      <use xlink:href="#DejaVuSans-2f" x="551.599609"/>
      <use xlink:href="#DejaVuSans-67" x="585.291016"/>
      <use xlink:href="#DejaVuSans-70" x="648.767578"/>
      <use xlink:href="#DejaVuSans-75" x="712.244141"/>
      <use xlink:href="#DejaVuSans-2f" x="775.623047"/>
      <use xlink:href="#DejaVuSans-6f" x="809.314453"/>
      <use xlink:href="#DejaVuSans-73" x="870.496094"/>
      <use xlink:href="#DejaVuSans-75" x="922.595703"/>
      <use xlink:href="#DejaVuSans-5f" x="985.974609"/>
      <use xlink:href="#DejaVuSans-61" x="1035.974609"/>
      <use xlink:href="#DejaVuSans-6c" x="1097.253906"/>
      <use xlink:href="#DejaVuSans-6c" x="1125.037109"/>
      <use xlink:href="#DejaVuSans-72" x="1152.820312"/>
      <use xlink:href="#DejaVuSans-65" x="1191.683594"/>
      <use xlink:href="#DejaVuSans-64" x="1253.207031"/>
      <use xlink:href="#DejaVuSans-75" x="1316.683594"/>
      <use xlink:href="#DejaVuSans-63" x="1380.0625"/>
      <use xlink:href="#DejaVuSans-65" x="1435.042969"/>
     </g>
    </g>
    <g id="line2d_23">
     <path d="M 287.417812 144.684906 
L 298.417812 144.684906 
L 309.417812 144.684906 
" style="fill: none; stroke: #6c3baa; stroke-width: 1.5; stroke-linecap: round"/>
    </g>
    <g id="text_14">
     <!-- google/compute-engine/gpu/osu_allreduce -->
     <g style="fill: #262626" transform="translate(318.217812 148.534906) scale(0.11 -0.11)">
      <defs>
       <path id="DejaVuSans-6d" d="M 3328 2828 
Q 3544 3216 3844 3400 
Q 4144 3584 4550 3584 
Q 5097 3584 5394 3201 
Q 5691 2819 5691 2113 
L 5691 0 
L 5113 0 
L 5113 2094 
Q 5113 2597 4934 2840 
Q 4756 3084 4391 3084 
Q 3944 3084 3684 2787 
Q 3425 2491 3425 1978 
L 3425 0 
L 2847 0 
L 2847 2094 
Q 2847 2600 2669 2842 
Q 2491 3084 2119 3084 
Q 1678 3084 1418 2786 
Q 1159 2488 1159 1978 
L 1159 0 
L 581 0 
L 581 3500 
L 1159 3500 
L 1159 2956 
Q 1356 3278 1631 3431 
Q 1906 3584 2284 3584 
Q 2666 3584 2933 3390 
Q 3200 3197 3328 2828 
z
" transform="scale(0.015625)"/>
       <path id="DejaVuSans-2d" d="M 313 2009 
L 1997 2009 
L 1997 1497 
L 313 1497 
L 313 2009 
z
" transform="scale(0.015625)"/>
      </defs>
      <use xlink:href="#DejaVuSans-67"/>
      <use xlink:href="#DejaVuSans-6f" x="63.476562"/>
      <use xlink:href="#DejaVuSans-6f" x="124.658203"/>
      <use xlink:href="#DejaVuSans-67" x="185.839844"/>
      <use xlink:href="#DejaVuSans-6c" x="249.316406"/>
      <use xlink:href="#DejaVuSans-65" x="277.099609"/>
      <use xlink:href="#DejaVuSans-2f" x="338.623047"/>
      <use xlink:href="#DejaVuSans-63" x="372.314453"/>
      <use xlink:href="#DejaVuSans-6f" x="427.294922"/>
      <use xlink:href="#DejaVuSans-6d" x="488.476562"/>
      <use xlink:href="#DejaVuSans-70" x="585.888672"/>
      <use xlink:href="#DejaVuSans-75" x="649.365234"/>
      <use xlink:href="#DejaVuSans-74" x="712.744141"/>
      <use xlink:href="#DejaVuSans-65" x="751.953125"/>
      <use xlink:href="#DejaVuSans-2d" x="813.476562"/>
      <use xlink:href="#DejaVuSans-65" x="849.560547"/>
      <use xlink:href="#DejaVuSans-6e" x="911.083984"/>
      <use xlink:href="#DejaVuSans-67" x="974.462891"/>
      <use xlink:href="#DejaVuSans-69" x="1037.939453"/>
      <use xlink:href="#DejaVuSans-6e" x="1065.722656"/>
      <use xlink:href="#DejaVuSans-65" x="1129.101562"/>
      <use xlink:href="#DejaVuSans-2f" x="1190.625"/>
      <use xlink:href="#DejaVuSans-67" x="1224.316406"/>
      <use xlink:href="#DejaVuSans-70" x="1287.792969"/>
      <use xlink:href="#DejaVuSans-75" x="1351.269531"/>
      <use xlink:href="#DejaVuSans-2f" x="1414.648438"/>
      <use xlink:href="#DejaVuSans-6f" x="1448.339844"/>
      <use xlink:href="#DejaVuSans-73" x="1509.521484"/>
      <use xlink:href="#DejaVuSans-75" x="1561.621094"/>
      <use xlink:href="#DejaVuSans-5f" x="1625"/>
      <use xlink:href="#DejaVuSans-61" x="1675"/>
      <use xlink:href="#DejaVuSans-6c" x="1736.279297"/>
      <use xlink:href="#DejaVuSans-6c" x="1764.0625"/>
      <use xlink:href="#DejaVuSans-72" x="1791.845703"/>
      <use xlink:href="#DejaVuSans-65" x="1830.708984"/>
      <use xlink:href="#DejaVuSans-64" x="1892.232422"/>
      <use xlink:href="#DejaVuSans-75" x="1955.708984"/>
      <use xlink:href="#DejaVuSans-63" x="2019.087891"/>
      <use xlink:href="#DejaVuSans-65" x="2074.068359"/>
     </g>
    </g>
    <g id="line2d_24">
     <path d="M 287.417812 161.136781 
L 298.417812 161.136781 
L 309.417812 161.136781 
" style="fill: none; stroke: #797979; stroke-width: 1.5; stroke-linecap: round"/>
    </g>
    <g id="text_15">
     <!-- on-premises/b/gpu/osu_allreduce -->
     <g style="fill: #262626" transform="translate(318.217812 164.986781) scale(0.11 -0.11)">
      <use xlink:href="#DejaVuSans-6f"/>
      <use xlink:href="#DejaVuSans-6e" x="61.181641"/>
      <use xlink:href="#DejaVuSans-2d" x="124.560547"/>
      <use xlink:href="#DejaVuSans-70" x="160.644531"/>
      <use xlink:href="#DejaVuSans-72" x="224.121094"/>
      <use xlink:href="#DejaVuSans-65" x="262.984375"/>
      <use xlink:href="#DejaVuSans-6d" x="324.507812"/>
      <use xlink:href="#DejaVuSans-69" x="421.919922"/>
      <use xlink:href="#DejaVuSans-73" x="449.703125"/>
      <use xlink:href="#DejaVuSans-65" x="501.802734"/>
      <use xlink:href="#DejaVuSans-73" x="563.326172"/>
      <use xlink:href="#DejaVuSans-2f" x="615.425781"/>
      <use xlink:href="#DejaVuSans-62" x="649.117188"/>
      <use xlink:href="#DejaVuSans-2f" x="712.59375"/>
      <use xlink:href="#DejaVuSans-67" x="746.285156"/>
      <use xlink:href="#DejaVuSans-70" x="809.761719"/>
      <use xlink:href="#DejaVuSans-75" x="873.238281"/>
      <use xlink:href="#DejaVuSans-2f" x="936.617188"/>
      <use xlink:href="#DejaVuSans-6f" x="970.308594"/>
      <use xlink:href="#DejaVuSans-73" x="1031.490234"/>
      <use xlink:href="#DejaVuSans-75" x="1083.589844"/>
      <use xlink:href="#DejaVuSans-5f" x="1146.96875"/>
      <use xlink:href="#DejaVuSans-61" x="1196.96875"/>
      <use xlink:href="#DejaVuSans-6c" x="1258.248047"/>
      <use xlink:href="#DejaVuSans-6c" x="1286.03125"/>
      <use xlink:href="#DejaVuSans-72" x="1313.814453"/>
      <use xlink:href="#DejaVuSans-65" x="1352.677734"/>
      <use xlink:href="#DejaVuSans-64" x="1414.201172"/>
      <use xlink:href="#DejaVuSans-75" x="1477.677734"/>
      <use xlink:href="#DejaVuSans-63" x="1541.056641"/>
      <use xlink:href="#DejaVuSans-65" x="1596.037109"/>
     </g>
    </g>
    <g id="line2d_25">
     <path d="M 287.417812 177.588656 
L 298.417812 177.588656 
L 309.417812 177.588656 
" style="fill: none; stroke: #4878d0; stroke-width: 1.5; stroke-linecap: round"/>
    </g>
    <g id="text_16">
     <!-- aws/eks/gpu/osu_allreduce -->
     <g style="fill: #262626" transform="translate(318.217812 181.438656) scale(0.11 -0.11)">
      <defs>
       <path id="DejaVuSans-77" d="M 269 3500 
L 844 3500 
L 1563 769 
L 2278 3500 
L 2956 3500 
L 3675 769 
L 4391 3500 
L 4966 3500 
L 4050 0 
L 3372 0 
L 2619 2869 
L 1863 0 
L 1184 0 
L 269 3500 
z
" transform="scale(0.015625)"/>
      </defs>
      <use xlink:href="#DejaVuSans-61"/>
      <use xlink:href="#DejaVuSans-77" x="61.279297"/>
      <use xlink:href="#DejaVuSans-73" x="143.066406"/>
      <use xlink:href="#DejaVuSans-2f" x="195.166016"/>
      <use xlink:href="#DejaVuSans-65" x="228.857422"/>
      <use xlink:href="#DejaVuSans-6b" x="290.380859"/>
      <use xlink:href="#DejaVuSans-73" x="348.291016"/>
      <use xlink:href="#DejaVuSans-2f" x="400.390625"/>
      <use xlink:href="#DejaVuSans-67" x="434.082031"/>
      <use xlink:href="#DejaVuSans-70" x="497.558594"/>
      <use xlink:href="#DejaVuSans-75" x="561.035156"/>
      <use xlink:href="#DejaVuSans-2f" x="624.414062"/>
      <use xlink:href="#DejaVuSans-6f" x="658.105469"/>
      <use xlink:href="#DejaVuSans-73" x="719.287109"/>
      <use xlink:href="#DejaVuSans-75" x="771.386719"/>
      <use xlink:href="#DejaVuSans-5f" x="834.765625"/>
      <use xlink:href="#DejaVuSans-61" x="884.765625"/>
      <use xlink:href="#DejaVuSans-6c" x="946.044922"/>
      <use xlink:href="#DejaVuSans-6c" x="973.828125"/>
      <use xlink:href="#DejaVuSans-72" x="1001.611328"/>
      <use xlink:href="#DejaVuSans-65" x="1040.474609"/>
      <use xlink:href="#DejaVuSans-64" x="1101.998047"/>
      <use xlink:href="#DejaVuSans-75" x="1165.474609"/>
      <use xlink:href="#DejaVuSans-63" x="1228.853516"/>
      <use xlink:href="#DejaVuSans-65" x="1283.833984"/>
     </g>
    </g>
    <g id="line2d_26">
     <path d="M 287.417812 194.040531 
L 298.417812 194.040531 
L 309.417812 194.040531 
" style="fill: none; stroke: #d65f5f; stroke-width: 1.5; stroke-linecap: round"/>
    </g>
    <g id="text_17">
     <!-- azure/cyclecloud/gpu/osu_allreduce -->
     <g style="fill: #262626" transform="translate(318.217812 197.890531) scale(0.11 -0.11)">
      <use xlink:href="#DejaVuSans-61"/>
      <use xlink:href="#DejaVuSans-7a" x="61.279297"/>
      <use xlink:href="#DejaVuSans-75" x="113.769531"/>
      <use xlink:href="#DejaVuSans-72" x="177.148438"/>
      <use xlink:href="#DejaVuSans-65" x="216.011719"/>
      <use xlink:href="#DejaVuSans-2f" x="277.535156"/>
      <use xlink:href="#DejaVuSans-63" x="311.226562"/>
      <use xlink:href="#DejaVuSans-79" x="366.207031"/>
      <use xlink:href="#DejaVuSans-63" x="425.386719"/>
      <use xlink:href="#DejaVuSans-6c" x="480.367188"/>
      <use xlink:href="#DejaVuSans-65" x="508.150391"/>
      <use xlink:href="#DejaVuSans-63" x="569.673828"/>
      <use xlink:href="#DejaVuSans-6c" x="624.654297"/>
      <use xlink:href="#DejaVuSans-6f" x="652.4375"/>
      <use xlink:href="#DejaVuSans-75" x="713.619141"/>
      <use xlink:href="#DejaVuSans-64" x="776.998047"/>
      <use xlink:href="#DejaVuSans-2f" x="840.474609"/>
      <use xlink:href="#DejaVuSans-67" x="874.166016"/>
      <use xlink:href="#DejaVuSans-70" x="937.642578"/>
      <use xlink:href="#DejaVuSans-75" x="1001.119141"/>
      <use xlink:href="#DejaVuSans-2f" x="1064.498047"/>
      <use xlink:href="#DejaVuSans-6f" x="1098.189453"/>
      <use xlink:href="#DejaVuSans-73" x="1159.371094"/>
      <use xlink:href="#DejaVuSans-75" x="1211.470703"/>
      <use xlink:href="#DejaVuSans-5f" x="1274.849609"/>
      <use xlink:href="#DejaVuSans-61" x="1324.849609"/>
      <use xlink:href="#DejaVuSans-6c" x="1386.128906"/>
      <use xlink:href="#DejaVuSans-6c" x="1413.912109"/>
      <use xlink:href="#DejaVuSans-72" x="1441.695312"/>
      <use xlink:href="#DejaVuSans-65" x="1480.558594"/>
      <use xlink:href="#DejaVuSans-64" x="1542.082031"/>
      <use xlink:href="#DejaVuSans-75" x="1605.558594"/>
      <use xlink:href="#DejaVuSans-63" x="1668.9375"/>
      <use xlink:href="#DejaVuSans-65" x="1723.917969"/>
     </g>
    </g>
    <g id="line2d_27">
     <path d="M 287.417812 210.492406 
L 298.417812 210.492406 
L 309.417812 210.492406 
" style="fill: none; stroke: #008000; stroke-width: 1.5; stroke-linecap: round"/>
    </g>
    <g id="text_18">
     <!-- azure/aks/gpu/osu_allreduce -->
     <g style="fill: #262626" transform="translate(318.217812 214.342406) scale(0.11 -0.11)">
      <use xlink:href="#DejaVuSans-61"/>
      <use xlink:href="#DejaVuSans-7a" x="61.279297"/>
      <use xlink:href="#DejaVuSans-75" x="113.769531"/>
      <use xlink:href="#DejaVuSans-72" x="177.148438"/>
      <use xlink:href="#DejaVuSans-65" x="216.011719"/>
      <use xlink:href="#DejaVuSans-2f" x="277.535156"/>
      <use xlink:href="#DejaVuSans-61" x="311.226562"/>
      <use xlink:href="#DejaVuSans-6b" x="372.505859"/>
      <use xlink:href="#DejaVuSans-73" x="430.416016"/>
      <use xlink:href="#DejaVuSans-2f" x="482.515625"/>
      <use xlink:href="#DejaVuSans-67" x="516.207031"/>
      <use xlink:href="#DejaVuSans-70" x="579.683594"/>
      <use xlink:href="#DejaVuSans-75" x="643.160156"/>
      <use xlink:href="#DejaVuSans-2f" x="706.539062"/>
      <use xlink:href="#DejaVuSans-6f" x="740.230469"/>
      <use xlink:href="#DejaVuSans-73" x="801.412109"/>
      <use xlink:href="#DejaVuSans-75" x="853.511719"/>
      <use xlink:href="#DejaVuSans-5f" x="916.890625"/>
      <use xlink:href="#DejaVuSans-61" x="966.890625"/>
      <use xlink:href="#DejaVuSans-6c" x="1028.169922"/>
      <use xlink:href="#DejaVuSans-6c" x="1055.953125"/>
      <use xlink:href="#DejaVuSans-72" x="1083.736328"/>
      <use xlink:href="#DejaVuSans-65" x="1122.599609"/>
      <use xlink:href="#DejaVuSans-64" x="1184.123047"/>
      <use xlink:href="#DejaVuSans-75" x="1247.599609"/>
      <use xlink:href="#DejaVuSans-63" x="1310.978516"/>
      <use xlink:href="#DejaVuSans-65" x="1365.958984"/>
     </g>
    </g>
   </g>
  </g>
 </g>
 <defs>
  <clipPath id="p63dc9fc8e6">
   <rect x="71.193553" y="31.92" width="491.846447" height="194.916"/>
  </clipPath>
 </defs>
</svg>
