<?xml version="1.0" encoding="utf-8" standalone="no"?>
<!DOCTYPE svg PUBLIC "-//W3C//DTD SVG 1.1//EN"
  "http://www.w3.org/Graphics/SVG/1.1/DTD/svg11.dtd">
<svg xmlns:xlink="http://www.w3.org/1999/xlink" width="576pt" height="288pt" viewBox="0 0 576 288" xmlns="http://www.w3.org/2000/svg" version="1.1">
 <metadata>
  <rdf:RDF xmlns:dc="http://purl.org/dc/elements/1.1/" xmlns:cc="http://creativecommons.org/ns#" xmlns:rdf="http://www.w3.org/1999/02/22-rdf-syntax-ns#">
   <cc:Work>
    <dc:type rdf:resource="http://purl.org/dc/dcmitype/StillImage"/>
    <dc:date>2025-02-04T10:26:49.004701</dc:date>
    <dc:format>image/svg+xml</dc:format>
    <dc:creator>
     <cc:Agent>
      <dc:title>Matplotlib v3.8.4, https://matplotlib.org/</dc:title>
     </cc:Agent>
    </dc:creator>
   </cc:Work>
  </rdf:RDF>
 </metadata>
 <defs>
  <style type="text/css">*{stroke-linejoin: round; stroke-linecap: butt}</style>
 </defs>
 <g id="figure_1">
  <g id="patch_1">
   <path d="M 0 288 
L 576 288 
L 576 0 
L 0 0 
z
" style="fill: #ffffff"/>
  </g>
  <g id="axes_1">
   <g id="patch_2">
    <path d="M 80.488108 226.836 
L 563.04 226.836 
L 563.04 31.92 
L 80.488108 31.92 
z
" style="fill: #ffffff"/>
   </g>
   <g id="matplotlib.axis_1">
    <g id="xtick_1">
     <g id="line2d_1">
      <path d="M 102.422285 226.836 
L 102.422285 31.92 
" clip-path="url(#p1093ef3075)" style="fill: none; stroke: #cccccc; stroke-linecap: round"/>
     </g>
     <g id="text_1">
      <!-- $\mathdefault{10^{0}}$ -->
      <g style="fill: #262626" transform="translate(88.342285 248.4935) scale(0.16 -0.16)">
       <defs>
        <path id="DejaVuSans-31" d="M 794 531 
L 1825 531 
L 1825 4091 
L 703 3866 
L 703 4441 
L 1819 4666 
L 2450 4666 
L 2450 531 
L 3481 531 
L 3481 0 
L 794 0 
L 794 531 
z
" transform="scale(0.015625)"/>
        <path id="DejaVuSans-30" d="M 2034 4250 
Q 1547 4250 1301 3770 
Q 1056 3291 1056 2328 
Q 1056 1369 1301 889 
Q 1547 409 2034 409 
Q 2525 409 2770 889 
Q 3016 1369 3016 2328 
Q 3016 3291 2770 3770 
Q 2525 4250 2034 4250 
z
M 2034 4750 
Q 2819 4750 3233 4129 
Q 3647 3509 3647 2328 
Q 3647 1150 3233 529 
Q 2819 -91 2034 -91 
Q 1250 -91 836 529 
Q 422 1150 422 2328 
Q 422 3509 836 4129 
Q 1250 4750 2034 4750 
z
" transform="scale(0.015625)"/>
       </defs>
       <use xlink:href="#DejaVuSans-31" transform="translate(0 0.765625)"/>
       <use xlink:href="#DejaVuSans-30" transform="translate(63.623047 0.765625)"/>
       <use xlink:href="#DejaVuSans-30" transform="translate(128.203125 39.046875) scale(0.7)"/>
      </g>
     </g>
    </g>
    <g id="xtick_2">
     <g id="line2d_2">
      <path d="M 168.662065 226.836 
L 168.662065 31.92 
" clip-path="url(#p1093ef3075)" style="fill: none; stroke: #cccccc; stroke-linecap: round"/>
     </g>
     <g id="text_2">
      <!-- $\mathdefault{10^{1}}$ -->
      <g style="fill: #262626" transform="translate(154.582065 248.4935) scale(0.16 -0.16)">
       <use xlink:href="#DejaVuSans-31" transform="translate(0 0.684375)"/>
       <use xlink:href="#DejaVuSans-30" transform="translate(63.623047 0.684375)"/>
       <use xlink:href="#DejaVuSans-31" transform="translate(128.203125 38.965625) scale(0.7)"/>
      </g>
     </g>
    </g>
    <g id="xtick_3">
     <g id="line2d_3">
      <path d="M 234.901846 226.836 
L 234.901846 31.92 
" clip-path="url(#p1093ef3075)" style="fill: none; stroke: #cccccc; stroke-linecap: round"/>
     </g>
     <g id="text_3">
      <!-- $\mathdefault{10^{2}}$ -->
      <g style="fill: #262626" transform="translate(220.821846 248.4935) scale(0.16 -0.16)">
       <defs>
        <path id="DejaVuSans-32" d="M 1228 531 
L 3431 531 
L 3431 0 
L 469 0 
L 469 531 
Q 828 903 1448 1529 
Q 2069 2156 2228 2338 
Q 2531 2678 2651 2914 
Q 2772 3150 2772 3378 
Q 2772 3750 2511 3984 
Q 2250 4219 1831 4219 
Q 1534 4219 1204 4116 
Q 875 4013 500 3803 
L 500 4441 
Q 881 4594 1212 4672 
Q 1544 4750 1819 4750 
Q 2544 4750 2975 4387 
Q 3406 4025 3406 3419 
Q 3406 3131 3298 2873 
Q 3191 2616 2906 2266 
Q 2828 2175 2409 1742 
Q 1991 1309 1228 531 
z
" transform="scale(0.015625)"/>
       </defs>
       <use xlink:href="#DejaVuSans-31" transform="translate(0 0.765625)"/>
       <use xlink:href="#DejaVuSans-30" transform="translate(63.623047 0.765625)"/>
       <use xlink:href="#DejaVuSans-32" transform="translate(128.203125 39.046875) scale(0.7)"/>
      </g>
     </g>
    </g>
    <g id="xtick_4">
     <g id="line2d_4">
      <path d="M 301.141626 226.836 
L 301.141626 31.92 
" clip-path="url(#p1093ef3075)" style="fill: none; stroke: #cccccc; stroke-linecap: round"/>
     </g>
     <g id="text_4">
      <!-- $\mathdefault{10^{3}}$ -->
      <g style="fill: #262626" transform="translate(287.061626 248.4935) scale(0.16 -0.16)">
       <defs>
        <path id="DejaVuSans-33" d="M 2597 2516 
Q 3050 2419 3304 2112 
Q 3559 1806 3559 1356 
Q 3559 666 3084 287 
Q 2609 -91 1734 -91 
Q 1441 -91 1130 -33 
Q 819 25 488 141 
L 488 750 
Q 750 597 1062 519 
Q 1375 441 1716 441 
Q 2309 441 2620 675 
Q 2931 909 2931 1356 
Q 2931 1769 2642 2001 
Q 2353 2234 1838 2234 
L 1294 2234 
L 1294 2753 
L 1863 2753 
Q 2328 2753 2575 2939 
Q 2822 3125 2822 3475 
Q 2822 3834 2567 4026 
Q 2313 4219 1838 4219 
Q 1578 4219 1281 4162 
Q 984 4106 628 3988 
L 628 4550 
Q 988 4650 1302 4700 
Q 1616 4750 1894 4750 
Q 2613 4750 3031 4423 
Q 3450 4097 3450 3541 
Q 3450 3153 3228 2886 
Q 3006 2619 2597 2516 
z
" transform="scale(0.015625)"/>
       </defs>
       <use xlink:href="#DejaVuSans-31" transform="translate(0 0.765625)"/>
       <use xlink:href="#DejaVuSans-30" transform="translate(63.623047 0.765625)"/>
       <use xlink:href="#DejaVuSans-33" transform="translate(128.203125 39.046875) scale(0.7)"/>
      </g>
     </g>
    </g>
    <g id="xtick_5">
     <g id="line2d_5">
      <path d="M 367.381407 226.836 
L 367.381407 31.92 
" clip-path="url(#p1093ef3075)" style="fill: none; stroke: #cccccc; stroke-linecap: round"/>
     </g>
     <g id="text_5">
      <!-- $\mathdefault{10^{4}}$ -->
      <g style="fill: #262626" transform="translate(353.301407 248.4935) scale(0.16 -0.16)">
       <defs>
        <path id="DejaVuSans-34" d="M 2419 4116 
L 825 1625 
L 2419 1625 
L 2419 4116 
z
M 2253 4666 
L 3047 4666 
L 3047 1625 
L 3713 1625 
L 3713 1100 
L 3047 1100 
L 3047 0 
L 2419 0 
L 2419 1100 
L 313 1100 
L 313 1709 
L 2253 4666 
z
" transform="scale(0.015625)"/>
       </defs>
       <use xlink:href="#DejaVuSans-31" transform="translate(0 0.684375)"/>
       <use xlink:href="#DejaVuSans-30" transform="translate(63.623047 0.684375)"/>
       <use xlink:href="#DejaVuSans-34" transform="translate(128.203125 38.965625) scale(0.7)"/>
      </g>
     </g>
    </g>
    <g id="xtick_6">
     <g id="line2d_6">
      <path d="M 433.621187 226.836 
L 433.621187 31.92 
" clip-path="url(#p1093ef3075)" style="fill: none; stroke: #cccccc; stroke-linecap: round"/>
     </g>
     <g id="text_6">
      <!-- $\mathdefault{10^{5}}$ -->
      <g style="fill: #262626" transform="translate(419.541187 248.4935) scale(0.16 -0.16)">
       <defs>
        <path id="DejaVuSans-35" d="M 691 4666 
L 3169 4666 
L 3169 4134 
L 1269 4134 
L 1269 2991 
Q 1406 3038 1543 3061 
Q 1681 3084 1819 3084 
Q 2600 3084 3056 2656 
Q 3513 2228 3513 1497 
Q 3513 744 3044 326 
Q 2575 -91 1722 -91 
Q 1428 -91 1123 -41 
Q 819 9 494 109 
L 494 744 
Q 775 591 1075 516 
Q 1375 441 1709 441 
Q 2250 441 2565 725 
Q 2881 1009 2881 1497 
Q 2881 1984 2565 2268 
Q 2250 2553 1709 2553 
Q 1456 2553 1204 2497 
Q 953 2441 691 2322 
L 691 4666 
z
" transform="scale(0.015625)"/>
       </defs>
       <use xlink:href="#DejaVuSans-31" transform="translate(0 0.684375)"/>
       <use xlink:href="#DejaVuSans-30" transform="translate(63.623047 0.684375)"/>
       <use xlink:href="#DejaVuSans-35" transform="translate(128.203125 38.965625) scale(0.7)"/>
      </g>
     </g>
    </g>
    <g id="xtick_7">
     <g id="line2d_7">
      <path d="M 499.860968 226.836 
L 499.860968 31.92 
" clip-path="url(#p1093ef3075)" style="fill: none; stroke: #cccccc; stroke-linecap: round"/>
     </g>
     <g id="text_7">
      <!-- $\mathdefault{10^{6}}$ -->
      <g style="fill: #262626" transform="translate(485.780968 248.4935) scale(0.16 -0.16)">
       <defs>
        <path id="DejaVuSans-36" d="M 2113 2584 
Q 1688 2584 1439 2293 
Q 1191 2003 1191 1497 
Q 1191 994 1439 701 
Q 1688 409 2113 409 
Q 2538 409 2786 701 
Q 3034 994 3034 1497 
Q 3034 2003 2786 2293 
Q 2538 2584 2113 2584 
z
M 3366 4563 
L 3366 3988 
Q 3128 4100 2886 4159 
Q 2644 4219 2406 4219 
Q 1781 4219 1451 3797 
Q 1122 3375 1075 2522 
Q 1259 2794 1537 2939 
Q 1816 3084 2150 3084 
Q 2853 3084 3261 2657 
Q 3669 2231 3669 1497 
Q 3669 778 3244 343 
Q 2819 -91 2113 -91 
Q 1303 -91 875 529 
Q 447 1150 447 2328 
Q 447 3434 972 4092 
Q 1497 4750 2381 4750 
Q 2619 4750 2861 4703 
Q 3103 4656 3366 4563 
z
" transform="scale(0.015625)"/>
       </defs>
       <use xlink:href="#DejaVuSans-31" transform="translate(0 0.765625)"/>
       <use xlink:href="#DejaVuSans-30" transform="translate(63.623047 0.765625)"/>
       <use xlink:href="#DejaVuSans-36" transform="translate(128.203125 39.046875) scale(0.7)"/>
      </g>
     </g>
    </g>
    <g id="xtick_8"/>
    <g id="xtick_9"/>
    <g id="xtick_10"/>
    <g id="xtick_11"/>
    <g id="xtick_12"/>
    <g id="xtick_13"/>
    <g id="xtick_14"/>
    <g id="xtick_15"/>
    <g id="xtick_16"/>
    <g id="xtick_17"/>
    <g id="xtick_18"/>
    <g id="xtick_19"/>
    <g id="xtick_20"/>
    <g id="xtick_21"/>
    <g id="xtick_22"/>
    <g id="xtick_23"/>
    <g id="xtick_24"/>
    <g id="xtick_25"/>
    <g id="xtick_26"/>
    <g id="xtick_27"/>
    <g id="xtick_28"/>
    <g id="xtick_29"/>
    <g id="xtick_30"/>
    <g id="xtick_31"/>
    <g id="xtick_32"/>
    <g id="xtick_33"/>
    <g id="xtick_34"/>
    <g id="xtick_35"/>
    <g id="xtick_36"/>
    <g id="xtick_37"/>
    <g id="xtick_38"/>
    <g id="xtick_39"/>
    <g id="xtick_40"/>
    <g id="xtick_41"/>
    <g id="xtick_42"/>
    <g id="xtick_43"/>
    <g id="xtick_44"/>
    <g id="xtick_45"/>
    <g id="xtick_46"/>
    <g id="xtick_47"/>
    <g id="xtick_48"/>
    <g id="xtick_49"/>
    <g id="xtick_50"/>
    <g id="xtick_51"/>
    <g id="xtick_52"/>
    <g id="xtick_53"/>
    <g id="xtick_54"/>
    <g id="xtick_55"/>
    <g id="xtick_56"/>
    <g id="xtick_57"/>
    <g id="xtick_58"/>
    <g id="xtick_59"/>
    <g id="xtick_60"/>
    <g id="xtick_61"/>
    <g id="xtick_62"/>
    <g id="xtick_63"/>
    <g id="xtick_64"/>
    <g id="xtick_65"/>
    <g id="xtick_66"/>
    <g id="xtick_67"/>
    <g id="text_8">
     <!-- Message size in bytes (logscale) -->
     <g style="fill: #262626" transform="translate(192.634054 267.9785) scale(0.16 -0.16)">
      <defs>
       <path id="DejaVuSans-4d" d="M 628 4666 
L 1569 4666 
L 2759 1491 
L 3956 4666 
L 4897 4666 
L 4897 0 
L 4281 0 
L 4281 4097 
L 3078 897 
L 2444 897 
L 1241 4097 
L 1241 0 
L 628 0 
L 628 4666 
z
" transform="scale(0.015625)"/>
       <path id="DejaVuSans-65" d="M 3597 1894 
L 3597 1613 
L 953 1613 
Q 991 1019 1311 708 
Q 1631 397 2203 397 
Q 2534 397 2845 478 
Q 3156 559 3463 722 
L 3463 178 
Q 3153 47 2828 -22 
Q 2503 -91 2169 -91 
Q 1331 -91 842 396 
Q 353 884 353 1716 
Q 353 2575 817 3079 
Q 1281 3584 2069 3584 
Q 2775 3584 3186 3129 
Q 3597 2675 3597 1894 
z
M 3022 2063 
Q 3016 2534 2758 2815 
Q 2500 3097 2075 3097 
Q 1594 3097 1305 2825 
Q 1016 2553 972 2059 
L 3022 2063 
z
" transform="scale(0.015625)"/>
       <path id="DejaVuSans-73" d="M 2834 3397 
L 2834 2853 
Q 2591 2978 2328 3040 
Q 2066 3103 1784 3103 
Q 1356 3103 1142 2972 
Q 928 2841 928 2578 
Q 928 2378 1081 2264 
Q 1234 2150 1697 2047 
L 1894 2003 
Q 2506 1872 2764 1633 
Q 3022 1394 3022 966 
Q 3022 478 2636 193 
Q 2250 -91 1575 -91 
Q 1294 -91 989 -36 
Q 684 19 347 128 
L 347 722 
Q 666 556 975 473 
Q 1284 391 1588 391 
Q 1994 391 2212 530 
Q 2431 669 2431 922 
Q 2431 1156 2273 1281 
Q 2116 1406 1581 1522 
L 1381 1569 
Q 847 1681 609 1914 
Q 372 2147 372 2553 
Q 372 3047 722 3315 
Q 1072 3584 1716 3584 
Q 2034 3584 2315 3537 
Q 2597 3491 2834 3397 
z
" transform="scale(0.015625)"/>
       <path id="DejaVuSans-61" d="M 2194 1759 
Q 1497 1759 1228 1600 
Q 959 1441 959 1056 
Q 959 750 1161 570 
Q 1363 391 1709 391 
Q 2188 391 2477 730 
Q 2766 1069 2766 1631 
L 2766 1759 
L 2194 1759 
z
M 3341 1997 
L 3341 0 
L 2766 0 
L 2766 531 
Q 2569 213 2275 61 
Q 1981 -91 1556 -91 
Q 1019 -91 701 211 
Q 384 513 384 1019 
Q 384 1609 779 1909 
Q 1175 2209 1959 2209 
L 2766 2209 
L 2766 2266 
Q 2766 2663 2505 2880 
Q 2244 3097 1772 3097 
Q 1472 3097 1187 3025 
Q 903 2953 641 2809 
L 641 3341 
Q 956 3463 1253 3523 
Q 1550 3584 1831 3584 
Q 2591 3584 2966 3190 
Q 3341 2797 3341 1997 
z
" transform="scale(0.015625)"/>
       <path id="DejaVuSans-67" d="M 2906 1791 
Q 2906 2416 2648 2759 
Q 2391 3103 1925 3103 
Q 1463 3103 1205 2759 
Q 947 2416 947 1791 
Q 947 1169 1205 825 
Q 1463 481 1925 481 
Q 2391 481 2648 825 
Q 2906 1169 2906 1791 
z
M 3481 434 
Q 3481 -459 3084 -895 
Q 2688 -1331 1869 -1331 
Q 1566 -1331 1297 -1286 
Q 1028 -1241 775 -1147 
L 775 -588 
Q 1028 -725 1275 -790 
Q 1522 -856 1778 -856 
Q 2344 -856 2625 -561 
Q 2906 -266 2906 331 
L 2906 616 
Q 2728 306 2450 153 
Q 2172 0 1784 0 
Q 1141 0 747 490 
Q 353 981 353 1791 
Q 353 2603 747 3093 
Q 1141 3584 1784 3584 
Q 2172 3584 2450 3431 
Q 2728 3278 2906 2969 
L 2906 3500 
L 3481 3500 
L 3481 434 
z
" transform="scale(0.015625)"/>
       <path id="DejaVuSans-20" transform="scale(0.015625)"/>
       <path id="DejaVuSans-69" d="M 603 3500 
L 1178 3500 
L 1178 0 
L 603 0 
L 603 3500 
z
M 603 4863 
L 1178 4863 
L 1178 4134 
L 603 4134 
L 603 4863 
z
" transform="scale(0.015625)"/>
       <path id="DejaVuSans-7a" d="M 353 3500 
L 3084 3500 
L 3084 2975 
L 922 459 
L 3084 459 
L 3084 0 
L 275 0 
L 275 525 
L 2438 3041 
L 353 3041 
L 353 3500 
z
" transform="scale(0.015625)"/>
       <path id="DejaVuSans-6e" d="M 3513 2113 
L 3513 0 
L 2938 0 
L 2938 2094 
Q 2938 2591 2744 2837 
Q 2550 3084 2163 3084 
Q 1697 3084 1428 2787 
Q 1159 2491 1159 1978 
L 1159 0 
L 581 0 
L 581 3500 
L 1159 3500 
L 1159 2956 
Q 1366 3272 1645 3428 
Q 1925 3584 2291 3584 
Q 2894 3584 3203 3211 
Q 3513 2838 3513 2113 
z
" transform="scale(0.015625)"/>
       <path id="DejaVuSans-62" d="M 3116 1747 
Q 3116 2381 2855 2742 
Q 2594 3103 2138 3103 
Q 1681 3103 1420 2742 
Q 1159 2381 1159 1747 
Q 1159 1113 1420 752 
Q 1681 391 2138 391 
Q 2594 391 2855 752 
Q 3116 1113 3116 1747 
z
M 1159 2969 
Q 1341 3281 1617 3432 
Q 1894 3584 2278 3584 
Q 2916 3584 3314 3078 
Q 3713 2572 3713 1747 
Q 3713 922 3314 415 
Q 2916 -91 2278 -91 
Q 1894 -91 1617 61 
Q 1341 213 1159 525 
L 1159 0 
L 581 0 
L 581 4863 
L 1159 4863 
L 1159 2969 
z
" transform="scale(0.015625)"/>
       <path id="DejaVuSans-79" d="M 2059 -325 
Q 1816 -950 1584 -1140 
Q 1353 -1331 966 -1331 
L 506 -1331 
L 506 -850 
L 844 -850 
Q 1081 -850 1212 -737 
Q 1344 -625 1503 -206 
L 1606 56 
L 191 3500 
L 800 3500 
L 1894 763 
L 2988 3500 
L 3597 3500 
L 2059 -325 
z
" transform="scale(0.015625)"/>
       <path id="DejaVuSans-74" d="M 1172 4494 
L 1172 3500 
L 2356 3500 
L 2356 3053 
L 1172 3053 
L 1172 1153 
Q 1172 725 1289 603 
Q 1406 481 1766 481 
L 2356 481 
L 2356 0 
L 1766 0 
Q 1100 0 847 248 
Q 594 497 594 1153 
L 594 3053 
L 172 3053 
L 172 3500 
L 594 3500 
L 594 4494 
L 1172 4494 
z
" transform="scale(0.015625)"/>
       <path id="DejaVuSans-28" d="M 1984 4856 
Q 1566 4138 1362 3434 
Q 1159 2731 1159 2009 
Q 1159 1288 1364 580 
Q 1569 -128 1984 -844 
L 1484 -844 
Q 1016 -109 783 600 
Q 550 1309 550 2009 
Q 550 2706 781 3412 
Q 1013 4119 1484 4856 
L 1984 4856 
z
" transform="scale(0.015625)"/>
       <path id="DejaVuSans-6c" d="M 603 4863 
L 1178 4863 
L 1178 0 
L 603 0 
L 603 4863 
z
" transform="scale(0.015625)"/>
       <path id="DejaVuSans-6f" d="M 1959 3097 
Q 1497 3097 1228 2736 
Q 959 2375 959 1747 
Q 959 1119 1226 758 
Q 1494 397 1959 397 
Q 2419 397 2687 759 
Q 2956 1122 2956 1747 
Q 2956 2369 2687 2733 
Q 2419 3097 1959 3097 
z
M 1959 3584 
Q 2709 3584 3137 3096 
Q 3566 2609 3566 1747 
Q 3566 888 3137 398 
Q 2709 -91 1959 -91 
Q 1206 -91 779 398 
Q 353 888 353 1747 
Q 353 2609 779 3096 
Q 1206 3584 1959 3584 
z
" transform="scale(0.015625)"/>
       <path id="DejaVuSans-63" d="M 3122 3366 
L 3122 2828 
Q 2878 2963 2633 3030 
Q 2388 3097 2138 3097 
Q 1578 3097 1268 2742 
Q 959 2388 959 1747 
Q 959 1106 1268 751 
Q 1578 397 2138 397 
Q 2388 397 2633 464 
Q 2878 531 3122 666 
L 3122 134 
Q 2881 22 2623 -34 
Q 2366 -91 2075 -91 
Q 1284 -91 818 406 
Q 353 903 353 1747 
Q 353 2603 823 3093 
Q 1294 3584 2113 3584 
Q 2378 3584 2631 3529 
Q 2884 3475 3122 3366 
z
" transform="scale(0.015625)"/>
       <path id="DejaVuSans-29" d="M 513 4856 
L 1013 4856 
Q 1481 4119 1714 3412 
Q 1947 2706 1947 2009 
Q 1947 1309 1714 600 
Q 1481 -109 1013 -844 
L 513 -844 
Q 928 -128 1133 580 
Q 1338 1288 1338 2009 
Q 1338 2731 1133 3434 
Q 928 4138 513 4856 
z
" transform="scale(0.015625)"/>
      </defs>
      <use xlink:href="#DejaVuSans-4d"/>
      <use xlink:href="#DejaVuSans-65" x="86.279297"/>
      <use xlink:href="#DejaVuSans-73" x="147.802734"/>
      <use xlink:href="#DejaVuSans-73" x="199.902344"/>
      <use xlink:href="#DejaVuSans-61" x="252.001953"/>
      <use xlink:href="#DejaVuSans-67" x="313.28125"/>
      <use xlink:href="#DejaVuSans-65" x="376.757812"/>
      <use xlink:href="#DejaVuSans-20" x="438.28125"/>
      <use xlink:href="#DejaVuSans-73" x="470.068359"/>
      <use xlink:href="#DejaVuSans-69" x="522.167969"/>
      <use xlink:href="#DejaVuSans-7a" x="549.951172"/>
      <use xlink:href="#DejaVuSans-65" x="602.441406"/>
      <use xlink:href="#DejaVuSans-20" x="663.964844"/>
      <use xlink:href="#DejaVuSans-69" x="695.751953"/>
      <use xlink:href="#DejaVuSans-6e" x="723.535156"/>
      <use xlink:href="#DejaVuSans-20" x="786.914062"/>
      <use xlink:href="#DejaVuSans-62" x="818.701172"/>
      <use xlink:href="#DejaVuSans-79" x="882.177734"/>
      <use xlink:href="#DejaVuSans-74" x="941.357422"/>
      <use xlink:href="#DejaVuSans-65" x="980.566406"/>
      <use xlink:href="#DejaVuSans-73" x="1042.089844"/>
      <use xlink:href="#DejaVuSans-20" x="1094.189453"/>
      <use xlink:href="#DejaVuSans-28" x="1125.976562"/>
      <use xlink:href="#DejaVuSans-6c" x="1164.990234"/>
      <use xlink:href="#DejaVuSans-6f" x="1192.773438"/>
      <use xlink:href="#DejaVuSans-67" x="1253.955078"/>
      <use xlink:href="#DejaVuSans-73" x="1317.431641"/>
      <use xlink:href="#DejaVuSans-63" x="1369.53125"/>
      <use xlink:href="#DejaVuSans-61" x="1424.511719"/>
      <use xlink:href="#DejaVuSans-6c" x="1485.791016"/>
      <use xlink:href="#DejaVuSans-65" x="1513.574219"/>
      <use xlink:href="#DejaVuSans-29" x="1575.097656"/>
     </g>
    </g>
   </g>
   <g id="matplotlib.axis_2">
    <g id="ytick_1">
     <g id="line2d_8">
      <path d="M 80.488108 214.599911 
L 563.04 214.599911 
" clip-path="url(#p1093ef3075)" style="fill: none; stroke: #cccccc; stroke-linecap: round"/>
     </g>
     <g id="text_9">
      <!-- $\mathdefault{10^{-1}}$ -->
      <g style="fill: #262626" transform="translate(33.388108 220.678661) scale(0.16 -0.16)">
       <defs>
        <path id="DejaVuSans-2212" d="M 678 2272 
L 4684 2272 
L 4684 1741 
L 678 1741 
L 678 2272 
z
" transform="scale(0.015625)"/>
       </defs>
       <use xlink:href="#DejaVuSans-31" transform="translate(0 0.684375)"/>
       <use xlink:href="#DejaVuSans-30" transform="translate(63.623047 0.684375)"/>
       <use xlink:href="#DejaVuSans-2212" transform="translate(128.203125 38.965625) scale(0.7)"/>
       <use xlink:href="#DejaVuSans-31" transform="translate(186.855469 38.965625) scale(0.7)"/>
      </g>
     </g>
    </g>
    <g id="ytick_2">
     <g id="line2d_9">
      <path d="M 80.488108 182.363705 
L 563.04 182.363705 
" clip-path="url(#p1093ef3075)" style="fill: none; stroke: #cccccc; stroke-linecap: round"/>
     </g>
     <g id="text_10">
      <!-- $\mathdefault{10^{0}}$ -->
      <g style="fill: #262626" transform="translate(42.828108 188.442455) scale(0.16 -0.16)">
       <use xlink:href="#DejaVuSans-31" transform="translate(0 0.765625)"/>
       <use xlink:href="#DejaVuSans-30" transform="translate(63.623047 0.765625)"/>
       <use xlink:href="#DejaVuSans-30" transform="translate(128.203125 39.046875) scale(0.7)"/>
      </g>
     </g>
    </g>
    <g id="ytick_3">
     <g id="line2d_10">
      <path d="M 80.488108 150.127499 
L 563.04 150.127499 
" clip-path="url(#p1093ef3075)" style="fill: none; stroke: #cccccc; stroke-linecap: round"/>
     </g>
     <g id="text_11">
      <!-- $\mathdefault{10^{1}}$ -->
      <g style="fill: #262626" transform="translate(42.828108 156.206249) scale(0.16 -0.16)">
       <use xlink:href="#DejaVuSans-31" transform="translate(0 0.684375)"/>
       <use xlink:href="#DejaVuSans-30" transform="translate(63.623047 0.684375)"/>
       <use xlink:href="#DejaVuSans-31" transform="translate(128.203125 38.965625) scale(0.7)"/>
      </g>
     </g>
    </g>
    <g id="ytick_4">
     <g id="line2d_11">
      <path d="M 80.488108 117.891293 
L 563.04 117.891293 
" clip-path="url(#p1093ef3075)" style="fill: none; stroke: #cccccc; stroke-linecap: round"/>
     </g>
     <g id="text_12">
      <!-- $\mathdefault{10^{2}}$ -->
      <g style="fill: #262626" transform="translate(42.828108 123.970043) scale(0.16 -0.16)">
       <use xlink:href="#DejaVuSans-31" transform="translate(0 0.765625)"/>
       <use xlink:href="#DejaVuSans-30" transform="translate(63.623047 0.765625)"/>
       <use xlink:href="#DejaVuSans-32" transform="translate(128.203125 39.046875) scale(0.7)"/>
      </g>
     </g>
    </g>
    <g id="ytick_5">
     <g id="line2d_12">
      <path d="M 80.488108 85.655087 
L 563.04 85.655087 
" clip-path="url(#p1093ef3075)" style="fill: none; stroke: #cccccc; stroke-linecap: round"/>
     </g>
     <g id="text_13">
      <!-- $\mathdefault{10^{3}}$ -->
      <g style="fill: #262626" transform="translate(42.828108 91.733837) scale(0.16 -0.16)">
       <use xlink:href="#DejaVuSans-31" transform="translate(0 0.765625)"/>
       <use xlink:href="#DejaVuSans-30" transform="translate(63.623047 0.765625)"/>
       <use xlink:href="#DejaVuSans-33" transform="translate(128.203125 39.046875) scale(0.7)"/>
      </g>
     </g>
    </g>
    <g id="ytick_6">
     <g id="line2d_13">
      <path d="M 80.488108 53.418881 
L 563.04 53.418881 
" clip-path="url(#p1093ef3075)" style="fill: none; stroke: #cccccc; stroke-linecap: round"/>
     </g>
     <g id="text_14">
      <!-- $\mathdefault{10^{4}}$ -->
      <g style="fill: #262626" transform="translate(42.828108 59.497631) scale(0.16 -0.16)">
       <use xlink:href="#DejaVuSans-31" transform="translate(0 0.684375)"/>
       <use xlink:href="#DejaVuSans-30" transform="translate(63.623047 0.684375)"/>
       <use xlink:href="#DejaVuSans-34" transform="translate(128.203125 38.965625) scale(0.7)"/>
      </g>
     </g>
    </g>
    <g id="ytick_7"/>
    <g id="ytick_8"/>
    <g id="ytick_9"/>
    <g id="ytick_10"/>
    <g id="ytick_11"/>
    <g id="ytick_12"/>
    <g id="ytick_13"/>
    <g id="ytick_14"/>
    <g id="ytick_15"/>
    <g id="ytick_16"/>
    <g id="ytick_17"/>
    <g id="ytick_18"/>
    <g id="ytick_19"/>
    <g id="ytick_20"/>
    <g id="ytick_21"/>
    <g id="ytick_22"/>
    <g id="ytick_23"/>
    <g id="ytick_24"/>
    <g id="ytick_25"/>
    <g id="ytick_26"/>
    <g id="ytick_27"/>
    <g id="ytick_28"/>
    <g id="ytick_29"/>
    <g id="ytick_30"/>
    <g id="ytick_31"/>
    <g id="ytick_32"/>
    <g id="ytick_33"/>
    <g id="ytick_34"/>
    <g id="ytick_35"/>
    <g id="ytick_36"/>
    <g id="ytick_37"/>
    <g id="ytick_38"/>
    <g id="ytick_39"/>
    <g id="ytick_40"/>
    <g id="ytick_41"/>
    <g id="ytick_42"/>
    <g id="ytick_43"/>
    <g id="ytick_44"/>
    <g id="ytick_45"/>
    <g id="ytick_46"/>
    <g id="ytick_47"/>
    <g id="ytick_48"/>
    <g id="ytick_49"/>
    <g id="ytick_50"/>
    <g id="ytick_51"/>
    <g id="ytick_52"/>
    <g id="ytick_53"/>
    <g id="ytick_54"/>
    <g id="text_15">
     <!-- bandwidth mb/s (logscale) -->
     <g style="fill: #262626" transform="translate(26.060608 235.42925) rotate(-90) scale(0.16 -0.16)">
      <defs>
       <path id="DejaVuSans-64" d="M 2906 2969 
L 2906 4863 
L 3481 4863 
L 3481 0 
L 2906 0 
L 2906 525 
Q 2725 213 2448 61 
Q 2172 -91 1784 -91 
Q 1150 -91 751 415 
Q 353 922 353 1747 
Q 353 2572 751 3078 
Q 1150 3584 1784 3584 
Q 2172 3584 2448 3432 
Q 2725 3281 2906 2969 
z
M 947 1747 
Q 947 1113 1208 752 
Q 1469 391 1925 391 
Q 2381 391 2643 752 
Q 2906 1113 2906 1747 
Q 2906 2381 2643 2742 
Q 2381 3103 1925 3103 
Q 1469 3103 1208 2742 
Q 947 2381 947 1747 
z
" transform="scale(0.015625)"/>
       <path id="DejaVuSans-77" d="M 269 3500 
L 844 3500 
L 1563 769 
L 2278 3500 
L 2956 3500 
L 3675 769 
L 4391 3500 
L 4966 3500 
L 4050 0 
L 3372 0 
L 2619 2869 
L 1863 0 
L 1184 0 
L 269 3500 
z
" transform="scale(0.015625)"/>
       <path id="DejaVuSans-68" d="M 3513 2113 
L 3513 0 
L 2938 0 
L 2938 2094 
Q 2938 2591 2744 2837 
Q 2550 3084 2163 3084 
Q 1697 3084 1428 2787 
Q 1159 2491 1159 1978 
L 1159 0 
L 581 0 
L 581 4863 
L 1159 4863 
L 1159 2956 
Q 1366 3272 1645 3428 
Q 1925 3584 2291 3584 
Q 2894 3584 3203 3211 
Q 3513 2838 3513 2113 
z
" transform="scale(0.015625)"/>
       <path id="DejaVuSans-6d" d="M 3328 2828 
Q 3544 3216 3844 3400 
Q 4144 3584 4550 3584 
Q 5097 3584 5394 3201 
Q 5691 2819 5691 2113 
L 5691 0 
L 5113 0 
L 5113 2094 
Q 5113 2597 4934 2840 
Q 4756 3084 4391 3084 
Q 3944 3084 3684 2787 
Q 3425 2491 3425 1978 
L 3425 0 
L 2847 0 
L 2847 2094 
Q 2847 2600 2669 2842 
Q 2491 3084 2119 3084 
Q 1678 3084 1418 2786 
Q 1159 2488 1159 1978 
L 1159 0 
L 581 0 
L 581 3500 
L 1159 3500 
L 1159 2956 
Q 1356 3278 1631 3431 
Q 1906 3584 2284 3584 
Q 2666 3584 2933 3390 
Q 3200 3197 3328 2828 
z
" transform="scale(0.015625)"/>
       <path id="DejaVuSans-2f" d="M 1625 4666 
L 2156 4666 
L 531 -594 
L 0 -594 
L 1625 4666 
z
" transform="scale(0.015625)"/>
      </defs>
      <use xlink:href="#DejaVuSans-62"/>
      <use xlink:href="#DejaVuSans-61" x="63.476562"/>
      <use xlink:href="#DejaVuSans-6e" x="124.755859"/>
      <use xlink:href="#DejaVuSans-64" x="188.134766"/>
      <use xlink:href="#DejaVuSans-77" x="251.611328"/>
      <use xlink:href="#DejaVuSans-69" x="333.398438"/>
      <use xlink:href="#DejaVuSans-64" x="361.181641"/>
      <use xlink:href="#DejaVuSans-74" x="424.658203"/>
      <use xlink:href="#DejaVuSans-68" x="463.867188"/>
      <use xlink:href="#DejaVuSans-20" x="527.246094"/>
      <use xlink:href="#DejaVuSans-6d" x="559.033203"/>
      <use xlink:href="#DejaVuSans-62" x="656.445312"/>
      <use xlink:href="#DejaVuSans-2f" x="719.921875"/>
      <use xlink:href="#DejaVuSans-73" x="753.613281"/>
      <use xlink:href="#DejaVuSans-20" x="805.712891"/>
      <use xlink:href="#DejaVuSans-28" x="837.5"/>
      <use xlink:href="#DejaVuSans-6c" x="876.513672"/>
      <use xlink:href="#DejaVuSans-6f" x="904.296875"/>
      <use xlink:href="#DejaVuSans-67" x="965.478516"/>
      <use xlink:href="#DejaVuSans-73" x="1028.955078"/>
      <use xlink:href="#DejaVuSans-63" x="1081.054688"/>
      <use xlink:href="#DejaVuSans-61" x="1136.035156"/>
      <use xlink:href="#DejaVuSans-6c" x="1197.314453"/>
      <use xlink:href="#DejaVuSans-65" x="1225.097656"/>
      <use xlink:href="#DejaVuSans-29" x="1286.621094"/>
     </g>
    </g>
   </g>
   <g id="PolyCollection_1">
    <defs>
     <path id="m35aa1a1b0a" d="M 102.422285 -73.400089 
L 102.422285 -73.400089 
L 122.362446 -83.474219 
L 142.302606 -93.129504 
L 162.242767 -102.790746 
L 182.182928 -112.580326 
L 202.123089 -122.229477 
L 222.06325 -131.862272 
L 242.003411 -141.11718 
L 261.943571 -150.831359 
L 281.883732 -160.397035 
L 301.823893 -169.887664 
L 321.764054 -179.162468 
L 341.704215 -188.418695 
L 361.644376 -197.131146 
L 381.584536 -205.266971 
L 401.524697 -209.729487 
L 421.464858 -207.568365 
L 441.405019 -212.781814 
L 461.34518 -216.723239 
L 481.285341 -218.917544 
L 501.225501 -218.582885 
L 521.165662 -218.740404 
L 541.105823 -218.671185 
L 541.105823 -218.92368 
L 541.105823 -218.92368 
L 521.165662 -218.972175 
L 501.225501 -218.819513 
L 481.285341 -219.199365 
L 461.34518 -216.939437 
L 441.405019 -212.998646 
L 421.464858 -207.791665 
L 401.524697 -210.074365 
L 381.584536 -205.414821 
L 361.644376 -197.262809 
L 341.704215 -188.530324 
L 321.764054 -179.274645 
L 301.823893 -170.005032 
L 281.883732 -160.514214 
L 261.943571 -150.947585 
L 242.003411 -141.255698 
L 222.06325 -131.971699 
L 202.123089 -122.376988 
L 182.182928 -112.710644 
L 162.242767 -102.918823 
L 142.302606 -93.226895 
L 122.362446 -83.715605 
L 102.422285 -73.400089 
z
" style="stroke: #8c613c; stroke-opacity: 0.2"/>
    </defs>
    <g clip-path="url(#p1093ef3075)">
     <use xlink:href="#m35aa1a1b0a" x="0" y="288" style="fill: #8c613c; fill-opacity: 0.2; stroke: #8c613c; stroke-opacity: 0.2"/>
    </g>
   </g>
   <g id="PolyCollection_2">
    <defs>
     <path id="m919660baba" d="M 102.422285 -71.183523 
L 102.422285 -70.023818 
L 122.362446 -80.165627 
L 142.302606 -89.336167 
L 162.242767 -98.509502 
L 182.182928 -115.733415 
L 202.123089 -136.522435 
L 222.06325 -146.205188 
L 242.003411 -155.543969 
L 261.943571 -164.665185 
L 281.883732 -174.088216 
L 301.823893 -182.625096 
L 321.764054 -189.713836 
L 341.704215 -197.652927 
L 361.644376 -203.906625 
L 381.584536 -207.835005 
L 401.524697 -210.156671 
L 421.464858 -208.949575 
L 441.405019 -210.548771 
L 461.34518 -205.909469 
L 481.285341 -202.748268 
L 501.225501 -201.737596 
L 521.165662 -201.27209 
L 541.105823 -201.064814 
L 541.105823 -201.443241 
L 541.105823 -201.443241 
L 521.165662 -201.884416 
L 501.225501 -202.659784 
L 481.285341 -204.943633 
L 461.34518 -207.444015 
L 441.405019 -212.358974 
L 421.464858 -209.577537 
L 401.524697 -210.708166 
L 381.584536 -208.389613 
L 361.644376 -204.342368 
L 341.704215 -198.048526 
L 321.764054 -190.239923 
L 301.823893 -182.959173 
L 281.883732 -174.500873 
L 261.943571 -165.135886 
L 242.003411 -155.853992 
L 222.06325 -146.639392 
L 202.123089 -136.71385 
L 182.182928 -120.244628 
L 162.242767 -102.106779 
L 142.302606 -90.838779 
L 122.362446 -81.405101 
L 102.422285 -71.183523 
z
" style="stroke: #6c3baa; stroke-opacity: 0.2"/>
    </defs>
    <g clip-path="url(#p1093ef3075)">
     <use xlink:href="#m919660baba" x="0" y="288" style="fill: #6c3baa; fill-opacity: 0.2; stroke: #6c3baa; stroke-opacity: 0.2"/>
    </g>
   </g>
   <g id="PolyCollection_3">
    <defs>
     <path id="m49465d6dba" d="M 102.422285 -121.56057 
L 102.422285 -121.300286 
L 122.362446 -131.196595 
L 142.302606 -140.764087 
L 162.242767 -150.492203 
L 182.182928 -158.16822 
L 202.123089 -167.893851 
L 222.06325 -177.400024 
L 242.003411 -187.035475 
L 261.943571 -196.240234 
L 281.883732 -205.540812 
L 301.823893 -214.634345 
L 321.764054 -221.821959 
L 341.704215 -228.223589 
L 361.644376 -230.142705 
L 381.584536 -228.677146 
L 401.524697 -233.422455 
L 421.464858 -231.001043 
L 441.405019 -235.485369 
L 461.34518 -239.041429 
L 481.285341 -239.494235 
L 501.225501 -240.002085 
L 521.165662 -240.22441 
L 541.105823 -240.215227 
L 541.105823 -241.096145 
L 541.105823 -241.096145 
L 521.165662 -241.084225 
L 501.225501 -240.812028 
L 481.285341 -240.225834 
L 461.34518 -239.663543 
L 441.405019 -235.801806 
L 421.464858 -231.222496 
L 401.524697 -233.680538 
L 381.584536 -228.825139 
L 361.644376 -230.412901 
L 341.704215 -228.521192 
L 321.764054 -222.211349 
L 301.823893 -214.926304 
L 281.883732 -205.829198 
L 261.943571 -196.543845 
L 242.003411 -187.260965 
L 222.06325 -177.759346 
L 202.123089 -168.179241 
L 182.182928 -158.452854 
L 162.242767 -150.723488 
L 142.302606 -141.028314 
L 122.362446 -131.350729 
L 102.422285 -121.56057 
z
" style="stroke: #dc7ec0; stroke-opacity: 0.2"/>
    </defs>
    <g clip-path="url(#p1093ef3075)">
     <use xlink:href="#m49465d6dba" x="0" y="288" style="fill: #dc7ec0; fill-opacity: 0.2; stroke: #dc7ec0; stroke-opacity: 0.2"/>
    </g>
   </g>
   <g id="PolyCollection_4">
    <defs>
     <path id="me13b7498e4" d="M 102.422285 -102.449643 
L 102.422285 -102.061348 
L 122.362446 -111.78154 
L 142.302606 -121.578779 
L 162.242767 -131.118551 
L 182.182928 -140.852837 
L 202.123089 -150.557826 
L 222.06325 -160.226913 
L 242.003411 -169.901979 
L 261.943571 -179.558161 
L 281.883732 -189.126361 
L 301.823893 -198.67654 
L 321.764054 -208.073345 
L 341.704215 -217.143451 
L 361.644376 -225.532105 
L 381.584536 -229.603063 
L 401.524697 -232.382894 
L 421.464858 -233.888341 
L 441.405019 -234.12669 
L 461.34518 -235.034755 
L 481.285341 -235.484651 
L 501.225501 -235.592376 
L 521.165662 -235.556897 
L 541.105823 -235.605814 
L 541.105823 -235.668686 
L 541.105823 -235.668686 
L 521.165662 -235.640763 
L 501.225501 -235.663923 
L 481.285341 -235.575588 
L 461.34518 -235.112402 
L 441.405019 -234.276311 
L 421.464858 -233.986696 
L 401.524697 -232.520605 
L 381.584536 -229.841804 
L 361.644376 -225.900644 
L 341.704215 -217.542479 
L 321.764054 -208.434389 
L 301.823893 -199.063084 
L 281.883732 -189.524649 
L 261.943571 -179.932254 
L 242.003411 -170.282801 
L 222.06325 -160.605706 
L 202.123089 -150.948179 
L 182.182928 -141.210124 
L 162.242767 -131.502976 
L 142.302606 -121.934508 
L 122.362446 -112.185063 
L 102.422285 -102.449643 
z
" style="stroke: #4878d0; stroke-opacity: 0.2"/>
    </defs>
    <g clip-path="url(#p1093ef3075)">
     <use xlink:href="#me13b7498e4" x="0" y="288" style="fill: #4878d0; fill-opacity: 0.2; stroke: #4878d0; stroke-opacity: 0.2"/>
    </g>
   </g>
   <g id="PolyCollection_5">
    <defs>
     <path id="m652113da05" d="M 102.422285 -103.987956 
L 102.422285 -103.732526 
L 122.362446 -113.399308 
L 142.302606 -123.241931 
L 162.242767 -132.88046 
L 182.182928 -142.566667 
L 202.123089 -152.245685 
L 222.06325 -161.98078 
L 242.003411 -171.654951 
L 261.943571 -181.325212 
L 281.883732 -190.966863 
L 301.823893 -200.491646 
L 321.764054 -209.947156 
L 341.704215 -218.828513 
L 361.644376 -226.844898 
L 381.584536 -230.808115 
L 401.524697 -233.883929 
L 421.464858 -235.565901 
L 441.405019 -234.165345 
L 461.34518 -235.614051 
L 481.285341 -236.346552 
L 501.225501 -236.858013 
L 521.165662 -237.126395 
L 541.105823 -237.163872 
L 541.105823 -237.181527 
L 541.105823 -237.181527 
L 521.165662 -237.151156 
L 501.225501 -236.934776 
L 481.285341 -236.463645 
L 461.34518 -235.788377 
L 441.405019 -234.976895 
L 421.464858 -235.683354 
L 401.524697 -234.057492 
L 381.584536 -231.077802 
L 361.644376 -227.167484 
L 341.704215 -219.120339 
L 321.764054 -210.227436 
L 301.823893 -200.751339 
L 281.883732 -191.197434 
L 261.943571 -181.621186 
L 242.003411 -171.944154 
L 222.06325 -162.227191 
L 202.123089 -152.527436 
L 182.182928 -142.844621 
L 162.242767 -133.165439 
L 142.302606 -123.540214 
L 122.362446 -113.675137 
L 102.422285 -103.987956 
z
" style="stroke: #ee854a; stroke-opacity: 0.2"/>
    </defs>
    <g clip-path="url(#p1093ef3075)">
     <use xlink:href="#m652113da05" x="0" y="288" style="fill: #ee854a; fill-opacity: 0.2; stroke: #ee854a; stroke-opacity: 0.2"/>
    </g>
   </g>
   <g id="PolyCollection_6">
    <defs>
     <path id="m1039c02c7e" d="M 102.422285 -125.056935 
L 102.422285 -124.923876 
L 122.362446 -134.529592 
L 142.302606 -144.374171 
L 162.242767 -154.037597 
L 182.182928 -163.802656 
L 202.123089 -173.383182 
L 222.06325 -182.693983 
L 242.003411 -192.334264 
L 261.943571 -201.394505 
L 281.883732 -210.148197 
L 301.823893 -219.243035 
L 321.764054 -227.424263 
L 341.704215 -233.25192 
L 361.644376 -238.900361 
L 381.584536 -243.522634 
L 401.524697 -245.453508 
L 421.464858 -246.416348 
L 441.405019 -246.82059 
L 461.34518 -247.032501 
L 481.285341 -247.129811 
L 501.225501 -247.175356 
L 521.165662 -247.21183 
L 541.105823 -247.208896 
L 541.105823 -247.220182 
L 541.105823 -247.220182 
L 521.165662 -247.213036 
L 501.225501 -247.189422 
L 481.285341 -247.141894 
L 461.34518 -247.040009 
L 441.405019 -246.838673 
L 421.464858 -246.445926 
L 401.524697 -245.503622 
L 381.584536 -243.584857 
L 361.644376 -238.967728 
L 341.704215 -233.322584 
L 321.764054 -227.496373 
L 301.823893 -219.331671 
L 281.883732 -210.275915 
L 261.943571 -201.489383 
L 242.003411 -192.391496 
L 222.06325 -182.776811 
L 202.123089 -173.513392 
L 182.182928 -163.939836 
L 162.242767 -154.172556 
L 142.302606 -144.512586 
L 122.362446 -134.682404 
L 102.422285 -125.056935 
z
" style="stroke: #d65f5f; stroke-opacity: 0.2"/>
    </defs>
    <g clip-path="url(#p1093ef3075)">
     <use xlink:href="#m1039c02c7e" x="0" y="288" style="fill: #d65f5f; fill-opacity: 0.2; stroke: #d65f5f; stroke-opacity: 0.2"/>
    </g>
   </g>
   <g id="PolyCollection_7">
    <defs>
     <path id="maadf4cc68e" d="M 102.422285 -116.749672 
L 102.422285 -110.199077 
L 122.362446 -120.307493 
L 142.302606 -129.703806 
L 162.242767 -139.866196 
L 182.182928 -148.72088 
L 202.123089 -158.652662 
L 222.06325 -167.816769 
L 242.003411 -177.131762 
L 261.943571 -185.836495 
L 281.883732 -194.697766 
L 301.823893 -203.205408 
L 321.764054 -211.83735 
L 341.704215 -216.767361 
L 361.644376 -220.870643 
L 381.584536 -222.549268 
L 401.524697 -226.43059 
L 421.464858 -230.98088 
L 441.405019 -234.815355 
L 461.34518 -235.873925 
L 481.285341 -235.808842 
L 501.225501 -236.4256 
L 521.165662 -235.841316 
L 541.105823 -235.747296 
L 541.105823 -239.576795 
L 541.105823 -239.576795 
L 521.165662 -240.160939 
L 501.225501 -240.747187 
L 481.285341 -240.553868 
L 461.34518 -240.331106 
L 441.405019 -239.811703 
L 421.464858 -237.418751 
L 401.524697 -234.882914 
L 381.584536 -231.894115 
L 361.644376 -228.970952 
L 341.704215 -224.007442 
L 321.764054 -218.887783 
L 301.823893 -210.222106 
L 281.883732 -201.584634 
L 261.943571 -192.673184 
L 242.003411 -184.001475 
L 222.06325 -174.05013 
L 202.123089 -165.270394 
L 182.182928 -155.508537 
L 162.242767 -146.438818 
L 142.302606 -136.78012 
L 122.362446 -126.969263 
L 102.422285 -116.749672 
z
" style="stroke: #008000; stroke-opacity: 0.2"/>
    </defs>
    <g clip-path="url(#p1093ef3075)">
     <use xlink:href="#maadf4cc68e" x="0" y="288" style="fill: #008000; fill-opacity: 0.2; stroke: #008000; stroke-opacity: 0.2"/>
    </g>
   </g>
   <g id="line2d_14">
    <path d="M 102.422285 214.599911 
L 122.362446 204.404568 
L 142.302606 194.821716 
L 162.242767 185.148119 
L 182.182928 175.355879 
L 202.123089 165.695832 
L 222.06325 156.084046 
L 242.003411 146.812793 
L 261.943571 137.109714 
L 281.883732 127.546743 
L 301.823893 118.054238 
L 321.764054 108.778099 
L 341.704215 99.525563 
L 361.644376 90.801746 
L 381.584536 82.657259 
L 401.524697 78.101776 
L 421.464858 80.322978 
L 441.405019 75.111426 
L 461.34518 71.159458 
L 481.285341 68.923636 
L 501.225501 69.29689 
L 521.165662 69.137389 
L 541.105823 69.194254 
" clip-path="url(#p1093ef3075)" style="fill: none; stroke: #8c613c; stroke-width: 1.5; stroke-linecap: round"/>
   </g>
   <g id="line2d_15">
    <path d="M 102.422285 217.414859 
L 122.362446 207.23006 
L 142.302606 197.930518 
L 162.242767 187.836706 
L 182.182928 169.826633 
L 202.123089 151.386446 
L 222.06325 141.567427 
L 242.003411 132.293797 
L 261.943571 123.116728 
L 281.883732 113.693124 
L 301.823893 105.213279 
L 321.764054 98.014653 
L 341.704215 90.149531 
L 361.644376 83.894887 
L 381.584536 79.918452 
L 401.524697 77.559112 
L 421.464858 78.706974 
L 441.405019 76.52446 
L 461.34518 81.380107 
L 481.285341 84.245872 
L 501.225501 85.826042 
L 521.165662 86.439746 
L 541.105823 86.751934 
" clip-path="url(#p1093ef3075)" style="fill: none; stroke: #6c3baa; stroke-width: 1.5; stroke-linecap: round"/>
   </g>
   <g id="line2d_16">
    <path d="M 102.422285 166.549253 
L 122.362446 156.720679 
L 142.302606 147.090076 
L 162.242767 137.385326 
L 182.182928 129.677214 
L 202.123089 119.949822 
L 222.06325 110.410392 
L 242.003411 100.840248 
L 261.943571 91.590941 
L 281.883732 82.303102 
L 301.823893 73.21142 
L 321.764054 65.953614 
L 341.704215 59.620454 
L 361.644376 57.708227 
L 381.584536 59.238768 
L 401.524697 54.420054 
L 421.464858 56.881366 
L 441.405019 52.349959 
L 461.34518 48.641775 
L 481.285341 48.116625 
L 501.225501 47.583318 
L 521.165662 47.325614 
L 541.105823 47.319495 
" clip-path="url(#p1093ef3075)" style="fill: none; stroke: #dc7ec0; stroke-width: 1.5; stroke-linecap: round"/>
   </g>
   <g id="line2d_17">
    <path d="M 102.422285 185.752709 
L 122.362446 176.023189 
L 142.302606 166.246199 
L 162.242767 156.689964 
L 182.182928 146.981106 
L 202.123089 137.25031 
L 222.06325 127.585662 
L 242.003411 117.910907 
L 261.943571 108.264391 
L 281.883732 98.687269 
L 301.823893 89.138209 
L 321.764054 79.760077 
L 341.704215 70.665964 
L 361.644376 62.291811 
L 381.584536 58.277606 
L 401.524697 55.549608 
L 421.464858 54.064221 
L 441.405019 53.803125 
L 461.34518 52.924087 
L 481.285341 52.467475 
L 501.225501 52.367866 
L 521.165662 52.399503 
L 541.105823 52.361866 
" clip-path="url(#p1093ef3075)" style="fill: none; stroke: #4878d0; stroke-width: 1.5; stroke-linecap: round"/>
   </g>
   <g id="line2d_18">
    <path d="M 102.422285 184.153373 
L 122.362446 174.466364 
L 142.302606 164.615168 
L 162.242767 154.986598 
L 182.182928 145.295273 
L 202.123089 135.611226 
L 222.06325 125.901844 
L 242.003411 116.20088 
L 261.943571 106.532355 
L 281.883732 96.925531 
L 301.823893 87.385919 
L 321.764054 77.912804 
L 341.704215 69.037501 
L 361.644376 61.002878 
L 381.584536 57.054758 
L 401.524697 54.029331 
L 421.464858 52.372571 
L 441.405019 53.31753 
L 461.34518 52.293352 
L 481.285341 51.59094 
L 501.225501 51.100683 
L 521.165662 50.861093 
L 541.105823 50.827699 
" clip-path="url(#p1093ef3075)" style="fill: none; stroke: #ee854a; stroke-width: 1.5; stroke-linecap: round"/>
   </g>
   <g id="line2d_19">
    <path d="M 102.422285 163.008174 
L 122.362446 153.392215 
L 142.302606 143.554635 
L 162.242767 133.895117 
L 182.182928 124.127446 
L 202.123089 114.548067 
L 222.06325 105.260065 
L 242.003411 95.637109 
L 261.943571 86.558646 
L 281.883732 77.786882 
L 301.823893 68.710148 
L 321.764054 60.541064 
L 341.704215 54.707742 
L 361.644376 49.064974 
L 381.584536 44.447804 
L 401.524697 42.519874 
L 421.464858 41.567658 
L 441.405019 41.169738 
L 461.34518 40.963595 
L 481.285341 40.863091 
L 501.225501 40.815536 
L 521.165662 40.787475 
L 541.105823 40.784836 
" clip-path="url(#p1093ef3075)" style="fill: none; stroke: #d65f5f; stroke-width: 1.5; stroke-linecap: round"/>
   </g>
   <g id="line2d_20">
    <path d="M 102.422285 174.168061 
L 122.362446 164.018688 
L 142.302606 154.274895 
L 162.242767 144.634516 
L 182.182928 135.452576 
L 202.123089 125.720232 
L 222.06325 116.64564 
L 242.003411 106.920777 
L 261.943571 98.407381 
L 281.883732 89.373073 
L 301.823893 80.720936 
L 321.764054 72.19864 
L 341.704215 67.12491 
L 361.644376 62.415615 
L 381.584536 60.001862 
L 401.524697 56.67264 
L 421.464858 53.600535 
L 441.405019 50.548713 
L 461.34518 49.75232 
L 481.285341 49.635211 
L 501.225501 49.268924 
L 521.165662 49.878643 
L 541.105823 50.210987 
" clip-path="url(#p1093ef3075)" style="fill: none; stroke: #008000; stroke-width: 1.5; stroke-linecap: round"/>
   </g>
   <g id="line2d_21"/>
   <g id="line2d_22"/>
   <g id="line2d_23"/>
   <g id="line2d_24"/>
   <g id="line2d_25"/>
   <g id="line2d_26"/>
   <g id="line2d_27"/>
   <g id="patch_3">
    <path d="M 80.488108 226.836 
L 80.488108 31.92 
" style="fill: none; stroke: #cccccc; stroke-width: 1.25; stroke-linejoin: miter; stroke-linecap: square"/>
   </g>
   <g id="patch_4">
    <path d="M 563.04 226.836 
L 563.04 31.92 
" style="fill: none; stroke: #cccccc; stroke-width: 1.25; stroke-linejoin: miter; stroke-linecap: square"/>
   </g>
   <g id="patch_5">
    <path d="M 80.488108 226.836 
L 563.04 226.836 
" style="fill: none; stroke: #cccccc; stroke-width: 1.25; stroke-linejoin: miter; stroke-linecap: square"/>
   </g>
   <g id="patch_6">
    <path d="M 80.488108 31.92 
L 563.04 31.92 
" style="fill: none; stroke: #cccccc; stroke-width: 1.25; stroke-linejoin: miter; stroke-linecap: square"/>
   </g>
   <g id="text_16">
    <!-- osu_bw CPU 128 Nodes -->
    <g style="fill: #262626" transform="translate(227.799054 25.92) scale(0.16 -0.16)">
     <defs>
      <path id="DejaVuSans-75" d="M 544 1381 
L 544 3500 
L 1119 3500 
L 1119 1403 
Q 1119 906 1312 657 
Q 1506 409 1894 409 
Q 2359 409 2629 706 
Q 2900 1003 2900 1516 
L 2900 3500 
L 3475 3500 
L 3475 0 
L 2900 0 
L 2900 538 
Q 2691 219 2414 64 
Q 2138 -91 1772 -91 
Q 1169 -91 856 284 
Q 544 659 544 1381 
z
M 1991 3584 
L 1991 3584 
z
" transform="scale(0.015625)"/>
      <path id="DejaVuSans-5f" d="M 3263 -1063 
L 3263 -1509 
L -63 -1509 
L -63 -1063 
L 3263 -1063 
z
" transform="scale(0.015625)"/>
      <path id="DejaVuSans-43" d="M 4122 4306 
L 4122 3641 
Q 3803 3938 3442 4084 
Q 3081 4231 2675 4231 
Q 1875 4231 1450 3742 
Q 1025 3253 1025 2328 
Q 1025 1406 1450 917 
Q 1875 428 2675 428 
Q 3081 428 3442 575 
Q 3803 722 4122 1019 
L 4122 359 
Q 3791 134 3420 21 
Q 3050 -91 2638 -91 
Q 1578 -91 968 557 
Q 359 1206 359 2328 
Q 359 3453 968 4101 
Q 1578 4750 2638 4750 
Q 3056 4750 3426 4639 
Q 3797 4528 4122 4306 
z
" transform="scale(0.015625)"/>
      <path id="DejaVuSans-50" d="M 1259 4147 
L 1259 2394 
L 2053 2394 
Q 2494 2394 2734 2622 
Q 2975 2850 2975 3272 
Q 2975 3691 2734 3919 
Q 2494 4147 2053 4147 
L 1259 4147 
z
M 628 4666 
L 2053 4666 
Q 2838 4666 3239 4311 
Q 3641 3956 3641 3272 
Q 3641 2581 3239 2228 
Q 2838 1875 2053 1875 
L 1259 1875 
L 1259 0 
L 628 0 
L 628 4666 
z
" transform="scale(0.015625)"/>
      <path id="DejaVuSans-55" d="M 556 4666 
L 1191 4666 
L 1191 1831 
Q 1191 1081 1462 751 
Q 1734 422 2344 422 
Q 2950 422 3222 751 
Q 3494 1081 3494 1831 
L 3494 4666 
L 4128 4666 
L 4128 1753 
Q 4128 841 3676 375 
Q 3225 -91 2344 -91 
Q 1459 -91 1007 375 
Q 556 841 556 1753 
L 556 4666 
z
" transform="scale(0.015625)"/>
      <path id="DejaVuSans-38" d="M 2034 2216 
Q 1584 2216 1326 1975 
Q 1069 1734 1069 1313 
Q 1069 891 1326 650 
Q 1584 409 2034 409 
Q 2484 409 2743 651 
Q 3003 894 3003 1313 
Q 3003 1734 2745 1975 
Q 2488 2216 2034 2216 
z
M 1403 2484 
Q 997 2584 770 2862 
Q 544 3141 544 3541 
Q 544 4100 942 4425 
Q 1341 4750 2034 4750 
Q 2731 4750 3128 4425 
Q 3525 4100 3525 3541 
Q 3525 3141 3298 2862 
Q 3072 2584 2669 2484 
Q 3125 2378 3379 2068 
Q 3634 1759 3634 1313 
Q 3634 634 3220 271 
Q 2806 -91 2034 -91 
Q 1263 -91 848 271 
Q 434 634 434 1313 
Q 434 1759 690 2068 
Q 947 2378 1403 2484 
z
M 1172 3481 
Q 1172 3119 1398 2916 
Q 1625 2713 2034 2713 
Q 2441 2713 2670 2916 
Q 2900 3119 2900 3481 
Q 2900 3844 2670 4047 
Q 2441 4250 2034 4250 
Q 1625 4250 1398 4047 
Q 1172 3844 1172 3481 
z
" transform="scale(0.015625)"/>
      <path id="DejaVuSans-4e" d="M 628 4666 
L 1478 4666 
L 3547 763 
L 3547 4666 
L 4159 4666 
L 4159 0 
L 3309 0 
L 1241 3903 
L 1241 0 
L 628 0 
L 628 4666 
z
" transform="scale(0.015625)"/>
     </defs>
     <use xlink:href="#DejaVuSans-6f"/>
     <use xlink:href="#DejaVuSans-73" x="61.181641"/>
     <use xlink:href="#DejaVuSans-75" x="113.28125"/>
     <use xlink:href="#DejaVuSans-5f" x="176.660156"/>
     <use xlink:href="#DejaVuSans-62" x="226.660156"/>
     <use xlink:href="#DejaVuSans-77" x="290.136719"/>
     <use xlink:href="#DejaVuSans-20" x="371.923828"/>
     <use xlink:href="#DejaVuSans-43" x="403.710938"/>
     <use xlink:href="#DejaVuSans-50" x="473.535156"/>
     <use xlink:href="#DejaVuSans-55" x="533.837891"/>
     <use xlink:href="#DejaVuSans-20" x="607.03125"/>
     <use xlink:href="#DejaVuSans-31" x="638.818359"/>
     <use xlink:href="#DejaVuSans-32" x="702.441406"/>
     <use xlink:href="#DejaVuSans-38" x="766.064453"/>
     <use xlink:href="#DejaVuSans-20" x="829.6875"/>
     <use xlink:href="#DejaVuSans-4e" x="861.474609"/>
     <use xlink:href="#DejaVuSans-6f" x="936.279297"/>
     <use xlink:href="#DejaVuSans-64" x="997.460938"/>
     <use xlink:href="#DejaVuSans-65" x="1060.9375"/>
     <use xlink:href="#DejaVuSans-73" x="1122.460938"/>
    </g>
   </g>
   <g id="legend_1">
    <g id="patch_7">
     <path d="M 320.840625 221.336 
L 555.34 221.336 
Q 557.54 221.336 557.54 219.136 
L 557.54 105.072875 
Q 557.54 102.872875 555.34 102.872875 
L 320.840625 102.872875 
Q 318.640625 102.872875 318.640625 105.072875 
L 318.640625 219.136 
Q 318.640625 221.336 320.840625 221.336 
z
" style="fill: #ffffff; opacity: 0.8; stroke: #cccccc; stroke-linejoin: miter"/>
    </g>
    <g id="line2d_28">
     <path d="M 323.040625 111.781156 
L 334.040625 111.781156 
L 345.040625 111.781156 
" style="fill: none; stroke: #8c613c; stroke-width: 1.5; stroke-linecap: round"/>
    </g>
    <g id="text_17">
     <!-- google/gke/cpu/osu_bw -->
     <g style="fill: #262626" transform="translate(353.840625 115.631156) scale(0.11 -0.11)">
      <defs>
       <path id="DejaVuSans-6b" d="M 581 4863 
L 1159 4863 
L 1159 1991 
L 2875 3500 
L 3609 3500 
L 1753 1863 
L 3688 0 
L 2938 0 
L 1159 1709 
L 1159 0 
L 581 0 
L 581 4863 
z
" transform="scale(0.015625)"/>
       <path id="DejaVuSans-70" d="M 1159 525 
L 1159 -1331 
L 581 -1331 
L 581 3500 
L 1159 3500 
L 1159 2969 
Q 1341 3281 1617 3432 
Q 1894 3584 2278 3584 
Q 2916 3584 3314 3078 
Q 3713 2572 3713 1747 
Q 3713 922 3314 415 
Q 2916 -91 2278 -91 
Q 1894 -91 1617 61 
Q 1341 213 1159 525 
z
M 3116 1747 
Q 3116 2381 2855 2742 
Q 2594 3103 2138 3103 
Q 1681 3103 1420 2742 
Q 1159 2381 1159 1747 
Q 1159 1113 1420 752 
Q 1681 391 2138 391 
Q 2594 391 2855 752 
Q 3116 1113 3116 1747 
z
" transform="scale(0.015625)"/>
      </defs>
      <use xlink:href="#DejaVuSans-67"/>
      <use xlink:href="#DejaVuSans-6f" x="63.476562"/>
      <use xlink:href="#DejaVuSans-6f" x="124.658203"/>
      <use xlink:href="#DejaVuSans-67" x="185.839844"/>
      <use xlink:href="#DejaVuSans-6c" x="249.316406"/>
      <use xlink:href="#DejaVuSans-65" x="277.099609"/>
      <use xlink:href="#DejaVuSans-2f" x="338.623047"/>
      <use xlink:href="#DejaVuSans-67" x="372.314453"/>
      <use xlink:href="#DejaVuSans-6b" x="435.791016"/>
      <use xlink:href="#DejaVuSans-65" x="490.076172"/>
      <use xlink:href="#DejaVuSans-2f" x="551.599609"/>
      <use xlink:href="#DejaVuSans-63" x="585.291016"/>
      <use xlink:href="#DejaVuSans-70" x="640.271484"/>
      <use xlink:href="#DejaVuSans-75" x="703.748047"/>
      <use xlink:href="#DejaVuSans-2f" x="767.126953"/>
      <use xlink:href="#DejaVuSans-6f" x="800.818359"/>
      <use xlink:href="#DejaVuSans-73" x="862"/>
      <use xlink:href="#DejaVuSans-75" x="914.099609"/>
      <use xlink:href="#DejaVuSans-5f" x="977.478516"/>
      <use xlink:href="#DejaVuSans-62" x="1027.478516"/>
      <use xlink:href="#DejaVuSans-77" x="1090.955078"/>
     </g>
    </g>
    <g id="line2d_29">
     <path d="M 323.040625 128.233031 
L 334.040625 128.233031 
L 345.040625 128.233031 
" style="fill: none; stroke: #6c3baa; stroke-width: 1.5; stroke-linecap: round"/>
    </g>
    <g id="text_18">
     <!-- google/compute-engine/cpu/osu_bw -->
     <g style="fill: #262626" transform="translate(353.840625 132.083031) scale(0.11 -0.11)">
      <defs>
       <path id="DejaVuSans-2d" d="M 313 2009 
L 1997 2009 
L 1997 1497 
L 313 1497 
L 313 2009 
z
" transform="scale(0.015625)"/>
      </defs>
      <use xlink:href="#DejaVuSans-67"/>
      <use xlink:href="#DejaVuSans-6f" x="63.476562"/>
      <use xlink:href="#DejaVuSans-6f" x="124.658203"/>
      <use xlink:href="#DejaVuSans-67" x="185.839844"/>
      <use xlink:href="#DejaVuSans-6c" x="249.316406"/>
      <use xlink:href="#DejaVuSans-65" x="277.099609"/>
      <use xlink:href="#DejaVuSans-2f" x="338.623047"/>
      <use xlink:href="#DejaVuSans-63" x="372.314453"/>
      <use xlink:href="#DejaVuSans-6f" x="427.294922"/>
      <use xlink:href="#DejaVuSans-6d" x="488.476562"/>
      <use xlink:href="#DejaVuSans-70" x="585.888672"/>
      <use xlink:href="#DejaVuSans-75" x="649.365234"/>
      <use xlink:href="#DejaVuSans-74" x="712.744141"/>
      <use xlink:href="#DejaVuSans-65" x="751.953125"/>
      <use xlink:href="#DejaVuSans-2d" x="813.476562"/>
      <use xlink:href="#DejaVuSans-65" x="849.560547"/>
      <use xlink:href="#DejaVuSans-6e" x="911.083984"/>
      <use xlink:href="#DejaVuSans-67" x="974.462891"/>
      <use xlink:href="#DejaVuSans-69" x="1037.939453"/>
      <use xlink:href="#DejaVuSans-6e" x="1065.722656"/>
      <use xlink:href="#DejaVuSans-65" x="1129.101562"/>
      <use xlink:href="#DejaVuSans-2f" x="1190.625"/>
      <use xlink:href="#DejaVuSans-63" x="1224.316406"/>
      <use xlink:href="#DejaVuSans-70" x="1279.296875"/>
      <use xlink:href="#DejaVuSans-75" x="1342.773438"/>
      <use xlink:href="#DejaVuSans-2f" x="1406.152344"/>
      <use xlink:href="#DejaVuSans-6f" x="1439.84375"/>
      <use xlink:href="#DejaVuSans-73" x="1501.025391"/>
      <use xlink:href="#DejaVuSans-75" x="1553.125"/>
      <use xlink:href="#DejaVuSans-5f" x="1616.503906"/>
      <use xlink:href="#DejaVuSans-62" x="1666.503906"/>
      <use xlink:href="#DejaVuSans-77" x="1729.980469"/>
     </g>
    </g>
    <g id="line2d_30">
     <path d="M 323.040625 144.684906 
L 334.040625 144.684906 
L 345.040625 144.684906 
" style="fill: none; stroke: #dc7ec0; stroke-width: 1.5; stroke-linecap: round"/>
    </g>
    <g id="text_19">
     <!-- on-premises/a/cpu/osu_bw -->
     <g style="fill: #262626" transform="translate(353.840625 148.534906) scale(0.11 -0.11)">
      <defs>
       <path id="DejaVuSans-72" d="M 2631 2963 
Q 2534 3019 2420 3045 
Q 2306 3072 2169 3072 
Q 1681 3072 1420 2755 
Q 1159 2438 1159 1844 
L 1159 0 
L 581 0 
L 581 3500 
L 1159 3500 
L 1159 2956 
Q 1341 3275 1631 3429 
Q 1922 3584 2338 3584 
Q 2397 3584 2469 3576 
Q 2541 3569 2628 3553 
L 2631 2963 
z
" transform="scale(0.015625)"/>
      </defs>
      <use xlink:href="#DejaVuSans-6f"/>
      <use xlink:href="#DejaVuSans-6e" x="61.181641"/>
      <use xlink:href="#DejaVuSans-2d" x="124.560547"/>
      <use xlink:href="#DejaVuSans-70" x="160.644531"/>
      <use xlink:href="#DejaVuSans-72" x="224.121094"/>
      <use xlink:href="#DejaVuSans-65" x="262.984375"/>
      <use xlink:href="#DejaVuSans-6d" x="324.507812"/>
      <use xlink:href="#DejaVuSans-69" x="421.919922"/>
      <use xlink:href="#DejaVuSans-73" x="449.703125"/>
      <use xlink:href="#DejaVuSans-65" x="501.802734"/>
      <use xlink:href="#DejaVuSans-73" x="563.326172"/>
      <use xlink:href="#DejaVuSans-2f" x="615.425781"/>
      <use xlink:href="#DejaVuSans-61" x="649.117188"/>
      <use xlink:href="#DejaVuSans-2f" x="710.396484"/>
      <use xlink:href="#DejaVuSans-63" x="744.087891"/>
      <use xlink:href="#DejaVuSans-70" x="799.068359"/>
      <use xlink:href="#DejaVuSans-75" x="862.544922"/>
      <use xlink:href="#DejaVuSans-2f" x="925.923828"/>
      <use xlink:href="#DejaVuSans-6f" x="959.615234"/>
      <use xlink:href="#DejaVuSans-73" x="1020.796875"/>
      <use xlink:href="#DejaVuSans-75" x="1072.896484"/>
      <use xlink:href="#DejaVuSans-5f" x="1136.275391"/>
      <use xlink:href="#DejaVuSans-62" x="1186.275391"/>
      <use xlink:href="#DejaVuSans-77" x="1249.751953"/>
     </g>
    </g>
    <g id="line2d_31">
     <path d="M 323.040625 161.136781 
L 334.040625 161.136781 
L 345.040625 161.136781 
" style="fill: none; stroke: #4878d0; stroke-width: 1.5; stroke-linecap: round"/>
    </g>
    <g id="text_20">
     <!-- aws/eks/cpu/osu_bw -->
     <g style="fill: #262626" transform="translate(353.840625 164.986781) scale(0.11 -0.11)">
      <use xlink:href="#DejaVuSans-61"/>
      <use xlink:href="#DejaVuSans-77" x="61.279297"/>
      <use xlink:href="#DejaVuSans-73" x="143.066406"/>
      <use xlink:href="#DejaVuSans-2f" x="195.166016"/>
      <use xlink:href="#DejaVuSans-65" x="228.857422"/>
      <use xlink:href="#DejaVuSans-6b" x="290.380859"/>
      <use xlink:href="#DejaVuSans-73" x="348.291016"/>
      <use xlink:href="#DejaVuSans-2f" x="400.390625"/>
      <use xlink:href="#DejaVuSans-63" x="434.082031"/>
      <use xlink:href="#DejaVuSans-70" x="489.0625"/>
      <use xlink:href="#DejaVuSans-75" x="552.539062"/>
      <use xlink:href="#DejaVuSans-2f" x="615.917969"/>
      <use xlink:href="#DejaVuSans-6f" x="649.609375"/>
      <use xlink:href="#DejaVuSans-73" x="710.791016"/>
      <use xlink:href="#DejaVuSans-75" x="762.890625"/>
      <use xlink:href="#DejaVuSans-5f" x="826.269531"/>
      <use xlink:href="#DejaVuSans-62" x="876.269531"/>
      <use xlink:href="#DejaVuSans-77" x="939.746094"/>
     </g>
    </g>
    <g id="line2d_32">
     <path d="M 323.040625 177.588656 
L 334.040625 177.588656 
L 345.040625 177.588656 
" style="fill: none; stroke: #ee854a; stroke-width: 1.5; stroke-linecap: round"/>
    </g>
    <g id="text_21">
     <!-- aws/parallel-cluster/cpu/osu_bw -->
     <g style="fill: #262626" transform="translate(353.840625 181.438656) scale(0.11 -0.11)">
      <use xlink:href="#DejaVuSans-61"/>
      <use xlink:href="#DejaVuSans-77" x="61.279297"/>
      <use xlink:href="#DejaVuSans-73" x="143.066406"/>
      <use xlink:href="#DejaVuSans-2f" x="195.166016"/>
      <use xlink:href="#DejaVuSans-70" x="228.857422"/>
      <use xlink:href="#DejaVuSans-61" x="292.333984"/>
      <use xlink:href="#DejaVuSans-72" x="353.613281"/>
      <use xlink:href="#DejaVuSans-61" x="394.726562"/>
      <use xlink:href="#DejaVuSans-6c" x="456.005859"/>
      <use xlink:href="#DejaVuSans-6c" x="483.789062"/>
      <use xlink:href="#DejaVuSans-65" x="511.572266"/>
      <use xlink:href="#DejaVuSans-6c" x="573.095703"/>
      <use xlink:href="#DejaVuSans-2d" x="600.878906"/>
      <use xlink:href="#DejaVuSans-63" x="636.962891"/>
      <use xlink:href="#DejaVuSans-6c" x="691.943359"/>
      <use xlink:href="#DejaVuSans-75" x="719.726562"/>
      <use xlink:href="#DejaVuSans-73" x="783.105469"/>
      <use xlink:href="#DejaVuSans-74" x="835.205078"/>
      <use xlink:href="#DejaVuSans-65" x="874.414062"/>
      <use xlink:href="#DejaVuSans-72" x="935.9375"/>
      <use xlink:href="#DejaVuSans-2f" x="977.050781"/>
      <use xlink:href="#DejaVuSans-63" x="1010.742188"/>
      <use xlink:href="#DejaVuSans-70" x="1065.722656"/>
      <use xlink:href="#DejaVuSans-75" x="1129.199219"/>
      <use xlink:href="#DejaVuSans-2f" x="1192.578125"/>
      <use xlink:href="#DejaVuSans-6f" x="1226.269531"/>
      <use xlink:href="#DejaVuSans-73" x="1287.451172"/>
      <use xlink:href="#DejaVuSans-75" x="1339.550781"/>
      <use xlink:href="#DejaVuSans-5f" x="1402.929688"/>
      <use xlink:href="#DejaVuSans-62" x="1452.929688"/>
      <use xlink:href="#DejaVuSans-77" x="1516.40625"/>
     </g>
    </g>
    <g id="line2d_33">
     <path d="M 323.040625 194.040531 
L 334.040625 194.040531 
L 345.040625 194.040531 
" style="fill: none; stroke: #d65f5f; stroke-width: 1.5; stroke-linecap: round"/>
    </g>
    <g id="text_22">
     <!-- azure/cyclecloud/cpu/osu_bw -->
     <g style="fill: #262626" transform="translate(353.840625 197.890531) scale(0.11 -0.11)">
      <use xlink:href="#DejaVuSans-61"/>
      <use xlink:href="#DejaVuSans-7a" x="61.279297"/>
      <use xlink:href="#DejaVuSans-75" x="113.769531"/>
      <use xlink:href="#DejaVuSans-72" x="177.148438"/>
      <use xlink:href="#DejaVuSans-65" x="216.011719"/>
      <use xlink:href="#DejaVuSans-2f" x="277.535156"/>
      <use xlink:href="#DejaVuSans-63" x="311.226562"/>
      <use xlink:href="#DejaVuSans-79" x="366.207031"/>
      <use xlink:href="#DejaVuSans-63" x="425.386719"/>
      <use xlink:href="#DejaVuSans-6c" x="480.367188"/>
      <use xlink:href="#DejaVuSans-65" x="508.150391"/>
      <use xlink:href="#DejaVuSans-63" x="569.673828"/>
      <use xlink:href="#DejaVuSans-6c" x="624.654297"/>
      <use xlink:href="#DejaVuSans-6f" x="652.4375"/>
      <use xlink:href="#DejaVuSans-75" x="713.619141"/>
      <use xlink:href="#DejaVuSans-64" x="776.998047"/>
      <use xlink:href="#DejaVuSans-2f" x="840.474609"/>
      <use xlink:href="#DejaVuSans-63" x="874.166016"/>
      <use xlink:href="#DejaVuSans-70" x="929.146484"/>
      <use xlink:href="#DejaVuSans-75" x="992.623047"/>
      <use xlink:href="#DejaVuSans-2f" x="1056.001953"/>
      <use xlink:href="#DejaVuSans-6f" x="1089.693359"/>
      <use xlink:href="#DejaVuSans-73" x="1150.875"/>
      <use xlink:href="#DejaVuSans-75" x="1202.974609"/>
      <use xlink:href="#DejaVuSans-5f" x="1266.353516"/>
      <use xlink:href="#DejaVuSans-62" x="1316.353516"/>
      <use xlink:href="#DejaVuSans-77" x="1379.830078"/>
     </g>
    </g>
    <g id="line2d_34">
     <path d="M 323.040625 210.492406 
L 334.040625 210.492406 
L 345.040625 210.492406 
" style="fill: none; stroke: #008000; stroke-width: 1.5; stroke-linecap: round"/>
    </g>
    <g id="text_23">
     <!-- azure/aks/cpu/osu_bw -->
     <g style="fill: #262626" transform="translate(353.840625 214.342406) scale(0.11 -0.11)">
      <use xlink:href="#DejaVuSans-61"/>
      <use xlink:href="#DejaVuSans-7a" x="61.279297"/>
      <use xlink:href="#DejaVuSans-75" x="113.769531"/>
      <use xlink:href="#DejaVuSans-72" x="177.148438"/>
      <use xlink:href="#DejaVuSans-65" x="216.011719"/>
      <use xlink:href="#DejaVuSans-2f" x="277.535156"/>
      <use xlink:href="#DejaVuSans-61" x="311.226562"/>
      <use xlink:href="#DejaVuSans-6b" x="372.505859"/>
      <use xlink:href="#DejaVuSans-73" x="430.416016"/>
      <use xlink:href="#DejaVuSans-2f" x="482.515625"/>
      <use xlink:href="#DejaVuSans-63" x="516.207031"/>
      <use xlink:href="#DejaVuSans-70" x="571.1875"/>
      <use xlink:href="#DejaVuSans-75" x="634.664062"/>
      <use xlink:href="#DejaVuSans-2f" x="698.042969"/>
      <use xlink:href="#DejaVuSans-6f" x="731.734375"/>
      <use xlink:href="#DejaVuSans-73" x="792.916016"/>
      <use xlink:href="#DejaVuSans-75" x="845.015625"/>
      <use xlink:href="#DejaVuSans-5f" x="908.394531"/>
      <use xlink:href="#DejaVuSans-62" x="958.394531"/>
      <use xlink:href="#DejaVuSans-77" x="1021.871094"/>
     </g>
    </g>
   </g>
  </g>
 </g>
 <defs>
  <clipPath id="p1093ef3075">
   <rect x="80.488108" y="31.92" width="482.551892" height="194.916"/>
  </clipPath>
 </defs>
</svg>
