<?xml version="1.0" encoding="utf-8" standalone="no"?>
<!DOCTYPE svg PUBLIC "-//W3C//DTD SVG 1.1//EN"
  "http://www.w3.org/Graphics/SVG/1.1/DTD/svg11.dtd">
<svg xmlns:xlink="http://www.w3.org/1999/xlink" width="324pt" height="432pt" viewBox="0 0 324 432" xmlns="http://www.w3.org/2000/svg" version="1.1">
 <metadata>
  <rdf:RDF xmlns:dc="http://purl.org/dc/elements/1.1/" xmlns:cc="http://creativecommons.org/ns#" xmlns:rdf="http://www.w3.org/1999/02/22-rdf-syntax-ns#">
   <cc:Work>
    <dc:type rdf:resource="http://purl.org/dc/dcmitype/StillImage"/>
    <dc:date>2025-02-04T12:01:37.366951</dc:date>
    <dc:format>image/svg+xml</dc:format>
    <dc:creator>
     <cc:Agent>
      <dc:title>Matplotlib v3.8.4, https://matplotlib.org/</dc:title>
     </cc:Agent>
    </dc:creator>
   </cc:Work>
  </rdf:RDF>
 </metadata>
 <defs>
  <style type="text/css">*{stroke-linejoin: round; stroke-linecap: butt}</style>
 </defs>
 <g id="figure_1">
  <g id="patch_1">
   <path d="M 0 432 
L 324 432 
L 324 0 
L 0 0 
z
" style="fill: #ffffff"/>
  </g>
  <g id="axes_1">
   <g id="patch_2">
    <path d="M 46.44 381.78 
L 311.04 381.78 
L 311.04 26.16 
L 46.44 26.16 
z
" style="fill: #ffffff"/>
   </g>
   <g id="matplotlib.axis_1">
    <g id="xtick_1">
     <g id="text_1">
      <!-- 32 -->
      <g style="fill: #262626" transform="translate(72.51625 399.638281) scale(0.11 -0.11)">
       <defs>
        <path id="DejaVuSans-33" d="M 2597 2516 
Q 3050 2419 3304 2112 
Q 3559 1806 3559 1356 
Q 3559 666 3084 287 
Q 2609 -91 1734 -91 
Q 1441 -91 1130 -33 
Q 819 25 488 141 
L 488 750 
Q 750 597 1062 519 
Q 1375 441 1716 441 
Q 2309 441 2620 675 
Q 2931 909 2931 1356 
Q 2931 1769 2642 2001 
Q 2353 2234 1838 2234 
L 1294 2234 
L 1294 2753 
L 1863 2753 
Q 2328 2753 2575 2939 
Q 2822 3125 2822 3475 
Q 2822 3834 2567 4026 
Q 2313 4219 1838 4219 
Q 1578 4219 1281 4162 
Q 984 4106 628 3988 
L 628 4550 
Q 988 4650 1302 4700 
Q 1616 4750 1894 4750 
Q 2613 4750 3031 4423 
Q 3450 4097 3450 3541 
Q 3450 3153 3228 2886 
Q 3006 2619 2597 2516 
z
" transform="scale(0.015625)"/>
        <path id="DejaVuSans-32" d="M 1228 531 
L 3431 531 
L 3431 0 
L 469 0 
L 469 531 
Q 828 903 1448 1529 
Q 2069 2156 2228 2338 
Q 2531 2678 2651 2914 
Q 2772 3150 2772 3378 
Q 2772 3750 2511 3984 
Q 2250 4219 1831 4219 
Q 1534 4219 1204 4116 
Q 875 4013 500 3803 
L 500 4441 
Q 881 4594 1212 4672 
Q 1544 4750 1819 4750 
Q 2544 4750 2975 4387 
Q 3406 4025 3406 3419 
Q 3406 3131 3298 2873 
Q 3191 2616 2906 2266 
Q 2828 2175 2409 1742 
Q 1991 1309 1228 531 
z
" transform="scale(0.015625)"/>
       </defs>
       <use xlink:href="#DejaVuSans-33"/>
       <use xlink:href="#DejaVuSans-32" x="63.623047"/>
      </g>
     </g>
    </g>
    <g id="xtick_2">
     <g id="text_2">
      <!-- 64 -->
      <g style="fill: #262626" transform="translate(138.66625 399.638281) scale(0.11 -0.11)">
       <defs>
        <path id="DejaVuSans-36" d="M 2113 2584 
Q 1688 2584 1439 2293 
Q 1191 2003 1191 1497 
Q 1191 994 1439 701 
Q 1688 409 2113 409 
Q 2538 409 2786 701 
Q 3034 994 3034 1497 
Q 3034 2003 2786 2293 
Q 2538 2584 2113 2584 
z
M 3366 4563 
L 3366 3988 
Q 3128 4100 2886 4159 
Q 2644 4219 2406 4219 
Q 1781 4219 1451 3797 
Q 1122 3375 1075 2522 
Q 1259 2794 1537 2939 
Q 1816 3084 2150 3084 
Q 2853 3084 3261 2657 
Q 3669 2231 3669 1497 
Q 3669 778 3244 343 
Q 2819 -91 2113 -91 
Q 1303 -91 875 529 
Q 447 1150 447 2328 
Q 447 3434 972 4092 
Q 1497 4750 2381 4750 
Q 2619 4750 2861 4703 
Q 3103 4656 3366 4563 
z
" transform="scale(0.015625)"/>
        <path id="DejaVuSans-34" d="M 2419 4116 
L 825 1625 
L 2419 1625 
L 2419 4116 
z
M 2253 4666 
L 3047 4666 
L 3047 1625 
L 3713 1625 
L 3713 1100 
L 3047 1100 
L 3047 0 
L 2419 0 
L 2419 1100 
L 313 1100 
L 313 1709 
L 2253 4666 
z
" transform="scale(0.015625)"/>
       </defs>
       <use xlink:href="#DejaVuSans-36"/>
       <use xlink:href="#DejaVuSans-34" x="63.623047"/>
      </g>
     </g>
    </g>
    <g id="xtick_3">
     <g id="text_3">
      <!-- 128 -->
      <g style="fill: #262626" transform="translate(201.316875 399.638281) scale(0.11 -0.11)">
       <defs>
        <path id="DejaVuSans-31" d="M 794 531 
L 1825 531 
L 1825 4091 
L 703 3866 
L 703 4441 
L 1819 4666 
L 2450 4666 
L 2450 531 
L 3481 531 
L 3481 0 
L 794 0 
L 794 531 
z
" transform="scale(0.015625)"/>
        <path id="DejaVuSans-38" d="M 2034 2216 
Q 1584 2216 1326 1975 
Q 1069 1734 1069 1313 
Q 1069 891 1326 650 
Q 1584 409 2034 409 
Q 2484 409 2743 651 
Q 3003 894 3003 1313 
Q 3003 1734 2745 1975 
Q 2488 2216 2034 2216 
z
M 1403 2484 
Q 997 2584 770 2862 
Q 544 3141 544 3541 
Q 544 4100 942 4425 
Q 1341 4750 2034 4750 
Q 2731 4750 3128 4425 
Q 3525 4100 3525 3541 
Q 3525 3141 3298 2862 
Q 3072 2584 2669 2484 
Q 3125 2378 3379 2068 
Q 3634 1759 3634 1313 
Q 3634 634 3220 271 
Q 2806 -91 2034 -91 
Q 1263 -91 848 271 
Q 434 634 434 1313 
Q 434 1759 690 2068 
Q 947 2378 1403 2484 
z
M 1172 3481 
Q 1172 3119 1398 2916 
Q 1625 2713 2034 2713 
Q 2441 2713 2670 2916 
Q 2900 3119 2900 3481 
Q 2900 3844 2670 4047 
Q 2441 4250 2034 4250 
Q 1625 4250 1398 4047 
Q 1172 3844 1172 3481 
z
" transform="scale(0.015625)"/>
       </defs>
       <use xlink:href="#DejaVuSans-31"/>
       <use xlink:href="#DejaVuSans-32" x="63.623047"/>
       <use xlink:href="#DejaVuSans-38" x="127.246094"/>
      </g>
     </g>
    </g>
    <g id="xtick_4">
     <g id="text_4">
      <!-- 256 -->
      <g style="fill: #262626" transform="translate(267.466875 399.638281) scale(0.11 -0.11)">
       <defs>
        <path id="DejaVuSans-35" d="M 691 4666 
L 3169 4666 
L 3169 4134 
L 1269 4134 
L 1269 2991 
Q 1406 3038 1543 3061 
Q 1681 3084 1819 3084 
Q 2600 3084 3056 2656 
Q 3513 2228 3513 1497 
Q 3513 744 3044 326 
Q 2575 -91 1722 -91 
Q 1428 -91 1123 -41 
Q 819 9 494 109 
L 494 744 
Q 775 591 1075 516 
Q 1375 441 1709 441 
Q 2250 441 2565 725 
Q 2881 1009 2881 1497 
Q 2881 1984 2565 2268 
Q 2250 2553 1709 2553 
Q 1456 2553 1204 2497 
Q 953 2441 691 2322 
L 691 4666 
z
" transform="scale(0.015625)"/>
       </defs>
       <use xlink:href="#DejaVuSans-32"/>
       <use xlink:href="#DejaVuSans-35" x="63.623047"/>
       <use xlink:href="#DejaVuSans-36" x="127.246094"/>
      </g>
     </g>
    </g>
    <g id="text_5">
     <!-- Nodes -->
     <g style="fill: #262626" transform="translate(158.387891 415.803906) scale(0.13 -0.13)">
      <defs>
       <path id="DejaVuSans-4e" d="M 628 4666 
L 1478 4666 
L 3547 763 
L 3547 4666 
L 4159 4666 
L 4159 0 
L 3309 0 
L 1241 3903 
L 1241 0 
L 628 0 
L 628 4666 
z
" transform="scale(0.015625)"/>
       <path id="DejaVuSans-6f" d="M 1959 3097 
Q 1497 3097 1228 2736 
Q 959 2375 959 1747 
Q 959 1119 1226 758 
Q 1494 397 1959 397 
Q 2419 397 2687 759 
Q 2956 1122 2956 1747 
Q 2956 2369 2687 2733 
Q 2419 3097 1959 3097 
z
M 1959 3584 
Q 2709 3584 3137 3096 
Q 3566 2609 3566 1747 
Q 3566 888 3137 398 
Q 2709 -91 1959 -91 
Q 1206 -91 779 398 
Q 353 888 353 1747 
Q 353 2609 779 3096 
Q 1206 3584 1959 3584 
z
" transform="scale(0.015625)"/>
       <path id="DejaVuSans-64" d="M 2906 2969 
L 2906 4863 
L 3481 4863 
L 3481 0 
L 2906 0 
L 2906 525 
Q 2725 213 2448 61 
Q 2172 -91 1784 -91 
Q 1150 -91 751 415 
Q 353 922 353 1747 
Q 353 2572 751 3078 
Q 1150 3584 1784 3584 
Q 2172 3584 2448 3432 
Q 2725 3281 2906 2969 
z
M 947 1747 
Q 947 1113 1208 752 
Q 1469 391 1925 391 
Q 2381 391 2643 752 
Q 2906 1113 2906 1747 
Q 2906 2381 2643 2742 
Q 2381 3103 1925 3103 
Q 1469 3103 1208 2742 
Q 947 2381 947 1747 
z
" transform="scale(0.015625)"/>
       <path id="DejaVuSans-65" d="M 3597 1894 
L 3597 1613 
L 953 1613 
Q 991 1019 1311 708 
Q 1631 397 2203 397 
Q 2534 397 2845 478 
Q 3156 559 3463 722 
L 3463 178 
Q 3153 47 2828 -22 
Q 2503 -91 2169 -91 
Q 1331 -91 842 396 
Q 353 884 353 1716 
Q 353 2575 817 3079 
Q 1281 3584 2069 3584 
Q 2775 3584 3186 3129 
Q 3597 2675 3597 1894 
z
M 3022 2063 
Q 3016 2534 2758 2815 
Q 2500 3097 2075 3097 
Q 1594 3097 1305 2825 
Q 1016 2553 972 2059 
L 3022 2063 
z
" transform="scale(0.015625)"/>
       <path id="DejaVuSans-73" d="M 2834 3397 
L 2834 2853 
Q 2591 2978 2328 3040 
Q 2066 3103 1784 3103 
Q 1356 3103 1142 2972 
Q 928 2841 928 2578 
Q 928 2378 1081 2264 
Q 1234 2150 1697 2047 
L 1894 2003 
Q 2506 1872 2764 1633 
Q 3022 1394 3022 966 
Q 3022 478 2636 193 
Q 2250 -91 1575 -91 
Q 1294 -91 989 -36 
Q 684 19 347 128 
L 347 722 
Q 666 556 975 473 
Q 1284 391 1588 391 
Q 1994 391 2212 530 
Q 2431 669 2431 922 
Q 2431 1156 2273 1281 
Q 2116 1406 1581 1522 
L 1381 1569 
Q 847 1681 609 1914 
Q 372 2147 372 2553 
Q 372 3047 722 3315 
Q 1072 3584 1716 3584 
Q 2034 3584 2315 3537 
Q 2597 3491 2834 3397 
z
" transform="scale(0.015625)"/>
      </defs>
      <use xlink:href="#DejaVuSans-4e"/>
      <use xlink:href="#DejaVuSans-6f" x="74.804688"/>
      <use xlink:href="#DejaVuSans-64" x="135.986328"/>
      <use xlink:href="#DejaVuSans-65" x="199.462891"/>
      <use xlink:href="#DejaVuSans-73" x="260.986328"/>
     </g>
    </g>
   </g>
   <g id="matplotlib.axis_2">
    <g id="ytick_1">
     <g id="line2d_1">
      <path d="M 46.44 348.439851 
L 311.04 348.439851 
" clip-path="url(#pa4e80ced8b)" style="fill: none; stroke: #cccccc; stroke-linecap: round"/>
     </g>
     <g id="text_6">
      <!-- 1 -->
      <g style="fill: #262626" transform="translate(29.94125 352.618991) scale(0.11 -0.11)">
       <use xlink:href="#DejaVuSans-31"/>
      </g>
     </g>
    </g>
    <g id="ytick_2">
     <g id="line2d_2">
      <path d="M 46.44 280.2426 
L 311.04 280.2426 
" clip-path="url(#pa4e80ced8b)" style="fill: none; stroke: #cccccc; stroke-linecap: round"/>
     </g>
     <g id="text_7">
      <!-- 2 -->
      <g style="fill: #262626" transform="translate(29.94125 284.421741) scale(0.11 -0.11)">
       <use xlink:href="#DejaVuSans-32"/>
      </g>
     </g>
    </g>
    <g id="ytick_3">
     <g id="line2d_3">
      <path d="M 46.44 212.045349 
L 311.04 212.045349 
" clip-path="url(#pa4e80ced8b)" style="fill: none; stroke: #cccccc; stroke-linecap: round"/>
     </g>
     <g id="text_8">
      <!-- 3 -->
      <g style="fill: #262626" transform="translate(29.94125 216.22449) scale(0.11 -0.11)">
       <use xlink:href="#DejaVuSans-33"/>
      </g>
     </g>
    </g>
    <g id="ytick_4">
     <g id="line2d_4">
      <path d="M 46.44 143.848099 
L 311.04 143.848099 
" clip-path="url(#pa4e80ced8b)" style="fill: none; stroke: #cccccc; stroke-linecap: round"/>
     </g>
     <g id="text_9">
      <!-- 4 -->
      <g style="fill: #262626" transform="translate(29.94125 148.027239) scale(0.11 -0.11)">
       <use xlink:href="#DejaVuSans-34"/>
      </g>
     </g>
    </g>
    <g id="ytick_5">
     <g id="line2d_5">
      <path d="M 46.44 75.650848 
L 311.04 75.650848 
" clip-path="url(#pa4e80ced8b)" style="fill: none; stroke: #cccccc; stroke-linecap: round"/>
     </g>
     <g id="text_10">
      <!-- 5 -->
      <g style="fill: #262626" transform="translate(29.94125 79.829989) scale(0.11 -0.11)">
       <use xlink:href="#DejaVuSans-35"/>
      </g>
     </g>
    </g>
    <g id="text_11">
     <!-- Millions of Atom Steps per Second (Speedup) -->
     <g style="fill: #262626" transform="translate(23.237656 350.737969) rotate(-90) scale(0.13 -0.13)">
      <defs>
       <path id="DejaVuSans-4d" d="M 628 4666 
L 1569 4666 
L 2759 1491 
L 3956 4666 
L 4897 4666 
L 4897 0 
L 4281 0 
L 4281 4097 
L 3078 897 
L 2444 897 
L 1241 4097 
L 1241 0 
L 628 0 
L 628 4666 
z
" transform="scale(0.015625)"/>
       <path id="DejaVuSans-69" d="M 603 3500 
L 1178 3500 
L 1178 0 
L 603 0 
L 603 3500 
z
M 603 4863 
L 1178 4863 
L 1178 4134 
L 603 4134 
L 603 4863 
z
" transform="scale(0.015625)"/>
       <path id="DejaVuSans-6c" d="M 603 4863 
L 1178 4863 
L 1178 0 
L 603 0 
L 603 4863 
z
" transform="scale(0.015625)"/>
       <path id="DejaVuSans-6e" d="M 3513 2113 
L 3513 0 
L 2938 0 
L 2938 2094 
Q 2938 2591 2744 2837 
Q 2550 3084 2163 3084 
Q 1697 3084 1428 2787 
Q 1159 2491 1159 1978 
L 1159 0 
L 581 0 
L 581 3500 
L 1159 3500 
L 1159 2956 
Q 1366 3272 1645 3428 
Q 1925 3584 2291 3584 
Q 2894 3584 3203 3211 
Q 3513 2838 3513 2113 
z
" transform="scale(0.015625)"/>
       <path id="DejaVuSans-20" transform="scale(0.015625)"/>
       <path id="DejaVuSans-66" d="M 2375 4863 
L 2375 4384 
L 1825 4384 
Q 1516 4384 1395 4259 
Q 1275 4134 1275 3809 
L 1275 3500 
L 2222 3500 
L 2222 3053 
L 1275 3053 
L 1275 0 
L 697 0 
L 697 3053 
L 147 3053 
L 147 3500 
L 697 3500 
L 697 3744 
Q 697 4328 969 4595 
Q 1241 4863 1831 4863 
L 2375 4863 
z
" transform="scale(0.015625)"/>
       <path id="DejaVuSans-41" d="M 2188 4044 
L 1331 1722 
L 3047 1722 
L 2188 4044 
z
M 1831 4666 
L 2547 4666 
L 4325 0 
L 3669 0 
L 3244 1197 
L 1141 1197 
L 716 0 
L 50 0 
L 1831 4666 
z
" transform="scale(0.015625)"/>
       <path id="DejaVuSans-74" d="M 1172 4494 
L 1172 3500 
L 2356 3500 
L 2356 3053 
L 1172 3053 
L 1172 1153 
Q 1172 725 1289 603 
Q 1406 481 1766 481 
L 2356 481 
L 2356 0 
L 1766 0 
Q 1100 0 847 248 
Q 594 497 594 1153 
L 594 3053 
L 172 3053 
L 172 3500 
L 594 3500 
L 594 4494 
L 1172 4494 
z
" transform="scale(0.015625)"/>
       <path id="DejaVuSans-6d" d="M 3328 2828 
Q 3544 3216 3844 3400 
Q 4144 3584 4550 3584 
Q 5097 3584 5394 3201 
Q 5691 2819 5691 2113 
L 5691 0 
L 5113 0 
L 5113 2094 
Q 5113 2597 4934 2840 
Q 4756 3084 4391 3084 
Q 3944 3084 3684 2787 
Q 3425 2491 3425 1978 
L 3425 0 
L 2847 0 
L 2847 2094 
Q 2847 2600 2669 2842 
Q 2491 3084 2119 3084 
Q 1678 3084 1418 2786 
Q 1159 2488 1159 1978 
L 1159 0 
L 581 0 
L 581 3500 
L 1159 3500 
L 1159 2956 
Q 1356 3278 1631 3431 
Q 1906 3584 2284 3584 
Q 2666 3584 2933 3390 
Q 3200 3197 3328 2828 
z
" transform="scale(0.015625)"/>
       <path id="DejaVuSans-53" d="M 3425 4513 
L 3425 3897 
Q 3066 4069 2747 4153 
Q 2428 4238 2131 4238 
Q 1616 4238 1336 4038 
Q 1056 3838 1056 3469 
Q 1056 3159 1242 3001 
Q 1428 2844 1947 2747 
L 2328 2669 
Q 3034 2534 3370 2195 
Q 3706 1856 3706 1288 
Q 3706 609 3251 259 
Q 2797 -91 1919 -91 
Q 1588 -91 1214 -16 
Q 841 59 441 206 
L 441 856 
Q 825 641 1194 531 
Q 1563 422 1919 422 
Q 2459 422 2753 634 
Q 3047 847 3047 1241 
Q 3047 1584 2836 1778 
Q 2625 1972 2144 2069 
L 1759 2144 
Q 1053 2284 737 2584 
Q 422 2884 422 3419 
Q 422 4038 858 4394 
Q 1294 4750 2059 4750 
Q 2388 4750 2728 4690 
Q 3069 4631 3425 4513 
z
" transform="scale(0.015625)"/>
       <path id="DejaVuSans-70" d="M 1159 525 
L 1159 -1331 
L 581 -1331 
L 581 3500 
L 1159 3500 
L 1159 2969 
Q 1341 3281 1617 3432 
Q 1894 3584 2278 3584 
Q 2916 3584 3314 3078 
Q 3713 2572 3713 1747 
Q 3713 922 3314 415 
Q 2916 -91 2278 -91 
Q 1894 -91 1617 61 
Q 1341 213 1159 525 
z
M 3116 1747 
Q 3116 2381 2855 2742 
Q 2594 3103 2138 3103 
Q 1681 3103 1420 2742 
Q 1159 2381 1159 1747 
Q 1159 1113 1420 752 
Q 1681 391 2138 391 
Q 2594 391 2855 752 
Q 3116 1113 3116 1747 
z
" transform="scale(0.015625)"/>
       <path id="DejaVuSans-72" d="M 2631 2963 
Q 2534 3019 2420 3045 
Q 2306 3072 2169 3072 
Q 1681 3072 1420 2755 
Q 1159 2438 1159 1844 
L 1159 0 
L 581 0 
L 581 3500 
L 1159 3500 
L 1159 2956 
Q 1341 3275 1631 3429 
Q 1922 3584 2338 3584 
Q 2397 3584 2469 3576 
Q 2541 3569 2628 3553 
L 2631 2963 
z
" transform="scale(0.015625)"/>
       <path id="DejaVuSans-63" d="M 3122 3366 
L 3122 2828 
Q 2878 2963 2633 3030 
Q 2388 3097 2138 3097 
Q 1578 3097 1268 2742 
Q 959 2388 959 1747 
Q 959 1106 1268 751 
Q 1578 397 2138 397 
Q 2388 397 2633 464 
Q 2878 531 3122 666 
L 3122 134 
Q 2881 22 2623 -34 
Q 2366 -91 2075 -91 
Q 1284 -91 818 406 
Q 353 903 353 1747 
Q 353 2603 823 3093 
Q 1294 3584 2113 3584 
Q 2378 3584 2631 3529 
Q 2884 3475 3122 3366 
z
" transform="scale(0.015625)"/>
       <path id="DejaVuSans-28" d="M 1984 4856 
Q 1566 4138 1362 3434 
Q 1159 2731 1159 2009 
Q 1159 1288 1364 580 
Q 1569 -128 1984 -844 
L 1484 -844 
Q 1016 -109 783 600 
Q 550 1309 550 2009 
Q 550 2706 781 3412 
Q 1013 4119 1484 4856 
L 1984 4856 
z
" transform="scale(0.015625)"/>
       <path id="DejaVuSans-75" d="M 544 1381 
L 544 3500 
L 1119 3500 
L 1119 1403 
Q 1119 906 1312 657 
Q 1506 409 1894 409 
Q 2359 409 2629 706 
Q 2900 1003 2900 1516 
L 2900 3500 
L 3475 3500 
L 3475 0 
L 2900 0 
L 2900 538 
Q 2691 219 2414 64 
Q 2138 -91 1772 -91 
Q 1169 -91 856 284 
Q 544 659 544 1381 
z
M 1991 3584 
L 1991 3584 
z
" transform="scale(0.015625)"/>
       <path id="DejaVuSans-29" d="M 513 4856 
L 1013 4856 
Q 1481 4119 1714 3412 
Q 1947 2706 1947 2009 
Q 1947 1309 1714 600 
Q 1481 -109 1013 -844 
L 513 -844 
Q 928 -128 1133 580 
Q 1338 1288 1338 2009 
Q 1338 2731 1133 3434 
Q 928 4138 513 4856 
z
" transform="scale(0.015625)"/>
      </defs>
      <use xlink:href="#DejaVuSans-4d"/>
      <use xlink:href="#DejaVuSans-69" x="86.279297"/>
      <use xlink:href="#DejaVuSans-6c" x="114.0625"/>
      <use xlink:href="#DejaVuSans-6c" x="141.845703"/>
      <use xlink:href="#DejaVuSans-69" x="169.628906"/>
      <use xlink:href="#DejaVuSans-6f" x="197.412109"/>
      <use xlink:href="#DejaVuSans-6e" x="258.59375"/>
      <use xlink:href="#DejaVuSans-73" x="321.972656"/>
      <use xlink:href="#DejaVuSans-20" x="374.072266"/>
      <use xlink:href="#DejaVuSans-6f" x="405.859375"/>
      <use xlink:href="#DejaVuSans-66" x="467.041016"/>
      <use xlink:href="#DejaVuSans-20" x="502.246094"/>
      <use xlink:href="#DejaVuSans-41" x="534.033203"/>
      <use xlink:href="#DejaVuSans-74" x="600.691406"/>
      <use xlink:href="#DejaVuSans-6f" x="639.900391"/>
      <use xlink:href="#DejaVuSans-6d" x="701.082031"/>
      <use xlink:href="#DejaVuSans-20" x="798.494141"/>
      <use xlink:href="#DejaVuSans-53" x="830.28125"/>
      <use xlink:href="#DejaVuSans-74" x="893.757812"/>
      <use xlink:href="#DejaVuSans-65" x="932.966797"/>
      <use xlink:href="#DejaVuSans-70" x="994.490234"/>
      <use xlink:href="#DejaVuSans-73" x="1057.966797"/>
      <use xlink:href="#DejaVuSans-20" x="1110.066406"/>
      <use xlink:href="#DejaVuSans-70" x="1141.853516"/>
      <use xlink:href="#DejaVuSans-65" x="1205.330078"/>
      <use xlink:href="#DejaVuSans-72" x="1266.853516"/>
      <use xlink:href="#DejaVuSans-20" x="1307.966797"/>
      <use xlink:href="#DejaVuSans-53" x="1339.753906"/>
      <use xlink:href="#DejaVuSans-65" x="1403.230469"/>
      <use xlink:href="#DejaVuSans-63" x="1464.753906"/>
      <use xlink:href="#DejaVuSans-6f" x="1519.734375"/>
      <use xlink:href="#DejaVuSans-6e" x="1580.916016"/>
      <use xlink:href="#DejaVuSans-64" x="1644.294922"/>
      <use xlink:href="#DejaVuSans-20" x="1707.771484"/>
      <use xlink:href="#DejaVuSans-28" x="1739.558594"/>
      <use xlink:href="#DejaVuSans-53" x="1778.572266"/>
      <use xlink:href="#DejaVuSans-70" x="1842.048828"/>
      <use xlink:href="#DejaVuSans-65" x="1905.525391"/>
      <use xlink:href="#DejaVuSans-65" x="1967.048828"/>
      <use xlink:href="#DejaVuSans-64" x="2028.572266"/>
      <use xlink:href="#DejaVuSans-75" x="2092.048828"/>
      <use xlink:href="#DejaVuSans-70" x="2155.427734"/>
      <use xlink:href="#DejaVuSans-29" x="2218.904297"/>
     </g>
    </g>
   </g>
   <g id="patch_3">
    <path d="M 46.44 381.78 
L 46.44 26.16 
" style="fill: none; stroke: #cccccc; stroke-width: 1.25; stroke-linejoin: miter; stroke-linecap: square"/>
   </g>
   <g id="patch_4">
    <path d="M 311.04 381.78 
L 311.04 26.16 
" style="fill: none; stroke: #cccccc; stroke-width: 1.25; stroke-linejoin: miter; stroke-linecap: square"/>
   </g>
   <g id="patch_5">
    <path d="M 46.44 381.78 
L 311.04 381.78 
" style="fill: none; stroke: #cccccc; stroke-width: 1.25; stroke-linejoin: miter; stroke-linecap: square"/>
   </g>
   <g id="patch_6">
    <path d="M 46.44 26.16 
L 311.04 26.16 
" style="fill: none; stroke: #cccccc; stroke-width: 1.25; stroke-linejoin: miter; stroke-linecap: square"/>
   </g>
   <g id="PathCollection_1">
    <path d="M 80.754801 345.833319 
L 78.37716 347.560777 
L 79.285338 350.355862 
L 82.224264 350.355862 
L 83.132443 347.560777 
z
" clip-path="url(#pa4e80ced8b)" style="fill: #8c613c"/>
    <path d="M 74.939323 347.211354 
L 72.561681 348.938811 
L 73.469859 351.733896 
L 76.408786 351.733896 
L 77.316964 348.938811 
z
" clip-path="url(#pa4e80ced8b)" style="fill: #8c613c"/>
    <path d="M 80.076772 345.321282 
L 77.69913 347.048739 
L 78.607309 349.843824 
L 81.546235 349.843824 
L 82.454413 347.048739 
z
" clip-path="url(#pa4e80ced8b)" style="fill: #8c613c"/>
    <path d="M 76.123108 346.046382 
L 73.745467 347.77384 
L 74.653645 350.568925 
L 77.592571 350.568925 
L 78.500749 347.77384 
z
" clip-path="url(#pa4e80ced8b)" style="fill: #8c613c"/>
   </g>
   <g id="PathCollection_2">
    <defs>
     <path id="C0_0_dfb7157b78" d="M 0 -2.5 
L -2.377641 -0.772542 
L -1.469463 2.022542 
L 1.469463 2.022542 
L 2.377641 -0.772542 
z
"/>
    </defs>
    <g clip-path="url(#pa4e80ced8b)">
     <use xlink:href="#C0_0_dfb7157b78" x="146.685607" y="309.497485" style="fill: #8c613c"/>
    </g>
    <g clip-path="url(#pa4e80ced8b)">
     <use xlink:href="#C0_0_dfb7157b78" x="143.136349" y="308.803313" style="fill: #8c613c"/>
    </g>
    <g clip-path="url(#pa4e80ced8b)">
     <use xlink:href="#C0_0_dfb7157b78" x="146.300241" y="320.212478" style="fill: #8c613c"/>
    </g>
    <g clip-path="url(#pa4e80ced8b)">
     <use xlink:href="#C0_0_dfb7157b78" x="151.97294" y="309.555906" style="fill: #8c613c"/>
    </g>
    <g clip-path="url(#pa4e80ced8b)">
     <use xlink:href="#C0_0_dfb7157b78" x="152.169966" y="308.284402" style="fill: #8c613c"/>
    </g>
   </g>
   <g id="PathCollection_3">
    <defs>
     <path id="C1_0_581d5dfdd3" d="M 0 -2.5 
L -2.377641 -0.772542 
L -1.469463 2.022542 
L 1.469463 2.022542 
L 2.377641 -0.772542 
z
"/>
    </defs>
    <g clip-path="url(#pa4e80ced8b)">
     <use xlink:href="#C1_0_581d5dfdd3" x="212.703333" y="278.569027" style="fill: #8c613c"/>
    </g>
    <g clip-path="url(#pa4e80ced8b)">
     <use xlink:href="#C1_0_581d5dfdd3" x="209.122324" y="279.142921" style="fill: #8c613c"/>
    </g>
    <g clip-path="url(#pa4e80ced8b)">
     <use xlink:href="#C1_0_581d5dfdd3" x="209.700435" y="283.826865" style="fill: #8c613c"/>
    </g>
    <g clip-path="url(#pa4e80ced8b)">
     <use xlink:href="#C1_0_581d5dfdd3" x="215.380234" y="277.462475" style="fill: #8c613c"/>
    </g>
    <g clip-path="url(#pa4e80ced8b)">
     <use xlink:href="#C1_0_581d5dfdd3" x="213.259688" y="276.239083" style="fill: #8c613c"/>
    </g>
   </g>
   <g id="PathCollection_4">
    <path d="M 272.937835 363.115455 
L 270.560194 364.842912 
L 271.468372 367.637997 
L 274.407298 367.637997 
L 275.315477 364.842912 
z
" clip-path="url(#pa4e80ced8b)" style="fill: #8c613c"/>
    <path d="M 281.561346 362.840535 
L 279.183705 364.567992 
L 280.091883 367.363077 
L 283.030809 367.363077 
L 283.938988 364.567992 
z
" clip-path="url(#pa4e80ced8b)" style="fill: #8c613c"/>
   </g>
   <g id="line2d_6"/>
   <g id="PathCollection_5">
    <path d="M 72.356924 349.427478 
L 77.356924 349.427478 
L 77.356924 344.427478 
L 72.356924 344.427478 
z
" clip-path="url(#pa4e80ced8b)" style="fill: #6c3baa"/>
    <path d="M 74.066758 357.298372 
L 79.066758 357.298372 
L 79.066758 352.298372 
L 74.066758 352.298372 
z
" clip-path="url(#pa4e80ced8b)" style="fill: #6c3baa"/>
    <path d="M 73.889885 353.014096 
L 78.889885 353.014096 
L 78.889885 348.014096 
L 73.889885 348.014096 
z
" clip-path="url(#pa4e80ced8b)" style="fill: #6c3baa"/>
    <path d="M 76.31786 349.291692 
L 81.31786 349.291692 
L 81.31786 344.291692 
L 76.31786 344.291692 
z
" clip-path="url(#pa4e80ced8b)" style="fill: #6c3baa"/>
    <path d="M 73.317596 350.939851 
L 78.317596 350.939851 
L 78.317596 345.939851 
L 73.317596 345.939851 
z
" clip-path="url(#pa4e80ced8b)" style="fill: #6c3baa"/>
   </g>
   <g id="PathCollection_6">
    <defs>
     <path id="m8e69569535" d="M -2.5 2.5 
L 2.5 2.5 
L 2.5 -2.5 
L -2.5 -2.5 
z
"/>
    </defs>
    <g clip-path="url(#pa4e80ced8b)">
     <use xlink:href="#m8e69569535" x="145.665" y="298.990406" style="fill: #6c3baa"/>
    </g>
   </g>
   <g id="PathCollection_7">
    <path d="M 213.177357 203.476465 
L 218.177357 203.476465 
L 218.177357 198.476465 
L 213.177357 198.476465 
z
" clip-path="url(#pa4e80ced8b)" style="fill: #6c3baa"/>
    <path d="M 203.795015 200.18483 
L 208.795015 200.18483 
L 208.795015 195.18483 
L 203.795015 195.18483 
z
" clip-path="url(#pa4e80ced8b)" style="fill: #6c3baa"/>
    <path d="M 206.973208 236.486463 
L 211.973208 236.486463 
L 211.973208 231.486463 
L 206.973208 231.486463 
z
" clip-path="url(#pa4e80ced8b)" style="fill: #6c3baa"/>
    <path d="M 204.323859 207.025625 
L 209.323859 207.025625 
L 209.323859 202.025625 
L 204.323859 202.025625 
z
" clip-path="url(#pa4e80ced8b)" style="fill: #6c3baa"/>
    <path d="M 211.711227 203.434325 
L 216.711227 203.434325 
L 216.711227 198.434325 
L 211.711227 198.434325 
z
" clip-path="url(#pa4e80ced8b)" style="fill: #6c3baa"/>
   </g>
   <g id="PathCollection_8">
    <path d="M 269.110213 57.572275 
L 274.110213 57.572275 
L 274.110213 52.572275 
L 269.110213 52.572275 
z
" clip-path="url(#pa4e80ced8b)" style="fill: #6c3baa"/>
    <path d="M 272.269118 60.793676 
L 277.269118 60.793676 
L 277.269118 55.793676 
L 272.269118 55.793676 
z
" clip-path="url(#pa4e80ced8b)" style="fill: #6c3baa"/>
    <path d="M 277.749251 78.333456 
L 282.749251 78.333456 
L 282.749251 73.333456 
L 277.749251 73.333456 
z
" clip-path="url(#pa4e80ced8b)" style="fill: #6c3baa"/>
    <path d="M 278.311643 76.44182 
L 283.311643 76.44182 
L 283.311643 71.44182 
L 278.311643 71.44182 
z
" clip-path="url(#pa4e80ced8b)" style="fill: #6c3baa"/>
    <path d="M 270.543159 112.518704 
L 275.543159 112.518704 
L 275.543159 107.518704 
L 270.543159 107.518704 
z
" clip-path="url(#pa4e80ced8b)" style="fill: #6c3baa"/>
   </g>
   <g id="line2d_7"/>
   <g id="PathCollection_9">
    <path d="M 81.00956 351.975385 
L 84.545094 348.439851 
L 81.00956 344.904317 
L 77.474026 348.439851 
z
" clip-path="url(#pa4e80ced8b)" style="fill: #dc7ec0"/>
    <path d="M 74.19013 350.714439 
L 77.725664 347.178905 
L 74.19013 343.643371 
L 70.654596 347.178905 
z
" clip-path="url(#pa4e80ced8b)" style="fill: #dc7ec0"/>
    <path d="M 79.448999 353.188963 
L 82.984533 349.65343 
L 79.448999 346.117896 
L 75.913465 349.65343 
z
" clip-path="url(#pa4e80ced8b)" style="fill: #dc7ec0"/>
    <path d="M 85.263289 350.810806 
L 88.798823 347.275272 
L 85.263289 343.739738 
L 81.727755 347.275272 
z
" clip-path="url(#pa4e80ced8b)" style="fill: #dc7ec0"/>
    <path d="M 82.141874 353.435599 
L 85.677408 349.900065 
L 82.141874 346.364531 
L 78.60634 349.900065 
z
" clip-path="url(#pa4e80ced8b)" style="fill: #dc7ec0"/>
   </g>
   <g id="PathCollection_10">
    <path d="M 149.765757 291.654146 
L 153.301291 288.118612 
L 149.765757 284.583078 
L 146.230223 288.118612 
z
" clip-path="url(#pa4e80ced8b)" style="fill: #dc7ec0"/>
    <path d="M 139.578325 295.174015 
L 143.113859 291.638481 
L 139.578325 288.102947 
L 136.042791 291.638481 
z
" clip-path="url(#pa4e80ced8b)" style="fill: #dc7ec0"/>
    <path d="M 146.429394 292.98696 
L 149.964928 289.451426 
L 146.429394 285.915892 
L 142.89386 289.451426 
z
" clip-path="url(#pa4e80ced8b)" style="fill: #dc7ec0"/>
    <path d="M 144.972797 291.910582 
L 148.508331 288.375048 
L 144.972797 284.839514 
L 141.437263 288.375048 
z
" clip-path="url(#pa4e80ced8b)" style="fill: #dc7ec0"/>
    <path d="M 149.358326 295.33735 
L 152.89386 291.801816 
L 149.358326 288.266282 
L 145.822792 291.801816 
z
" clip-path="url(#pa4e80ced8b)" style="fill: #dc7ec0"/>
   </g>
   <g id="PathCollection_11">
    <path d="M 212.681233 206.473325 
L 216.216767 202.937791 
L 212.681233 199.402257 
L 209.145699 202.937791 
z
" clip-path="url(#pa4e80ced8b)" style="fill: #dc7ec0"/>
    <path d="M 217.815409 201.130638 
L 221.350943 197.595104 
L 217.815409 194.05957 
L 214.279875 197.595104 
z
" clip-path="url(#pa4e80ced8b)" style="fill: #dc7ec0"/>
    <path d="M 213.784833 200.745168 
L 217.320367 197.209634 
L 213.784833 193.6741 
L 210.249299 197.209634 
z
" clip-path="url(#pa4e80ced8b)" style="fill: #dc7ec0"/>
    <path d="M 217.810549 198.608746 
L 221.346083 195.073212 
L 217.810549 191.537679 
L 214.275015 195.073212 
z
" clip-path="url(#pa4e80ced8b)" style="fill: #dc7ec0"/>
    <path d="M 217.7573 202.973057 
L 221.292834 199.437523 
L 217.7573 195.901989 
L 214.221766 199.437523 
z
" clip-path="url(#pa4e80ced8b)" style="fill: #dc7ec0"/>
   </g>
   <g id="PathCollection_12">
    <path d="M 284.534509 71.643573 
L 288.070043 68.108039 
L 284.534509 64.572505 
L 280.998975 68.108039 
z
" clip-path="url(#pa4e80ced8b)" style="fill: #dc7ec0"/>
    <path d="M 279.54044 63.965196 
L 283.075974 60.429662 
L 279.54044 56.894128 
L 276.004906 60.429662 
z
" clip-path="url(#pa4e80ced8b)" style="fill: #dc7ec0"/>
    <path d="M 279.202813 86.386187 
L 282.738347 82.850654 
L 279.202813 79.31512 
L 275.667279 82.850654 
z
" clip-path="url(#pa4e80ced8b)" style="fill: #dc7ec0"/>
    <path d="M 271.426182 101.107568 
L 274.961716 97.572035 
L 271.426182 94.036501 
L 267.890648 97.572035 
z
" clip-path="url(#pa4e80ced8b)" style="fill: #dc7ec0"/>
    <path d="M 273.986696 77.291696 
L 277.52223 73.756162 
L 273.986696 70.220628 
L 270.451162 73.756162 
z
" clip-path="url(#pa4e80ced8b)" style="fill: #dc7ec0"/>
   </g>
   <g id="line2d_8"/>
   <g id="PathCollection_13">
    <defs>
     <path id="C2_0_bda663dd80" d="M 0 2.5 
C 0.663008 2.5 1.29895 2.236584 1.767767 1.767767 
C 2.236584 1.29895 2.5 0.663008 2.5 -0 
C 2.5 -0.663008 2.236584 -1.29895 1.767767 -1.767767 
C 1.29895 -2.236584 0.663008 -2.5 0 -2.5 
C -0.663008 -2.5 -1.29895 -2.236584 -1.767767 -1.767767 
C -2.236584 -1.29895 -2.5 -0.663008 -2.5 0 
C -2.5 0.663008 -2.236584 1.29895 -1.767767 1.767767 
C -1.29895 2.236584 -0.663008 2.5 0 2.5 
z
"/>
    </defs>
    <g clip-path="url(#pa4e80ced8b)">
     <use xlink:href="#C2_0_bda663dd80" x="84.294528" y="350.173759" style="fill: #4878d0"/>
    </g>
    <g clip-path="url(#pa4e80ced8b)">
     <use xlink:href="#C2_0_bda663dd80" x="84.71125" y="347.956515" style="fill: #4878d0"/>
    </g>
    <g clip-path="url(#pa4e80ced8b)">
     <use xlink:href="#C2_0_bda663dd80" x="73.444913" y="348.439851" style="fill: #4878d0"/>
    </g>
    <g clip-path="url(#pa4e80ced8b)">
     <use xlink:href="#C2_0_bda663dd80" x="78.790752" y="350.422465" style="fill: #4878d0"/>
    </g>
    <g clip-path="url(#pa4e80ced8b)">
     <use xlink:href="#C2_0_bda663dd80" x="78.364926" y="347.961208" style="fill: #4878d0"/>
    </g>
   </g>
   <g id="PathCollection_14">
    <defs>
     <path id="C3_0_8da13e8c5e" d="M 0 2.5 
C 0.663008 2.5 1.29895 2.236584 1.767767 1.767767 
C 2.236584 1.29895 2.5 0.663008 2.5 -0 
C 2.5 -0.663008 2.236584 -1.29895 1.767767 -1.767767 
C 1.29895 -2.236584 0.663008 -2.5 0 -2.5 
C -0.663008 -2.5 -1.29895 -2.236584 -1.767767 -1.767767 
C -2.236584 -1.29895 -2.5 -0.663008 -2.5 0 
C -2.5 0.663008 -2.236584 1.29895 -1.767767 1.767767 
C -1.29895 2.236584 -0.663008 2.5 0 2.5 
z
"/>
    </defs>
    <g clip-path="url(#pa4e80ced8b)">
     <use xlink:href="#C3_0_8da13e8c5e" x="139.457597" y="306.936336" style="fill: #4878d0"/>
    </g>
    <g clip-path="url(#pa4e80ced8b)">
     <use xlink:href="#C3_0_8da13e8c5e" x="139.740777" y="305.491021" style="fill: #4878d0"/>
    </g>
    <g clip-path="url(#pa4e80ced8b)">
     <use xlink:href="#C3_0_8da13e8c5e" x="148.660552" y="307.121693" style="fill: #4878d0"/>
    </g>
    <g clip-path="url(#pa4e80ced8b)">
     <use xlink:href="#C3_0_8da13e8c5e" x="150.058765" y="308.88141" style="fill: #4878d0"/>
    </g>
    <g clip-path="url(#pa4e80ced8b)">
     <use xlink:href="#C3_0_8da13e8c5e" x="148.481815" y="304.644011" style="fill: #4878d0"/>
    </g>
   </g>
   <g id="PathCollection_15">
    <defs>
     <path id="C4_0_3be42b14f9" d="M 0 2.5 
C 0.663008 2.5 1.29895 2.236584 1.767767 1.767767 
C 2.236584 1.29895 2.5 0.663008 2.5 -0 
C 2.5 -0.663008 2.236584 -1.29895 1.767767 -1.767767 
C 1.29895 -2.236584 0.663008 -2.5 0 -2.5 
C -0.663008 -2.5 -1.29895 -2.236584 -1.767767 -1.767767 
C -2.236584 -1.29895 -2.5 -0.663008 -2.5 0 
C -2.5 0.663008 -2.236584 1.29895 -1.767767 1.767767 
C -1.29895 2.236584 -0.663008 2.5 0 2.5 
z
"/>
    </defs>
    <g clip-path="url(#pa4e80ced8b)">
     <use xlink:href="#C4_0_3be42b14f9" x="208.873028" y="261.432397" style="fill: #4878d0"/>
    </g>
    <g clip-path="url(#pa4e80ced8b)">
     <use xlink:href="#C4_0_3be42b14f9" x="212.430084" y="259.395818" style="fill: #4878d0"/>
    </g>
    <g clip-path="url(#pa4e80ced8b)">
     <use xlink:href="#C4_0_3be42b14f9" x="208.794705" y="271.563675" style="fill: #4878d0"/>
    </g>
    <g clip-path="url(#pa4e80ced8b)">
     <use xlink:href="#C4_0_3be42b14f9" x="212.707536" y="259.290235" style="fill: #4878d0"/>
    </g>
    <g clip-path="url(#pa4e80ced8b)">
     <use xlink:href="#C4_0_3be42b14f9" x="210.500966" y="268.307025" style="fill: #4878d0"/>
    </g>
   </g>
   <g id="PathCollection_16">
    <defs>
     <path id="C5_0_c2a6df4de6" d="M 0 2.5 
C 0.663008 2.5 1.29895 2.236584 1.767767 1.767767 
C 2.236584 1.29895 2.5 0.663008 2.5 -0 
C 2.5 -0.663008 2.236584 -1.29895 1.767767 -1.767767 
C 1.29895 -2.236584 0.663008 -2.5 0 -2.5 
C -0.663008 -2.5 -1.29895 -2.236584 -1.767767 -1.767767 
C -2.236584 -1.29895 -2.5 -0.663008 -2.5 0 
C -2.5 0.663008 -2.236584 1.29895 -1.767767 1.767767 
C -1.29895 2.236584 -0.663008 2.5 0 2.5 
z
"/>
    </defs>
    <g clip-path="url(#pa4e80ced8b)">
     <use xlink:href="#C5_0_c2a6df4de6" x="275.472926" y="251.308158" style="fill: #4878d0"/>
    </g>
    <g clip-path="url(#pa4e80ced8b)">
     <use xlink:href="#C5_0_c2a6df4de6" x="283.390477" y="242.047353" style="fill: #4878d0"/>
    </g>
    <g clip-path="url(#pa4e80ced8b)">
     <use xlink:href="#C5_0_c2a6df4de6" x="281.511732" y="248.16413" style="fill: #4878d0"/>
    </g>
    <g clip-path="url(#pa4e80ced8b)">
     <use xlink:href="#C5_0_c2a6df4de6" x="277.139184" y="242.863862" style="fill: #4878d0"/>
    </g>
   </g>
   <g id="line2d_9"/>
   <g id="PathCollection_17">
    <path d="M 83.195479 345.139078 
L 80.695479 350.139078 
L 85.695479 350.139078 
z
" clip-path="url(#pa4e80ced8b)" style="fill: #ee854a"/>
    <path d="M 77.748931 345.939851 
L 75.248931 350.939851 
L 80.248931 350.939851 
z
" clip-path="url(#pa4e80ced8b)" style="fill: #ee854a"/>
    <path d="M 84.44847 361.027383 
L 81.94847 366.027383 
L 86.94847 366.027383 
z
" clip-path="url(#pa4e80ced8b)" style="fill: #ee854a"/>
    <path d="M 83.849306 349.522136 
L 81.349306 354.522136 
L 86.349306 354.522136 
z
" clip-path="url(#pa4e80ced8b)" style="fill: #ee854a"/>
    <path d="M 76.411653 345.919776 
L 73.911653 350.919776 
L 78.911653 350.919776 
z
" clip-path="url(#pa4e80ced8b)" style="fill: #ee854a"/>
   </g>
   <g id="PathCollection_18">
    <path d="M 144.600439 290.465735 
L 142.100439 295.465735 
L 147.100439 295.465735 
z
" clip-path="url(#pa4e80ced8b)" style="fill: #ee854a"/>
    <path d="M 141.69505 297.119506 
L 139.19505 302.119506 
L 144.19505 302.119506 
z
" clip-path="url(#pa4e80ced8b)" style="fill: #ee854a"/>
    <path d="M 145.055885 289.551204 
L 142.555885 294.551204 
L 147.555885 294.551204 
z
" clip-path="url(#pa4e80ced8b)" style="fill: #ee854a"/>
    <path d="M 141.666929 290.24937 
L 139.166929 295.24937 
L 144.166929 295.24937 
z
" clip-path="url(#pa4e80ced8b)" style="fill: #ee854a"/>
    <path d="M 145.091264 295.100846 
L 142.591264 300.100846 
L 147.591264 300.100846 
z
" clip-path="url(#pa4e80ced8b)" style="fill: #ee854a"/>
   </g>
   <g id="PathCollection_19">
    <path d="M 214.620706 208.581746 
L 212.120706 213.581746 
L 217.120706 213.581746 
z
" clip-path="url(#pa4e80ced8b)" style="fill: #ee854a"/>
    <path d="M 213.295129 233.394535 
L 210.795129 238.394535 
L 215.795129 238.394535 
z
" clip-path="url(#pa4e80ced8b)" style="fill: #ee854a"/>
    <path d="M 211.803748 211.891902 
L 209.303748 216.891902 
L 214.303748 216.891902 
z
" clip-path="url(#pa4e80ced8b)" style="fill: #ee854a"/>
    <path d="M 215.254613 207.905885 
L 212.754613 212.905885 
L 217.754613 212.905885 
z
" clip-path="url(#pa4e80ced8b)" style="fill: #ee854a"/>
    <path d="M 215.539539 210.73647 
L 213.039539 215.73647 
L 218.039539 215.73647 
z
" clip-path="url(#pa4e80ced8b)" style="fill: #ee854a"/>
   </g>
   <g id="PathCollection_20">
    <path d="M 281.129142 82.438915 
L 278.629142 87.438915 
L 283.629142 87.438915 
z
" clip-path="url(#pa4e80ced8b)" style="fill: #ee854a"/>
    <path d="M 283.095858 98.260302 
L 280.595858 103.260302 
L 285.595858 103.260302 
z
" clip-path="url(#pa4e80ced8b)" style="fill: #ee854a"/>
    <path d="M 278.520138 157.979181 
L 276.020138 162.979181 
L 281.020138 162.979181 
z
" clip-path="url(#pa4e80ced8b)" style="fill: #ee854a"/>
    <path d="M 272.986248 146.386942 
L 270.486248 151.386942 
L 275.486248 151.386942 
z
" clip-path="url(#pa4e80ced8b)" style="fill: #ee854a"/>
    <path d="M 284.421187 115.852757 
L 281.921187 120.852757 
L 286.921187 120.852757 
z
" clip-path="url(#pa4e80ced8b)" style="fill: #ee854a"/>
   </g>
   <g id="line2d_10"/>
   <g id="PathCollection_21">
    <path d="M 80.98112 333.567308 
L 85.98112 336.067308 
L 85.98112 331.067308 
z
" clip-path="url(#pa4e80ced8b)" style="fill: #d65f5f"/>
    <path d="M 70.556599 360.062407 
L 75.556599 362.562407 
L 75.556599 357.562407 
z
" clip-path="url(#pa4e80ced8b)" style="fill: #d65f5f"/>
    <path d="M 79.189156 364.91935 
L 84.189156 367.41935 
L 84.189156 362.41935 
z
" clip-path="url(#pa4e80ced8b)" style="fill: #d65f5f"/>
    <path d="M 82.134723 348.439851 
L 87.134723 350.939851 
L 87.134723 345.939851 
z
" clip-path="url(#pa4e80ced8b)" style="fill: #d65f5f"/>
    <path d="M 73.705767 347.465838 
L 78.705767 349.965838 
L 78.705767 344.965838 
z
" clip-path="url(#pa4e80ced8b)" style="fill: #d65f5f"/>
   </g>
   <g id="PathCollection_22">
    <path d="M 140.345681 336.089245 
L 145.345681 338.589245 
L 145.345681 333.589245 
z
" clip-path="url(#pa4e80ced8b)" style="fill: #d65f5f"/>
    <path d="M 141.303254 331.497942 
L 146.303254 333.997942 
L 146.303254 328.997942 
z
" clip-path="url(#pa4e80ced8b)" style="fill: #d65f5f"/>
    <path d="M 146.078815 347.793789 
L 151.078815 350.293789 
L 151.078815 345.293789 
z
" clip-path="url(#pa4e80ced8b)" style="fill: #d65f5f"/>
    <path d="M 147.368735 343.353343 
L 152.368735 345.853343 
L 152.368735 340.853343 
z
" clip-path="url(#pa4e80ced8b)" style="fill: #d65f5f"/>
    <path d="M 140.382525 341.057691 
L 145.382525 343.557691 
L 145.382525 338.557691 
z
" clip-path="url(#pa4e80ced8b)" style="fill: #d65f5f"/>
   </g>
   <g id="PathCollection_23">
    <path d="M 205.359776 263.658157 
L 210.359776 266.158157 
L 210.359776 261.158157 
z
" clip-path="url(#pa4e80ced8b)" style="fill: #d65f5f"/>
    <path d="M 207.650245 223.248129 
L 212.650245 225.748129 
L 212.650245 220.748129 
z
" clip-path="url(#pa4e80ced8b)" style="fill: #d65f5f"/>
    <path d="M 204.544243 211.254989 
L 209.544243 213.754989 
L 209.544243 208.754989 
z
" clip-path="url(#pa4e80ced8b)" style="fill: #d65f5f"/>
    <path d="M 204.342219 184.143344 
L 209.342219 186.643344 
L 209.342219 181.643344 
z
" clip-path="url(#pa4e80ced8b)" style="fill: #d65f5f"/>
    <path d="M 209.559574 211.838741 
L 214.559574 214.338741 
L 214.559574 209.338741 
z
" clip-path="url(#pa4e80ced8b)" style="fill: #d65f5f"/>
    <path d="M 209.748753 236.566188 
L 214.748753 239.066188 
L 214.748753 234.066188 
z
" clip-path="url(#pa4e80ced8b)" style="fill: #d65f5f"/>
   </g>
   <g id="PathCollection_24">
    <path d="M 277.063759 302.05129 
L 282.063759 304.55129 
L 282.063759 299.55129 
z
" clip-path="url(#pa4e80ced8b)" style="fill: #d65f5f"/>
    <path d="M 272.983197 43.777365 
L 277.983197 46.277365 
L 277.983197 41.277365 
z
" clip-path="url(#pa4e80ced8b)" style="fill: #d65f5f"/>
    <path d="M 280.334082 42.324545 
L 285.334082 44.824545 
L 285.334082 39.824545 
z
" clip-path="url(#pa4e80ced8b)" style="fill: #d65f5f"/>
    <path d="M 281.202649 273.867248 
L 286.202649 276.367248 
L 286.202649 271.367248 
z
" clip-path="url(#pa4e80ced8b)" style="fill: #d65f5f"/>
    <path d="M 270.763343 298.09949 
L 275.763343 300.59949 
L 275.763343 295.59949 
z
" clip-path="url(#pa4e80ced8b)" style="fill: #d65f5f"/>
    <path d="M 277.318922 51.497313 
L 282.318922 53.997313 
L 282.318922 48.997313 
z
" clip-path="url(#pa4e80ced8b)" style="fill: #d65f5f"/>
    <path d="M 279.656557 254.898606 
L 284.656557 257.398606 
L 284.656557 252.398606 
z
" clip-path="url(#pa4e80ced8b)" style="fill: #d65f5f"/>
    <path d="M 271.141695 270.299149 
L 276.141695 272.799149 
L 276.141695 267.799149 
z
" clip-path="url(#pa4e80ced8b)" style="fill: #d65f5f"/>
    <path d="M 278.150973 47.535675 
L 283.150973 50.035675 
L 283.150973 45.035675 
z
" clip-path="url(#pa4e80ced8b)" style="fill: #d65f5f"/>
    <path d="M 273.927233 287.903517 
L 278.927233 290.403517 
L 278.927233 285.403517 
z
" clip-path="url(#pa4e80ced8b)" style="fill: #d65f5f"/>
    <path d="M 272.986532 118.86485 
L 277.986532 121.36485 
L 277.986532 116.36485 
z
" clip-path="url(#pa4e80ced8b)" style="fill: #d65f5f"/>
   </g>
   <g id="line2d_11"/>
   <g id="PathCollection_25">
    <path d="M 76.239467 351.282236 
L 78.360787 347.746702 
L 76.239467 344.211168 
L 74.118146 347.746702 
z
" clip-path="url(#pa4e80ced8b)" style="fill: #008000"/>
    <path d="M 74.664981 351.975385 
L 76.786301 348.439851 
L 74.664981 344.904317 
L 72.543661 348.439851 
z
" clip-path="url(#pa4e80ced8b)" style="fill: #008000"/>
    <path d="M 81.914961 359.401538 
L 84.036281 355.866004 
L 81.914961 352.33047 
L 79.793641 355.866004 
z
" clip-path="url(#pa4e80ced8b)" style="fill: #008000"/>
    <path d="M 85.532804 352.378449 
L 87.654125 348.842915 
L 85.532804 345.307381 
L 83.411484 348.842915 
z
" clip-path="url(#pa4e80ced8b)" style="fill: #008000"/>
    <path d="M 79.129631 351.477661 
L 81.250951 347.942127 
L 79.129631 344.406593 
L 77.00831 347.942127 
z
" clip-path="url(#pa4e80ced8b)" style="fill: #008000"/>
   </g>
   <g id="PathCollection_26">
    <path d="M 142.698153 322.701316 
L 144.819473 319.165782 
L 142.698153 315.630248 
L 140.576832 319.165782 
z
" clip-path="url(#pa4e80ced8b)" style="fill: #008000"/>
    <path d="M 150.003057 321.400518 
L 152.124378 317.864984 
L 150.003057 314.32945 
L 147.881737 317.864984 
z
" clip-path="url(#pa4e80ced8b)" style="fill: #008000"/>
    <path d="M 141.332883 329.721352 
L 143.454203 326.185818 
L 141.332883 322.650284 
L 139.211562 326.185818 
z
" clip-path="url(#pa4e80ced8b)" style="fill: #008000"/>
    <path d="M 151.221354 322.942544 
L 153.342674 319.40701 
L 151.221354 315.871476 
L 149.100033 319.40701 
z
" clip-path="url(#pa4e80ced8b)" style="fill: #008000"/>
    <path d="M 141.060012 322.09672 
L 143.181332 318.561186 
L 141.060012 315.025652 
L 138.938691 318.561186 
z
" clip-path="url(#pa4e80ced8b)" style="fill: #008000"/>
   </g>
   <g id="PathCollection_27">
    <path d="M 216.339238 306.783332 
L 218.460559 303.247798 
L 216.339238 299.712264 
L 214.217918 303.247798 
z
" clip-path="url(#pa4e80ced8b)" style="fill: #008000"/>
    <path d="M 208.503475 302.181681 
L 210.624795 298.646147 
L 208.503475 295.110614 
L 206.382154 298.646147 
z
" clip-path="url(#pa4e80ced8b)" style="fill: #008000"/>
    <path d="M 207.248598 302.056487 
L 209.369919 298.520953 
L 207.248598 294.985419 
L 205.127278 298.520953 
z
" clip-path="url(#pa4e80ced8b)" style="fill: #008000"/>
   </g>
   <g id="PathCollection_28">
    <defs>
     <path id="m387d2e6ac3" d="M -0 3.535534 
L 2.12132 0 
L 0 -3.535534 
L -2.12132 -0 
z
"/>
    </defs>
    <g clip-path="url(#pa4e80ced8b)">
     <use xlink:href="#m387d2e6ac3" x="277.965" y="294.065872" style="fill: #008000"/>
    </g>
   </g>
   <g id="line2d_12"/>
   <g id="text_12">
    <!-- LAMMPS M/Atom Steps per Second 64x64x32 (CPU) Speedup -->
    <g style="fill: #262626" transform="translate(40.796016 20.16) scale(0.09 -0.09)">
     <defs>
      <path id="DejaVuSans-4c" d="M 628 4666 
L 1259 4666 
L 1259 531 
L 3531 531 
L 3531 0 
L 628 0 
L 628 4666 
z
" transform="scale(0.015625)"/>
      <path id="DejaVuSans-50" d="M 1259 4147 
L 1259 2394 
L 2053 2394 
Q 2494 2394 2734 2622 
Q 2975 2850 2975 3272 
Q 2975 3691 2734 3919 
Q 2494 4147 2053 4147 
L 1259 4147 
z
M 628 4666 
L 2053 4666 
Q 2838 4666 3239 4311 
Q 3641 3956 3641 3272 
Q 3641 2581 3239 2228 
Q 2838 1875 2053 1875 
L 1259 1875 
L 1259 0 
L 628 0 
L 628 4666 
z
" transform="scale(0.015625)"/>
      <path id="DejaVuSans-2f" d="M 1625 4666 
L 2156 4666 
L 531 -594 
L 0 -594 
L 1625 4666 
z
" transform="scale(0.015625)"/>
      <path id="DejaVuSans-78" d="M 3513 3500 
L 2247 1797 
L 3578 0 
L 2900 0 
L 1881 1375 
L 863 0 
L 184 0 
L 1544 1831 
L 300 3500 
L 978 3500 
L 1906 2253 
L 2834 3500 
L 3513 3500 
z
" transform="scale(0.015625)"/>
      <path id="DejaVuSans-43" d="M 4122 4306 
L 4122 3641 
Q 3803 3938 3442 4084 
Q 3081 4231 2675 4231 
Q 1875 4231 1450 3742 
Q 1025 3253 1025 2328 
Q 1025 1406 1450 917 
Q 1875 428 2675 428 
Q 3081 428 3442 575 
Q 3803 722 4122 1019 
L 4122 359 
Q 3791 134 3420 21 
Q 3050 -91 2638 -91 
Q 1578 -91 968 557 
Q 359 1206 359 2328 
Q 359 3453 968 4101 
Q 1578 4750 2638 4750 
Q 3056 4750 3426 4639 
Q 3797 4528 4122 4306 
z
" transform="scale(0.015625)"/>
      <path id="DejaVuSans-55" d="M 556 4666 
L 1191 4666 
L 1191 1831 
Q 1191 1081 1462 751 
Q 1734 422 2344 422 
Q 2950 422 3222 751 
Q 3494 1081 3494 1831 
L 3494 4666 
L 4128 4666 
L 4128 1753 
Q 4128 841 3676 375 
Q 3225 -91 2344 -91 
Q 1459 -91 1007 375 
Q 556 841 556 1753 
L 556 4666 
z
" transform="scale(0.015625)"/>
     </defs>
     <use xlink:href="#DejaVuSans-4c"/>
     <use xlink:href="#DejaVuSans-41" x="57.962891"/>
     <use xlink:href="#DejaVuSans-4d" x="126.371094"/>
     <use xlink:href="#DejaVuSans-4d" x="212.650391"/>
     <use xlink:href="#DejaVuSans-50" x="298.929688"/>
     <use xlink:href="#DejaVuSans-53" x="359.232422"/>
     <use xlink:href="#DejaVuSans-20" x="422.708984"/>
     <use xlink:href="#DejaVuSans-4d" x="454.496094"/>
     <use xlink:href="#DejaVuSans-2f" x="540.775391"/>
     <use xlink:href="#DejaVuSans-41" x="574.466797"/>
     <use xlink:href="#DejaVuSans-74" x="641.125"/>
     <use xlink:href="#DejaVuSans-6f" x="680.333984"/>
     <use xlink:href="#DejaVuSans-6d" x="741.515625"/>
     <use xlink:href="#DejaVuSans-20" x="838.927734"/>
     <use xlink:href="#DejaVuSans-53" x="870.714844"/>
     <use xlink:href="#DejaVuSans-74" x="934.191406"/>
     <use xlink:href="#DejaVuSans-65" x="973.400391"/>
     <use xlink:href="#DejaVuSans-70" x="1034.923828"/>
     <use xlink:href="#DejaVuSans-73" x="1098.400391"/>
     <use xlink:href="#DejaVuSans-20" x="1150.5"/>
     <use xlink:href="#DejaVuSans-70" x="1182.287109"/>
     <use xlink:href="#DejaVuSans-65" x="1245.763672"/>
     <use xlink:href="#DejaVuSans-72" x="1307.287109"/>
     <use xlink:href="#DejaVuSans-20" x="1348.400391"/>
     <use xlink:href="#DejaVuSans-53" x="1380.1875"/>
     <use xlink:href="#DejaVuSans-65" x="1443.664062"/>
     <use xlink:href="#DejaVuSans-63" x="1505.1875"/>
     <use xlink:href="#DejaVuSans-6f" x="1560.167969"/>
     <use xlink:href="#DejaVuSans-6e" x="1621.349609"/>
     <use xlink:href="#DejaVuSans-64" x="1684.728516"/>
     <use xlink:href="#DejaVuSans-20" x="1748.205078"/>
     <use xlink:href="#DejaVuSans-36" x="1779.992188"/>
     <use xlink:href="#DejaVuSans-34" x="1843.615234"/>
     <use xlink:href="#DejaVuSans-78" x="1907.238281"/>
     <use xlink:href="#DejaVuSans-36" x="1966.417969"/>
     <use xlink:href="#DejaVuSans-34" x="2030.041016"/>
     <use xlink:href="#DejaVuSans-78" x="2093.664062"/>
     <use xlink:href="#DejaVuSans-33" x="2152.84375"/>
     <use xlink:href="#DejaVuSans-32" x="2216.466797"/>
     <use xlink:href="#DejaVuSans-20" x="2280.089844"/>
     <use xlink:href="#DejaVuSans-28" x="2311.876953"/>
     <use xlink:href="#DejaVuSans-43" x="2350.890625"/>
     <use xlink:href="#DejaVuSans-50" x="2420.714844"/>
     <use xlink:href="#DejaVuSans-55" x="2481.017578"/>
     <use xlink:href="#DejaVuSans-29" x="2554.210938"/>
     <use xlink:href="#DejaVuSans-20" x="2593.224609"/>
     <use xlink:href="#DejaVuSans-53" x="2625.011719"/>
     <use xlink:href="#DejaVuSans-70" x="2688.488281"/>
     <use xlink:href="#DejaVuSans-65" x="2751.964844"/>
     <use xlink:href="#DejaVuSans-65" x="2813.488281"/>
     <use xlink:href="#DejaVuSans-64" x="2875.011719"/>
     <use xlink:href="#DejaVuSans-75" x="2938.488281"/>
     <use xlink:href="#DejaVuSans-70" x="3001.867188"/>
    </g>
   </g>
   <g id="legend_1">
    <g id="patch_7">
     <path d="M 54.14 147.981562 
L 244.022344 147.981562 
Q 246.222344 147.981562 246.222344 145.781563 
L 246.222344 33.86 
Q 246.222344 31.66 244.022344 31.66 
L 54.14 31.66 
Q 51.94 31.66 51.94 33.86 
L 51.94 145.781563 
Q 51.94 147.981562 54.14 147.981562 
z
" style="fill: #ffffff; opacity: 0.8; stroke: #cccccc; stroke-linejoin: miter"/>
    </g>
    <g id="line2d_13">
     <defs>
      <path id="m9fb1c32252" d="M 0 -2.5 
L -2.377641 -0.772542 
L -1.469463 2.022542 
L 1.469463 2.022542 
L 2.377641 -0.772542 
z
"/>
     </defs>
     <g>
      <use xlink:href="#m9fb1c32252" x="67.34" y="40.568281" style="fill: #8c613c"/>
     </g>
    </g>
    <g id="text_13">
     <!-- google/gke/cpu -->
     <g style="fill: #262626" transform="translate(87.14 44.418281) scale(0.11 -0.11)">
      <defs>
       <path id="DejaVuSans-67" d="M 2906 1791 
Q 2906 2416 2648 2759 
Q 2391 3103 1925 3103 
Q 1463 3103 1205 2759 
Q 947 2416 947 1791 
Q 947 1169 1205 825 
Q 1463 481 1925 481 
Q 2391 481 2648 825 
Q 2906 1169 2906 1791 
z
M 3481 434 
Q 3481 -459 3084 -895 
Q 2688 -1331 1869 -1331 
Q 1566 -1331 1297 -1286 
Q 1028 -1241 775 -1147 
L 775 -588 
Q 1028 -725 1275 -790 
Q 1522 -856 1778 -856 
Q 2344 -856 2625 -561 
Q 2906 -266 2906 331 
L 2906 616 
Q 2728 306 2450 153 
Q 2172 0 1784 0 
Q 1141 0 747 490 
Q 353 981 353 1791 
Q 353 2603 747 3093 
Q 1141 3584 1784 3584 
Q 2172 3584 2450 3431 
Q 2728 3278 2906 2969 
L 2906 3500 
L 3481 3500 
L 3481 434 
z
" transform="scale(0.015625)"/>
       <path id="DejaVuSans-6b" d="M 581 4863 
L 1159 4863 
L 1159 1991 
L 2875 3500 
L 3609 3500 
L 1753 1863 
L 3688 0 
L 2938 0 
L 1159 1709 
L 1159 0 
L 581 0 
L 581 4863 
z
" transform="scale(0.015625)"/>
      </defs>
      <use xlink:href="#DejaVuSans-67"/>
      <use xlink:href="#DejaVuSans-6f" x="63.476562"/>
      <use xlink:href="#DejaVuSans-6f" x="124.658203"/>
      <use xlink:href="#DejaVuSans-67" x="185.839844"/>
      <use xlink:href="#DejaVuSans-6c" x="249.316406"/>
      <use xlink:href="#DejaVuSans-65" x="277.099609"/>
      <use xlink:href="#DejaVuSans-2f" x="338.623047"/>
      <use xlink:href="#DejaVuSans-67" x="372.314453"/>
      <use xlink:href="#DejaVuSans-6b" x="435.791016"/>
      <use xlink:href="#DejaVuSans-65" x="490.076172"/>
      <use xlink:href="#DejaVuSans-2f" x="551.599609"/>
      <use xlink:href="#DejaVuSans-63" x="585.291016"/>
      <use xlink:href="#DejaVuSans-70" x="640.271484"/>
      <use xlink:href="#DejaVuSans-75" x="703.748047"/>
     </g>
    </g>
    <g id="line2d_14">
     <g>
      <use xlink:href="#m8e69569535" x="67.34" y="56.714219" style="fill: #6c3baa"/>
     </g>
    </g>
    <g id="text_14">
     <!-- google/compute-engine/cpu -->
     <g style="fill: #262626" transform="translate(87.14 60.564219) scale(0.11 -0.11)">
      <defs>
       <path id="DejaVuSans-2d" d="M 313 2009 
L 1997 2009 
L 1997 1497 
L 313 1497 
L 313 2009 
z
" transform="scale(0.015625)"/>
      </defs>
      <use xlink:href="#DejaVuSans-67"/>
      <use xlink:href="#DejaVuSans-6f" x="63.476562"/>
      <use xlink:href="#DejaVuSans-6f" x="124.658203"/>
      <use xlink:href="#DejaVuSans-67" x="185.839844"/>
      <use xlink:href="#DejaVuSans-6c" x="249.316406"/>
      <use xlink:href="#DejaVuSans-65" x="277.099609"/>
      <use xlink:href="#DejaVuSans-2f" x="338.623047"/>
      <use xlink:href="#DejaVuSans-63" x="372.314453"/>
      <use xlink:href="#DejaVuSans-6f" x="427.294922"/>
      <use xlink:href="#DejaVuSans-6d" x="488.476562"/>
      <use xlink:href="#DejaVuSans-70" x="585.888672"/>
      <use xlink:href="#DejaVuSans-75" x="649.365234"/>
      <use xlink:href="#DejaVuSans-74" x="712.744141"/>
      <use xlink:href="#DejaVuSans-65" x="751.953125"/>
      <use xlink:href="#DejaVuSans-2d" x="813.476562"/>
      <use xlink:href="#DejaVuSans-65" x="849.560547"/>
      <use xlink:href="#DejaVuSans-6e" x="911.083984"/>
      <use xlink:href="#DejaVuSans-67" x="974.462891"/>
      <use xlink:href="#DejaVuSans-69" x="1037.939453"/>
      <use xlink:href="#DejaVuSans-6e" x="1065.722656"/>
      <use xlink:href="#DejaVuSans-65" x="1129.101562"/>
      <use xlink:href="#DejaVuSans-2f" x="1190.625"/>
      <use xlink:href="#DejaVuSans-63" x="1224.316406"/>
      <use xlink:href="#DejaVuSans-70" x="1279.296875"/>
      <use xlink:href="#DejaVuSans-75" x="1342.773438"/>
     </g>
    </g>
    <g id="line2d_15">
     <defs>
      <path id="mdfd37fee73" d="M -0 3.535534 
L 3.535534 0 
L 0 -3.535534 
L -3.535534 -0 
z
"/>
     </defs>
     <g>
      <use xlink:href="#mdfd37fee73" x="67.34" y="72.860156" style="fill: #dc7ec0"/>
     </g>
    </g>
    <g id="text_15">
     <!-- on-premises/a/cpu -->
     <g style="fill: #262626" transform="translate(87.14 76.710156) scale(0.11 -0.11)">
      <defs>
       <path id="DejaVuSans-61" d="M 2194 1759 
Q 1497 1759 1228 1600 
Q 959 1441 959 1056 
Q 959 750 1161 570 
Q 1363 391 1709 391 
Q 2188 391 2477 730 
Q 2766 1069 2766 1631 
L 2766 1759 
L 2194 1759 
z
M 3341 1997 
L 3341 0 
L 2766 0 
L 2766 531 
Q 2569 213 2275 61 
Q 1981 -91 1556 -91 
Q 1019 -91 701 211 
Q 384 513 384 1019 
Q 384 1609 779 1909 
Q 1175 2209 1959 2209 
L 2766 2209 
L 2766 2266 
Q 2766 2663 2505 2880 
Q 2244 3097 1772 3097 
Q 1472 3097 1187 3025 
Q 903 2953 641 2809 
L 641 3341 
Q 956 3463 1253 3523 
Q 1550 3584 1831 3584 
Q 2591 3584 2966 3190 
Q 3341 2797 3341 1997 
z
" transform="scale(0.015625)"/>
      </defs>
      <use xlink:href="#DejaVuSans-6f"/>
      <use xlink:href="#DejaVuSans-6e" x="61.181641"/>
      <use xlink:href="#DejaVuSans-2d" x="124.560547"/>
      <use xlink:href="#DejaVuSans-70" x="160.644531"/>
      <use xlink:href="#DejaVuSans-72" x="224.121094"/>
      <use xlink:href="#DejaVuSans-65" x="262.984375"/>
      <use xlink:href="#DejaVuSans-6d" x="324.507812"/>
      <use xlink:href="#DejaVuSans-69" x="421.919922"/>
      <use xlink:href="#DejaVuSans-73" x="449.703125"/>
      <use xlink:href="#DejaVuSans-65" x="501.802734"/>
      <use xlink:href="#DejaVuSans-73" x="563.326172"/>
      <use xlink:href="#DejaVuSans-2f" x="615.425781"/>
      <use xlink:href="#DejaVuSans-61" x="649.117188"/>
      <use xlink:href="#DejaVuSans-2f" x="710.396484"/>
      <use xlink:href="#DejaVuSans-63" x="744.087891"/>
      <use xlink:href="#DejaVuSans-70" x="799.068359"/>
      <use xlink:href="#DejaVuSans-75" x="862.544922"/>
     </g>
    </g>
    <g id="line2d_16">
     <defs>
      <path id="m24da56d187" d="M 0 2.5 
C 0.663008 2.5 1.29895 2.236584 1.767767 1.767767 
C 2.236584 1.29895 2.5 0.663008 2.5 0 
C 2.5 -0.663008 2.236584 -1.29895 1.767767 -1.767767 
C 1.29895 -2.236584 0.663008 -2.5 0 -2.5 
C -0.663008 -2.5 -1.29895 -2.236584 -1.767767 -1.767767 
C -2.236584 -1.29895 -2.5 -0.663008 -2.5 0 
C -2.5 0.663008 -2.236584 1.29895 -1.767767 1.767767 
C -1.29895 2.236584 -0.663008 2.5 0 2.5 
z
"/>
     </defs>
     <g>
      <use xlink:href="#m24da56d187" x="67.34" y="89.006094" style="fill: #4878d0"/>
     </g>
    </g>
    <g id="text_16">
     <!-- aws/eks/cpu -->
     <g style="fill: #262626" transform="translate(87.14 92.856094) scale(0.11 -0.11)">
      <defs>
       <path id="DejaVuSans-77" d="M 269 3500 
L 844 3500 
L 1563 769 
L 2278 3500 
L 2956 3500 
L 3675 769 
L 4391 3500 
L 4966 3500 
L 4050 0 
L 3372 0 
L 2619 2869 
L 1863 0 
L 1184 0 
L 269 3500 
z
" transform="scale(0.015625)"/>
      </defs>
      <use xlink:href="#DejaVuSans-61"/>
      <use xlink:href="#DejaVuSans-77" x="61.279297"/>
      <use xlink:href="#DejaVuSans-73" x="143.066406"/>
      <use xlink:href="#DejaVuSans-2f" x="195.166016"/>
      <use xlink:href="#DejaVuSans-65" x="228.857422"/>
      <use xlink:href="#DejaVuSans-6b" x="290.380859"/>
      <use xlink:href="#DejaVuSans-73" x="348.291016"/>
      <use xlink:href="#DejaVuSans-2f" x="400.390625"/>
      <use xlink:href="#DejaVuSans-63" x="434.082031"/>
      <use xlink:href="#DejaVuSans-70" x="489.0625"/>
      <use xlink:href="#DejaVuSans-75" x="552.539062"/>
     </g>
    </g>
    <g id="line2d_17">
     <defs>
      <path id="med9b190d63" d="M 0 -2.5 
L -2.5 2.5 
L 2.5 2.5 
z
"/>
     </defs>
     <g>
      <use xlink:href="#med9b190d63" x="67.34" y="105.152031" style="fill: #ee854a"/>
     </g>
    </g>
    <g id="text_17">
     <!-- aws/parallel-cluster/cpu -->
     <g style="fill: #262626" transform="translate(87.14 109.002031) scale(0.11 -0.11)">
      <use xlink:href="#DejaVuSans-61"/>
      <use xlink:href="#DejaVuSans-77" x="61.279297"/>
      <use xlink:href="#DejaVuSans-73" x="143.066406"/>
      <use xlink:href="#DejaVuSans-2f" x="195.166016"/>
      <use xlink:href="#DejaVuSans-70" x="228.857422"/>
      <use xlink:href="#DejaVuSans-61" x="292.333984"/>
      <use xlink:href="#DejaVuSans-72" x="353.613281"/>
      <use xlink:href="#DejaVuSans-61" x="394.726562"/>
      <use xlink:href="#DejaVuSans-6c" x="456.005859"/>
      <use xlink:href="#DejaVuSans-6c" x="483.789062"/>
      <use xlink:href="#DejaVuSans-65" x="511.572266"/>
      <use xlink:href="#DejaVuSans-6c" x="573.095703"/>
      <use xlink:href="#DejaVuSans-2d" x="600.878906"/>
      <use xlink:href="#DejaVuSans-63" x="636.962891"/>
      <use xlink:href="#DejaVuSans-6c" x="691.943359"/>
      <use xlink:href="#DejaVuSans-75" x="719.726562"/>
      <use xlink:href="#DejaVuSans-73" x="783.105469"/>
      <use xlink:href="#DejaVuSans-74" x="835.205078"/>
      <use xlink:href="#DejaVuSans-65" x="874.414062"/>
      <use xlink:href="#DejaVuSans-72" x="935.9375"/>
      <use xlink:href="#DejaVuSans-2f" x="977.050781"/>
      <use xlink:href="#DejaVuSans-63" x="1010.742188"/>
      <use xlink:href="#DejaVuSans-70" x="1065.722656"/>
      <use xlink:href="#DejaVuSans-75" x="1129.199219"/>
     </g>
    </g>
    <g id="line2d_18">
     <defs>
      <path id="m1e4ee32e6a" d="M -2.5 -0 
L 2.5 2.5 
L 2.5 -2.5 
z
"/>
     </defs>
     <g>
      <use xlink:href="#m1e4ee32e6a" x="67.34" y="121.297969" style="fill: #d65f5f"/>
     </g>
    </g>
    <g id="text_18">
     <!-- azure/cyclecloud/cpu -->
     <g style="fill: #262626" transform="translate(87.14 125.147969) scale(0.11 -0.11)">
      <defs>
       <path id="DejaVuSans-7a" d="M 353 3500 
L 3084 3500 
L 3084 2975 
L 922 459 
L 3084 459 
L 3084 0 
L 275 0 
L 275 525 
L 2438 3041 
L 353 3041 
L 353 3500 
z
" transform="scale(0.015625)"/>
       <path id="DejaVuSans-79" d="M 2059 -325 
Q 1816 -950 1584 -1140 
Q 1353 -1331 966 -1331 
L 506 -1331 
L 506 -850 
L 844 -850 
Q 1081 -850 1212 -737 
Q 1344 -625 1503 -206 
L 1606 56 
L 191 3500 
L 800 3500 
L 1894 763 
L 2988 3500 
L 3597 3500 
L 2059 -325 
z
" transform="scale(0.015625)"/>
      </defs>
      <use xlink:href="#DejaVuSans-61"/>
      <use xlink:href="#DejaVuSans-7a" x="61.279297"/>
      <use xlink:href="#DejaVuSans-75" x="113.769531"/>
      <use xlink:href="#DejaVuSans-72" x="177.148438"/>
      <use xlink:href="#DejaVuSans-65" x="216.011719"/>
      <use xlink:href="#DejaVuSans-2f" x="277.535156"/>
      <use xlink:href="#DejaVuSans-63" x="311.226562"/>
      <use xlink:href="#DejaVuSans-79" x="366.207031"/>
      <use xlink:href="#DejaVuSans-63" x="425.386719"/>
      <use xlink:href="#DejaVuSans-6c" x="480.367188"/>
      <use xlink:href="#DejaVuSans-65" x="508.150391"/>
      <use xlink:href="#DejaVuSans-63" x="569.673828"/>
      <use xlink:href="#DejaVuSans-6c" x="624.654297"/>
      <use xlink:href="#DejaVuSans-6f" x="652.4375"/>
      <use xlink:href="#DejaVuSans-75" x="713.619141"/>
      <use xlink:href="#DejaVuSans-64" x="776.998047"/>
      <use xlink:href="#DejaVuSans-2f" x="840.474609"/>
      <use xlink:href="#DejaVuSans-63" x="874.166016"/>
      <use xlink:href="#DejaVuSans-70" x="929.146484"/>
      <use xlink:href="#DejaVuSans-75" x="992.623047"/>
     </g>
    </g>
    <g id="line2d_19">
     <defs>
      <path id="m9cc49396a8" d="M -0 3.535534 
L 2.12132 0 
L -0 -3.535534 
L -2.12132 -0 
z
"/>
     </defs>
     <g>
      <use xlink:href="#m9cc49396a8" x="67.34" y="137.443906" style="fill: #008000"/>
     </g>
    </g>
    <g id="text_19">
     <!-- azure/aks/cpu -->
     <g style="fill: #262626" transform="translate(87.14 141.293906) scale(0.11 -0.11)">
      <use xlink:href="#DejaVuSans-61"/>
      <use xlink:href="#DejaVuSans-7a" x="61.279297"/>
      <use xlink:href="#DejaVuSans-75" x="113.769531"/>
      <use xlink:href="#DejaVuSans-72" x="177.148438"/>
      <use xlink:href="#DejaVuSans-65" x="216.011719"/>
      <use xlink:href="#DejaVuSans-2f" x="277.535156"/>
      <use xlink:href="#DejaVuSans-61" x="311.226562"/>
      <use xlink:href="#DejaVuSans-6b" x="372.505859"/>
      <use xlink:href="#DejaVuSans-73" x="430.416016"/>
      <use xlink:href="#DejaVuSans-2f" x="482.515625"/>
      <use xlink:href="#DejaVuSans-63" x="516.207031"/>
      <use xlink:href="#DejaVuSans-70" x="571.1875"/>
      <use xlink:href="#DejaVuSans-75" x="634.664062"/>
     </g>
    </g>
   </g>
  </g>
 </g>
 <defs>
  <clipPath id="pa4e80ced8b">
   <rect x="46.44" y="26.16" width="264.6" height="355.62"/>
  </clipPath>
 </defs>
</svg>
