<?xml version="1.0" encoding="utf-8" standalone="no"?>
<!DOCTYPE svg PUBLIC "-//W3C//DTD SVG 1.1//EN"
  "http://www.w3.org/Graphics/SVG/1.1/DTD/svg11.dtd">
<svg xmlns:xlink="http://www.w3.org/1999/xlink" width="324pt" height="432pt" viewBox="0 0 324 432" xmlns="http://www.w3.org/2000/svg" version="1.1">
 <metadata>
  <rdf:RDF xmlns:dc="http://purl.org/dc/elements/1.1/" xmlns:cc="http://creativecommons.org/ns#" xmlns:rdf="http://www.w3.org/1999/02/22-rdf-syntax-ns#">
   <cc:Work>
    <dc:type rdf:resource="http://purl.org/dc/dcmitype/StillImage"/>
    <dc:date>2025-02-04T12:01:36.841958</dc:date>
    <dc:format>image/svg+xml</dc:format>
    <dc:creator>
     <cc:Agent>
      <dc:title>Matplotlib v3.8.4, https://matplotlib.org/</dc:title>
     </cc:Agent>
    </dc:creator>
   </cc:Work>
  </rdf:RDF>
 </metadata>
 <defs>
  <style type="text/css">*{stroke-linejoin: round; stroke-linecap: butt}</style>
 </defs>
 <g id="figure_1">
  <g id="patch_1">
   <path d="M 0 432 
L 324 432 
L 324 0 
L 0 0 
z
" style="fill: #ffffff"/>
  </g>
  <g id="axes_1">
   <g id="patch_2">
    <path d="M 60.48 381.78 
L 311.04 381.78 
L 311.04 26.16 
L 60.48 26.16 
z
" style="fill: #ffffff"/>
   </g>
   <g id="matplotlib.axis_1">
    <g id="xtick_1">
     <g id="text_1">
      <!-- 32 -->
      <g style="fill: #262626" transform="translate(84.80125 399.638281) scale(0.11 -0.11)">
       <defs>
        <path id="DejaVuSans-33" d="M 2597 2516 
Q 3050 2419 3304 2112 
Q 3559 1806 3559 1356 
Q 3559 666 3084 287 
Q 2609 -91 1734 -91 
Q 1441 -91 1130 -33 
Q 819 25 488 141 
L 488 750 
Q 750 597 1062 519 
Q 1375 441 1716 441 
Q 2309 441 2620 675 
Q 2931 909 2931 1356 
Q 2931 1769 2642 2001 
Q 2353 2234 1838 2234 
L 1294 2234 
L 1294 2753 
L 1863 2753 
Q 2328 2753 2575 2939 
Q 2822 3125 2822 3475 
Q 2822 3834 2567 4026 
Q 2313 4219 1838 4219 
Q 1578 4219 1281 4162 
Q 984 4106 628 3988 
L 628 4550 
Q 988 4650 1302 4700 
Q 1616 4750 1894 4750 
Q 2613 4750 3031 4423 
Q 3450 4097 3450 3541 
Q 3450 3153 3228 2886 
Q 3006 2619 2597 2516 
z
" transform="scale(0.015625)"/>
        <path id="DejaVuSans-32" d="M 1228 531 
L 3431 531 
L 3431 0 
L 469 0 
L 469 531 
Q 828 903 1448 1529 
Q 2069 2156 2228 2338 
Q 2531 2678 2651 2914 
Q 2772 3150 2772 3378 
Q 2772 3750 2511 3984 
Q 2250 4219 1831 4219 
Q 1534 4219 1204 4116 
Q 875 4013 500 3803 
L 500 4441 
Q 881 4594 1212 4672 
Q 1544 4750 1819 4750 
Q 2544 4750 2975 4387 
Q 3406 4025 3406 3419 
Q 3406 3131 3298 2873 
Q 3191 2616 2906 2266 
Q 2828 2175 2409 1742 
Q 1991 1309 1228 531 
z
" transform="scale(0.015625)"/>
       </defs>
       <use xlink:href="#DejaVuSans-33"/>
       <use xlink:href="#DejaVuSans-32" x="63.623047"/>
      </g>
     </g>
    </g>
    <g id="xtick_2">
     <g id="text_2">
      <!-- 64 -->
      <g style="fill: #262626" transform="translate(147.44125 399.638281) scale(0.11 -0.11)">
       <defs>
        <path id="DejaVuSans-36" d="M 2113 2584 
Q 1688 2584 1439 2293 
Q 1191 2003 1191 1497 
Q 1191 994 1439 701 
Q 1688 409 2113 409 
Q 2538 409 2786 701 
Q 3034 994 3034 1497 
Q 3034 2003 2786 2293 
Q 2538 2584 2113 2584 
z
M 3366 4563 
L 3366 3988 
Q 3128 4100 2886 4159 
Q 2644 4219 2406 4219 
Q 1781 4219 1451 3797 
Q 1122 3375 1075 2522 
Q 1259 2794 1537 2939 
Q 1816 3084 2150 3084 
Q 2853 3084 3261 2657 
Q 3669 2231 3669 1497 
Q 3669 778 3244 343 
Q 2819 -91 2113 -91 
Q 1303 -91 875 529 
Q 447 1150 447 2328 
Q 447 3434 972 4092 
Q 1497 4750 2381 4750 
Q 2619 4750 2861 4703 
Q 3103 4656 3366 4563 
z
" transform="scale(0.015625)"/>
        <path id="DejaVuSans-34" d="M 2419 4116 
L 825 1625 
L 2419 1625 
L 2419 4116 
z
M 2253 4666 
L 3047 4666 
L 3047 1625 
L 3713 1625 
L 3713 1100 
L 3047 1100 
L 3047 0 
L 2419 0 
L 2419 1100 
L 313 1100 
L 313 1709 
L 2253 4666 
z
" transform="scale(0.015625)"/>
       </defs>
       <use xlink:href="#DejaVuSans-36"/>
       <use xlink:href="#DejaVuSans-34" x="63.623047"/>
      </g>
     </g>
    </g>
    <g id="xtick_3">
     <g id="text_3">
      <!-- 128 -->
      <g style="fill: #262626" transform="translate(206.581875 399.638281) scale(0.11 -0.11)">
       <defs>
        <path id="DejaVuSans-31" d="M 794 531 
L 1825 531 
L 1825 4091 
L 703 3866 
L 703 4441 
L 1819 4666 
L 2450 4666 
L 2450 531 
L 3481 531 
L 3481 0 
L 794 0 
L 794 531 
z
" transform="scale(0.015625)"/>
        <path id="DejaVuSans-38" d="M 2034 2216 
Q 1584 2216 1326 1975 
Q 1069 1734 1069 1313 
Q 1069 891 1326 650 
Q 1584 409 2034 409 
Q 2484 409 2743 651 
Q 3003 894 3003 1313 
Q 3003 1734 2745 1975 
Q 2488 2216 2034 2216 
z
M 1403 2484 
Q 997 2584 770 2862 
Q 544 3141 544 3541 
Q 544 4100 942 4425 
Q 1341 4750 2034 4750 
Q 2731 4750 3128 4425 
Q 3525 4100 3525 3541 
Q 3525 3141 3298 2862 
Q 3072 2584 2669 2484 
Q 3125 2378 3379 2068 
Q 3634 1759 3634 1313 
Q 3634 634 3220 271 
Q 2806 -91 2034 -91 
Q 1263 -91 848 271 
Q 434 634 434 1313 
Q 434 1759 690 2068 
Q 947 2378 1403 2484 
z
M 1172 3481 
Q 1172 3119 1398 2916 
Q 1625 2713 2034 2713 
Q 2441 2713 2670 2916 
Q 2900 3119 2900 3481 
Q 2900 3844 2670 4047 
Q 2441 4250 2034 4250 
Q 1625 4250 1398 4047 
Q 1172 3844 1172 3481 
z
" transform="scale(0.015625)"/>
       </defs>
       <use xlink:href="#DejaVuSans-31"/>
       <use xlink:href="#DejaVuSans-32" x="63.623047"/>
       <use xlink:href="#DejaVuSans-38" x="127.246094"/>
      </g>
     </g>
    </g>
    <g id="xtick_4">
     <g id="text_4">
      <!-- 256 -->
      <g style="fill: #262626" transform="translate(269.221875 399.638281) scale(0.11 -0.11)">
       <defs>
        <path id="DejaVuSans-35" d="M 691 4666 
L 3169 4666 
L 3169 4134 
L 1269 4134 
L 1269 2991 
Q 1406 3038 1543 3061 
Q 1681 3084 1819 3084 
Q 2600 3084 3056 2656 
Q 3513 2228 3513 1497 
Q 3513 744 3044 326 
Q 2575 -91 1722 -91 
Q 1428 -91 1123 -41 
Q 819 9 494 109 
L 494 744 
Q 775 591 1075 516 
Q 1375 441 1709 441 
Q 2250 441 2565 725 
Q 2881 1009 2881 1497 
Q 2881 1984 2565 2268 
Q 2250 2553 1709 2553 
Q 1456 2553 1204 2497 
Q 953 2441 691 2322 
L 691 4666 
z
" transform="scale(0.015625)"/>
       </defs>
       <use xlink:href="#DejaVuSans-32"/>
       <use xlink:href="#DejaVuSans-35" x="63.623047"/>
       <use xlink:href="#DejaVuSans-36" x="127.246094"/>
      </g>
     </g>
    </g>
    <g id="text_5">
     <!-- Nodes -->
     <g style="fill: #262626" transform="translate(165.407891 415.803906) scale(0.13 -0.13)">
      <defs>
       <path id="DejaVuSans-4e" d="M 628 4666 
L 1478 4666 
L 3547 763 
L 3547 4666 
L 4159 4666 
L 4159 0 
L 3309 0 
L 1241 3903 
L 1241 0 
L 628 0 
L 628 4666 
z
" transform="scale(0.015625)"/>
       <path id="DejaVuSans-6f" d="M 1959 3097 
Q 1497 3097 1228 2736 
Q 959 2375 959 1747 
Q 959 1119 1226 758 
Q 1494 397 1959 397 
Q 2419 397 2687 759 
Q 2956 1122 2956 1747 
Q 2956 2369 2687 2733 
Q 2419 3097 1959 3097 
z
M 1959 3584 
Q 2709 3584 3137 3096 
Q 3566 2609 3566 1747 
Q 3566 888 3137 398 
Q 2709 -91 1959 -91 
Q 1206 -91 779 398 
Q 353 888 353 1747 
Q 353 2609 779 3096 
Q 1206 3584 1959 3584 
z
" transform="scale(0.015625)"/>
       <path id="DejaVuSans-64" d="M 2906 2969 
L 2906 4863 
L 3481 4863 
L 3481 0 
L 2906 0 
L 2906 525 
Q 2725 213 2448 61 
Q 2172 -91 1784 -91 
Q 1150 -91 751 415 
Q 353 922 353 1747 
Q 353 2572 751 3078 
Q 1150 3584 1784 3584 
Q 2172 3584 2448 3432 
Q 2725 3281 2906 2969 
z
M 947 1747 
Q 947 1113 1208 752 
Q 1469 391 1925 391 
Q 2381 391 2643 752 
Q 2906 1113 2906 1747 
Q 2906 2381 2643 2742 
Q 2381 3103 1925 3103 
Q 1469 3103 1208 2742 
Q 947 2381 947 1747 
z
" transform="scale(0.015625)"/>
       <path id="DejaVuSans-65" d="M 3597 1894 
L 3597 1613 
L 953 1613 
Q 991 1019 1311 708 
Q 1631 397 2203 397 
Q 2534 397 2845 478 
Q 3156 559 3463 722 
L 3463 178 
Q 3153 47 2828 -22 
Q 2503 -91 2169 -91 
Q 1331 -91 842 396 
Q 353 884 353 1716 
Q 353 2575 817 3079 
Q 1281 3584 2069 3584 
Q 2775 3584 3186 3129 
Q 3597 2675 3597 1894 
z
M 3022 2063 
Q 3016 2534 2758 2815 
Q 2500 3097 2075 3097 
Q 1594 3097 1305 2825 
Q 1016 2553 972 2059 
L 3022 2063 
z
" transform="scale(0.015625)"/>
       <path id="DejaVuSans-73" d="M 2834 3397 
L 2834 2853 
Q 2591 2978 2328 3040 
Q 2066 3103 1784 3103 
Q 1356 3103 1142 2972 
Q 928 2841 928 2578 
Q 928 2378 1081 2264 
Q 1234 2150 1697 2047 
L 1894 2003 
Q 2506 1872 2764 1633 
Q 3022 1394 3022 966 
Q 3022 478 2636 193 
Q 2250 -91 1575 -91 
Q 1294 -91 989 -36 
Q 684 19 347 128 
L 347 722 
Q 666 556 975 473 
Q 1284 391 1588 391 
Q 1994 391 2212 530 
Q 2431 669 2431 922 
Q 2431 1156 2273 1281 
Q 2116 1406 1581 1522 
L 1381 1569 
Q 847 1681 609 1914 
Q 372 2147 372 2553 
Q 372 3047 722 3315 
Q 1072 3584 1716 3584 
Q 2034 3584 2315 3537 
Q 2597 3491 2834 3397 
z
" transform="scale(0.015625)"/>
      </defs>
      <use xlink:href="#DejaVuSans-4e"/>
      <use xlink:href="#DejaVuSans-6f" x="74.804688"/>
      <use xlink:href="#DejaVuSans-64" x="135.986328"/>
      <use xlink:href="#DejaVuSans-65" x="199.462891"/>
      <use xlink:href="#DejaVuSans-73" x="260.986328"/>
     </g>
    </g>
   </g>
   <g id="matplotlib.axis_2">
    <g id="ytick_1">
     <g id="line2d_1">
      <path d="M 60.48 307.556998 
L 311.04 307.556998 
" clip-path="url(#p30596605e3)" style="fill: none; stroke: #cccccc; stroke-linecap: round"/>
     </g>
     <g id="text_6">
      <!-- 50 -->
      <g style="fill: #262626" transform="translate(36.9825 311.736139) scale(0.11 -0.11)">
       <defs>
        <path id="DejaVuSans-30" d="M 2034 4250 
Q 1547 4250 1301 3770 
Q 1056 3291 1056 2328 
Q 1056 1369 1301 889 
Q 1547 409 2034 409 
Q 2525 409 2770 889 
Q 3016 1369 3016 2328 
Q 3016 3291 2770 3770 
Q 2525 4250 2034 4250 
z
M 2034 4750 
Q 2819 4750 3233 4129 
Q 3647 3509 3647 2328 
Q 3647 1150 3233 529 
Q 2819 -91 2034 -91 
Q 1250 -91 836 529 
Q 422 1150 422 2328 
Q 422 3509 836 4129 
Q 1250 4750 2034 4750 
z
" transform="scale(0.015625)"/>
       </defs>
       <use xlink:href="#DejaVuSans-35"/>
       <use xlink:href="#DejaVuSans-30" x="63.623047"/>
      </g>
     </g>
    </g>
    <g id="ytick_2">
     <g id="line2d_2">
      <path d="M 60.48 228.658217 
L 311.04 228.658217 
" clip-path="url(#p30596605e3)" style="fill: none; stroke: #cccccc; stroke-linecap: round"/>
     </g>
     <g id="text_7">
      <!-- 100 -->
      <g style="fill: #262626" transform="translate(29.98375 232.837358) scale(0.11 -0.11)">
       <use xlink:href="#DejaVuSans-31"/>
       <use xlink:href="#DejaVuSans-30" x="63.623047"/>
       <use xlink:href="#DejaVuSans-30" x="127.246094"/>
      </g>
     </g>
    </g>
    <g id="ytick_3">
     <g id="line2d_3">
      <path d="M 60.48 149.759437 
L 311.04 149.759437 
" clip-path="url(#p30596605e3)" style="fill: none; stroke: #cccccc; stroke-linecap: round"/>
     </g>
     <g id="text_8">
      <!-- 150 -->
      <g style="fill: #262626" transform="translate(29.98375 153.938578) scale(0.11 -0.11)">
       <use xlink:href="#DejaVuSans-31"/>
       <use xlink:href="#DejaVuSans-35" x="63.623047"/>
       <use xlink:href="#DejaVuSans-30" x="127.246094"/>
      </g>
     </g>
    </g>
    <g id="ytick_4">
     <g id="line2d_4">
      <path d="M 60.48 70.860656 
L 311.04 70.860656 
" clip-path="url(#p30596605e3)" style="fill: none; stroke: #cccccc; stroke-linecap: round"/>
     </g>
     <g id="text_9">
      <!-- 200 -->
      <g style="fill: #262626" transform="translate(29.98375 75.039797) scale(0.11 -0.11)">
       <use xlink:href="#DejaVuSans-32"/>
       <use xlink:href="#DejaVuSans-30" x="63.623047"/>
       <use xlink:href="#DejaVuSans-30" x="127.246094"/>
      </g>
     </g>
    </g>
    <g id="text_10">
     <!-- Millions of Atom Steps per Second -->
     <g style="fill: #262626" transform="translate(23.280156 314.975781) rotate(-90) scale(0.13 -0.13)">
      <defs>
       <path id="DejaVuSans-4d" d="M 628 4666 
L 1569 4666 
L 2759 1491 
L 3956 4666 
L 4897 4666 
L 4897 0 
L 4281 0 
L 4281 4097 
L 3078 897 
L 2444 897 
L 1241 4097 
L 1241 0 
L 628 0 
L 628 4666 
z
" transform="scale(0.015625)"/>
       <path id="DejaVuSans-69" d="M 603 3500 
L 1178 3500 
L 1178 0 
L 603 0 
L 603 3500 
z
M 603 4863 
L 1178 4863 
L 1178 4134 
L 603 4134 
L 603 4863 
z
" transform="scale(0.015625)"/>
       <path id="DejaVuSans-6c" d="M 603 4863 
L 1178 4863 
L 1178 0 
L 603 0 
L 603 4863 
z
" transform="scale(0.015625)"/>
       <path id="DejaVuSans-6e" d="M 3513 2113 
L 3513 0 
L 2938 0 
L 2938 2094 
Q 2938 2591 2744 2837 
Q 2550 3084 2163 3084 
Q 1697 3084 1428 2787 
Q 1159 2491 1159 1978 
L 1159 0 
L 581 0 
L 581 3500 
L 1159 3500 
L 1159 2956 
Q 1366 3272 1645 3428 
Q 1925 3584 2291 3584 
Q 2894 3584 3203 3211 
Q 3513 2838 3513 2113 
z
" transform="scale(0.015625)"/>
       <path id="DejaVuSans-20" transform="scale(0.015625)"/>
       <path id="DejaVuSans-66" d="M 2375 4863 
L 2375 4384 
L 1825 4384 
Q 1516 4384 1395 4259 
Q 1275 4134 1275 3809 
L 1275 3500 
L 2222 3500 
L 2222 3053 
L 1275 3053 
L 1275 0 
L 697 0 
L 697 3053 
L 147 3053 
L 147 3500 
L 697 3500 
L 697 3744 
Q 697 4328 969 4595 
Q 1241 4863 1831 4863 
L 2375 4863 
z
" transform="scale(0.015625)"/>
       <path id="DejaVuSans-41" d="M 2188 4044 
L 1331 1722 
L 3047 1722 
L 2188 4044 
z
M 1831 4666 
L 2547 4666 
L 4325 0 
L 3669 0 
L 3244 1197 
L 1141 1197 
L 716 0 
L 50 0 
L 1831 4666 
z
" transform="scale(0.015625)"/>
       <path id="DejaVuSans-74" d="M 1172 4494 
L 1172 3500 
L 2356 3500 
L 2356 3053 
L 1172 3053 
L 1172 1153 
Q 1172 725 1289 603 
Q 1406 481 1766 481 
L 2356 481 
L 2356 0 
L 1766 0 
Q 1100 0 847 248 
Q 594 497 594 1153 
L 594 3053 
L 172 3053 
L 172 3500 
L 594 3500 
L 594 4494 
L 1172 4494 
z
" transform="scale(0.015625)"/>
       <path id="DejaVuSans-6d" d="M 3328 2828 
Q 3544 3216 3844 3400 
Q 4144 3584 4550 3584 
Q 5097 3584 5394 3201 
Q 5691 2819 5691 2113 
L 5691 0 
L 5113 0 
L 5113 2094 
Q 5113 2597 4934 2840 
Q 4756 3084 4391 3084 
Q 3944 3084 3684 2787 
Q 3425 2491 3425 1978 
L 3425 0 
L 2847 0 
L 2847 2094 
Q 2847 2600 2669 2842 
Q 2491 3084 2119 3084 
Q 1678 3084 1418 2786 
Q 1159 2488 1159 1978 
L 1159 0 
L 581 0 
L 581 3500 
L 1159 3500 
L 1159 2956 
Q 1356 3278 1631 3431 
Q 1906 3584 2284 3584 
Q 2666 3584 2933 3390 
Q 3200 3197 3328 2828 
z
" transform="scale(0.015625)"/>
       <path id="DejaVuSans-53" d="M 3425 4513 
L 3425 3897 
Q 3066 4069 2747 4153 
Q 2428 4238 2131 4238 
Q 1616 4238 1336 4038 
Q 1056 3838 1056 3469 
Q 1056 3159 1242 3001 
Q 1428 2844 1947 2747 
L 2328 2669 
Q 3034 2534 3370 2195 
Q 3706 1856 3706 1288 
Q 3706 609 3251 259 
Q 2797 -91 1919 -91 
Q 1588 -91 1214 -16 
Q 841 59 441 206 
L 441 856 
Q 825 641 1194 531 
Q 1563 422 1919 422 
Q 2459 422 2753 634 
Q 3047 847 3047 1241 
Q 3047 1584 2836 1778 
Q 2625 1972 2144 2069 
L 1759 2144 
Q 1053 2284 737 2584 
Q 422 2884 422 3419 
Q 422 4038 858 4394 
Q 1294 4750 2059 4750 
Q 2388 4750 2728 4690 
Q 3069 4631 3425 4513 
z
" transform="scale(0.015625)"/>
       <path id="DejaVuSans-70" d="M 1159 525 
L 1159 -1331 
L 581 -1331 
L 581 3500 
L 1159 3500 
L 1159 2969 
Q 1341 3281 1617 3432 
Q 1894 3584 2278 3584 
Q 2916 3584 3314 3078 
Q 3713 2572 3713 1747 
Q 3713 922 3314 415 
Q 2916 -91 2278 -91 
Q 1894 -91 1617 61 
Q 1341 213 1159 525 
z
M 3116 1747 
Q 3116 2381 2855 2742 
Q 2594 3103 2138 3103 
Q 1681 3103 1420 2742 
Q 1159 2381 1159 1747 
Q 1159 1113 1420 752 
Q 1681 391 2138 391 
Q 2594 391 2855 752 
Q 3116 1113 3116 1747 
z
" transform="scale(0.015625)"/>
       <path id="DejaVuSans-72" d="M 2631 2963 
Q 2534 3019 2420 3045 
Q 2306 3072 2169 3072 
Q 1681 3072 1420 2755 
Q 1159 2438 1159 1844 
L 1159 0 
L 581 0 
L 581 3500 
L 1159 3500 
L 1159 2956 
Q 1341 3275 1631 3429 
Q 1922 3584 2338 3584 
Q 2397 3584 2469 3576 
Q 2541 3569 2628 3553 
L 2631 2963 
z
" transform="scale(0.015625)"/>
       <path id="DejaVuSans-63" d="M 3122 3366 
L 3122 2828 
Q 2878 2963 2633 3030 
Q 2388 3097 2138 3097 
Q 1578 3097 1268 2742 
Q 959 2388 959 1747 
Q 959 1106 1268 751 
Q 1578 397 2138 397 
Q 2388 397 2633 464 
Q 2878 531 3122 666 
L 3122 134 
Q 2881 22 2623 -34 
Q 2366 -91 2075 -91 
Q 1284 -91 818 406 
Q 353 903 353 1747 
Q 353 2603 823 3093 
Q 1294 3584 2113 3584 
Q 2378 3584 2631 3529 
Q 2884 3475 3122 3366 
z
" transform="scale(0.015625)"/>
      </defs>
      <use xlink:href="#DejaVuSans-4d"/>
      <use xlink:href="#DejaVuSans-69" x="86.279297"/>
      <use xlink:href="#DejaVuSans-6c" x="114.0625"/>
      <use xlink:href="#DejaVuSans-6c" x="141.845703"/>
      <use xlink:href="#DejaVuSans-69" x="169.628906"/>
      <use xlink:href="#DejaVuSans-6f" x="197.412109"/>
      <use xlink:href="#DejaVuSans-6e" x="258.59375"/>
      <use xlink:href="#DejaVuSans-73" x="321.972656"/>
      <use xlink:href="#DejaVuSans-20" x="374.072266"/>
      <use xlink:href="#DejaVuSans-6f" x="405.859375"/>
      <use xlink:href="#DejaVuSans-66" x="467.041016"/>
      <use xlink:href="#DejaVuSans-20" x="502.246094"/>
      <use xlink:href="#DejaVuSans-41" x="534.033203"/>
      <use xlink:href="#DejaVuSans-74" x="600.691406"/>
      <use xlink:href="#DejaVuSans-6f" x="639.900391"/>
      <use xlink:href="#DejaVuSans-6d" x="701.082031"/>
      <use xlink:href="#DejaVuSans-20" x="798.494141"/>
      <use xlink:href="#DejaVuSans-53" x="830.28125"/>
      <use xlink:href="#DejaVuSans-74" x="893.757812"/>
      <use xlink:href="#DejaVuSans-65" x="932.966797"/>
      <use xlink:href="#DejaVuSans-70" x="994.490234"/>
      <use xlink:href="#DejaVuSans-73" x="1057.966797"/>
      <use xlink:href="#DejaVuSans-20" x="1110.066406"/>
      <use xlink:href="#DejaVuSans-70" x="1141.853516"/>
      <use xlink:href="#DejaVuSans-65" x="1205.330078"/>
      <use xlink:href="#DejaVuSans-72" x="1266.853516"/>
      <use xlink:href="#DejaVuSans-20" x="1307.966797"/>
      <use xlink:href="#DejaVuSans-53" x="1339.753906"/>
      <use xlink:href="#DejaVuSans-65" x="1403.230469"/>
      <use xlink:href="#DejaVuSans-63" x="1464.753906"/>
      <use xlink:href="#DejaVuSans-6f" x="1519.734375"/>
      <use xlink:href="#DejaVuSans-6e" x="1580.916016"/>
      <use xlink:href="#DejaVuSans-64" x="1644.294922"/>
     </g>
    </g>
   </g>
   <g id="patch_3">
    <path d="M 60.48 381.78 
L 60.48 26.16 
" style="fill: none; stroke: #cccccc; stroke-width: 1.25; stroke-linejoin: miter; stroke-linecap: square"/>
   </g>
   <g id="patch_4">
    <path d="M 311.04 381.78 
L 311.04 26.16 
" style="fill: none; stroke: #cccccc; stroke-width: 1.25; stroke-linejoin: miter; stroke-linecap: square"/>
   </g>
   <g id="patch_5">
    <path d="M 60.48 381.78 
L 311.04 381.78 
" style="fill: none; stroke: #cccccc; stroke-width: 1.25; stroke-linejoin: miter; stroke-linecap: square"/>
   </g>
   <g id="patch_6">
    <path d="M 60.48 26.16 
L 311.04 26.16 
" style="fill: none; stroke: #cccccc; stroke-width: 1.25; stroke-linejoin: miter; stroke-linecap: square"/>
   </g>
   <g id="PathCollection_1">
    <path d="M 93.310072 352.591935 
L 90.93243 354.319393 
L 91.840608 357.114478 
L 94.779535 357.114478 
L 95.687713 354.319393 
z
" clip-path="url(#p30596605e3)" style="fill: #8c613c"/>
    <path d="M 91.109779 353.224703 
L 88.732138 354.952161 
L 89.640316 357.747246 
L 92.579242 357.747246 
L 93.487421 354.952161 
z
" clip-path="url(#p30596605e3)" style="fill: #8c613c"/>
    <path d="M 93.066659 352.356817 
L 90.689018 354.084274 
L 91.597196 356.879359 
L 94.536122 356.879359 
L 95.4443 354.084274 
z
" clip-path="url(#p30596605e3)" style="fill: #8c613c"/>
    <path d="M 94.714 352.68977 
L 92.336358 354.417227 
L 93.244537 357.212312 
L 96.183463 357.212312 
L 97.091641 354.417227 
z
" clip-path="url(#p30596605e3)" style="fill: #8c613c"/>
   </g>
   <g id="PathCollection_2">
    <defs>
     <path id="C0_0_6a904ea854" d="M 0 -2.5 
L -2.377641 -0.772542 
L -1.469463 2.022542 
L 1.469463 2.022542 
L 2.377641 -0.772542 
z
"/>
    </defs>
    <g clip-path="url(#p30596605e3)">
     <use xlink:href="#C0_0_6a904ea854" x="154.100317" y="337.259233" style="fill: #8c613c"/>
    </g>
    <g clip-path="url(#p30596605e3)">
     <use xlink:href="#C0_0_6a904ea854" x="149.626171" y="336.940482" style="fill: #8c613c"/>
    </g>
    <g clip-path="url(#p30596605e3)">
     <use xlink:href="#C0_0_6a904ea854" x="149.132903" y="342.179361" style="fill: #8c613c"/>
    </g>
    <g clip-path="url(#p30596605e3)">
     <use xlink:href="#C0_0_6a904ea854" x="159.428488" y="337.286058" style="fill: #8c613c"/>
    </g>
    <g clip-path="url(#p30596605e3)">
     <use xlink:href="#C0_0_6a904ea854" x="150.108379" y="336.702207" style="fill: #8c613c"/>
    </g>
   </g>
   <g id="PathCollection_3">
    <defs>
     <path id="C1_0_c022a9f36c" d="M 0 -2.5 
L -2.377641 -0.772542 
L -1.469463 2.022542 
L 1.469463 2.022542 
L 2.377641 -0.772542 
z
"/>
    </defs>
    <g clip-path="url(#p30596605e3)">
     <use xlink:href="#C1_0_c022a9f36c" x="216.650977" y="323.057452" style="fill: #8c613c"/>
    </g>
    <g clip-path="url(#p30596605e3)">
     <use xlink:href="#C1_0_c022a9f36c" x="211.74184" y="323.320974" style="fill: #8c613c"/>
    </g>
    <g clip-path="url(#p30596605e3)">
     <use xlink:href="#C1_0_c022a9f36c" x="221.383243" y="325.471755" style="fill: #8c613c"/>
    </g>
    <g clip-path="url(#p30596605e3)">
     <use xlink:href="#C1_0_c022a9f36c" x="213.00294" y="322.549344" style="fill: #8c613c"/>
    </g>
    <g clip-path="url(#p30596605e3)">
     <use xlink:href="#C1_0_c022a9f36c" x="221.187462" y="321.987585" style="fill: #8c613c"/>
    </g>
   </g>
   <g id="PathCollection_4">
    <path d="M 279.132732 360.527575 
L 276.755091 362.255032 
L 277.663269 365.050117 
L 280.602195 365.050117 
L 281.510373 362.255032 
z
" clip-path="url(#p30596605e3)" style="fill: #8c613c"/>
    <path d="M 277.768277 360.401336 
L 275.390636 362.128794 
L 276.298814 364.923879 
L 279.237741 364.923879 
L 280.145919 362.128794 
z
" clip-path="url(#p30596605e3)" style="fill: #8c613c"/>
   </g>
   <g id="line2d_5"/>
   <g id="PathCollection_5">
    <path d="M 91.81076 365.462878 
L 96.81076 365.462878 
L 96.81076 360.462878 
L 91.81076 360.462878 
z
" clip-path="url(#p30596605e3)" style="fill: #6c3baa"/>
    <path d="M 88.516492 368.115455 
L 93.516492 368.115455 
L 93.516492 363.115455 
L 88.516492 363.115455 
z
" clip-path="url(#p30596605e3)" style="fill: #6c3baa"/>
    <path d="M 86.495616 366.671607 
L 91.495616 366.671607 
L 91.495616 361.671607 
L 86.495616 361.671607 
z
" clip-path="url(#p30596605e3)" style="fill: #6c3baa"/>
    <path d="M 92.475118 365.417116 
L 97.475118 365.417116 
L 97.475118 360.417116 
L 92.475118 360.417116 
z
" clip-path="url(#p30596605e3)" style="fill: #6c3baa"/>
    <path d="M 93.128009 365.972564 
L 98.128009 365.972564 
L 98.128009 360.972564 
L 93.128009 360.972564 
z
" clip-path="url(#p30596605e3)" style="fill: #6c3baa"/>
   </g>
   <g id="PathCollection_6">
    <defs>
     <path id="me7a5145b3e" d="M -2.5 2.5 
L 2.5 2.5 
L 2.5 -2.5 
L -2.5 -2.5 
z
"/>
    </defs>
    <g clip-path="url(#p30596605e3)">
     <use xlink:href="#me7a5145b3e" x="154.44" y="346.807563" style="fill: #6c3baa"/>
    </g>
   </g>
   <g id="PathCollection_7">
    <path d="M 215.39033 316.2758 
L 220.39033 316.2758 
L 220.39033 311.2758 
L 215.39033 311.2758 
z
" clip-path="url(#p30596605e3)" style="fill: #6c3baa"/>
    <path d="M 213.157544 315.166483 
L 218.157544 315.166483 
L 218.157544 310.166483 
L 213.157544 310.166483 
z
" clip-path="url(#p30596605e3)" style="fill: #6c3baa"/>
    <path d="M 214.65078 327.400528 
L 219.65078 327.400528 
L 219.65078 322.400528 
L 214.65078 322.400528 
z
" clip-path="url(#p30596605e3)" style="fill: #6c3baa"/>
    <path d="M 214.04279 317.471905 
L 219.04279 317.471905 
L 219.04279 312.471905 
L 214.04279 312.471905 
z
" clip-path="url(#p30596605e3)" style="fill: #6c3baa"/>
    <path d="M 215.874299 316.261598 
L 220.874299 316.261598 
L 220.874299 311.261598 
L 215.874299 311.261598 
z
" clip-path="url(#p30596605e3)" style="fill: #6c3baa"/>
   </g>
   <g id="PathCollection_8">
    <path d="M 274.838917 267.104502 
L 279.838917 267.104502 
L 279.838917 262.104502 
L 274.838917 262.104502 
z
" clip-path="url(#p30596605e3)" style="fill: #6c3baa"/>
    <path d="M 274.57534 268.190149 
L 279.57534 268.190149 
L 279.57534 263.190149 
L 274.57534 263.190149 
z
" clip-path="url(#p30596605e3)" style="fill: #6c3baa"/>
    <path d="M 271.844177 274.101246 
L 276.844177 274.101246 
L 276.844177 269.101246 
L 271.844177 269.101246 
z
" clip-path="url(#p30596605e3)" style="fill: #6c3baa"/>
    <path d="M 275.158011 273.463744 
L 280.158011 273.463744 
L 280.158011 268.463744 
L 275.158011 268.463744 
z
" clip-path="url(#p30596605e3)" style="fill: #6c3baa"/>
    <path d="M 277.508876 285.622046 
L 282.508876 285.622046 
L 282.508876 280.622046 
L 277.508876 280.622046 
z
" clip-path="url(#p30596605e3)" style="fill: #6c3baa"/>
   </g>
   <g id="line2d_6"/>
   <g id="PathCollection_9">
    <path d="M 87.697835 324.106097 
L 91.233368 320.570563 
L 87.697835 317.035029 
L 84.162301 320.570563 
z
" clip-path="url(#p30596605e3)" style="fill: #dc7ec0"/>
    <path d="M 98.05921 322.8879 
L 101.594744 319.352366 
L 98.05921 315.816832 
L 94.523676 319.352366 
z
" clip-path="url(#p30596605e3)" style="fill: #dc7ec0"/>
    <path d="M 87.298151 325.278533 
L 90.833685 321.742999 
L 87.298151 318.207465 
L 83.762617 321.742999 
z
" clip-path="url(#p30596605e3)" style="fill: #dc7ec0"/>
    <path d="M 89.694839 322.981 
L 93.230373 319.445466 
L 89.694839 315.909932 
L 86.159305 319.445466 
z
" clip-path="url(#p30596605e3)" style="fill: #dc7ec0"/>
    <path d="M 87.647536 325.516807 
L 91.18307 321.981273 
L 87.647536 318.445739 
L 84.112002 321.981273 
z
" clip-path="url(#p30596605e3)" style="fill: #dc7ec0"/>
   </g>
   <g id="PathCollection_10">
    <path d="M 156.19653 265.829879 
L 159.732064 262.294346 
L 156.19653 258.758812 
L 152.660996 262.294346 
z
" clip-path="url(#p30596605e3)" style="fill: #dc7ec0"/>
    <path d="M 149.971824 269.230417 
L 153.507358 265.694883 
L 149.971824 262.159349 
L 146.43629 265.694883 
z
" clip-path="url(#p30596605e3)" style="fill: #dc7ec0"/>
    <path d="M 152.687853 267.117508 
L 156.223387 263.581974 
L 152.687853 260.04644 
L 149.152319 263.581974 
z
" clip-path="url(#p30596605e3)" style="fill: #dc7ec0"/>
    <path d="M 159.646082 266.077622 
L 163.181616 262.542088 
L 159.646082 259.006554 
L 156.110548 262.542088 
z
" clip-path="url(#p30596605e3)" style="fill: #dc7ec0"/>
    <path d="M 149.276535 269.388214 
L 152.812069 265.852681 
L 149.276535 262.317147 
L 145.741002 265.852681 
z
" clip-path="url(#p30596605e3)" style="fill: #dc7ec0"/>
   </g>
   <g id="PathCollection_11">
    <path d="M 221.521588 183.536873 
L 225.057122 180.001339 
L 221.521588 176.465806 
L 217.986054 180.001339 
z
" clip-path="url(#p30596605e3)" style="fill: #dc7ec0"/>
    <path d="M 213.750653 178.375315 
L 217.286187 174.839781 
L 213.750653 171.304247 
L 210.215119 174.839781 
z
" clip-path="url(#p30596605e3)" style="fill: #dc7ec0"/>
    <path d="M 213.734845 178.002913 
L 217.270378 174.467379 
L 213.734845 170.931845 
L 210.199311 174.467379 
z
" clip-path="url(#p30596605e3)" style="fill: #dc7ec0"/>
    <path d="M 214.689099 175.938921 
L 218.224633 172.403387 
L 214.689099 168.867853 
L 211.153565 172.403387 
z
" clip-path="url(#p30596605e3)" style="fill: #dc7ec0"/>
    <path d="M 220.93468 180.155272 
L 224.470214 176.619738 
L 220.93468 173.084204 
L 217.399146 176.619738 
z
" clip-path="url(#p30596605e3)" style="fill: #dc7ec0"/>
   </g>
   <g id="PathCollection_12">
    <path d="M 278.66445 53.278143 
L 282.199984 49.742609 
L 278.66445 46.207075 
L 275.128916 49.742609 
z
" clip-path="url(#p30596605e3)" style="fill: #dc7ec0"/>
    <path d="M 276.802839 45.860079 
L 280.338373 42.324545 
L 276.802839 38.789012 
L 273.267305 42.324545 
z
" clip-path="url(#p30596605e3)" style="fill: #dc7ec0"/>
    <path d="M 277.235432 67.520951 
L 280.770965 63.985417 
L 277.235432 60.449883 
L 273.699898 63.985417 
z
" clip-path="url(#p30596605e3)" style="fill: #dc7ec0"/>
    <path d="M 282.479892 81.743245 
L 286.015426 78.207711 
L 282.479892 74.672177 
L 278.944358 78.207711 
z
" clip-path="url(#p30596605e3)" style="fill: #dc7ec0"/>
    <path d="M 282.239313 58.734782 
L 285.774847 55.199248 
L 282.239313 51.663715 
L 278.703779 55.199248 
z
" clip-path="url(#p30596605e3)" style="fill: #dc7ec0"/>
   </g>
   <g id="line2d_7"/>
   <g id="PathCollection_13">
    <defs>
     <path id="C2_0_383a8059d4" d="M 0 2.5 
C 0.663008 2.5 1.29895 2.236584 1.767767 1.767767 
C 2.236584 1.29895 2.5 0.663008 2.5 -0 
C 2.5 -0.663008 2.236584 -1.29895 1.767767 -1.767767 
C 1.29895 -2.236584 0.663008 -2.5 0 -2.5 
C -0.663008 -2.5 -1.29895 -2.236584 -1.767767 -1.767767 
C -2.236584 -1.29895 -2.5 -0.663008 -2.5 0 
C -2.5 0.663008 -2.236584 1.29895 -1.767767 1.767767 
C -1.29895 2.236584 -0.663008 2.5 0 2.5 
z
"/>
    </defs>
    <g clip-path="url(#p30596605e3)">
     <use xlink:href="#C2_0_383a8059d4" x="85.853336" y="341.756463" style="fill: #4878d0"/>
    </g>
    <g clip-path="url(#p30596605e3)">
     <use xlink:href="#C2_0_383a8059d4" x="95.288273" y="340.265276" style="fill: #4878d0"/>
    </g>
    <g clip-path="url(#p30596605e3)">
     <use xlink:href="#C2_0_383a8059d4" x="87.600034" y="340.590339" style="fill: #4878d0"/>
    </g>
    <g clip-path="url(#p30596605e3)">
     <use xlink:href="#C2_0_383a8059d4" x="88.698258" y="341.923729" style="fill: #4878d0"/>
    </g>
    <g clip-path="url(#p30596605e3)">
     <use xlink:href="#C2_0_383a8059d4" x="94.404066" y="340.268432" style="fill: #4878d0"/>
    </g>
   </g>
   <g id="PathCollection_14">
    <defs>
     <path id="C3_0_7e31fdf083" d="M 0 2.5 
C 0.663008 2.5 1.29895 2.236584 1.767767 1.767767 
C 2.236584 1.29895 2.5 0.663008 2.5 -0 
C 2.5 -0.663008 2.236584 -1.29895 1.767767 -1.767767 
C 1.29895 -2.236584 0.663008 -2.5 0 -2.5 
C -0.663008 -2.5 -1.29895 -2.236584 -1.767767 -1.767767 
C -2.236584 -1.29895 -2.5 -0.663008 -2.5 0 
C -2.5 0.663008 -2.236584 1.29895 -1.767767 1.767767 
C -1.29895 2.236584 -0.663008 2.5 0 2.5 
z
"/>
    </defs>
    <g clip-path="url(#p30596605e3)">
     <use xlink:href="#C3_0_7e31fdf083" x="157.447403" y="312.677529" style="fill: #4878d0"/>
    </g>
    <g clip-path="url(#p30596605e3)">
     <use xlink:href="#C3_0_7e31fdf083" x="153.723705" y="311.705496" style="fill: #4878d0"/>
    </g>
    <g clip-path="url(#p30596605e3)">
     <use xlink:href="#C3_0_7e31fdf083" x="149.497162" y="312.802189" style="fill: #4878d0"/>
    </g>
    <g clip-path="url(#p30596605e3)">
     <use xlink:href="#C3_0_7e31fdf083" x="154.835952" y="313.985671" style="fill: #4878d0"/>
    </g>
    <g clip-path="url(#p30596605e3)">
     <use xlink:href="#C3_0_7e31fdf083" x="150.037044" y="311.135847" style="fill: #4878d0"/>
    </g>
   </g>
   <g id="PathCollection_15">
    <defs>
     <path id="C4_0_cb36540ea7" d="M 0 2.5 
C 0.663008 2.5 1.29895 2.236584 1.767767 1.767767 
C 2.236584 1.29895 2.5 0.663008 2.5 -0 
C 2.5 -0.663008 2.236584 -1.29895 1.767767 -1.767767 
C 1.29895 -2.236584 0.663008 -2.5 0 -2.5 
C -0.663008 -2.5 -1.29895 -2.236584 -1.767767 -1.767767 
C -2.236584 -1.29895 -2.5 -0.663008 -2.5 0 
C -2.5 0.663008 -2.236584 1.29895 -1.767767 1.767767 
C -1.29895 2.236584 -0.663008 2.5 0 2.5 
z
"/>
    </defs>
    <g clip-path="url(#p30596605e3)">
     <use xlink:href="#C4_0_cb36540ea7" x="212.08104" y="282.07427" style="fill: #4878d0"/>
    </g>
    <g clip-path="url(#p30596605e3)">
     <use xlink:href="#C4_0_cb36540ea7" x="216.801092" y="280.704587" style="fill: #4878d0"/>
    </g>
    <g clip-path="url(#p30596605e3)">
     <use xlink:href="#C4_0_cb36540ea7" x="214.030827" y="288.887968" style="fill: #4878d0"/>
    </g>
    <g clip-path="url(#p30596605e3)">
     <use xlink:href="#C4_0_cb36540ea7" x="222.226543" y="280.633578" style="fill: #4878d0"/>
    </g>
    <g clip-path="url(#p30596605e3)">
     <use xlink:href="#C4_0_cb36540ea7" x="214.464125" y="286.697738" style="fill: #4878d0"/>
    </g>
   </g>
   <g id="PathCollection_16">
    <defs>
     <path id="C5_0_1035d43383" d="M 0 2.5 
C 0.663008 2.5 1.29895 2.236584 1.767767 1.767767 
C 2.236584 1.29895 2.5 0.663008 2.5 -0 
C 2.5 -0.663008 2.236584 -1.29895 1.767767 -1.767767 
C 1.29895 -2.236584 0.663008 -2.5 0 -2.5 
C -0.663008 -2.5 -1.29895 -2.236584 -1.767767 -1.767767 
C -2.236584 -1.29895 -2.5 -0.663008 -2.5 0 
C -2.5 0.663008 -2.236584 1.29895 -1.767767 1.767767 
C -1.29895 2.236584 -0.663008 2.5 0 2.5 
z
"/>
    </defs>
    <g clip-path="url(#p30596605e3)">
     <use xlink:href="#C5_0_1035d43383" x="278.588863" y="275.265305" style="fill: #4878d0"/>
    </g>
    <g clip-path="url(#p30596605e3)">
     <use xlink:href="#C5_0_1035d43383" x="277.059355" y="269.037035" style="fill: #4878d0"/>
    </g>
    <g clip-path="url(#p30596605e3)">
     <use xlink:href="#C5_0_1035d43383" x="275.280761" y="273.150818" style="fill: #4878d0"/>
    </g>
    <g clip-path="url(#p30596605e3)">
     <use xlink:href="#C5_0_1035d43383" x="284.237218" y="269.586171" style="fill: #4878d0"/>
    </g>
   </g>
   <g id="line2d_8"/>
   <g id="PathCollection_17">
    <path d="M 97.525399 335.144259 
L 95.025399 340.144259 
L 100.025399 340.144259 
z
" clip-path="url(#p30596605e3)" style="fill: #ee854a"/>
    <path d="M 87.88156 335.710752 
L 85.38156 340.710752 
L 90.38156 340.710752 
z
" clip-path="url(#p30596605e3)" style="fill: #ee854a"/>
    <path d="M 91.967062 346.384179 
L 89.467062 351.384179 
L 94.467062 351.384179 
z
" clip-path="url(#p30596605e3)" style="fill: #ee854a"/>
    <path d="M 97.71365 338.244981 
L 95.21365 343.244981 
L 100.21365 343.244981 
z
" clip-path="url(#p30596605e3)" style="fill: #ee854a"/>
    <path d="M 94.139875 335.69655 
L 91.639875 340.69655 
L 96.639875 340.69655 
z
" clip-path="url(#p30596605e3)" style="fill: #ee854a"/>
   </g>
   <g id="PathCollection_18">
    <path d="M 152.052062 296.466499 
L 149.552062 301.466499 
L 154.552062 301.466499 
z
" clip-path="url(#p30596605e3)" style="fill: #ee854a"/>
    <path d="M 152.899068 301.1736 
L 150.399068 306.1736 
L 155.399068 306.1736 
z
" clip-path="url(#p30596605e3)" style="fill: #ee854a"/>
    <path d="M 150.317533 295.819529 
L 147.817533 300.819529 
L 152.817533 300.819529 
z
" clip-path="url(#p30596605e3)" style="fill: #ee854a"/>
    <path d="M 158.347494 296.313435 
L 155.847494 301.313435 
L 160.847494 301.313435 
z
" clip-path="url(#p30596605e3)" style="fill: #ee854a"/>
    <path d="M 150.364913 299.745532 
L 147.864913 304.745532 
L 152.864913 304.745532 
z
" clip-path="url(#p30596605e3)" style="fill: #ee854a"/>
   </g>
   <g id="PathCollection_19">
    <path d="M 220.603723 238.539014 
L 218.103723 243.539014 
L 223.103723 243.539014 
z
" clip-path="url(#p30596605e3)" style="fill: #ee854a"/>
    <path d="M 220.379849 256.092415 
L 217.879849 261.092415 
L 222.879849 261.092415 
z
" clip-path="url(#p30596605e3)" style="fill: #ee854a"/>
    <path d="M 223.197132 240.88073 
L 220.697132 245.88073 
L 225.697132 245.88073 
z
" clip-path="url(#p30596605e3)" style="fill: #ee854a"/>
    <path d="M 215.258036 238.060887 
L 212.758036 243.060887 
L 217.758036 243.060887 
z
" clip-path="url(#p30596605e3)" style="fill: #ee854a"/>
    <path d="M 211.010585 240.063338 
L 208.510585 245.063338 
L 213.510585 245.063338 
z
" clip-path="url(#p30596605e3)" style="fill: #ee854a"/>
   </g>
   <g id="PathCollection_20">
    <path d="M 278.68895 149.301337 
L 276.18895 154.301337 
L 281.18895 154.301337 
z
" clip-path="url(#p30596605e3)" style="fill: #ee854a"/>
    <path d="M 276.399778 160.493918 
L 273.899778 165.493918 
L 278.899778 165.493918 
z
" clip-path="url(#p30596605e3)" style="fill: #ee854a"/>
    <path d="M 280.574089 202.741059 
L 278.074089 207.741059 
L 283.074089 207.741059 
z
" clip-path="url(#p30596605e3)" style="fill: #ee854a"/>
    <path d="M 273.801055 194.54032 
L 271.301055 199.54032 
L 276.301055 199.54032 
z
" clip-path="url(#p30596605e3)" style="fill: #ee854a"/>
    <path d="M 282.360825 172.939412 
L 279.860825 177.939412 
L 284.860825 177.939412 
z
" clip-path="url(#p30596605e3)" style="fill: #ee854a"/>
   </g>
   <g id="line2d_9"/>
   <g id="PathCollection_21">
    <path d="M 83.464596 346.485656 
L 88.464596 348.985656 
L 88.464596 343.985656 
z
" clip-path="url(#p30596605e3)" style="fill: #d65f5f"/>
    <path d="M 87.636687 359.234121 
L 92.636687 361.734121 
L 92.636687 356.734121 
z
" clip-path="url(#p30596605e3)" style="fill: #d65f5f"/>
    <path d="M 84.399099 361.571103 
L 89.399099 364.071103 
L 89.399099 359.071103 
z
" clip-path="url(#p30596605e3)" style="fill: #d65f5f"/>
    <path d="M 90.190103 353.641776 
L 95.190103 356.141776 
L 95.190103 351.141776 
z
" clip-path="url(#p30596605e3)" style="fill: #d65f5f"/>
    <path d="M 83.197063 353.173117 
L 88.197063 355.673117 
L 88.197063 350.673117 
z
" clip-path="url(#p30596605e3)" style="fill: #d65f5f"/>
   </g>
   <g id="PathCollection_22">
    <path d="M 152.184773 347.699119 
L 157.184773 350.199119 
L 157.184773 345.199119 
z
" clip-path="url(#p30596605e3)" style="fill: #d65f5f"/>
    <path d="M 147.317426 345.489954 
L 152.317426 347.989954 
L 152.317426 342.989954 
z
" clip-path="url(#p30596605e3)" style="fill: #d65f5f"/>
    <path d="M 149.794173 353.330914 
L 154.794173 355.830914 
L 154.794173 350.830914 
z
" clip-path="url(#p30596605e3)" style="fill: #d65f5f"/>
    <path d="M 146.524684 351.194335 
L 151.524684 353.694335 
L 151.524684 348.694335 
z
" clip-path="url(#p30596605e3)" style="fill: #d65f5f"/>
    <path d="M 150.049853 350.089753 
L 155.049853 352.589753 
L 155.049853 347.589753 
z
" clip-path="url(#p30596605e3)" style="fill: #d65f5f"/>
   </g>
   <g id="PathCollection_23">
    <path d="M 217.873555 312.84795 
L 222.873555 315.34795 
L 222.873555 310.34795 
z
" clip-path="url(#p30596605e3)" style="fill: #d65f5f"/>
    <path d="M 216.878041 293.404135 
L 221.878041 295.904135 
L 221.878041 290.904135 
z
" clip-path="url(#p30596605e3)" style="fill: #d65f5f"/>
    <path d="M 213.640908 287.633478 
L 218.640908 290.133478 
L 218.640908 285.133478 
z
" clip-path="url(#p30596605e3)" style="fill: #d65f5f"/>
    <path d="M 212.159484 274.588353 
L 217.159484 277.088353 
L 217.159484 272.088353 
z
" clip-path="url(#p30596605e3)" style="fill: #d65f5f"/>
    <path d="M 208.69164 287.914358 
L 213.69164 290.414358 
L 213.69164 285.414358 
z
" clip-path="url(#p30596605e3)" style="fill: #d65f5f"/>
    <path d="M 212.819008 299.812294 
L 217.819008 302.312294 
L 217.819008 297.312294 
z
" clip-path="url(#p30596605e3)" style="fill: #d65f5f"/>
   </g>
   <g id="PathCollection_24">
    <path d="M 276.504401 331.321311 
L 281.504401 333.821311 
L 281.504401 328.821311 
z
" clip-path="url(#p30596605e3)" style="fill: #d65f5f"/>
    <path d="M 271.606524 207.049419 
L 276.606524 209.549419 
L 276.606524 204.549419 
z
" clip-path="url(#p30596605e3)" style="fill: #d65f5f"/>
    <path d="M 282.863308 206.350376 
L 287.863308 208.850376 
L 287.863308 203.850376 
z
" clip-path="url(#p30596605e3)" style="fill: #d65f5f"/>
    <path d="M 283.317824 317.760188 
L 288.317824 320.260188 
L 288.317824 315.260188 
z
" clip-path="url(#p30596605e3)" style="fill: #d65f5f"/>
    <path d="M 276.440548 329.41985 
L 281.440548 331.91985 
L 281.440548 326.91985 
z
" clip-path="url(#p30596605e3)" style="fill: #d65f5f"/>
    <path d="M 280.303301 210.763974 
L 285.303301 213.263974 
L 285.303301 208.263974 
z
" clip-path="url(#p30596605e3)" style="fill: #d65f5f"/>
    <path d="M 276.46336 308.633177 
L 281.46336 311.133177 
L 281.46336 306.133177 
z
" clip-path="url(#p30596605e3)" style="fill: #d65f5f"/>
    <path d="M 278.218889 316.043351 
L 283.218889 318.543351 
L 283.218889 313.543351 
z
" clip-path="url(#p30596605e3)" style="fill: #d65f5f"/>
    <path d="M 271.411717 208.857779 
L 276.411717 211.357779 
L 276.411717 206.357779 
z
" clip-path="url(#p30596605e3)" style="fill: #d65f5f"/>
    <path d="M 272.625462 324.513924 
L 277.625462 327.013924 
L 277.625462 322.013924 
z
" clip-path="url(#p30596605e3)" style="fill: #d65f5f"/>
    <path d="M 279.995322 243.178749 
L 284.995322 245.678749 
L 284.995322 240.678749 
z
" clip-path="url(#p30596605e3)" style="fill: #d65f5f"/>
   </g>
   <g id="line2d_10"/>
   <g id="PathCollection_25">
    <path d="M 92.648276 354.390605 
L 94.769596 350.855071 
L 92.648276 347.319537 
L 90.526956 350.855071 
z
" clip-path="url(#p30596605e3)" style="fill: #008000"/>
    <path d="M 91.586098 354.748805 
L 93.707418 351.213271 
L 91.586098 347.677737 
L 89.464778 351.213271 
z
" clip-path="url(#p30596605e3)" style="fill: #008000"/>
    <path d="M 89.957188 358.586442 
L 92.078509 355.050908 
L 89.957188 351.515374 
L 87.835868 355.050908 
z
" clip-path="url(#p30596605e3)" style="fill: #008000"/>
    <path d="M 92.035111 354.957098 
L 94.156432 351.421564 
L 92.035111 347.88603 
L 89.913791 351.421564 
z
" clip-path="url(#p30596605e3)" style="fill: #008000"/>
    <path d="M 85.844496 354.491595 
L 87.965816 350.956061 
L 85.844496 347.420527 
L 83.723175 350.956061 
z
" clip-path="url(#p30596605e3)" style="fill: #008000"/>
   </g>
   <g id="PathCollection_26">
    <path d="M 159.545929 339.620753 
L 161.667249 336.085219 
L 159.545929 332.549685 
L 157.424608 336.085219 
z
" clip-path="url(#p30596605e3)" style="fill: #008000"/>
    <path d="M 150.761258 338.948535 
L 152.882578 335.413001 
L 150.761258 331.877467 
L 148.639937 335.413001 
z
" clip-path="url(#p30596605e3)" style="fill: #008000"/>
    <path d="M 160.155575 343.248519 
L 162.276895 339.712985 
L 160.155575 336.177451 
L 158.034254 339.712985 
z
" clip-path="url(#p30596605e3)" style="fill: #008000"/>
    <path d="M 159.578385 339.745413 
L 161.699706 336.209879 
L 159.578385 332.674345 
L 157.457065 336.209879 
z
" clip-path="url(#p30596605e3)" style="fill: #008000"/>
    <path d="M 158.256056 339.308314 
L 160.377377 335.77278 
L 158.256056 332.237246 
L 156.134736 335.77278 
z
" clip-path="url(#p30596605e3)" style="fill: #008000"/>
   </g>
   <g id="PathCollection_27">
    <path d="M 218.473674 331.394766 
L 220.594994 327.859232 
L 218.473674 324.323698 
L 216.352353 327.859232 
z
" clip-path="url(#p30596605e3)" style="fill: #008000"/>
    <path d="M 223.336318 329.016757 
L 225.457638 325.481223 
L 223.336318 321.945689 
L 221.214997 325.481223 
z
" clip-path="url(#p30596605e3)" style="fill: #008000"/>
    <path d="M 212.16188 328.95206 
L 214.2832 325.416526 
L 212.16188 321.880992 
L 210.040559 325.416526 
z
" clip-path="url(#p30596605e3)" style="fill: #008000"/>
   </g>
   <g id="PathCollection_28">
    <defs>
     <path id="me56cd221ae" d="M -0 3.535534 
L 2.12132 0 
L 0 -3.535534 
L -2.12132 -0 
z
"/>
    </defs>
    <g clip-path="url(#p30596605e3)">
     <use xlink:href="#me56cd221ae" x="279.72" y="323.114259" style="fill: #008000"/>
    </g>
   </g>
   <g id="line2d_11"/>
   <g id="text_11">
    <!-- LAMMPS M/Atom Steps per Second 64x64x32 (CPU) -->
    <g style="fill: #262626" transform="translate(69.063047 20.16) scale(0.09 -0.09)">
     <defs>
      <path id="DejaVuSans-4c" d="M 628 4666 
L 1259 4666 
L 1259 531 
L 3531 531 
L 3531 0 
L 628 0 
L 628 4666 
z
" transform="scale(0.015625)"/>
      <path id="DejaVuSans-50" d="M 1259 4147 
L 1259 2394 
L 2053 2394 
Q 2494 2394 2734 2622 
Q 2975 2850 2975 3272 
Q 2975 3691 2734 3919 
Q 2494 4147 2053 4147 
L 1259 4147 
z
M 628 4666 
L 2053 4666 
Q 2838 4666 3239 4311 
Q 3641 3956 3641 3272 
Q 3641 2581 3239 2228 
Q 2838 1875 2053 1875 
L 1259 1875 
L 1259 0 
L 628 0 
L 628 4666 
z
" transform="scale(0.015625)"/>
      <path id="DejaVuSans-2f" d="M 1625 4666 
L 2156 4666 
L 531 -594 
L 0 -594 
L 1625 4666 
z
" transform="scale(0.015625)"/>
      <path id="DejaVuSans-78" d="M 3513 3500 
L 2247 1797 
L 3578 0 
L 2900 0 
L 1881 1375 
L 863 0 
L 184 0 
L 1544 1831 
L 300 3500 
L 978 3500 
L 1906 2253 
L 2834 3500 
L 3513 3500 
z
" transform="scale(0.015625)"/>
      <path id="DejaVuSans-28" d="M 1984 4856 
Q 1566 4138 1362 3434 
Q 1159 2731 1159 2009 
Q 1159 1288 1364 580 
Q 1569 -128 1984 -844 
L 1484 -844 
Q 1016 -109 783 600 
Q 550 1309 550 2009 
Q 550 2706 781 3412 
Q 1013 4119 1484 4856 
L 1984 4856 
z
" transform="scale(0.015625)"/>
      <path id="DejaVuSans-43" d="M 4122 4306 
L 4122 3641 
Q 3803 3938 3442 4084 
Q 3081 4231 2675 4231 
Q 1875 4231 1450 3742 
Q 1025 3253 1025 2328 
Q 1025 1406 1450 917 
Q 1875 428 2675 428 
Q 3081 428 3442 575 
Q 3803 722 4122 1019 
L 4122 359 
Q 3791 134 3420 21 
Q 3050 -91 2638 -91 
Q 1578 -91 968 557 
Q 359 1206 359 2328 
Q 359 3453 968 4101 
Q 1578 4750 2638 4750 
Q 3056 4750 3426 4639 
Q 3797 4528 4122 4306 
z
" transform="scale(0.015625)"/>
      <path id="DejaVuSans-55" d="M 556 4666 
L 1191 4666 
L 1191 1831 
Q 1191 1081 1462 751 
Q 1734 422 2344 422 
Q 2950 422 3222 751 
Q 3494 1081 3494 1831 
L 3494 4666 
L 4128 4666 
L 4128 1753 
Q 4128 841 3676 375 
Q 3225 -91 2344 -91 
Q 1459 -91 1007 375 
Q 556 841 556 1753 
L 556 4666 
z
" transform="scale(0.015625)"/>
      <path id="DejaVuSans-29" d="M 513 4856 
L 1013 4856 
Q 1481 4119 1714 3412 
Q 1947 2706 1947 2009 
Q 1947 1309 1714 600 
Q 1481 -109 1013 -844 
L 513 -844 
Q 928 -128 1133 580 
Q 1338 1288 1338 2009 
Q 1338 2731 1133 3434 
Q 928 4138 513 4856 
z
" transform="scale(0.015625)"/>
     </defs>
     <use xlink:href="#DejaVuSans-4c"/>
     <use xlink:href="#DejaVuSans-41" x="57.962891"/>
     <use xlink:href="#DejaVuSans-4d" x="126.371094"/>
     <use xlink:href="#DejaVuSans-4d" x="212.650391"/>
     <use xlink:href="#DejaVuSans-50" x="298.929688"/>
     <use xlink:href="#DejaVuSans-53" x="359.232422"/>
     <use xlink:href="#DejaVuSans-20" x="422.708984"/>
     <use xlink:href="#DejaVuSans-4d" x="454.496094"/>
     <use xlink:href="#DejaVuSans-2f" x="540.775391"/>
     <use xlink:href="#DejaVuSans-41" x="574.466797"/>
     <use xlink:href="#DejaVuSans-74" x="641.125"/>
     <use xlink:href="#DejaVuSans-6f" x="680.333984"/>
     <use xlink:href="#DejaVuSans-6d" x="741.515625"/>
     <use xlink:href="#DejaVuSans-20" x="838.927734"/>
     <use xlink:href="#DejaVuSans-53" x="870.714844"/>
     <use xlink:href="#DejaVuSans-74" x="934.191406"/>
     <use xlink:href="#DejaVuSans-65" x="973.400391"/>
     <use xlink:href="#DejaVuSans-70" x="1034.923828"/>
     <use xlink:href="#DejaVuSans-73" x="1098.400391"/>
     <use xlink:href="#DejaVuSans-20" x="1150.5"/>
     <use xlink:href="#DejaVuSans-70" x="1182.287109"/>
     <use xlink:href="#DejaVuSans-65" x="1245.763672"/>
     <use xlink:href="#DejaVuSans-72" x="1307.287109"/>
     <use xlink:href="#DejaVuSans-20" x="1348.400391"/>
     <use xlink:href="#DejaVuSans-53" x="1380.1875"/>
     <use xlink:href="#DejaVuSans-65" x="1443.664062"/>
     <use xlink:href="#DejaVuSans-63" x="1505.1875"/>
     <use xlink:href="#DejaVuSans-6f" x="1560.167969"/>
     <use xlink:href="#DejaVuSans-6e" x="1621.349609"/>
     <use xlink:href="#DejaVuSans-64" x="1684.728516"/>
     <use xlink:href="#DejaVuSans-20" x="1748.205078"/>
     <use xlink:href="#DejaVuSans-36" x="1779.992188"/>
     <use xlink:href="#DejaVuSans-34" x="1843.615234"/>
     <use xlink:href="#DejaVuSans-78" x="1907.238281"/>
     <use xlink:href="#DejaVuSans-36" x="1966.417969"/>
     <use xlink:href="#DejaVuSans-34" x="2030.041016"/>
     <use xlink:href="#DejaVuSans-78" x="2093.664062"/>
     <use xlink:href="#DejaVuSans-33" x="2152.84375"/>
     <use xlink:href="#DejaVuSans-32" x="2216.466797"/>
     <use xlink:href="#DejaVuSans-20" x="2280.089844"/>
     <use xlink:href="#DejaVuSans-28" x="2311.876953"/>
     <use xlink:href="#DejaVuSans-43" x="2350.890625"/>
     <use xlink:href="#DejaVuSans-50" x="2420.714844"/>
     <use xlink:href="#DejaVuSans-55" x="2481.017578"/>
     <use xlink:href="#DejaVuSans-29" x="2554.210938"/>
    </g>
   </g>
   <g id="legend_1">
    <g id="patch_7">
     <path d="M 68.18 147.981562 
L 258.062344 147.981562 
Q 260.262344 147.981562 260.262344 145.781563 
L 260.262344 33.86 
Q 260.262344 31.66 258.062344 31.66 
L 68.18 31.66 
Q 65.98 31.66 65.98 33.86 
L 65.98 145.781563 
Q 65.98 147.981562 68.18 147.981562 
z
" style="fill: #ffffff; opacity: 0.8; stroke: #cccccc; stroke-linejoin: miter"/>
    </g>
    <g id="line2d_12">
     <defs>
      <path id="m14a0b2309e" d="M 0 -2.5 
L -2.377641 -0.772542 
L -1.469463 2.022542 
L 1.469463 2.022542 
L 2.377641 -0.772542 
z
"/>
     </defs>
     <g>
      <use xlink:href="#m14a0b2309e" x="81.38" y="40.568281" style="fill: #8c613c"/>
     </g>
    </g>
    <g id="text_12">
     <!-- google/gke/cpu -->
     <g style="fill: #262626" transform="translate(101.18 44.418281) scale(0.11 -0.11)">
      <defs>
       <path id="DejaVuSans-67" d="M 2906 1791 
Q 2906 2416 2648 2759 
Q 2391 3103 1925 3103 
Q 1463 3103 1205 2759 
Q 947 2416 947 1791 
Q 947 1169 1205 825 
Q 1463 481 1925 481 
Q 2391 481 2648 825 
Q 2906 1169 2906 1791 
z
M 3481 434 
Q 3481 -459 3084 -895 
Q 2688 -1331 1869 -1331 
Q 1566 -1331 1297 -1286 
Q 1028 -1241 775 -1147 
L 775 -588 
Q 1028 -725 1275 -790 
Q 1522 -856 1778 -856 
Q 2344 -856 2625 -561 
Q 2906 -266 2906 331 
L 2906 616 
Q 2728 306 2450 153 
Q 2172 0 1784 0 
Q 1141 0 747 490 
Q 353 981 353 1791 
Q 353 2603 747 3093 
Q 1141 3584 1784 3584 
Q 2172 3584 2450 3431 
Q 2728 3278 2906 2969 
L 2906 3500 
L 3481 3500 
L 3481 434 
z
" transform="scale(0.015625)"/>
       <path id="DejaVuSans-6b" d="M 581 4863 
L 1159 4863 
L 1159 1991 
L 2875 3500 
L 3609 3500 
L 1753 1863 
L 3688 0 
L 2938 0 
L 1159 1709 
L 1159 0 
L 581 0 
L 581 4863 
z
" transform="scale(0.015625)"/>
       <path id="DejaVuSans-75" d="M 544 1381 
L 544 3500 
L 1119 3500 
L 1119 1403 
Q 1119 906 1312 657 
Q 1506 409 1894 409 
Q 2359 409 2629 706 
Q 2900 1003 2900 1516 
L 2900 3500 
L 3475 3500 
L 3475 0 
L 2900 0 
L 2900 538 
Q 2691 219 2414 64 
Q 2138 -91 1772 -91 
Q 1169 -91 856 284 
Q 544 659 544 1381 
z
M 1991 3584 
L 1991 3584 
z
" transform="scale(0.015625)"/>
      </defs>
      <use xlink:href="#DejaVuSans-67"/>
      <use xlink:href="#DejaVuSans-6f" x="63.476562"/>
      <use xlink:href="#DejaVuSans-6f" x="124.658203"/>
      <use xlink:href="#DejaVuSans-67" x="185.839844"/>
      <use xlink:href="#DejaVuSans-6c" x="249.316406"/>
      <use xlink:href="#DejaVuSans-65" x="277.099609"/>
      <use xlink:href="#DejaVuSans-2f" x="338.623047"/>
      <use xlink:href="#DejaVuSans-67" x="372.314453"/>
      <use xlink:href="#DejaVuSans-6b" x="435.791016"/>
      <use xlink:href="#DejaVuSans-65" x="490.076172"/>
      <use xlink:href="#DejaVuSans-2f" x="551.599609"/>
      <use xlink:href="#DejaVuSans-63" x="585.291016"/>
      <use xlink:href="#DejaVuSans-70" x="640.271484"/>
      <use xlink:href="#DejaVuSans-75" x="703.748047"/>
     </g>
    </g>
    <g id="line2d_13">
     <g>
      <use xlink:href="#me7a5145b3e" x="81.38" y="56.714219" style="fill: #6c3baa"/>
     </g>
    </g>
    <g id="text_13">
     <!-- google/compute-engine/cpu -->
     <g style="fill: #262626" transform="translate(101.18 60.564219) scale(0.11 -0.11)">
      <defs>
       <path id="DejaVuSans-2d" d="M 313 2009 
L 1997 2009 
L 1997 1497 
L 313 1497 
L 313 2009 
z
" transform="scale(0.015625)"/>
      </defs>
      <use xlink:href="#DejaVuSans-67"/>
      <use xlink:href="#DejaVuSans-6f" x="63.476562"/>
      <use xlink:href="#DejaVuSans-6f" x="124.658203"/>
      <use xlink:href="#DejaVuSans-67" x="185.839844"/>
      <use xlink:href="#DejaVuSans-6c" x="249.316406"/>
      <use xlink:href="#DejaVuSans-65" x="277.099609"/>
      <use xlink:href="#DejaVuSans-2f" x="338.623047"/>
      <use xlink:href="#DejaVuSans-63" x="372.314453"/>
      <use xlink:href="#DejaVuSans-6f" x="427.294922"/>
      <use xlink:href="#DejaVuSans-6d" x="488.476562"/>
      <use xlink:href="#DejaVuSans-70" x="585.888672"/>
      <use xlink:href="#DejaVuSans-75" x="649.365234"/>
      <use xlink:href="#DejaVuSans-74" x="712.744141"/>
      <use xlink:href="#DejaVuSans-65" x="751.953125"/>
      <use xlink:href="#DejaVuSans-2d" x="813.476562"/>
      <use xlink:href="#DejaVuSans-65" x="849.560547"/>
      <use xlink:href="#DejaVuSans-6e" x="911.083984"/>
      <use xlink:href="#DejaVuSans-67" x="974.462891"/>
      <use xlink:href="#DejaVuSans-69" x="1037.939453"/>
      <use xlink:href="#DejaVuSans-6e" x="1065.722656"/>
      <use xlink:href="#DejaVuSans-65" x="1129.101562"/>
      <use xlink:href="#DejaVuSans-2f" x="1190.625"/>
      <use xlink:href="#DejaVuSans-63" x="1224.316406"/>
      <use xlink:href="#DejaVuSans-70" x="1279.296875"/>
      <use xlink:href="#DejaVuSans-75" x="1342.773438"/>
     </g>
    </g>
    <g id="line2d_14">
     <defs>
      <path id="me439a14c4d" d="M -0 3.535534 
L 3.535534 0 
L 0 -3.535534 
L -3.535534 -0 
z
"/>
     </defs>
     <g>
      <use xlink:href="#me439a14c4d" x="81.38" y="72.860156" style="fill: #dc7ec0"/>
     </g>
    </g>
    <g id="text_14">
     <!-- on-premises/dane/cpu -->
     <g style="fill: #262626" transform="translate(101.18 76.710156) scale(0.11 -0.11)">
      <defs>
       <path id="DejaVuSans-61" d="M 2194 1759 
Q 1497 1759 1228 1600 
Q 959 1441 959 1056 
Q 959 750 1161 570 
Q 1363 391 1709 391 
Q 2188 391 2477 730 
Q 2766 1069 2766 1631 
L 2766 1759 
L 2194 1759 
z
M 3341 1997 
L 3341 0 
L 2766 0 
L 2766 531 
Q 2569 213 2275 61 
Q 1981 -91 1556 -91 
Q 1019 -91 701 211 
Q 384 513 384 1019 
Q 384 1609 779 1909 
Q 1175 2209 1959 2209 
L 2766 2209 
L 2766 2266 
Q 2766 2663 2505 2880 
Q 2244 3097 1772 3097 
Q 1472 3097 1187 3025 
Q 903 2953 641 2809 
L 641 3341 
Q 956 3463 1253 3523 
Q 1550 3584 1831 3584 
Q 2591 3584 2966 3190 
Q 3341 2797 3341 1997 
z
" transform="scale(0.015625)"/>
      </defs>
      <use xlink:href="#DejaVuSans-6f"/>
      <use xlink:href="#DejaVuSans-6e" x="61.181641"/>
      <use xlink:href="#DejaVuSans-2d" x="124.560547"/>
      <use xlink:href="#DejaVuSans-70" x="160.644531"/>
      <use xlink:href="#DejaVuSans-72" x="224.121094"/>
      <use xlink:href="#DejaVuSans-65" x="262.984375"/>
      <use xlink:href="#DejaVuSans-6d" x="324.507812"/>
      <use xlink:href="#DejaVuSans-69" x="421.919922"/>
      <use xlink:href="#DejaVuSans-73" x="449.703125"/>
      <use xlink:href="#DejaVuSans-65" x="501.802734"/>
      <use xlink:href="#DejaVuSans-73" x="563.326172"/>
      <use xlink:href="#DejaVuSans-2f" x="615.425781"/>
      <use xlink:href="#DejaVuSans-64" x="649.117188"/>
      <use xlink:href="#DejaVuSans-61" x="712.59375"/>
      <use xlink:href="#DejaVuSans-6e" x="773.873047"/>
      <use xlink:href="#DejaVuSans-65" x="837.251953"/>
      <use xlink:href="#DejaVuSans-2f" x="898.775391"/>
      <use xlink:href="#DejaVuSans-63" x="932.466797"/>
      <use xlink:href="#DejaVuSans-70" x="987.447266"/>
      <use xlink:href="#DejaVuSans-75" x="1050.923828"/>
     </g>
    </g>
    <g id="line2d_15">
     <defs>
      <path id="m25e9f63277" d="M 0 2.5 
C 0.663008 2.5 1.29895 2.236584 1.767767 1.767767 
C 2.236584 1.29895 2.5 0.663008 2.5 0 
C 2.5 -0.663008 2.236584 -1.29895 1.767767 -1.767767 
C 1.29895 -2.236584 0.663008 -2.5 0 -2.5 
C -0.663008 -2.5 -1.29895 -2.236584 -1.767767 -1.767767 
C -2.236584 -1.29895 -2.5 -0.663008 -2.5 0 
C -2.5 0.663008 -2.236584 1.29895 -1.767767 1.767767 
C -1.29895 2.236584 -0.663008 2.5 0 2.5 
z
"/>
     </defs>
     <g>
      <use xlink:href="#m25e9f63277" x="81.38" y="89.006094" style="fill: #4878d0"/>
     </g>
    </g>
    <g id="text_15">
     <!-- aws/eks/cpu -->
     <g style="fill: #262626" transform="translate(101.18 92.856094) scale(0.11 -0.11)">
      <defs>
       <path id="DejaVuSans-77" d="M 269 3500 
L 844 3500 
L 1563 769 
L 2278 3500 
L 2956 3500 
L 3675 769 
L 4391 3500 
L 4966 3500 
L 4050 0 
L 3372 0 
L 2619 2869 
L 1863 0 
L 1184 0 
L 269 3500 
z
" transform="scale(0.015625)"/>
      </defs>
      <use xlink:href="#DejaVuSans-61"/>
      <use xlink:href="#DejaVuSans-77" x="61.279297"/>
      <use xlink:href="#DejaVuSans-73" x="143.066406"/>
      <use xlink:href="#DejaVuSans-2f" x="195.166016"/>
      <use xlink:href="#DejaVuSans-65" x="228.857422"/>
      <use xlink:href="#DejaVuSans-6b" x="290.380859"/>
      <use xlink:href="#DejaVuSans-73" x="348.291016"/>
      <use xlink:href="#DejaVuSans-2f" x="400.390625"/>
      <use xlink:href="#DejaVuSans-63" x="434.082031"/>
      <use xlink:href="#DejaVuSans-70" x="489.0625"/>
      <use xlink:href="#DejaVuSans-75" x="552.539062"/>
     </g>
    </g>
    <g id="line2d_16">
     <defs>
      <path id="m0ab543b750" d="M 0 -2.5 
L -2.5 2.5 
L 2.5 2.5 
z
"/>
     </defs>
     <g>
      <use xlink:href="#m0ab543b750" x="81.38" y="105.152031" style="fill: #ee854a"/>
     </g>
    </g>
    <g id="text_16">
     <!-- aws/parallel-cluster/cpu -->
     <g style="fill: #262626" transform="translate(101.18 109.002031) scale(0.11 -0.11)">
      <use xlink:href="#DejaVuSans-61"/>
      <use xlink:href="#DejaVuSans-77" x="61.279297"/>
      <use xlink:href="#DejaVuSans-73" x="143.066406"/>
      <use xlink:href="#DejaVuSans-2f" x="195.166016"/>
      <use xlink:href="#DejaVuSans-70" x="228.857422"/>
      <use xlink:href="#DejaVuSans-61" x="292.333984"/>
      <use xlink:href="#DejaVuSans-72" x="353.613281"/>
      <use xlink:href="#DejaVuSans-61" x="394.726562"/>
      <use xlink:href="#DejaVuSans-6c" x="456.005859"/>
      <use xlink:href="#DejaVuSans-6c" x="483.789062"/>
      <use xlink:href="#DejaVuSans-65" x="511.572266"/>
      <use xlink:href="#DejaVuSans-6c" x="573.095703"/>
      <use xlink:href="#DejaVuSans-2d" x="600.878906"/>
      <use xlink:href="#DejaVuSans-63" x="636.962891"/>
      <use xlink:href="#DejaVuSans-6c" x="691.943359"/>
      <use xlink:href="#DejaVuSans-75" x="719.726562"/>
      <use xlink:href="#DejaVuSans-73" x="783.105469"/>
      <use xlink:href="#DejaVuSans-74" x="835.205078"/>
      <use xlink:href="#DejaVuSans-65" x="874.414062"/>
      <use xlink:href="#DejaVuSans-72" x="935.9375"/>
      <use xlink:href="#DejaVuSans-2f" x="977.050781"/>
      <use xlink:href="#DejaVuSans-63" x="1010.742188"/>
      <use xlink:href="#DejaVuSans-70" x="1065.722656"/>
      <use xlink:href="#DejaVuSans-75" x="1129.199219"/>
     </g>
    </g>
    <g id="line2d_17">
     <defs>
      <path id="m4f224cbeb5" d="M -2.5 -0 
L 2.5 2.5 
L 2.5 -2.5 
z
"/>
     </defs>
     <g>
      <use xlink:href="#m4f224cbeb5" x="81.38" y="121.297969" style="fill: #d65f5f"/>
     </g>
    </g>
    <g id="text_17">
     <!-- azure/cyclecloud/cpu -->
     <g style="fill: #262626" transform="translate(101.18 125.147969) scale(0.11 -0.11)">
      <defs>
       <path id="DejaVuSans-7a" d="M 353 3500 
L 3084 3500 
L 3084 2975 
L 922 459 
L 3084 459 
L 3084 0 
L 275 0 
L 275 525 
L 2438 3041 
L 353 3041 
L 353 3500 
z
" transform="scale(0.015625)"/>
       <path id="DejaVuSans-79" d="M 2059 -325 
Q 1816 -950 1584 -1140 
Q 1353 -1331 966 -1331 
L 506 -1331 
L 506 -850 
L 844 -850 
Q 1081 -850 1212 -737 
Q 1344 -625 1503 -206 
L 1606 56 
L 191 3500 
L 800 3500 
L 1894 763 
L 2988 3500 
L 3597 3500 
L 2059 -325 
z
" transform="scale(0.015625)"/>
      </defs>
      <use xlink:href="#DejaVuSans-61"/>
      <use xlink:href="#DejaVuSans-7a" x="61.279297"/>
      <use xlink:href="#DejaVuSans-75" x="113.769531"/>
      <use xlink:href="#DejaVuSans-72" x="177.148438"/>
      <use xlink:href="#DejaVuSans-65" x="216.011719"/>
      <use xlink:href="#DejaVuSans-2f" x="277.535156"/>
      <use xlink:href="#DejaVuSans-63" x="311.226562"/>
      <use xlink:href="#DejaVuSans-79" x="366.207031"/>
      <use xlink:href="#DejaVuSans-63" x="425.386719"/>
      <use xlink:href="#DejaVuSans-6c" x="480.367188"/>
      <use xlink:href="#DejaVuSans-65" x="508.150391"/>
      <use xlink:href="#DejaVuSans-63" x="569.673828"/>
      <use xlink:href="#DejaVuSans-6c" x="624.654297"/>
      <use xlink:href="#DejaVuSans-6f" x="652.4375"/>
      <use xlink:href="#DejaVuSans-75" x="713.619141"/>
      <use xlink:href="#DejaVuSans-64" x="776.998047"/>
      <use xlink:href="#DejaVuSans-2f" x="840.474609"/>
      <use xlink:href="#DejaVuSans-63" x="874.166016"/>
      <use xlink:href="#DejaVuSans-70" x="929.146484"/>
      <use xlink:href="#DejaVuSans-75" x="992.623047"/>
     </g>
    </g>
    <g id="line2d_18">
     <defs>
      <path id="mb586748165" d="M -0 3.535534 
L 2.12132 0 
L -0 -3.535534 
L -2.12132 -0 
z
"/>
     </defs>
     <g>
      <use xlink:href="#mb586748165" x="81.38" y="137.443906" style="fill: #008000"/>
     </g>
    </g>
    <g id="text_18">
     <!-- azure/aks/cpu -->
     <g style="fill: #262626" transform="translate(101.18 141.293906) scale(0.11 -0.11)">
      <use xlink:href="#DejaVuSans-61"/>
      <use xlink:href="#DejaVuSans-7a" x="61.279297"/>
      <use xlink:href="#DejaVuSans-75" x="113.769531"/>
      <use xlink:href="#DejaVuSans-72" x="177.148438"/>
      <use xlink:href="#DejaVuSans-65" x="216.011719"/>
      <use xlink:href="#DejaVuSans-2f" x="277.535156"/>
      <use xlink:href="#DejaVuSans-61" x="311.226562"/>
      <use xlink:href="#DejaVuSans-6b" x="372.505859"/>
      <use xlink:href="#DejaVuSans-73" x="430.416016"/>
      <use xlink:href="#DejaVuSans-2f" x="482.515625"/>
      <use xlink:href="#DejaVuSans-63" x="516.207031"/>
      <use xlink:href="#DejaVuSans-70" x="571.1875"/>
      <use xlink:href="#DejaVuSans-75" x="634.664062"/>
     </g>
    </g>
   </g>
  </g>
 </g>
 <defs>
  <clipPath id="p30596605e3">
   <rect x="60.48" y="26.16" width="250.56" height="355.62"/>
  </clipPath>
 </defs>
</svg>
