<?xml version="1.0" encoding="utf-8" standalone="no"?>
<!DOCTYPE svg PUBLIC "-//W3C//DTD SVG 1.1//EN"
  "http://www.w3.org/Graphics/SVG/1.1/DTD/svg11.dtd">
<svg xmlns:xlink="http://www.w3.org/1999/xlink" width="1296pt" height="237.6pt" viewBox="0 0 1296 237.6" xmlns="http://www.w3.org/2000/svg" version="1.1">
 <metadata>
  <rdf:RDF xmlns:dc="http://purl.org/dc/elements/1.1/" xmlns:cc="http://creativecommons.org/ns#" xmlns:rdf="http://www.w3.org/1999/02/22-rdf-syntax-ns#">
   <cc:Work>
    <dc:type rdf:resource="http://purl.org/dc/dcmitype/StillImage"/>
    <dc:date>2025-06-30T13:57:47.906317</dc:date>
    <dc:format>image/svg+xml</dc:format>
    <dc:creator>
     <cc:Agent>
      <dc:title>Matplotlib v3.8.4, https://matplotlib.org/</dc:title>
     </cc:Agent>
    </dc:creator>
   </cc:Work>
  </rdf:RDF>
 </metadata>
 <defs>
  <style type="text/css">*{stroke-linejoin: round; stroke-linecap: butt}</style>
 </defs>
 <g id="figure_1">
  <g id="patch_1">
   <path d="M 0 237.6 
L 1296 237.6 
L 1296 0 
L 0 0 
z
" style="fill: #ffffff"/>
  </g>
  <g id="axes_1">
   <g id="patch_2">
    <path d="M 61.2 186.66 
L 515.12 186.66 
L 515.12 29.76 
L 61.2 29.76 
z
" style="fill: #ffffff"/>
   </g>
   <g id="matplotlib.axis_1">
    <g id="xtick_1">
     <g id="text_1">
      <!-- 32 -->
      <g style="fill: #262626" transform="translate(110.94125 204.518281) scale(0.11 -0.11)">
       <defs>
        <path id="DejaVuSans-33" d="M 2597 2516 
Q 3050 2419 3304 2112 
Q 3559 1806 3559 1356 
Q 3559 666 3084 287 
Q 2609 -91 1734 -91 
Q 1441 -91 1130 -33 
Q 819 25 488 141 
L 488 750 
Q 750 597 1062 519 
Q 1375 441 1716 441 
Q 2309 441 2620 675 
Q 2931 909 2931 1356 
Q 2931 1769 2642 2001 
Q 2353 2234 1838 2234 
L 1294 2234 
L 1294 2753 
L 1863 2753 
Q 2328 2753 2575 2939 
Q 2822 3125 2822 3475 
Q 2822 3834 2567 4026 
Q 2313 4219 1838 4219 
Q 1578 4219 1281 4162 
Q 984 4106 628 3988 
L 628 4550 
Q 988 4650 1302 4700 
Q 1616 4750 1894 4750 
Q 2613 4750 3031 4423 
Q 3450 4097 3450 3541 
Q 3450 3153 3228 2886 
Q 3006 2619 2597 2516 
z
" transform="scale(0.015625)"/>
        <path id="DejaVuSans-32" d="M 1228 531 
L 3431 531 
L 3431 0 
L 469 0 
L 469 531 
Q 828 903 1448 1529 
Q 2069 2156 2228 2338 
Q 2531 2678 2651 2914 
Q 2772 3150 2772 3378 
Q 2772 3750 2511 3984 
Q 2250 4219 1831 4219 
Q 1534 4219 1204 4116 
Q 875 4013 500 3803 
L 500 4441 
Q 881 4594 1212 4672 
Q 1544 4750 1819 4750 
Q 2544 4750 2975 4387 
Q 3406 4025 3406 3419 
Q 3406 3131 3298 2873 
Q 3191 2616 2906 2266 
Q 2828 2175 2409 1742 
Q 1991 1309 1228 531 
z
" transform="scale(0.015625)"/>
       </defs>
       <use xlink:href="#DejaVuSans-33"/>
       <use xlink:href="#DejaVuSans-32" x="63.623047"/>
      </g>
     </g>
    </g>
    <g id="xtick_2">
     <g id="text_2">
      <!-- 64 -->
      <g style="fill: #262626" transform="translate(224.42125 204.518281) scale(0.11 -0.11)">
       <defs>
        <path id="DejaVuSans-36" d="M 2113 2584 
Q 1688 2584 1439 2293 
Q 1191 2003 1191 1497 
Q 1191 994 1439 701 
Q 1688 409 2113 409 
Q 2538 409 2786 701 
Q 3034 994 3034 1497 
Q 3034 2003 2786 2293 
Q 2538 2584 2113 2584 
z
M 3366 4563 
L 3366 3988 
Q 3128 4100 2886 4159 
Q 2644 4219 2406 4219 
Q 1781 4219 1451 3797 
Q 1122 3375 1075 2522 
Q 1259 2794 1537 2939 
Q 1816 3084 2150 3084 
Q 2853 3084 3261 2657 
Q 3669 2231 3669 1497 
Q 3669 778 3244 343 
Q 2819 -91 2113 -91 
Q 1303 -91 875 529 
Q 447 1150 447 2328 
Q 447 3434 972 4092 
Q 1497 4750 2381 4750 
Q 2619 4750 2861 4703 
Q 3103 4656 3366 4563 
z
" transform="scale(0.015625)"/>
        <path id="DejaVuSans-34" d="M 2419 4116 
L 825 1625 
L 2419 1625 
L 2419 4116 
z
M 2253 4666 
L 3047 4666 
L 3047 1625 
L 3713 1625 
L 3713 1100 
L 3047 1100 
L 3047 0 
L 2419 0 
L 2419 1100 
L 313 1100 
L 313 1709 
L 2253 4666 
z
" transform="scale(0.015625)"/>
       </defs>
       <use xlink:href="#DejaVuSans-36"/>
       <use xlink:href="#DejaVuSans-34" x="63.623047"/>
      </g>
     </g>
    </g>
    <g id="xtick_3">
     <g id="text_3">
      <!-- 128 -->
      <g style="fill: #262626" transform="translate(334.401875 204.518281) scale(0.11 -0.11)">
       <defs>
        <path id="DejaVuSans-31" d="M 794 531 
L 1825 531 
L 1825 4091 
L 703 3866 
L 703 4441 
L 1819 4666 
L 2450 4666 
L 2450 531 
L 3481 531 
L 3481 0 
L 794 0 
L 794 531 
z
" transform="scale(0.015625)"/>
        <path id="DejaVuSans-38" d="M 2034 2216 
Q 1584 2216 1326 1975 
Q 1069 1734 1069 1313 
Q 1069 891 1326 650 
Q 1584 409 2034 409 
Q 2484 409 2743 651 
Q 3003 894 3003 1313 
Q 3003 1734 2745 1975 
Q 2488 2216 2034 2216 
z
M 1403 2484 
Q 997 2584 770 2862 
Q 544 3141 544 3541 
Q 544 4100 942 4425 
Q 1341 4750 2034 4750 
Q 2731 4750 3128 4425 
Q 3525 4100 3525 3541 
Q 3525 3141 3298 2862 
Q 3072 2584 2669 2484 
Q 3125 2378 3379 2068 
Q 3634 1759 3634 1313 
Q 3634 634 3220 271 
Q 2806 -91 2034 -91 
Q 1263 -91 848 271 
Q 434 634 434 1313 
Q 434 1759 690 2068 
Q 947 2378 1403 2484 
z
M 1172 3481 
Q 1172 3119 1398 2916 
Q 1625 2713 2034 2713 
Q 2441 2713 2670 2916 
Q 2900 3119 2900 3481 
Q 2900 3844 2670 4047 
Q 2441 4250 2034 4250 
Q 1625 4250 1398 4047 
Q 1172 3844 1172 3481 
z
" transform="scale(0.015625)"/>
       </defs>
       <use xlink:href="#DejaVuSans-31"/>
       <use xlink:href="#DejaVuSans-32" x="63.623047"/>
       <use xlink:href="#DejaVuSans-38" x="127.246094"/>
      </g>
     </g>
    </g>
    <g id="xtick_4">
     <g id="text_4">
      <!-- 256 -->
      <g style="fill: #262626" transform="translate(447.881875 204.518281) scale(0.11 -0.11)">
       <defs>
        <path id="DejaVuSans-35" d="M 691 4666 
L 3169 4666 
L 3169 4134 
L 1269 4134 
L 1269 2991 
Q 1406 3038 1543 3061 
Q 1681 3084 1819 3084 
Q 2600 3084 3056 2656 
Q 3513 2228 3513 1497 
Q 3513 744 3044 326 
Q 2575 -91 1722 -91 
Q 1428 -91 1123 -41 
Q 819 9 494 109 
L 494 744 
Q 775 591 1075 516 
Q 1375 441 1709 441 
Q 2250 441 2565 725 
Q 2881 1009 2881 1497 
Q 2881 1984 2565 2268 
Q 2250 2553 1709 2553 
Q 1456 2553 1204 2497 
Q 953 2441 691 2322 
L 691 4666 
z
" transform="scale(0.015625)"/>
       </defs>
       <use xlink:href="#DejaVuSans-32"/>
       <use xlink:href="#DejaVuSans-35" x="63.623047"/>
       <use xlink:href="#DejaVuSans-36" x="127.246094"/>
      </g>
     </g>
    </g>
    <g id="text_5">
     <!-- Nodes -->
     <g style="fill: #262626" transform="translate(266.242344 221.44375) scale(0.14 -0.14)">
      <defs>
       <path id="DejaVuSans-4e" d="M 628 4666 
L 1478 4666 
L 3547 763 
L 3547 4666 
L 4159 4666 
L 4159 0 
L 3309 0 
L 1241 3903 
L 1241 0 
L 628 0 
L 628 4666 
z
" transform="scale(0.015625)"/>
       <path id="DejaVuSans-6f" d="M 1959 3097 
Q 1497 3097 1228 2736 
Q 959 2375 959 1747 
Q 959 1119 1226 758 
Q 1494 397 1959 397 
Q 2419 397 2687 759 
Q 2956 1122 2956 1747 
Q 2956 2369 2687 2733 
Q 2419 3097 1959 3097 
z
M 1959 3584 
Q 2709 3584 3137 3096 
Q 3566 2609 3566 1747 
Q 3566 888 3137 398 
Q 2709 -91 1959 -91 
Q 1206 -91 779 398 
Q 353 888 353 1747 
Q 353 2609 779 3096 
Q 1206 3584 1959 3584 
z
" transform="scale(0.015625)"/>
       <path id="DejaVuSans-64" d="M 2906 2969 
L 2906 4863 
L 3481 4863 
L 3481 0 
L 2906 0 
L 2906 525 
Q 2725 213 2448 61 
Q 2172 -91 1784 -91 
Q 1150 -91 751 415 
Q 353 922 353 1747 
Q 353 2572 751 3078 
Q 1150 3584 1784 3584 
Q 2172 3584 2448 3432 
Q 2725 3281 2906 2969 
z
M 947 1747 
Q 947 1113 1208 752 
Q 1469 391 1925 391 
Q 2381 391 2643 752 
Q 2906 1113 2906 1747 
Q 2906 2381 2643 2742 
Q 2381 3103 1925 3103 
Q 1469 3103 1208 2742 
Q 947 2381 947 1747 
z
" transform="scale(0.015625)"/>
       <path id="DejaVuSans-65" d="M 3597 1894 
L 3597 1613 
L 953 1613 
Q 991 1019 1311 708 
Q 1631 397 2203 397 
Q 2534 397 2845 478 
Q 3156 559 3463 722 
L 3463 178 
Q 3153 47 2828 -22 
Q 2503 -91 2169 -91 
Q 1331 -91 842 396 
Q 353 884 353 1716 
Q 353 2575 817 3079 
Q 1281 3584 2069 3584 
Q 2775 3584 3186 3129 
Q 3597 2675 3597 1894 
z
M 3022 2063 
Q 3016 2534 2758 2815 
Q 2500 3097 2075 3097 
Q 1594 3097 1305 2825 
Q 1016 2553 972 2059 
L 3022 2063 
z
" transform="scale(0.015625)"/>
       <path id="DejaVuSans-73" d="M 2834 3397 
L 2834 2853 
Q 2591 2978 2328 3040 
Q 2066 3103 1784 3103 
Q 1356 3103 1142 2972 
Q 928 2841 928 2578 
Q 928 2378 1081 2264 
Q 1234 2150 1697 2047 
L 1894 2003 
Q 2506 1872 2764 1633 
Q 3022 1394 3022 966 
Q 3022 478 2636 193 
Q 2250 -91 1575 -91 
Q 1294 -91 989 -36 
Q 684 19 347 128 
L 347 722 
Q 666 556 975 473 
Q 1284 391 1588 391 
Q 1994 391 2212 530 
Q 2431 669 2431 922 
Q 2431 1156 2273 1281 
Q 2116 1406 1581 1522 
L 1381 1569 
Q 847 1681 609 1914 
Q 372 2147 372 2553 
Q 372 3047 722 3315 
Q 1072 3584 1716 3584 
Q 2034 3584 2315 3537 
Q 2597 3491 2834 3397 
z
" transform="scale(0.015625)"/>
      </defs>
      <use xlink:href="#DejaVuSans-4e"/>
      <use xlink:href="#DejaVuSans-6f" x="74.804688"/>
      <use xlink:href="#DejaVuSans-64" x="135.986328"/>
      <use xlink:href="#DejaVuSans-65" x="199.462891"/>
      <use xlink:href="#DejaVuSans-73" x="260.986328"/>
     </g>
    </g>
   </g>
   <g id="matplotlib.axis_2">
    <g id="ytick_1">
     <g id="line2d_1">
      <path d="M 61.2 186.66 
L 515.12 186.66 
" clip-path="url(#p2030075f00)" style="fill: none; stroke: #cccccc; stroke-linecap: round"/>
     </g>
     <g id="text_6">
      <!-- 0 -->
      <g style="fill: #262626" transform="translate(44.70125 190.839141) scale(0.11 -0.11)">
       <defs>
        <path id="DejaVuSans-30" d="M 2034 4250 
Q 1547 4250 1301 3770 
Q 1056 3291 1056 2328 
Q 1056 1369 1301 889 
Q 1547 409 2034 409 
Q 2525 409 2770 889 
Q 3016 1369 3016 2328 
Q 3016 3291 2770 3770 
Q 2525 4250 2034 4250 
z
M 2034 4750 
Q 2819 4750 3233 4129 
Q 3647 3509 3647 2328 
Q 3647 1150 3233 529 
Q 2819 -91 2034 -91 
Q 1250 -91 836 529 
Q 422 1150 422 2328 
Q 422 3509 836 4129 
Q 1250 4750 2034 4750 
z
" transform="scale(0.015625)"/>
       </defs>
       <use xlink:href="#DejaVuSans-30"/>
      </g>
     </g>
    </g>
    <g id="ytick_2">
     <g id="line2d_2">
      <path d="M 61.2 159.881396 
L 515.12 159.881396 
" clip-path="url(#p2030075f00)" style="fill: none; stroke: #cccccc; stroke-linecap: round"/>
     </g>
     <g id="text_7">
      <!-- 50 -->
      <g style="fill: #262626" transform="translate(37.7025 164.060537) scale(0.11 -0.11)">
       <use xlink:href="#DejaVuSans-35"/>
       <use xlink:href="#DejaVuSans-30" x="63.623047"/>
      </g>
     </g>
    </g>
    <g id="ytick_3">
     <g id="line2d_3">
      <path d="M 61.2 133.102793 
L 515.12 133.102793 
" clip-path="url(#p2030075f00)" style="fill: none; stroke: #cccccc; stroke-linecap: round"/>
     </g>
     <g id="text_8">
      <!-- 100 -->
      <g style="fill: #262626" transform="translate(30.70375 137.281933) scale(0.11 -0.11)">
       <use xlink:href="#DejaVuSans-31"/>
       <use xlink:href="#DejaVuSans-30" x="63.623047"/>
       <use xlink:href="#DejaVuSans-30" x="127.246094"/>
      </g>
     </g>
    </g>
    <g id="ytick_4">
     <g id="line2d_4">
      <path d="M 61.2 106.324189 
L 515.12 106.324189 
" clip-path="url(#p2030075f00)" style="fill: none; stroke: #cccccc; stroke-linecap: round"/>
     </g>
     <g id="text_9">
      <!-- 150 -->
      <g style="fill: #262626" transform="translate(30.70375 110.50333) scale(0.11 -0.11)">
       <use xlink:href="#DejaVuSans-31"/>
       <use xlink:href="#DejaVuSans-35" x="63.623047"/>
       <use xlink:href="#DejaVuSans-30" x="127.246094"/>
      </g>
     </g>
    </g>
    <g id="ytick_5">
     <g id="line2d_5">
      <path d="M 61.2 79.545586 
L 515.12 79.545586 
" clip-path="url(#p2030075f00)" style="fill: none; stroke: #cccccc; stroke-linecap: round"/>
     </g>
     <g id="text_10">
      <!-- 200 -->
      <g style="fill: #262626" transform="translate(30.70375 83.724726) scale(0.11 -0.11)">
       <use xlink:href="#DejaVuSans-32"/>
       <use xlink:href="#DejaVuSans-30" x="63.623047"/>
       <use xlink:href="#DejaVuSans-30" x="127.246094"/>
      </g>
     </g>
    </g>
    <g id="ytick_6">
     <g id="line2d_6">
      <path d="M 61.2 52.766982 
L 515.12 52.766982 
" clip-path="url(#p2030075f00)" style="fill: none; stroke: #cccccc; stroke-linecap: round"/>
     </g>
     <g id="text_11">
      <!-- 250 -->
      <g style="fill: #262626" transform="translate(30.70375 56.946123) scale(0.11 -0.11)">
       <use xlink:href="#DejaVuSans-32"/>
       <use xlink:href="#DejaVuSans-35" x="63.623047"/>
       <use xlink:href="#DejaVuSans-30" x="127.246094"/>
      </g>
     </g>
    </g>
    <g id="text_12">
     <!-- M/Atom Steps Per Second -->
     <g style="fill: #262626" transform="translate(23.792188 198.294531) rotate(-90) scale(0.14 -0.14)">
      <defs>
       <path id="DejaVuSans-4d" d="M 628 4666 
L 1569 4666 
L 2759 1491 
L 3956 4666 
L 4897 4666 
L 4897 0 
L 4281 0 
L 4281 4097 
L 3078 897 
L 2444 897 
L 1241 4097 
L 1241 0 
L 628 0 
L 628 4666 
z
" transform="scale(0.015625)"/>
       <path id="DejaVuSans-2f" d="M 1625 4666 
L 2156 4666 
L 531 -594 
L 0 -594 
L 1625 4666 
z
" transform="scale(0.015625)"/>
       <path id="DejaVuSans-41" d="M 2188 4044 
L 1331 1722 
L 3047 1722 
L 2188 4044 
z
M 1831 4666 
L 2547 4666 
L 4325 0 
L 3669 0 
L 3244 1197 
L 1141 1197 
L 716 0 
L 50 0 
L 1831 4666 
z
" transform="scale(0.015625)"/>
       <path id="DejaVuSans-74" d="M 1172 4494 
L 1172 3500 
L 2356 3500 
L 2356 3053 
L 1172 3053 
L 1172 1153 
Q 1172 725 1289 603 
Q 1406 481 1766 481 
L 2356 481 
L 2356 0 
L 1766 0 
Q 1100 0 847 248 
Q 594 497 594 1153 
L 594 3053 
L 172 3053 
L 172 3500 
L 594 3500 
L 594 4494 
L 1172 4494 
z
" transform="scale(0.015625)"/>
       <path id="DejaVuSans-6d" d="M 3328 2828 
Q 3544 3216 3844 3400 
Q 4144 3584 4550 3584 
Q 5097 3584 5394 3201 
Q 5691 2819 5691 2113 
L 5691 0 
L 5113 0 
L 5113 2094 
Q 5113 2597 4934 2840 
Q 4756 3084 4391 3084 
Q 3944 3084 3684 2787 
Q 3425 2491 3425 1978 
L 3425 0 
L 2847 0 
L 2847 2094 
Q 2847 2600 2669 2842 
Q 2491 3084 2119 3084 
Q 1678 3084 1418 2786 
Q 1159 2488 1159 1978 
L 1159 0 
L 581 0 
L 581 3500 
L 1159 3500 
L 1159 2956 
Q 1356 3278 1631 3431 
Q 1906 3584 2284 3584 
Q 2666 3584 2933 3390 
Q 3200 3197 3328 2828 
z
" transform="scale(0.015625)"/>
       <path id="DejaVuSans-20" transform="scale(0.015625)"/>
       <path id="DejaVuSans-53" d="M 3425 4513 
L 3425 3897 
Q 3066 4069 2747 4153 
Q 2428 4238 2131 4238 
Q 1616 4238 1336 4038 
Q 1056 3838 1056 3469 
Q 1056 3159 1242 3001 
Q 1428 2844 1947 2747 
L 2328 2669 
Q 3034 2534 3370 2195 
Q 3706 1856 3706 1288 
Q 3706 609 3251 259 
Q 2797 -91 1919 -91 
Q 1588 -91 1214 -16 
Q 841 59 441 206 
L 441 856 
Q 825 641 1194 531 
Q 1563 422 1919 422 
Q 2459 422 2753 634 
Q 3047 847 3047 1241 
Q 3047 1584 2836 1778 
Q 2625 1972 2144 2069 
L 1759 2144 
Q 1053 2284 737 2584 
Q 422 2884 422 3419 
Q 422 4038 858 4394 
Q 1294 4750 2059 4750 
Q 2388 4750 2728 4690 
Q 3069 4631 3425 4513 
z
" transform="scale(0.015625)"/>
       <path id="DejaVuSans-70" d="M 1159 525 
L 1159 -1331 
L 581 -1331 
L 581 3500 
L 1159 3500 
L 1159 2969 
Q 1341 3281 1617 3432 
Q 1894 3584 2278 3584 
Q 2916 3584 3314 3078 
Q 3713 2572 3713 1747 
Q 3713 922 3314 415 
Q 2916 -91 2278 -91 
Q 1894 -91 1617 61 
Q 1341 213 1159 525 
z
M 3116 1747 
Q 3116 2381 2855 2742 
Q 2594 3103 2138 3103 
Q 1681 3103 1420 2742 
Q 1159 2381 1159 1747 
Q 1159 1113 1420 752 
Q 1681 391 2138 391 
Q 2594 391 2855 752 
Q 3116 1113 3116 1747 
z
" transform="scale(0.015625)"/>
       <path id="DejaVuSans-50" d="M 1259 4147 
L 1259 2394 
L 2053 2394 
Q 2494 2394 2734 2622 
Q 2975 2850 2975 3272 
Q 2975 3691 2734 3919 
Q 2494 4147 2053 4147 
L 1259 4147 
z
M 628 4666 
L 2053 4666 
Q 2838 4666 3239 4311 
Q 3641 3956 3641 3272 
Q 3641 2581 3239 2228 
Q 2838 1875 2053 1875 
L 1259 1875 
L 1259 0 
L 628 0 
L 628 4666 
z
" transform="scale(0.015625)"/>
       <path id="DejaVuSans-72" d="M 2631 2963 
Q 2534 3019 2420 3045 
Q 2306 3072 2169 3072 
Q 1681 3072 1420 2755 
Q 1159 2438 1159 1844 
L 1159 0 
L 581 0 
L 581 3500 
L 1159 3500 
L 1159 2956 
Q 1341 3275 1631 3429 
Q 1922 3584 2338 3584 
Q 2397 3584 2469 3576 
Q 2541 3569 2628 3553 
L 2631 2963 
z
" transform="scale(0.015625)"/>
       <path id="DejaVuSans-63" d="M 3122 3366 
L 3122 2828 
Q 2878 2963 2633 3030 
Q 2388 3097 2138 3097 
Q 1578 3097 1268 2742 
Q 959 2388 959 1747 
Q 959 1106 1268 751 
Q 1578 397 2138 397 
Q 2388 397 2633 464 
Q 2878 531 3122 666 
L 3122 134 
Q 2881 22 2623 -34 
Q 2366 -91 2075 -91 
Q 1284 -91 818 406 
Q 353 903 353 1747 
Q 353 2603 823 3093 
Q 1294 3584 2113 3584 
Q 2378 3584 2631 3529 
Q 2884 3475 3122 3366 
z
" transform="scale(0.015625)"/>
       <path id="DejaVuSans-6e" d="M 3513 2113 
L 3513 0 
L 2938 0 
L 2938 2094 
Q 2938 2591 2744 2837 
Q 2550 3084 2163 3084 
Q 1697 3084 1428 2787 
Q 1159 2491 1159 1978 
L 1159 0 
L 581 0 
L 581 3500 
L 1159 3500 
L 1159 2956 
Q 1366 3272 1645 3428 
Q 1925 3584 2291 3584 
Q 2894 3584 3203 3211 
Q 3513 2838 3513 2113 
z
" transform="scale(0.015625)"/>
      </defs>
      <use xlink:href="#DejaVuSans-4d"/>
      <use xlink:href="#DejaVuSans-2f" x="86.279297"/>
      <use xlink:href="#DejaVuSans-41" x="119.970703"/>
      <use xlink:href="#DejaVuSans-74" x="186.628906"/>
      <use xlink:href="#DejaVuSans-6f" x="225.837891"/>
      <use xlink:href="#DejaVuSans-6d" x="287.019531"/>
      <use xlink:href="#DejaVuSans-20" x="384.431641"/>
      <use xlink:href="#DejaVuSans-53" x="416.21875"/>
      <use xlink:href="#DejaVuSans-74" x="479.695312"/>
      <use xlink:href="#DejaVuSans-65" x="518.904297"/>
      <use xlink:href="#DejaVuSans-70" x="580.427734"/>
      <use xlink:href="#DejaVuSans-73" x="643.904297"/>
      <use xlink:href="#DejaVuSans-20" x="696.003906"/>
      <use xlink:href="#DejaVuSans-50" x="727.791016"/>
      <use xlink:href="#DejaVuSans-65" x="784.46875"/>
      <use xlink:href="#DejaVuSans-72" x="845.992188"/>
      <use xlink:href="#DejaVuSans-20" x="887.105469"/>
      <use xlink:href="#DejaVuSans-53" x="918.892578"/>
      <use xlink:href="#DejaVuSans-65" x="982.369141"/>
      <use xlink:href="#DejaVuSans-63" x="1043.892578"/>
      <use xlink:href="#DejaVuSans-6f" x="1098.873047"/>
      <use xlink:href="#DejaVuSans-6e" x="1160.054688"/>
      <use xlink:href="#DejaVuSans-64" x="1223.433594"/>
     </g>
    </g>
   </g>
   <g id="patch_3">
    <path d="M 72.548 186.66 
L 85.517143 186.66 
L 85.517143 176.057012 
L 72.548 176.057012 
z
" clip-path="url(#p2030075f00)" style="fill: #dcad23; stroke: #ffffff; stroke-linejoin: miter"/>
   </g>
   <g id="patch_4">
    <path d="M 186.028 186.66 
L 198.997143 186.66 
L 198.997143 170.238825 
L 186.028 170.238825 
z
" clip-path="url(#p2030075f00)" style="fill: #dcad23; stroke: #ffffff; stroke-linejoin: miter"/>
   </g>
   <g id="patch_5">
    <path d="M 299.508 186.66 
L 312.477143 186.66 
L 312.477143 165.21698 
L 299.508 165.21698 
z
" clip-path="url(#p2030075f00)" style="fill: #dcad23; stroke: #ffffff; stroke-linejoin: miter"/>
   </g>
   <g id="patch_6">
    <path d="M 412.988 186.66 
L 425.957143 186.66 
L 425.957143 178.686939 
L 412.988 178.686939 
z
" clip-path="url(#p2030075f00)" style="fill: #dcad23; stroke: #ffffff; stroke-linejoin: miter"/>
   </g>
   <g id="patch_7">
    <path d="M 85.517143 186.66 
L 98.486286 186.66 
L 98.486286 174.9314 
L 85.517143 174.9314 
z
" clip-path="url(#p2030075f00)" style="fill: #114578; stroke: #ffffff; stroke-linejoin: miter"/>
   </g>
   <g id="patch_8">
    <path d="M 198.997143 186.66 
L 211.966286 186.66 
L 211.966286 169.751883 
L 198.997143 169.751883 
z
" clip-path="url(#p2030075f00)" style="fill: #114578; stroke: #ffffff; stroke-linejoin: miter"/>
   </g>
   <g id="patch_9">
    <path d="M 312.477143 186.66 
L 325.446286 186.66 
L 325.446286 166.226676 
L 312.477143 166.226676 
z
" clip-path="url(#p2030075f00)" style="fill: #114578; stroke: #ffffff; stroke-linejoin: miter"/>
   </g>
   <g id="patch_10">
    <path d="M 425.957143 186.66 
L 438.926286 186.66 
L 438.926286 165.161601 
L 425.957143 165.161601 
z
" clip-path="url(#p2030075f00)" style="fill: #114578; stroke: #ffffff; stroke-linejoin: miter"/>
   </g>
   <g id="patch_11">
    <path d="M 98.486286 186.66 
L 111.455429 186.66 
L 111.455429 178.980004 
L 98.486286 178.980004 
z
" clip-path="url(#p2030075f00)" style="fill: #d3564c; stroke: #ffffff; stroke-linejoin: miter"/>
   </g>
   <g id="patch_12">
    <path d="M 211.966286 186.66 
L 224.935429 186.66 
L 224.935429 173.203216 
L 211.966286 173.203216 
z
" clip-path="url(#p2030075f00)" style="fill: #d3564c; stroke: #ffffff; stroke-linejoin: miter"/>
   </g>
   <g id="patch_13">
    <path d="M 325.446286 186.66 
L 338.415429 186.66 
L 338.415429 162.75217 
L 325.446286 162.75217 
z
" clip-path="url(#p2030075f00)" style="fill: #d3564c; stroke: #ffffff; stroke-linejoin: miter"/>
   </g>
   <g id="patch_14">
    <path d="M 438.926286 186.66 
L 451.895429 186.66 
L 451.895429 147.540423 
L 438.926286 147.540423 
z
" clip-path="url(#p2030075f00)" style="fill: #d3564c; stroke: #ffffff; stroke-linejoin: miter"/>
   </g>
   <g id="patch_15">
    <path d="M 111.455429 186.66 
L 124.424571 186.66 
L 124.424571 175.923065 
L 111.455429 175.923065 
z
" clip-path="url(#p2030075f00)" style="fill: #2080df; stroke: #ffffff; stroke-linejoin: miter"/>
   </g>
   <g id="patch_16">
    <path d="M 224.935429 186.66 
L 237.904571 186.66 
L 237.904571 174.137682 
L 224.935429 174.137682 
z
" clip-path="url(#p2030075f00)" style="fill: #2080df; stroke: #ffffff; stroke-linejoin: miter"/>
   </g>
   <g id="patch_17">
    <path d="M 338.415429 186.66 
L 351.384571 186.66 
L 351.384571 154.838896 
L 338.415429 154.838896 
z
" clip-path="url(#p2030075f00)" style="fill: #2080df; stroke: #ffffff; stroke-linejoin: miter"/>
   </g>
   <g id="patch_18">
    <path d="M 451.895429 186.66 
L 464.864571 186.66 
L 464.864571 148.18012 
L 451.895429 148.18012 
z
" clip-path="url(#p2030075f00)" style="fill: #2080df; stroke: #ffffff; stroke-linejoin: miter"/>
   </g>
   <g id="patch_19">
    <path d="M 124.424571 186.66 
L 137.393714 186.66 
L 137.393714 171.218814 
L 124.424571 171.218814 
z
" clip-path="url(#p2030075f00)" style="fill: #b35919; stroke: #ffffff; stroke-linejoin: miter"/>
   </g>
   <g id="patch_20">
    <path d="M 237.904571 186.66 
L 250.873714 186.66 
L 250.873714 161.545954 
L 237.904571 161.545954 
z
" clip-path="url(#p2030075f00)" style="fill: #b35919; stroke: #ffffff; stroke-linejoin: miter"/>
   </g>
   <g id="patch_21">
    <path d="M 351.384571 186.66 
L 364.353714 186.66 
L 364.353714 151.818037 
L 351.384571 151.818037 
z
" clip-path="url(#p2030075f00)" style="fill: #b35919; stroke: #ffffff; stroke-linejoin: miter"/>
   </g>
   <g id="patch_22">
    <path d="M 464.864571 186.66 
L 477.833714 186.66 
L 477.833714 147.731676 
L 464.864571 147.731676 
z
" clip-path="url(#p2030075f00)" style="fill: #b35919; stroke: #ffffff; stroke-linejoin: miter"/>
   </g>
   <g id="patch_23">
    <path d="M 137.393714 186.66 
L 150.362857 186.66 
L 150.362857 171.142549 
L 137.393714 171.142549 
z
" clip-path="url(#p2030075f00)" style="fill: #df9320; stroke: #ffffff; stroke-linejoin: miter"/>
   </g>
   <g id="patch_24">
    <path d="M 250.873714 186.66 
L 263.842857 186.66 
L 263.842857 157.453541 
L 250.873714 157.453541 
z
" clip-path="url(#p2030075f00)" style="fill: #df9320; stroke: #ffffff; stroke-linejoin: miter"/>
   </g>
   <g id="patch_25">
    <path d="M 364.353714 186.66 
L 377.322857 186.66 
L 377.322857 138.726407 
L 364.353714 138.726407 
z
" clip-path="url(#p2030075f00)" style="fill: #df9320; stroke: #ffffff; stroke-linejoin: miter"/>
   </g>
   <g id="patch_26">
    <path d="M 477.833714 186.66 
L 490.802857 186.66 
L 490.802857 116.079956 
L 477.833714 116.079956 
z
" clip-path="url(#p2030075f00)" style="fill: #df9320; stroke: #ffffff; stroke-linejoin: miter"/>
   </g>
   <g id="patch_27">
    <path d="M 150.362857 186.66 
L 163.332 186.66 
L 163.332 164.314541 
L 150.362857 164.314541 
z
" clip-path="url(#p2030075f00)" style="fill: #808080; stroke: #ffffff; stroke-linejoin: miter"/>
   </g>
   <g id="patch_28">
    <path d="M 263.842857 186.66 
L 276.812 186.66 
L 276.812 145.095644 
L 263.842857 145.095644 
z
" clip-path="url(#p2030075f00)" style="fill: #808080; stroke: #ffffff; stroke-linejoin: miter"/>
   </g>
   <g id="patch_29">
    <path d="M 377.322857 186.66 
L 390.292 186.66 
L 390.292 115.117104 
L 377.322857 115.117104 
z
" clip-path="url(#p2030075f00)" style="fill: #808080; stroke: #ffffff; stroke-linejoin: miter"/>
   </g>
   <g id="patch_30">
    <path d="M 490.802857 186.66 
L 503.772 186.66 
L 503.772 75.143933 
L 490.802857 75.143933 
z
" clip-path="url(#p2030075f00)" style="fill: #808080; stroke: #ffffff; stroke-linejoin: miter"/>
   </g>
   <g id="patch_31">
    <path d="M 117.94 186.66 
L 117.94 186.66 
L 117.94 186.66 
L 117.94 186.66 
z
" clip-path="url(#p2030075f00)" style="fill: #dcad23; stroke: #ffffff; stroke-linejoin: miter"/>
   </g>
   <g id="patch_32">
    <path d="M 117.94 186.66 
L 117.94 186.66 
L 117.94 186.66 
L 117.94 186.66 
z
" clip-path="url(#p2030075f00)" style="fill: #114578; stroke: #ffffff; stroke-linejoin: miter"/>
   </g>
   <g id="patch_33">
    <path d="M 117.94 186.66 
L 117.94 186.66 
L 117.94 186.66 
L 117.94 186.66 
z
" clip-path="url(#p2030075f00)" style="fill: #d3564c; stroke: #ffffff; stroke-linejoin: miter"/>
   </g>
   <g id="patch_34">
    <path d="M 117.94 186.66 
L 117.94 186.66 
L 117.94 186.66 
L 117.94 186.66 
z
" clip-path="url(#p2030075f00)" style="fill: #2080df; stroke: #ffffff; stroke-linejoin: miter"/>
   </g>
   <g id="patch_35">
    <path d="M 117.94 186.66 
L 117.94 186.66 
L 117.94 186.66 
L 117.94 186.66 
z
" clip-path="url(#p2030075f00)" style="fill: #b35919; stroke: #ffffff; stroke-linejoin: miter"/>
   </g>
   <g id="patch_36">
    <path d="M 117.94 186.66 
L 117.94 186.66 
L 117.94 186.66 
L 117.94 186.66 
z
" clip-path="url(#p2030075f00)" style="fill: #df9320; stroke: #ffffff; stroke-linejoin: miter"/>
   </g>
   <g id="patch_37">
    <path d="M 117.94 186.66 
L 117.94 186.66 
L 117.94 186.66 
L 117.94 186.66 
z
" clip-path="url(#p2030075f00)" style="fill: #808080; stroke: #ffffff; stroke-linejoin: miter"/>
   </g>
   <g id="line2d_7">
    <path d="M 79.032571 176.176043 
L 79.032571 175.955119 
" clip-path="url(#p2030075f00)" style="fill: none; stroke: #8b0000; stroke-width: 2.25; stroke-linecap: round"/>
   </g>
   <g id="line2d_8">
    <path d="M 192.512571 170.942781 
L 192.512571 169.845393 
" clip-path="url(#p2030075f00)" style="fill: none; stroke: #8b0000; stroke-width: 2.25; stroke-linecap: round"/>
   </g>
   <g id="line2d_9">
    <path d="M 305.992571 165.617788 
L 305.992571 164.92445 
" clip-path="url(#p2030075f00)" style="fill: none; stroke: #8b0000; stroke-width: 2.25; stroke-linecap: round"/>
   </g>
   <g id="line2d_10">
    <path d="M 419.472571 178.708361 
L 419.472571 178.665516 
" clip-path="url(#p2030075f00)" style="fill: none; stroke: #8b0000; stroke-width: 2.25; stroke-linecap: round"/>
   </g>
   <g id="line2d_11">
    <path d="M 92.001714 175.470036 
L 92.001714 174.621839 
" clip-path="url(#p2030075f00)" style="fill: none; stroke: #8b0000; stroke-width: 2.25; stroke-linecap: round"/>
   </g>
   <g id="line2d_12">
    <path d="M 205.481714 170.266002 
L 205.481714 169.414365 
" clip-path="url(#p2030075f00)" style="fill: none; stroke: #8b0000; stroke-width: 2.25; stroke-linecap: round"/>
   </g>
   <g id="line2d_13">
    <path d="M 318.961714 166.772067 
L 318.961714 165.950321 
" clip-path="url(#p2030075f00)" style="fill: none; stroke: #8b0000; stroke-width: 2.25; stroke-linecap: round"/>
   </g>
   <g id="line2d_14">
    <path clip-path="url(#p2030075f00)" style="fill: none; stroke: #8b0000; stroke-width: 2.25; stroke-linecap: round"/>
   </g>
   <g id="line2d_15">
    <path d="M 104.970857 179.308631 
L 104.970857 178.714788 
" clip-path="url(#p2030075f00)" style="fill: none; stroke: #8b0000; stroke-width: 2.25; stroke-linecap: round"/>
   </g>
   <g id="line2d_16">
    <path clip-path="url(#p2030075f00)" style="fill: none; stroke: #8b0000; stroke-width: 2.25; stroke-linecap: round"/>
   </g>
   <g id="line2d_17">
    <path d="M 331.930857 164.257703 
L 331.930857 161.839555 
" clip-path="url(#p2030075f00)" style="fill: none; stroke: #8b0000; stroke-width: 2.25; stroke-linecap: round"/>
   </g>
   <g id="line2d_18">
    <path d="M 445.410857 149.622728 
L 445.410857 145.851765 
" clip-path="url(#p2030075f00)" style="fill: none; stroke: #8b0000; stroke-width: 2.25; stroke-linecap: round"/>
   </g>
   <g id="line2d_19">
    <path d="M 117.94 177.358506 
L 117.94 174.413288 
" clip-path="url(#p2030075f00)" style="fill: none; stroke: #8b0000; stroke-width: 2.25; stroke-linecap: round"/>
   </g>
   <g id="line2d_20">
    <path d="M 231.42 174.907192 
L 231.42 173.355854 
" clip-path="url(#p2030075f00)" style="fill: none; stroke: #8b0000; stroke-width: 2.25; stroke-linecap: round"/>
   </g>
   <g id="line2d_21">
    <path d="M 344.9 157.76258 
L 344.9 151.610289 
" clip-path="url(#p2030075f00)" style="fill: none; stroke: #8b0000; stroke-width: 2.25; stroke-linecap: round"/>
   </g>
   <g id="line2d_22">
    <path d="M 458.38 158.740548 
L 458.38 137.002 
" clip-path="url(#p2030075f00)" style="fill: none; stroke: #8b0000; stroke-width: 2.25; stroke-linecap: round"/>
   </g>
   <g id="line2d_23">
    <path d="M 130.909143 171.443755 
L 130.909143 171.005443 
" clip-path="url(#p2030075f00)" style="fill: none; stroke: #8b0000; stroke-width: 2.25; stroke-linecap: round"/>
   </g>
   <g id="line2d_24">
    <path d="M 244.389143 161.819739 
L 244.389143 161.278061 
" clip-path="url(#p2030075f00)" style="fill: none; stroke: #8b0000; stroke-width: 2.25; stroke-linecap: round"/>
   </g>
   <g id="line2d_25">
    <path d="M 357.869143 152.933848 
L 357.869143 150.860421 
" clip-path="url(#p2030075f00)" style="fill: none; stroke: #8b0000; stroke-width: 2.25; stroke-linecap: round"/>
   </g>
   <g id="line2d_26">
    <path d="M 471.349143 148.562616 
L 471.349143 146.900736 
" clip-path="url(#p2030075f00)" style="fill: none; stroke: #8b0000; stroke-width: 2.25; stroke-linecap: round"/>
   </g>
   <g id="line2d_27">
    <path d="M 143.878286 172.630047 
L 143.878286 170.206583 
" clip-path="url(#p2030075f00)" style="fill: none; stroke: #8b0000; stroke-width: 2.25; stroke-linecap: round"/>
   </g>
   <g id="line2d_28">
    <path d="M 257.358286 158.102976 
L 257.358286 156.867518 
" clip-path="url(#p2030075f00)" style="fill: none; stroke: #8b0000; stroke-width: 2.25; stroke-linecap: round"/>
   </g>
   <g id="line2d_29">
    <path d="M 370.838286 141.038471 
L 370.838286 137.343452 
" clip-path="url(#p2030075f00)" style="fill: none; stroke: #8b0000; stroke-width: 2.25; stroke-linecap: round"/>
   </g>
   <g id="line2d_30">
    <path d="M 484.318286 121.532444 
L 484.318286 110.847845 
" clip-path="url(#p2030075f00)" style="fill: none; stroke: #8b0000; stroke-width: 2.25; stroke-linecap: round"/>
   </g>
   <g id="line2d_31">
    <path d="M 156.847429 164.648952 
L 156.847429 163.980129 
" clip-path="url(#p2030075f00)" style="fill: none; stroke: #8b0000; stroke-width: 2.25; stroke-linecap: round"/>
   </g>
   <g id="line2d_32">
    <path d="M 270.327429 145.561913 
L 270.327429 144.656903 
" clip-path="url(#p2030075f00)" style="fill: none; stroke: #8b0000; stroke-width: 2.25; stroke-linecap: round"/>
   </g>
   <g id="line2d_33">
    <path d="M 383.807429 115.887685 
L 383.807429 114.455244 
" clip-path="url(#p2030075f00)" style="fill: none; stroke: #8b0000; stroke-width: 2.25; stroke-linecap: round"/>
   </g>
   <g id="line2d_34">
    <path d="M 497.287429 78.915539 
L 497.287429 71.741336 
" clip-path="url(#p2030075f00)" style="fill: none; stroke: #8b0000; stroke-width: 2.25; stroke-linecap: round"/>
   </g>
   <g id="patch_38">
    <path d="M 61.2 186.66 
L 61.2 29.76 
" style="fill: none; stroke: #cccccc; stroke-width: 1.25; stroke-linejoin: miter; stroke-linecap: square"/>
   </g>
   <g id="patch_39">
    <path d="M 515.12 186.66 
L 515.12 29.76 
" style="fill: none; stroke: #cccccc; stroke-width: 1.25; stroke-linejoin: miter; stroke-linecap: square"/>
   </g>
   <g id="patch_40">
    <path d="M 61.2 186.66 
L 515.12 186.66 
" style="fill: none; stroke: #cccccc; stroke-width: 1.25; stroke-linejoin: miter; stroke-linecap: square"/>
   </g>
   <g id="patch_41">
    <path d="M 61.2 29.76 
L 515.12 29.76 
" style="fill: none; stroke: #cccccc; stroke-width: 1.25; stroke-linejoin: miter; stroke-linecap: square"/>
   </g>
   <g id="text_13">
    <!-- LAMMPS M/Atom Steps per Second (CPU) -->
    <g style="fill: #262626" transform="translate(143.864844 23.76) scale(0.14 -0.14)">
     <defs>
      <path id="DejaVuSans-4c" d="M 628 4666 
L 1259 4666 
L 1259 531 
L 3531 531 
L 3531 0 
L 628 0 
L 628 4666 
z
" transform="scale(0.015625)"/>
      <path id="DejaVuSans-28" d="M 1984 4856 
Q 1566 4138 1362 3434 
Q 1159 2731 1159 2009 
Q 1159 1288 1364 580 
Q 1569 -128 1984 -844 
L 1484 -844 
Q 1016 -109 783 600 
Q 550 1309 550 2009 
Q 550 2706 781 3412 
Q 1013 4119 1484 4856 
L 1984 4856 
z
" transform="scale(0.015625)"/>
      <path id="DejaVuSans-43" d="M 4122 4306 
L 4122 3641 
Q 3803 3938 3442 4084 
Q 3081 4231 2675 4231 
Q 1875 4231 1450 3742 
Q 1025 3253 1025 2328 
Q 1025 1406 1450 917 
Q 1875 428 2675 428 
Q 3081 428 3442 575 
Q 3803 722 4122 1019 
L 4122 359 
Q 3791 134 3420 21 
Q 3050 -91 2638 -91 
Q 1578 -91 968 557 
Q 359 1206 359 2328 
Q 359 3453 968 4101 
Q 1578 4750 2638 4750 
Q 3056 4750 3426 4639 
Q 3797 4528 4122 4306 
z
" transform="scale(0.015625)"/>
      <path id="DejaVuSans-55" d="M 556 4666 
L 1191 4666 
L 1191 1831 
Q 1191 1081 1462 751 
Q 1734 422 2344 422 
Q 2950 422 3222 751 
Q 3494 1081 3494 1831 
L 3494 4666 
L 4128 4666 
L 4128 1753 
Q 4128 841 3676 375 
Q 3225 -91 2344 -91 
Q 1459 -91 1007 375 
Q 556 841 556 1753 
L 556 4666 
z
" transform="scale(0.015625)"/>
      <path id="DejaVuSans-29" d="M 513 4856 
L 1013 4856 
Q 1481 4119 1714 3412 
Q 1947 2706 1947 2009 
Q 1947 1309 1714 600 
Q 1481 -109 1013 -844 
L 513 -844 
Q 928 -128 1133 580 
Q 1338 1288 1338 2009 
Q 1338 2731 1133 3434 
Q 928 4138 513 4856 
z
" transform="scale(0.015625)"/>
     </defs>
     <use xlink:href="#DejaVuSans-4c"/>
     <use xlink:href="#DejaVuSans-41" x="57.962891"/>
     <use xlink:href="#DejaVuSans-4d" x="126.371094"/>
     <use xlink:href="#DejaVuSans-4d" x="212.650391"/>
     <use xlink:href="#DejaVuSans-50" x="298.929688"/>
     <use xlink:href="#DejaVuSans-53" x="359.232422"/>
     <use xlink:href="#DejaVuSans-20" x="422.708984"/>
     <use xlink:href="#DejaVuSans-4d" x="454.496094"/>
     <use xlink:href="#DejaVuSans-2f" x="540.775391"/>
     <use xlink:href="#DejaVuSans-41" x="574.466797"/>
     <use xlink:href="#DejaVuSans-74" x="641.125"/>
     <use xlink:href="#DejaVuSans-6f" x="680.333984"/>
     <use xlink:href="#DejaVuSans-6d" x="741.515625"/>
     <use xlink:href="#DejaVuSans-20" x="838.927734"/>
     <use xlink:href="#DejaVuSans-53" x="870.714844"/>
     <use xlink:href="#DejaVuSans-74" x="934.191406"/>
     <use xlink:href="#DejaVuSans-65" x="973.400391"/>
     <use xlink:href="#DejaVuSans-70" x="1034.923828"/>
     <use xlink:href="#DejaVuSans-73" x="1098.400391"/>
     <use xlink:href="#DejaVuSans-20" x="1150.5"/>
     <use xlink:href="#DejaVuSans-70" x="1182.287109"/>
     <use xlink:href="#DejaVuSans-65" x="1245.763672"/>
     <use xlink:href="#DejaVuSans-72" x="1307.287109"/>
     <use xlink:href="#DejaVuSans-20" x="1348.400391"/>
     <use xlink:href="#DejaVuSans-53" x="1380.1875"/>
     <use xlink:href="#DejaVuSans-65" x="1443.664062"/>
     <use xlink:href="#DejaVuSans-63" x="1505.1875"/>
     <use xlink:href="#DejaVuSans-6f" x="1560.167969"/>
     <use xlink:href="#DejaVuSans-6e" x="1621.349609"/>
     <use xlink:href="#DejaVuSans-64" x="1684.728516"/>
     <use xlink:href="#DejaVuSans-20" x="1748.205078"/>
     <use xlink:href="#DejaVuSans-28" x="1779.992188"/>
     <use xlink:href="#DejaVuSans-43" x="1819.005859"/>
     <use xlink:href="#DejaVuSans-50" x="1888.830078"/>
     <use xlink:href="#DejaVuSans-55" x="1949.132812"/>
     <use xlink:href="#DejaVuSans-29" x="2022.326172"/>
    </g>
   </g>
  </g>
  <g id="axes_2">
   <g id="patch_42">
    <path d="M 558.64 186.66 
L 1012.56 186.66 
L 1012.56 29.76 
L 558.64 29.76 
z
" style="fill: #ffffff"/>
   </g>
   <g id="matplotlib.axis_3">
    <g id="xtick_5">
     <g id="text_14">
      <!-- 32 -->
      <g style="fill: #262626" transform="translate(608.38125 204.518281) scale(0.11 -0.11)">
       <use xlink:href="#DejaVuSans-33"/>
       <use xlink:href="#DejaVuSans-32" x="63.623047"/>
      </g>
     </g>
    </g>
    <g id="xtick_6">
     <g id="text_15">
      <!-- 64 -->
      <g style="fill: #262626" transform="translate(721.86125 204.518281) scale(0.11 -0.11)">
       <use xlink:href="#DejaVuSans-36"/>
       <use xlink:href="#DejaVuSans-34" x="63.623047"/>
      </g>
     </g>
    </g>
    <g id="xtick_7">
     <g id="text_16">
      <!-- 128 -->
      <g style="fill: #262626" transform="translate(831.841875 204.518281) scale(0.11 -0.11)">
       <use xlink:href="#DejaVuSans-31"/>
       <use xlink:href="#DejaVuSans-32" x="63.623047"/>
       <use xlink:href="#DejaVuSans-38" x="127.246094"/>
      </g>
     </g>
    </g>
    <g id="xtick_8">
     <g id="text_17">
      <!-- 256 -->
      <g style="fill: #262626" transform="translate(945.321875 204.518281) scale(0.11 -0.11)">
       <use xlink:href="#DejaVuSans-32"/>
       <use xlink:href="#DejaVuSans-35" x="63.623047"/>
       <use xlink:href="#DejaVuSans-36" x="127.246094"/>
      </g>
     </g>
    </g>
    <g id="text_18">
     <!-- GPU Count -->
     <g style="fill: #262626" transform="translate(747.819687 221.44375) scale(0.14 -0.14)">
      <defs>
       <path id="DejaVuSans-47" d="M 3809 666 
L 3809 1919 
L 2778 1919 
L 2778 2438 
L 4434 2438 
L 4434 434 
Q 4069 175 3628 42 
Q 3188 -91 2688 -91 
Q 1594 -91 976 548 
Q 359 1188 359 2328 
Q 359 3472 976 4111 
Q 1594 4750 2688 4750 
Q 3144 4750 3555 4637 
Q 3966 4525 4313 4306 
L 4313 3634 
Q 3963 3931 3569 4081 
Q 3175 4231 2741 4231 
Q 1884 4231 1454 3753 
Q 1025 3275 1025 2328 
Q 1025 1384 1454 906 
Q 1884 428 2741 428 
Q 3075 428 3337 486 
Q 3600 544 3809 666 
z
" transform="scale(0.015625)"/>
       <path id="DejaVuSans-75" d="M 544 1381 
L 544 3500 
L 1119 3500 
L 1119 1403 
Q 1119 906 1312 657 
Q 1506 409 1894 409 
Q 2359 409 2629 706 
Q 2900 1003 2900 1516 
L 2900 3500 
L 3475 3500 
L 3475 0 
L 2900 0 
L 2900 538 
Q 2691 219 2414 64 
Q 2138 -91 1772 -91 
Q 1169 -91 856 284 
Q 544 659 544 1381 
z
M 1991 3584 
L 1991 3584 
z
" transform="scale(0.015625)"/>
      </defs>
      <use xlink:href="#DejaVuSans-47"/>
      <use xlink:href="#DejaVuSans-50" x="77.490234"/>
      <use xlink:href="#DejaVuSans-55" x="137.792969"/>
      <use xlink:href="#DejaVuSans-20" x="210.986328"/>
      <use xlink:href="#DejaVuSans-43" x="242.773438"/>
      <use xlink:href="#DejaVuSans-6f" x="312.597656"/>
      <use xlink:href="#DejaVuSans-75" x="373.779297"/>
      <use xlink:href="#DejaVuSans-6e" x="437.158203"/>
      <use xlink:href="#DejaVuSans-74" x="500.537109"/>
     </g>
    </g>
   </g>
   <g id="matplotlib.axis_4">
    <g id="ytick_7">
     <g id="line2d_35">
      <path d="M 558.64 186.66 
L 1012.56 186.66 
" clip-path="url(#pe10e8a9a5e)" style="fill: none; stroke: #cccccc; stroke-linecap: round"/>
     </g>
     <g id="text_19">
      <!-- 0 -->
      <g style="fill: #262626" transform="translate(542.14125 190.839141) scale(0.11 -0.11)">
       <use xlink:href="#DejaVuSans-30"/>
      </g>
     </g>
    </g>
    <g id="ytick_8">
     <g id="line2d_36">
      <path d="M 558.64 159.881396 
L 1012.56 159.881396 
" clip-path="url(#pe10e8a9a5e)" style="fill: none; stroke: #cccccc; stroke-linecap: round"/>
     </g>
     <g id="text_20">
      <!-- 50 -->
      <g style="fill: #262626" transform="translate(535.1425 164.060537) scale(0.11 -0.11)">
       <use xlink:href="#DejaVuSans-35"/>
       <use xlink:href="#DejaVuSans-30" x="63.623047"/>
      </g>
     </g>
    </g>
    <g id="ytick_9">
     <g id="line2d_37">
      <path d="M 558.64 133.102793 
L 1012.56 133.102793 
" clip-path="url(#pe10e8a9a5e)" style="fill: none; stroke: #cccccc; stroke-linecap: round"/>
     </g>
     <g id="text_21">
      <!-- 100 -->
      <g style="fill: #262626" transform="translate(528.14375 137.281933) scale(0.11 -0.11)">
       <use xlink:href="#DejaVuSans-31"/>
       <use xlink:href="#DejaVuSans-30" x="63.623047"/>
       <use xlink:href="#DejaVuSans-30" x="127.246094"/>
      </g>
     </g>
    </g>
    <g id="ytick_10">
     <g id="line2d_38">
      <path d="M 558.64 106.324189 
L 1012.56 106.324189 
" clip-path="url(#pe10e8a9a5e)" style="fill: none; stroke: #cccccc; stroke-linecap: round"/>
     </g>
     <g id="text_22">
      <!-- 150 -->
      <g style="fill: #262626" transform="translate(528.14375 110.50333) scale(0.11 -0.11)">
       <use xlink:href="#DejaVuSans-31"/>
       <use xlink:href="#DejaVuSans-35" x="63.623047"/>
       <use xlink:href="#DejaVuSans-30" x="127.246094"/>
      </g>
     </g>
    </g>
    <g id="ytick_11">
     <g id="line2d_39">
      <path d="M 558.64 79.545586 
L 1012.56 79.545586 
" clip-path="url(#pe10e8a9a5e)" style="fill: none; stroke: #cccccc; stroke-linecap: round"/>
     </g>
     <g id="text_23">
      <!-- 200 -->
      <g style="fill: #262626" transform="translate(528.14375 83.724726) scale(0.11 -0.11)">
       <use xlink:href="#DejaVuSans-32"/>
       <use xlink:href="#DejaVuSans-30" x="63.623047"/>
       <use xlink:href="#DejaVuSans-30" x="127.246094"/>
      </g>
     </g>
    </g>
    <g id="ytick_12">
     <g id="line2d_40">
      <path d="M 558.64 52.766982 
L 1012.56 52.766982 
" clip-path="url(#pe10e8a9a5e)" style="fill: none; stroke: #cccccc; stroke-linecap: round"/>
     </g>
     <g id="text_24">
      <!-- 250 -->
      <g style="fill: #262626" transform="translate(528.14375 56.946123) scale(0.11 -0.11)">
       <use xlink:href="#DejaVuSans-32"/>
       <use xlink:href="#DejaVuSans-35" x="63.623047"/>
       <use xlink:href="#DejaVuSans-30" x="127.246094"/>
      </g>
     </g>
    </g>
   </g>
   <g id="patch_43">
    <path d="M 569.988 186.66 
L 585.118667 186.66 
L 585.118667 164.298473 
L 569.988 164.298473 
z
" clip-path="url(#pe10e8a9a5e)" style="fill: #d3564c; stroke: #ffffff; stroke-linejoin: miter"/>
   </g>
   <g id="patch_44">
    <path d="M 683.468 186.66 
L 698.598667 186.66 
L 698.598667 151.932329 
L 683.468 151.932329 
z
" clip-path="url(#pe10e8a9a5e)" style="fill: #d3564c; stroke: #ffffff; stroke-linejoin: miter"/>
   </g>
   <g id="patch_45">
    <path d="M 796.948 186.66 
L 812.078667 186.66 
L 812.078667 137.240837 
L 796.948 137.240837 
z
" clip-path="url(#pe10e8a9a5e)" style="fill: #d3564c; stroke: #ffffff; stroke-linejoin: miter"/>
   </g>
   <g id="patch_46">
    <path d="M 910.428 186.66 
L 925.558667 186.66 
L 925.558667 120.88543 
L 910.428 120.88543 
z
" clip-path="url(#pe10e8a9a5e)" style="fill: #d3564c; stroke: #ffffff; stroke-linejoin: miter"/>
   </g>
   <g id="patch_47">
    <path d="M 585.118667 186.66 
L 600.249333 186.66 
L 600.249333 164.298527 
L 585.118667 164.298527 
z
" clip-path="url(#pe10e8a9a5e)" style="fill: #dcad23; stroke: #ffffff; stroke-linejoin: miter"/>
   </g>
   <g id="patch_48">
    <path d="M 698.598667 186.66 
L 713.729333 186.66 
L 713.729333 149.216371 
L 698.598667 149.216371 
z
" clip-path="url(#pe10e8a9a5e)" style="fill: #dcad23; stroke: #ffffff; stroke-linejoin: miter"/>
   </g>
   <g id="patch_49">
    <path d="M 812.078667 186.66 
L 827.209333 186.66 
L 827.209333 133.107827 
L 812.078667 133.107827 
z
" clip-path="url(#pe10e8a9a5e)" style="fill: #dcad23; stroke: #ffffff; stroke-linejoin: miter"/>
   </g>
   <g id="patch_50">
    <path d="M 925.558667 186.66 
L 940.689333 186.66 
L 940.689333 114.977213 
L 925.558667 114.977213 
z
" clip-path="url(#pe10e8a9a5e)" style="fill: #dcad23; stroke: #ffffff; stroke-linejoin: miter"/>
   </g>
   <g id="patch_51">
    <path d="M 600.249333 186.66 
L 615.38 186.66 
L 615.38 160.031142 
L 600.249333 160.031142 
z
" clip-path="url(#pe10e8a9a5e)" style="fill: #b35919; stroke: #ffffff; stroke-linejoin: miter"/>
   </g>
   <g id="patch_52">
    <path d="M 713.729333 186.66 
L 728.86 186.66 
L 728.86 139.715073 
L 713.729333 139.715073 
z
" clip-path="url(#pe10e8a9a5e)" style="fill: #b35919; stroke: #ffffff; stroke-linejoin: miter"/>
   </g>
   <g id="patch_53">
    <path d="M 827.209333 186.66 
L 842.34 186.66 
L 842.34 115.466297 
L 827.209333 115.466297 
z
" clip-path="url(#pe10e8a9a5e)" style="fill: #b35919; stroke: #ffffff; stroke-linejoin: miter"/>
   </g>
   <g id="patch_54">
    <path d="M 615.38 186.66 
L 630.510667 186.66 
L 630.510667 161.98673 
L 615.38 161.98673 
z
" clip-path="url(#pe10e8a9a5e)" style="fill: #114578; stroke: #ffffff; stroke-linejoin: miter"/>
   </g>
   <g id="patch_55">
    <path d="M 728.86 186.66 
L 743.990667 186.66 
L 743.990667 142.565816 
L 728.86 142.565816 
z
" clip-path="url(#pe10e8a9a5e)" style="fill: #114578; stroke: #ffffff; stroke-linejoin: miter"/>
   </g>
   <g id="patch_56">
    <path d="M 842.34 186.66 
L 857.470667 186.66 
L 857.470667 112.402075 
L 842.34 112.402075 
z
" clip-path="url(#pe10e8a9a5e)" style="fill: #114578; stroke: #ffffff; stroke-linejoin: miter"/>
   </g>
   <g id="patch_57">
    <path d="M 955.82 186.66 
L 970.950667 186.66 
L 970.950667 82.272397 
L 955.82 82.272397 
z
" clip-path="url(#pe10e8a9a5e)" style="fill: #114578; stroke: #ffffff; stroke-linejoin: miter"/>
   </g>
   <g id="patch_58">
    <path d="M 630.510667 186.66 
L 645.641333 186.66 
L 645.641333 158.440922 
L 630.510667 158.440922 
z
" clip-path="url(#pe10e8a9a5e)" style="fill: #2080df; stroke: #ffffff; stroke-linejoin: miter"/>
   </g>
   <g id="patch_59">
    <path d="M 743.990667 186.66 
L 759.121333 186.66 
L 759.121333 139.931015 
L 743.990667 139.931015 
z
" clip-path="url(#pe10e8a9a5e)" style="fill: #2080df; stroke: #ffffff; stroke-linejoin: miter"/>
   </g>
   <g id="patch_60">
    <path d="M 857.470667 186.66 
L 872.601333 186.66 
L 872.601333 113.129918 
L 857.470667 113.129918 
z
" clip-path="url(#pe10e8a9a5e)" style="fill: #2080df; stroke: #ffffff; stroke-linejoin: miter"/>
   </g>
   <g id="patch_61">
    <path d="M 970.950667 186.66 
L 986.081333 186.66 
L 986.081333 66.430497 
L 970.950667 66.430497 
z
" clip-path="url(#pe10e8a9a5e)" style="fill: #2080df; stroke: #ffffff; stroke-linejoin: miter"/>
   </g>
   <g id="patch_62">
    <path d="M 645.641333 186.66 
L 660.772 186.66 
L 660.772 157.317345 
L 645.641333 157.317345 
z
" clip-path="url(#pe10e8a9a5e)" style="fill: #808080; stroke: #ffffff; stroke-linejoin: miter"/>
   </g>
   <g id="patch_63">
    <path d="M 759.121333 186.66 
L 774.252 186.66 
L 774.252 134.582686 
L 759.121333 134.582686 
z
" clip-path="url(#pe10e8a9a5e)" style="fill: #808080; stroke: #ffffff; stroke-linejoin: miter"/>
   </g>
   <g id="patch_64">
    <path d="M 872.601333 186.66 
L 887.732 186.66 
L 887.732 95.918774 
L 872.601333 95.918774 
z
" clip-path="url(#pe10e8a9a5e)" style="fill: #808080; stroke: #ffffff; stroke-linejoin: miter"/>
   </g>
   <g id="patch_65">
    <path d="M 986.081333 186.66 
L 1001.212 186.66 
L 1001.212 37.703053 
L 986.081333 37.703053 
z
" clip-path="url(#pe10e8a9a5e)" style="fill: #808080; stroke: #ffffff; stroke-linejoin: miter"/>
   </g>
   <g id="patch_66">
    <path d="M 615.38 186.66 
L 615.38 186.66 
L 615.38 186.66 
L 615.38 186.66 
z
" clip-path="url(#pe10e8a9a5e)" style="fill: #d3564c; stroke: #ffffff; stroke-linejoin: miter"/>
   </g>
   <g id="patch_67">
    <path d="M 615.38 186.66 
L 615.38 186.66 
L 615.38 186.66 
L 615.38 186.66 
z
" clip-path="url(#pe10e8a9a5e)" style="fill: #dcad23; stroke: #ffffff; stroke-linejoin: miter"/>
   </g>
   <g id="patch_68">
    <path d="M 615.38 186.66 
L 615.38 186.66 
L 615.38 186.66 
L 615.38 186.66 
z
" clip-path="url(#pe10e8a9a5e)" style="fill: #b35919; stroke: #ffffff; stroke-linejoin: miter"/>
   </g>
   <g id="patch_69">
    <path d="M 615.38 186.66 
L 615.38 186.66 
L 615.38 186.66 
L 615.38 186.66 
z
" clip-path="url(#pe10e8a9a5e)" style="fill: #114578; stroke: #ffffff; stroke-linejoin: miter"/>
   </g>
   <g id="patch_70">
    <path d="M 615.38 186.66 
L 615.38 186.66 
L 615.38 186.66 
L 615.38 186.66 
z
" clip-path="url(#pe10e8a9a5e)" style="fill: #2080df; stroke: #ffffff; stroke-linejoin: miter"/>
   </g>
   <g id="patch_71">
    <path d="M 615.38 186.66 
L 615.38 186.66 
L 615.38 186.66 
L 615.38 186.66 
z
" clip-path="url(#pe10e8a9a5e)" style="fill: #808080; stroke: #ffffff; stroke-linejoin: miter"/>
   </g>
   <g id="line2d_41">
    <path d="M 577.553333 164.757994 
L 577.553333 163.876277 
" clip-path="url(#pe10e8a9a5e)" style="fill: none; stroke: #8b0000; stroke-width: 2.25; stroke-linecap: round"/>
   </g>
   <g id="line2d_42">
    <path d="M 691.033333 152.061723 
L 691.033333 151.745735 
" clip-path="url(#pe10e8a9a5e)" style="fill: none; stroke: #8b0000; stroke-width: 2.25; stroke-linecap: round"/>
   </g>
   <g id="line2d_43">
    <path d="M 804.513333 137.500054 
L 804.513333 136.98162 
" clip-path="url(#pe10e8a9a5e)" style="fill: none; stroke: #8b0000; stroke-width: 2.25; stroke-linecap: round"/>
   </g>
   <g id="line2d_44">
    <path d="M 917.993333 121.680433 
L 917.993333 119.633476 
" clip-path="url(#pe10e8a9a5e)" style="fill: none; stroke: #8b0000; stroke-width: 2.25; stroke-linecap: round"/>
   </g>
   <g id="line2d_45">
    <path d="M 592.684 164.596403 
L 592.684 163.842577 
" clip-path="url(#pe10e8a9a5e)" style="fill: none; stroke: #8b0000; stroke-width: 2.25; stroke-linecap: round"/>
   </g>
   <g id="line2d_46">
    <path d="M 706.164 149.401775 
L 706.164 149.015681 
" clip-path="url(#pe10e8a9a5e)" style="fill: none; stroke: #8b0000; stroke-width: 2.25; stroke-linecap: round"/>
   </g>
   <g id="line2d_47">
    <path d="M 819.644 133.748047 
L 819.644 132.331355 
" clip-path="url(#pe10e8a9a5e)" style="fill: none; stroke: #8b0000; stroke-width: 2.25; stroke-linecap: round"/>
   </g>
   <g id="line2d_48">
    <path d="M 933.124 117.693313 
L 933.124 109.821796 
" clip-path="url(#pe10e8a9a5e)" style="fill: none; stroke: #8b0000; stroke-width: 2.25; stroke-linecap: round"/>
   </g>
   <g id="line2d_49">
    <path d="M 607.814667 160.179817 
L 607.814667 159.929812 
" clip-path="url(#pe10e8a9a5e)" style="fill: none; stroke: #8b0000; stroke-width: 2.25; stroke-linecap: round"/>
   </g>
   <g id="line2d_50">
    <path d="M 721.294667 139.766702 
L 721.294667 139.668312 
" clip-path="url(#pe10e8a9a5e)" style="fill: none; stroke: #8b0000; stroke-width: 2.25; stroke-linecap: round"/>
   </g>
   <g id="line2d_51">
    <path d="M 834.774667 116.046643 
L 834.774667 115.138634 
" clip-path="url(#pe10e8a9a5e)" style="fill: none; stroke: #8b0000; stroke-width: 2.25; stroke-linecap: round"/>
   </g>
   <g id="line2d_52">
    <path d="M 622.945333 162.032468 
L 622.945333 161.937136 
" clip-path="url(#pe10e8a9a5e)" style="fill: none; stroke: #8b0000; stroke-width: 2.25; stroke-linecap: round"/>
   </g>
   <g id="line2d_53">
    <path d="M 736.425333 142.667363 
L 736.425333 142.449597 
" clip-path="url(#pe10e8a9a5e)" style="fill: none; stroke: #8b0000; stroke-width: 2.25; stroke-linecap: round"/>
   </g>
   <g id="line2d_54">
    <path d="M 849.905333 112.679609 
L 849.905333 112.062844 
" clip-path="url(#pe10e8a9a5e)" style="fill: none; stroke: #8b0000; stroke-width: 2.25; stroke-linecap: round"/>
   </g>
   <g id="line2d_55">
    <path d="M 963.385333 82.643549 
L 963.385333 81.99797 
" clip-path="url(#pe10e8a9a5e)" style="fill: none; stroke: #8b0000; stroke-width: 2.25; stroke-linecap: round"/>
   </g>
   <g id="line2d_56">
    <path d="M 638.076 158.478947 
L 638.076 158.402058 
" clip-path="url(#pe10e8a9a5e)" style="fill: none; stroke: #8b0000; stroke-width: 2.25; stroke-linecap: round"/>
   </g>
   <g id="line2d_57">
    <path d="M 751.556 146.960809 
L 751.556 136.295766 
" clip-path="url(#pe10e8a9a5e)" style="fill: none; stroke: #8b0000; stroke-width: 2.25; stroke-linecap: round"/>
   </g>
   <g id="line2d_58">
    <path d="M 865.036 114.10091 
L 865.036 111.439545 
" clip-path="url(#pe10e8a9a5e)" style="fill: none; stroke: #8b0000; stroke-width: 2.25; stroke-linecap: round"/>
   </g>
   <g id="line2d_59">
    <path d="M 978.516 67.909318 
L 978.516 65.010783 
" clip-path="url(#pe10e8a9a5e)" style="fill: none; stroke: #8b0000; stroke-width: 2.25; stroke-linecap: round"/>
   </g>
   <g id="line2d_60">
    <path d="M 653.206667 157.915133 
L 653.206667 157.000161 
" clip-path="url(#pe10e8a9a5e)" style="fill: none; stroke: #8b0000; stroke-width: 2.25; stroke-linecap: round"/>
   </g>
   <g id="line2d_61">
    <path d="M 766.686667 134.660772 
L 766.686667 134.492926 
" clip-path="url(#pe10e8a9a5e)" style="fill: none; stroke: #8b0000; stroke-width: 2.25; stroke-linecap: round"/>
   </g>
   <g id="line2d_62">
    <path d="M 880.166667 96.162245 
L 880.166667 95.692869 
" clip-path="url(#pe10e8a9a5e)" style="fill: none; stroke: #8b0000; stroke-width: 2.25; stroke-linecap: round"/>
   </g>
   <g id="line2d_63">
    <path d="M 993.646667 38.177356 
L 993.646667 37.231429 
" clip-path="url(#pe10e8a9a5e)" style="fill: none; stroke: #8b0000; stroke-width: 2.25; stroke-linecap: round"/>
   </g>
   <g id="patch_72">
    <path d="M 558.64 186.66 
L 558.64 29.76 
" style="fill: none; stroke: #cccccc; stroke-width: 1.25; stroke-linejoin: miter; stroke-linecap: square"/>
   </g>
   <g id="patch_73">
    <path d="M 1012.56 186.66 
L 1012.56 29.76 
" style="fill: none; stroke: #cccccc; stroke-width: 1.25; stroke-linejoin: miter; stroke-linecap: square"/>
   </g>
   <g id="patch_74">
    <path d="M 558.64 186.66 
L 1012.56 186.66 
" style="fill: none; stroke: #cccccc; stroke-width: 1.25; stroke-linejoin: miter; stroke-linecap: square"/>
   </g>
   <g id="patch_75">
    <path d="M 558.64 29.76 
L 1012.56 29.76 
" style="fill: none; stroke: #cccccc; stroke-width: 1.25; stroke-linejoin: miter; stroke-linecap: square"/>
   </g>
   <g id="text_25">
    <!-- LAMMPS M/Atom Steps per Second (GPU) -->
    <g style="fill: #262626" transform="translate(640.768906 23.76) scale(0.14 -0.14)">
     <use xlink:href="#DejaVuSans-4c"/>
     <use xlink:href="#DejaVuSans-41" x="57.962891"/>
     <use xlink:href="#DejaVuSans-4d" x="126.371094"/>
     <use xlink:href="#DejaVuSans-4d" x="212.650391"/>
     <use xlink:href="#DejaVuSans-50" x="298.929688"/>
     <use xlink:href="#DejaVuSans-53" x="359.232422"/>
     <use xlink:href="#DejaVuSans-20" x="422.708984"/>
     <use xlink:href="#DejaVuSans-4d" x="454.496094"/>
     <use xlink:href="#DejaVuSans-2f" x="540.775391"/>
     <use xlink:href="#DejaVuSans-41" x="574.466797"/>
     <use xlink:href="#DejaVuSans-74" x="641.125"/>
     <use xlink:href="#DejaVuSans-6f" x="680.333984"/>
     <use xlink:href="#DejaVuSans-6d" x="741.515625"/>
     <use xlink:href="#DejaVuSans-20" x="838.927734"/>
     <use xlink:href="#DejaVuSans-53" x="870.714844"/>
     <use xlink:href="#DejaVuSans-74" x="934.191406"/>
     <use xlink:href="#DejaVuSans-65" x="973.400391"/>
     <use xlink:href="#DejaVuSans-70" x="1034.923828"/>
     <use xlink:href="#DejaVuSans-73" x="1098.400391"/>
     <use xlink:href="#DejaVuSans-20" x="1150.5"/>
     <use xlink:href="#DejaVuSans-70" x="1182.287109"/>
     <use xlink:href="#DejaVuSans-65" x="1245.763672"/>
     <use xlink:href="#DejaVuSans-72" x="1307.287109"/>
     <use xlink:href="#DejaVuSans-20" x="1348.400391"/>
     <use xlink:href="#DejaVuSans-53" x="1380.1875"/>
     <use xlink:href="#DejaVuSans-65" x="1443.664062"/>
     <use xlink:href="#DejaVuSans-63" x="1505.1875"/>
     <use xlink:href="#DejaVuSans-6f" x="1560.167969"/>
     <use xlink:href="#DejaVuSans-6e" x="1621.349609"/>
     <use xlink:href="#DejaVuSans-64" x="1684.728516"/>
     <use xlink:href="#DejaVuSans-20" x="1748.205078"/>
     <use xlink:href="#DejaVuSans-28" x="1779.992188"/>
     <use xlink:href="#DejaVuSans-47" x="1819.005859"/>
     <use xlink:href="#DejaVuSans-50" x="1896.496094"/>
     <use xlink:href="#DejaVuSans-55" x="1956.798828"/>
     <use xlink:href="#DejaVuSans-29" x="2029.992188"/>
    </g>
   </g>
  </g>
  <g id="axes_3">
   <g id="legend_1">
    <g id="patch_76">
     <path d="M 1043.284 70.880469 
L 1065.284 70.880469 
L 1065.284 63.180469 
L 1043.284 63.180469 
z
" style="fill: #d3564c; stroke: #ffffff; stroke-linejoin: miter"/>
    </g>
    <g id="text_26">
     <!-- google/compute-engine -->
     <g style="fill: #262626" transform="translate(1074.084 70.880469) scale(0.11 -0.11)">
      <defs>
       <path id="DejaVuSans-67" d="M 2906 1791 
Q 2906 2416 2648 2759 
Q 2391 3103 1925 3103 
Q 1463 3103 1205 2759 
Q 947 2416 947 1791 
Q 947 1169 1205 825 
Q 1463 481 1925 481 
Q 2391 481 2648 825 
Q 2906 1169 2906 1791 
z
M 3481 434 
Q 3481 -459 3084 -895 
Q 2688 -1331 1869 -1331 
Q 1566 -1331 1297 -1286 
Q 1028 -1241 775 -1147 
L 775 -588 
Q 1028 -725 1275 -790 
Q 1522 -856 1778 -856 
Q 2344 -856 2625 -561 
Q 2906 -266 2906 331 
L 2906 616 
Q 2728 306 2450 153 
Q 2172 0 1784 0 
Q 1141 0 747 490 
Q 353 981 353 1791 
Q 353 2603 747 3093 
Q 1141 3584 1784 3584 
Q 2172 3584 2450 3431 
Q 2728 3278 2906 2969 
L 2906 3500 
L 3481 3500 
L 3481 434 
z
" transform="scale(0.015625)"/>
       <path id="DejaVuSans-6c" d="M 603 4863 
L 1178 4863 
L 1178 0 
L 603 0 
L 603 4863 
z
" transform="scale(0.015625)"/>
       <path id="DejaVuSans-2d" d="M 313 2009 
L 1997 2009 
L 1997 1497 
L 313 1497 
L 313 2009 
z
" transform="scale(0.015625)"/>
       <path id="DejaVuSans-69" d="M 603 3500 
L 1178 3500 
L 1178 0 
L 603 0 
L 603 3500 
z
M 603 4863 
L 1178 4863 
L 1178 4134 
L 603 4134 
L 603 4863 
z
" transform="scale(0.015625)"/>
      </defs>
      <use xlink:href="#DejaVuSans-67"/>
      <use xlink:href="#DejaVuSans-6f" x="63.476562"/>
      <use xlink:href="#DejaVuSans-6f" x="124.658203"/>
      <use xlink:href="#DejaVuSans-67" x="185.839844"/>
      <use xlink:href="#DejaVuSans-6c" x="249.316406"/>
      <use xlink:href="#DejaVuSans-65" x="277.099609"/>
      <use xlink:href="#DejaVuSans-2f" x="338.623047"/>
      <use xlink:href="#DejaVuSans-63" x="372.314453"/>
      <use xlink:href="#DejaVuSans-6f" x="427.294922"/>
      <use xlink:href="#DejaVuSans-6d" x="488.476562"/>
      <use xlink:href="#DejaVuSans-70" x="585.888672"/>
      <use xlink:href="#DejaVuSans-75" x="649.365234"/>
      <use xlink:href="#DejaVuSans-74" x="712.744141"/>
      <use xlink:href="#DejaVuSans-65" x="751.953125"/>
      <use xlink:href="#DejaVuSans-2d" x="813.476562"/>
      <use xlink:href="#DejaVuSans-65" x="849.560547"/>
      <use xlink:href="#DejaVuSans-6e" x="911.083984"/>
      <use xlink:href="#DejaVuSans-67" x="974.462891"/>
      <use xlink:href="#DejaVuSans-69" x="1037.939453"/>
      <use xlink:href="#DejaVuSans-6e" x="1065.722656"/>
      <use xlink:href="#DejaVuSans-65" x="1129.101562"/>
     </g>
    </g>
    <g id="patch_77">
     <path d="M 1043.284 87.026406 
L 1065.284 87.026406 
L 1065.284 79.326406 
L 1043.284 79.326406 
z
" style="fill: #dcad23; stroke: #ffffff; stroke-linejoin: miter"/>
    </g>
    <g id="text_27">
     <!-- google/gke -->
     <g style="fill: #262626" transform="translate(1074.084 87.026406) scale(0.11 -0.11)">
      <defs>
       <path id="DejaVuSans-6b" d="M 581 4863 
L 1159 4863 
L 1159 1991 
L 2875 3500 
L 3609 3500 
L 1753 1863 
L 3688 0 
L 2938 0 
L 1159 1709 
L 1159 0 
L 581 0 
L 581 4863 
z
" transform="scale(0.015625)"/>
      </defs>
      <use xlink:href="#DejaVuSans-67"/>
      <use xlink:href="#DejaVuSans-6f" x="63.476562"/>
      <use xlink:href="#DejaVuSans-6f" x="124.658203"/>
      <use xlink:href="#DejaVuSans-67" x="185.839844"/>
      <use xlink:href="#DejaVuSans-6c" x="249.316406"/>
      <use xlink:href="#DejaVuSans-65" x="277.099609"/>
      <use xlink:href="#DejaVuSans-2f" x="338.623047"/>
      <use xlink:href="#DejaVuSans-67" x="372.314453"/>
      <use xlink:href="#DejaVuSans-6b" x="435.791016"/>
      <use xlink:href="#DejaVuSans-65" x="490.076172"/>
     </g>
    </g>
    <g id="patch_78">
     <path d="M 1043.284 103.172344 
L 1065.284 103.172344 
L 1065.284 95.472344 
L 1043.284 95.472344 
z
" style="fill: #b35919; stroke: #ffffff; stroke-linejoin: miter"/>
    </g>
    <g id="text_28">
     <!-- aws/eks -->
     <g style="fill: #262626" transform="translate(1074.084 103.172344) scale(0.11 -0.11)">
      <defs>
       <path id="DejaVuSans-61" d="M 2194 1759 
Q 1497 1759 1228 1600 
Q 959 1441 959 1056 
Q 959 750 1161 570 
Q 1363 391 1709 391 
Q 2188 391 2477 730 
Q 2766 1069 2766 1631 
L 2766 1759 
L 2194 1759 
z
M 3341 1997 
L 3341 0 
L 2766 0 
L 2766 531 
Q 2569 213 2275 61 
Q 1981 -91 1556 -91 
Q 1019 -91 701 211 
Q 384 513 384 1019 
Q 384 1609 779 1909 
Q 1175 2209 1959 2209 
L 2766 2209 
L 2766 2266 
Q 2766 2663 2505 2880 
Q 2244 3097 1772 3097 
Q 1472 3097 1187 3025 
Q 903 2953 641 2809 
L 641 3341 
Q 956 3463 1253 3523 
Q 1550 3584 1831 3584 
Q 2591 3584 2966 3190 
Q 3341 2797 3341 1997 
z
" transform="scale(0.015625)"/>
       <path id="DejaVuSans-77" d="M 269 3500 
L 844 3500 
L 1563 769 
L 2278 3500 
L 2956 3500 
L 3675 769 
L 4391 3500 
L 4966 3500 
L 4050 0 
L 3372 0 
L 2619 2869 
L 1863 0 
L 1184 0 
L 269 3500 
z
" transform="scale(0.015625)"/>
      </defs>
      <use xlink:href="#DejaVuSans-61"/>
      <use xlink:href="#DejaVuSans-77" x="61.279297"/>
      <use xlink:href="#DejaVuSans-73" x="143.066406"/>
      <use xlink:href="#DejaVuSans-2f" x="195.166016"/>
      <use xlink:href="#DejaVuSans-65" x="228.857422"/>
      <use xlink:href="#DejaVuSans-6b" x="290.380859"/>
      <use xlink:href="#DejaVuSans-73" x="348.291016"/>
     </g>
    </g>
    <g id="patch_79">
     <path d="M 1043.284 119.318281 
L 1065.284 119.318281 
L 1065.284 111.618281 
L 1043.284 111.618281 
z
" style="fill: #114578; stroke: #ffffff; stroke-linejoin: miter"/>
    </g>
    <g id="text_29">
     <!-- azure/aks -->
     <g style="fill: #262626" transform="translate(1074.084 119.318281) scale(0.11 -0.11)">
      <defs>
       <path id="DejaVuSans-7a" d="M 353 3500 
L 3084 3500 
L 3084 2975 
L 922 459 
L 3084 459 
L 3084 0 
L 275 0 
L 275 525 
L 2438 3041 
L 353 3041 
L 353 3500 
z
" transform="scale(0.015625)"/>
      </defs>
      <use xlink:href="#DejaVuSans-61"/>
      <use xlink:href="#DejaVuSans-7a" x="61.279297"/>
      <use xlink:href="#DejaVuSans-75" x="113.769531"/>
      <use xlink:href="#DejaVuSans-72" x="177.148438"/>
      <use xlink:href="#DejaVuSans-65" x="216.011719"/>
      <use xlink:href="#DejaVuSans-2f" x="277.535156"/>
      <use xlink:href="#DejaVuSans-61" x="311.226562"/>
      <use xlink:href="#DejaVuSans-6b" x="372.505859"/>
      <use xlink:href="#DejaVuSans-73" x="430.416016"/>
     </g>
    </g>
    <g id="patch_80">
     <path d="M 1043.284 135.464219 
L 1065.284 135.464219 
L 1065.284 127.764219 
L 1043.284 127.764219 
z
" style="fill: #2080df; stroke: #ffffff; stroke-linejoin: miter"/>
    </g>
    <g id="text_30">
     <!-- azure/cyclecloud -->
     <g style="fill: #262626" transform="translate(1074.084 135.464219) scale(0.11 -0.11)">
      <defs>
       <path id="DejaVuSans-79" d="M 2059 -325 
Q 1816 -950 1584 -1140 
Q 1353 -1331 966 -1331 
L 506 -1331 
L 506 -850 
L 844 -850 
Q 1081 -850 1212 -737 
Q 1344 -625 1503 -206 
L 1606 56 
L 191 3500 
L 800 3500 
L 1894 763 
L 2988 3500 
L 3597 3500 
L 2059 -325 
z
" transform="scale(0.015625)"/>
      </defs>
      <use xlink:href="#DejaVuSans-61"/>
      <use xlink:href="#DejaVuSans-7a" x="61.279297"/>
      <use xlink:href="#DejaVuSans-75" x="113.769531"/>
      <use xlink:href="#DejaVuSans-72" x="177.148438"/>
      <use xlink:href="#DejaVuSans-65" x="216.011719"/>
      <use xlink:href="#DejaVuSans-2f" x="277.535156"/>
      <use xlink:href="#DejaVuSans-63" x="311.226562"/>
      <use xlink:href="#DejaVuSans-79" x="366.207031"/>
      <use xlink:href="#DejaVuSans-63" x="425.386719"/>
      <use xlink:href="#DejaVuSans-6c" x="480.367188"/>
      <use xlink:href="#DejaVuSans-65" x="508.150391"/>
      <use xlink:href="#DejaVuSans-63" x="569.673828"/>
      <use xlink:href="#DejaVuSans-6c" x="624.654297"/>
      <use xlink:href="#DejaVuSans-6f" x="652.4375"/>
      <use xlink:href="#DejaVuSans-75" x="713.619141"/>
      <use xlink:href="#DejaVuSans-64" x="776.998047"/>
     </g>
    </g>
    <g id="patch_81">
     <path d="M 1043.284 151.610156 
L 1065.284 151.610156 
L 1065.284 143.910156 
L 1043.284 143.910156 
z
" style="fill: #808080; stroke: #ffffff; stroke-linejoin: miter"/>
    </g>
    <g id="text_31">
     <!-- on-premises/b -->
     <g style="fill: #262626" transform="translate(1074.084 151.610156) scale(0.11 -0.11)">
      <defs>
       <path id="DejaVuSans-62" d="M 3116 1747 
Q 3116 2381 2855 2742 
Q 2594 3103 2138 3103 
Q 1681 3103 1420 2742 
Q 1159 2381 1159 1747 
Q 1159 1113 1420 752 
Q 1681 391 2138 391 
Q 2594 391 2855 752 
Q 3116 1113 3116 1747 
z
M 1159 2969 
Q 1341 3281 1617 3432 
Q 1894 3584 2278 3584 
Q 2916 3584 3314 3078 
Q 3713 2572 3713 1747 
Q 3713 922 3314 415 
Q 2916 -91 2278 -91 
Q 1894 -91 1617 61 
Q 1341 213 1159 525 
L 1159 0 
L 581 0 
L 581 4863 
L 1159 4863 
L 1159 2969 
z
" transform="scale(0.015625)"/>
      </defs>
      <use xlink:href="#DejaVuSans-6f"/>
      <use xlink:href="#DejaVuSans-6e" x="61.181641"/>
      <use xlink:href="#DejaVuSans-2d" x="124.560547"/>
      <use xlink:href="#DejaVuSans-70" x="160.644531"/>
      <use xlink:href="#DejaVuSans-72" x="224.121094"/>
      <use xlink:href="#DejaVuSans-65" x="262.984375"/>
      <use xlink:href="#DejaVuSans-6d" x="324.507812"/>
      <use xlink:href="#DejaVuSans-69" x="421.919922"/>
      <use xlink:href="#DejaVuSans-73" x="449.703125"/>
      <use xlink:href="#DejaVuSans-65" x="501.802734"/>
      <use xlink:href="#DejaVuSans-73" x="563.326172"/>
      <use xlink:href="#DejaVuSans-2f" x="615.425781"/>
      <use xlink:href="#DejaVuSans-62" x="649.117188"/>
     </g>
    </g>
   </g>
  </g>
 </g>
 <defs>
  <clipPath id="p2030075f00">
   <rect x="61.2" y="29.76" width="453.92" height="156.9"/>
  </clipPath>
  <clipPath id="pe10e8a9a5e">
   <rect x="558.64" y="29.76" width="453.92" height="156.9"/>
  </clipPath>
 </defs>
</svg>
