<?xml version="1.0" encoding="utf-8" standalone="no"?>
<!DOCTYPE svg PUBLIC "-//W3C//DTD SVG 1.1//EN"
  "http://www.w3.org/Graphics/SVG/1.1/DTD/svg11.dtd">
<svg xmlns:xlink="http://www.w3.org/1999/xlink" width="324pt" height="432pt" viewBox="0 0 324 432" xmlns="http://www.w3.org/2000/svg" version="1.1">
 <metadata>
  <rdf:RDF xmlns:dc="http://purl.org/dc/elements/1.1/" xmlns:cc="http://creativecommons.org/ns#" xmlns:rdf="http://www.w3.org/1999/02/22-rdf-syntax-ns#">
   <cc:Work>
    <dc:type rdf:resource="http://purl.org/dc/dcmitype/StillImage"/>
    <dc:date>2025-02-04T12:01:37.524475</dc:date>
    <dc:format>image/svg+xml</dc:format>
    <dc:creator>
     <cc:Agent>
      <dc:title>Matplotlib v3.8.4, https://matplotlib.org/</dc:title>
     </cc:Agent>
    </dc:creator>
   </cc:Work>
  </rdf:RDF>
 </metadata>
 <defs>
  <style type="text/css">*{stroke-linejoin: round; stroke-linecap: butt}</style>
 </defs>
 <g id="figure_1">
  <g id="patch_1">
   <path d="M 0 432 
L 324 432 
L 324 0 
L 0 0 
z
" style="fill: #ffffff"/>
  </g>
  <g id="axes_1">
   <g id="patch_2">
    <path d="M 60.48 381.78 
L 311.04 381.78 
L 311.04 26.16 
L 60.48 26.16 
z
" style="fill: #ffffff"/>
   </g>
   <g id="matplotlib.axis_1">
    <g id="xtick_1">
     <g id="text_1">
      <!-- 32 -->
      <g style="fill: #262626" transform="translate(84.80125 399.638281) scale(0.11 -0.11)">
       <defs>
        <path id="DejaVuSans-33" d="M 2597 2516 
Q 3050 2419 3304 2112 
Q 3559 1806 3559 1356 
Q 3559 666 3084 287 
Q 2609 -91 1734 -91 
Q 1441 -91 1130 -33 
Q 819 25 488 141 
L 488 750 
Q 750 597 1062 519 
Q 1375 441 1716 441 
Q 2309 441 2620 675 
Q 2931 909 2931 1356 
Q 2931 1769 2642 2001 
Q 2353 2234 1838 2234 
L 1294 2234 
L 1294 2753 
L 1863 2753 
Q 2328 2753 2575 2939 
Q 2822 3125 2822 3475 
Q 2822 3834 2567 4026 
Q 2313 4219 1838 4219 
Q 1578 4219 1281 4162 
Q 984 4106 628 3988 
L 628 4550 
Q 988 4650 1302 4700 
Q 1616 4750 1894 4750 
Q 2613 4750 3031 4423 
Q 3450 4097 3450 3541 
Q 3450 3153 3228 2886 
Q 3006 2619 2597 2516 
z
" transform="scale(0.015625)"/>
        <path id="DejaVuSans-32" d="M 1228 531 
L 3431 531 
L 3431 0 
L 469 0 
L 469 531 
Q 828 903 1448 1529 
Q 2069 2156 2228 2338 
Q 2531 2678 2651 2914 
Q 2772 3150 2772 3378 
Q 2772 3750 2511 3984 
Q 2250 4219 1831 4219 
Q 1534 4219 1204 4116 
Q 875 4013 500 3803 
L 500 4441 
Q 881 4594 1212 4672 
Q 1544 4750 1819 4750 
Q 2544 4750 2975 4387 
Q 3406 4025 3406 3419 
Q 3406 3131 3298 2873 
Q 3191 2616 2906 2266 
Q 2828 2175 2409 1742 
Q 1991 1309 1228 531 
z
" transform="scale(0.015625)"/>
       </defs>
       <use xlink:href="#DejaVuSans-33"/>
       <use xlink:href="#DejaVuSans-32" x="63.623047"/>
      </g>
     </g>
    </g>
    <g id="xtick_2">
     <g id="text_2">
      <!-- 64 -->
      <g style="fill: #262626" transform="translate(147.44125 399.638281) scale(0.11 -0.11)">
       <defs>
        <path id="DejaVuSans-36" d="M 2113 2584 
Q 1688 2584 1439 2293 
Q 1191 2003 1191 1497 
Q 1191 994 1439 701 
Q 1688 409 2113 409 
Q 2538 409 2786 701 
Q 3034 994 3034 1497 
Q 3034 2003 2786 2293 
Q 2538 2584 2113 2584 
z
M 3366 4563 
L 3366 3988 
Q 3128 4100 2886 4159 
Q 2644 4219 2406 4219 
Q 1781 4219 1451 3797 
Q 1122 3375 1075 2522 
Q 1259 2794 1537 2939 
Q 1816 3084 2150 3084 
Q 2853 3084 3261 2657 
Q 3669 2231 3669 1497 
Q 3669 778 3244 343 
Q 2819 -91 2113 -91 
Q 1303 -91 875 529 
Q 447 1150 447 2328 
Q 447 3434 972 4092 
Q 1497 4750 2381 4750 
Q 2619 4750 2861 4703 
Q 3103 4656 3366 4563 
z
" transform="scale(0.015625)"/>
        <path id="DejaVuSans-34" d="M 2419 4116 
L 825 1625 
L 2419 1625 
L 2419 4116 
z
M 2253 4666 
L 3047 4666 
L 3047 1625 
L 3713 1625 
L 3713 1100 
L 3047 1100 
L 3047 0 
L 2419 0 
L 2419 1100 
L 313 1100 
L 313 1709 
L 2253 4666 
z
" transform="scale(0.015625)"/>
       </defs>
       <use xlink:href="#DejaVuSans-36"/>
       <use xlink:href="#DejaVuSans-34" x="63.623047"/>
      </g>
     </g>
    </g>
    <g id="xtick_3">
     <g id="text_3">
      <!-- 128 -->
      <g style="fill: #262626" transform="translate(206.581875 399.638281) scale(0.11 -0.11)">
       <defs>
        <path id="DejaVuSans-31" d="M 794 531 
L 1825 531 
L 1825 4091 
L 703 3866 
L 703 4441 
L 1819 4666 
L 2450 4666 
L 2450 531 
L 3481 531 
L 3481 0 
L 794 0 
L 794 531 
z
" transform="scale(0.015625)"/>
        <path id="DejaVuSans-38" d="M 2034 2216 
Q 1584 2216 1326 1975 
Q 1069 1734 1069 1313 
Q 1069 891 1326 650 
Q 1584 409 2034 409 
Q 2484 409 2743 651 
Q 3003 894 3003 1313 
Q 3003 1734 2745 1975 
Q 2488 2216 2034 2216 
z
M 1403 2484 
Q 997 2584 770 2862 
Q 544 3141 544 3541 
Q 544 4100 942 4425 
Q 1341 4750 2034 4750 
Q 2731 4750 3128 4425 
Q 3525 4100 3525 3541 
Q 3525 3141 3298 2862 
Q 3072 2584 2669 2484 
Q 3125 2378 3379 2068 
Q 3634 1759 3634 1313 
Q 3634 634 3220 271 
Q 2806 -91 2034 -91 
Q 1263 -91 848 271 
Q 434 634 434 1313 
Q 434 1759 690 2068 
Q 947 2378 1403 2484 
z
M 1172 3481 
Q 1172 3119 1398 2916 
Q 1625 2713 2034 2713 
Q 2441 2713 2670 2916 
Q 2900 3119 2900 3481 
Q 2900 3844 2670 4047 
Q 2441 4250 2034 4250 
Q 1625 4250 1398 4047 
Q 1172 3844 1172 3481 
z
" transform="scale(0.015625)"/>
       </defs>
       <use xlink:href="#DejaVuSans-31"/>
       <use xlink:href="#DejaVuSans-32" x="63.623047"/>
       <use xlink:href="#DejaVuSans-38" x="127.246094"/>
      </g>
     </g>
    </g>
    <g id="xtick_4">
     <g id="text_4">
      <!-- 256 -->
      <g style="fill: #262626" transform="translate(269.221875 399.638281) scale(0.11 -0.11)">
       <defs>
        <path id="DejaVuSans-35" d="M 691 4666 
L 3169 4666 
L 3169 4134 
L 1269 4134 
L 1269 2991 
Q 1406 3038 1543 3061 
Q 1681 3084 1819 3084 
Q 2600 3084 3056 2656 
Q 3513 2228 3513 1497 
Q 3513 744 3044 326 
Q 2575 -91 1722 -91 
Q 1428 -91 1123 -41 
Q 819 9 494 109 
L 494 744 
Q 775 591 1075 516 
Q 1375 441 1709 441 
Q 2250 441 2565 725 
Q 2881 1009 2881 1497 
Q 2881 1984 2565 2268 
Q 2250 2553 1709 2553 
Q 1456 2553 1204 2497 
Q 953 2441 691 2322 
L 691 4666 
z
" transform="scale(0.015625)"/>
       </defs>
       <use xlink:href="#DejaVuSans-32"/>
       <use xlink:href="#DejaVuSans-35" x="63.623047"/>
       <use xlink:href="#DejaVuSans-36" x="127.246094"/>
      </g>
     </g>
    </g>
    <g id="text_5">
     <!-- GPU Count -->
     <g style="fill: #262626" transform="translate(150.678281 415.803906) scale(0.13 -0.13)">
      <defs>
       <path id="DejaVuSans-47" d="M 3809 666 
L 3809 1919 
L 2778 1919 
L 2778 2438 
L 4434 2438 
L 4434 434 
Q 4069 175 3628 42 
Q 3188 -91 2688 -91 
Q 1594 -91 976 548 
Q 359 1188 359 2328 
Q 359 3472 976 4111 
Q 1594 4750 2688 4750 
Q 3144 4750 3555 4637 
Q 3966 4525 4313 4306 
L 4313 3634 
Q 3963 3931 3569 4081 
Q 3175 4231 2741 4231 
Q 1884 4231 1454 3753 
Q 1025 3275 1025 2328 
Q 1025 1384 1454 906 
Q 1884 428 2741 428 
Q 3075 428 3337 486 
Q 3600 544 3809 666 
z
" transform="scale(0.015625)"/>
       <path id="DejaVuSans-50" d="M 1259 4147 
L 1259 2394 
L 2053 2394 
Q 2494 2394 2734 2622 
Q 2975 2850 2975 3272 
Q 2975 3691 2734 3919 
Q 2494 4147 2053 4147 
L 1259 4147 
z
M 628 4666 
L 2053 4666 
Q 2838 4666 3239 4311 
Q 3641 3956 3641 3272 
Q 3641 2581 3239 2228 
Q 2838 1875 2053 1875 
L 1259 1875 
L 1259 0 
L 628 0 
L 628 4666 
z
" transform="scale(0.015625)"/>
       <path id="DejaVuSans-55" d="M 556 4666 
L 1191 4666 
L 1191 1831 
Q 1191 1081 1462 751 
Q 1734 422 2344 422 
Q 2950 422 3222 751 
Q 3494 1081 3494 1831 
L 3494 4666 
L 4128 4666 
L 4128 1753 
Q 4128 841 3676 375 
Q 3225 -91 2344 -91 
Q 1459 -91 1007 375 
Q 556 841 556 1753 
L 556 4666 
z
" transform="scale(0.015625)"/>
       <path id="DejaVuSans-20" transform="scale(0.015625)"/>
       <path id="DejaVuSans-43" d="M 4122 4306 
L 4122 3641 
Q 3803 3938 3442 4084 
Q 3081 4231 2675 4231 
Q 1875 4231 1450 3742 
Q 1025 3253 1025 2328 
Q 1025 1406 1450 917 
Q 1875 428 2675 428 
Q 3081 428 3442 575 
Q 3803 722 4122 1019 
L 4122 359 
Q 3791 134 3420 21 
Q 3050 -91 2638 -91 
Q 1578 -91 968 557 
Q 359 1206 359 2328 
Q 359 3453 968 4101 
Q 1578 4750 2638 4750 
Q 3056 4750 3426 4639 
Q 3797 4528 4122 4306 
z
" transform="scale(0.015625)"/>
       <path id="DejaVuSans-6f" d="M 1959 3097 
Q 1497 3097 1228 2736 
Q 959 2375 959 1747 
Q 959 1119 1226 758 
Q 1494 397 1959 397 
Q 2419 397 2687 759 
Q 2956 1122 2956 1747 
Q 2956 2369 2687 2733 
Q 2419 3097 1959 3097 
z
M 1959 3584 
Q 2709 3584 3137 3096 
Q 3566 2609 3566 1747 
Q 3566 888 3137 398 
Q 2709 -91 1959 -91 
Q 1206 -91 779 398 
Q 353 888 353 1747 
Q 353 2609 779 3096 
Q 1206 3584 1959 3584 
z
" transform="scale(0.015625)"/>
       <path id="DejaVuSans-75" d="M 544 1381 
L 544 3500 
L 1119 3500 
L 1119 1403 
Q 1119 906 1312 657 
Q 1506 409 1894 409 
Q 2359 409 2629 706 
Q 2900 1003 2900 1516 
L 2900 3500 
L 3475 3500 
L 3475 0 
L 2900 0 
L 2900 538 
Q 2691 219 2414 64 
Q 2138 -91 1772 -91 
Q 1169 -91 856 284 
Q 544 659 544 1381 
z
M 1991 3584 
L 1991 3584 
z
" transform="scale(0.015625)"/>
       <path id="DejaVuSans-6e" d="M 3513 2113 
L 3513 0 
L 2938 0 
L 2938 2094 
Q 2938 2591 2744 2837 
Q 2550 3084 2163 3084 
Q 1697 3084 1428 2787 
Q 1159 2491 1159 1978 
L 1159 0 
L 581 0 
L 581 3500 
L 1159 3500 
L 1159 2956 
Q 1366 3272 1645 3428 
Q 1925 3584 2291 3584 
Q 2894 3584 3203 3211 
Q 3513 2838 3513 2113 
z
" transform="scale(0.015625)"/>
       <path id="DejaVuSans-74" d="M 1172 4494 
L 1172 3500 
L 2356 3500 
L 2356 3053 
L 1172 3053 
L 1172 1153 
Q 1172 725 1289 603 
Q 1406 481 1766 481 
L 2356 481 
L 2356 0 
L 1766 0 
Q 1100 0 847 248 
Q 594 497 594 1153 
L 594 3053 
L 172 3053 
L 172 3500 
L 594 3500 
L 594 4494 
L 1172 4494 
z
" transform="scale(0.015625)"/>
      </defs>
      <use xlink:href="#DejaVuSans-47"/>
      <use xlink:href="#DejaVuSans-50" x="77.490234"/>
      <use xlink:href="#DejaVuSans-55" x="137.792969"/>
      <use xlink:href="#DejaVuSans-20" x="210.986328"/>
      <use xlink:href="#DejaVuSans-43" x="242.773438"/>
      <use xlink:href="#DejaVuSans-6f" x="312.597656"/>
      <use xlink:href="#DejaVuSans-75" x="373.779297"/>
      <use xlink:href="#DejaVuSans-6e" x="437.158203"/>
      <use xlink:href="#DejaVuSans-74" x="500.537109"/>
     </g>
    </g>
   </g>
   <g id="matplotlib.axis_2">
    <g id="ytick_1">
     <g id="line2d_1">
      <path d="M 60.48 352.601714 
L 311.04 352.601714 
" clip-path="url(#pd9bc0a9d1a)" style="fill: none; stroke: #cccccc; stroke-linecap: round"/>
     </g>
     <g id="text_6">
      <!-- 50 -->
      <g style="fill: #262626" transform="translate(36.9825 356.780855) scale(0.11 -0.11)">
       <defs>
        <path id="DejaVuSans-30" d="M 2034 4250 
Q 1547 4250 1301 3770 
Q 1056 3291 1056 2328 
Q 1056 1369 1301 889 
Q 1547 409 2034 409 
Q 2525 409 2770 889 
Q 3016 1369 3016 2328 
Q 3016 3291 2770 3770 
Q 2525 4250 2034 4250 
z
M 2034 4750 
Q 2819 4750 3233 4129 
Q 3647 3509 3647 2328 
Q 3647 1150 3233 529 
Q 2819 -91 2034 -91 
Q 1250 -91 836 529 
Q 422 1150 422 2328 
Q 422 3509 836 4129 
Q 1250 4750 2034 4750 
z
" transform="scale(0.015625)"/>
       </defs>
       <use xlink:href="#DejaVuSans-35"/>
       <use xlink:href="#DejaVuSans-30" x="63.623047"/>
      </g>
     </g>
    </g>
    <g id="ytick_2">
     <g id="line2d_2">
      <path d="M 60.48 284.948668 
L 311.04 284.948668 
" clip-path="url(#pd9bc0a9d1a)" style="fill: none; stroke: #cccccc; stroke-linecap: round"/>
     </g>
     <g id="text_7">
      <!-- 100 -->
      <g style="fill: #262626" transform="translate(29.98375 289.127808) scale(0.11 -0.11)">
       <use xlink:href="#DejaVuSans-31"/>
       <use xlink:href="#DejaVuSans-30" x="63.623047"/>
       <use xlink:href="#DejaVuSans-30" x="127.246094"/>
      </g>
     </g>
    </g>
    <g id="ytick_3">
     <g id="line2d_3">
      <path d="M 60.48 217.295621 
L 311.04 217.295621 
" clip-path="url(#pd9bc0a9d1a)" style="fill: none; stroke: #cccccc; stroke-linecap: round"/>
     </g>
     <g id="text_8">
      <!-- 150 -->
      <g style="fill: #262626" transform="translate(29.98375 221.474761) scale(0.11 -0.11)">
       <use xlink:href="#DejaVuSans-31"/>
       <use xlink:href="#DejaVuSans-35" x="63.623047"/>
       <use xlink:href="#DejaVuSans-30" x="127.246094"/>
      </g>
     </g>
    </g>
    <g id="ytick_4">
     <g id="line2d_4">
      <path d="M 60.48 149.642574 
L 311.04 149.642574 
" clip-path="url(#pd9bc0a9d1a)" style="fill: none; stroke: #cccccc; stroke-linecap: round"/>
     </g>
     <g id="text_9">
      <!-- 200 -->
      <g style="fill: #262626" transform="translate(29.98375 153.821714) scale(0.11 -0.11)">
       <use xlink:href="#DejaVuSans-32"/>
       <use xlink:href="#DejaVuSans-30" x="63.623047"/>
       <use xlink:href="#DejaVuSans-30" x="127.246094"/>
      </g>
     </g>
    </g>
    <g id="ytick_5">
     <g id="line2d_5">
      <path d="M 60.48 81.989527 
L 311.04 81.989527 
" clip-path="url(#pd9bc0a9d1a)" style="fill: none; stroke: #cccccc; stroke-linecap: round"/>
     </g>
     <g id="text_10">
      <!-- 250 -->
      <g style="fill: #262626" transform="translate(29.98375 86.168667) scale(0.11 -0.11)">
       <use xlink:href="#DejaVuSans-32"/>
       <use xlink:href="#DejaVuSans-35" x="63.623047"/>
       <use xlink:href="#DejaVuSans-30" x="127.246094"/>
      </g>
     </g>
    </g>
    <g id="text_11">
     <!-- Millions of Atom Steps per Second -->
     <g style="fill: #262626" transform="translate(23.280156 314.975781) rotate(-90) scale(0.13 -0.13)">
      <defs>
       <path id="DejaVuSans-4d" d="M 628 4666 
L 1569 4666 
L 2759 1491 
L 3956 4666 
L 4897 4666 
L 4897 0 
L 4281 0 
L 4281 4097 
L 3078 897 
L 2444 897 
L 1241 4097 
L 1241 0 
L 628 0 
L 628 4666 
z
" transform="scale(0.015625)"/>
       <path id="DejaVuSans-69" d="M 603 3500 
L 1178 3500 
L 1178 0 
L 603 0 
L 603 3500 
z
M 603 4863 
L 1178 4863 
L 1178 4134 
L 603 4134 
L 603 4863 
z
" transform="scale(0.015625)"/>
       <path id="DejaVuSans-6c" d="M 603 4863 
L 1178 4863 
L 1178 0 
L 603 0 
L 603 4863 
z
" transform="scale(0.015625)"/>
       <path id="DejaVuSans-73" d="M 2834 3397 
L 2834 2853 
Q 2591 2978 2328 3040 
Q 2066 3103 1784 3103 
Q 1356 3103 1142 2972 
Q 928 2841 928 2578 
Q 928 2378 1081 2264 
Q 1234 2150 1697 2047 
L 1894 2003 
Q 2506 1872 2764 1633 
Q 3022 1394 3022 966 
Q 3022 478 2636 193 
Q 2250 -91 1575 -91 
Q 1294 -91 989 -36 
Q 684 19 347 128 
L 347 722 
Q 666 556 975 473 
Q 1284 391 1588 391 
Q 1994 391 2212 530 
Q 2431 669 2431 922 
Q 2431 1156 2273 1281 
Q 2116 1406 1581 1522 
L 1381 1569 
Q 847 1681 609 1914 
Q 372 2147 372 2553 
Q 372 3047 722 3315 
Q 1072 3584 1716 3584 
Q 2034 3584 2315 3537 
Q 2597 3491 2834 3397 
z
" transform="scale(0.015625)"/>
       <path id="DejaVuSans-66" d="M 2375 4863 
L 2375 4384 
L 1825 4384 
Q 1516 4384 1395 4259 
Q 1275 4134 1275 3809 
L 1275 3500 
L 2222 3500 
L 2222 3053 
L 1275 3053 
L 1275 0 
L 697 0 
L 697 3053 
L 147 3053 
L 147 3500 
L 697 3500 
L 697 3744 
Q 697 4328 969 4595 
Q 1241 4863 1831 4863 
L 2375 4863 
z
" transform="scale(0.015625)"/>
       <path id="DejaVuSans-41" d="M 2188 4044 
L 1331 1722 
L 3047 1722 
L 2188 4044 
z
M 1831 4666 
L 2547 4666 
L 4325 0 
L 3669 0 
L 3244 1197 
L 1141 1197 
L 716 0 
L 50 0 
L 1831 4666 
z
" transform="scale(0.015625)"/>
       <path id="DejaVuSans-6d" d="M 3328 2828 
Q 3544 3216 3844 3400 
Q 4144 3584 4550 3584 
Q 5097 3584 5394 3201 
Q 5691 2819 5691 2113 
L 5691 0 
L 5113 0 
L 5113 2094 
Q 5113 2597 4934 2840 
Q 4756 3084 4391 3084 
Q 3944 3084 3684 2787 
Q 3425 2491 3425 1978 
L 3425 0 
L 2847 0 
L 2847 2094 
Q 2847 2600 2669 2842 
Q 2491 3084 2119 3084 
Q 1678 3084 1418 2786 
Q 1159 2488 1159 1978 
L 1159 0 
L 581 0 
L 581 3500 
L 1159 3500 
L 1159 2956 
Q 1356 3278 1631 3431 
Q 1906 3584 2284 3584 
Q 2666 3584 2933 3390 
Q 3200 3197 3328 2828 
z
" transform="scale(0.015625)"/>
       <path id="DejaVuSans-53" d="M 3425 4513 
L 3425 3897 
Q 3066 4069 2747 4153 
Q 2428 4238 2131 4238 
Q 1616 4238 1336 4038 
Q 1056 3838 1056 3469 
Q 1056 3159 1242 3001 
Q 1428 2844 1947 2747 
L 2328 2669 
Q 3034 2534 3370 2195 
Q 3706 1856 3706 1288 
Q 3706 609 3251 259 
Q 2797 -91 1919 -91 
Q 1588 -91 1214 -16 
Q 841 59 441 206 
L 441 856 
Q 825 641 1194 531 
Q 1563 422 1919 422 
Q 2459 422 2753 634 
Q 3047 847 3047 1241 
Q 3047 1584 2836 1778 
Q 2625 1972 2144 2069 
L 1759 2144 
Q 1053 2284 737 2584 
Q 422 2884 422 3419 
Q 422 4038 858 4394 
Q 1294 4750 2059 4750 
Q 2388 4750 2728 4690 
Q 3069 4631 3425 4513 
z
" transform="scale(0.015625)"/>
       <path id="DejaVuSans-65" d="M 3597 1894 
L 3597 1613 
L 953 1613 
Q 991 1019 1311 708 
Q 1631 397 2203 397 
Q 2534 397 2845 478 
Q 3156 559 3463 722 
L 3463 178 
Q 3153 47 2828 -22 
Q 2503 -91 2169 -91 
Q 1331 -91 842 396 
Q 353 884 353 1716 
Q 353 2575 817 3079 
Q 1281 3584 2069 3584 
Q 2775 3584 3186 3129 
Q 3597 2675 3597 1894 
z
M 3022 2063 
Q 3016 2534 2758 2815 
Q 2500 3097 2075 3097 
Q 1594 3097 1305 2825 
Q 1016 2553 972 2059 
L 3022 2063 
z
" transform="scale(0.015625)"/>
       <path id="DejaVuSans-70" d="M 1159 525 
L 1159 -1331 
L 581 -1331 
L 581 3500 
L 1159 3500 
L 1159 2969 
Q 1341 3281 1617 3432 
Q 1894 3584 2278 3584 
Q 2916 3584 3314 3078 
Q 3713 2572 3713 1747 
Q 3713 922 3314 415 
Q 2916 -91 2278 -91 
Q 1894 -91 1617 61 
Q 1341 213 1159 525 
z
M 3116 1747 
Q 3116 2381 2855 2742 
Q 2594 3103 2138 3103 
Q 1681 3103 1420 2742 
Q 1159 2381 1159 1747 
Q 1159 1113 1420 752 
Q 1681 391 2138 391 
Q 2594 391 2855 752 
Q 3116 1113 3116 1747 
z
" transform="scale(0.015625)"/>
       <path id="DejaVuSans-72" d="M 2631 2963 
Q 2534 3019 2420 3045 
Q 2306 3072 2169 3072 
Q 1681 3072 1420 2755 
Q 1159 2438 1159 1844 
L 1159 0 
L 581 0 
L 581 3500 
L 1159 3500 
L 1159 2956 
Q 1341 3275 1631 3429 
Q 1922 3584 2338 3584 
Q 2397 3584 2469 3576 
Q 2541 3569 2628 3553 
L 2631 2963 
z
" transform="scale(0.015625)"/>
       <path id="DejaVuSans-63" d="M 3122 3366 
L 3122 2828 
Q 2878 2963 2633 3030 
Q 2388 3097 2138 3097 
Q 1578 3097 1268 2742 
Q 959 2388 959 1747 
Q 959 1106 1268 751 
Q 1578 397 2138 397 
Q 2388 397 2633 464 
Q 2878 531 3122 666 
L 3122 134 
Q 2881 22 2623 -34 
Q 2366 -91 2075 -91 
Q 1284 -91 818 406 
Q 353 903 353 1747 
Q 353 2603 823 3093 
Q 1294 3584 2113 3584 
Q 2378 3584 2631 3529 
Q 2884 3475 3122 3366 
z
" transform="scale(0.015625)"/>
       <path id="DejaVuSans-64" d="M 2906 2969 
L 2906 4863 
L 3481 4863 
L 3481 0 
L 2906 0 
L 2906 525 
Q 2725 213 2448 61 
Q 2172 -91 1784 -91 
Q 1150 -91 751 415 
Q 353 922 353 1747 
Q 353 2572 751 3078 
Q 1150 3584 1784 3584 
Q 2172 3584 2448 3432 
Q 2725 3281 2906 2969 
z
M 947 1747 
Q 947 1113 1208 752 
Q 1469 391 1925 391 
Q 2381 391 2643 752 
Q 2906 1113 2906 1747 
Q 2906 2381 2643 2742 
Q 2381 3103 1925 3103 
Q 1469 3103 1208 2742 
Q 947 2381 947 1747 
z
" transform="scale(0.015625)"/>
      </defs>
      <use xlink:href="#DejaVuSans-4d"/>
      <use xlink:href="#DejaVuSans-69" x="86.279297"/>
      <use xlink:href="#DejaVuSans-6c" x="114.0625"/>
      <use xlink:href="#DejaVuSans-6c" x="141.845703"/>
      <use xlink:href="#DejaVuSans-69" x="169.628906"/>
      <use xlink:href="#DejaVuSans-6f" x="197.412109"/>
      <use xlink:href="#DejaVuSans-6e" x="258.59375"/>
      <use xlink:href="#DejaVuSans-73" x="321.972656"/>
      <use xlink:href="#DejaVuSans-20" x="374.072266"/>
      <use xlink:href="#DejaVuSans-6f" x="405.859375"/>
      <use xlink:href="#DejaVuSans-66" x="467.041016"/>
      <use xlink:href="#DejaVuSans-20" x="502.246094"/>
      <use xlink:href="#DejaVuSans-41" x="534.033203"/>
      <use xlink:href="#DejaVuSans-74" x="600.691406"/>
      <use xlink:href="#DejaVuSans-6f" x="639.900391"/>
      <use xlink:href="#DejaVuSans-6d" x="701.082031"/>
      <use xlink:href="#DejaVuSans-20" x="798.494141"/>
      <use xlink:href="#DejaVuSans-53" x="830.28125"/>
      <use xlink:href="#DejaVuSans-74" x="893.757812"/>
      <use xlink:href="#DejaVuSans-65" x="932.966797"/>
      <use xlink:href="#DejaVuSans-70" x="994.490234"/>
      <use xlink:href="#DejaVuSans-73" x="1057.966797"/>
      <use xlink:href="#DejaVuSans-20" x="1110.066406"/>
      <use xlink:href="#DejaVuSans-70" x="1141.853516"/>
      <use xlink:href="#DejaVuSans-65" x="1205.330078"/>
      <use xlink:href="#DejaVuSans-72" x="1266.853516"/>
      <use xlink:href="#DejaVuSans-20" x="1307.966797"/>
      <use xlink:href="#DejaVuSans-53" x="1339.753906"/>
      <use xlink:href="#DejaVuSans-65" x="1403.230469"/>
      <use xlink:href="#DejaVuSans-63" x="1464.753906"/>
      <use xlink:href="#DejaVuSans-6f" x="1519.734375"/>
      <use xlink:href="#DejaVuSans-6e" x="1580.916016"/>
      <use xlink:href="#DejaVuSans-64" x="1644.294922"/>
     </g>
    </g>
   </g>
   <g id="patch_3">
    <path d="M 60.48 381.78 
L 60.48 26.16 
" style="fill: none; stroke: #cccccc; stroke-width: 1.25; stroke-linejoin: miter; stroke-linecap: square"/>
   </g>
   <g id="patch_4">
    <path d="M 311.04 381.78 
L 311.04 26.16 
" style="fill: none; stroke: #cccccc; stroke-width: 1.25; stroke-linejoin: miter; stroke-linecap: square"/>
   </g>
   <g id="patch_5">
    <path d="M 60.48 381.78 
L 311.04 381.78 
" style="fill: none; stroke: #cccccc; stroke-width: 1.25; stroke-linejoin: miter; stroke-linecap: square"/>
   </g>
   <g id="patch_6">
    <path d="M 60.48 26.16 
L 311.04 26.16 
" style="fill: none; stroke: #cccccc; stroke-width: 1.25; stroke-linejoin: miter; stroke-linecap: square"/>
   </g>
   <g id="PathCollection_1">
    <defs>
     <path id="C0_0_1bfbc8d2f0" d="M 0 -2.5 
L -2.377641 -0.772542 
L -1.469463 2.022542 
L 1.469463 2.022542 
L 2.377641 -0.772542 
z
"/>
    </defs>
    <g clip-path="url(#pd9bc0a9d1a)">
     <use xlink:href="#C0_0_1bfbc8d2f0" x="93.503096" y="363.653516" style="fill: #8c613c"/>
    </g>
    <g clip-path="url(#pd9bc0a9d1a)">
     <use xlink:href="#C0_0_1bfbc8d2f0" x="89.361308" y="364.450469" style="fill: #8c613c"/>
    </g>
    <g clip-path="url(#pd9bc0a9d1a)">
     <use xlink:href="#C0_0_1bfbc8d2f0" x="91.823719" y="364.52624" style="fill: #8c613c"/>
    </g>
    <g clip-path="url(#pd9bc0a9d1a)">
     <use xlink:href="#C0_0_1bfbc8d2f0" x="87.119711" y="364.607424" style="fill: #8c613c"/>
    </g>
    <g clip-path="url(#pd9bc0a9d1a)">
     <use xlink:href="#C0_0_1bfbc8d2f0" x="96.415415" y="364.29622" style="fill: #8c613c"/>
    </g>
    <g clip-path="url(#pd9bc0a9d1a)">
     <use xlink:href="#C0_0_1bfbc8d2f0" x="93.466773" y="361.032637" style="fill: #8c613c"/>
    </g>
   </g>
   <g id="PathCollection_2">
    <defs>
     <path id="C1_0_24f30aeb56" d="M 0 -2.5 
L -2.377641 -0.772542 
L -1.469463 2.022542 
L 1.469463 2.022542 
L 2.377641 -0.772542 
z
"/>
    </defs>
    <g clip-path="url(#pd9bc0a9d1a)">
     <use xlink:href="#C1_0_24f30aeb56" x="151.923486" y="324.604178" style="fill: #8c613c"/>
    </g>
    <g clip-path="url(#pd9bc0a9d1a)">
     <use xlink:href="#C1_0_24f30aeb56" x="154.850898" y="325.904469" style="fill: #8c613c"/>
    </g>
    <g clip-path="url(#pd9bc0a9d1a)">
     <use xlink:href="#C1_0_24f30aeb56" x="149.840341" y="325.698804" style="fill: #8c613c"/>
    </g>
    <g clip-path="url(#pd9bc0a9d1a)">
     <use xlink:href="#C1_0_24f30aeb56" x="157.081546" y="325.489079" style="fill: #8c613c"/>
    </g>
    <g clip-path="url(#pd9bc0a9d1a)">
     <use xlink:href="#C1_0_24f30aeb56" x="151.893767" y="326.562057" style="fill: #8c613c"/>
    </g>
    <g clip-path="url(#pd9bc0a9d1a)">
     <use xlink:href="#C1_0_24f30aeb56" x="152.699157" y="325.687979" style="fill: #8c613c"/>
    </g>
   </g>
   <g id="PathCollection_3">
    <defs>
     <path id="C2_0_010d335371" d="M 0 -2.5 
L -2.377641 -0.772542 
L -1.469463 2.022542 
L 1.469463 2.022542 
L 2.377641 -0.772542 
z
"/>
    </defs>
    <g clip-path="url(#pd9bc0a9d1a)">
     <use xlink:href="#C2_0_010d335371" x="213.042163" y="281.287285" style="fill: #8c613c"/>
    </g>
    <g clip-path="url(#pd9bc0a9d1a)">
     <use xlink:href="#C2_0_010d335371" x="214.220065" y="286.273314" style="fill: #8c613c"/>
    </g>
    <g clip-path="url(#pd9bc0a9d1a)">
     <use xlink:href="#C2_0_010d335371" x="212.857997" y="285.132684" style="fill: #8c613c"/>
    </g>
    <g clip-path="url(#pd9bc0a9d1a)">
     <use xlink:href="#C2_0_010d335371" x="218.479583" y="284.863425" style="fill: #8c613c"/>
    </g>
    <g clip-path="url(#pd9bc0a9d1a)">
     <use xlink:href="#C2_0_010d335371" x="211.874183" y="287.250224" style="fill: #8c613c"/>
    </g>
   </g>
   <g id="PathCollection_4">
    <defs>
     <path id="C3_0_cabb74da75" d="M 0 -2.5 
L -2.377641 -0.772542 
L -1.469463 2.022542 
L 1.469463 2.022542 
L 2.377641 -0.772542 
z
"/>
    </defs>
    <g clip-path="url(#pd9bc0a9d1a)">
     <use xlink:href="#C3_0_cabb74da75" x="275.514237" y="213.324387" style="fill: #8c613c"/>
    </g>
    <g clip-path="url(#pd9bc0a9d1a)">
     <use xlink:href="#C3_0_cabb74da75" x="283.816351" y="246.198355" style="fill: #8c613c"/>
    </g>
    <g clip-path="url(#pd9bc0a9d1a)">
     <use xlink:href="#C3_0_cabb74da75" x="285.267179" y="245.923684" style="fill: #8c613c"/>
    </g>
    <g clip-path="url(#pd9bc0a9d1a)">
     <use xlink:href="#C3_0_cabb74da75" x="284.851258" y="245.847913" style="fill: #8c613c"/>
    </g>
    <g clip-path="url(#pd9bc0a9d1a)">
     <use xlink:href="#C3_0_cabb74da75" x="274.261543" y="244.488086" style="fill: #8c613c"/>
    </g>
   </g>
   <g id="line2d_6"/>
   <g id="PathCollection_5">
    <path d="M 86.884033 365.182018 
L 91.884033 365.182018 
L 91.884033 360.182018 
L 86.884033 360.182018 
z
" clip-path="url(#pd9bc0a9d1a)" style="fill: #6c3baa"/>
    <path d="M 90.167057 365.09001 
L 95.167057 365.09001 
L 95.167057 360.09001 
L 90.167057 360.09001 
z
" clip-path="url(#pd9bc0a9d1a)" style="fill: #6c3baa"/>
    <path d="M 91.913748 365.336267 
L 96.913748 365.336267 
L 96.913748 360.336267 
L 91.913748 360.336267 
z
" clip-path="url(#pd9bc0a9d1a)" style="fill: #6c3baa"/>
    <path d="M 86.47228 367.580995 
L 91.47228 367.580995 
L 91.47228 362.580995 
L 86.47228 362.580995 
z
" clip-path="url(#pd9bc0a9d1a)" style="fill: #6c3baa"/>
    <path d="M 83.826254 368.115455 
L 88.826254 368.115455 
L 88.826254 363.115455 
L 83.826254 363.115455 
z
" clip-path="url(#pd9bc0a9d1a)" style="fill: #6c3baa"/>
   </g>
   <g id="PathCollection_6">
    <path d="M 157.046888 335.250957 
L 162.046888 335.250957 
L 162.046888 330.250957 
L 157.046888 330.250957 
z
" clip-path="url(#pd9bc0a9d1a)" style="fill: #6c3baa"/>
    <path d="M 147.784456 335.361908 
L 152.784456 335.361908 
L 152.784456 330.361908 
L 147.784456 330.361908 
z
" clip-path="url(#pd9bc0a9d1a)" style="fill: #6c3baa"/>
    <path d="M 156.848864 334.127917 
L 161.848864 334.127917 
L 161.848864 329.127917 
L 156.848864 329.127917 
z
" clip-path="url(#pd9bc0a9d1a)" style="fill: #6c3baa"/>
    <path d="M 154.602535 335.378145 
L 159.602535 335.378145 
L 159.602535 330.378145 
L 154.602535 330.378145 
z
" clip-path="url(#pd9bc0a9d1a)" style="fill: #6c3baa"/>
    <path d="M 154.564905 334.977639 
L 159.564905 334.977639 
L 159.564905 329.977639 
L 154.564905 329.977639 
z
" clip-path="url(#pd9bc0a9d1a)" style="fill: #6c3baa"/>
   </g>
   <g id="PathCollection_7">
    <path d="M 213.380282 299.033575 
L 218.380282 299.033575 
L 218.380282 294.033575 
L 213.380282 294.033575 
z
" clip-path="url(#pd9bc0a9d1a)" style="fill: #6c3baa"/>
    <path d="M 214.812254 298.431463 
L 219.812254 298.431463 
L 219.812254 293.431463 
L 214.812254 293.431463 
z
" clip-path="url(#pd9bc0a9d1a)" style="fill: #6c3baa"/>
    <path d="M 218.946425 297.859118 
L 223.946425 297.859118 
L 223.946425 292.859118 
L 218.946425 292.859118 
z
" clip-path="url(#pd9bc0a9d1a)" style="fill: #6c3baa"/>
    <path d="M 218.710071 296.939037 
L 223.710071 296.939037 
L 223.710071 291.939037 
L 218.710071 291.939037 
z
" clip-path="url(#pd9bc0a9d1a)" style="fill: #6c3baa"/>
    <path d="M 214.309798 297.251594 
L 219.309798 297.251594 
L 219.309798 292.251594 
L 214.309798 292.251594 
z
" clip-path="url(#pd9bc0a9d1a)" style="fill: #6c3baa"/>
   </g>
   <g id="PathCollection_8">
    <path d="M 281.196887 257.458072 
L 286.196887 257.458072 
L 286.196887 252.458072 
L 281.196887 252.458072 
z
" clip-path="url(#pd9bc0a9d1a)" style="fill: #6c3baa"/>
    <path d="M 283.469002 258.899082 
L 288.469002 258.899082 
L 288.469002 253.899082 
L 283.469002 253.899082 
z
" clip-path="url(#pd9bc0a9d1a)" style="fill: #6c3baa"/>
    <path d="M 282.599148 258.748892 
L 287.599148 258.748892 
L 287.599148 253.748892 
L 282.599148 253.748892 
z
" clip-path="url(#pd9bc0a9d1a)" style="fill: #6c3baa"/>
    <path d="M 280.135027 257.510841 
L 285.135027 257.510841 
L 285.135027 252.510841 
L 280.135027 252.510841 
z
" clip-path="url(#pd9bc0a9d1a)" style="fill: #6c3baa"/>
    <path d="M 281.165886 250.297673 
L 286.165886 250.297673 
L 286.165886 245.297673 
L 281.165886 245.297673 
z
" clip-path="url(#pd9bc0a9d1a)" style="fill: #6c3baa"/>
   </g>
   <g id="line2d_7"/>
   <g id="PathCollection_9">
    <defs>
     <path id="C4_0_985c495c74" d="M -0.833333 2.5 
L 0.833333 2.5 
L 0.833333 0.833333 
L 2.5 0.833333 
L 2.5 -0.833333 
L 0.833333 -0.833333 
L 0.833333 -2.5 
L -0.833333 -2.5 
L -0.833333 -0.833333 
L -2.5 -0.833333 
L -2.5 0.833333 
L -0.833333 0.833333 
z
"/>
    </defs>
    <g clip-path="url(#pd9bc0a9d1a)">
     <use xlink:href="#C4_0_985c495c74" x="91.698865" y="345.580681" style="fill: #797979"/>
    </g>
    <g clip-path="url(#pd9bc0a9d1a)">
     <use xlink:href="#C4_0_985c495c74" x="90.12694" y="345.214002" style="fill: #797979"/>
    </g>
    <g clip-path="url(#pd9bc0a9d1a)">
     <use xlink:href="#C4_0_985c495c74" x="92.175252" y="345.404783" style="fill: #797979"/>
    </g>
    <g clip-path="url(#pd9bc0a9d1a)">
     <use xlink:href="#C4_0_985c495c74" x="95.2839" y="349.800878" style="fill: #797979"/>
    </g>
    <g clip-path="url(#pd9bc0a9d1a)">
     <use xlink:href="#C4_0_985c495c74" x="97.091406" y="345.416961" style="fill: #797979"/>
    </g>
    <g clip-path="url(#pd9bc0a9d1a)">
     <use xlink:href="#C4_0_985c495c74" x="92.490034" y="345.326306" style="fill: #797979"/>
    </g>
   </g>
   <g id="PathCollection_10">
    <defs>
     <path id="C5_0_63fcdc2b52" d="M -0.833333 2.5 
L 0.833333 2.5 
L 0.833333 0.833333 
L 2.5 0.833333 
L 2.5 -0.833333 
L 0.833333 -0.833333 
L 0.833333 -2.5 
L -0.833333 -2.5 
L -0.833333 -0.833333 
L -2.5 -0.833333 
L -2.5 0.833333 
L -0.833333 0.833333 
z
"/>
    </defs>
    <g clip-path="url(#pd9bc0a9d1a)">
     <use xlink:href="#C5_0_63fcdc2b52" x="157.849091" y="288.539691" style="fill: #797979"/>
    </g>
    <g clip-path="url(#pd9bc0a9d1a)">
     <use xlink:href="#C5_0_63fcdc2b52" x="156.313951" y="288.79542" style="fill: #797979"/>
    </g>
    <g clip-path="url(#pd9bc0a9d1a)">
     <use xlink:href="#C5_0_63fcdc2b52" x="157.205251" y="288.288022" style="fill: #797979"/>
    </g>
    <g clip-path="url(#pd9bc0a9d1a)">
     <use xlink:href="#C5_0_63fcdc2b52" x="155.775854" y="288.902312" style="fill: #797979"/>
    </g>
    <g clip-path="url(#pd9bc0a9d1a)">
     <use xlink:href="#C5_0_63fcdc2b52" x="155.93204" y="288.911783" style="fill: #797979"/>
    </g>
   </g>
   <g id="PathCollection_11">
    <defs>
     <path id="C6_0_f0eb5f118b" d="M -0.833333 2.5 
L 0.833333 2.5 
L 0.833333 0.833333 
L 2.5 0.833333 
L 2.5 -0.833333 
L 0.833333 -0.833333 
L 0.833333 -2.5 
L -0.833333 -2.5 
L -0.833333 -0.833333 
L -2.5 -0.833333 
L -2.5 0.833333 
L -0.833333 0.833333 
z
"/>
    </defs>
    <g clip-path="url(#pd9bc0a9d1a)">
     <use xlink:href="#C6_0_f0eb5f118b" x="214.981084" y="191.994734" style="fill: #797979"/>
    </g>
    <g clip-path="url(#pd9bc0a9d1a)">
     <use xlink:href="#C6_0_f0eb5f118b" x="211.439747" y="191.706532" style="fill: #797979"/>
    </g>
    <g clip-path="url(#pd9bc0a9d1a)">
     <use xlink:href="#C6_0_f0eb5f118b" x="222.608489" y="190.422477" style="fill: #797979"/>
    </g>
    <g clip-path="url(#pd9bc0a9d1a)">
     <use xlink:href="#C6_0_f0eb5f118b" x="212.379754" y="190.49013" style="fill: #797979"/>
    </g>
    <g clip-path="url(#pd9bc0a9d1a)">
     <use xlink:href="#C6_0_f0eb5f118b" x="220.976308" y="190.42383" style="fill: #797979"/>
    </g>
   </g>
   <g id="PathCollection_12">
    <defs>
     <path id="C7_0_789f36dba8" d="M -0.833333 2.5 
L 0.833333 2.5 
L 0.833333 0.833333 
L 2.5 0.833333 
L 2.5 -0.833333 
L 0.833333 -0.833333 
L 0.833333 -2.5 
L -0.833333 -2.5 
L -0.833333 -0.833333 
L -2.5 -0.833333 
L -2.5 0.833333 
L -0.833333 0.833333 
z
"/>
    </defs>
    <g clip-path="url(#pd9bc0a9d1a)">
     <use xlink:href="#C7_0_789f36dba8" x="278.475689" y="42.404376" style="fill: #797979"/>
    </g>
    <g clip-path="url(#pd9bc0a9d1a)">
     <use xlink:href="#C7_0_789f36dba8" x="280.150376" y="44.405553" style="fill: #797979"/>
    </g>
    <g clip-path="url(#pd9bc0a9d1a)">
     <use xlink:href="#C7_0_789f36dba8" x="280.349454" y="46.280896" style="fill: #797979"/>
    </g>
    <g clip-path="url(#pd9bc0a9d1a)">
     <use xlink:href="#C7_0_789f36dba8" x="279.434805" y="44.245892" style="fill: #797979"/>
    </g>
    <g clip-path="url(#pd9bc0a9d1a)">
     <use xlink:href="#C7_0_789f36dba8" x="281.654631" y="42.324545" style="fill: #797979"/>
    </g>
   </g>
   <g id="line2d_8"/>
   <g id="PathCollection_13">
    <defs>
     <path id="C8_0_f6e451f1c1" d="M 0 2.5 
C 0.663008 2.5 1.29895 2.236584 1.767767 1.767767 
C 2.236584 1.29895 2.5 0.663008 2.5 -0 
C 2.5 -0.663008 2.236584 -1.29895 1.767767 -1.767767 
C 1.29895 -2.236584 0.663008 -2.5 0 -2.5 
C -0.663008 -2.5 -1.29895 -2.236584 -1.767767 -1.767767 
C -2.236584 -1.29895 -2.5 -0.663008 -2.5 0 
C -2.5 0.663008 -2.236584 1.29895 -1.767767 1.767767 
C -1.29895 2.236584 -0.663008 2.5 0 2.5 
z
"/>
    </defs>
    <g clip-path="url(#pd9bc0a9d1a)">
     <use xlink:href="#C8_0_f6e451f1c1" x="89.449269" y="352.877739" style="fill: #4878d0"/>
    </g>
    <g clip-path="url(#pd9bc0a9d1a)">
     <use xlink:href="#C8_0_f6e451f1c1" x="94.674465" y="353.690928" style="fill: #4878d0"/>
    </g>
    <g clip-path="url(#pd9bc0a9d1a)">
     <use xlink:href="#C8_0_f6e451f1c1" x="89.938325" y="352.870974" style="fill: #4878d0"/>
    </g>
    <g clip-path="url(#pd9bc0a9d1a)">
     <use xlink:href="#C8_0_f6e451f1c1" x="94.615608" y="352.62607" style="fill: #4878d0"/>
    </g>
    <g clip-path="url(#pd9bc0a9d1a)">
     <use xlink:href="#C8_0_f6e451f1c1" x="91.522805" y="352.834441" style="fill: #4878d0"/>
    </g>
   </g>
   <g id="PathCollection_14">
    <defs>
     <path id="C9_0_17051dd324" d="M 0 2.5 
C 0.663008 2.5 1.29895 2.236584 1.767767 1.767767 
C 2.236584 1.29895 2.5 0.663008 2.5 -0 
C 2.5 -0.663008 2.236584 -1.29895 1.767767 -1.767767 
C 1.29895 -2.236584 0.663008 -2.5 0 -2.5 
C -0.663008 -2.5 -1.29895 -2.236584 -1.767767 -1.767767 
C -2.236584 -1.29895 -2.5 -0.663008 -2.5 0 
C -2.5 0.663008 -2.236584 1.29895 -1.767767 1.767767 
C -1.29895 2.236584 -0.663008 2.5 0 2.5 
z
"/>
    </defs>
    <g clip-path="url(#pd9bc0a9d1a)">
     <use xlink:href="#C9_0_17051dd324" x="153.865259" y="301.484425" style="fill: #4878d0"/>
    </g>
    <g clip-path="url(#pd9bc0a9d1a)">
     <use xlink:href="#C9_0_17051dd324" x="149.002382" y="301.648146" style="fill: #4878d0"/>
    </g>
    <g clip-path="url(#pd9bc0a9d1a)">
     <use xlink:href="#C9_0_17051dd324" x="158.265178" y="301.684678" style="fill: #4878d0"/>
    </g>
    <g clip-path="url(#pd9bc0a9d1a)">
     <use xlink:href="#C9_0_17051dd324" x="159.175566" y="301.910639" style="fill: #4878d0"/>
    </g>
    <g clip-path="url(#pd9bc0a9d1a)">
     <use xlink:href="#C9_0_17051dd324" x="150.945555" y="301.541254" style="fill: #4878d0"/>
    </g>
   </g>
   <g id="PathCollection_15">
    <defs>
     <path id="Ca_0_d2f61e2d72" d="M 0 2.5 
C 0.663008 2.5 1.29895 2.236584 1.767767 1.767767 
C 2.236584 1.29895 2.5 0.663008 2.5 -0 
C 2.5 -0.663008 2.236584 -1.29895 1.767767 -1.767767 
C 1.29895 -2.236584 0.663008 -2.5 0 -2.5 
C -0.663008 -2.5 -1.29895 -2.236584 -1.767767 -1.767767 
C -2.236584 -1.29895 -2.5 -0.663008 -2.5 0 
C -2.5 0.663008 -2.236584 1.29895 -1.767767 1.767767 
C -1.29895 2.236584 -0.663008 2.5 0 2.5 
z
"/>
    </defs>
    <g clip-path="url(#pd9bc0a9d1a)">
     <use xlink:href="#Ca_0_d2f61e2d72" x="218.411161" y="239.438463" style="fill: #4878d0"/>
    </g>
    <g clip-path="url(#pd9bc0a9d1a)">
     <use xlink:href="#Ca_0_d2f61e2d72" x="212.185828" y="243.321748" style="fill: #4878d0"/>
    </g>
    <g clip-path="url(#pd9bc0a9d1a)">
     <use xlink:href="#Ca_0_d2f61e2d72" x="220.003556" y="239.887679" style="fill: #4878d0"/>
    </g>
    <g clip-path="url(#pd9bc0a9d1a)">
     <use xlink:href="#Ca_0_d2f61e2d72" x="217.009267" y="239.631951" style="fill: #4878d0"/>
    </g>
    <g clip-path="url(#pd9bc0a9d1a)">
     <use xlink:href="#Ca_0_d2f61e2d72" x="214.365473" y="239.680661" style="fill: #4878d0"/>
    </g>
   </g>
   <g id="line2d_9"/>
   <g id="PathCollection_16">
    <path d="M 83.859919 348.796907 
L 88.859919 351.296907 
L 88.859919 346.296907 
z
" clip-path="url(#pd9bc0a9d1a)" style="fill: #d65f5f"/>
    <path d="M 93.165488 348.993101 
L 98.165488 351.493101 
L 98.165488 346.493101 
z
" clip-path="url(#pd9bc0a9d1a)" style="fill: #d65f5f"/>
    <path d="M 95.193348 348.884856 
L 100.193348 351.384856 
L 100.193348 346.384856 
z
" clip-path="url(#pd9bc0a9d1a)" style="fill: #d65f5f"/>
    <path d="M 85.096371 349.002572 
L 90.096371 351.502572 
L 90.096371 346.502572 
z
" clip-path="url(#pd9bc0a9d1a)" style="fill: #d65f5f"/>
    <path d="M 87.434706 349.135172 
L 92.434706 351.635172 
L 92.434706 346.635172 
z
" clip-path="url(#pd9bc0a9d1a)" style="fill: #d65f5f"/>
   </g>
   <g id="PathCollection_17">
    <path d="M 152.175159 293.046737 
L 157.175159 295.546737 
L 157.175159 290.546737 
z
" clip-path="url(#pd9bc0a9d1a)" style="fill: #d65f5f"/>
    <path d="M 150.590271 294.528339 
L 155.590271 297.028339 
L 155.590271 292.028339 
z
" clip-path="url(#pd9bc0a9d1a)" style="fill: #d65f5f"/>
    <path d="M 155.401906 293.091388 
L 160.401906 295.591388 
L 160.401906 290.591388 
z
" clip-path="url(#pd9bc0a9d1a)" style="fill: #d65f5f"/>
    <path d="M 154.001619 292.923609 
L 159.001619 295.423609 
L 159.001619 290.423609 
z
" clip-path="url(#pd9bc0a9d1a)" style="fill: #d65f5f"/>
    <path d="M 153.908155 337.40684 
L 158.908155 339.90684 
L 158.908155 334.90684 
z
" clip-path="url(#pd9bc0a9d1a)" style="fill: #d65f5f"/>
   </g>
   <g id="PathCollection_18">
    <path d="M 217.575455 236.164055 
L 222.575455 238.664055 
L 222.575455 233.664055 
z
" clip-path="url(#pd9bc0a9d1a)" style="fill: #d65f5f"/>
    <path d="M 209.600373 235.977333 
L 214.600373 238.477333 
L 214.600373 233.477333 
z
" clip-path="url(#pd9bc0a9d1a)" style="fill: #d65f5f"/>
    <path d="M 217.264323 236.801347 
L 222.264323 239.301347 
L 222.264323 234.301347 
z
" clip-path="url(#pd9bc0a9d1a)" style="fill: #d65f5f"/>
    <path d="M 212.689229 237.461641 
L 217.689229 239.961641 
L 217.689229 234.961641 
z
" clip-path="url(#pd9bc0a9d1a)" style="fill: #d65f5f"/>
    <path d="M 216.827382 226.04316 
L 221.827382 228.54316 
L 221.827382 223.54316 
z
" clip-path="url(#pd9bc0a9d1a)" style="fill: #d65f5f"/>
   </g>
   <g id="PathCollection_19">
    <path d="M 282.330901 122.287741 
L 287.330901 124.787741 
L 287.330901 119.787741 
z
" clip-path="url(#pd9bc0a9d1a)" style="fill: #d65f5f"/>
    <path d="M 280.519869 112.996271 
L 285.519869 115.496271 
L 285.519869 110.496271 
z
" clip-path="url(#pd9bc0a9d1a)" style="fill: #d65f5f"/>
    <path d="M 278.491261 121.452902 
L 283.491261 123.952902 
L 283.491261 118.952902 
z
" clip-path="url(#pd9bc0a9d1a)" style="fill: #d65f5f"/>
    <path d="M 271.614947 112.898851 
L 276.614947 115.398851 
L 276.614947 110.398851 
z
" clip-path="url(#pd9bc0a9d1a)" style="fill: #d65f5f"/>
    <path d="M 271.214368 112.908322 
L 276.214368 115.408322 
L 276.214368 110.408322 
z
" clip-path="url(#pd9bc0a9d1a)" style="fill: #d65f5f"/>
   </g>
   <g id="line2d_10"/>
   <g id="PathCollection_20">
    <path d="M 86.135265 361.603615 
L 88.256586 358.068081 
L 86.135265 354.532547 
L 84.013945 358.068081 
z
" clip-path="url(#pd9bc0a9d1a)" style="fill: #008000"/>
    <path d="M 90.462154 361.454778 
L 92.583474 357.919244 
L 90.462154 354.38371 
L 88.340834 357.919244 
z
" clip-path="url(#pd9bc0a9d1a)" style="fill: #008000"/>
    <path d="M 89.409258 361.217992 
L 91.530578 357.682458 
L 89.409258 354.146924 
L 87.287938 357.682458 
z
" clip-path="url(#pd9bc0a9d1a)" style="fill: #008000"/>
    <path d="M 95.599681 361.406068 
L 97.721002 357.870534 
L 95.599681 354.335 
L 93.478361 357.870534 
z
" clip-path="url(#pd9bc0a9d1a)" style="fill: #008000"/>
    <path d="M 90.159263 361.598202 
L 92.280584 358.062668 
L 90.159263 354.527134 
L 88.037943 358.062668 
z
" clip-path="url(#pd9bc0a9d1a)" style="fill: #008000"/>
   </g>
   <g id="PathCollection_21">
    <path d="M 155.271883 312.752702 
L 157.393204 309.217169 
L 155.271883 305.681635 
L 153.150563 309.217169 
z
" clip-path="url(#pd9bc0a9d1a)" style="fill: #008000"/>
    <path d="M 156.373303 312.212831 
L 158.494624 308.677297 
L 156.373303 305.141763 
L 154.251983 308.677297 
z
" clip-path="url(#pd9bc0a9d1a)" style="fill: #008000"/>
    <path d="M 152.276244 311.900274 
L 154.397565 308.36474 
L 152.276244 304.829206 
L 150.154924 308.36474 
z
" clip-path="url(#pd9bc0a9d1a)" style="fill: #008000"/>
    <path d="M 155.913815 312.697227 
L 158.035136 309.161693 
L 155.913815 305.626159 
L 153.792495 309.161693 
z
" clip-path="url(#pd9bc0a9d1a)" style="fill: #008000"/>
    <path d="M 149.057838 312.394141 
L 151.179158 308.858607 
L 149.057838 305.323073 
L 146.936517 308.858607 
z
" clip-path="url(#pd9bc0a9d1a)" style="fill: #008000"/>
   </g>
   <g id="PathCollection_22">
    <path d="M 215.787527 234.593137 
L 217.908847 231.057603 
L 215.787527 227.52207 
L 213.666207 231.057603 
z
" clip-path="url(#pd9bc0a9d1a)" style="fill: #008000"/>
    <path d="M 212.459417 236.172159 
L 214.580737 232.636626 
L 212.459417 229.101092 
L 210.338096 232.636626 
z
" clip-path="url(#pd9bc0a9d1a)" style="fill: #008000"/>
    <path d="M 222.952225 236.26958 
L 225.073545 232.734046 
L 222.952225 229.198512 
L 220.830904 232.734046 
z
" clip-path="url(#pd9bc0a9d1a)" style="fill: #008000"/>
    <path d="M 213.425949 236.597021 
L 215.54727 233.061487 
L 213.425949 229.525953 
L 211.304629 233.061487 
z
" clip-path="url(#pd9bc0a9d1a)" style="fill: #008000"/>
    <path d="M 223.263275 237.299259 
L 225.384596 233.763725 
L 223.263275 230.228191 
L 221.141955 233.763725 
z
" clip-path="url(#pd9bc0a9d1a)" style="fill: #008000"/>
   </g>
   <g id="PathCollection_23">
    <path d="M 282.589858 159.770221 
L 284.711178 156.234687 
L 282.589858 152.699153 
L 280.468537 156.234687 
z
" clip-path="url(#pd9bc0a9d1a)" style="fill: #008000"/>
    <path d="M 282.275508 159.021978 
L 284.396829 155.486444 
L 282.275508 151.95091 
L 280.154188 155.486444 
z
" clip-path="url(#pd9bc0a9d1a)" style="fill: #008000"/>
    <path d="M 277.65042 159.705274 
L 279.771741 156.16974 
L 277.65042 152.634206 
L 275.5291 156.16974 
z
" clip-path="url(#pd9bc0a9d1a)" style="fill: #008000"/>
    <path d="M 275.152566 161.740277 
L 277.273886 158.204743 
L 275.152566 154.669209 
L 273.031246 158.204743 
z
" clip-path="url(#pd9bc0a9d1a)" style="fill: #008000"/>
    <path d="M 276.788941 160.097661 
L 278.910261 156.562127 
L 276.788941 153.026593 
L 274.667621 156.562127 
z
" clip-path="url(#pd9bc0a9d1a)" style="fill: #008000"/>
   </g>
   <g id="line2d_11"/>
   <g id="text_12">
    <!-- LAMMPS M/Atom Steps per Second 64x32x32 (GPU) -->
    <g style="fill: #262626" transform="translate(68.718516 20.16) scale(0.09 -0.09)">
     <defs>
      <path id="DejaVuSans-4c" d="M 628 4666 
L 1259 4666 
L 1259 531 
L 3531 531 
L 3531 0 
L 628 0 
L 628 4666 
z
" transform="scale(0.015625)"/>
      <path id="DejaVuSans-2f" d="M 1625 4666 
L 2156 4666 
L 531 -594 
L 0 -594 
L 1625 4666 
z
" transform="scale(0.015625)"/>
      <path id="DejaVuSans-78" d="M 3513 3500 
L 2247 1797 
L 3578 0 
L 2900 0 
L 1881 1375 
L 863 0 
L 184 0 
L 1544 1831 
L 300 3500 
L 978 3500 
L 1906 2253 
L 2834 3500 
L 3513 3500 
z
" transform="scale(0.015625)"/>
      <path id="DejaVuSans-28" d="M 1984 4856 
Q 1566 4138 1362 3434 
Q 1159 2731 1159 2009 
Q 1159 1288 1364 580 
Q 1569 -128 1984 -844 
L 1484 -844 
Q 1016 -109 783 600 
Q 550 1309 550 2009 
Q 550 2706 781 3412 
Q 1013 4119 1484 4856 
L 1984 4856 
z
" transform="scale(0.015625)"/>
      <path id="DejaVuSans-29" d="M 513 4856 
L 1013 4856 
Q 1481 4119 1714 3412 
Q 1947 2706 1947 2009 
Q 1947 1309 1714 600 
Q 1481 -109 1013 -844 
L 513 -844 
Q 928 -128 1133 580 
Q 1338 1288 1338 2009 
Q 1338 2731 1133 3434 
Q 928 4138 513 4856 
z
" transform="scale(0.015625)"/>
     </defs>
     <use xlink:href="#DejaVuSans-4c"/>
     <use xlink:href="#DejaVuSans-41" x="57.962891"/>
     <use xlink:href="#DejaVuSans-4d" x="126.371094"/>
     <use xlink:href="#DejaVuSans-4d" x="212.650391"/>
     <use xlink:href="#DejaVuSans-50" x="298.929688"/>
     <use xlink:href="#DejaVuSans-53" x="359.232422"/>
     <use xlink:href="#DejaVuSans-20" x="422.708984"/>
     <use xlink:href="#DejaVuSans-4d" x="454.496094"/>
     <use xlink:href="#DejaVuSans-2f" x="540.775391"/>
     <use xlink:href="#DejaVuSans-41" x="574.466797"/>
     <use xlink:href="#DejaVuSans-74" x="641.125"/>
     <use xlink:href="#DejaVuSans-6f" x="680.333984"/>
     <use xlink:href="#DejaVuSans-6d" x="741.515625"/>
     <use xlink:href="#DejaVuSans-20" x="838.927734"/>
     <use xlink:href="#DejaVuSans-53" x="870.714844"/>
     <use xlink:href="#DejaVuSans-74" x="934.191406"/>
     <use xlink:href="#DejaVuSans-65" x="973.400391"/>
     <use xlink:href="#DejaVuSans-70" x="1034.923828"/>
     <use xlink:href="#DejaVuSans-73" x="1098.400391"/>
     <use xlink:href="#DejaVuSans-20" x="1150.5"/>
     <use xlink:href="#DejaVuSans-70" x="1182.287109"/>
     <use xlink:href="#DejaVuSans-65" x="1245.763672"/>
     <use xlink:href="#DejaVuSans-72" x="1307.287109"/>
     <use xlink:href="#DejaVuSans-20" x="1348.400391"/>
     <use xlink:href="#DejaVuSans-53" x="1380.1875"/>
     <use xlink:href="#DejaVuSans-65" x="1443.664062"/>
     <use xlink:href="#DejaVuSans-63" x="1505.1875"/>
     <use xlink:href="#DejaVuSans-6f" x="1560.167969"/>
     <use xlink:href="#DejaVuSans-6e" x="1621.349609"/>
     <use xlink:href="#DejaVuSans-64" x="1684.728516"/>
     <use xlink:href="#DejaVuSans-20" x="1748.205078"/>
     <use xlink:href="#DejaVuSans-36" x="1779.992188"/>
     <use xlink:href="#DejaVuSans-34" x="1843.615234"/>
     <use xlink:href="#DejaVuSans-78" x="1907.238281"/>
     <use xlink:href="#DejaVuSans-33" x="1966.417969"/>
     <use xlink:href="#DejaVuSans-32" x="2030.041016"/>
     <use xlink:href="#DejaVuSans-78" x="2093.664062"/>
     <use xlink:href="#DejaVuSans-33" x="2152.84375"/>
     <use xlink:href="#DejaVuSans-32" x="2216.466797"/>
     <use xlink:href="#DejaVuSans-20" x="2280.089844"/>
     <use xlink:href="#DejaVuSans-28" x="2311.876953"/>
     <use xlink:href="#DejaVuSans-47" x="2350.890625"/>
     <use xlink:href="#DejaVuSans-50" x="2428.380859"/>
     <use xlink:href="#DejaVuSans-55" x="2488.683594"/>
     <use xlink:href="#DejaVuSans-29" x="2561.876953"/>
    </g>
   </g>
   <g id="legend_1">
    <g id="patch_7">
     <path d="M 68.18 131.835625 
L 258.997344 131.835625 
Q 261.197344 131.835625 261.197344 129.635625 
L 261.197344 33.86 
Q 261.197344 31.66 258.997344 31.66 
L 68.18 31.66 
Q 65.98 31.66 65.98 33.86 
L 65.98 129.635625 
Q 65.98 131.835625 68.18 131.835625 
z
" style="fill: #ffffff; opacity: 0.8; stroke: #cccccc; stroke-linejoin: miter"/>
    </g>
    <g id="line2d_12">
     <defs>
      <path id="me563342dd0" d="M 0 -2.5 
L -2.377641 -0.772542 
L -1.469463 2.022542 
L 1.469463 2.022542 
L 2.377641 -0.772542 
z
"/>
     </defs>
     <g>
      <use xlink:href="#me563342dd0" x="81.38" y="40.568281" style="fill: #8c613c"/>
     </g>
    </g>
    <g id="text_13">
     <!-- google/gke/gpu -->
     <g style="fill: #262626" transform="translate(101.18 44.418281) scale(0.11 -0.11)">
      <defs>
       <path id="DejaVuSans-67" d="M 2906 1791 
Q 2906 2416 2648 2759 
Q 2391 3103 1925 3103 
Q 1463 3103 1205 2759 
Q 947 2416 947 1791 
Q 947 1169 1205 825 
Q 1463 481 1925 481 
Q 2391 481 2648 825 
Q 2906 1169 2906 1791 
z
M 3481 434 
Q 3481 -459 3084 -895 
Q 2688 -1331 1869 -1331 
Q 1566 -1331 1297 -1286 
Q 1028 -1241 775 -1147 
L 775 -588 
Q 1028 -725 1275 -790 
Q 1522 -856 1778 -856 
Q 2344 -856 2625 -561 
Q 2906 -266 2906 331 
L 2906 616 
Q 2728 306 2450 153 
Q 2172 0 1784 0 
Q 1141 0 747 490 
Q 353 981 353 1791 
Q 353 2603 747 3093 
Q 1141 3584 1784 3584 
Q 2172 3584 2450 3431 
Q 2728 3278 2906 2969 
L 2906 3500 
L 3481 3500 
L 3481 434 
z
" transform="scale(0.015625)"/>
       <path id="DejaVuSans-6b" d="M 581 4863 
L 1159 4863 
L 1159 1991 
L 2875 3500 
L 3609 3500 
L 1753 1863 
L 3688 0 
L 2938 0 
L 1159 1709 
L 1159 0 
L 581 0 
L 581 4863 
z
" transform="scale(0.015625)"/>
      </defs>
      <use xlink:href="#DejaVuSans-67"/>
      <use xlink:href="#DejaVuSans-6f" x="63.476562"/>
      <use xlink:href="#DejaVuSans-6f" x="124.658203"/>
      <use xlink:href="#DejaVuSans-67" x="185.839844"/>
      <use xlink:href="#DejaVuSans-6c" x="249.316406"/>
      <use xlink:href="#DejaVuSans-65" x="277.099609"/>
      <use xlink:href="#DejaVuSans-2f" x="338.623047"/>
      <use xlink:href="#DejaVuSans-67" x="372.314453"/>
      <use xlink:href="#DejaVuSans-6b" x="435.791016"/>
      <use xlink:href="#DejaVuSans-65" x="490.076172"/>
      <use xlink:href="#DejaVuSans-2f" x="551.599609"/>
      <use xlink:href="#DejaVuSans-67" x="585.291016"/>
      <use xlink:href="#DejaVuSans-70" x="648.767578"/>
      <use xlink:href="#DejaVuSans-75" x="712.244141"/>
     </g>
    </g>
    <g id="line2d_13">
     <defs>
      <path id="mdfe2e95f1f" d="M -2.5 2.5 
L 2.5 2.5 
L 2.5 -2.5 
L -2.5 -2.5 
z
"/>
     </defs>
     <g>
      <use xlink:href="#mdfe2e95f1f" x="81.38" y="56.714219" style="fill: #6c3baa"/>
     </g>
    </g>
    <g id="text_14">
     <!-- google/compute-engine/gpu -->
     <g style="fill: #262626" transform="translate(101.18 60.564219) scale(0.11 -0.11)">
      <defs>
       <path id="DejaVuSans-2d" d="M 313 2009 
L 1997 2009 
L 1997 1497 
L 313 1497 
L 313 2009 
z
" transform="scale(0.015625)"/>
      </defs>
      <use xlink:href="#DejaVuSans-67"/>
      <use xlink:href="#DejaVuSans-6f" x="63.476562"/>
      <use xlink:href="#DejaVuSans-6f" x="124.658203"/>
      <use xlink:href="#DejaVuSans-67" x="185.839844"/>
      <use xlink:href="#DejaVuSans-6c" x="249.316406"/>
      <use xlink:href="#DejaVuSans-65" x="277.099609"/>
      <use xlink:href="#DejaVuSans-2f" x="338.623047"/>
      <use xlink:href="#DejaVuSans-63" x="372.314453"/>
      <use xlink:href="#DejaVuSans-6f" x="427.294922"/>
      <use xlink:href="#DejaVuSans-6d" x="488.476562"/>
      <use xlink:href="#DejaVuSans-70" x="585.888672"/>
      <use xlink:href="#DejaVuSans-75" x="649.365234"/>
      <use xlink:href="#DejaVuSans-74" x="712.744141"/>
      <use xlink:href="#DejaVuSans-65" x="751.953125"/>
      <use xlink:href="#DejaVuSans-2d" x="813.476562"/>
      <use xlink:href="#DejaVuSans-65" x="849.560547"/>
      <use xlink:href="#DejaVuSans-6e" x="911.083984"/>
      <use xlink:href="#DejaVuSans-67" x="974.462891"/>
      <use xlink:href="#DejaVuSans-69" x="1037.939453"/>
      <use xlink:href="#DejaVuSans-6e" x="1065.722656"/>
      <use xlink:href="#DejaVuSans-65" x="1129.101562"/>
      <use xlink:href="#DejaVuSans-2f" x="1190.625"/>
      <use xlink:href="#DejaVuSans-67" x="1224.316406"/>
      <use xlink:href="#DejaVuSans-70" x="1287.792969"/>
      <use xlink:href="#DejaVuSans-75" x="1351.269531"/>
     </g>
    </g>
    <g id="line2d_14">
     <defs>
      <path id="m74ed29132b" d="M -0.833333 2.5 
L 0.833333 2.5 
L 0.833333 0.833333 
L 2.5 0.833333 
L 2.5 -0.833333 
L 0.833333 -0.833333 
L 0.833333 -2.5 
L -0.833333 -2.5 
L -0.833333 -0.833333 
L -2.5 -0.833333 
L -2.5 0.833333 
L -0.833333 0.833333 
z
"/>
     </defs>
     <g>
      <use xlink:href="#m74ed29132b" x="81.38" y="72.860156" style="fill: #797979"/>
     </g>
    </g>
    <g id="text_15">
     <!-- on-premises/lassen/gpu -->
     <g style="fill: #262626" transform="translate(101.18 76.710156) scale(0.11 -0.11)">
      <defs>
       <path id="DejaVuSans-61" d="M 2194 1759 
Q 1497 1759 1228 1600 
Q 959 1441 959 1056 
Q 959 750 1161 570 
Q 1363 391 1709 391 
Q 2188 391 2477 730 
Q 2766 1069 2766 1631 
L 2766 1759 
L 2194 1759 
z
M 3341 1997 
L 3341 0 
L 2766 0 
L 2766 531 
Q 2569 213 2275 61 
Q 1981 -91 1556 -91 
Q 1019 -91 701 211 
Q 384 513 384 1019 
Q 384 1609 779 1909 
Q 1175 2209 1959 2209 
L 2766 2209 
L 2766 2266 
Q 2766 2663 2505 2880 
Q 2244 3097 1772 3097 
Q 1472 3097 1187 3025 
Q 903 2953 641 2809 
L 641 3341 
Q 956 3463 1253 3523 
Q 1550 3584 1831 3584 
Q 2591 3584 2966 3190 
Q 3341 2797 3341 1997 
z
" transform="scale(0.015625)"/>
      </defs>
      <use xlink:href="#DejaVuSans-6f"/>
      <use xlink:href="#DejaVuSans-6e" x="61.181641"/>
      <use xlink:href="#DejaVuSans-2d" x="124.560547"/>
      <use xlink:href="#DejaVuSans-70" x="160.644531"/>
      <use xlink:href="#DejaVuSans-72" x="224.121094"/>
      <use xlink:href="#DejaVuSans-65" x="262.984375"/>
      <use xlink:href="#DejaVuSans-6d" x="324.507812"/>
      <use xlink:href="#DejaVuSans-69" x="421.919922"/>
      <use xlink:href="#DejaVuSans-73" x="449.703125"/>
      <use xlink:href="#DejaVuSans-65" x="501.802734"/>
      <use xlink:href="#DejaVuSans-73" x="563.326172"/>
      <use xlink:href="#DejaVuSans-2f" x="615.425781"/>
      <use xlink:href="#DejaVuSans-6c" x="649.117188"/>
      <use xlink:href="#DejaVuSans-61" x="676.900391"/>
      <use xlink:href="#DejaVuSans-73" x="738.179688"/>
      <use xlink:href="#DejaVuSans-73" x="790.279297"/>
      <use xlink:href="#DejaVuSans-65" x="842.378906"/>
      <use xlink:href="#DejaVuSans-6e" x="903.902344"/>
      <use xlink:href="#DejaVuSans-2f" x="967.28125"/>
      <use xlink:href="#DejaVuSans-67" x="1000.972656"/>
      <use xlink:href="#DejaVuSans-70" x="1064.449219"/>
      <use xlink:href="#DejaVuSans-75" x="1127.925781"/>
     </g>
    </g>
    <g id="line2d_15">
     <defs>
      <path id="mef8a41904b" d="M 0 2.5 
C 0.663008 2.5 1.29895 2.236584 1.767767 1.767767 
C 2.236584 1.29895 2.5 0.663008 2.5 0 
C 2.5 -0.663008 2.236584 -1.29895 1.767767 -1.767767 
C 1.29895 -2.236584 0.663008 -2.5 0 -2.5 
C -0.663008 -2.5 -1.29895 -2.236584 -1.767767 -1.767767 
C -2.236584 -1.29895 -2.5 -0.663008 -2.5 0 
C -2.5 0.663008 -2.236584 1.29895 -1.767767 1.767767 
C -1.29895 2.236584 -0.663008 2.5 0 2.5 
z
"/>
     </defs>
     <g>
      <use xlink:href="#mef8a41904b" x="81.38" y="89.006094" style="fill: #4878d0"/>
     </g>
    </g>
    <g id="text_16">
     <!-- aws/eks/gpu -->
     <g style="fill: #262626" transform="translate(101.18 92.856094) scale(0.11 -0.11)">
      <defs>
       <path id="DejaVuSans-77" d="M 269 3500 
L 844 3500 
L 1563 769 
L 2278 3500 
L 2956 3500 
L 3675 769 
L 4391 3500 
L 4966 3500 
L 4050 0 
L 3372 0 
L 2619 2869 
L 1863 0 
L 1184 0 
L 269 3500 
z
" transform="scale(0.015625)"/>
      </defs>
      <use xlink:href="#DejaVuSans-61"/>
      <use xlink:href="#DejaVuSans-77" x="61.279297"/>
      <use xlink:href="#DejaVuSans-73" x="143.066406"/>
      <use xlink:href="#DejaVuSans-2f" x="195.166016"/>
      <use xlink:href="#DejaVuSans-65" x="228.857422"/>
      <use xlink:href="#DejaVuSans-6b" x="290.380859"/>
      <use xlink:href="#DejaVuSans-73" x="348.291016"/>
      <use xlink:href="#DejaVuSans-2f" x="400.390625"/>
      <use xlink:href="#DejaVuSans-67" x="434.082031"/>
      <use xlink:href="#DejaVuSans-70" x="497.558594"/>
      <use xlink:href="#DejaVuSans-75" x="561.035156"/>
     </g>
    </g>
    <g id="line2d_16">
     <defs>
      <path id="m0a922a3839" d="M -2.5 -0 
L 2.5 2.5 
L 2.5 -2.5 
z
"/>
     </defs>
     <g>
      <use xlink:href="#m0a922a3839" x="81.38" y="105.152031" style="fill: #d65f5f"/>
     </g>
    </g>
    <g id="text_17">
     <!-- azure/cyclecloud/gpu -->
     <g style="fill: #262626" transform="translate(101.18 109.002031) scale(0.11 -0.11)">
      <defs>
       <path id="DejaVuSans-7a" d="M 353 3500 
L 3084 3500 
L 3084 2975 
L 922 459 
L 3084 459 
L 3084 0 
L 275 0 
L 275 525 
L 2438 3041 
L 353 3041 
L 353 3500 
z
" transform="scale(0.015625)"/>
       <path id="DejaVuSans-79" d="M 2059 -325 
Q 1816 -950 1584 -1140 
Q 1353 -1331 966 -1331 
L 506 -1331 
L 506 -850 
L 844 -850 
Q 1081 -850 1212 -737 
Q 1344 -625 1503 -206 
L 1606 56 
L 191 3500 
L 800 3500 
L 1894 763 
L 2988 3500 
L 3597 3500 
L 2059 -325 
z
" transform="scale(0.015625)"/>
      </defs>
      <use xlink:href="#DejaVuSans-61"/>
      <use xlink:href="#DejaVuSans-7a" x="61.279297"/>
      <use xlink:href="#DejaVuSans-75" x="113.769531"/>
      <use xlink:href="#DejaVuSans-72" x="177.148438"/>
      <use xlink:href="#DejaVuSans-65" x="216.011719"/>
      <use xlink:href="#DejaVuSans-2f" x="277.535156"/>
      <use xlink:href="#DejaVuSans-63" x="311.226562"/>
      <use xlink:href="#DejaVuSans-79" x="366.207031"/>
      <use xlink:href="#DejaVuSans-63" x="425.386719"/>
      <use xlink:href="#DejaVuSans-6c" x="480.367188"/>
      <use xlink:href="#DejaVuSans-65" x="508.150391"/>
      <use xlink:href="#DejaVuSans-63" x="569.673828"/>
      <use xlink:href="#DejaVuSans-6c" x="624.654297"/>
      <use xlink:href="#DejaVuSans-6f" x="652.4375"/>
      <use xlink:href="#DejaVuSans-75" x="713.619141"/>
      <use xlink:href="#DejaVuSans-64" x="776.998047"/>
      <use xlink:href="#DejaVuSans-2f" x="840.474609"/>
      <use xlink:href="#DejaVuSans-67" x="874.166016"/>
      <use xlink:href="#DejaVuSans-70" x="937.642578"/>
      <use xlink:href="#DejaVuSans-75" x="1001.119141"/>
     </g>
    </g>
    <g id="line2d_17">
     <defs>
      <path id="m76625a81f1" d="M -0 3.535534 
L 2.12132 0 
L -0 -3.535534 
L -2.12132 -0 
z
"/>
     </defs>
     <g>
      <use xlink:href="#m76625a81f1" x="81.38" y="121.297969" style="fill: #008000"/>
     </g>
    </g>
    <g id="text_18">
     <!-- azure/aks/gpu -->
     <g style="fill: #262626" transform="translate(101.18 125.147969) scale(0.11 -0.11)">
      <use xlink:href="#DejaVuSans-61"/>
      <use xlink:href="#DejaVuSans-7a" x="61.279297"/>
      <use xlink:href="#DejaVuSans-75" x="113.769531"/>
      <use xlink:href="#DejaVuSans-72" x="177.148438"/>
      <use xlink:href="#DejaVuSans-65" x="216.011719"/>
      <use xlink:href="#DejaVuSans-2f" x="277.535156"/>
      <use xlink:href="#DejaVuSans-61" x="311.226562"/>
      <use xlink:href="#DejaVuSans-6b" x="372.505859"/>
      <use xlink:href="#DejaVuSans-73" x="430.416016"/>
      <use xlink:href="#DejaVuSans-2f" x="482.515625"/>
      <use xlink:href="#DejaVuSans-67" x="516.207031"/>
      <use xlink:href="#DejaVuSans-70" x="579.683594"/>
      <use xlink:href="#DejaVuSans-75" x="643.160156"/>
     </g>
    </g>
   </g>
  </g>
 </g>
 <defs>
  <clipPath id="pd9bc0a9d1a">
   <rect x="60.48" y="26.16" width="250.56" height="355.62"/>
  </clipPath>
 </defs>
</svg>
