<?xml version="1.0" encoding="utf-8" standalone="no"?>
<!DOCTYPE svg PUBLIC "-//W3C//DTD SVG 1.1//EN"
  "http://www.w3.org/Graphics/SVG/1.1/DTD/svg11.dtd">
<svg xmlns:xlink="http://www.w3.org/1999/xlink" width="324pt" height="432pt" viewBox="0 0 324 432" xmlns="http://www.w3.org/2000/svg" version="1.1">
 <metadata>
  <rdf:RDF xmlns:dc="http://purl.org/dc/elements/1.1/" xmlns:cc="http://creativecommons.org/ns#" xmlns:rdf="http://www.w3.org/1999/02/22-rdf-syntax-ns#">
   <cc:Work>
    <dc:type rdf:resource="http://purl.org/dc/dcmitype/StillImage"/>
    <dc:date>2025-02-04T12:01:38.123904</dc:date>
    <dc:format>image/svg+xml</dc:format>
    <dc:creator>
     <cc:Agent>
      <dc:title>Matplotlib v3.8.4, https://matplotlib.org/</dc:title>
     </cc:Agent>
    </dc:creator>
   </cc:Work>
  </rdf:RDF>
 </metadata>
 <defs>
  <style type="text/css">*{stroke-linejoin: round; stroke-linecap: butt}</style>
 </defs>
 <g id="figure_1">
  <g id="patch_1">
   <path d="M 0 432 
L 324 432 
L 324 0 
L 0 0 
z
" style="fill: #ffffff"/>
  </g>
  <g id="axes_1">
   <g id="patch_2">
    <path d="M 46.44 381.78 
L 311.04 381.78 
L 311.04 26.16 
L 46.44 26.16 
z
" style="fill: #ffffff"/>
   </g>
   <g id="matplotlib.axis_1">
    <g id="xtick_1">
     <g id="text_1">
      <!-- 32 -->
      <g style="fill: #262626" transform="translate(72.51625 399.638281) scale(0.11 -0.11)">
       <defs>
        <path id="DejaVuSans-33" d="M 2597 2516 
Q 3050 2419 3304 2112 
Q 3559 1806 3559 1356 
Q 3559 666 3084 287 
Q 2609 -91 1734 -91 
Q 1441 -91 1130 -33 
Q 819 25 488 141 
L 488 750 
Q 750 597 1062 519 
Q 1375 441 1716 441 
Q 2309 441 2620 675 
Q 2931 909 2931 1356 
Q 2931 1769 2642 2001 
Q 2353 2234 1838 2234 
L 1294 2234 
L 1294 2753 
L 1863 2753 
Q 2328 2753 2575 2939 
Q 2822 3125 2822 3475 
Q 2822 3834 2567 4026 
Q 2313 4219 1838 4219 
Q 1578 4219 1281 4162 
Q 984 4106 628 3988 
L 628 4550 
Q 988 4650 1302 4700 
Q 1616 4750 1894 4750 
Q 2613 4750 3031 4423 
Q 3450 4097 3450 3541 
Q 3450 3153 3228 2886 
Q 3006 2619 2597 2516 
z
" transform="scale(0.015625)"/>
        <path id="DejaVuSans-32" d="M 1228 531 
L 3431 531 
L 3431 0 
L 469 0 
L 469 531 
Q 828 903 1448 1529 
Q 2069 2156 2228 2338 
Q 2531 2678 2651 2914 
Q 2772 3150 2772 3378 
Q 2772 3750 2511 3984 
Q 2250 4219 1831 4219 
Q 1534 4219 1204 4116 
Q 875 4013 500 3803 
L 500 4441 
Q 881 4594 1212 4672 
Q 1544 4750 1819 4750 
Q 2544 4750 2975 4387 
Q 3406 4025 3406 3419 
Q 3406 3131 3298 2873 
Q 3191 2616 2906 2266 
Q 2828 2175 2409 1742 
Q 1991 1309 1228 531 
z
" transform="scale(0.015625)"/>
       </defs>
       <use xlink:href="#DejaVuSans-33"/>
       <use xlink:href="#DejaVuSans-32" x="63.623047"/>
      </g>
     </g>
    </g>
    <g id="xtick_2">
     <g id="text_2">
      <!-- 64 -->
      <g style="fill: #262626" transform="translate(138.66625 399.638281) scale(0.11 -0.11)">
       <defs>
        <path id="DejaVuSans-36" d="M 2113 2584 
Q 1688 2584 1439 2293 
Q 1191 2003 1191 1497 
Q 1191 994 1439 701 
Q 1688 409 2113 409 
Q 2538 409 2786 701 
Q 3034 994 3034 1497 
Q 3034 2003 2786 2293 
Q 2538 2584 2113 2584 
z
M 3366 4563 
L 3366 3988 
Q 3128 4100 2886 4159 
Q 2644 4219 2406 4219 
Q 1781 4219 1451 3797 
Q 1122 3375 1075 2522 
Q 1259 2794 1537 2939 
Q 1816 3084 2150 3084 
Q 2853 3084 3261 2657 
Q 3669 2231 3669 1497 
Q 3669 778 3244 343 
Q 2819 -91 2113 -91 
Q 1303 -91 875 529 
Q 447 1150 447 2328 
Q 447 3434 972 4092 
Q 1497 4750 2381 4750 
Q 2619 4750 2861 4703 
Q 3103 4656 3366 4563 
z
" transform="scale(0.015625)"/>
        <path id="DejaVuSans-34" d="M 2419 4116 
L 825 1625 
L 2419 1625 
L 2419 4116 
z
M 2253 4666 
L 3047 4666 
L 3047 1625 
L 3713 1625 
L 3713 1100 
L 3047 1100 
L 3047 0 
L 2419 0 
L 2419 1100 
L 313 1100 
L 313 1709 
L 2253 4666 
z
" transform="scale(0.015625)"/>
       </defs>
       <use xlink:href="#DejaVuSans-36"/>
       <use xlink:href="#DejaVuSans-34" x="63.623047"/>
      </g>
     </g>
    </g>
    <g id="xtick_3">
     <g id="text_3">
      <!-- 128 -->
      <g style="fill: #262626" transform="translate(201.316875 399.638281) scale(0.11 -0.11)">
       <defs>
        <path id="DejaVuSans-31" d="M 794 531 
L 1825 531 
L 1825 4091 
L 703 3866 
L 703 4441 
L 1819 4666 
L 2450 4666 
L 2450 531 
L 3481 531 
L 3481 0 
L 794 0 
L 794 531 
z
" transform="scale(0.015625)"/>
        <path id="DejaVuSans-38" d="M 2034 2216 
Q 1584 2216 1326 1975 
Q 1069 1734 1069 1313 
Q 1069 891 1326 650 
Q 1584 409 2034 409 
Q 2484 409 2743 651 
Q 3003 894 3003 1313 
Q 3003 1734 2745 1975 
Q 2488 2216 2034 2216 
z
M 1403 2484 
Q 997 2584 770 2862 
Q 544 3141 544 3541 
Q 544 4100 942 4425 
Q 1341 4750 2034 4750 
Q 2731 4750 3128 4425 
Q 3525 4100 3525 3541 
Q 3525 3141 3298 2862 
Q 3072 2584 2669 2484 
Q 3125 2378 3379 2068 
Q 3634 1759 3634 1313 
Q 3634 634 3220 271 
Q 2806 -91 2034 -91 
Q 1263 -91 848 271 
Q 434 634 434 1313 
Q 434 1759 690 2068 
Q 947 2378 1403 2484 
z
M 1172 3481 
Q 1172 3119 1398 2916 
Q 1625 2713 2034 2713 
Q 2441 2713 2670 2916 
Q 2900 3119 2900 3481 
Q 2900 3844 2670 4047 
Q 2441 4250 2034 4250 
Q 1625 4250 1398 4047 
Q 1172 3844 1172 3481 
z
" transform="scale(0.015625)"/>
       </defs>
       <use xlink:href="#DejaVuSans-31"/>
       <use xlink:href="#DejaVuSans-32" x="63.623047"/>
       <use xlink:href="#DejaVuSans-38" x="127.246094"/>
      </g>
     </g>
    </g>
    <g id="xtick_4">
     <g id="text_4">
      <!-- 256 -->
      <g style="fill: #262626" transform="translate(267.466875 399.638281) scale(0.11 -0.11)">
       <defs>
        <path id="DejaVuSans-35" d="M 691 4666 
L 3169 4666 
L 3169 4134 
L 1269 4134 
L 1269 2991 
Q 1406 3038 1543 3061 
Q 1681 3084 1819 3084 
Q 2600 3084 3056 2656 
Q 3513 2228 3513 1497 
Q 3513 744 3044 326 
Q 2575 -91 1722 -91 
Q 1428 -91 1123 -41 
Q 819 9 494 109 
L 494 744 
Q 775 591 1075 516 
Q 1375 441 1709 441 
Q 2250 441 2565 725 
Q 2881 1009 2881 1497 
Q 2881 1984 2565 2268 
Q 2250 2553 1709 2553 
Q 1456 2553 1204 2497 
Q 953 2441 691 2322 
L 691 4666 
z
" transform="scale(0.015625)"/>
       </defs>
       <use xlink:href="#DejaVuSans-32"/>
       <use xlink:href="#DejaVuSans-35" x="63.623047"/>
       <use xlink:href="#DejaVuSans-36" x="127.246094"/>
      </g>
     </g>
    </g>
    <g id="text_5">
     <!-- GPU Count -->
     <g style="fill: #262626" transform="translate(143.658281 415.803906) scale(0.13 -0.13)">
      <defs>
       <path id="DejaVuSans-47" d="M 3809 666 
L 3809 1919 
L 2778 1919 
L 2778 2438 
L 4434 2438 
L 4434 434 
Q 4069 175 3628 42 
Q 3188 -91 2688 -91 
Q 1594 -91 976 548 
Q 359 1188 359 2328 
Q 359 3472 976 4111 
Q 1594 4750 2688 4750 
Q 3144 4750 3555 4637 
Q 3966 4525 4313 4306 
L 4313 3634 
Q 3963 3931 3569 4081 
Q 3175 4231 2741 4231 
Q 1884 4231 1454 3753 
Q 1025 3275 1025 2328 
Q 1025 1384 1454 906 
Q 1884 428 2741 428 
Q 3075 428 3337 486 
Q 3600 544 3809 666 
z
" transform="scale(0.015625)"/>
       <path id="DejaVuSans-50" d="M 1259 4147 
L 1259 2394 
L 2053 2394 
Q 2494 2394 2734 2622 
Q 2975 2850 2975 3272 
Q 2975 3691 2734 3919 
Q 2494 4147 2053 4147 
L 1259 4147 
z
M 628 4666 
L 2053 4666 
Q 2838 4666 3239 4311 
Q 3641 3956 3641 3272 
Q 3641 2581 3239 2228 
Q 2838 1875 2053 1875 
L 1259 1875 
L 1259 0 
L 628 0 
L 628 4666 
z
" transform="scale(0.015625)"/>
       <path id="DejaVuSans-55" d="M 556 4666 
L 1191 4666 
L 1191 1831 
Q 1191 1081 1462 751 
Q 1734 422 2344 422 
Q 2950 422 3222 751 
Q 3494 1081 3494 1831 
L 3494 4666 
L 4128 4666 
L 4128 1753 
Q 4128 841 3676 375 
Q 3225 -91 2344 -91 
Q 1459 -91 1007 375 
Q 556 841 556 1753 
L 556 4666 
z
" transform="scale(0.015625)"/>
       <path id="DejaVuSans-20" transform="scale(0.015625)"/>
       <path id="DejaVuSans-43" d="M 4122 4306 
L 4122 3641 
Q 3803 3938 3442 4084 
Q 3081 4231 2675 4231 
Q 1875 4231 1450 3742 
Q 1025 3253 1025 2328 
Q 1025 1406 1450 917 
Q 1875 428 2675 428 
Q 3081 428 3442 575 
Q 3803 722 4122 1019 
L 4122 359 
Q 3791 134 3420 21 
Q 3050 -91 2638 -91 
Q 1578 -91 968 557 
Q 359 1206 359 2328 
Q 359 3453 968 4101 
Q 1578 4750 2638 4750 
Q 3056 4750 3426 4639 
Q 3797 4528 4122 4306 
z
" transform="scale(0.015625)"/>
       <path id="DejaVuSans-6f" d="M 1959 3097 
Q 1497 3097 1228 2736 
Q 959 2375 959 1747 
Q 959 1119 1226 758 
Q 1494 397 1959 397 
Q 2419 397 2687 759 
Q 2956 1122 2956 1747 
Q 2956 2369 2687 2733 
Q 2419 3097 1959 3097 
z
M 1959 3584 
Q 2709 3584 3137 3096 
Q 3566 2609 3566 1747 
Q 3566 888 3137 398 
Q 2709 -91 1959 -91 
Q 1206 -91 779 398 
Q 353 888 353 1747 
Q 353 2609 779 3096 
Q 1206 3584 1959 3584 
z
" transform="scale(0.015625)"/>
       <path id="DejaVuSans-75" d="M 544 1381 
L 544 3500 
L 1119 3500 
L 1119 1403 
Q 1119 906 1312 657 
Q 1506 409 1894 409 
Q 2359 409 2629 706 
Q 2900 1003 2900 1516 
L 2900 3500 
L 3475 3500 
L 3475 0 
L 2900 0 
L 2900 538 
Q 2691 219 2414 64 
Q 2138 -91 1772 -91 
Q 1169 -91 856 284 
Q 544 659 544 1381 
z
M 1991 3584 
L 1991 3584 
z
" transform="scale(0.015625)"/>
       <path id="DejaVuSans-6e" d="M 3513 2113 
L 3513 0 
L 2938 0 
L 2938 2094 
Q 2938 2591 2744 2837 
Q 2550 3084 2163 3084 
Q 1697 3084 1428 2787 
Q 1159 2491 1159 1978 
L 1159 0 
L 581 0 
L 581 3500 
L 1159 3500 
L 1159 2956 
Q 1366 3272 1645 3428 
Q 1925 3584 2291 3584 
Q 2894 3584 3203 3211 
Q 3513 2838 3513 2113 
z
" transform="scale(0.015625)"/>
       <path id="DejaVuSans-74" d="M 1172 4494 
L 1172 3500 
L 2356 3500 
L 2356 3053 
L 1172 3053 
L 1172 1153 
Q 1172 725 1289 603 
Q 1406 481 1766 481 
L 2356 481 
L 2356 0 
L 1766 0 
Q 1100 0 847 248 
Q 594 497 594 1153 
L 594 3053 
L 172 3053 
L 172 3500 
L 594 3500 
L 594 4494 
L 1172 4494 
z
" transform="scale(0.015625)"/>
      </defs>
      <use xlink:href="#DejaVuSans-47"/>
      <use xlink:href="#DejaVuSans-50" x="77.490234"/>
      <use xlink:href="#DejaVuSans-55" x="137.792969"/>
      <use xlink:href="#DejaVuSans-20" x="210.986328"/>
      <use xlink:href="#DejaVuSans-43" x="242.773438"/>
      <use xlink:href="#DejaVuSans-6f" x="312.597656"/>
      <use xlink:href="#DejaVuSans-75" x="373.779297"/>
      <use xlink:href="#DejaVuSans-6e" x="437.158203"/>
      <use xlink:href="#DejaVuSans-74" x="500.537109"/>
     </g>
    </g>
   </g>
   <g id="matplotlib.axis_2">
    <g id="ytick_1">
     <g id="line2d_1">
      <path d="M 46.44 360.999655 
L 311.04 360.999655 
" clip-path="url(#p7675101473)" style="fill: none; stroke: #cccccc; stroke-linecap: round"/>
     </g>
     <g id="text_6">
      <!-- 1 -->
      <g style="fill: #262626" transform="translate(29.94125 365.178796) scale(0.11 -0.11)">
       <use xlink:href="#DejaVuSans-31"/>
      </g>
     </g>
    </g>
    <g id="ytick_2">
     <g id="line2d_2">
      <path d="M 46.44 282.306285 
L 311.04 282.306285 
" clip-path="url(#p7675101473)" style="fill: none; stroke: #cccccc; stroke-linecap: round"/>
     </g>
     <g id="text_7">
      <!-- 2 -->
      <g style="fill: #262626" transform="translate(29.94125 286.485425) scale(0.11 -0.11)">
       <use xlink:href="#DejaVuSans-32"/>
      </g>
     </g>
    </g>
    <g id="ytick_3">
     <g id="line2d_3">
      <path d="M 46.44 203.612914 
L 311.04 203.612914 
" clip-path="url(#p7675101473)" style="fill: none; stroke: #cccccc; stroke-linecap: round"/>
     </g>
     <g id="text_8">
      <!-- 3 -->
      <g style="fill: #262626" transform="translate(29.94125 207.792055) scale(0.11 -0.11)">
       <use xlink:href="#DejaVuSans-33"/>
      </g>
     </g>
    </g>
    <g id="ytick_4">
     <g id="line2d_4">
      <path d="M 46.44 124.919543 
L 311.04 124.919543 
" clip-path="url(#p7675101473)" style="fill: none; stroke: #cccccc; stroke-linecap: round"/>
     </g>
     <g id="text_9">
      <!-- 4 -->
      <g style="fill: #262626" transform="translate(29.94125 129.098684) scale(0.11 -0.11)">
       <use xlink:href="#DejaVuSans-34"/>
      </g>
     </g>
    </g>
    <g id="ytick_5">
     <g id="line2d_5">
      <path d="M 46.44 46.226173 
L 311.04 46.226173 
" clip-path="url(#p7675101473)" style="fill: none; stroke: #cccccc; stroke-linecap: round"/>
     </g>
     <g id="text_10">
      <!-- 5 -->
      <g style="fill: #262626" transform="translate(29.94125 50.405313) scale(0.11 -0.11)">
       <use xlink:href="#DejaVuSans-35"/>
      </g>
     </g>
    </g>
    <g id="text_11">
     <!-- Millions of Atom Steps per Second (Speedup) -->
     <g style="fill: #262626" transform="translate(23.237656 350.737969) rotate(-90) scale(0.13 -0.13)">
      <defs>
       <path id="DejaVuSans-4d" d="M 628 4666 
L 1569 4666 
L 2759 1491 
L 3956 4666 
L 4897 4666 
L 4897 0 
L 4281 0 
L 4281 4097 
L 3078 897 
L 2444 897 
L 1241 4097 
L 1241 0 
L 628 0 
L 628 4666 
z
" transform="scale(0.015625)"/>
       <path id="DejaVuSans-69" d="M 603 3500 
L 1178 3500 
L 1178 0 
L 603 0 
L 603 3500 
z
M 603 4863 
L 1178 4863 
L 1178 4134 
L 603 4134 
L 603 4863 
z
" transform="scale(0.015625)"/>
       <path id="DejaVuSans-6c" d="M 603 4863 
L 1178 4863 
L 1178 0 
L 603 0 
L 603 4863 
z
" transform="scale(0.015625)"/>
       <path id="DejaVuSans-73" d="M 2834 3397 
L 2834 2853 
Q 2591 2978 2328 3040 
Q 2066 3103 1784 3103 
Q 1356 3103 1142 2972 
Q 928 2841 928 2578 
Q 928 2378 1081 2264 
Q 1234 2150 1697 2047 
L 1894 2003 
Q 2506 1872 2764 1633 
Q 3022 1394 3022 966 
Q 3022 478 2636 193 
Q 2250 -91 1575 -91 
Q 1294 -91 989 -36 
Q 684 19 347 128 
L 347 722 
Q 666 556 975 473 
Q 1284 391 1588 391 
Q 1994 391 2212 530 
Q 2431 669 2431 922 
Q 2431 1156 2273 1281 
Q 2116 1406 1581 1522 
L 1381 1569 
Q 847 1681 609 1914 
Q 372 2147 372 2553 
Q 372 3047 722 3315 
Q 1072 3584 1716 3584 
Q 2034 3584 2315 3537 
Q 2597 3491 2834 3397 
z
" transform="scale(0.015625)"/>
       <path id="DejaVuSans-66" d="M 2375 4863 
L 2375 4384 
L 1825 4384 
Q 1516 4384 1395 4259 
Q 1275 4134 1275 3809 
L 1275 3500 
L 2222 3500 
L 2222 3053 
L 1275 3053 
L 1275 0 
L 697 0 
L 697 3053 
L 147 3053 
L 147 3500 
L 697 3500 
L 697 3744 
Q 697 4328 969 4595 
Q 1241 4863 1831 4863 
L 2375 4863 
z
" transform="scale(0.015625)"/>
       <path id="DejaVuSans-41" d="M 2188 4044 
L 1331 1722 
L 3047 1722 
L 2188 4044 
z
M 1831 4666 
L 2547 4666 
L 4325 0 
L 3669 0 
L 3244 1197 
L 1141 1197 
L 716 0 
L 50 0 
L 1831 4666 
z
" transform="scale(0.015625)"/>
       <path id="DejaVuSans-6d" d="M 3328 2828 
Q 3544 3216 3844 3400 
Q 4144 3584 4550 3584 
Q 5097 3584 5394 3201 
Q 5691 2819 5691 2113 
L 5691 0 
L 5113 0 
L 5113 2094 
Q 5113 2597 4934 2840 
Q 4756 3084 4391 3084 
Q 3944 3084 3684 2787 
Q 3425 2491 3425 1978 
L 3425 0 
L 2847 0 
L 2847 2094 
Q 2847 2600 2669 2842 
Q 2491 3084 2119 3084 
Q 1678 3084 1418 2786 
Q 1159 2488 1159 1978 
L 1159 0 
L 581 0 
L 581 3500 
L 1159 3500 
L 1159 2956 
Q 1356 3278 1631 3431 
Q 1906 3584 2284 3584 
Q 2666 3584 2933 3390 
Q 3200 3197 3328 2828 
z
" transform="scale(0.015625)"/>
       <path id="DejaVuSans-53" d="M 3425 4513 
L 3425 3897 
Q 3066 4069 2747 4153 
Q 2428 4238 2131 4238 
Q 1616 4238 1336 4038 
Q 1056 3838 1056 3469 
Q 1056 3159 1242 3001 
Q 1428 2844 1947 2747 
L 2328 2669 
Q 3034 2534 3370 2195 
Q 3706 1856 3706 1288 
Q 3706 609 3251 259 
Q 2797 -91 1919 -91 
Q 1588 -91 1214 -16 
Q 841 59 441 206 
L 441 856 
Q 825 641 1194 531 
Q 1563 422 1919 422 
Q 2459 422 2753 634 
Q 3047 847 3047 1241 
Q 3047 1584 2836 1778 
Q 2625 1972 2144 2069 
L 1759 2144 
Q 1053 2284 737 2584 
Q 422 2884 422 3419 
Q 422 4038 858 4394 
Q 1294 4750 2059 4750 
Q 2388 4750 2728 4690 
Q 3069 4631 3425 4513 
z
" transform="scale(0.015625)"/>
       <path id="DejaVuSans-65" d="M 3597 1894 
L 3597 1613 
L 953 1613 
Q 991 1019 1311 708 
Q 1631 397 2203 397 
Q 2534 397 2845 478 
Q 3156 559 3463 722 
L 3463 178 
Q 3153 47 2828 -22 
Q 2503 -91 2169 -91 
Q 1331 -91 842 396 
Q 353 884 353 1716 
Q 353 2575 817 3079 
Q 1281 3584 2069 3584 
Q 2775 3584 3186 3129 
Q 3597 2675 3597 1894 
z
M 3022 2063 
Q 3016 2534 2758 2815 
Q 2500 3097 2075 3097 
Q 1594 3097 1305 2825 
Q 1016 2553 972 2059 
L 3022 2063 
z
" transform="scale(0.015625)"/>
       <path id="DejaVuSans-70" d="M 1159 525 
L 1159 -1331 
L 581 -1331 
L 581 3500 
L 1159 3500 
L 1159 2969 
Q 1341 3281 1617 3432 
Q 1894 3584 2278 3584 
Q 2916 3584 3314 3078 
Q 3713 2572 3713 1747 
Q 3713 922 3314 415 
Q 2916 -91 2278 -91 
Q 1894 -91 1617 61 
Q 1341 213 1159 525 
z
M 3116 1747 
Q 3116 2381 2855 2742 
Q 2594 3103 2138 3103 
Q 1681 3103 1420 2742 
Q 1159 2381 1159 1747 
Q 1159 1113 1420 752 
Q 1681 391 2138 391 
Q 2594 391 2855 752 
Q 3116 1113 3116 1747 
z
" transform="scale(0.015625)"/>
       <path id="DejaVuSans-72" d="M 2631 2963 
Q 2534 3019 2420 3045 
Q 2306 3072 2169 3072 
Q 1681 3072 1420 2755 
Q 1159 2438 1159 1844 
L 1159 0 
L 581 0 
L 581 3500 
L 1159 3500 
L 1159 2956 
Q 1341 3275 1631 3429 
Q 1922 3584 2338 3584 
Q 2397 3584 2469 3576 
Q 2541 3569 2628 3553 
L 2631 2963 
z
" transform="scale(0.015625)"/>
       <path id="DejaVuSans-63" d="M 3122 3366 
L 3122 2828 
Q 2878 2963 2633 3030 
Q 2388 3097 2138 3097 
Q 1578 3097 1268 2742 
Q 959 2388 959 1747 
Q 959 1106 1268 751 
Q 1578 397 2138 397 
Q 2388 397 2633 464 
Q 2878 531 3122 666 
L 3122 134 
Q 2881 22 2623 -34 
Q 2366 -91 2075 -91 
Q 1284 -91 818 406 
Q 353 903 353 1747 
Q 353 2603 823 3093 
Q 1294 3584 2113 3584 
Q 2378 3584 2631 3529 
Q 2884 3475 3122 3366 
z
" transform="scale(0.015625)"/>
       <path id="DejaVuSans-64" d="M 2906 2969 
L 2906 4863 
L 3481 4863 
L 3481 0 
L 2906 0 
L 2906 525 
Q 2725 213 2448 61 
Q 2172 -91 1784 -91 
Q 1150 -91 751 415 
Q 353 922 353 1747 
Q 353 2572 751 3078 
Q 1150 3584 1784 3584 
Q 2172 3584 2448 3432 
Q 2725 3281 2906 2969 
z
M 947 1747 
Q 947 1113 1208 752 
Q 1469 391 1925 391 
Q 2381 391 2643 752 
Q 2906 1113 2906 1747 
Q 2906 2381 2643 2742 
Q 2381 3103 1925 3103 
Q 1469 3103 1208 2742 
Q 947 2381 947 1747 
z
" transform="scale(0.015625)"/>
       <path id="DejaVuSans-28" d="M 1984 4856 
Q 1566 4138 1362 3434 
Q 1159 2731 1159 2009 
Q 1159 1288 1364 580 
Q 1569 -128 1984 -844 
L 1484 -844 
Q 1016 -109 783 600 
Q 550 1309 550 2009 
Q 550 2706 781 3412 
Q 1013 4119 1484 4856 
L 1984 4856 
z
" transform="scale(0.015625)"/>
       <path id="DejaVuSans-29" d="M 513 4856 
L 1013 4856 
Q 1481 4119 1714 3412 
Q 1947 2706 1947 2009 
Q 1947 1309 1714 600 
Q 1481 -109 1013 -844 
L 513 -844 
Q 928 -128 1133 580 
Q 1338 1288 1338 2009 
Q 1338 2731 1133 3434 
Q 928 4138 513 4856 
z
" transform="scale(0.015625)"/>
      </defs>
      <use xlink:href="#DejaVuSans-4d"/>
      <use xlink:href="#DejaVuSans-69" x="86.279297"/>
      <use xlink:href="#DejaVuSans-6c" x="114.0625"/>
      <use xlink:href="#DejaVuSans-6c" x="141.845703"/>
      <use xlink:href="#DejaVuSans-69" x="169.628906"/>
      <use xlink:href="#DejaVuSans-6f" x="197.412109"/>
      <use xlink:href="#DejaVuSans-6e" x="258.59375"/>
      <use xlink:href="#DejaVuSans-73" x="321.972656"/>
      <use xlink:href="#DejaVuSans-20" x="374.072266"/>
      <use xlink:href="#DejaVuSans-6f" x="405.859375"/>
      <use xlink:href="#DejaVuSans-66" x="467.041016"/>
      <use xlink:href="#DejaVuSans-20" x="502.246094"/>
      <use xlink:href="#DejaVuSans-41" x="534.033203"/>
      <use xlink:href="#DejaVuSans-74" x="600.691406"/>
      <use xlink:href="#DejaVuSans-6f" x="639.900391"/>
      <use xlink:href="#DejaVuSans-6d" x="701.082031"/>
      <use xlink:href="#DejaVuSans-20" x="798.494141"/>
      <use xlink:href="#DejaVuSans-53" x="830.28125"/>
      <use xlink:href="#DejaVuSans-74" x="893.757812"/>
      <use xlink:href="#DejaVuSans-65" x="932.966797"/>
      <use xlink:href="#DejaVuSans-70" x="994.490234"/>
      <use xlink:href="#DejaVuSans-73" x="1057.966797"/>
      <use xlink:href="#DejaVuSans-20" x="1110.066406"/>
      <use xlink:href="#DejaVuSans-70" x="1141.853516"/>
      <use xlink:href="#DejaVuSans-65" x="1205.330078"/>
      <use xlink:href="#DejaVuSans-72" x="1266.853516"/>
      <use xlink:href="#DejaVuSans-20" x="1307.966797"/>
      <use xlink:href="#DejaVuSans-53" x="1339.753906"/>
      <use xlink:href="#DejaVuSans-65" x="1403.230469"/>
      <use xlink:href="#DejaVuSans-63" x="1464.753906"/>
      <use xlink:href="#DejaVuSans-6f" x="1519.734375"/>
      <use xlink:href="#DejaVuSans-6e" x="1580.916016"/>
      <use xlink:href="#DejaVuSans-64" x="1644.294922"/>
      <use xlink:href="#DejaVuSans-20" x="1707.771484"/>
      <use xlink:href="#DejaVuSans-28" x="1739.558594"/>
      <use xlink:href="#DejaVuSans-53" x="1778.572266"/>
      <use xlink:href="#DejaVuSans-70" x="1842.048828"/>
      <use xlink:href="#DejaVuSans-65" x="1905.525391"/>
      <use xlink:href="#DejaVuSans-65" x="1967.048828"/>
      <use xlink:href="#DejaVuSans-64" x="2028.572266"/>
      <use xlink:href="#DejaVuSans-75" x="2092.048828"/>
      <use xlink:href="#DejaVuSans-70" x="2155.427734"/>
      <use xlink:href="#DejaVuSans-29" x="2218.904297"/>
     </g>
    </g>
   </g>
   <g id="patch_3">
    <path d="M 46.44 381.78 
L 46.44 26.16 
" style="fill: none; stroke: #cccccc; stroke-width: 1.25; stroke-linejoin: miter; stroke-linecap: square"/>
   </g>
   <g id="patch_4">
    <path d="M 311.04 381.78 
L 311.04 26.16 
" style="fill: none; stroke: #cccccc; stroke-width: 1.25; stroke-linejoin: miter; stroke-linecap: square"/>
   </g>
   <g id="patch_5">
    <path d="M 46.44 381.78 
L 311.04 381.78 
" style="fill: none; stroke: #cccccc; stroke-width: 1.25; stroke-linejoin: miter; stroke-linecap: square"/>
   </g>
   <g id="patch_6">
    <path d="M 46.44 26.16 
L 311.04 26.16 
" style="fill: none; stroke: #cccccc; stroke-width: 1.25; stroke-linejoin: miter; stroke-linecap: square"/>
   </g>
   <g id="PathCollection_1">
    <defs>
     <path id="C0_0_7a060b1203" d="M 0 -2.5 
L -2.377641 -0.772542 
L -1.469463 2.022542 
L 1.469463 2.022542 
L 2.377641 -0.772542 
z
"/>
    </defs>
    <g clip-path="url(#p7675101473)">
     <use xlink:href="#C0_0_7a060b1203" x="84.717256" y="359.985978" style="fill: #8c613c"/>
    </g>
    <g clip-path="url(#p7675101473)">
     <use xlink:href="#C0_0_7a060b1203" x="76.537394" y="361.108263" style="fill: #8c613c"/>
    </g>
    <g clip-path="url(#p7675101473)">
     <use xlink:href="#C0_0_7a060b1203" x="80.762789" y="361.214966" style="fill: #8c613c"/>
    </g>
    <g clip-path="url(#p7675101473)">
     <use xlink:href="#C0_0_7a060b1203" x="77.895803" y="361.329291" style="fill: #8c613c"/>
    </g>
    <g clip-path="url(#p7675101473)">
     <use xlink:href="#C0_0_7a060b1203" x="81.577096" y="360.891047" style="fill: #8c613c"/>
    </g>
    <g clip-path="url(#p7675101473)">
     <use xlink:href="#C0_0_7a060b1203" x="73.483001" y="356.295202" style="fill: #8c613c"/>
    </g>
   </g>
   <g id="PathCollection_2">
    <defs>
     <path id="C1_0_5c553b092e" d="M 0 -2.5 
L -2.377641 -0.772542 
L -1.469463 2.022542 
L 1.469463 2.022542 
L 2.377641 -0.772542 
z
"/>
    </defs>
    <g clip-path="url(#p7675101473)">
     <use xlink:href="#C1_0_5c553b092e" x="148.799162" y="304.995889" style="fill: #8c613c"/>
    </g>
    <g clip-path="url(#p7675101473)">
     <use xlink:href="#C1_0_5c553b092e" x="146.881499" y="306.826986" style="fill: #8c613c"/>
    </g>
    <g clip-path="url(#p7675101473)">
     <use xlink:href="#C1_0_5c553b092e" x="152.160728" y="306.537364" style="fill: #8c613c"/>
    </g>
    <g clip-path="url(#p7675101473)">
     <use xlink:href="#C1_0_5c553b092e" x="147.795999" y="306.242026" style="fill: #8c613c"/>
    </g>
    <g clip-path="url(#p7675101473)">
     <use xlink:href="#C1_0_5c553b092e" x="148.363472" y="307.753015" style="fill: #8c613c"/>
    </g>
    <g clip-path="url(#p7675101473)">
     <use xlink:href="#C1_0_5c553b092e" x="151.969927" y="306.522121" style="fill: #8c613c"/>
    </g>
   </g>
   <g id="PathCollection_3">
    <defs>
     <path id="C2_0_0516bde280" d="M 0 -2.5 
L -2.377641 -0.772542 
L -1.469463 2.022542 
L 1.469463 2.022542 
L 2.377641 -0.772542 
z
"/>
    </defs>
    <g clip-path="url(#p7675101473)">
     <use xlink:href="#C2_0_0516bde280" x="212.909173" y="243.996141" style="fill: #8c613c"/>
    </g>
    <g clip-path="url(#p7675101473)">
     <use xlink:href="#C2_0_0516bde280" x="207.402234" y="251.017572" style="fill: #8c613c"/>
    </g>
    <g clip-path="url(#p7675101473)">
     <use xlink:href="#C2_0_0516bde280" x="212.878344" y="249.411312" style="fill: #8c613c"/>
    </g>
    <g clip-path="url(#p7675101473)">
     <use xlink:href="#C2_0_0516bde280" x="208.485889" y="249.032136" style="fill: #8c613c"/>
    </g>
    <g clip-path="url(#p7675101473)">
     <use xlink:href="#C2_0_0516bde280" x="208.178849" y="252.393277" style="fill: #8c613c"/>
    </g>
   </g>
   <g id="PathCollection_4">
    <defs>
     <path id="C3_0_2b24c27136" d="M 0 -2.5 
L -2.377641 -0.772542 
L -1.469463 2.022542 
L 1.469463 2.022542 
L 2.377641 -0.772542 
z
"/>
    </defs>
    <g clip-path="url(#p7675101473)">
     <use xlink:href="#C3_0_2b24c27136" x="278.613917" y="148.289379" style="fill: #8c613c"/>
    </g>
    <g clip-path="url(#p7675101473)">
     <use xlink:href="#C3_0_2b24c27136" x="275.84517" y="194.583183" style="fill: #8c613c"/>
    </g>
    <g clip-path="url(#p7675101473)">
     <use xlink:href="#C3_0_2b24c27136" x="281.213939" y="194.196385" style="fill: #8c613c"/>
    </g>
    <g clip-path="url(#p7675101473)">
     <use xlink:href="#C3_0_2b24c27136" x="277.03599" y="194.089682" style="fill: #8c613c"/>
    </g>
    <g clip-path="url(#p7675101473)">
     <use xlink:href="#C3_0_2b24c27136" x="281.091791" y="192.174747" style="fill: #8c613c"/>
    </g>
   </g>
   <g id="line2d_6"/>
   <g id="PathCollection_5">
    <path d="M 83.315049 363.288253 
L 88.315049 363.288253 
L 88.315049 358.288253 
L 83.315049 358.288253 
z
" clip-path="url(#p7675101473)" style="fill: #6c3baa"/>
    <path d="M 75.345975 363.162154 
L 80.345975 363.162154 
L 80.345975 358.162154 
L 75.345975 358.162154 
z
" clip-path="url(#p7675101473)" style="fill: #6c3baa"/>
    <path d="M 72.437046 363.499655 
L 77.437046 363.499655 
L 77.437046 358.499655 
L 72.437046 358.499655 
z
" clip-path="url(#p7675101473)" style="fill: #6c3baa"/>
    <path d="M 74.02109 366.576107 
L 79.02109 366.576107 
L 79.02109 361.576107 
L 74.02109 361.576107 
z
" clip-path="url(#p7675101473)" style="fill: #6c3baa"/>
    <path d="M 79.814871 367.308595 
L 84.814871 367.308595 
L 84.814871 362.308595 
L 79.814871 362.308595 
z
" clip-path="url(#p7675101473)" style="fill: #6c3baa"/>
   </g>
   <g id="PathCollection_6">
    <path d="M 146.292492 322.267044 
L 151.292492 322.267044 
L 151.292492 317.267044 
L 146.292492 317.267044 
z
" clip-path="url(#p7675101473)" style="fill: #6c3baa"/>
    <path d="M 140.77806 322.419105 
L 145.77806 322.419105 
L 145.77806 317.419105 
L 140.77806 317.419105 
z
" clip-path="url(#p7675101473)" style="fill: #6c3baa"/>
    <path d="M 142.730636 320.727891 
L 147.730636 320.727891 
L 147.730636 315.727891 
L 142.730636 315.727891 
z
" clip-path="url(#p7675101473)" style="fill: #6c3baa"/>
    <path d="M 145.559395 322.441357 
L 150.559395 322.441357 
L 150.559395 317.441357 
L 145.559395 317.441357 
z
" clip-path="url(#p7675101473)" style="fill: #6c3baa"/>
    <path d="M 143.392306 321.892455 
L 148.392306 321.892455 
L 148.392306 316.892455 
L 143.392306 316.892455 
z
" clip-path="url(#p7675101473)" style="fill: #6c3baa"/>
   </g>
   <g id="PathCollection_7">
    <path d="M 209.797661 272.630286 
L 214.797661 272.630286 
L 214.797661 267.630286 
L 209.797661 267.630286 
z
" clip-path="url(#p7675101473)" style="fill: #6c3baa"/>
    <path d="M 213.413214 271.805077 
L 218.413214 271.805077 
L 218.413214 266.805077 
L 213.413214 266.805077 
z
" clip-path="url(#p7675101473)" style="fill: #6c3baa"/>
    <path d="M 204.660428 271.020666 
L 209.660428 271.020666 
L 209.660428 266.020666 
L 204.660428 266.020666 
z
" clip-path="url(#p7675101473)" style="fill: #6c3baa"/>
    <path d="M 208.989447 269.759673 
L 213.989447 269.759673 
L 213.989447 264.759673 
L 208.989447 264.759673 
z
" clip-path="url(#p7675101473)" style="fill: #6c3baa"/>
    <path d="M 207.348813 270.18804 
L 212.348813 270.18804 
L 212.348813 265.18804 
L 207.348813 265.18804 
z
" clip-path="url(#p7675101473)" style="fill: #6c3baa"/>
   </g>
   <g id="PathCollection_8">
    <path d="M 269.899745 215.650099 
L 274.899745 215.650099 
L 274.899745 210.650099 
L 269.899745 210.650099 
z
" clip-path="url(#p7675101473)" style="fill: #6c3baa"/>
    <path d="M 271.238451 217.625037 
L 276.238451 217.625037 
L 276.238451 212.625037 
L 271.238451 212.625037 
z
" clip-path="url(#p7675101473)" style="fill: #6c3baa"/>
    <path d="M 269.942803 217.419198 
L 274.942803 217.419198 
L 274.942803 212.419198 
L 269.942803 212.419198 
z
" clip-path="url(#p7675101473)" style="fill: #6c3baa"/>
    <path d="M 281.92732 215.722421 
L 286.92732 215.722421 
L 286.92732 210.722421 
L 281.92732 210.722421 
z
" clip-path="url(#p7675101473)" style="fill: #6c3baa"/>
    <path d="M 270.084945 205.836608 
L 275.084945 205.836608 
L 275.084945 200.836608 
L 270.084945 200.836608 
z
" clip-path="url(#p7675101473)" style="fill: #6c3baa"/>
   </g>
   <g id="line2d_7"/>
   <g id="PathCollection_9">
    <defs>
     <path id="C4_0_d1f4ca05f9" d="M -0.833333 2.5 
L 0.833333 2.5 
L 0.833333 0.833333 
L 2.5 0.833333 
L 2.5 -0.833333 
L 0.833333 -0.833333 
L 0.833333 -2.5 
L -0.833333 -2.5 
L -0.833333 -0.833333 
L -2.5 -0.833333 
L -2.5 0.833333 
L -0.833333 0.833333 
z
"/>
    </defs>
    <g clip-path="url(#p7675101473)">
     <use xlink:href="#C4_0_d1f4ca05f9" x="77.356963" y="361.178198" style="fill: #797979"/>
    </g>
    <g clip-path="url(#p7675101473)">
     <use xlink:href="#C4_0_d1f4ca05f9" x="81.767527" y="360.792659" style="fill: #797979"/>
    </g>
    <g clip-path="url(#p7675101473)">
     <use xlink:href="#C4_0_d1f4ca05f9" x="82.927888" y="360.993253" style="fill: #797979"/>
    </g>
    <g clip-path="url(#p7675101473)">
     <use xlink:href="#C4_0_d1f4ca05f9" x="81.046276" y="365.615455" style="fill: #797979"/>
    </g>
    <g clip-path="url(#p7675101473)">
     <use xlink:href="#C4_0_d1f4ca05f9" x="78.703924" y="361.006057" style="fill: #797979"/>
    </g>
    <g clip-path="url(#p7675101473)">
     <use xlink:href="#C4_0_d1f4ca05f9" x="78.254168" y="360.910739" style="fill: #797979"/>
    </g>
   </g>
   <g id="PathCollection_10">
    <defs>
     <path id="C5_0_ebf1ff5134" d="M -0.833333 2.5 
L 0.833333 2.5 
L 0.833333 0.833333 
L 2.5 0.833333 
L 2.5 -0.833333 
L 0.833333 -0.833333 
L 0.833333 -2.5 
L -0.833333 -2.5 
L -0.833333 -0.833333 
L -2.5 -0.833333 
L -2.5 0.833333 
L -0.833333 0.833333 
z
"/>
    </defs>
    <g clip-path="url(#p7675101473)">
     <use xlink:href="#C5_0_ebf1ff5134" x="140.047387" y="301.203392" style="fill: #797979"/>
    </g>
    <g clip-path="url(#p7675101473)">
     <use xlink:href="#C5_0_ebf1ff5134" x="143.404337" y="301.472273" style="fill: #797979"/>
    </g>
    <g clip-path="url(#p7675101473)">
     <use xlink:href="#C5_0_ebf1ff5134" x="148.605233" y="300.938778" style="fill: #797979"/>
    </g>
    <g clip-path="url(#p7675101473)">
     <use xlink:href="#C5_0_ebf1ff5134" x="144.449109" y="301.584663" style="fill: #797979"/>
    </g>
    <g clip-path="url(#p7675101473)">
     <use xlink:href="#C5_0_ebf1ff5134" x="152.129602" y="301.594622" style="fill: #797979"/>
    </g>
   </g>
   <g id="PathCollection_11">
    <defs>
     <path id="C6_0_28bd9d7f82" d="M -0.833333 2.5 
L 0.833333 2.5 
L 0.833333 0.833333 
L 2.5 0.833333 
L 2.5 -0.833333 
L 0.833333 -0.833333 
L 0.833333 -2.5 
L -0.833333 -2.5 
L -0.833333 -0.833333 
L -2.5 -0.833333 
L -2.5 0.833333 
L -0.833333 0.833333 
z
"/>
    </defs>
    <g clip-path="url(#p7675101473)">
     <use xlink:href="#C6_0_28bd9d7f82" x="208.833252" y="199.692792" style="fill: #797979"/>
    </g>
    <g clip-path="url(#p7675101473)">
     <use xlink:href="#C6_0_28bd9d7f82" x="207.613665" y="199.389767" style="fill: #797979"/>
    </g>
    <g clip-path="url(#p7675101473)">
     <use xlink:href="#C6_0_28bd9d7f82" x="213.696921" y="198.039669" style="fill: #797979"/>
    </g>
    <g clip-path="url(#p7675101473)">
     <use xlink:href="#C6_0_28bd9d7f82" x="209.329929" y="198.110801" style="fill: #797979"/>
    </g>
    <g clip-path="url(#p7675101473)">
     <use xlink:href="#C6_0_28bd9d7f82" x="213.860695" y="198.041091" style="fill: #797979"/>
    </g>
   </g>
   <g id="PathCollection_12">
    <defs>
     <path id="C7_0_b32188dc04" d="M -0.833333 2.5 
L 0.833333 2.5 
L 0.833333 0.833333 
L 2.5 0.833333 
L 2.5 -0.833333 
L 0.833333 -0.833333 
L 0.833333 -2.5 
L -0.833333 -2.5 
L -0.833333 -0.833333 
L -2.5 -0.833333 
L -2.5 0.833333 
L -0.833333 0.833333 
z
"/>
    </defs>
    <g clip-path="url(#p7675101473)">
     <use xlink:href="#C7_0_b32188dc04" x="272.298875" y="42.408482" style="fill: #797979"/>
    </g>
    <g clip-path="url(#p7675101473)">
     <use xlink:href="#C7_0_b32188dc04" x="278.957967" y="44.512587" style="fill: #797979"/>
    </g>
    <g clip-path="url(#p7675101473)">
     <use xlink:href="#C7_0_b32188dc04" x="273.617716" y="46.484384" style="fill: #797979"/>
    </g>
    <g clip-path="url(#p7675101473)">
     <use xlink:href="#C7_0_b32188dc04" x="272.989733" y="44.344714" style="fill: #797979"/>
    </g>
    <g clip-path="url(#p7675101473)">
     <use xlink:href="#C7_0_b32188dc04" x="284.419848" y="42.324545" style="fill: #797979"/>
    </g>
   </g>
   <g id="line2d_8"/>
   <g id="PathCollection_13">
    <defs>
     <path id="C8_0_fb3dd978aa" d="M 0 2.5 
C 0.663008 2.5 1.29895 2.236584 1.767767 1.767767 
C 2.236584 1.29895 2.5 0.663008 2.5 -0 
C 2.5 -0.663008 2.236584 -1.29895 1.767767 -1.767767 
C 1.29895 -2.236584 0.663008 -2.5 0 -2.5 
C -0.663008 -2.5 -1.29895 -2.236584 -1.767767 -1.767767 
C -2.236584 -1.29895 -2.5 -0.663008 -2.5 0 
C -2.5 0.663008 -2.236584 1.29895 -1.767767 1.767767 
C -1.29895 2.236584 -0.663008 2.5 0 2.5 
z
"/>
    </defs>
    <g clip-path="url(#p7675101473)">
     <use xlink:href="#C8_0_fb3dd978aa" x="73.500705" y="361.007556" style="fill: #4878d0"/>
    </g>
    <g clip-path="url(#p7675101473)">
     <use xlink:href="#C8_0_fb3dd978aa" x="77.533946" y="361.95723" style="fill: #4878d0"/>
    </g>
    <g clip-path="url(#p7675101473)">
     <use xlink:href="#C8_0_fb3dd978aa" x="79.390806" y="360.999655" style="fill: #4878d0"/>
    </g>
    <g clip-path="url(#p7675101473)">
     <use xlink:href="#C8_0_fb3dd978aa" x="79.979523" y="360.713647" style="fill: #4878d0"/>
    </g>
    <g clip-path="url(#p7675101473)">
     <use xlink:href="#C8_0_fb3dd978aa" x="80.423787" y="360.956991" style="fill: #4878d0"/>
    </g>
   </g>
   <g id="PathCollection_14">
    <defs>
     <path id="C9_0_2b73c78e55" d="M 0 2.5 
C 0.663008 2.5 1.29895 2.236584 1.767767 1.767767 
C 2.236584 1.29895 2.5 0.663008 2.5 -0 
C 2.5 -0.663008 2.236584 -1.29895 1.767767 -1.767767 
C 1.29895 -2.236584 0.663008 -2.5 0 -2.5 
C -0.663008 -2.5 -1.29895 -2.236584 -1.767767 -1.767767 
C -2.236584 -1.29895 -2.5 -0.663008 -2.5 0 
C -2.5 0.663008 -2.236584 1.29895 -1.767767 1.767767 
C -1.29895 2.236584 -0.663008 2.5 0 2.5 
z
"/>
    </defs>
    <g clip-path="url(#p7675101473)">
     <use xlink:href="#C9_0_2b73c78e55" x="146.708902" y="300.988474" style="fill: #4878d0"/>
    </g>
    <g clip-path="url(#p7675101473)">
     <use xlink:href="#C9_0_2b73c78e55" x="142.853149" y="301.179673" style="fill: #4878d0"/>
    </g>
    <g clip-path="url(#p7675101473)">
     <use xlink:href="#C9_0_2b73c78e55" x="141.767809" y="301.222337" style="fill: #4878d0"/>
    </g>
    <g clip-path="url(#p7675101473)">
     <use xlink:href="#C9_0_2b73c78e55" x="142.538378" y="301.486223" style="fill: #4878d0"/>
    </g>
    <g clip-path="url(#p7675101473)">
     <use xlink:href="#C9_0_2b73c78e55" x="143.205162" y="301.054841" style="fill: #4878d0"/>
    </g>
   </g>
   <g id="PathCollection_15">
    <defs>
     <path id="Ca_0_9cd46fdaf3" d="M 0 2.5 
C 0.663008 2.5 1.29895 2.236584 1.767767 1.767767 
C 2.236584 1.29895 2.5 0.663008 2.5 -0 
C 2.5 -0.663008 2.236584 -1.29895 1.767767 -1.767767 
C 1.29895 -2.236584 0.663008 -2.5 0 -2.5 
C -0.663008 -2.5 -1.29895 -2.236584 -1.767767 -1.767767 
C -2.236584 -1.29895 -2.5 -0.663008 -2.5 0 
C -2.5 0.663008 -2.236584 1.29895 -1.767767 1.767767 
C -1.29895 2.236584 -0.663008 2.5 0 2.5 
z
"/>
    </defs>
    <g clip-path="url(#p7675101473)">
     <use xlink:href="#Ca_0_9cd46fdaf3" x="213.26" y="228.528821" style="fill: #4878d0"/>
    </g>
    <g clip-path="url(#p7675101473)">
     <use xlink:href="#Ca_0_9cd46fdaf3" x="206.96" y="233.06387" style="fill: #4878d0"/>
    </g>
    <g clip-path="url(#p7675101473)">
     <use xlink:href="#Ca_0_9cd46fdaf3" x="208.035584" y="229.053433" style="fill: #4878d0"/>
    </g>
    <g clip-path="url(#p7675101473)">
     <use xlink:href="#Ca_0_9cd46fdaf3" x="214.285262" y="228.754783" style="fill: #4878d0"/>
    </g>
    <g clip-path="url(#p7675101473)">
     <use xlink:href="#Ca_0_9cd46fdaf3" x="217.508079" y="228.811669" style="fill: #4878d0"/>
    </g>
   </g>
   <g id="line2d_9"/>
   <g id="PathCollection_16">
    <path d="M 75.139089 360.783001 
L 80.139089 363.283001 
L 80.139089 358.283001 
z
" clip-path="url(#p7675101473)" style="fill: #d65f5f"/>
    <path d="M 79.592591 360.999655 
L 84.592591 363.499655 
L 84.592591 358.499655 
z
" clip-path="url(#p7675101473)" style="fill: #d65f5f"/>
    <path d="M 81.31289 360.880122 
L 86.31289 363.380122 
L 86.31289 358.380122 
z
" clip-path="url(#p7675101473)" style="fill: #d65f5f"/>
    <path d="M 72.440612 361.010114 
L 77.440612 363.510114 
L 77.440612 358.510114 
z
" clip-path="url(#p7675101473)" style="fill: #d65f5f"/>
    <path d="M 81.763315 361.156543 
L 86.763315 363.656543 
L 86.763315 358.656543 
z
" clip-path="url(#p7675101473)" style="fill: #d65f5f"/>
   </g>
   <g id="PathCollection_17">
    <path d="M 146.201915 299.218777 
L 151.201915 301.718777 
L 151.201915 296.718777 
z
" clip-path="url(#p7675101473)" style="fill: #d65f5f"/>
    <path d="M 142.656667 300.854892 
L 147.656667 303.354892 
L 147.656667 298.354892 
z
" clip-path="url(#p7675101473)" style="fill: #d65f5f"/>
    <path d="M 137.640003 299.268085 
L 142.640003 301.768085 
L 142.640003 296.768085 
z
" clip-path="url(#p7675101473)" style="fill: #d65f5f"/>
    <path d="M 147.88084 299.082808 
L 152.88084 301.582808 
L 152.88084 296.582808 
z
" clip-path="url(#p7675101473)" style="fill: #d65f5f"/>
    <path d="M 143.19342 348.20509 
L 148.19342 350.70509 
L 148.19342 345.70509 
z
" clip-path="url(#p7675101473)" style="fill: #d65f5f"/>
   </g>
   <g id="PathCollection_18">
    <path d="M 204.339124 236.403935 
L 209.339124 238.903935 
L 209.339124 233.903935 
z
" clip-path="url(#p7675101473)" style="fill: #d65f5f"/>
    <path d="M 215.452112 236.19774 
L 220.452112 238.69774 
L 220.452112 233.69774 
z
" clip-path="url(#p7675101473)" style="fill: #d65f5f"/>
    <path d="M 213.76837 237.107688 
L 218.76837 239.607688 
L 218.76837 234.607688 
z
" clip-path="url(#p7675101473)" style="fill: #d65f5f"/>
    <path d="M 203.65469 237.836843 
L 208.65469 240.336843 
L 208.65469 235.336843 
z
" clip-path="url(#p7675101473)" style="fill: #d65f5f"/>
    <path d="M 203.072068 225.227555 
L 208.072068 227.727555 
L 208.072068 222.727555 
z
" clip-path="url(#p7675101473)" style="fill: #d65f5f"/>
   </g>
   <g id="PathCollection_19">
    <path d="M 273.944079 110.651729 
L 278.944079 113.151729 
L 278.944079 108.151729 
z
" clip-path="url(#p7675101473)" style="fill: #d65f5f"/>
    <path d="M 273.035363 100.391274 
L 278.035363 102.891274 
L 278.035363 97.891274 
z
" clip-path="url(#p7675101473)" style="fill: #d65f5f"/>
    <path d="M 273.404255 109.729827 
L 278.404255 112.229827 
L 278.404255 107.229827 
z
" clip-path="url(#p7675101473)" style="fill: #d65f5f"/>
    <path d="M 272.037212 100.283694 
L 277.037212 102.783694 
L 277.037212 97.783694 
z
" clip-path="url(#p7675101473)" style="fill: #d65f5f"/>
    <path d="M 274.732544 100.294153 
L 279.732544 102.794153 
L 279.732544 97.794153 
z
" clip-path="url(#p7675101473)" style="fill: #d65f5f"/>
   </g>
   <g id="line2d_10"/>
   <g id="PathCollection_20">
    <path d="M 85.259923 364.723083 
L 87.381244 361.187549 
L 85.259923 357.652015 
L 83.138603 361.187549 
z
" clip-path="url(#p7675101473)" style="fill: #008000"/>
    <path d="M 79.427866 364.535189 
L 81.549187 360.999655 
L 79.427866 357.464121 
L 77.306546 360.999655 
z
" clip-path="url(#p7675101473)" style="fill: #008000"/>
    <path d="M 81.028092 364.236267 
L 83.149413 360.700733 
L 81.028092 357.165199 
L 78.906772 360.700733 
z
" clip-path="url(#p7675101473)" style="fill: #008000"/>
    <path d="M 77.434152 364.473696 
L 79.555473 360.938163 
L 77.434152 357.402629 
L 75.312832 360.938163 
z
" clip-path="url(#p7675101473)" style="fill: #008000"/>
    <path d="M 80.098532 364.71625 
L 82.219853 361.180716 
L 80.098532 357.645183 
L 77.977212 361.180716 
z
" clip-path="url(#p7675101473)" style="fill: #008000"/>
   </g>
   <g id="PathCollection_21">
    <path d="M 148.878916 303.052897 
L 151.000237 299.517363 
L 148.878916 295.981829 
L 146.757596 299.517363 
z
" clip-path="url(#p7675101473)" style="fill: #008000"/>
    <path d="M 151.562575 302.371355 
L 153.683896 298.835821 
L 151.562575 295.300287 
L 149.441255 298.835821 
z
" clip-path="url(#p7675101473)" style="fill: #008000"/>
    <path d="M 145.519217 301.976778 
L 147.640538 298.441244 
L 145.519217 294.90571 
L 143.397897 298.441244 
z
" clip-path="url(#p7675101473)" style="fill: #008000"/>
    <path d="M 147.304918 302.982864 
L 149.426238 299.44733 
L 147.304918 295.911796 
L 145.183598 299.44733 
z
" clip-path="url(#p7675101473)" style="fill: #008000"/>
    <path d="M 139.471869 302.600244 
L 141.59319 299.06471 
L 139.471869 295.529176 
L 137.350549 299.06471 
z
" clip-path="url(#p7675101473)" style="fill: #008000"/>
   </g>
   <g id="PathCollection_22">
    <path d="M 209.810989 204.382992 
L 211.932309 200.847458 
L 209.810989 197.311924 
L 207.689668 200.847458 
z
" clip-path="url(#p7675101473)" style="fill: #008000"/>
    <path d="M 208.617921 206.376375 
L 210.739241 202.840841 
L 208.617921 199.305307 
L 206.4966 202.840841 
z
" clip-path="url(#p7675101473)" style="fill: #008000"/>
    <path d="M 211.701484 206.49936 
L 213.822804 202.963826 
L 211.701484 199.428292 
L 209.580163 202.963826 
z
" clip-path="url(#p7675101473)" style="fill: #008000"/>
    <path d="M 213.724812 206.912726 
L 215.846132 203.377193 
L 213.724812 199.841659 
L 211.603492 203.377193 
z
" clip-path="url(#p7675101473)" style="fill: #008000"/>
    <path d="M 205.395125 207.799244 
L 207.516445 204.26371 
L 205.395125 200.728176 
L 203.273805 204.26371 
z
" clip-path="url(#p7675101473)" style="fill: #008000"/>
   </g>
   <g id="PathCollection_23">
    <path d="M 272.652855 109.925325 
L 274.774175 106.389791 
L 272.652855 102.854257 
L 270.531535 106.389791 
z
" clip-path="url(#p7675101473)" style="fill: #008000"/>
    <path d="M 275.912474 108.980731 
L 278.033794 105.445197 
L 275.912474 101.909664 
L 273.791154 105.445197 
z
" clip-path="url(#p7675101473)" style="fill: #008000"/>
    <path d="M 281.908848 109.843335 
L 284.030169 106.307801 
L 281.908848 102.772267 
L 279.787528 106.307801 
z
" clip-path="url(#p7675101473)" style="fill: #008000"/>
    <path d="M 273.623547 112.412357 
L 275.744867 108.876823 
L 273.623547 105.341289 
L 271.502226 108.876823 
z
" clip-path="url(#p7675101473)" style="fill: #008000"/>
    <path d="M 277.936126 110.338692 
L 280.057446 106.803158 
L 277.936126 103.267624 
L 275.814805 106.803158 
z
" clip-path="url(#p7675101473)" style="fill: #008000"/>
   </g>
   <g id="line2d_11"/>
   <g id="text_12">
    <!-- LAMMPS M/Atom Steps per Second 64x32x32 (GPU) Speedup -->
    <g style="fill: #262626" transform="translate(40.451484 20.16) scale(0.09 -0.09)">
     <defs>
      <path id="DejaVuSans-4c" d="M 628 4666 
L 1259 4666 
L 1259 531 
L 3531 531 
L 3531 0 
L 628 0 
L 628 4666 
z
" transform="scale(0.015625)"/>
      <path id="DejaVuSans-2f" d="M 1625 4666 
L 2156 4666 
L 531 -594 
L 0 -594 
L 1625 4666 
z
" transform="scale(0.015625)"/>
      <path id="DejaVuSans-78" d="M 3513 3500 
L 2247 1797 
L 3578 0 
L 2900 0 
L 1881 1375 
L 863 0 
L 184 0 
L 1544 1831 
L 300 3500 
L 978 3500 
L 1906 2253 
L 2834 3500 
L 3513 3500 
z
" transform="scale(0.015625)"/>
     </defs>
     <use xlink:href="#DejaVuSans-4c"/>
     <use xlink:href="#DejaVuSans-41" x="57.962891"/>
     <use xlink:href="#DejaVuSans-4d" x="126.371094"/>
     <use xlink:href="#DejaVuSans-4d" x="212.650391"/>
     <use xlink:href="#DejaVuSans-50" x="298.929688"/>
     <use xlink:href="#DejaVuSans-53" x="359.232422"/>
     <use xlink:href="#DejaVuSans-20" x="422.708984"/>
     <use xlink:href="#DejaVuSans-4d" x="454.496094"/>
     <use xlink:href="#DejaVuSans-2f" x="540.775391"/>
     <use xlink:href="#DejaVuSans-41" x="574.466797"/>
     <use xlink:href="#DejaVuSans-74" x="641.125"/>
     <use xlink:href="#DejaVuSans-6f" x="680.333984"/>
     <use xlink:href="#DejaVuSans-6d" x="741.515625"/>
     <use xlink:href="#DejaVuSans-20" x="838.927734"/>
     <use xlink:href="#DejaVuSans-53" x="870.714844"/>
     <use xlink:href="#DejaVuSans-74" x="934.191406"/>
     <use xlink:href="#DejaVuSans-65" x="973.400391"/>
     <use xlink:href="#DejaVuSans-70" x="1034.923828"/>
     <use xlink:href="#DejaVuSans-73" x="1098.400391"/>
     <use xlink:href="#DejaVuSans-20" x="1150.5"/>
     <use xlink:href="#DejaVuSans-70" x="1182.287109"/>
     <use xlink:href="#DejaVuSans-65" x="1245.763672"/>
     <use xlink:href="#DejaVuSans-72" x="1307.287109"/>
     <use xlink:href="#DejaVuSans-20" x="1348.400391"/>
     <use xlink:href="#DejaVuSans-53" x="1380.1875"/>
     <use xlink:href="#DejaVuSans-65" x="1443.664062"/>
     <use xlink:href="#DejaVuSans-63" x="1505.1875"/>
     <use xlink:href="#DejaVuSans-6f" x="1560.167969"/>
     <use xlink:href="#DejaVuSans-6e" x="1621.349609"/>
     <use xlink:href="#DejaVuSans-64" x="1684.728516"/>
     <use xlink:href="#DejaVuSans-20" x="1748.205078"/>
     <use xlink:href="#DejaVuSans-36" x="1779.992188"/>
     <use xlink:href="#DejaVuSans-34" x="1843.615234"/>
     <use xlink:href="#DejaVuSans-78" x="1907.238281"/>
     <use xlink:href="#DejaVuSans-33" x="1966.417969"/>
     <use xlink:href="#DejaVuSans-32" x="2030.041016"/>
     <use xlink:href="#DejaVuSans-78" x="2093.664062"/>
     <use xlink:href="#DejaVuSans-33" x="2152.84375"/>
     <use xlink:href="#DejaVuSans-32" x="2216.466797"/>
     <use xlink:href="#DejaVuSans-20" x="2280.089844"/>
     <use xlink:href="#DejaVuSans-28" x="2311.876953"/>
     <use xlink:href="#DejaVuSans-47" x="2350.890625"/>
     <use xlink:href="#DejaVuSans-50" x="2428.380859"/>
     <use xlink:href="#DejaVuSans-55" x="2488.683594"/>
     <use xlink:href="#DejaVuSans-29" x="2561.876953"/>
     <use xlink:href="#DejaVuSans-20" x="2600.890625"/>
     <use xlink:href="#DejaVuSans-53" x="2632.677734"/>
     <use xlink:href="#DejaVuSans-70" x="2696.154297"/>
     <use xlink:href="#DejaVuSans-65" x="2759.630859"/>
     <use xlink:href="#DejaVuSans-65" x="2821.154297"/>
     <use xlink:href="#DejaVuSans-64" x="2882.677734"/>
     <use xlink:href="#DejaVuSans-75" x="2946.154297"/>
     <use xlink:href="#DejaVuSans-70" x="3009.533203"/>
    </g>
   </g>
   <g id="legend_1">
    <g id="patch_7">
     <path d="M 54.14 131.835625 
L 244.957344 131.835625 
Q 247.157344 131.835625 247.157344 129.635625 
L 247.157344 33.86 
Q 247.157344 31.66 244.957344 31.66 
L 54.14 31.66 
Q 51.94 31.66 51.94 33.86 
L 51.94 129.635625 
Q 51.94 131.835625 54.14 131.835625 
z
" style="fill: #ffffff; opacity: 0.8; stroke: #cccccc; stroke-linejoin: miter"/>
    </g>
    <g id="line2d_12">
     <defs>
      <path id="m1139611f43" d="M 0 -2.5 
L -2.377641 -0.772542 
L -1.469463 2.022542 
L 1.469463 2.022542 
L 2.377641 -0.772542 
z
"/>
     </defs>
     <g>
      <use xlink:href="#m1139611f43" x="67.34" y="40.568281" style="fill: #8c613c"/>
     </g>
    </g>
    <g id="text_13">
     <!-- google/gke/gpu -->
     <g style="fill: #262626" transform="translate(87.14 44.418281) scale(0.11 -0.11)">
      <defs>
       <path id="DejaVuSans-67" d="M 2906 1791 
Q 2906 2416 2648 2759 
Q 2391 3103 1925 3103 
Q 1463 3103 1205 2759 
Q 947 2416 947 1791 
Q 947 1169 1205 825 
Q 1463 481 1925 481 
Q 2391 481 2648 825 
Q 2906 1169 2906 1791 
z
M 3481 434 
Q 3481 -459 3084 -895 
Q 2688 -1331 1869 -1331 
Q 1566 -1331 1297 -1286 
Q 1028 -1241 775 -1147 
L 775 -588 
Q 1028 -725 1275 -790 
Q 1522 -856 1778 -856 
Q 2344 -856 2625 -561 
Q 2906 -266 2906 331 
L 2906 616 
Q 2728 306 2450 153 
Q 2172 0 1784 0 
Q 1141 0 747 490 
Q 353 981 353 1791 
Q 353 2603 747 3093 
Q 1141 3584 1784 3584 
Q 2172 3584 2450 3431 
Q 2728 3278 2906 2969 
L 2906 3500 
L 3481 3500 
L 3481 434 
z
" transform="scale(0.015625)"/>
       <path id="DejaVuSans-6b" d="M 581 4863 
L 1159 4863 
L 1159 1991 
L 2875 3500 
L 3609 3500 
L 1753 1863 
L 3688 0 
L 2938 0 
L 1159 1709 
L 1159 0 
L 581 0 
L 581 4863 
z
" transform="scale(0.015625)"/>
      </defs>
      <use xlink:href="#DejaVuSans-67"/>
      <use xlink:href="#DejaVuSans-6f" x="63.476562"/>
      <use xlink:href="#DejaVuSans-6f" x="124.658203"/>
      <use xlink:href="#DejaVuSans-67" x="185.839844"/>
      <use xlink:href="#DejaVuSans-6c" x="249.316406"/>
      <use xlink:href="#DejaVuSans-65" x="277.099609"/>
      <use xlink:href="#DejaVuSans-2f" x="338.623047"/>
      <use xlink:href="#DejaVuSans-67" x="372.314453"/>
      <use xlink:href="#DejaVuSans-6b" x="435.791016"/>
      <use xlink:href="#DejaVuSans-65" x="490.076172"/>
      <use xlink:href="#DejaVuSans-2f" x="551.599609"/>
      <use xlink:href="#DejaVuSans-67" x="585.291016"/>
      <use xlink:href="#DejaVuSans-70" x="648.767578"/>
      <use xlink:href="#DejaVuSans-75" x="712.244141"/>
     </g>
    </g>
    <g id="line2d_13">
     <defs>
      <path id="mfa349f1a5a" d="M -2.5 2.5 
L 2.5 2.5 
L 2.5 -2.5 
L -2.5 -2.5 
z
"/>
     </defs>
     <g>
      <use xlink:href="#mfa349f1a5a" x="67.34" y="56.714219" style="fill: #6c3baa"/>
     </g>
    </g>
    <g id="text_14">
     <!-- google/compute-engine/gpu -->
     <g style="fill: #262626" transform="translate(87.14 60.564219) scale(0.11 -0.11)">
      <defs>
       <path id="DejaVuSans-2d" d="M 313 2009 
L 1997 2009 
L 1997 1497 
L 313 1497 
L 313 2009 
z
" transform="scale(0.015625)"/>
      </defs>
      <use xlink:href="#DejaVuSans-67"/>
      <use xlink:href="#DejaVuSans-6f" x="63.476562"/>
      <use xlink:href="#DejaVuSans-6f" x="124.658203"/>
      <use xlink:href="#DejaVuSans-67" x="185.839844"/>
      <use xlink:href="#DejaVuSans-6c" x="249.316406"/>
      <use xlink:href="#DejaVuSans-65" x="277.099609"/>
      <use xlink:href="#DejaVuSans-2f" x="338.623047"/>
      <use xlink:href="#DejaVuSans-63" x="372.314453"/>
      <use xlink:href="#DejaVuSans-6f" x="427.294922"/>
      <use xlink:href="#DejaVuSans-6d" x="488.476562"/>
      <use xlink:href="#DejaVuSans-70" x="585.888672"/>
      <use xlink:href="#DejaVuSans-75" x="649.365234"/>
      <use xlink:href="#DejaVuSans-74" x="712.744141"/>
      <use xlink:href="#DejaVuSans-65" x="751.953125"/>
      <use xlink:href="#DejaVuSans-2d" x="813.476562"/>
      <use xlink:href="#DejaVuSans-65" x="849.560547"/>
      <use xlink:href="#DejaVuSans-6e" x="911.083984"/>
      <use xlink:href="#DejaVuSans-67" x="974.462891"/>
      <use xlink:href="#DejaVuSans-69" x="1037.939453"/>
      <use xlink:href="#DejaVuSans-6e" x="1065.722656"/>
      <use xlink:href="#DejaVuSans-65" x="1129.101562"/>
      <use xlink:href="#DejaVuSans-2f" x="1190.625"/>
      <use xlink:href="#DejaVuSans-67" x="1224.316406"/>
      <use xlink:href="#DejaVuSans-70" x="1287.792969"/>
      <use xlink:href="#DejaVuSans-75" x="1351.269531"/>
     </g>
    </g>
    <g id="line2d_14">
     <defs>
      <path id="md3a319af1c" d="M -0.833333 2.5 
L 0.833333 2.5 
L 0.833333 0.833333 
L 2.5 0.833333 
L 2.5 -0.833333 
L 0.833333 -0.833333 
L 0.833333 -2.5 
L -0.833333 -2.5 
L -0.833333 -0.833333 
L -2.5 -0.833333 
L -2.5 0.833333 
L -0.833333 0.833333 
z
"/>
     </defs>
     <g>
      <use xlink:href="#md3a319af1c" x="67.34" y="72.860156" style="fill: #797979"/>
     </g>
    </g>
    <g id="text_15">
     <!-- on-premises/b/gpu -->
     <g style="fill: #262626" transform="translate(87.14 76.710156) scale(0.11 -0.11)">
      <defs>
       <path id="DejaVuSans-62" d="M 3116 1747 
Q 3116 2381 2855 2742 
Q 2594 3103 2138 3103 
Q 1681 3103 1420 2742 
Q 1159 2381 1159 1747 
Q 1159 1113 1420 752 
Q 1681 391 2138 391 
Q 2594 391 2855 752 
Q 3116 1113 3116 1747 
z
M 1159 2969 
Q 1341 3281 1617 3432 
Q 1894 3584 2278 3584 
Q 2916 3584 3314 3078 
Q 3713 2572 3713 1747 
Q 3713 922 3314 415 
Q 2916 -91 2278 -91 
Q 1894 -91 1617 61 
Q 1341 213 1159 525 
L 1159 0 
L 581 0 
L 581 4863 
L 1159 4863 
L 1159 2969 
z
" transform="scale(0.015625)"/>
      </defs>
      <use xlink:href="#DejaVuSans-6f"/>
      <use xlink:href="#DejaVuSans-6e" x="61.181641"/>
      <use xlink:href="#DejaVuSans-2d" x="124.560547"/>
      <use xlink:href="#DejaVuSans-70" x="160.644531"/>
      <use xlink:href="#DejaVuSans-72" x="224.121094"/>
      <use xlink:href="#DejaVuSans-65" x="262.984375"/>
      <use xlink:href="#DejaVuSans-6d" x="324.507812"/>
      <use xlink:href="#DejaVuSans-69" x="421.919922"/>
      <use xlink:href="#DejaVuSans-73" x="449.703125"/>
      <use xlink:href="#DejaVuSans-65" x="501.802734"/>
      <use xlink:href="#DejaVuSans-73" x="563.326172"/>
      <use xlink:href="#DejaVuSans-2f" x="615.425781"/>
      <use xlink:href="#DejaVuSans-62" x="649.117188"/>
      <use xlink:href="#DejaVuSans-2f" x="712.59375"/>
      <use xlink:href="#DejaVuSans-67" x="746.285156"/>
      <use xlink:href="#DejaVuSans-70" x="809.761719"/>
      <use xlink:href="#DejaVuSans-75" x="873.238281"/>
     </g>
    </g>
    <g id="line2d_15">
     <defs>
      <path id="mba0f26fa4b" d="M 0 2.5 
C 0.663008 2.5 1.29895 2.236584 1.767767 1.767767 
C 2.236584 1.29895 2.5 0.663008 2.5 0 
C 2.5 -0.663008 2.236584 -1.29895 1.767767 -1.767767 
C 1.29895 -2.236584 0.663008 -2.5 0 -2.5 
C -0.663008 -2.5 -1.29895 -2.236584 -1.767767 -1.767767 
C -2.236584 -1.29895 -2.5 -0.663008 -2.5 0 
C -2.5 0.663008 -2.236584 1.29895 -1.767767 1.767767 
C -1.29895 2.236584 -0.663008 2.5 0 2.5 
z
"/>
     </defs>
     <g>
      <use xlink:href="#mba0f26fa4b" x="67.34" y="89.006094" style="fill: #4878d0"/>
     </g>
    </g>
    <g id="text_16">
     <!-- aws/eks/gpu -->
     <g style="fill: #262626" transform="translate(87.14 92.856094) scale(0.11 -0.11)">
      <defs>
       <path id="DejaVuSans-61" d="M 2194 1759 
Q 1497 1759 1228 1600 
Q 959 1441 959 1056 
Q 959 750 1161 570 
Q 1363 391 1709 391 
Q 2188 391 2477 730 
Q 2766 1069 2766 1631 
L 2766 1759 
L 2194 1759 
z
M 3341 1997 
L 3341 0 
L 2766 0 
L 2766 531 
Q 2569 213 2275 61 
Q 1981 -91 1556 -91 
Q 1019 -91 701 211 
Q 384 513 384 1019 
Q 384 1609 779 1909 
Q 1175 2209 1959 2209 
L 2766 2209 
L 2766 2266 
Q 2766 2663 2505 2880 
Q 2244 3097 1772 3097 
Q 1472 3097 1187 3025 
Q 903 2953 641 2809 
L 641 3341 
Q 956 3463 1253 3523 
Q 1550 3584 1831 3584 
Q 2591 3584 2966 3190 
Q 3341 2797 3341 1997 
z
" transform="scale(0.015625)"/>
       <path id="DejaVuSans-77" d="M 269 3500 
L 844 3500 
L 1563 769 
L 2278 3500 
L 2956 3500 
L 3675 769 
L 4391 3500 
L 4966 3500 
L 4050 0 
L 3372 0 
L 2619 2869 
L 1863 0 
L 1184 0 
L 269 3500 
z
" transform="scale(0.015625)"/>
      </defs>
      <use xlink:href="#DejaVuSans-61"/>
      <use xlink:href="#DejaVuSans-77" x="61.279297"/>
      <use xlink:href="#DejaVuSans-73" x="143.066406"/>
      <use xlink:href="#DejaVuSans-2f" x="195.166016"/>
      <use xlink:href="#DejaVuSans-65" x="228.857422"/>
      <use xlink:href="#DejaVuSans-6b" x="290.380859"/>
      <use xlink:href="#DejaVuSans-73" x="348.291016"/>
      <use xlink:href="#DejaVuSans-2f" x="400.390625"/>
      <use xlink:href="#DejaVuSans-67" x="434.082031"/>
      <use xlink:href="#DejaVuSans-70" x="497.558594"/>
      <use xlink:href="#DejaVuSans-75" x="561.035156"/>
     </g>
    </g>
    <g id="line2d_16">
     <defs>
      <path id="mdfa5ab7f44" d="M -2.5 -0 
L 2.5 2.5 
L 2.5 -2.5 
z
"/>
     </defs>
     <g>
      <use xlink:href="#mdfa5ab7f44" x="67.34" y="105.152031" style="fill: #d65f5f"/>
     </g>
    </g>
    <g id="text_17">
     <!-- azure/cyclecloud/gpu -->
     <g style="fill: #262626" transform="translate(87.14 109.002031) scale(0.11 -0.11)">
      <defs>
       <path id="DejaVuSans-7a" d="M 353 3500 
L 3084 3500 
L 3084 2975 
L 922 459 
L 3084 459 
L 3084 0 
L 275 0 
L 275 525 
L 2438 3041 
L 353 3041 
L 353 3500 
z
" transform="scale(0.015625)"/>
       <path id="DejaVuSans-79" d="M 2059 -325 
Q 1816 -950 1584 -1140 
Q 1353 -1331 966 -1331 
L 506 -1331 
L 506 -850 
L 844 -850 
Q 1081 -850 1212 -737 
Q 1344 -625 1503 -206 
L 1606 56 
L 191 3500 
L 800 3500 
L 1894 763 
L 2988 3500 
L 3597 3500 
L 2059 -325 
z
" transform="scale(0.015625)"/>
      </defs>
      <use xlink:href="#DejaVuSans-61"/>
      <use xlink:href="#DejaVuSans-7a" x="61.279297"/>
      <use xlink:href="#DejaVuSans-75" x="113.769531"/>
      <use xlink:href="#DejaVuSans-72" x="177.148438"/>
      <use xlink:href="#DejaVuSans-65" x="216.011719"/>
      <use xlink:href="#DejaVuSans-2f" x="277.535156"/>
      <use xlink:href="#DejaVuSans-63" x="311.226562"/>
      <use xlink:href="#DejaVuSans-79" x="366.207031"/>
      <use xlink:href="#DejaVuSans-63" x="425.386719"/>
      <use xlink:href="#DejaVuSans-6c" x="480.367188"/>
      <use xlink:href="#DejaVuSans-65" x="508.150391"/>
      <use xlink:href="#DejaVuSans-63" x="569.673828"/>
      <use xlink:href="#DejaVuSans-6c" x="624.654297"/>
      <use xlink:href="#DejaVuSans-6f" x="652.4375"/>
      <use xlink:href="#DejaVuSans-75" x="713.619141"/>
      <use xlink:href="#DejaVuSans-64" x="776.998047"/>
      <use xlink:href="#DejaVuSans-2f" x="840.474609"/>
      <use xlink:href="#DejaVuSans-67" x="874.166016"/>
      <use xlink:href="#DejaVuSans-70" x="937.642578"/>
      <use xlink:href="#DejaVuSans-75" x="1001.119141"/>
     </g>
    </g>
    <g id="line2d_17">
     <defs>
      <path id="m20f5da29a6" d="M -0 3.535534 
L 2.12132 0 
L -0 -3.535534 
L -2.12132 -0 
z
"/>
     </defs>
     <g>
      <use xlink:href="#m20f5da29a6" x="67.34" y="121.297969" style="fill: #008000"/>
     </g>
    </g>
    <g id="text_18">
     <!-- azure/aks/gpu -->
     <g style="fill: #262626" transform="translate(87.14 125.147969) scale(0.11 -0.11)">
      <use xlink:href="#DejaVuSans-61"/>
      <use xlink:href="#DejaVuSans-7a" x="61.279297"/>
      <use xlink:href="#DejaVuSans-75" x="113.769531"/>
      <use xlink:href="#DejaVuSans-72" x="177.148438"/>
      <use xlink:href="#DejaVuSans-65" x="216.011719"/>
      <use xlink:href="#DejaVuSans-2f" x="277.535156"/>
      <use xlink:href="#DejaVuSans-61" x="311.226562"/>
      <use xlink:href="#DejaVuSans-6b" x="372.505859"/>
      <use xlink:href="#DejaVuSans-73" x="430.416016"/>
      <use xlink:href="#DejaVuSans-2f" x="482.515625"/>
      <use xlink:href="#DejaVuSans-67" x="516.207031"/>
      <use xlink:href="#DejaVuSans-70" x="579.683594"/>
      <use xlink:href="#DejaVuSans-75" x="643.160156"/>
     </g>
    </g>
   </g>
  </g>
 </g>
 <defs>
  <clipPath id="p7675101473">
   <rect x="46.44" y="26.16" width="264.6" height="355.62"/>
  </clipPath>
 </defs>
</svg>
