<?xml version="1.0" encoding="utf-8" standalone="no"?>
<!DOCTYPE svg PUBLIC "-//W3C//DTD SVG 1.1//EN"
  "http://www.w3.org/Graphics/SVG/1.1/DTD/svg11.dtd">
<svg xmlns:xlink="http://www.w3.org/1999/xlink" width="1440pt" height="360pt" viewBox="0 0 1440 360" xmlns="http://www.w3.org/2000/svg" version="1.1">
 <metadata>
  <rdf:RDF xmlns:dc="http://purl.org/dc/elements/1.1/" xmlns:cc="http://creativecommons.org/ns#" xmlns:rdf="http://www.w3.org/1999/02/22-rdf-syntax-ns#">
   <cc:Work>
    <dc:type rdf:resource="http://purl.org/dc/dcmitype/StillImage"/>
    <dc:date>2025-04-07T21:28:16.605115</dc:date>
    <dc:format>image/svg+xml</dc:format>
    <dc:creator>
     <cc:Agent>
      <dc:title>Matplotlib v3.8.4, https://matplotlib.org/</dc:title>
     </cc:Agent>
    </dc:creator>
   </cc:Work>
  </rdf:RDF>
 </metadata>
 <defs>
  <style type="text/css">*{stroke-linejoin: round; stroke-linecap: butt}</style>
 </defs>
 <g id="figure_1">
  <g id="patch_1">
   <path d="M 0 360 
L 1440 360 
L 1440 0 
L 0 0 
z
" style="fill: #ffffff"/>
  </g>
  <g id="axes_1">
   <g id="patch_2">
    <path d="M 47.16 309.06 
L 730.62 309.06 
L 730.62 29.76 
L 47.16 29.76 
z
" style="fill: #ffffff"/>
   </g>
   <g id="matplotlib.axis_1">
    <g id="xtick_1">
     <g id="text_1">
      <!-- 32 -->
      <g style="fill: #262626" transform="translate(125.59375 326.918281) scale(0.11 -0.11)">
       <defs>
        <path id="DejaVuSans-33" d="M 2597 2516 
Q 3050 2419 3304 2112 
Q 3559 1806 3559 1356 
Q 3559 666 3084 287 
Q 2609 -91 1734 -91 
Q 1441 -91 1130 -33 
Q 819 25 488 141 
L 488 750 
Q 750 597 1062 519 
Q 1375 441 1716 441 
Q 2309 441 2620 675 
Q 2931 909 2931 1356 
Q 2931 1769 2642 2001 
Q 2353 2234 1838 2234 
L 1294 2234 
L 1294 2753 
L 1863 2753 
Q 2328 2753 2575 2939 
Q 2822 3125 2822 3475 
Q 2822 3834 2567 4026 
Q 2313 4219 1838 4219 
Q 1578 4219 1281 4162 
Q 984 4106 628 3988 
L 628 4550 
Q 988 4650 1302 4700 
Q 1616 4750 1894 4750 
Q 2613 4750 3031 4423 
Q 3450 4097 3450 3541 
Q 3450 3153 3228 2886 
Q 3006 2619 2597 2516 
z
" transform="scale(0.015625)"/>
        <path id="DejaVuSans-32" d="M 1228 531 
L 3431 531 
L 3431 0 
L 469 0 
L 469 531 
Q 828 903 1448 1529 
Q 2069 2156 2228 2338 
Q 2531 2678 2651 2914 
Q 2772 3150 2772 3378 
Q 2772 3750 2511 3984 
Q 2250 4219 1831 4219 
Q 1534 4219 1204 4116 
Q 875 4013 500 3803 
L 500 4441 
Q 881 4594 1212 4672 
Q 1544 4750 1819 4750 
Q 2544 4750 2975 4387 
Q 3406 4025 3406 3419 
Q 3406 3131 3298 2873 
Q 3191 2616 2906 2266 
Q 2828 2175 2409 1742 
Q 1991 1309 1228 531 
z
" transform="scale(0.015625)"/>
       </defs>
       <use xlink:href="#DejaVuSans-33"/>
       <use xlink:href="#DejaVuSans-32" x="63.623047"/>
      </g>
     </g>
    </g>
    <g id="xtick_2">
     <g id="text_2">
      <!-- 64 -->
      <g style="fill: #262626" transform="translate(296.45875 326.918281) scale(0.11 -0.11)">
       <defs>
        <path id="DejaVuSans-36" d="M 2113 2584 
Q 1688 2584 1439 2293 
Q 1191 2003 1191 1497 
Q 1191 994 1439 701 
Q 1688 409 2113 409 
Q 2538 409 2786 701 
Q 3034 994 3034 1497 
Q 3034 2003 2786 2293 
Q 2538 2584 2113 2584 
z
M 3366 4563 
L 3366 3988 
Q 3128 4100 2886 4159 
Q 2644 4219 2406 4219 
Q 1781 4219 1451 3797 
Q 1122 3375 1075 2522 
Q 1259 2794 1537 2939 
Q 1816 3084 2150 3084 
Q 2853 3084 3261 2657 
Q 3669 2231 3669 1497 
Q 3669 778 3244 343 
Q 2819 -91 2113 -91 
Q 1303 -91 875 529 
Q 447 1150 447 2328 
Q 447 3434 972 4092 
Q 1497 4750 2381 4750 
Q 2619 4750 2861 4703 
Q 3103 4656 3366 4563 
z
" transform="scale(0.015625)"/>
        <path id="DejaVuSans-34" d="M 2419 4116 
L 825 1625 
L 2419 1625 
L 2419 4116 
z
M 2253 4666 
L 3047 4666 
L 3047 1625 
L 3713 1625 
L 3713 1100 
L 3047 1100 
L 3047 0 
L 2419 0 
L 2419 1100 
L 313 1100 
L 313 1709 
L 2253 4666 
z
" transform="scale(0.015625)"/>
       </defs>
       <use xlink:href="#DejaVuSans-36"/>
       <use xlink:href="#DejaVuSans-34" x="63.623047"/>
      </g>
     </g>
    </g>
    <g id="xtick_3">
     <g id="text_3">
      <!-- 128 -->
      <g style="fill: #262626" transform="translate(463.824375 326.918281) scale(0.11 -0.11)">
       <defs>
        <path id="DejaVuSans-31" d="M 794 531 
L 1825 531 
L 1825 4091 
L 703 3866 
L 703 4441 
L 1819 4666 
L 2450 4666 
L 2450 531 
L 3481 531 
L 3481 0 
L 794 0 
L 794 531 
z
" transform="scale(0.015625)"/>
        <path id="DejaVuSans-38" d="M 2034 2216 
Q 1584 2216 1326 1975 
Q 1069 1734 1069 1313 
Q 1069 891 1326 650 
Q 1584 409 2034 409 
Q 2484 409 2743 651 
Q 3003 894 3003 1313 
Q 3003 1734 2745 1975 
Q 2488 2216 2034 2216 
z
M 1403 2484 
Q 997 2584 770 2862 
Q 544 3141 544 3541 
Q 544 4100 942 4425 
Q 1341 4750 2034 4750 
Q 2731 4750 3128 4425 
Q 3525 4100 3525 3541 
Q 3525 3141 3298 2862 
Q 3072 2584 2669 2484 
Q 3125 2378 3379 2068 
Q 3634 1759 3634 1313 
Q 3634 634 3220 271 
Q 2806 -91 2034 -91 
Q 1263 -91 848 271 
Q 434 634 434 1313 
Q 434 1759 690 2068 
Q 947 2378 1403 2484 
z
M 1172 3481 
Q 1172 3119 1398 2916 
Q 1625 2713 2034 2713 
Q 2441 2713 2670 2916 
Q 2900 3119 2900 3481 
Q 2900 3844 2670 4047 
Q 2441 4250 2034 4250 
Q 1625 4250 1398 4047 
Q 1172 3844 1172 3481 
z
" transform="scale(0.015625)"/>
       </defs>
       <use xlink:href="#DejaVuSans-31"/>
       <use xlink:href="#DejaVuSans-32" x="63.623047"/>
       <use xlink:href="#DejaVuSans-38" x="127.246094"/>
      </g>
     </g>
    </g>
    <g id="xtick_4">
     <g id="text_4">
      <!-- 256 -->
      <g style="fill: #262626" transform="translate(634.689375 326.918281) scale(0.11 -0.11)">
       <defs>
        <path id="DejaVuSans-35" d="M 691 4666 
L 3169 4666 
L 3169 4134 
L 1269 4134 
L 1269 2991 
Q 1406 3038 1543 3061 
Q 1681 3084 1819 3084 
Q 2600 3084 3056 2656 
Q 3513 2228 3513 1497 
Q 3513 744 3044 326 
Q 2575 -91 1722 -91 
Q 1428 -91 1123 -41 
Q 819 9 494 109 
L 494 744 
Q 775 591 1075 516 
Q 1375 441 1709 441 
Q 2250 441 2565 725 
Q 2881 1009 2881 1497 
Q 2881 1984 2565 2268 
Q 2250 2553 1709 2553 
Q 1456 2553 1204 2497 
Q 953 2441 691 2322 
L 691 4666 
z
" transform="scale(0.015625)"/>
       </defs>
       <use xlink:href="#DejaVuSans-32"/>
       <use xlink:href="#DejaVuSans-35" x="63.623047"/>
       <use xlink:href="#DejaVuSans-36" x="127.246094"/>
      </g>
     </g>
    </g>
    <g id="text_5">
     <!-- Nodes -->
     <g style="fill: #262626" transform="translate(366.972344 343.84375) scale(0.14 -0.14)">
      <defs>
       <path id="DejaVuSans-4e" d="M 628 4666 
L 1478 4666 
L 3547 763 
L 3547 4666 
L 4159 4666 
L 4159 0 
L 3309 0 
L 1241 3903 
L 1241 0 
L 628 0 
L 628 4666 
z
" transform="scale(0.015625)"/>
       <path id="DejaVuSans-6f" d="M 1959 3097 
Q 1497 3097 1228 2736 
Q 959 2375 959 1747 
Q 959 1119 1226 758 
Q 1494 397 1959 397 
Q 2419 397 2687 759 
Q 2956 1122 2956 1747 
Q 2956 2369 2687 2733 
Q 2419 3097 1959 3097 
z
M 1959 3584 
Q 2709 3584 3137 3096 
Q 3566 2609 3566 1747 
Q 3566 888 3137 398 
Q 2709 -91 1959 -91 
Q 1206 -91 779 398 
Q 353 888 353 1747 
Q 353 2609 779 3096 
Q 1206 3584 1959 3584 
z
" transform="scale(0.015625)"/>
       <path id="DejaVuSans-64" d="M 2906 2969 
L 2906 4863 
L 3481 4863 
L 3481 0 
L 2906 0 
L 2906 525 
Q 2725 213 2448 61 
Q 2172 -91 1784 -91 
Q 1150 -91 751 415 
Q 353 922 353 1747 
Q 353 2572 751 3078 
Q 1150 3584 1784 3584 
Q 2172 3584 2448 3432 
Q 2725 3281 2906 2969 
z
M 947 1747 
Q 947 1113 1208 752 
Q 1469 391 1925 391 
Q 2381 391 2643 752 
Q 2906 1113 2906 1747 
Q 2906 2381 2643 2742 
Q 2381 3103 1925 3103 
Q 1469 3103 1208 2742 
Q 947 2381 947 1747 
z
" transform="scale(0.015625)"/>
       <path id="DejaVuSans-65" d="M 3597 1894 
L 3597 1613 
L 953 1613 
Q 991 1019 1311 708 
Q 1631 397 2203 397 
Q 2534 397 2845 478 
Q 3156 559 3463 722 
L 3463 178 
Q 3153 47 2828 -22 
Q 2503 -91 2169 -91 
Q 1331 -91 842 396 
Q 353 884 353 1716 
Q 353 2575 817 3079 
Q 1281 3584 2069 3584 
Q 2775 3584 3186 3129 
Q 3597 2675 3597 1894 
z
M 3022 2063 
Q 3016 2534 2758 2815 
Q 2500 3097 2075 3097 
Q 1594 3097 1305 2825 
Q 1016 2553 972 2059 
L 3022 2063 
z
" transform="scale(0.015625)"/>
       <path id="DejaVuSans-73" d="M 2834 3397 
L 2834 2853 
Q 2591 2978 2328 3040 
Q 2066 3103 1784 3103 
Q 1356 3103 1142 2972 
Q 928 2841 928 2578 
Q 928 2378 1081 2264 
Q 1234 2150 1697 2047 
L 1894 2003 
Q 2506 1872 2764 1633 
Q 3022 1394 3022 966 
Q 3022 478 2636 193 
Q 2250 -91 1575 -91 
Q 1294 -91 989 -36 
Q 684 19 347 128 
L 347 722 
Q 666 556 975 473 
Q 1284 391 1588 391 
Q 1994 391 2212 530 
Q 2431 669 2431 922 
Q 2431 1156 2273 1281 
Q 2116 1406 1581 1522 
L 1381 1569 
Q 847 1681 609 1914 
Q 372 2147 372 2553 
Q 372 3047 722 3315 
Q 1072 3584 1716 3584 
Q 2034 3584 2315 3537 
Q 2597 3491 2834 3397 
z
" transform="scale(0.015625)"/>
      </defs>
      <use xlink:href="#DejaVuSans-4e"/>
      <use xlink:href="#DejaVuSans-6f" x="74.804688"/>
      <use xlink:href="#DejaVuSans-64" x="135.986328"/>
      <use xlink:href="#DejaVuSans-65" x="199.462891"/>
      <use xlink:href="#DejaVuSans-73" x="260.986328"/>
     </g>
    </g>
   </g>
   <g id="matplotlib.axis_2">
    <g id="ytick_1">
     <g id="line2d_1">
      <path d="M 47.16 309.06 
L 730.62 309.06 
" clip-path="url(#p798ce7d049)" style="fill: none; stroke: #cccccc; stroke-linecap: round"/>
     </g>
     <g id="text_6">
      <!-- 0 -->
      <g style="fill: #262626" transform="translate(30.66125 313.239141) scale(0.11 -0.11)">
       <defs>
        <path id="DejaVuSans-30" d="M 2034 4250 
Q 1547 4250 1301 3770 
Q 1056 3291 1056 2328 
Q 1056 1369 1301 889 
Q 1547 409 2034 409 
Q 2525 409 2770 889 
Q 3016 1369 3016 2328 
Q 3016 3291 2770 3770 
Q 2525 4250 2034 4250 
z
M 2034 4750 
Q 2819 4750 3233 4129 
Q 3647 3509 3647 2328 
Q 3647 1150 3233 529 
Q 2819 -91 2034 -91 
Q 1250 -91 836 529 
Q 422 1150 422 2328 
Q 422 3509 836 4129 
Q 1250 4750 2034 4750 
z
" transform="scale(0.015625)"/>
       </defs>
       <use xlink:href="#DejaVuSans-30"/>
      </g>
     </g>
    </g>
    <g id="ytick_2">
     <g id="line2d_2">
      <path d="M 47.16 275.293347 
L 730.62 275.293347 
" clip-path="url(#p798ce7d049)" style="fill: none; stroke: #cccccc; stroke-linecap: round"/>
     </g>
     <g id="text_7">
      <!-- 1 -->
      <g style="fill: #262626" transform="translate(30.66125 279.472487) scale(0.11 -0.11)">
       <use xlink:href="#DejaVuSans-31"/>
      </g>
     </g>
    </g>
    <g id="ytick_3">
     <g id="line2d_3">
      <path d="M 47.16 241.526693 
L 730.62 241.526693 
" clip-path="url(#p798ce7d049)" style="fill: none; stroke: #cccccc; stroke-linecap: round"/>
     </g>
     <g id="text_8">
      <!-- 2 -->
      <g style="fill: #262626" transform="translate(30.66125 245.705834) scale(0.11 -0.11)">
       <use xlink:href="#DejaVuSans-32"/>
      </g>
     </g>
    </g>
    <g id="ytick_4">
     <g id="line2d_4">
      <path d="M 47.16 207.76004 
L 730.62 207.76004 
" clip-path="url(#p798ce7d049)" style="fill: none; stroke: #cccccc; stroke-linecap: round"/>
     </g>
     <g id="text_9">
      <!-- 3 -->
      <g style="fill: #262626" transform="translate(30.66125 211.93918) scale(0.11 -0.11)">
       <use xlink:href="#DejaVuSans-33"/>
      </g>
     </g>
    </g>
    <g id="ytick_5">
     <g id="line2d_5">
      <path d="M 47.16 173.993386 
L 730.62 173.993386 
" clip-path="url(#p798ce7d049)" style="fill: none; stroke: #cccccc; stroke-linecap: round"/>
     </g>
     <g id="text_10">
      <!-- 4 -->
      <g style="fill: #262626" transform="translate(30.66125 178.172527) scale(0.11 -0.11)">
       <use xlink:href="#DejaVuSans-34"/>
      </g>
     </g>
    </g>
    <g id="ytick_6">
     <g id="line2d_6">
      <path d="M 47.16 140.226733 
L 730.62 140.226733 
" clip-path="url(#p798ce7d049)" style="fill: none; stroke: #cccccc; stroke-linecap: round"/>
     </g>
     <g id="text_11">
      <!-- 5 -->
      <g style="fill: #262626" transform="translate(30.66125 144.405873) scale(0.11 -0.11)">
       <use xlink:href="#DejaVuSans-35"/>
      </g>
     </g>
    </g>
    <g id="ytick_7">
     <g id="line2d_7">
      <path d="M 47.16 106.460079 
L 730.62 106.460079 
" clip-path="url(#p798ce7d049)" style="fill: none; stroke: #cccccc; stroke-linecap: round"/>
     </g>
     <g id="text_12">
      <!-- 6 -->
      <g style="fill: #262626" transform="translate(30.66125 110.63922) scale(0.11 -0.11)">
       <use xlink:href="#DejaVuSans-36"/>
      </g>
     </g>
    </g>
    <g id="ytick_8">
     <g id="line2d_8">
      <path d="M 47.16 72.693426 
L 730.62 72.693426 
" clip-path="url(#p798ce7d049)" style="fill: none; stroke: #cccccc; stroke-linecap: round"/>
     </g>
     <g id="text_13">
      <!-- 7 -->
      <g style="fill: #262626" transform="translate(30.66125 76.872567) scale(0.11 -0.11)">
       <defs>
        <path id="DejaVuSans-37" d="M 525 4666 
L 3525 4666 
L 3525 4397 
L 1831 0 
L 1172 0 
L 2766 4134 
L 525 4134 
L 525 4666 
z
" transform="scale(0.015625)"/>
       </defs>
       <use xlink:href="#DejaVuSans-37"/>
      </g>
     </g>
    </g>
    <g id="ytick_9">
     <g id="line2d_9">
      <path d="M 47.16 38.926773 
L 730.62 38.926773 
" clip-path="url(#p798ce7d049)" style="fill: none; stroke: #cccccc; stroke-linecap: round"/>
     </g>
     <g id="text_14">
      <!-- 8 -->
      <g style="fill: #262626" transform="translate(30.66125 43.105913) scale(0.11 -0.11)">
       <use xlink:href="#DejaVuSans-38"/>
      </g>
     </g>
    </g>
    <g id="text_15">
     <!-- FOM Overall (logscale) -->
     <g style="fill: #262626" transform="translate(23.749687 248.62375) rotate(-90) scale(0.14 -0.14)">
      <defs>
       <path id="DejaVuSans-46" d="M 628 4666 
L 3309 4666 
L 3309 4134 
L 1259 4134 
L 1259 2759 
L 3109 2759 
L 3109 2228 
L 1259 2228 
L 1259 0 
L 628 0 
L 628 4666 
z
" transform="scale(0.015625)"/>
       <path id="DejaVuSans-4f" d="M 2522 4238 
Q 1834 4238 1429 3725 
Q 1025 3213 1025 2328 
Q 1025 1447 1429 934 
Q 1834 422 2522 422 
Q 3209 422 3611 934 
Q 4013 1447 4013 2328 
Q 4013 3213 3611 3725 
Q 3209 4238 2522 4238 
z
M 2522 4750 
Q 3503 4750 4090 4092 
Q 4678 3434 4678 2328 
Q 4678 1225 4090 567 
Q 3503 -91 2522 -91 
Q 1538 -91 948 565 
Q 359 1222 359 2328 
Q 359 3434 948 4092 
Q 1538 4750 2522 4750 
z
" transform="scale(0.015625)"/>
       <path id="DejaVuSans-4d" d="M 628 4666 
L 1569 4666 
L 2759 1491 
L 3956 4666 
L 4897 4666 
L 4897 0 
L 4281 0 
L 4281 4097 
L 3078 897 
L 2444 897 
L 1241 4097 
L 1241 0 
L 628 0 
L 628 4666 
z
" transform="scale(0.015625)"/>
       <path id="DejaVuSans-20" transform="scale(0.015625)"/>
       <path id="DejaVuSans-76" d="M 191 3500 
L 800 3500 
L 1894 563 
L 2988 3500 
L 3597 3500 
L 2284 0 
L 1503 0 
L 191 3500 
z
" transform="scale(0.015625)"/>
       <path id="DejaVuSans-72" d="M 2631 2963 
Q 2534 3019 2420 3045 
Q 2306 3072 2169 3072 
Q 1681 3072 1420 2755 
Q 1159 2438 1159 1844 
L 1159 0 
L 581 0 
L 581 3500 
L 1159 3500 
L 1159 2956 
Q 1341 3275 1631 3429 
Q 1922 3584 2338 3584 
Q 2397 3584 2469 3576 
Q 2541 3569 2628 3553 
L 2631 2963 
z
" transform="scale(0.015625)"/>
       <path id="DejaVuSans-61" d="M 2194 1759 
Q 1497 1759 1228 1600 
Q 959 1441 959 1056 
Q 959 750 1161 570 
Q 1363 391 1709 391 
Q 2188 391 2477 730 
Q 2766 1069 2766 1631 
L 2766 1759 
L 2194 1759 
z
M 3341 1997 
L 3341 0 
L 2766 0 
L 2766 531 
Q 2569 213 2275 61 
Q 1981 -91 1556 -91 
Q 1019 -91 701 211 
Q 384 513 384 1019 
Q 384 1609 779 1909 
Q 1175 2209 1959 2209 
L 2766 2209 
L 2766 2266 
Q 2766 2663 2505 2880 
Q 2244 3097 1772 3097 
Q 1472 3097 1187 3025 
Q 903 2953 641 2809 
L 641 3341 
Q 956 3463 1253 3523 
Q 1550 3584 1831 3584 
Q 2591 3584 2966 3190 
Q 3341 2797 3341 1997 
z
" transform="scale(0.015625)"/>
       <path id="DejaVuSans-6c" d="M 603 4863 
L 1178 4863 
L 1178 0 
L 603 0 
L 603 4863 
z
" transform="scale(0.015625)"/>
       <path id="DejaVuSans-28" d="M 1984 4856 
Q 1566 4138 1362 3434 
Q 1159 2731 1159 2009 
Q 1159 1288 1364 580 
Q 1569 -128 1984 -844 
L 1484 -844 
Q 1016 -109 783 600 
Q 550 1309 550 2009 
Q 550 2706 781 3412 
Q 1013 4119 1484 4856 
L 1984 4856 
z
" transform="scale(0.015625)"/>
       <path id="DejaVuSans-67" d="M 2906 1791 
Q 2906 2416 2648 2759 
Q 2391 3103 1925 3103 
Q 1463 3103 1205 2759 
Q 947 2416 947 1791 
Q 947 1169 1205 825 
Q 1463 481 1925 481 
Q 2391 481 2648 825 
Q 2906 1169 2906 1791 
z
M 3481 434 
Q 3481 -459 3084 -895 
Q 2688 -1331 1869 -1331 
Q 1566 -1331 1297 -1286 
Q 1028 -1241 775 -1147 
L 775 -588 
Q 1028 -725 1275 -790 
Q 1522 -856 1778 -856 
Q 2344 -856 2625 -561 
Q 2906 -266 2906 331 
L 2906 616 
Q 2728 306 2450 153 
Q 2172 0 1784 0 
Q 1141 0 747 490 
Q 353 981 353 1791 
Q 353 2603 747 3093 
Q 1141 3584 1784 3584 
Q 2172 3584 2450 3431 
Q 2728 3278 2906 2969 
L 2906 3500 
L 3481 3500 
L 3481 434 
z
" transform="scale(0.015625)"/>
       <path id="DejaVuSans-63" d="M 3122 3366 
L 3122 2828 
Q 2878 2963 2633 3030 
Q 2388 3097 2138 3097 
Q 1578 3097 1268 2742 
Q 959 2388 959 1747 
Q 959 1106 1268 751 
Q 1578 397 2138 397 
Q 2388 397 2633 464 
Q 2878 531 3122 666 
L 3122 134 
Q 2881 22 2623 -34 
Q 2366 -91 2075 -91 
Q 1284 -91 818 406 
Q 353 903 353 1747 
Q 353 2603 823 3093 
Q 1294 3584 2113 3584 
Q 2378 3584 2631 3529 
Q 2884 3475 3122 3366 
z
" transform="scale(0.015625)"/>
       <path id="DejaVuSans-29" d="M 513 4856 
L 1013 4856 
Q 1481 4119 1714 3412 
Q 1947 2706 1947 2009 
Q 1947 1309 1714 600 
Q 1481 -109 1013 -844 
L 513 -844 
Q 928 -128 1133 580 
Q 1338 1288 1338 2009 
Q 1338 2731 1133 3434 
Q 928 4138 513 4856 
z
" transform="scale(0.015625)"/>
      </defs>
      <use xlink:href="#DejaVuSans-46"/>
      <use xlink:href="#DejaVuSans-4f" x="57.519531"/>
      <use xlink:href="#DejaVuSans-4d" x="136.230469"/>
      <use xlink:href="#DejaVuSans-20" x="222.509766"/>
      <use xlink:href="#DejaVuSans-4f" x="254.296875"/>
      <use xlink:href="#DejaVuSans-76" x="333.007812"/>
      <use xlink:href="#DejaVuSans-65" x="392.1875"/>
      <use xlink:href="#DejaVuSans-72" x="453.710938"/>
      <use xlink:href="#DejaVuSans-61" x="494.824219"/>
      <use xlink:href="#DejaVuSans-6c" x="556.103516"/>
      <use xlink:href="#DejaVuSans-6c" x="583.886719"/>
      <use xlink:href="#DejaVuSans-20" x="611.669922"/>
      <use xlink:href="#DejaVuSans-28" x="643.457031"/>
      <use xlink:href="#DejaVuSans-6c" x="682.470703"/>
      <use xlink:href="#DejaVuSans-6f" x="710.253906"/>
      <use xlink:href="#DejaVuSans-67" x="771.435547"/>
      <use xlink:href="#DejaVuSans-73" x="834.912109"/>
      <use xlink:href="#DejaVuSans-63" x="887.011719"/>
      <use xlink:href="#DejaVuSans-61" x="941.992188"/>
      <use xlink:href="#DejaVuSans-6c" x="1003.271484"/>
      <use xlink:href="#DejaVuSans-65" x="1031.054688"/>
      <use xlink:href="#DejaVuSans-29" x="1092.578125"/>
     </g>
    </g>
    <g id="text_16">
     <!-- 1e9 -->
     <g style="fill: #262626" transform="translate(47.16 26.76) scale(0.11 -0.11)">
      <defs>
       <path id="DejaVuSans-39" d="M 703 97 
L 703 672 
Q 941 559 1184 500 
Q 1428 441 1663 441 
Q 2288 441 2617 861 
Q 2947 1281 2994 2138 
Q 2813 1869 2534 1725 
Q 2256 1581 1919 1581 
Q 1219 1581 811 2004 
Q 403 2428 403 3163 
Q 403 3881 828 4315 
Q 1253 4750 1959 4750 
Q 2769 4750 3195 4129 
Q 3622 3509 3622 2328 
Q 3622 1225 3098 567 
Q 2575 -91 1691 -91 
Q 1453 -91 1209 -44 
Q 966 3 703 97 
z
M 1959 2075 
Q 2384 2075 2632 2365 
Q 2881 2656 2881 3163 
Q 2881 3666 2632 3958 
Q 2384 4250 1959 4250 
Q 1534 4250 1286 3958 
Q 1038 3666 1038 3163 
Q 1038 2656 1286 2365 
Q 1534 2075 1959 2075 
z
" transform="scale(0.015625)"/>
      </defs>
      <use xlink:href="#DejaVuSans-31"/>
      <use xlink:href="#DejaVuSans-65" x="63.623047"/>
      <use xlink:href="#DejaVuSans-39" x="125.146484"/>
     </g>
    </g>
   </g>
   <g id="patch_3">
    <path d="M 64.2465 309.06 
L 83.773929 309.06 
L 83.773929 297.24007 
L 64.2465 297.24007 
z
" clip-path="url(#p798ce7d049)" style="fill: #dcad23; stroke: #ffffff; stroke-linejoin: miter"/>
   </g>
   <g id="patch_4">
    <path d="M 235.1115 309.06 
L 254.638929 309.06 
L 254.638929 270.214788 
L 235.1115 270.214788 
z
" clip-path="url(#p798ce7d049)" style="fill: #dcad23; stroke: #ffffff; stroke-linejoin: miter"/>
   </g>
   <g id="patch_5">
    <path d="M 405.9765 309.06 
L 425.503929 309.06 
L 425.503929 283.22838 
L 405.9765 283.22838 
z
" clip-path="url(#p798ce7d049)" style="fill: #dcad23; stroke: #ffffff; stroke-linejoin: miter"/>
   </g>
   <g id="patch_6">
    <path d="M 576.8415 309.06 
L 596.368929 309.06 
L 596.368929 259.136948 
L 576.8415 259.136948 
z
" clip-path="url(#p798ce7d049)" style="fill: #dcad23; stroke: #ffffff; stroke-linejoin: miter"/>
   </g>
   <g id="patch_7">
    <path d="M 83.773929 309.06 
L 103.301357 309.06 
L 103.301357 297.29666 
L 83.773929 297.29666 
z
" clip-path="url(#p798ce7d049)" style="fill: #d3564c; stroke: #ffffff; stroke-linejoin: miter"/>
   </g>
   <g id="patch_8">
    <path d="M 254.638929 309.06 
L 274.166357 309.06 
L 274.166357 286.782248 
L 254.638929 286.782248 
z
" clip-path="url(#p798ce7d049)" style="fill: #d3564c; stroke: #ffffff; stroke-linejoin: miter"/>
   </g>
   <g id="patch_9">
    <path d="M 425.503929 309.06 
L 445.031357 309.06 
L 445.031357 267.598899 
L 425.503929 267.598899 
z
" clip-path="url(#p798ce7d049)" style="fill: #d3564c; stroke: #ffffff; stroke-linejoin: miter"/>
   </g>
   <g id="patch_10">
    <path d="M 596.368929 309.06 
L 615.896357 309.06 
L 615.896357 231.964173 
L 596.368929 231.964173 
z
" clip-path="url(#p798ce7d049)" style="fill: #d3564c; stroke: #ffffff; stroke-linejoin: miter"/>
   </g>
   <g id="patch_11">
    <path d="M 103.301357 309.06 
L 122.828786 309.06 
L 122.828786 293.478144 
L 103.301357 293.478144 
z
" clip-path="url(#p798ce7d049)" style="fill: #b35919; stroke: #ffffff; stroke-linejoin: miter"/>
   </g>
   <g id="patch_12">
    <path d="M 274.166357 309.06 
L 293.693786 309.06 
L 293.693786 266.339619 
L 274.166357 266.339619 
z
" clip-path="url(#p798ce7d049)" style="fill: #b35919; stroke: #ffffff; stroke-linejoin: miter"/>
   </g>
   <g id="patch_13">
    <path d="M 445.031357 309.06 
L 464.558786 309.06 
L 464.558786 236.099939 
L 445.031357 236.099939 
z
" clip-path="url(#p798ce7d049)" style="fill: #b35919; stroke: #ffffff; stroke-linejoin: miter"/>
   </g>
   <g id="patch_14">
    <path d="M 615.896357 309.06 
L 635.423786 309.06 
L 635.423786 171.971669 
L 615.896357 171.971669 
z
" clip-path="url(#p798ce7d049)" style="fill: #b35919; stroke: #ffffff; stroke-linejoin: miter"/>
   </g>
   <g id="patch_15">
    <path d="M 122.828786 309.06 
L 142.356214 309.06 
L 142.356214 287.198881 
L 122.828786 287.198881 
z
" clip-path="url(#p798ce7d049)" style="fill: #df9320; stroke: #ffffff; stroke-linejoin: miter"/>
   </g>
   <g id="patch_16">
    <path d="M 293.693786 309.06 
L 313.221214 309.06 
L 313.221214 266.60002 
L 293.693786 266.60002 
z
" clip-path="url(#p798ce7d049)" style="fill: #df9320; stroke: #ffffff; stroke-linejoin: miter"/>
   </g>
   <g id="patch_17">
    <path d="M 464.558786 309.06 
L 484.086214 309.06 
L 484.086214 234.292235 
L 464.558786 234.292235 
z
" clip-path="url(#p798ce7d049)" style="fill: #df9320; stroke: #ffffff; stroke-linejoin: miter"/>
   </g>
   <g id="patch_18">
    <path d="M 635.423786 309.06 
L 654.951214 309.06 
L 654.951214 164.275289 
L 635.423786 164.275289 
z
" clip-path="url(#p798ce7d049)" style="fill: #df9320; stroke: #ffffff; stroke-linejoin: miter"/>
   </g>
   <g id="patch_19">
    <path d="M 142.356214 309.06 
L 161.883643 309.06 
L 161.883643 283.59207 
L 142.356214 283.59207 
z
" clip-path="url(#p798ce7d049)" style="fill: #114578; stroke: #ffffff; stroke-linejoin: miter"/>
   </g>
   <g id="patch_20">
    <path d="M 313.221214 309.06 
L 332.748643 309.06 
L 332.748643 260.041618 
L 313.221214 260.041618 
z
" clip-path="url(#p798ce7d049)" style="fill: #114578; stroke: #ffffff; stroke-linejoin: miter"/>
   </g>
   <g id="patch_21">
    <path d="M 484.086214 309.06 
L 503.613643 309.06 
L 503.613643 231.491737 
L 484.086214 231.491737 
z
" clip-path="url(#p798ce7d049)" style="fill: #114578; stroke: #ffffff; stroke-linejoin: miter"/>
   </g>
   <g id="patch_22">
    <path d="M 654.951214 309.06 
L 674.478643 309.06 
L 674.478643 149.056213 
L 654.951214 149.056213 
z
" clip-path="url(#p798ce7d049)" style="fill: #114578; stroke: #ffffff; stroke-linejoin: miter"/>
   </g>
   <g id="patch_23">
    <path d="M 161.883643 309.06 
L 181.411071 309.06 
L 181.411071 280.713116 
L 161.883643 280.713116 
z
" clip-path="url(#p798ce7d049)" style="fill: #2080df; stroke: #ffffff; stroke-linejoin: miter"/>
   </g>
   <g id="patch_24">
    <path d="M 332.748643 309.06 
L 352.276071 309.06 
L 352.276071 252.776584 
L 332.748643 252.776584 
z
" clip-path="url(#p798ce7d049)" style="fill: #2080df; stroke: #ffffff; stroke-linejoin: miter"/>
   </g>
   <g id="patch_25">
    <path d="M 503.613643 309.06 
L 523.141071 309.06 
L 523.141071 208.758742 
L 503.613643 208.758742 
z
" clip-path="url(#p798ce7d049)" style="fill: #2080df; stroke: #ffffff; stroke-linejoin: miter"/>
   </g>
   <g id="patch_26">
    <path d="M 674.478643 309.06 
L 694.006071 309.06 
L 694.006071 132.303607 
L 674.478643 132.303607 
z
" clip-path="url(#p798ce7d049)" style="fill: #2080df; stroke: #ffffff; stroke-linejoin: miter"/>
   </g>
   <g id="patch_27">
    <path d="M 181.411071 309.06 
L 200.9385 309.06 
L 200.9385 271.53894 
L 181.411071 271.53894 
z
" clip-path="url(#p798ce7d049)" style="fill: #808080; stroke: #ffffff; stroke-linejoin: miter"/>
   </g>
   <g id="patch_28">
    <path d="M 352.276071 309.06 
L 371.8035 309.06 
L 371.8035 240.009395 
L 352.276071 240.009395 
z
" clip-path="url(#p798ce7d049)" style="fill: #808080; stroke: #ffffff; stroke-linejoin: miter"/>
   </g>
   <g id="patch_29">
    <path d="M 523.141071 309.06 
L 542.6685 309.06 
L 542.6685 172.348626 
L 523.141071 172.348626 
z
" clip-path="url(#p798ce7d049)" style="fill: #808080; stroke: #ffffff; stroke-linejoin: miter"/>
   </g>
   <g id="patch_30">
    <path d="M 694.006071 309.06 
L 713.5335 309.06 
L 713.5335 44.358071 
L 694.006071 44.358071 
z
" clip-path="url(#p798ce7d049)" style="fill: #808080; stroke: #ffffff; stroke-linejoin: miter"/>
   </g>
   <g id="patch_31">
    <path d="M 132.5925 309.06 
L 132.5925 309.06 
L 132.5925 309.06 
L 132.5925 309.06 
z
" clip-path="url(#p798ce7d049)" style="fill: #dcad23; stroke: #ffffff; stroke-linejoin: miter"/>
   </g>
   <g id="patch_32">
    <path d="M 132.5925 309.06 
L 132.5925 309.06 
L 132.5925 309.06 
L 132.5925 309.06 
z
" clip-path="url(#p798ce7d049)" style="fill: #d3564c; stroke: #ffffff; stroke-linejoin: miter"/>
   </g>
   <g id="patch_33">
    <path d="M 132.5925 309.06 
L 132.5925 309.06 
L 132.5925 309.06 
L 132.5925 309.06 
z
" clip-path="url(#p798ce7d049)" style="fill: #b35919; stroke: #ffffff; stroke-linejoin: miter"/>
   </g>
   <g id="patch_34">
    <path d="M 132.5925 309.06 
L 132.5925 309.06 
L 132.5925 309.06 
L 132.5925 309.06 
z
" clip-path="url(#p798ce7d049)" style="fill: #df9320; stroke: #ffffff; stroke-linejoin: miter"/>
   </g>
   <g id="patch_35">
    <path d="M 132.5925 309.06 
L 132.5925 309.06 
L 132.5925 309.06 
L 132.5925 309.06 
z
" clip-path="url(#p798ce7d049)" style="fill: #114578; stroke: #ffffff; stroke-linejoin: miter"/>
   </g>
   <g id="patch_36">
    <path d="M 132.5925 309.06 
L 132.5925 309.06 
L 132.5925 309.06 
L 132.5925 309.06 
z
" clip-path="url(#p798ce7d049)" style="fill: #2080df; stroke: #ffffff; stroke-linejoin: miter"/>
   </g>
   <g id="patch_37">
    <path d="M 132.5925 309.06 
L 132.5925 309.06 
L 132.5925 309.06 
L 132.5925 309.06 
z
" clip-path="url(#p798ce7d049)" style="fill: #808080; stroke: #ffffff; stroke-linejoin: miter"/>
   </g>
   <g id="line2d_10">
    <path d="M 74.010214 297.26238 
L 74.010214 297.215993 
" clip-path="url(#p798ce7d049)" style="fill: none; stroke: #424242; stroke-width: 2.25; stroke-linecap: round"/>
   </g>
   <g id="line2d_11">
    <path d="M 244.875214 270.337671 
L 244.875214 270.061838 
" clip-path="url(#p798ce7d049)" style="fill: none; stroke: #424242; stroke-width: 2.25; stroke-linecap: round"/>
   </g>
   <g id="line2d_12">
    <path d="M 415.740214 283.242654 
L 415.740214 283.210284 
" clip-path="url(#p798ce7d049)" style="fill: none; stroke: #424242; stroke-width: 2.25; stroke-linecap: round"/>
   </g>
   <g id="line2d_13">
    <path d="M 586.605214 259.248986 
L 586.605214 259.024911 
" clip-path="url(#p798ce7d049)" style="fill: none; stroke: #424242; stroke-width: 2.25; stroke-linecap: round"/>
   </g>
   <g id="line2d_14">
    <path d="M 93.537643 297.345999 
L 93.537643 297.247658 
" clip-path="url(#p798ce7d049)" style="fill: none; stroke: #424242; stroke-width: 2.25; stroke-linecap: round"/>
   </g>
   <g id="line2d_15">
    <path d="M 264.402643 286.885006 
L 264.402643 286.678344 
" clip-path="url(#p798ce7d049)" style="fill: none; stroke: #424242; stroke-width: 2.25; stroke-linecap: round"/>
   </g>
   <g id="line2d_16">
    <path d="M 435.267643 267.719986 
L 435.267643 267.514496 
" clip-path="url(#p798ce7d049)" style="fill: none; stroke: #424242; stroke-width: 2.25; stroke-linecap: round"/>
   </g>
   <g id="line2d_17">
    <path d="M 606.132643 233.548761 
L 606.132643 230.379585 
" clip-path="url(#p798ce7d049)" style="fill: none; stroke: #424242; stroke-width: 2.25; stroke-linecap: round"/>
   </g>
   <g id="line2d_18">
    <path d="M 113.065071 297.663375 
L 113.065071 289.279398 
" clip-path="url(#p798ce7d049)" style="fill: none; stroke: #424242; stroke-width: 2.25; stroke-linecap: round"/>
   </g>
   <g id="line2d_19">
    <path d="M 283.930071 266.72688 
L 283.930071 265.952916 
" clip-path="url(#p798ce7d049)" style="fill: none; stroke: #424242; stroke-width: 2.25; stroke-linecap: round"/>
   </g>
   <g id="line2d_20">
    <path d="M 454.795071 236.502195 
L 454.795071 235.654497 
" clip-path="url(#p798ce7d049)" style="fill: none; stroke: #424242; stroke-width: 2.25; stroke-linecap: round"/>
   </g>
   <g id="line2d_21">
    <path d="M 625.660071 173.030476 
L 625.660071 170.891237 
" clip-path="url(#p798ce7d049)" style="fill: none; stroke: #424242; stroke-width: 2.25; stroke-linecap: round"/>
   </g>
   <g id="line2d_22">
    <path d="M 132.5925 287.264116 
L 132.5925 287.131417 
" clip-path="url(#p798ce7d049)" style="fill: none; stroke: #424242; stroke-width: 2.25; stroke-linecap: round"/>
   </g>
   <g id="line2d_23">
    <path d="M 303.4575 266.854114 
L 303.4575 266.345926 
" clip-path="url(#p798ce7d049)" style="fill: none; stroke: #424242; stroke-width: 2.25; stroke-linecap: round"/>
   </g>
   <g id="line2d_24">
    <path d="M 474.3225 236.926284 
L 474.3225 232.668721 
" clip-path="url(#p798ce7d049)" style="fill: none; stroke: #424242; stroke-width: 2.25; stroke-linecap: round"/>
   </g>
   <g id="line2d_25">
    <path d="M 645.1875 171.165875 
L 645.1875 160.526691 
" clip-path="url(#p798ce7d049)" style="fill: none; stroke: #424242; stroke-width: 2.25; stroke-linecap: round"/>
   </g>
   <g id="line2d_26">
    <path d="M 152.119929 283.776281 
L 152.119929 283.405817 
" clip-path="url(#p798ce7d049)" style="fill: none; stroke: #424242; stroke-width: 2.25; stroke-linecap: round"/>
   </g>
   <g id="line2d_27">
    <path d="M 322.984929 260.371869 
L 322.984929 259.711366 
" clip-path="url(#p798ce7d049)" style="fill: none; stroke: #424242; stroke-width: 2.25; stroke-linecap: round"/>
   </g>
   <g id="line2d_28">
    <path d="M 493.849929 245.378685 
L 493.849929 223.646973 
" clip-path="url(#p798ce7d049)" style="fill: none; stroke: #424242; stroke-width: 2.25; stroke-linecap: round"/>
   </g>
   <g id="line2d_29">
    <path d="M 664.714929 150.365954 
L 664.714929 147.966691 
" clip-path="url(#p798ce7d049)" style="fill: none; stroke: #424242; stroke-width: 2.25; stroke-linecap: round"/>
   </g>
   <g id="line2d_30">
    <path d="M 171.647357 280.757483 
L 171.647357 280.637855 
" clip-path="url(#p798ce7d049)" style="fill: none; stroke: #424242; stroke-width: 2.25; stroke-linecap: round"/>
   </g>
   <g id="line2d_31">
    <path d="M 342.512357 253.020042 
L 342.512357 252.554814 
" clip-path="url(#p798ce7d049)" style="fill: none; stroke: #424242; stroke-width: 2.25; stroke-linecap: round"/>
   </g>
   <g id="line2d_32">
    <path d="M 513.377357 209.245793 
L 513.377357 208.308728 
" clip-path="url(#p798ce7d049)" style="fill: none; stroke: #424242; stroke-width: 2.25; stroke-linecap: round"/>
   </g>
   <g id="line2d_33">
    <path d="M 684.242357 137.569669 
L 684.242357 127.037546 
" clip-path="url(#p798ce7d049)" style="fill: none; stroke: #424242; stroke-width: 2.25; stroke-linecap: round"/>
   </g>
   <g id="line2d_34">
    <path d="M 191.174786 271.590002 
L 191.174786 271.473183 
" clip-path="url(#p798ce7d049)" style="fill: none; stroke: #424242; stroke-width: 2.25; stroke-linecap: round"/>
   </g>
   <g id="line2d_35">
    <path d="M 362.039786 240.519751 
L 362.039786 239.499039 
" clip-path="url(#p798ce7d049)" style="fill: none; stroke: #424242; stroke-width: 2.25; stroke-linecap: round"/>
   </g>
   <g id="line2d_36">
    <path d="M 532.904786 173.016591 
L 532.904786 171.558383 
" clip-path="url(#p798ce7d049)" style="fill: none; stroke: #424242; stroke-width: 2.25; stroke-linecap: round"/>
   </g>
   <g id="line2d_37">
    <path d="M 703.769786 45.971741 
L 703.769786 43.06 
" clip-path="url(#p798ce7d049)" style="fill: none; stroke: #424242; stroke-width: 2.25; stroke-linecap: round"/>
   </g>
   <g id="patch_38">
    <path d="M 47.16 309.06 
L 47.16 29.76 
" style="fill: none; stroke: #cccccc; stroke-width: 1.25; stroke-linejoin: miter; stroke-linecap: square"/>
   </g>
   <g id="patch_39">
    <path d="M 730.62 309.06 
L 730.62 29.76 
" style="fill: none; stroke: #cccccc; stroke-width: 1.25; stroke-linejoin: miter; stroke-linecap: square"/>
   </g>
   <g id="patch_40">
    <path d="M 47.16 309.06 
L 730.62 309.06 
" style="fill: none; stroke: #cccccc; stroke-width: 1.25; stroke-linejoin: miter; stroke-linecap: square"/>
   </g>
   <g id="patch_41">
    <path d="M 47.16 29.76 
L 730.62 29.76 
" style="fill: none; stroke: #cccccc; stroke-width: 1.25; stroke-linejoin: miter; stroke-linecap: square"/>
   </g>
   <g id="text_17">
    <!-- FOM Overall (CPU) -->
    <g style="fill: #262626" transform="translate(324.153125 23.76) scale(0.14 -0.14)">
     <defs>
      <path id="DejaVuSans-43" d="M 4122 4306 
L 4122 3641 
Q 3803 3938 3442 4084 
Q 3081 4231 2675 4231 
Q 1875 4231 1450 3742 
Q 1025 3253 1025 2328 
Q 1025 1406 1450 917 
Q 1875 428 2675 428 
Q 3081 428 3442 575 
Q 3803 722 4122 1019 
L 4122 359 
Q 3791 134 3420 21 
Q 3050 -91 2638 -91 
Q 1578 -91 968 557 
Q 359 1206 359 2328 
Q 359 3453 968 4101 
Q 1578 4750 2638 4750 
Q 3056 4750 3426 4639 
Q 3797 4528 4122 4306 
z
" transform="scale(0.015625)"/>
      <path id="DejaVuSans-50" d="M 1259 4147 
L 1259 2394 
L 2053 2394 
Q 2494 2394 2734 2622 
Q 2975 2850 2975 3272 
Q 2975 3691 2734 3919 
Q 2494 4147 2053 4147 
L 1259 4147 
z
M 628 4666 
L 2053 4666 
Q 2838 4666 3239 4311 
Q 3641 3956 3641 3272 
Q 3641 2581 3239 2228 
Q 2838 1875 2053 1875 
L 1259 1875 
L 1259 0 
L 628 0 
L 628 4666 
z
" transform="scale(0.015625)"/>
      <path id="DejaVuSans-55" d="M 556 4666 
L 1191 4666 
L 1191 1831 
Q 1191 1081 1462 751 
Q 1734 422 2344 422 
Q 2950 422 3222 751 
Q 3494 1081 3494 1831 
L 3494 4666 
L 4128 4666 
L 4128 1753 
Q 4128 841 3676 375 
Q 3225 -91 2344 -91 
Q 1459 -91 1007 375 
Q 556 841 556 1753 
L 556 4666 
z
" transform="scale(0.015625)"/>
     </defs>
     <use xlink:href="#DejaVuSans-46"/>
     <use xlink:href="#DejaVuSans-4f" x="57.519531"/>
     <use xlink:href="#DejaVuSans-4d" x="136.230469"/>
     <use xlink:href="#DejaVuSans-20" x="222.509766"/>
     <use xlink:href="#DejaVuSans-4f" x="254.296875"/>
     <use xlink:href="#DejaVuSans-76" x="333.007812"/>
     <use xlink:href="#DejaVuSans-65" x="392.1875"/>
     <use xlink:href="#DejaVuSans-72" x="453.710938"/>
     <use xlink:href="#DejaVuSans-61" x="494.824219"/>
     <use xlink:href="#DejaVuSans-6c" x="556.103516"/>
     <use xlink:href="#DejaVuSans-6c" x="583.886719"/>
     <use xlink:href="#DejaVuSans-20" x="611.669922"/>
     <use xlink:href="#DejaVuSans-28" x="643.457031"/>
     <use xlink:href="#DejaVuSans-43" x="682.470703"/>
     <use xlink:href="#DejaVuSans-50" x="752.294922"/>
     <use xlink:href="#DejaVuSans-55" x="812.597656"/>
     <use xlink:href="#DejaVuSans-29" x="885.791016"/>
    </g>
   </g>
   <g id="legend_1">
    <g id="patch_42">
     <path d="M 54.86 151.581562 
L 244.742344 151.581562 
Q 246.942344 151.581562 246.942344 149.381563 
L 246.942344 37.46 
Q 246.942344 35.26 244.742344 35.26 
L 54.86 35.26 
Q 52.66 35.26 52.66 37.46 
L 52.66 149.381563 
Q 52.66 151.581562 54.86 151.581562 
z
" style="fill: #ffffff; opacity: 0.8; stroke: #cccccc; stroke-linejoin: miter"/>
    </g>
    <g id="patch_43">
     <path d="M 57.06 48.018281 
L 79.06 48.018281 
L 79.06 40.318281 
L 57.06 40.318281 
z
" style="fill: #dcad23; stroke: #ffffff; stroke-linejoin: miter"/>
    </g>
    <g id="text_18">
     <!-- google/gke/cpu -->
     <g style="fill: #262626" transform="translate(87.86 48.018281) scale(0.11 -0.11)">
      <defs>
       <path id="DejaVuSans-2f" d="M 1625 4666 
L 2156 4666 
L 531 -594 
L 0 -594 
L 1625 4666 
z
" transform="scale(0.015625)"/>
       <path id="DejaVuSans-6b" d="M 581 4863 
L 1159 4863 
L 1159 1991 
L 2875 3500 
L 3609 3500 
L 1753 1863 
L 3688 0 
L 2938 0 
L 1159 1709 
L 1159 0 
L 581 0 
L 581 4863 
z
" transform="scale(0.015625)"/>
       <path id="DejaVuSans-70" d="M 1159 525 
L 1159 -1331 
L 581 -1331 
L 581 3500 
L 1159 3500 
L 1159 2969 
Q 1341 3281 1617 3432 
Q 1894 3584 2278 3584 
Q 2916 3584 3314 3078 
Q 3713 2572 3713 1747 
Q 3713 922 3314 415 
Q 2916 -91 2278 -91 
Q 1894 -91 1617 61 
Q 1341 213 1159 525 
z
M 3116 1747 
Q 3116 2381 2855 2742 
Q 2594 3103 2138 3103 
Q 1681 3103 1420 2742 
Q 1159 2381 1159 1747 
Q 1159 1113 1420 752 
Q 1681 391 2138 391 
Q 2594 391 2855 752 
Q 3116 1113 3116 1747 
z
" transform="scale(0.015625)"/>
       <path id="DejaVuSans-75" d="M 544 1381 
L 544 3500 
L 1119 3500 
L 1119 1403 
Q 1119 906 1312 657 
Q 1506 409 1894 409 
Q 2359 409 2629 706 
Q 2900 1003 2900 1516 
L 2900 3500 
L 3475 3500 
L 3475 0 
L 2900 0 
L 2900 538 
Q 2691 219 2414 64 
Q 2138 -91 1772 -91 
Q 1169 -91 856 284 
Q 544 659 544 1381 
z
M 1991 3584 
L 1991 3584 
z
" transform="scale(0.015625)"/>
      </defs>
      <use xlink:href="#DejaVuSans-67"/>
      <use xlink:href="#DejaVuSans-6f" x="63.476562"/>
      <use xlink:href="#DejaVuSans-6f" x="124.658203"/>
      <use xlink:href="#DejaVuSans-67" x="185.839844"/>
      <use xlink:href="#DejaVuSans-6c" x="249.316406"/>
      <use xlink:href="#DejaVuSans-65" x="277.099609"/>
      <use xlink:href="#DejaVuSans-2f" x="338.623047"/>
      <use xlink:href="#DejaVuSans-67" x="372.314453"/>
      <use xlink:href="#DejaVuSans-6b" x="435.791016"/>
      <use xlink:href="#DejaVuSans-65" x="490.076172"/>
      <use xlink:href="#DejaVuSans-2f" x="551.599609"/>
      <use xlink:href="#DejaVuSans-63" x="585.291016"/>
      <use xlink:href="#DejaVuSans-70" x="640.271484"/>
      <use xlink:href="#DejaVuSans-75" x="703.748047"/>
     </g>
    </g>
    <g id="patch_44">
     <path d="M 57.06 64.164219 
L 79.06 64.164219 
L 79.06 56.464219 
L 57.06 56.464219 
z
" style="fill: #d3564c; stroke: #ffffff; stroke-linejoin: miter"/>
    </g>
    <g id="text_19">
     <!-- google/compute-engine/cpu -->
     <g style="fill: #262626" transform="translate(87.86 64.164219) scale(0.11 -0.11)">
      <defs>
       <path id="DejaVuSans-6d" d="M 3328 2828 
Q 3544 3216 3844 3400 
Q 4144 3584 4550 3584 
Q 5097 3584 5394 3201 
Q 5691 2819 5691 2113 
L 5691 0 
L 5113 0 
L 5113 2094 
Q 5113 2597 4934 2840 
Q 4756 3084 4391 3084 
Q 3944 3084 3684 2787 
Q 3425 2491 3425 1978 
L 3425 0 
L 2847 0 
L 2847 2094 
Q 2847 2600 2669 2842 
Q 2491 3084 2119 3084 
Q 1678 3084 1418 2786 
Q 1159 2488 1159 1978 
L 1159 0 
L 581 0 
L 581 3500 
L 1159 3500 
L 1159 2956 
Q 1356 3278 1631 3431 
Q 1906 3584 2284 3584 
Q 2666 3584 2933 3390 
Q 3200 3197 3328 2828 
z
" transform="scale(0.015625)"/>
       <path id="DejaVuSans-74" d="M 1172 4494 
L 1172 3500 
L 2356 3500 
L 2356 3053 
L 1172 3053 
L 1172 1153 
Q 1172 725 1289 603 
Q 1406 481 1766 481 
L 2356 481 
L 2356 0 
L 1766 0 
Q 1100 0 847 248 
Q 594 497 594 1153 
L 594 3053 
L 172 3053 
L 172 3500 
L 594 3500 
L 594 4494 
L 1172 4494 
z
" transform="scale(0.015625)"/>
       <path id="DejaVuSans-2d" d="M 313 2009 
L 1997 2009 
L 1997 1497 
L 313 1497 
L 313 2009 
z
" transform="scale(0.015625)"/>
       <path id="DejaVuSans-6e" d="M 3513 2113 
L 3513 0 
L 2938 0 
L 2938 2094 
Q 2938 2591 2744 2837 
Q 2550 3084 2163 3084 
Q 1697 3084 1428 2787 
Q 1159 2491 1159 1978 
L 1159 0 
L 581 0 
L 581 3500 
L 1159 3500 
L 1159 2956 
Q 1366 3272 1645 3428 
Q 1925 3584 2291 3584 
Q 2894 3584 3203 3211 
Q 3513 2838 3513 2113 
z
" transform="scale(0.015625)"/>
       <path id="DejaVuSans-69" d="M 603 3500 
L 1178 3500 
L 1178 0 
L 603 0 
L 603 3500 
z
M 603 4863 
L 1178 4863 
L 1178 4134 
L 603 4134 
L 603 4863 
z
" transform="scale(0.015625)"/>
      </defs>
      <use xlink:href="#DejaVuSans-67"/>
      <use xlink:href="#DejaVuSans-6f" x="63.476562"/>
      <use xlink:href="#DejaVuSans-6f" x="124.658203"/>
      <use xlink:href="#DejaVuSans-67" x="185.839844"/>
      <use xlink:href="#DejaVuSans-6c" x="249.316406"/>
      <use xlink:href="#DejaVuSans-65" x="277.099609"/>
      <use xlink:href="#DejaVuSans-2f" x="338.623047"/>
      <use xlink:href="#DejaVuSans-63" x="372.314453"/>
      <use xlink:href="#DejaVuSans-6f" x="427.294922"/>
      <use xlink:href="#DejaVuSans-6d" x="488.476562"/>
      <use xlink:href="#DejaVuSans-70" x="585.888672"/>
      <use xlink:href="#DejaVuSans-75" x="649.365234"/>
      <use xlink:href="#DejaVuSans-74" x="712.744141"/>
      <use xlink:href="#DejaVuSans-65" x="751.953125"/>
      <use xlink:href="#DejaVuSans-2d" x="813.476562"/>
      <use xlink:href="#DejaVuSans-65" x="849.560547"/>
      <use xlink:href="#DejaVuSans-6e" x="911.083984"/>
      <use xlink:href="#DejaVuSans-67" x="974.462891"/>
      <use xlink:href="#DejaVuSans-69" x="1037.939453"/>
      <use xlink:href="#DejaVuSans-6e" x="1065.722656"/>
      <use xlink:href="#DejaVuSans-65" x="1129.101562"/>
      <use xlink:href="#DejaVuSans-2f" x="1190.625"/>
      <use xlink:href="#DejaVuSans-63" x="1224.316406"/>
      <use xlink:href="#DejaVuSans-70" x="1279.296875"/>
      <use xlink:href="#DejaVuSans-75" x="1342.773438"/>
     </g>
    </g>
    <g id="patch_45">
     <path d="M 57.06 80.310156 
L 79.06 80.310156 
L 79.06 72.610156 
L 57.06 72.610156 
z
" style="fill: #b35919; stroke: #ffffff; stroke-linejoin: miter"/>
    </g>
    <g id="text_20">
     <!-- aws/eks/cpu -->
     <g style="fill: #262626" transform="translate(87.86 80.310156) scale(0.11 -0.11)">
      <defs>
       <path id="DejaVuSans-77" d="M 269 3500 
L 844 3500 
L 1563 769 
L 2278 3500 
L 2956 3500 
L 3675 769 
L 4391 3500 
L 4966 3500 
L 4050 0 
L 3372 0 
L 2619 2869 
L 1863 0 
L 1184 0 
L 269 3500 
z
" transform="scale(0.015625)"/>
      </defs>
      <use xlink:href="#DejaVuSans-61"/>
      <use xlink:href="#DejaVuSans-77" x="61.279297"/>
      <use xlink:href="#DejaVuSans-73" x="143.066406"/>
      <use xlink:href="#DejaVuSans-2f" x="195.166016"/>
      <use xlink:href="#DejaVuSans-65" x="228.857422"/>
      <use xlink:href="#DejaVuSans-6b" x="290.380859"/>
      <use xlink:href="#DejaVuSans-73" x="348.291016"/>
      <use xlink:href="#DejaVuSans-2f" x="400.390625"/>
      <use xlink:href="#DejaVuSans-63" x="434.082031"/>
      <use xlink:href="#DejaVuSans-70" x="489.0625"/>
      <use xlink:href="#DejaVuSans-75" x="552.539062"/>
     </g>
    </g>
    <g id="patch_46">
     <path d="M 57.06 96.456094 
L 79.06 96.456094 
L 79.06 88.756094 
L 57.06 88.756094 
z
" style="fill: #df9320; stroke: #ffffff; stroke-linejoin: miter"/>
    </g>
    <g id="text_21">
     <!-- aws/parallel-cluster/cpu -->
     <g style="fill: #262626" transform="translate(87.86 96.456094) scale(0.11 -0.11)">
      <use xlink:href="#DejaVuSans-61"/>
      <use xlink:href="#DejaVuSans-77" x="61.279297"/>
      <use xlink:href="#DejaVuSans-73" x="143.066406"/>
      <use xlink:href="#DejaVuSans-2f" x="195.166016"/>
      <use xlink:href="#DejaVuSans-70" x="228.857422"/>
      <use xlink:href="#DejaVuSans-61" x="292.333984"/>
      <use xlink:href="#DejaVuSans-72" x="353.613281"/>
      <use xlink:href="#DejaVuSans-61" x="394.726562"/>
      <use xlink:href="#DejaVuSans-6c" x="456.005859"/>
      <use xlink:href="#DejaVuSans-6c" x="483.789062"/>
      <use xlink:href="#DejaVuSans-65" x="511.572266"/>
      <use xlink:href="#DejaVuSans-6c" x="573.095703"/>
      <use xlink:href="#DejaVuSans-2d" x="600.878906"/>
      <use xlink:href="#DejaVuSans-63" x="636.962891"/>
      <use xlink:href="#DejaVuSans-6c" x="691.943359"/>
      <use xlink:href="#DejaVuSans-75" x="719.726562"/>
      <use xlink:href="#DejaVuSans-73" x="783.105469"/>
      <use xlink:href="#DejaVuSans-74" x="835.205078"/>
      <use xlink:href="#DejaVuSans-65" x="874.414062"/>
      <use xlink:href="#DejaVuSans-72" x="935.9375"/>
      <use xlink:href="#DejaVuSans-2f" x="977.050781"/>
      <use xlink:href="#DejaVuSans-63" x="1010.742188"/>
      <use xlink:href="#DejaVuSans-70" x="1065.722656"/>
      <use xlink:href="#DejaVuSans-75" x="1129.199219"/>
     </g>
    </g>
    <g id="patch_47">
     <path d="M 57.06 112.602031 
L 79.06 112.602031 
L 79.06 104.902031 
L 57.06 104.902031 
z
" style="fill: #114578; stroke: #ffffff; stroke-linejoin: miter"/>
    </g>
    <g id="text_22">
     <!-- azure/aks/cpu -->
     <g style="fill: #262626" transform="translate(87.86 112.602031) scale(0.11 -0.11)">
      <defs>
       <path id="DejaVuSans-7a" d="M 353 3500 
L 3084 3500 
L 3084 2975 
L 922 459 
L 3084 459 
L 3084 0 
L 275 0 
L 275 525 
L 2438 3041 
L 353 3041 
L 353 3500 
z
" transform="scale(0.015625)"/>
      </defs>
      <use xlink:href="#DejaVuSans-61"/>
      <use xlink:href="#DejaVuSans-7a" x="61.279297"/>
      <use xlink:href="#DejaVuSans-75" x="113.769531"/>
      <use xlink:href="#DejaVuSans-72" x="177.148438"/>
      <use xlink:href="#DejaVuSans-65" x="216.011719"/>
      <use xlink:href="#DejaVuSans-2f" x="277.535156"/>
      <use xlink:href="#DejaVuSans-61" x="311.226562"/>
      <use xlink:href="#DejaVuSans-6b" x="372.505859"/>
      <use xlink:href="#DejaVuSans-73" x="430.416016"/>
      <use xlink:href="#DejaVuSans-2f" x="482.515625"/>
      <use xlink:href="#DejaVuSans-63" x="516.207031"/>
      <use xlink:href="#DejaVuSans-70" x="571.1875"/>
      <use xlink:href="#DejaVuSans-75" x="634.664062"/>
     </g>
    </g>
    <g id="patch_48">
     <path d="M 57.06 128.747969 
L 79.06 128.747969 
L 79.06 121.047969 
L 57.06 121.047969 
z
" style="fill: #2080df; stroke: #ffffff; stroke-linejoin: miter"/>
    </g>
    <g id="text_23">
     <!-- azure/cyclecloud/cpu -->
     <g style="fill: #262626" transform="translate(87.86 128.747969) scale(0.11 -0.11)">
      <defs>
       <path id="DejaVuSans-79" d="M 2059 -325 
Q 1816 -950 1584 -1140 
Q 1353 -1331 966 -1331 
L 506 -1331 
L 506 -850 
L 844 -850 
Q 1081 -850 1212 -737 
Q 1344 -625 1503 -206 
L 1606 56 
L 191 3500 
L 800 3500 
L 1894 763 
L 2988 3500 
L 3597 3500 
L 2059 -325 
z
" transform="scale(0.015625)"/>
      </defs>
      <use xlink:href="#DejaVuSans-61"/>
      <use xlink:href="#DejaVuSans-7a" x="61.279297"/>
      <use xlink:href="#DejaVuSans-75" x="113.769531"/>
      <use xlink:href="#DejaVuSans-72" x="177.148438"/>
      <use xlink:href="#DejaVuSans-65" x="216.011719"/>
      <use xlink:href="#DejaVuSans-2f" x="277.535156"/>
      <use xlink:href="#DejaVuSans-63" x="311.226562"/>
      <use xlink:href="#DejaVuSans-79" x="366.207031"/>
      <use xlink:href="#DejaVuSans-63" x="425.386719"/>
      <use xlink:href="#DejaVuSans-6c" x="480.367188"/>
      <use xlink:href="#DejaVuSans-65" x="508.150391"/>
      <use xlink:href="#DejaVuSans-63" x="569.673828"/>
      <use xlink:href="#DejaVuSans-6c" x="624.654297"/>
      <use xlink:href="#DejaVuSans-6f" x="652.4375"/>
      <use xlink:href="#DejaVuSans-75" x="713.619141"/>
      <use xlink:href="#DejaVuSans-64" x="776.998047"/>
      <use xlink:href="#DejaVuSans-2f" x="840.474609"/>
      <use xlink:href="#DejaVuSans-63" x="874.166016"/>
      <use xlink:href="#DejaVuSans-70" x="929.146484"/>
      <use xlink:href="#DejaVuSans-75" x="992.623047"/>
     </g>
    </g>
    <g id="patch_49">
     <path d="M 57.06 144.893906 
L 79.06 144.893906 
L 79.06 137.193906 
L 57.06 137.193906 
z
" style="fill: #808080; stroke: #ffffff; stroke-linejoin: miter"/>
    </g>
    <g id="text_24">
     <!-- on-premises/a/cpu -->
     <g style="fill: #262626" transform="translate(87.86 144.893906) scale(0.11 -0.11)">
      <use xlink:href="#DejaVuSans-6f"/>
      <use xlink:href="#DejaVuSans-6e" x="61.181641"/>
      <use xlink:href="#DejaVuSans-2d" x="124.560547"/>
      <use xlink:href="#DejaVuSans-70" x="160.644531"/>
      <use xlink:href="#DejaVuSans-72" x="224.121094"/>
      <use xlink:href="#DejaVuSans-65" x="262.984375"/>
      <use xlink:href="#DejaVuSans-6d" x="324.507812"/>
      <use xlink:href="#DejaVuSans-69" x="421.919922"/>
      <use xlink:href="#DejaVuSans-73" x="449.703125"/>
      <use xlink:href="#DejaVuSans-65" x="501.802734"/>
      <use xlink:href="#DejaVuSans-73" x="563.326172"/>
      <use xlink:href="#DejaVuSans-2f" x="615.425781"/>
      <use xlink:href="#DejaVuSans-61" x="649.117188"/>
      <use xlink:href="#DejaVuSans-2f" x="710.396484"/>
      <use xlink:href="#DejaVuSans-63" x="744.087891"/>
      <use xlink:href="#DejaVuSans-70" x="799.068359"/>
      <use xlink:href="#DejaVuSans-75" x="862.544922"/>
     </g>
    </g>
   </g>
  </g>
  <g id="axes_2">
   <g id="patch_50">
    <path d="M 743.58 309.06 
L 1427.04 309.06 
L 1427.04 29.76 
L 743.58 29.76 
z
" style="fill: #ffffff"/>
   </g>
   <g id="matplotlib.axis_3">
    <g id="xtick_5">
     <g id="text_25">
      <!-- 32 -->
      <g style="fill: #262626" transform="translate(822.01375 326.918281) scale(0.11 -0.11)">
       <use xlink:href="#DejaVuSans-33"/>
       <use xlink:href="#DejaVuSans-32" x="63.623047"/>
      </g>
     </g>
    </g>
    <g id="xtick_6">
     <g id="text_26">
      <!-- 64 -->
      <g style="fill: #262626" transform="translate(992.87875 326.918281) scale(0.11 -0.11)">
       <use xlink:href="#DejaVuSans-36"/>
       <use xlink:href="#DejaVuSans-34" x="63.623047"/>
      </g>
     </g>
    </g>
    <g id="xtick_7">
     <g id="text_27">
      <!-- 128 -->
      <g style="fill: #262626" transform="translate(1160.244375 326.918281) scale(0.11 -0.11)">
       <use xlink:href="#DejaVuSans-31"/>
       <use xlink:href="#DejaVuSans-32" x="63.623047"/>
       <use xlink:href="#DejaVuSans-38" x="127.246094"/>
      </g>
     </g>
    </g>
    <g id="xtick_8">
     <g id="text_28">
      <!-- 256 -->
      <g style="fill: #262626" transform="translate(1331.109375 326.918281) scale(0.11 -0.11)">
       <use xlink:href="#DejaVuSans-32"/>
       <use xlink:href="#DejaVuSans-35" x="63.623047"/>
       <use xlink:href="#DejaVuSans-36" x="127.246094"/>
      </g>
     </g>
    </g>
    <g id="text_29">
     <!-- GPU Count -->
     <g style="fill: #262626" transform="translate(1047.529687 343.84375) scale(0.14 -0.14)">
      <defs>
       <path id="DejaVuSans-47" d="M 3809 666 
L 3809 1919 
L 2778 1919 
L 2778 2438 
L 4434 2438 
L 4434 434 
Q 4069 175 3628 42 
Q 3188 -91 2688 -91 
Q 1594 -91 976 548 
Q 359 1188 359 2328 
Q 359 3472 976 4111 
Q 1594 4750 2688 4750 
Q 3144 4750 3555 4637 
Q 3966 4525 4313 4306 
L 4313 3634 
Q 3963 3931 3569 4081 
Q 3175 4231 2741 4231 
Q 1884 4231 1454 3753 
Q 1025 3275 1025 2328 
Q 1025 1384 1454 906 
Q 1884 428 2741 428 
Q 3075 428 3337 486 
Q 3600 544 3809 666 
z
" transform="scale(0.015625)"/>
      </defs>
      <use xlink:href="#DejaVuSans-47"/>
      <use xlink:href="#DejaVuSans-50" x="77.490234"/>
      <use xlink:href="#DejaVuSans-55" x="137.792969"/>
      <use xlink:href="#DejaVuSans-20" x="210.986328"/>
      <use xlink:href="#DejaVuSans-43" x="242.773438"/>
      <use xlink:href="#DejaVuSans-6f" x="312.597656"/>
      <use xlink:href="#DejaVuSans-75" x="373.779297"/>
      <use xlink:href="#DejaVuSans-6e" x="437.158203"/>
      <use xlink:href="#DejaVuSans-74" x="500.537109"/>
     </g>
    </g>
   </g>
   <g id="matplotlib.axis_4">
    <g id="ytick_10">
     <g id="line2d_38">
      <path d="M 743.58 309.06 
L 1427.04 309.06 
" clip-path="url(#pc0d7a220a1)" style="fill: none; stroke: #cccccc; stroke-linecap: round"/>
     </g>
    </g>
    <g id="ytick_11">
     <g id="line2d_39">
      <path d="M 743.58 275.293347 
L 1427.04 275.293347 
" clip-path="url(#pc0d7a220a1)" style="fill: none; stroke: #cccccc; stroke-linecap: round"/>
     </g>
    </g>
    <g id="ytick_12">
     <g id="line2d_40">
      <path d="M 743.58 241.526693 
L 1427.04 241.526693 
" clip-path="url(#pc0d7a220a1)" style="fill: none; stroke: #cccccc; stroke-linecap: round"/>
     </g>
    </g>
    <g id="ytick_13">
     <g id="line2d_41">
      <path d="M 743.58 207.76004 
L 1427.04 207.76004 
" clip-path="url(#pc0d7a220a1)" style="fill: none; stroke: #cccccc; stroke-linecap: round"/>
     </g>
    </g>
    <g id="ytick_14">
     <g id="line2d_42">
      <path d="M 743.58 173.993386 
L 1427.04 173.993386 
" clip-path="url(#pc0d7a220a1)" style="fill: none; stroke: #cccccc; stroke-linecap: round"/>
     </g>
    </g>
    <g id="ytick_15">
     <g id="line2d_43">
      <path d="M 743.58 140.226733 
L 1427.04 140.226733 
" clip-path="url(#pc0d7a220a1)" style="fill: none; stroke: #cccccc; stroke-linecap: round"/>
     </g>
    </g>
    <g id="ytick_16">
     <g id="line2d_44">
      <path d="M 743.58 106.460079 
L 1427.04 106.460079 
" clip-path="url(#pc0d7a220a1)" style="fill: none; stroke: #cccccc; stroke-linecap: round"/>
     </g>
    </g>
    <g id="ytick_17">
     <g id="line2d_45">
      <path d="M 743.58 72.693426 
L 1427.04 72.693426 
" clip-path="url(#pc0d7a220a1)" style="fill: none; stroke: #cccccc; stroke-linecap: round"/>
     </g>
    </g>
    <g id="ytick_18">
     <g id="line2d_46">
      <path d="M 743.58 38.926773 
L 1427.04 38.926773 
" clip-path="url(#pc0d7a220a1)" style="fill: none; stroke: #cccccc; stroke-linecap: round"/>
     </g>
    </g>
   </g>
   <g id="patch_51">
    <path d="M 760.6665 309.06 
L 783.4485 309.06 
L 783.4485 307.523152 
L 760.6665 307.523152 
z
" clip-path="url(#pc0d7a220a1)" style="fill: #d3564c; stroke: #ffffff; stroke-linejoin: miter"/>
   </g>
   <g id="patch_52">
    <path d="M 931.5315 309.06 
L 954.3135 309.06 
L 954.3135 306.97461 
L 931.5315 306.97461 
z
" clip-path="url(#pc0d7a220a1)" style="fill: #d3564c; stroke: #ffffff; stroke-linejoin: miter"/>
   </g>
   <g id="patch_53">
    <path d="M 1102.3965 309.06 
L 1125.1785 309.06 
L 1125.1785 305.914246 
L 1102.3965 305.914246 
z
" clip-path="url(#pc0d7a220a1)" style="fill: #d3564c; stroke: #ffffff; stroke-linejoin: miter"/>
   </g>
   <g id="patch_54">
    <path d="M 1273.2615 309.06 
L 1296.0435 309.06 
L 1296.0435 304.048373 
L 1273.2615 304.048373 
z
" clip-path="url(#pc0d7a220a1)" style="fill: #d3564c; stroke: #ffffff; stroke-linejoin: miter"/>
   </g>
   <g id="patch_55">
    <path d="M 783.4485 309.06 
L 806.2305 309.06 
L 806.2305 304.401783 
L 783.4485 304.401783 
z
" clip-path="url(#pc0d7a220a1)" style="fill: #808080; stroke: #ffffff; stroke-linejoin: miter"/>
   </g>
   <g id="patch_56">
    <path d="M 954.3135 309.06 
L 977.0955 309.06 
L 977.0955 305.949052 
L 954.3135 305.949052 
z
" clip-path="url(#pc0d7a220a1)" style="fill: #808080; stroke: #ffffff; stroke-linejoin: miter"/>
   </g>
   <g id="patch_57">
    <path d="M 1125.1785 309.06 
L 1147.9605 309.06 
L 1147.9605 301.648153 
L 1125.1785 301.648153 
z
" clip-path="url(#pc0d7a220a1)" style="fill: #808080; stroke: #ffffff; stroke-linejoin: miter"/>
   </g>
   <g id="patch_58">
    <path d="M 1296.0435 309.06 
L 1318.8255 309.06 
L 1318.8255 300.833284 
L 1296.0435 300.833284 
z
" clip-path="url(#pc0d7a220a1)" style="fill: #808080; stroke: #ffffff; stroke-linejoin: miter"/>
   </g>
   <g id="patch_59">
    <path d="M 806.2305 309.06 
L 829.0125 309.06 
L 829.0125 294.181787 
L 806.2305 294.181787 
z
" clip-path="url(#pc0d7a220a1)" style="fill: #dcad23; stroke: #ffffff; stroke-linejoin: miter"/>
   </g>
   <g id="patch_60">
    <path d="M 977.0955 309.06 
L 999.8775 309.06 
L 999.8775 282.732741 
L 977.0955 282.732741 
z
" clip-path="url(#pc0d7a220a1)" style="fill: #dcad23; stroke: #ffffff; stroke-linejoin: miter"/>
   </g>
   <g id="patch_61">
    <path d="M 1147.9605 309.06 
L 1170.7425 309.06 
L 1170.7425 271.66512 
L 1147.9605 271.66512 
z
" clip-path="url(#pc0d7a220a1)" style="fill: #dcad23; stroke: #ffffff; stroke-linejoin: miter"/>
   </g>
   <g id="patch_62">
    <path d="M 1318.8255 309.06 
L 1341.6075 309.06 
L 1341.6075 240.098825 
L 1318.8255 240.098825 
z
" clip-path="url(#pc0d7a220a1)" style="fill: #dcad23; stroke: #ffffff; stroke-linejoin: miter"/>
   </g>
   <g id="patch_63">
    <path d="M 829.0125 309.06 
L 851.7945 309.06 
L 851.7945 286.504948 
L 829.0125 286.504948 
z
" clip-path="url(#pc0d7a220a1)" style="fill: #2080df; stroke: #ffffff; stroke-linejoin: miter"/>
   </g>
   <g id="patch_64">
    <path d="M 999.8775 309.06 
L 1022.6595 309.06 
L 1022.6595 273.718746 
L 999.8775 273.718746 
z
" clip-path="url(#pc0d7a220a1)" style="fill: #2080df; stroke: #ffffff; stroke-linejoin: miter"/>
   </g>
   <g id="patch_65">
    <path d="M 1170.7425 309.06 
L 1193.5245 309.06 
L 1193.5245 241.047963 
L 1170.7425 241.047963 
z
" clip-path="url(#pc0d7a220a1)" style="fill: #2080df; stroke: #ffffff; stroke-linejoin: miter"/>
   </g>
   <g id="patch_66">
    <path d="M 1341.6075 309.06 
L 1364.3895 309.06 
L 1364.3895 242.794243 
L 1341.6075 242.794243 
z
" clip-path="url(#pc0d7a220a1)" style="fill: #2080df; stroke: #ffffff; stroke-linejoin: miter"/>
   </g>
   <g id="patch_67">
    <path d="M 851.7945 309.06 
L 874.5765 309.06 
L 874.5765 285.883742 
L 851.7945 285.883742 
z
" clip-path="url(#pc0d7a220a1)" style="fill: #114578; stroke: #ffffff; stroke-linejoin: miter"/>
   </g>
   <g id="patch_68">
    <path d="M 1022.6595 309.06 
L 1045.4415 309.06 
L 1045.4415 260.678713 
L 1022.6595 260.678713 
z
" clip-path="url(#pc0d7a220a1)" style="fill: #114578; stroke: #ffffff; stroke-linejoin: miter"/>
   </g>
   <g id="patch_69">
    <path d="M 1193.5245 309.06 
L 1216.3065 309.06 
L 1216.3065 245.253384 
L 1193.5245 245.253384 
z
" clip-path="url(#pc0d7a220a1)" style="fill: #114578; stroke: #ffffff; stroke-linejoin: miter"/>
   </g>
   <g id="patch_70">
    <path d="M 1364.3895 309.06 
L 1387.1715 309.06 
L 1387.1715 208.776281 
L 1364.3895 208.776281 
z
" clip-path="url(#pc0d7a220a1)" style="fill: #114578; stroke: #ffffff; stroke-linejoin: miter"/>
   </g>
   <g id="patch_71">
    <path d="M 874.5765 309.06 
L 897.3585 309.06 
L 897.3585 278.884064 
L 874.5765 278.884064 
z
" clip-path="url(#pc0d7a220a1)" style="fill: #b35919; stroke: #ffffff; stroke-linejoin: miter"/>
   </g>
   <g id="patch_72">
    <path d="M 1045.4415 309.06 
L 1068.2235 309.06 
L 1068.2235 254.371065 
L 1045.4415 254.371065 
z
" clip-path="url(#pc0d7a220a1)" style="fill: #b35919; stroke: #ffffff; stroke-linejoin: miter"/>
   </g>
   <g id="patch_73">
    <path d="M 1216.3065 309.06 
L 1239.0885 309.06 
L 1239.0885 211.291433 
L 1216.3065 211.291433 
z
" clip-path="url(#pc0d7a220a1)" style="fill: #b35919; stroke: #ffffff; stroke-linejoin: miter"/>
   </g>
   <g id="patch_74">
    <path d="M 829.0125 309.06 
L 829.0125 309.06 
L 829.0125 309.06 
L 829.0125 309.06 
z
" clip-path="url(#pc0d7a220a1)" style="fill: #d3564c; stroke: #ffffff; stroke-linejoin: miter"/>
   </g>
   <g id="patch_75">
    <path d="M 829.0125 309.06 
L 829.0125 309.06 
L 829.0125 309.06 
L 829.0125 309.06 
z
" clip-path="url(#pc0d7a220a1)" style="fill: #808080; stroke: #ffffff; stroke-linejoin: miter"/>
   </g>
   <g id="patch_76">
    <path d="M 829.0125 309.06 
L 829.0125 309.06 
L 829.0125 309.06 
L 829.0125 309.06 
z
" clip-path="url(#pc0d7a220a1)" style="fill: #dcad23; stroke: #ffffff; stroke-linejoin: miter"/>
   </g>
   <g id="patch_77">
    <path d="M 829.0125 309.06 
L 829.0125 309.06 
L 829.0125 309.06 
L 829.0125 309.06 
z
" clip-path="url(#pc0d7a220a1)" style="fill: #2080df; stroke: #ffffff; stroke-linejoin: miter"/>
   </g>
   <g id="patch_78">
    <path d="M 829.0125 309.06 
L 829.0125 309.06 
L 829.0125 309.06 
L 829.0125 309.06 
z
" clip-path="url(#pc0d7a220a1)" style="fill: #114578; stroke: #ffffff; stroke-linejoin: miter"/>
   </g>
   <g id="patch_79">
    <path d="M 829.0125 309.06 
L 829.0125 309.06 
L 829.0125 309.06 
L 829.0125 309.06 
z
" clip-path="url(#pc0d7a220a1)" style="fill: #b35919; stroke: #ffffff; stroke-linejoin: miter"/>
   </g>
   <g id="line2d_47">
    <path d="M 772.0575 307.964403 
L 772.0575 307.102337 
" clip-path="url(#pc0d7a220a1)" style="fill: none; stroke: #424242; stroke-width: 2.25; stroke-linecap: round"/>
   </g>
   <g id="line2d_48">
    <path d="M 942.9225 307.448558 
L 942.9225 306.52905 
" clip-path="url(#pc0d7a220a1)" style="fill: none; stroke: #424242; stroke-width: 2.25; stroke-linecap: round"/>
   </g>
   <g id="line2d_49">
    <path d="M 1113.7875 306.93082 
L 1113.7875 304.908606 
" clip-path="url(#pc0d7a220a1)" style="fill: none; stroke: #424242; stroke-width: 2.25; stroke-linecap: round"/>
   </g>
   <g id="line2d_50">
    <path d="M 1284.6525 305.313848 
L 1284.6525 302.735605 
" clip-path="url(#pc0d7a220a1)" style="fill: none; stroke: #424242; stroke-width: 2.25; stroke-linecap: round"/>
   </g>
   <g id="line2d_51">
    <path d="M 794.8395 305.989724 
L 794.8395 303.599335 
" clip-path="url(#pc0d7a220a1)" style="fill: none; stroke: #424242; stroke-width: 2.25; stroke-linecap: round"/>
   </g>
   <g id="line2d_52">
    <path d="M 965.7045 306.533019 
L 965.7045 305.290002 
" clip-path="url(#pc0d7a220a1)" style="fill: none; stroke: #424242; stroke-width: 2.25; stroke-linecap: round"/>
   </g>
   <g id="line2d_53">
    <path d="M 1136.5695 302.454247 
L 1136.5695 301.149404 
" clip-path="url(#pc0d7a220a1)" style="fill: none; stroke: #424242; stroke-width: 2.25; stroke-linecap: round"/>
   </g>
   <g id="line2d_54">
    <path d="M 1307.4345 300.891016 
L 1307.4345 300.757874 
" clip-path="url(#pc0d7a220a1)" style="fill: none; stroke: #424242; stroke-width: 2.25; stroke-linecap: round"/>
   </g>
   <g id="line2d_55">
    <path d="M 817.6215 295.172153 
L 817.6215 292.515048 
" clip-path="url(#pc0d7a220a1)" style="fill: none; stroke: #424242; stroke-width: 2.25; stroke-linecap: round"/>
   </g>
   <g id="line2d_56">
    <path d="M 988.4865 283.411112 
L 988.4865 282.052013 
" clip-path="url(#pc0d7a220a1)" style="fill: none; stroke: #424242; stroke-width: 2.25; stroke-linecap: round"/>
   </g>
   <g id="line2d_57">
    <path d="M 1159.3515 272.499001 
L 1159.3515 270.733336 
" clip-path="url(#pc0d7a220a1)" style="fill: none; stroke: #424242; stroke-width: 2.25; stroke-linecap: round"/>
   </g>
   <g id="line2d_58">
    <path d="M 1330.2165 243.238992 
L 1330.2165 237.204623 
" clip-path="url(#pc0d7a220a1)" style="fill: none; stroke: #424242; stroke-width: 2.25; stroke-linecap: round"/>
   </g>
   <g id="line2d_59">
    <path d="M 840.4035 287.845788 
L 840.4035 285.647336 
" clip-path="url(#pc0d7a220a1)" style="fill: none; stroke: #424242; stroke-width: 2.25; stroke-linecap: round"/>
   </g>
   <g id="line2d_60">
    <path d="M 1011.2685 275.7883 
L 1011.2685 271.68332 
" clip-path="url(#pc0d7a220a1)" style="fill: none; stroke: #424242; stroke-width: 2.25; stroke-linecap: round"/>
   </g>
   <g id="line2d_61">
    <path d="M 1182.1335 243.845186 
L 1182.1335 238.546032 
" clip-path="url(#pc0d7a220a1)" style="fill: none; stroke: #424242; stroke-width: 2.25; stroke-linecap: round"/>
   </g>
   <g id="line2d_62">
    <path d="M 1352.9985 251.562446 
L 1352.9985 234.026039 
" clip-path="url(#pc0d7a220a1)" style="fill: none; stroke: #424242; stroke-width: 2.25; stroke-linecap: round"/>
   </g>
   <g id="line2d_63">
    <path d="M 863.1855 286.120619 
L 863.1855 285.659114 
" clip-path="url(#pc0d7a220a1)" style="fill: none; stroke: #424242; stroke-width: 2.25; stroke-linecap: round"/>
   </g>
   <g id="line2d_64">
    <path d="M 1034.0505 261.561354 
L 1034.0505 259.81655 
" clip-path="url(#pc0d7a220a1)" style="fill: none; stroke: #424242; stroke-width: 2.25; stroke-linecap: round"/>
   </g>
   <g id="line2d_65">
    <path d="M 1204.9155 265.359953 
L 1204.9155 223.269894 
" clip-path="url(#pc0d7a220a1)" style="fill: none; stroke: #424242; stroke-width: 2.25; stroke-linecap: round"/>
   </g>
   <g id="line2d_66">
    <path d="M 1375.7805 232.297659 
L 1375.7805 176.795758 
" clip-path="url(#pc0d7a220a1)" style="fill: none; stroke: #424242; stroke-width: 2.25; stroke-linecap: round"/>
   </g>
   <g id="line2d_67">
    <path d="M 885.9675 278.961503 
L 885.9675 278.81414 
" clip-path="url(#pc0d7a220a1)" style="fill: none; stroke: #424242; stroke-width: 2.25; stroke-linecap: round"/>
   </g>
   <g id="line2d_68">
    <path d="M 1056.8325 254.419801 
L 1056.8325 254.320485 
" clip-path="url(#pc0d7a220a1)" style="fill: none; stroke: #424242; stroke-width: 2.25; stroke-linecap: round"/>
   </g>
   <g id="line2d_69">
    <path d="M 1227.6975 211.496981 
L 1227.6975 211.123743 
" clip-path="url(#pc0d7a220a1)" style="fill: none; stroke: #424242; stroke-width: 2.25; stroke-linecap: round"/>
   </g>
   <g id="patch_80">
    <path d="M 743.58 309.06 
L 743.58 29.76 
" style="fill: none; stroke: #cccccc; stroke-width: 1.25; stroke-linejoin: miter; stroke-linecap: square"/>
   </g>
   <g id="patch_81">
    <path d="M 1427.04 309.06 
L 1427.04 29.76 
" style="fill: none; stroke: #cccccc; stroke-width: 1.25; stroke-linejoin: miter; stroke-linecap: square"/>
   </g>
   <g id="patch_82">
    <path d="M 743.58 309.06 
L 1427.04 309.06 
" style="fill: none; stroke: #cccccc; stroke-width: 1.25; stroke-linejoin: miter; stroke-linecap: square"/>
   </g>
   <g id="patch_83">
    <path d="M 743.58 29.76 
L 1427.04 29.76 
" style="fill: none; stroke: #cccccc; stroke-width: 1.25; stroke-linejoin: miter; stroke-linecap: square"/>
   </g>
   <g id="text_30">
    <!-- FOM Overall (GPU) -->
    <g style="fill: #262626" transform="translate(1020.037187 23.76) scale(0.14 -0.14)">
     <use xlink:href="#DejaVuSans-46"/>
     <use xlink:href="#DejaVuSans-4f" x="57.519531"/>
     <use xlink:href="#DejaVuSans-4d" x="136.230469"/>
     <use xlink:href="#DejaVuSans-20" x="222.509766"/>
     <use xlink:href="#DejaVuSans-4f" x="254.296875"/>
     <use xlink:href="#DejaVuSans-76" x="333.007812"/>
     <use xlink:href="#DejaVuSans-65" x="392.1875"/>
     <use xlink:href="#DejaVuSans-72" x="453.710938"/>
     <use xlink:href="#DejaVuSans-61" x="494.824219"/>
     <use xlink:href="#DejaVuSans-6c" x="556.103516"/>
     <use xlink:href="#DejaVuSans-6c" x="583.886719"/>
     <use xlink:href="#DejaVuSans-20" x="611.669922"/>
     <use xlink:href="#DejaVuSans-28" x="643.457031"/>
     <use xlink:href="#DejaVuSans-47" x="682.470703"/>
     <use xlink:href="#DejaVuSans-50" x="759.960938"/>
     <use xlink:href="#DejaVuSans-55" x="820.263672"/>
     <use xlink:href="#DejaVuSans-29" x="893.457031"/>
    </g>
   </g>
   <g id="legend_2">
    <g id="patch_84">
     <path d="M 1228.522656 135.435625 
L 1419.34 135.435625 
Q 1421.54 135.435625 1421.54 133.235625 
L 1421.54 37.46 
Q 1421.54 35.26 1419.34 35.26 
L 1228.522656 35.26 
Q 1226.322656 35.26 1226.322656 37.46 
L 1226.322656 133.235625 
Q 1226.322656 135.435625 1228.522656 135.435625 
z
" style="fill: #ffffff; opacity: 0.8; stroke: #cccccc; stroke-linejoin: miter"/>
    </g>
    <g id="patch_85">
     <path d="M 1230.722656 48.018281 
L 1252.722656 48.018281 
L 1252.722656 40.318281 
L 1230.722656 40.318281 
z
" style="fill: #d3564c; stroke: #ffffff; stroke-linejoin: miter"/>
    </g>
    <g id="text_31">
     <!-- google/compute-engine/gpu -->
     <g style="fill: #262626" transform="translate(1261.522656 48.018281) scale(0.11 -0.11)">
      <use xlink:href="#DejaVuSans-67"/>
      <use xlink:href="#DejaVuSans-6f" x="63.476562"/>
      <use xlink:href="#DejaVuSans-6f" x="124.658203"/>
      <use xlink:href="#DejaVuSans-67" x="185.839844"/>
      <use xlink:href="#DejaVuSans-6c" x="249.316406"/>
      <use xlink:href="#DejaVuSans-65" x="277.099609"/>
      <use xlink:href="#DejaVuSans-2f" x="338.623047"/>
      <use xlink:href="#DejaVuSans-63" x="372.314453"/>
      <use xlink:href="#DejaVuSans-6f" x="427.294922"/>
      <use xlink:href="#DejaVuSans-6d" x="488.476562"/>
      <use xlink:href="#DejaVuSans-70" x="585.888672"/>
      <use xlink:href="#DejaVuSans-75" x="649.365234"/>
      <use xlink:href="#DejaVuSans-74" x="712.744141"/>
      <use xlink:href="#DejaVuSans-65" x="751.953125"/>
      <use xlink:href="#DejaVuSans-2d" x="813.476562"/>
      <use xlink:href="#DejaVuSans-65" x="849.560547"/>
      <use xlink:href="#DejaVuSans-6e" x="911.083984"/>
      <use xlink:href="#DejaVuSans-67" x="974.462891"/>
      <use xlink:href="#DejaVuSans-69" x="1037.939453"/>
      <use xlink:href="#DejaVuSans-6e" x="1065.722656"/>
      <use xlink:href="#DejaVuSans-65" x="1129.101562"/>
      <use xlink:href="#DejaVuSans-2f" x="1190.625"/>
      <use xlink:href="#DejaVuSans-67" x="1224.316406"/>
      <use xlink:href="#DejaVuSans-70" x="1287.792969"/>
      <use xlink:href="#DejaVuSans-75" x="1351.269531"/>
     </g>
    </g>
    <g id="patch_86">
     <path d="M 1230.722656 64.164219 
L 1252.722656 64.164219 
L 1252.722656 56.464219 
L 1230.722656 56.464219 
z
" style="fill: #808080; stroke: #ffffff; stroke-linejoin: miter"/>
    </g>
    <g id="text_32">
     <!-- on-premises/b/gpu -->
     <g style="fill: #262626" transform="translate(1261.522656 64.164219) scale(0.11 -0.11)">
      <defs>
       <path id="DejaVuSans-62" d="M 3116 1747 
Q 3116 2381 2855 2742 
Q 2594 3103 2138 3103 
Q 1681 3103 1420 2742 
Q 1159 2381 1159 1747 
Q 1159 1113 1420 752 
Q 1681 391 2138 391 
Q 2594 391 2855 752 
Q 3116 1113 3116 1747 
z
M 1159 2969 
Q 1341 3281 1617 3432 
Q 1894 3584 2278 3584 
Q 2916 3584 3314 3078 
Q 3713 2572 3713 1747 
Q 3713 922 3314 415 
Q 2916 -91 2278 -91 
Q 1894 -91 1617 61 
Q 1341 213 1159 525 
L 1159 0 
L 581 0 
L 581 4863 
L 1159 4863 
L 1159 2969 
z
" transform="scale(0.015625)"/>
      </defs>
      <use xlink:href="#DejaVuSans-6f"/>
      <use xlink:href="#DejaVuSans-6e" x="61.181641"/>
      <use xlink:href="#DejaVuSans-2d" x="124.560547"/>
      <use xlink:href="#DejaVuSans-70" x="160.644531"/>
      <use xlink:href="#DejaVuSans-72" x="224.121094"/>
      <use xlink:href="#DejaVuSans-65" x="262.984375"/>
      <use xlink:href="#DejaVuSans-6d" x="324.507812"/>
      <use xlink:href="#DejaVuSans-69" x="421.919922"/>
      <use xlink:href="#DejaVuSans-73" x="449.703125"/>
      <use xlink:href="#DejaVuSans-65" x="501.802734"/>
      <use xlink:href="#DejaVuSans-73" x="563.326172"/>
      <use xlink:href="#DejaVuSans-2f" x="615.425781"/>
      <use xlink:href="#DejaVuSans-62" x="649.117188"/>
      <use xlink:href="#DejaVuSans-2f" x="712.59375"/>
      <use xlink:href="#DejaVuSans-67" x="746.285156"/>
      <use xlink:href="#DejaVuSans-70" x="809.761719"/>
      <use xlink:href="#DejaVuSans-75" x="873.238281"/>
     </g>
    </g>
    <g id="patch_87">
     <path d="M 1230.722656 80.310156 
L 1252.722656 80.310156 
L 1252.722656 72.610156 
L 1230.722656 72.610156 
z
" style="fill: #dcad23; stroke: #ffffff; stroke-linejoin: miter"/>
    </g>
    <g id="text_33">
     <!-- google/gke/gpu -->
     <g style="fill: #262626" transform="translate(1261.522656 80.310156) scale(0.11 -0.11)">
      <use xlink:href="#DejaVuSans-67"/>
      <use xlink:href="#DejaVuSans-6f" x="63.476562"/>
      <use xlink:href="#DejaVuSans-6f" x="124.658203"/>
      <use xlink:href="#DejaVuSans-67" x="185.839844"/>
      <use xlink:href="#DejaVuSans-6c" x="249.316406"/>
      <use xlink:href="#DejaVuSans-65" x="277.099609"/>
      <use xlink:href="#DejaVuSans-2f" x="338.623047"/>
      <use xlink:href="#DejaVuSans-67" x="372.314453"/>
      <use xlink:href="#DejaVuSans-6b" x="435.791016"/>
      <use xlink:href="#DejaVuSans-65" x="490.076172"/>
      <use xlink:href="#DejaVuSans-2f" x="551.599609"/>
      <use xlink:href="#DejaVuSans-67" x="585.291016"/>
      <use xlink:href="#DejaVuSans-70" x="648.767578"/>
      <use xlink:href="#DejaVuSans-75" x="712.244141"/>
     </g>
    </g>
    <g id="patch_88">
     <path d="M 1230.722656 96.456094 
L 1252.722656 96.456094 
L 1252.722656 88.756094 
L 1230.722656 88.756094 
z
" style="fill: #2080df; stroke: #ffffff; stroke-linejoin: miter"/>
    </g>
    <g id="text_34">
     <!-- azure/cyclecloud/gpu -->
     <g style="fill: #262626" transform="translate(1261.522656 96.456094) scale(0.11 -0.11)">
      <use xlink:href="#DejaVuSans-61"/>
      <use xlink:href="#DejaVuSans-7a" x="61.279297"/>
      <use xlink:href="#DejaVuSans-75" x="113.769531"/>
      <use xlink:href="#DejaVuSans-72" x="177.148438"/>
      <use xlink:href="#DejaVuSans-65" x="216.011719"/>
      <use xlink:href="#DejaVuSans-2f" x="277.535156"/>
      <use xlink:href="#DejaVuSans-63" x="311.226562"/>
      <use xlink:href="#DejaVuSans-79" x="366.207031"/>
      <use xlink:href="#DejaVuSans-63" x="425.386719"/>
      <use xlink:href="#DejaVuSans-6c" x="480.367188"/>
      <use xlink:href="#DejaVuSans-65" x="508.150391"/>
      <use xlink:href="#DejaVuSans-63" x="569.673828"/>
      <use xlink:href="#DejaVuSans-6c" x="624.654297"/>
      <use xlink:href="#DejaVuSans-6f" x="652.4375"/>
      <use xlink:href="#DejaVuSans-75" x="713.619141"/>
      <use xlink:href="#DejaVuSans-64" x="776.998047"/>
      <use xlink:href="#DejaVuSans-2f" x="840.474609"/>
      <use xlink:href="#DejaVuSans-67" x="874.166016"/>
      <use xlink:href="#DejaVuSans-70" x="937.642578"/>
      <use xlink:href="#DejaVuSans-75" x="1001.119141"/>
     </g>
    </g>
    <g id="patch_89">
     <path d="M 1230.722656 112.602031 
L 1252.722656 112.602031 
L 1252.722656 104.902031 
L 1230.722656 104.902031 
z
" style="fill: #114578; stroke: #ffffff; stroke-linejoin: miter"/>
    </g>
    <g id="text_35">
     <!-- azure/aks/gpu -->
     <g style="fill: #262626" transform="translate(1261.522656 112.602031) scale(0.11 -0.11)">
      <use xlink:href="#DejaVuSans-61"/>
      <use xlink:href="#DejaVuSans-7a" x="61.279297"/>
      <use xlink:href="#DejaVuSans-75" x="113.769531"/>
      <use xlink:href="#DejaVuSans-72" x="177.148438"/>
      <use xlink:href="#DejaVuSans-65" x="216.011719"/>
      <use xlink:href="#DejaVuSans-2f" x="277.535156"/>
      <use xlink:href="#DejaVuSans-61" x="311.226562"/>
      <use xlink:href="#DejaVuSans-6b" x="372.505859"/>
      <use xlink:href="#DejaVuSans-73" x="430.416016"/>
      <use xlink:href="#DejaVuSans-2f" x="482.515625"/>
      <use xlink:href="#DejaVuSans-67" x="516.207031"/>
      <use xlink:href="#DejaVuSans-70" x="579.683594"/>
      <use xlink:href="#DejaVuSans-75" x="643.160156"/>
     </g>
    </g>
    <g id="patch_90">
     <path d="M 1230.722656 128.747969 
L 1252.722656 128.747969 
L 1252.722656 121.047969 
L 1230.722656 121.047969 
z
" style="fill: #b35919; stroke: #ffffff; stroke-linejoin: miter"/>
    </g>
    <g id="text_36">
     <!-- aws/eks/gpu -->
     <g style="fill: #262626" transform="translate(1261.522656 128.747969) scale(0.11 -0.11)">
      <use xlink:href="#DejaVuSans-61"/>
      <use xlink:href="#DejaVuSans-77" x="61.279297"/>
      <use xlink:href="#DejaVuSans-73" x="143.066406"/>
      <use xlink:href="#DejaVuSans-2f" x="195.166016"/>
      <use xlink:href="#DejaVuSans-65" x="228.857422"/>
      <use xlink:href="#DejaVuSans-6b" x="290.380859"/>
      <use xlink:href="#DejaVuSans-73" x="348.291016"/>
      <use xlink:href="#DejaVuSans-2f" x="400.390625"/>
      <use xlink:href="#DejaVuSans-67" x="434.082031"/>
      <use xlink:href="#DejaVuSans-70" x="497.558594"/>
      <use xlink:href="#DejaVuSans-75" x="561.035156"/>
     </g>
    </g>
   </g>
  </g>
 </g>
 <defs>
  <clipPath id="p798ce7d049">
   <rect x="47.16" y="29.76" width="683.46" height="279.3"/>
  </clipPath>
  <clipPath id="pc0d7a220a1">
   <rect x="743.58" y="29.76" width="683.46" height="279.3"/>
  </clipPath>
 </defs>
</svg>
