<?xml version="1.0" encoding="utf-8" standalone="no"?>
<!DOCTYPE svg PUBLIC "-//W3C//DTD SVG 1.1//EN"
  "http://www.w3.org/Graphics/SVG/1.1/DTD/svg11.dtd">
<svg xmlns:xlink="http://www.w3.org/1999/xlink" width="324pt" height="432pt" viewBox="0 0 324 432" xmlns="http://www.w3.org/2000/svg" version="1.1">
 <metadata>
  <rdf:RDF xmlns:dc="http://purl.org/dc/elements/1.1/" xmlns:cc="http://creativecommons.org/ns#" xmlns:rdf="http://www.w3.org/1999/02/22-rdf-syntax-ns#">
   <cc:Work>
    <dc:type rdf:resource="http://purl.org/dc/dcmitype/StillImage"/>
    <dc:date>2025-02-04T20:10:20.603967</dc:date>
    <dc:format>image/svg+xml</dc:format>
    <dc:creator>
     <cc:Agent>
      <dc:title>Matplotlib v3.8.4, https://matplotlib.org/</dc:title>
     </cc:Agent>
    </dc:creator>
   </cc:Work>
  </rdf:RDF>
 </metadata>
 <defs>
  <style type="text/css">*{stroke-linejoin: round; stroke-linecap: butt}</style>
 </defs>
 <g id="figure_1">
  <g id="patch_1">
   <path d="M 0 432 
L 324 432 
L 324 0 
L 0 0 
z
" style="fill: #ffffff"/>
  </g>
  <g id="axes_1">
   <g id="patch_2">
    <path d="M 47.1825 381.78 
L 311.04 381.78 
L 311.04 27.264 
L 47.1825 27.264 
z
" style="fill: #ffffff"/>
   </g>
   <g id="matplotlib.axis_1">
    <g id="xtick_1">
     <g id="text_1">
      <!-- 32 -->
      <g style="fill: #262626" transform="translate(73.165937 399.638281) scale(0.11 -0.11)">
       <defs>
        <path id="DejaVuSans-33" d="M 2597 2516 
Q 3050 2419 3304 2112 
Q 3559 1806 3559 1356 
Q 3559 666 3084 287 
Q 2609 -91 1734 -91 
Q 1441 -91 1130 -33 
Q 819 25 488 141 
L 488 750 
Q 750 597 1062 519 
Q 1375 441 1716 441 
Q 2309 441 2620 675 
Q 2931 909 2931 1356 
Q 2931 1769 2642 2001 
Q 2353 2234 1838 2234 
L 1294 2234 
L 1294 2753 
L 1863 2753 
Q 2328 2753 2575 2939 
Q 2822 3125 2822 3475 
Q 2822 3834 2567 4026 
Q 2313 4219 1838 4219 
Q 1578 4219 1281 4162 
Q 984 4106 628 3988 
L 628 4550 
Q 988 4650 1302 4700 
Q 1616 4750 1894 4750 
Q 2613 4750 3031 4423 
Q 3450 4097 3450 3541 
Q 3450 3153 3228 2886 
Q 3006 2619 2597 2516 
z
" transform="scale(0.015625)"/>
        <path id="DejaVuSans-32" d="M 1228 531 
L 3431 531 
L 3431 0 
L 469 0 
L 469 531 
Q 828 903 1448 1529 
Q 2069 2156 2228 2338 
Q 2531 2678 2651 2914 
Q 2772 3150 2772 3378 
Q 2772 3750 2511 3984 
Q 2250 4219 1831 4219 
Q 1534 4219 1204 4116 
Q 875 4013 500 3803 
L 500 4441 
Q 881 4594 1212 4672 
Q 1544 4750 1819 4750 
Q 2544 4750 2975 4387 
Q 3406 4025 3406 3419 
Q 3406 3131 3298 2873 
Q 3191 2616 2906 2266 
Q 2828 2175 2409 1742 
Q 1991 1309 1228 531 
z
" transform="scale(0.015625)"/>
       </defs>
       <use xlink:href="#DejaVuSans-33"/>
       <use xlink:href="#DejaVuSans-32" x="63.623047"/>
      </g>
     </g>
    </g>
    <g id="xtick_2">
     <g id="text_2">
      <!-- 64 -->
      <g style="fill: #262626" transform="translate(139.130312 399.638281) scale(0.11 -0.11)">
       <defs>
        <path id="DejaVuSans-36" d="M 2113 2584 
Q 1688 2584 1439 2293 
Q 1191 2003 1191 1497 
Q 1191 994 1439 701 
Q 1688 409 2113 409 
Q 2538 409 2786 701 
Q 3034 994 3034 1497 
Q 3034 2003 2786 2293 
Q 2538 2584 2113 2584 
z
M 3366 4563 
L 3366 3988 
Q 3128 4100 2886 4159 
Q 2644 4219 2406 4219 
Q 1781 4219 1451 3797 
Q 1122 3375 1075 2522 
Q 1259 2794 1537 2939 
Q 1816 3084 2150 3084 
Q 2853 3084 3261 2657 
Q 3669 2231 3669 1497 
Q 3669 778 3244 343 
Q 2819 -91 2113 -91 
Q 1303 -91 875 529 
Q 447 1150 447 2328 
Q 447 3434 972 4092 
Q 1497 4750 2381 4750 
Q 2619 4750 2861 4703 
Q 3103 4656 3366 4563 
z
" transform="scale(0.015625)"/>
        <path id="DejaVuSans-34" d="M 2419 4116 
L 825 1625 
L 2419 1625 
L 2419 4116 
z
M 2253 4666 
L 3047 4666 
L 3047 1625 
L 3713 1625 
L 3713 1100 
L 3047 1100 
L 3047 0 
L 2419 0 
L 2419 1100 
L 313 1100 
L 313 1709 
L 2253 4666 
z
" transform="scale(0.015625)"/>
       </defs>
       <use xlink:href="#DejaVuSans-36"/>
       <use xlink:href="#DejaVuSans-34" x="63.623047"/>
      </g>
     </g>
    </g>
    <g id="xtick_3">
     <g id="text_3">
      <!-- 128 -->
      <g style="fill: #262626" transform="translate(201.595313 399.638281) scale(0.11 -0.11)">
       <defs>
        <path id="DejaVuSans-31" d="M 794 531 
L 1825 531 
L 1825 4091 
L 703 3866 
L 703 4441 
L 1819 4666 
L 2450 4666 
L 2450 531 
L 3481 531 
L 3481 0 
L 794 0 
L 794 531 
z
" transform="scale(0.015625)"/>
        <path id="DejaVuSans-38" d="M 2034 2216 
Q 1584 2216 1326 1975 
Q 1069 1734 1069 1313 
Q 1069 891 1326 650 
Q 1584 409 2034 409 
Q 2484 409 2743 651 
Q 3003 894 3003 1313 
Q 3003 1734 2745 1975 
Q 2488 2216 2034 2216 
z
M 1403 2484 
Q 997 2584 770 2862 
Q 544 3141 544 3541 
Q 544 4100 942 4425 
Q 1341 4750 2034 4750 
Q 2731 4750 3128 4425 
Q 3525 4100 3525 3541 
Q 3525 3141 3298 2862 
Q 3072 2584 2669 2484 
Q 3125 2378 3379 2068 
Q 3634 1759 3634 1313 
Q 3634 634 3220 271 
Q 2806 -91 2034 -91 
Q 1263 -91 848 271 
Q 434 634 434 1313 
Q 434 1759 690 2068 
Q 947 2378 1403 2484 
z
M 1172 3481 
Q 1172 3119 1398 2916 
Q 1625 2713 2034 2713 
Q 2441 2713 2670 2916 
Q 2900 3119 2900 3481 
Q 2900 3844 2670 4047 
Q 2441 4250 2034 4250 
Q 1625 4250 1398 4047 
Q 1172 3844 1172 3481 
z
" transform="scale(0.015625)"/>
       </defs>
       <use xlink:href="#DejaVuSans-31"/>
       <use xlink:href="#DejaVuSans-32" x="63.623047"/>
       <use xlink:href="#DejaVuSans-38" x="127.246094"/>
      </g>
     </g>
    </g>
    <g id="xtick_4">
     <g id="text_4">
      <!-- 256 -->
      <g style="fill: #262626" transform="translate(267.559687 399.638281) scale(0.11 -0.11)">
       <defs>
        <path id="DejaVuSans-35" d="M 691 4666 
L 3169 4666 
L 3169 4134 
L 1269 4134 
L 1269 2991 
Q 1406 3038 1543 3061 
Q 1681 3084 1819 3084 
Q 2600 3084 3056 2656 
Q 3513 2228 3513 1497 
Q 3513 744 3044 326 
Q 2575 -91 1722 -91 
Q 1428 -91 1123 -41 
Q 819 9 494 109 
L 494 744 
Q 775 591 1075 516 
Q 1375 441 1709 441 
Q 2250 441 2565 725 
Q 2881 1009 2881 1497 
Q 2881 1984 2565 2268 
Q 2250 2553 1709 2553 
Q 1456 2553 1204 2497 
Q 953 2441 691 2322 
L 691 4666 
z
" transform="scale(0.015625)"/>
       </defs>
       <use xlink:href="#DejaVuSans-32"/>
       <use xlink:href="#DejaVuSans-35" x="63.623047"/>
       <use xlink:href="#DejaVuSans-36" x="127.246094"/>
      </g>
     </g>
    </g>
    <g id="text_5">
     <!-- Nodes -->
     <g style="fill: #262626" transform="translate(158.759141 415.803906) scale(0.13 -0.13)">
      <defs>
       <path id="DejaVuSans-4e" d="M 628 4666 
L 1478 4666 
L 3547 763 
L 3547 4666 
L 4159 4666 
L 4159 0 
L 3309 0 
L 1241 3903 
L 1241 0 
L 628 0 
L 628 4666 
z
" transform="scale(0.015625)"/>
       <path id="DejaVuSans-6f" d="M 1959 3097 
Q 1497 3097 1228 2736 
Q 959 2375 959 1747 
Q 959 1119 1226 758 
Q 1494 397 1959 397 
Q 2419 397 2687 759 
Q 2956 1122 2956 1747 
Q 2956 2369 2687 2733 
Q 2419 3097 1959 3097 
z
M 1959 3584 
Q 2709 3584 3137 3096 
Q 3566 2609 3566 1747 
Q 3566 888 3137 398 
Q 2709 -91 1959 -91 
Q 1206 -91 779 398 
Q 353 888 353 1747 
Q 353 2609 779 3096 
Q 1206 3584 1959 3584 
z
" transform="scale(0.015625)"/>
       <path id="DejaVuSans-64" d="M 2906 2969 
L 2906 4863 
L 3481 4863 
L 3481 0 
L 2906 0 
L 2906 525 
Q 2725 213 2448 61 
Q 2172 -91 1784 -91 
Q 1150 -91 751 415 
Q 353 922 353 1747 
Q 353 2572 751 3078 
Q 1150 3584 1784 3584 
Q 2172 3584 2448 3432 
Q 2725 3281 2906 2969 
z
M 947 1747 
Q 947 1113 1208 752 
Q 1469 391 1925 391 
Q 2381 391 2643 752 
Q 2906 1113 2906 1747 
Q 2906 2381 2643 2742 
Q 2381 3103 1925 3103 
Q 1469 3103 1208 2742 
Q 947 2381 947 1747 
z
" transform="scale(0.015625)"/>
       <path id="DejaVuSans-65" d="M 3597 1894 
L 3597 1613 
L 953 1613 
Q 991 1019 1311 708 
Q 1631 397 2203 397 
Q 2534 397 2845 478 
Q 3156 559 3463 722 
L 3463 178 
Q 3153 47 2828 -22 
Q 2503 -91 2169 -91 
Q 1331 -91 842 396 
Q 353 884 353 1716 
Q 353 2575 817 3079 
Q 1281 3584 2069 3584 
Q 2775 3584 3186 3129 
Q 3597 2675 3597 1894 
z
M 3022 2063 
Q 3016 2534 2758 2815 
Q 2500 3097 2075 3097 
Q 1594 3097 1305 2825 
Q 1016 2553 972 2059 
L 3022 2063 
z
" transform="scale(0.015625)"/>
       <path id="DejaVuSans-73" d="M 2834 3397 
L 2834 2853 
Q 2591 2978 2328 3040 
Q 2066 3103 1784 3103 
Q 1356 3103 1142 2972 
Q 928 2841 928 2578 
Q 928 2378 1081 2264 
Q 1234 2150 1697 2047 
L 1894 2003 
Q 2506 1872 2764 1633 
Q 3022 1394 3022 966 
Q 3022 478 2636 193 
Q 2250 -91 1575 -91 
Q 1294 -91 989 -36 
Q 684 19 347 128 
L 347 722 
Q 666 556 975 473 
Q 1284 391 1588 391 
Q 1994 391 2212 530 
Q 2431 669 2431 922 
Q 2431 1156 2273 1281 
Q 2116 1406 1581 1522 
L 1381 1569 
Q 847 1681 609 1914 
Q 372 2147 372 2553 
Q 372 3047 722 3315 
Q 1072 3584 1716 3584 
Q 2034 3584 2315 3537 
Q 2597 3491 2834 3397 
z
" transform="scale(0.015625)"/>
      </defs>
      <use xlink:href="#DejaVuSans-4e"/>
      <use xlink:href="#DejaVuSans-6f" x="74.804688"/>
      <use xlink:href="#DejaVuSans-64" x="135.986328"/>
      <use xlink:href="#DejaVuSans-65" x="199.462891"/>
      <use xlink:href="#DejaVuSans-73" x="260.986328"/>
     </g>
    </g>
   </g>
   <g id="matplotlib.axis_2">
    <g id="ytick_1">
     <g id="line2d_1">
      <path d="M 47.1825 380.431783 
L 311.04 380.431783 
" clip-path="url(#p45e96afee0)" style="fill: none; stroke: #cccccc; stroke-linecap: round"/>
     </g>
     <g id="text_6">
      <!-- $\mathdefault{0}$ -->
      <g style="fill: #262626" transform="translate(30.6425 384.610924) scale(0.11 -0.11)">
       <defs>
        <path id="DejaVuSans-30" d="M 2034 4250 
Q 1547 4250 1301 3770 
Q 1056 3291 1056 2328 
Q 1056 1369 1301 889 
Q 1547 409 2034 409 
Q 2525 409 2770 889 
Q 3016 1369 3016 2328 
Q 3016 3291 2770 3770 
Q 2525 4250 2034 4250 
z
M 2034 4750 
Q 2819 4750 3233 4129 
Q 3647 3509 3647 2328 
Q 3647 1150 3233 529 
Q 2819 -91 2034 -91 
Q 1250 -91 836 529 
Q 422 1150 422 2328 
Q 422 3509 836 4129 
Q 1250 4750 2034 4750 
z
" transform="scale(0.015625)"/>
       </defs>
       <use xlink:href="#DejaVuSans-30" transform="translate(0 0.78125)"/>
      </g>
     </g>
    </g>
    <g id="ytick_2">
     <g id="line2d_2">
      <path d="M 47.1825 337.694535 
L 311.04 337.694535 
" clip-path="url(#p45e96afee0)" style="fill: none; stroke: #cccccc; stroke-linecap: round"/>
     </g>
     <g id="text_7">
      <!-- $\mathdefault{1}$ -->
      <g style="fill: #262626" transform="translate(30.6425 341.873675) scale(0.11 -0.11)">
       <use xlink:href="#DejaVuSans-31" transform="translate(0 0.09375)"/>
      </g>
     </g>
    </g>
    <g id="ytick_3">
     <g id="line2d_3">
      <path d="M 47.1825 294.957287 
L 311.04 294.957287 
" clip-path="url(#p45e96afee0)" style="fill: none; stroke: #cccccc; stroke-linecap: round"/>
     </g>
     <g id="text_8">
      <!-- $\mathdefault{2}$ -->
      <g style="fill: #262626" transform="translate(30.6425 299.136427) scale(0.11 -0.11)">
       <use xlink:href="#DejaVuSans-32" transform="translate(0 0.78125)"/>
      </g>
     </g>
    </g>
    <g id="ytick_4">
     <g id="line2d_4">
      <path d="M 47.1825 252.220038 
L 311.04 252.220038 
" clip-path="url(#p45e96afee0)" style="fill: none; stroke: #cccccc; stroke-linecap: round"/>
     </g>
     <g id="text_9">
      <!-- $\mathdefault{3}$ -->
      <g style="fill: #262626" transform="translate(30.6425 256.399179) scale(0.11 -0.11)">
       <use xlink:href="#DejaVuSans-33" transform="translate(0 0.78125)"/>
      </g>
     </g>
    </g>
    <g id="ytick_5">
     <g id="line2d_5">
      <path d="M 47.1825 209.48279 
L 311.04 209.48279 
" clip-path="url(#p45e96afee0)" style="fill: none; stroke: #cccccc; stroke-linecap: round"/>
     </g>
     <g id="text_10">
      <!-- $\mathdefault{4}$ -->
      <g style="fill: #262626" transform="translate(30.6425 213.661931) scale(0.11 -0.11)">
       <use xlink:href="#DejaVuSans-34" transform="translate(0 0.09375)"/>
      </g>
     </g>
    </g>
    <g id="ytick_6">
     <g id="line2d_6">
      <path d="M 47.1825 166.745542 
L 311.04 166.745542 
" clip-path="url(#p45e96afee0)" style="fill: none; stroke: #cccccc; stroke-linecap: round"/>
     </g>
     <g id="text_11">
      <!-- $\mathdefault{5}$ -->
      <g style="fill: #262626" transform="translate(30.6425 170.924683) scale(0.11 -0.11)">
       <use xlink:href="#DejaVuSans-35" transform="translate(0 0.09375)"/>
      </g>
     </g>
    </g>
    <g id="ytick_7">
     <g id="line2d_7">
      <path d="M 47.1825 124.008294 
L 311.04 124.008294 
" clip-path="url(#p45e96afee0)" style="fill: none; stroke: #cccccc; stroke-linecap: round"/>
     </g>
     <g id="text_12">
      <!-- $\mathdefault{6}$ -->
      <g style="fill: #262626" transform="translate(30.6425 128.187434) scale(0.11 -0.11)">
       <use xlink:href="#DejaVuSans-36" transform="translate(0 0.78125)"/>
      </g>
     </g>
    </g>
    <g id="ytick_8">
     <g id="line2d_8">
      <path d="M 47.1825 81.271046 
L 311.04 81.271046 
" clip-path="url(#p45e96afee0)" style="fill: none; stroke: #cccccc; stroke-linecap: round"/>
     </g>
     <g id="text_13">
      <!-- $\mathdefault{7}$ -->
      <g style="fill: #262626" transform="translate(30.6425 85.450186) scale(0.11 -0.11)">
       <defs>
        <path id="DejaVuSans-37" d="M 525 4666 
L 3525 4666 
L 3525 4397 
L 1831 0 
L 1172 0 
L 2766 4134 
L 525 4134 
L 525 4666 
z
" transform="scale(0.015625)"/>
       </defs>
       <use xlink:href="#DejaVuSans-37" transform="translate(0 0.09375)"/>
      </g>
     </g>
    </g>
    <g id="ytick_9">
     <g id="line2d_9">
      <path d="M 47.1825 38.533797 
L 311.04 38.533797 
" clip-path="url(#p45e96afee0)" style="fill: none; stroke: #cccccc; stroke-linecap: round"/>
     </g>
     <g id="text_14">
      <!-- $\mathdefault{8}$ -->
      <g style="fill: #262626" transform="translate(30.6425 42.712938) scale(0.11 -0.11)">
       <use xlink:href="#DejaVuSans-38" transform="translate(0 0.78125)"/>
      </g>
     </g>
    </g>
    <g id="text_15">
     <!-- FOM Overall -->
     <g style="fill: #262626" transform="translate(23.938906 244.281688) rotate(-90) scale(0.13 -0.13)">
      <defs>
       <path id="DejaVuSans-46" d="M 628 4666 
L 3309 4666 
L 3309 4134 
L 1259 4134 
L 1259 2759 
L 3109 2759 
L 3109 2228 
L 1259 2228 
L 1259 0 
L 628 0 
L 628 4666 
z
" transform="scale(0.015625)"/>
       <path id="DejaVuSans-4f" d="M 2522 4238 
Q 1834 4238 1429 3725 
Q 1025 3213 1025 2328 
Q 1025 1447 1429 934 
Q 1834 422 2522 422 
Q 3209 422 3611 934 
Q 4013 1447 4013 2328 
Q 4013 3213 3611 3725 
Q 3209 4238 2522 4238 
z
M 2522 4750 
Q 3503 4750 4090 4092 
Q 4678 3434 4678 2328 
Q 4678 1225 4090 567 
Q 3503 -91 2522 -91 
Q 1538 -91 948 565 
Q 359 1222 359 2328 
Q 359 3434 948 4092 
Q 1538 4750 2522 4750 
z
" transform="scale(0.015625)"/>
       <path id="DejaVuSans-4d" d="M 628 4666 
L 1569 4666 
L 2759 1491 
L 3956 4666 
L 4897 4666 
L 4897 0 
L 4281 0 
L 4281 4097 
L 3078 897 
L 2444 897 
L 1241 4097 
L 1241 0 
L 628 0 
L 628 4666 
z
" transform="scale(0.015625)"/>
       <path id="DejaVuSans-20" transform="scale(0.015625)"/>
       <path id="DejaVuSans-76" d="M 191 3500 
L 800 3500 
L 1894 563 
L 2988 3500 
L 3597 3500 
L 2284 0 
L 1503 0 
L 191 3500 
z
" transform="scale(0.015625)"/>
       <path id="DejaVuSans-72" d="M 2631 2963 
Q 2534 3019 2420 3045 
Q 2306 3072 2169 3072 
Q 1681 3072 1420 2755 
Q 1159 2438 1159 1844 
L 1159 0 
L 581 0 
L 581 3500 
L 1159 3500 
L 1159 2956 
Q 1341 3275 1631 3429 
Q 1922 3584 2338 3584 
Q 2397 3584 2469 3576 
Q 2541 3569 2628 3553 
L 2631 2963 
z
" transform="scale(0.015625)"/>
       <path id="DejaVuSans-61" d="M 2194 1759 
Q 1497 1759 1228 1600 
Q 959 1441 959 1056 
Q 959 750 1161 570 
Q 1363 391 1709 391 
Q 2188 391 2477 730 
Q 2766 1069 2766 1631 
L 2766 1759 
L 2194 1759 
z
M 3341 1997 
L 3341 0 
L 2766 0 
L 2766 531 
Q 2569 213 2275 61 
Q 1981 -91 1556 -91 
Q 1019 -91 701 211 
Q 384 513 384 1019 
Q 384 1609 779 1909 
Q 1175 2209 1959 2209 
L 2766 2209 
L 2766 2266 
Q 2766 2663 2505 2880 
Q 2244 3097 1772 3097 
Q 1472 3097 1187 3025 
Q 903 2953 641 2809 
L 641 3341 
Q 956 3463 1253 3523 
Q 1550 3584 1831 3584 
Q 2591 3584 2966 3190 
Q 3341 2797 3341 1997 
z
" transform="scale(0.015625)"/>
       <path id="DejaVuSans-6c" d="M 603 4863 
L 1178 4863 
L 1178 0 
L 603 0 
L 603 4863 
z
" transform="scale(0.015625)"/>
      </defs>
      <use xlink:href="#DejaVuSans-46"/>
      <use xlink:href="#DejaVuSans-4f" x="57.519531"/>
      <use xlink:href="#DejaVuSans-4d" x="136.230469"/>
      <use xlink:href="#DejaVuSans-20" x="222.509766"/>
      <use xlink:href="#DejaVuSans-4f" x="254.296875"/>
      <use xlink:href="#DejaVuSans-76" x="333.007812"/>
      <use xlink:href="#DejaVuSans-65" x="392.1875"/>
      <use xlink:href="#DejaVuSans-72" x="453.710938"/>
      <use xlink:href="#DejaVuSans-61" x="494.824219"/>
      <use xlink:href="#DejaVuSans-6c" x="556.103516"/>
      <use xlink:href="#DejaVuSans-6c" x="583.886719"/>
     </g>
    </g>
    <g id="text_16">
     <!-- $\times\mathdefault{10^{9}}\mathdefault{}$ -->
     <g style="fill: #262626" transform="translate(47.1825 24.264) scale(0.11 -0.11)">
      <defs>
       <path id="DejaVuSans-d7" d="M 4488 3438 
L 3059 2003 
L 4488 575 
L 4116 197 
L 2681 1631 
L 1247 197 
L 878 575 
L 2303 2003 
L 878 3438 
L 1247 3816 
L 2681 2381 
L 4116 3816 
L 4488 3438 
z
" transform="scale(0.015625)"/>
       <path id="DejaVuSans-39" d="M 703 97 
L 703 672 
Q 941 559 1184 500 
Q 1428 441 1663 441 
Q 2288 441 2617 861 
Q 2947 1281 2994 2138 
Q 2813 1869 2534 1725 
Q 2256 1581 1919 1581 
Q 1219 1581 811 2004 
Q 403 2428 403 3163 
Q 403 3881 828 4315 
Q 1253 4750 1959 4750 
Q 2769 4750 3195 4129 
Q 3622 3509 3622 2328 
Q 3622 1225 3098 567 
Q 2575 -91 1691 -91 
Q 1453 -91 1209 -44 
Q 966 3 703 97 
z
M 1959 2075 
Q 2384 2075 2632 2365 
Q 2881 2656 2881 3163 
Q 2881 3666 2632 3958 
Q 2384 4250 1959 4250 
Q 1534 4250 1286 3958 
Q 1038 3666 1038 3163 
Q 1038 2656 1286 2365 
Q 1534 2075 1959 2075 
z
" transform="scale(0.015625)"/>
      </defs>
      <use xlink:href="#DejaVuSans-d7" transform="translate(0 0.765625)"/>
      <use xlink:href="#DejaVuSans-31" transform="translate(83.789062 0.765625)"/>
      <use xlink:href="#DejaVuSans-30" transform="translate(147.412109 0.765625)"/>
      <use xlink:href="#DejaVuSans-39" transform="translate(211.992188 39.046875) scale(0.7)"/>
     </g>
    </g>
   </g>
   <g id="patch_3">
    <path d="M 47.1825 381.78 
L 47.1825 27.264 
" style="fill: none; stroke: #cccccc; stroke-width: 1.25; stroke-linejoin: miter; stroke-linecap: square"/>
   </g>
   <g id="patch_4">
    <path d="M 311.04 381.78 
L 311.04 27.264 
" style="fill: none; stroke: #cccccc; stroke-width: 1.25; stroke-linejoin: miter; stroke-linecap: square"/>
   </g>
   <g id="patch_5">
    <path d="M 47.1825 381.78 
L 311.04 381.78 
" style="fill: none; stroke: #cccccc; stroke-width: 1.25; stroke-linejoin: miter; stroke-linecap: square"/>
   </g>
   <g id="patch_6">
    <path d="M 47.1825 27.264 
L 311.04 27.264 
" style="fill: none; stroke: #cccccc; stroke-width: 1.25; stroke-linejoin: miter; stroke-linecap: square"/>
   </g>
   <g id="PathCollection_1">
    <defs>
     <path id="C0_0_7eedb4954d" d="M 0 -2.5 
L -2.377641 -0.772542 
L -1.469463 2.022542 
L 1.469463 2.022542 
L 2.377641 -0.772542 
z
"/>
    </defs>
    <g clip-path="url(#p45e96afee0)">
     <use xlink:href="#C0_0_7eedb4954d" x="83.003275" y="365.496192" style="fill: #8c613c"/>
    </g>
    <g clip-path="url(#p45e96afee0)">
     <use xlink:href="#C0_0_7eedb4954d" x="86.046346" y="365.447018" style="fill: #8c613c"/>
    </g>
    <g clip-path="url(#p45e96afee0)">
     <use xlink:href="#C0_0_7eedb4954d" x="74.147632" y="365.510376" style="fill: #8c613c"/>
    </g>
    <g clip-path="url(#p45e96afee0)">
     <use xlink:href="#C0_0_7eedb4954d" x="79.224443" y="365.486648" style="fill: #8c613c"/>
    </g>
    <g clip-path="url(#p45e96afee0)">
     <use xlink:href="#C0_0_7eedb4954d" x="80.325599" y="365.418363" style="fill: #8c613c"/>
    </g>
   </g>
   <g id="PathCollection_2">
    <defs>
     <path id="C1_0_aa3c13b074" d="M 0 -2.5 
L -2.377641 -0.772542 
L -1.469463 2.022542 
L 1.469463 2.022542 
L 2.377641 -0.772542 
z
"/>
    </defs>
    <g clip-path="url(#p45e96afee0)">
     <use xlink:href="#C1_0_aa3c13b074" x="147.505655" y="331.343609" style="fill: #8c613c"/>
    </g>
    <g clip-path="url(#p45e96afee0)">
     <use xlink:href="#C1_0_aa3c13b074" x="150.488839" y="331.228817" style="fill: #8c613c"/>
    </g>
    <g clip-path="url(#p45e96afee0)">
     <use xlink:href="#C1_0_aa3c13b074" x="140.483625" y="330.881021" style="fill: #8c613c"/>
    </g>
    <g clip-path="url(#p45e96afee0)">
     <use xlink:href="#C1_0_aa3c13b074" x="149.593914" y="331.501138" style="fill: #8c613c"/>
    </g>
    <g clip-path="url(#p45e96afee0)">
     <use xlink:href="#C1_0_aa3c13b074" x="140.645218" y="331.379337" style="fill: #8c613c"/>
    </g>
   </g>
   <g id="PathCollection_3">
    <defs>
     <path id="C2_0_6e0d1d7ebc" d="M 0 -2.5 
L -2.377641 -0.772542 
L -1.469463 2.022542 
L 1.469463 2.022542 
L 2.377641 -0.772542 
z
"/>
    </defs>
    <g clip-path="url(#p45e96afee0)">
     <use xlink:href="#C2_0_6e0d1d7ebc" x="208.93323" y="347.743318" style="fill: #8c613c"/>
    </g>
    <g clip-path="url(#p45e96afee0)">
     <use xlink:href="#C2_0_6e0d1d7ebc" x="208.372073" y="347.7346" style="fill: #8c613c"/>
    </g>
    <g clip-path="url(#p45e96afee0)">
     <use xlink:href="#C2_0_6e0d1d7ebc" x="213.932429" y="347.75646" style="fill: #8c613c"/>
    </g>
    <g clip-path="url(#p45e96afee0)">
     <use xlink:href="#C2_0_6e0d1d7ebc" x="211.526913" y="347.692632" style="fill: #8c613c"/>
    </g>
    <g clip-path="url(#p45e96afee0)">
     <use xlink:href="#C2_0_6e0d1d7ebc" x="207.30617" y="347.761106" style="fill: #8c613c"/>
    </g>
   </g>
   <g id="PathCollection_4">
    <path d="M 279.268712 314.88776 
L 276.891071 316.615218 
L 277.799249 319.410303 
L 280.738175 319.410303 
L 281.646353 316.615218 
z
" clip-path="url(#p45e96afee0)" style="fill: #8c613c"/>
    <path d="M 280.238773 314.604156 
L 277.861132 316.331613 
L 278.76931 319.126698 
L 281.708236 319.126698 
L 282.616414 316.331613 
z
" clip-path="url(#p45e96afee0)" style="fill: #8c613c"/>
   </g>
   <g id="line2d_10"/>
   <g id="PathCollection_5">
    <path d="M 81.930838 367.962438 
L 86.930838 367.962438 
L 86.930838 362.962438 
L 81.930838 362.962438 
z
" clip-path="url(#p45e96afee0)" style="fill: #6c3baa"/>
    <path d="M 83.221902 367.961139 
L 88.221902 367.961139 
L 88.221902 362.961139 
L 83.221902 362.961139 
z
" clip-path="url(#p45e96afee0)" style="fill: #6c3baa"/>
    <path d="M 72.457989 368.165636 
L 77.457989 368.165636 
L 77.457989 363.165636 
L 72.457989 363.165636 
z
" clip-path="url(#p45e96afee0)" style="fill: #6c3baa"/>
    <path d="M 71.881266 368.058165 
L 76.881266 368.058165 
L 76.881266 363.058165 
L 71.881266 363.058165 
z
" clip-path="url(#p45e96afee0)" style="fill: #6c3baa"/>
    <path d="M 76.882861 368.069337 
L 81.882861 368.069337 
L 81.882861 363.069337 
L 76.882861 363.069337 
z
" clip-path="url(#p45e96afee0)" style="fill: #6c3baa"/>
   </g>
   <g id="PathCollection_6">
    <path d="M 148.059253 354.854509 
L 153.059253 354.854509 
L 153.059253 349.854509 
L 148.059253 349.854509 
z
" clip-path="url(#p45e96afee0)" style="fill: #6c3baa"/>
    <path d="M 149.067304 354.837312 
L 154.067304 354.837312 
L 154.067304 349.837312 
L 149.067304 349.837312 
z
" clip-path="url(#p45e96afee0)" style="fill: #6c3baa"/>
    <path d="M 138.650931 354.891045 
L 143.650931 354.891045 
L 143.650931 349.891045 
L 138.650931 349.891045 
z
" clip-path="url(#p45e96afee0)" style="fill: #6c3baa"/>
    <path d="M 149.50197 354.559857 
L 154.50197 354.559857 
L 154.50197 349.559857 
L 149.50197 349.559857 
z
" clip-path="url(#p45e96afee0)" style="fill: #6c3baa"/>
    <path d="M 137.330109 354.535412 
L 142.330109 354.535412 
L 142.330109 349.535412 
L 137.330109 349.535412 
z
" clip-path="url(#p45e96afee0)" style="fill: #6c3baa"/>
   </g>
   <g id="PathCollection_7">
    <path d="M 209.977219 330.448348 
L 214.977219 330.448348 
L 214.977219 325.448348 
L 209.977219 325.448348 
z
" clip-path="url(#p45e96afee0)" style="fill: #6c3baa"/>
    <path d="M 208.461204 330.752552 
L 213.461204 330.752552 
L 213.461204 325.752552 
L 208.461204 325.752552 
z
" clip-path="url(#p45e96afee0)" style="fill: #6c3baa"/>
    <path d="M 205.973132 330.340009 
L 210.973132 330.340009 
L 210.973132 325.340009 
L 205.973132 325.340009 
z
" clip-path="url(#p45e96afee0)" style="fill: #6c3baa"/>
    <path d="M 203.159737 330.326761 
L 208.159737 330.326761 
L 208.159737 325.326761 
L 203.159737 325.326761 
z
" clip-path="url(#p45e96afee0)" style="fill: #6c3baa"/>
    <path d="M 205.74255 330.412064 
L 210.74255 330.412064 
L 210.74255 325.412064 
L 205.74255 325.412064 
z
" clip-path="url(#p45e96afee0)" style="fill: #6c3baa"/>
   </g>
   <g id="PathCollection_8">
    <path d="M 278.218034 285.014636 
L 283.218034 285.014636 
L 283.218034 280.014636 
L 278.218034 280.014636 
z
" clip-path="url(#p45e96afee0)" style="fill: #6c3baa"/>
    <path d="M 273.934834 287.367407 
L 278.934834 287.367407 
L 278.934834 282.367407 
L 273.934834 282.367407 
z
" clip-path="url(#p45e96afee0)" style="fill: #6c3baa"/>
    <path d="M 281.632381 283.627342 
L 286.632381 283.627342 
L 286.632381 278.627342 
L 281.632381 278.627342 
z
" clip-path="url(#p45e96afee0)" style="fill: #6c3baa"/>
    <path d="M 281.855885 282.237313 
L 286.855885 282.237313 
L 286.855885 277.237313 
L 281.855885 277.237313 
z
" clip-path="url(#p45e96afee0)" style="fill: #6c3baa"/>
    <path d="M 269.003223 288.525031 
L 274.003223 288.525031 
L 274.003223 283.525031 
L 269.003223 283.525031 
z
" clip-path="url(#p45e96afee0)" style="fill: #6c3baa"/>
   </g>
   <g id="line2d_11"/>
   <g id="PathCollection_9">
    <path d="M 75.222873 336.562221 
L 78.758406 333.026687 
L 75.222873 329.491153 
L 71.687339 333.026687 
z
" clip-path="url(#p45e96afee0)" style="fill: #dc7ec0"/>
    <path d="M 77.664626 336.485508 
L 81.200159 332.949974 
L 77.664626 329.41444 
L 74.129092 332.949974 
z
" clip-path="url(#p45e96afee0)" style="fill: #dc7ec0"/>
    <path d="M 85.163114 336.315798 
L 88.698648 332.780264 
L 85.163114 329.24473 
L 81.62758 332.780264 
z
" clip-path="url(#p45e96afee0)" style="fill: #dc7ec0"/>
    <path d="M 82.859803 336.548289 
L 86.395337 333.012755 
L 82.859803 329.477221 
L 79.324269 333.012755 
z
" clip-path="url(#p45e96afee0)" style="fill: #dc7ec0"/>
    <path d="M 78.308904 336.479439 
L 81.844437 332.943905 
L 78.308904 329.408371 
L 74.77337 332.943905 
z
" clip-path="url(#p45e96afee0)" style="fill: #dc7ec0"/>
   </g>
   <g id="PathCollection_10">
    <path d="M 148.17684 297.477255 
L 151.712374 293.941721 
L 148.17684 290.406187 
L 144.641306 293.941721 
z
" clip-path="url(#p45e96afee0)" style="fill: #dc7ec0"/>
    <path d="M 144.365272 295.891447 
L 147.900806 292.355913 
L 144.365272 288.820379 
L 140.829738 292.355913 
z
" clip-path="url(#p45e96afee0)" style="fill: #dc7ec0"/>
    <path d="M 141.87808 295.895806 
L 145.413614 292.360272 
L 141.87808 288.824738 
L 138.342546 292.360272 
z
" clip-path="url(#p45e96afee0)" style="fill: #dc7ec0"/>
    <path d="M 146.355477 297.539694 
L 149.891011 294.00416 
L 146.355477 290.468627 
L 142.819943 294.00416 
z
" clip-path="url(#p45e96afee0)" style="fill: #dc7ec0"/>
    <path d="M 150.693959 296.057951 
L 154.229493 292.522417 
L 150.693959 288.986883 
L 147.158425 292.522417 
z
" clip-path="url(#p45e96afee0)" style="fill: #dc7ec0"/>
   </g>
   <g id="PathCollection_11">
    <path d="M 210.067832 208.818877 
L 213.603366 205.283343 
L 210.067832 201.747809 
L 206.532298 205.283343 
z
" clip-path="url(#p45e96afee0)" style="fill: #dc7ec0"/>
    <path d="M 211.212587 210.691195 
L 214.748121 207.155662 
L 211.212587 203.620128 
L 207.677053 207.155662 
z
" clip-path="url(#p45e96afee0)" style="fill: #dc7ec0"/>
    <path d="M 207.649882 211.938397 
L 211.185416 208.402863 
L 207.649882 204.867329 
L 204.114348 208.402863 
z
" clip-path="url(#p45e96afee0)" style="fill: #dc7ec0"/>
    <path d="M 210.581545 211.798774 
L 214.117079 208.26324 
L 210.581545 204.727706 
L 207.046011 208.26324 
z
" clip-path="url(#p45e96afee0)" style="fill: #dc7ec0"/>
    <path d="M 217.677511 211.435807 
L 221.213045 207.900273 
L 217.677511 204.364739 
L 214.141977 207.900273 
z
" clip-path="url(#p45e96afee0)" style="fill: #dc7ec0"/>
   </g>
   <g id="PathCollection_12">
    <path d="M 274.659946 49.9632 
L 278.19548 46.427666 
L 274.659946 42.892132 
L 271.124412 46.427666 
z
" clip-path="url(#p45e96afee0)" style="fill: #dc7ec0"/>
    <path d="M 281.435143 46.913898 
L 284.970677 43.378364 
L 281.435143 39.84283 
L 277.89961 43.378364 
z
" clip-path="url(#p45e96afee0)" style="fill: #dc7ec0"/>
    <path d="M 277.9366 47.367425 
L 281.472133 43.831891 
L 277.9366 40.296357 
L 274.401066 43.831891 
z
" clip-path="url(#p45e96afee0)" style="fill: #dc7ec0"/>
    <path d="M 277.895711 47.940404 
L 281.431245 44.40487 
L 277.895711 40.869336 
L 274.360177 44.40487 
z
" clip-path="url(#p45e96afee0)" style="fill: #dc7ec0"/>
    <path d="M 284.182764 52.532735 
L 287.718297 48.997201 
L 284.182764 45.461667 
L 280.64723 48.997201 
z
" clip-path="url(#p45e96afee0)" style="fill: #dc7ec0"/>
   </g>
   <g id="line2d_12"/>
   <g id="PathCollection_13">
    <defs>
     <path id="C3_0_55fa613b31" d="M 0 2.5 
C 0.663008 2.5 1.29895 2.236584 1.767767 1.767767 
C 2.236584 1.29895 2.5 0.663008 2.5 -0 
C 2.5 -0.663008 2.236584 -1.29895 1.767767 -1.767767 
C 1.29895 -2.236584 0.663008 -2.5 0 -2.5 
C -0.663008 -2.5 -1.29895 -2.236584 -1.767767 -1.767767 
C -2.236584 -1.29895 -2.5 -0.663008 -2.5 0 
C -2.5 0.663008 -2.236584 1.29895 -1.767767 1.767767 
C -1.29895 2.236584 -0.663008 2.5 0 2.5 
z
"/>
    </defs>
    <g clip-path="url(#p45e96afee0)">
     <use xlink:href="#C3_0_55fa613b31" x="83.890358" y="351.944279" style="fill: #4878d0"/>
    </g>
    <g clip-path="url(#p45e96afee0)">
     <use xlink:href="#C3_0_55fa613b31" x="75.207614" y="351.783715" style="fill: #4878d0"/>
    </g>
    <g clip-path="url(#p45e96afee0)">
     <use xlink:href="#C3_0_55fa613b31" x="79.653228" y="352.084666" style="fill: #4878d0"/>
    </g>
    <g clip-path="url(#p45e96afee0)">
     <use xlink:href="#C3_0_55fa613b31" x="85.419001" y="351.848445" style="fill: #4878d0"/>
    </g>
    <g clip-path="url(#p45e96afee0)">
     <use xlink:href="#C3_0_55fa613b31" x="80.665646" y="351.752585" style="fill: #4878d0"/>
    </g>
   </g>
   <g id="PathCollection_14">
    <defs>
     <path id="C4_0_ac1baaf5bf" d="M 0 2.5 
C 0.663008 2.5 1.29895 2.236584 1.767767 1.767767 
C 2.236584 1.29895 2.5 0.663008 2.5 -0 
C 2.5 -0.663008 2.236584 -1.29895 1.767767 -1.767767 
C 1.29895 -2.236584 0.663008 -2.5 0 -2.5 
C -0.663008 -2.5 -1.29895 -2.236584 -1.767767 -1.767767 
C -2.236584 -1.29895 -2.5 -0.663008 -2.5 0 
C -2.5 0.663008 -2.236584 1.29895 -1.767767 1.767767 
C -1.29895 2.236584 -0.663008 2.5 0 2.5 
z
"/>
    </defs>
    <g clip-path="url(#p45e96afee0)">
     <use xlink:href="#C4_0_ac1baaf5bf" x="139.798953" y="325.943843" style="fill: #4878d0"/>
    </g>
    <g clip-path="url(#p45e96afee0)">
     <use xlink:href="#C4_0_ac1baaf5bf" x="149.059919" y="326.903807" style="fill: #4878d0"/>
    </g>
    <g clip-path="url(#p45e96afee0)">
     <use xlink:href="#C4_0_ac1baaf5bf" x="150.545279" y="326.222447" style="fill: #4878d0"/>
    </g>
    <g clip-path="url(#p45e96afee0)">
     <use xlink:href="#C4_0_ac1baaf5bf" x="152.390079" y="325.626647" style="fill: #4878d0"/>
    </g>
    <g clip-path="url(#p45e96afee0)">
     <use xlink:href="#C4_0_ac1baaf5bf" x="151.958203" y="327.113861" style="fill: #4878d0"/>
    </g>
   </g>
   <g id="PathCollection_15">
    <defs>
     <path id="C5_0_974f7cb94e" d="M 0 2.5 
C 0.663008 2.5 1.29895 2.236584 1.767767 1.767767 
C 2.236584 1.29895 2.5 0.663008 2.5 -0 
C 2.5 -0.663008 2.236584 -1.29895 1.767767 -1.767767 
C 1.29895 -2.236584 0.663008 -2.5 0 -2.5 
C -0.663008 -2.5 -1.29895 -2.236584 -1.767767 -1.767767 
C -2.236584 -1.29895 -2.5 -0.663008 -2.5 0 
C -2.5 0.663008 -2.236584 1.29895 -1.767767 1.767767 
C -1.29895 2.236584 -0.663008 2.5 0 2.5 
z
"/>
    </defs>
    <g clip-path="url(#p45e96afee0)">
     <use xlink:href="#C5_0_974f7cb94e" x="206.124741" y="287.676013" style="fill: #4878d0"/>
    </g>
    <g clip-path="url(#p45e96afee0)">
     <use xlink:href="#C5_0_974f7cb94e" x="209.001681" y="288.49721" style="fill: #4878d0"/>
    </g>
    <g clip-path="url(#p45e96afee0)">
     <use xlink:href="#C5_0_974f7cb94e" x="218.444353" y="287.150687" style="fill: #4878d0"/>
    </g>
    <g clip-path="url(#p45e96afee0)">
     <use xlink:href="#C5_0_974f7cb94e" x="210.623395" y="288.875092" style="fill: #4878d0"/>
    </g>
    <g clip-path="url(#p45e96afee0)">
     <use xlink:href="#C5_0_974f7cb94e" x="217.832575" y="288.245188" style="fill: #4878d0"/>
    </g>
   </g>
   <g id="PathCollection_16">
    <defs>
     <path id="C6_0_e31dda73fc" d="M 0 2.5 
C 0.663008 2.5 1.29895 2.236584 1.767767 1.767767 
C 2.236584 1.29895 2.5 0.663008 2.5 -0 
C 2.5 -0.663008 2.236584 -1.29895 1.767767 -1.767767 
C 1.29895 -2.236584 0.663008 -2.5 0 -2.5 
C -0.663008 -2.5 -1.29895 -2.236584 -1.767767 -1.767767 
C -2.236584 -1.29895 -2.5 -0.663008 -2.5 0 
C -2.5 0.663008 -2.236584 1.29895 -1.767767 1.767767 
C -1.29895 2.236584 -0.663008 2.5 0 2.5 
z
"/>
    </defs>
    <g clip-path="url(#p45e96afee0)">
     <use xlink:href="#C6_0_e31dda73fc" x="276.447501" y="204.616556" style="fill: #4878d0"/>
    </g>
    <g clip-path="url(#p45e96afee0)">
     <use xlink:href="#C6_0_e31dda73fc" x="275.736858" y="208.624071" style="fill: #4878d0"/>
    </g>
    <g clip-path="url(#p45e96afee0)">
     <use xlink:href="#C6_0_e31dda73fc" x="278.671775" y="205.931111" style="fill: #4878d0"/>
    </g>
    <g clip-path="url(#p45e96afee0)">
     <use xlink:href="#C6_0_e31dda73fc" x="279.591058" y="208.760915" style="fill: #4878d0"/>
    </g>
    <g clip-path="url(#p45e96afee0)">
     <use xlink:href="#C6_0_e31dda73fc" x="284.536855" y="206.687219" style="fill: #4878d0"/>
    </g>
   </g>
   <g id="line2d_13"/>
   <g id="PathCollection_17">
    <path d="M 82.058135 350.370181 
L 79.558135 355.370181 
L 84.558135 355.370181 
z
" clip-path="url(#p45e96afee0)" style="fill: #ee854a"/>
    <path d="M 77.277971 350.167209 
L 74.777971 355.167209 
L 79.777971 355.167209 
z
" clip-path="url(#p45e96afee0)" style="fill: #ee854a"/>
    <path d="M 75.321938 350.384289 
L 72.821938 355.384289 
L 77.821938 355.384289 
z
" clip-path="url(#p45e96afee0)" style="fill: #ee854a"/>
    <path d="M 77.244554 350.232717 
L 74.744554 355.232717 
L 79.744554 355.232717 
z
" clip-path="url(#p45e96afee0)" style="fill: #ee854a"/>
    <path d="M 77.092828 350.160328 
L 74.592828 355.160328 
L 79.592828 355.160328 
z
" clip-path="url(#p45e96afee0)" style="fill: #ee854a"/>
   </g>
   <g id="PathCollection_18">
    <path d="M 141.163512 323.958357 
L 138.663512 328.958357 
L 143.663512 328.958357 
z
" clip-path="url(#p45e96afee0)" style="fill: #ee854a"/>
    <path d="M 145.003443 324.097466 
L 142.503443 329.097466 
L 147.503443 329.097466 
z
" clip-path="url(#p45e96afee0)" style="fill: #ee854a"/>
    <path d="M 149.181164 323.668171 
L 146.681164 328.668171 
L 151.681164 328.668171 
z
" clip-path="url(#p45e96afee0)" style="fill: #ee854a"/>
    <path d="M 152.042239 324.629203 
L 149.542239 329.629203 
L 154.542239 329.629203 
z
" clip-path="url(#p45e96afee0)" style="fill: #ee854a"/>
    <path d="M 143.36665 324.605313 
L 140.86665 329.605313 
L 145.86665 329.605313 
z
" clip-path="url(#p45e96afee0)" style="fill: #ee854a"/>
   </g>
   <g id="PathCollection_19">
    <path d="M 218.181635 280.980711 
L 215.681635 285.980711 
L 220.681635 285.980711 
z
" clip-path="url(#p45e96afee0)" style="fill: #ee854a"/>
    <path d="M 216.18771 282.256888 
L 213.68771 287.256888 
L 218.68771 287.256888 
z
" clip-path="url(#p45e96afee0)" style="fill: #ee854a"/>
    <path d="M 211.837993 289.978654 
L 209.337993 294.978654 
L 214.337993 294.978654 
z
" clip-path="url(#p45e96afee0)" style="fill: #ee854a"/>
    <path d="M 212.986204 281.075374 
L 210.486204 286.075374 
L 215.486204 286.075374 
z
" clip-path="url(#p45e96afee0)" style="fill: #ee854a"/>
    <path d="M 210.018449 282.212826 
L 207.518449 287.212826 
L 212.518449 287.212826 
z
" clip-path="url(#p45e96afee0)" style="fill: #ee854a"/>
   </g>
   <g id="PathCollection_20">
    <path d="M 275.596203 190.970596 
L 273.096203 195.970596 
L 278.096203 195.970596 
z
" clip-path="url(#p45e96afee0)" style="fill: #ee854a"/>
    <path d="M 275.441298 211.831032 
L 272.941298 216.831032 
L 277.941298 216.831032 
z
" clip-path="url(#p45e96afee0)" style="fill: #ee854a"/>
    <path d="M 280.684924 189.332777 
L 278.184924 194.332777 
L 283.184924 194.332777 
z
" clip-path="url(#p45e96afee0)" style="fill: #ee854a"/>
    <path d="M 282.20671 190.556857 
L 279.70671 195.556857 
L 284.70671 195.556857 
z
" clip-path="url(#p45e96afee0)" style="fill: #ee854a"/>
    <path d="M 283.196126 190.723447 
L 280.696126 195.723447 
L 285.696126 195.723447 
z
" clip-path="url(#p45e96afee0)" style="fill: #ee854a"/>
   </g>
   <g id="line2d_14"/>
   <g id="PathCollection_21">
    <path d="M 78.687727 344.593374 
L 83.687727 347.093374 
L 83.687727 342.093374 
z
" clip-path="url(#p45e96afee0)" style="fill: #d65f5f"/>
    <path d="M 76.583305 344.372038 
L 81.583305 346.872038 
L 81.583305 341.872038 
z
" clip-path="url(#p45e96afee0)" style="fill: #d65f5f"/>
    <path d="M 82.713145 344.579151 
L 87.713145 347.079151 
L 87.713145 342.079151 
z
" clip-path="url(#p45e96afee0)" style="fill: #d65f5f"/>
    <path d="M 76.686479 344.626978 
L 81.686479 347.126978 
L 81.686479 342.126978 
z
" clip-path="url(#p45e96afee0)" style="fill: #d65f5f"/>
    <path d="M 78.710936 344.599177 
L 83.710936 347.099177 
L 83.710936 342.099177 
z
" clip-path="url(#p45e96afee0)" style="fill: #d65f5f"/>
   </g>
   <g id="PathCollection_22">
    <path d="M 144.930319 309.252041 
L 149.930319 311.752041 
L 149.930319 306.752041 
z
" clip-path="url(#p45e96afee0)" style="fill: #d65f5f"/>
    <path d="M 138.457872 308.618205 
L 143.457872 311.118205 
L 143.457872 306.118205 
z
" clip-path="url(#p45e96afee0)" style="fill: #d65f5f"/>
    <path d="M 149.503696 309.035834 
L 154.503696 311.535834 
L 154.503696 306.535834 
z
" clip-path="url(#p45e96afee0)" style="fill: #d65f5f"/>
    <path d="M 140.84582 309.549407 
L 145.84582 312.049407 
L 145.84582 307.049407 
z
" clip-path="url(#p45e96afee0)" style="fill: #d65f5f"/>
    <path d="M 144.472565 309.017115 
L 149.472565 311.517115 
L 149.472565 306.517115 
z
" clip-path="url(#p45e96afee0)" style="fill: #d65f5f"/>
    <path d="M 139.720022 308.993011 
L 144.720022 311.493011 
L 144.720022 306.493011 
z
" clip-path="url(#p45e96afee0)" style="fill: #d65f5f"/>
    <path d="M 142.247081 309.905494 
L 147.247081 312.405494 
L 147.247081 307.405494 
z
" clip-path="url(#p45e96afee0)" style="fill: #d65f5f"/>
   </g>
   <g id="PathCollection_23">
    <path d="M 206.544713 253.026277 
L 211.544713 255.526277 
L 211.544713 250.526277 
z
" clip-path="url(#p45e96afee0)" style="fill: #d65f5f"/>
    <path d="M 213.073689 253.128376 
L 218.073689 255.628376 
L 218.073689 250.628376 
z
" clip-path="url(#p45e96afee0)" style="fill: #d65f5f"/>
    <path d="M 212.29427 254.040132 
L 217.29427 256.540132 
L 217.29427 251.540132 
z
" clip-path="url(#p45e96afee0)" style="fill: #d65f5f"/>
    <path d="M 204.486729 254.478702 
L 209.486729 256.978702 
L 209.486729 251.978702 
z
" clip-path="url(#p45e96afee0)" style="fill: #d65f5f"/>
    <path d="M 203.39074 252.746818 
L 208.39074 255.246818 
L 208.39074 250.246818 
z
" clip-path="url(#p45e96afee0)" style="fill: #d65f5f"/>
   </g>
   <g id="PathCollection_24">
    <path d="M 271.695819 150.052458 
L 276.695819 152.552458 
L 276.695819 147.552458 
z
" clip-path="url(#p45e96afee0)" style="fill: #d65f5f"/>
    <path d="M 275.779368 163.382591 
L 280.779368 165.882591 
L 280.779368 160.882591 
z
" clip-path="url(#p45e96afee0)" style="fill: #d65f5f"/>
   </g>
   <g id="line2d_15"/>
   <g id="PathCollection_25">
    <path d="M 84.017566 351.792319 
L 86.138886 348.256785 
L 84.017566 344.721251 
L 81.896246 348.256785 
z
" clip-path="url(#p45e96afee0)" style="fill: #008000"/>
    <path d="M 76.776041 351.829564 
L 78.897361 348.29403 
L 76.776041 344.758497 
L 74.65472 348.29403 
z
" clip-path="url(#p45e96afee0)" style="fill: #008000"/>
    <path d="M 79.461014 351.544524 
L 81.582334 348.00899 
L 79.461014 344.473456 
L 77.339694 348.00899 
z
" clip-path="url(#p45e96afee0)" style="fill: #008000"/>
    <path d="M 75.18764 352.190352 
L 77.308961 348.654818 
L 75.18764 345.119284 
L 73.06632 348.654818 
z
" clip-path="url(#p45e96afee0)" style="fill: #008000"/>
    <path d="M 78.782673 351.310572 
L 80.903993 347.775038 
L 78.782673 344.239504 
L 76.661352 347.775038 
z
" clip-path="url(#p45e96afee0)" style="fill: #008000"/>
   </g>
   <g id="PathCollection_26">
    <path d="M 150.388631 322.125108 
L 152.509952 318.589575 
L 150.388631 315.054041 
L 148.267311 318.589575 
z
" clip-path="url(#p45e96afee0)" style="fill: #008000"/>
    <path d="M 140.755397 321.616578 
L 142.876717 318.081044 
L 140.755397 314.54551 
L 138.634077 318.081044 
z
" clip-path="url(#p45e96afee0)" style="fill: #008000"/>
    <path d="M 146.137352 321.092149 
L 148.258672 317.556615 
L 146.137352 314.021081 
L 144.016031 317.556615 
z
" clip-path="url(#p45e96afee0)" style="fill: #008000"/>
    <path d="M 145.876674 322.482862 
L 147.997994 318.947328 
L 145.876674 315.411794 
L 143.755353 318.947328 
z
" clip-path="url(#p45e96afee0)" style="fill: #008000"/>
    <path d="M 147.393935 322.315802 
L 149.515256 318.780268 
L 147.393935 315.244734 
L 145.272615 318.780268 
z
" clip-path="url(#p45e96afee0)" style="fill: #008000"/>
   </g>
   <g id="PathCollection_27">
    <path d="M 210.896052 279.618214 
L 213.017372 276.08268 
L 210.896052 272.547146 
L 208.774732 276.08268 
z
" clip-path="url(#p45e96afee0)" style="fill: #008000"/>
    <path d="M 215.057564 276.247784 
L 217.178885 272.71225 
L 215.057564 269.176716 
L 212.936244 272.71225 
z
" clip-path="url(#p45e96afee0)" style="fill: #008000"/>
    <path d="M 209.902719 275.913493 
L 212.02404 272.377959 
L 209.902719 268.842425 
L 207.781399 272.377959 
z
" clip-path="url(#p45e96afee0)" style="fill: #008000"/>
    <path d="M 214.180969 275.620358 
L 216.302289 272.084824 
L 214.180969 268.54929 
L 212.059649 272.084824 
z
" clip-path="url(#p45e96afee0)" style="fill: #008000"/>
   </g>
   <g id="PathCollection_28">
    <path d="M 280.958686 184.751908 
L 283.080007 181.216374 
L 280.958686 177.68084 
L 278.837366 181.216374 
z
" clip-path="url(#p45e96afee0)" style="fill: #008000"/>
    <path d="M 282.843339 181.147833 
L 284.964659 177.612299 
L 282.843339 174.076765 
L 280.722019 177.612299 
z
" clip-path="url(#p45e96afee0)" style="fill: #008000"/>
    <path d="M 283.981092 180.067521 
L 286.102412 176.531987 
L 283.981092 172.996453 
L 281.859772 176.531987 
z
" clip-path="url(#p45e96afee0)" style="fill: #008000"/>
    <path d="M 284.245868 181.811457 
L 286.367189 178.275923 
L 284.245868 174.740389 
L 282.124548 178.275923 
z
" clip-path="url(#p45e96afee0)" style="fill: #008000"/>
    <path d="M 280.714705 179.502449 
L 282.836026 175.966915 
L 280.714705 172.431381 
L 278.593385 175.966915 
z
" clip-path="url(#p45e96afee0)" style="fill: #008000"/>
   </g>
   <g id="line2d_16"/>
   <g id="text_17">
    <!-- AMG2023 FOM Overall (CPU) -->
    <g style="fill: #262626" transform="translate(114.164297 21.264) scale(0.09 -0.09)">
     <defs>
      <path id="DejaVuSans-41" d="M 2188 4044 
L 1331 1722 
L 3047 1722 
L 2188 4044 
z
M 1831 4666 
L 2547 4666 
L 4325 0 
L 3669 0 
L 3244 1197 
L 1141 1197 
L 716 0 
L 50 0 
L 1831 4666 
z
" transform="scale(0.015625)"/>
      <path id="DejaVuSans-47" d="M 3809 666 
L 3809 1919 
L 2778 1919 
L 2778 2438 
L 4434 2438 
L 4434 434 
Q 4069 175 3628 42 
Q 3188 -91 2688 -91 
Q 1594 -91 976 548 
Q 359 1188 359 2328 
Q 359 3472 976 4111 
Q 1594 4750 2688 4750 
Q 3144 4750 3555 4637 
Q 3966 4525 4313 4306 
L 4313 3634 
Q 3963 3931 3569 4081 
Q 3175 4231 2741 4231 
Q 1884 4231 1454 3753 
Q 1025 3275 1025 2328 
Q 1025 1384 1454 906 
Q 1884 428 2741 428 
Q 3075 428 3337 486 
Q 3600 544 3809 666 
z
" transform="scale(0.015625)"/>
      <path id="DejaVuSans-28" d="M 1984 4856 
Q 1566 4138 1362 3434 
Q 1159 2731 1159 2009 
Q 1159 1288 1364 580 
Q 1569 -128 1984 -844 
L 1484 -844 
Q 1016 -109 783 600 
Q 550 1309 550 2009 
Q 550 2706 781 3412 
Q 1013 4119 1484 4856 
L 1984 4856 
z
" transform="scale(0.015625)"/>
      <path id="DejaVuSans-43" d="M 4122 4306 
L 4122 3641 
Q 3803 3938 3442 4084 
Q 3081 4231 2675 4231 
Q 1875 4231 1450 3742 
Q 1025 3253 1025 2328 
Q 1025 1406 1450 917 
Q 1875 428 2675 428 
Q 3081 428 3442 575 
Q 3803 722 4122 1019 
L 4122 359 
Q 3791 134 3420 21 
Q 3050 -91 2638 -91 
Q 1578 -91 968 557 
Q 359 1206 359 2328 
Q 359 3453 968 4101 
Q 1578 4750 2638 4750 
Q 3056 4750 3426 4639 
Q 3797 4528 4122 4306 
z
" transform="scale(0.015625)"/>
      <path id="DejaVuSans-50" d="M 1259 4147 
L 1259 2394 
L 2053 2394 
Q 2494 2394 2734 2622 
Q 2975 2850 2975 3272 
Q 2975 3691 2734 3919 
Q 2494 4147 2053 4147 
L 1259 4147 
z
M 628 4666 
L 2053 4666 
Q 2838 4666 3239 4311 
Q 3641 3956 3641 3272 
Q 3641 2581 3239 2228 
Q 2838 1875 2053 1875 
L 1259 1875 
L 1259 0 
L 628 0 
L 628 4666 
z
" transform="scale(0.015625)"/>
      <path id="DejaVuSans-55" d="M 556 4666 
L 1191 4666 
L 1191 1831 
Q 1191 1081 1462 751 
Q 1734 422 2344 422 
Q 2950 422 3222 751 
Q 3494 1081 3494 1831 
L 3494 4666 
L 4128 4666 
L 4128 1753 
Q 4128 841 3676 375 
Q 3225 -91 2344 -91 
Q 1459 -91 1007 375 
Q 556 841 556 1753 
L 556 4666 
z
" transform="scale(0.015625)"/>
      <path id="DejaVuSans-29" d="M 513 4856 
L 1013 4856 
Q 1481 4119 1714 3412 
Q 1947 2706 1947 2009 
Q 1947 1309 1714 600 
Q 1481 -109 1013 -844 
L 513 -844 
Q 928 -128 1133 580 
Q 1338 1288 1338 2009 
Q 1338 2731 1133 3434 
Q 928 4138 513 4856 
z
" transform="scale(0.015625)"/>
     </defs>
     <use xlink:href="#DejaVuSans-41"/>
     <use xlink:href="#DejaVuSans-4d" x="68.408203"/>
     <use xlink:href="#DejaVuSans-47" x="154.6875"/>
     <use xlink:href="#DejaVuSans-32" x="232.177734"/>
     <use xlink:href="#DejaVuSans-30" x="295.800781"/>
     <use xlink:href="#DejaVuSans-32" x="359.423828"/>
     <use xlink:href="#DejaVuSans-33" x="423.046875"/>
     <use xlink:href="#DejaVuSans-20" x="486.669922"/>
     <use xlink:href="#DejaVuSans-46" x="518.457031"/>
     <use xlink:href="#DejaVuSans-4f" x="575.976562"/>
     <use xlink:href="#DejaVuSans-4d" x="654.6875"/>
     <use xlink:href="#DejaVuSans-20" x="740.966797"/>
     <use xlink:href="#DejaVuSans-4f" x="772.753906"/>
     <use xlink:href="#DejaVuSans-76" x="851.464844"/>
     <use xlink:href="#DejaVuSans-65" x="910.644531"/>
     <use xlink:href="#DejaVuSans-72" x="972.167969"/>
     <use xlink:href="#DejaVuSans-61" x="1013.28125"/>
     <use xlink:href="#DejaVuSans-6c" x="1074.560547"/>
     <use xlink:href="#DejaVuSans-6c" x="1102.34375"/>
     <use xlink:href="#DejaVuSans-20" x="1130.126953"/>
     <use xlink:href="#DejaVuSans-28" x="1161.914062"/>
     <use xlink:href="#DejaVuSans-43" x="1200.927734"/>
     <use xlink:href="#DejaVuSans-50" x="1270.751953"/>
     <use xlink:href="#DejaVuSans-55" x="1331.054688"/>
     <use xlink:href="#DejaVuSans-29" x="1404.248047"/>
    </g>
   </g>
   <g id="legend_1">
    <g id="patch_7">
     <path d="M 54.8825 149.085563 
L 244.764844 149.085563 
Q 246.964844 149.085563 246.964844 146.885563 
L 246.964844 34.964 
Q 246.964844 32.764 244.764844 32.764 
L 54.8825 32.764 
Q 52.6825 32.764 52.6825 34.964 
L 52.6825 146.885563 
Q 52.6825 149.085563 54.8825 149.085563 
z
" style="fill: #ffffff; opacity: 0.8; stroke: #cccccc; stroke-linejoin: miter"/>
    </g>
    <g id="line2d_17">
     <defs>
      <path id="m45468c0822" d="M 0 -2.5 
L -2.377641 -0.772542 
L -1.469463 2.022542 
L 1.469463 2.022542 
L 2.377641 -0.772542 
z
"/>
     </defs>
     <g>
      <use xlink:href="#m45468c0822" x="68.0825" y="41.672281" style="fill: #8c613c"/>
     </g>
    </g>
    <g id="text_18">
     <!-- google/gke/cpu -->
     <g style="fill: #262626" transform="translate(87.8825 45.522281) scale(0.11 -0.11)">
      <defs>
       <path id="DejaVuSans-67" d="M 2906 1791 
Q 2906 2416 2648 2759 
Q 2391 3103 1925 3103 
Q 1463 3103 1205 2759 
Q 947 2416 947 1791 
Q 947 1169 1205 825 
Q 1463 481 1925 481 
Q 2391 481 2648 825 
Q 2906 1169 2906 1791 
z
M 3481 434 
Q 3481 -459 3084 -895 
Q 2688 -1331 1869 -1331 
Q 1566 -1331 1297 -1286 
Q 1028 -1241 775 -1147 
L 775 -588 
Q 1028 -725 1275 -790 
Q 1522 -856 1778 -856 
Q 2344 -856 2625 -561 
Q 2906 -266 2906 331 
L 2906 616 
Q 2728 306 2450 153 
Q 2172 0 1784 0 
Q 1141 0 747 490 
Q 353 981 353 1791 
Q 353 2603 747 3093 
Q 1141 3584 1784 3584 
Q 2172 3584 2450 3431 
Q 2728 3278 2906 2969 
L 2906 3500 
L 3481 3500 
L 3481 434 
z
" transform="scale(0.015625)"/>
       <path id="DejaVuSans-2f" d="M 1625 4666 
L 2156 4666 
L 531 -594 
L 0 -594 
L 1625 4666 
z
" transform="scale(0.015625)"/>
       <path id="DejaVuSans-6b" d="M 581 4863 
L 1159 4863 
L 1159 1991 
L 2875 3500 
L 3609 3500 
L 1753 1863 
L 3688 0 
L 2938 0 
L 1159 1709 
L 1159 0 
L 581 0 
L 581 4863 
z
" transform="scale(0.015625)"/>
       <path id="DejaVuSans-63" d="M 3122 3366 
L 3122 2828 
Q 2878 2963 2633 3030 
Q 2388 3097 2138 3097 
Q 1578 3097 1268 2742 
Q 959 2388 959 1747 
Q 959 1106 1268 751 
Q 1578 397 2138 397 
Q 2388 397 2633 464 
Q 2878 531 3122 666 
L 3122 134 
Q 2881 22 2623 -34 
Q 2366 -91 2075 -91 
Q 1284 -91 818 406 
Q 353 903 353 1747 
Q 353 2603 823 3093 
Q 1294 3584 2113 3584 
Q 2378 3584 2631 3529 
Q 2884 3475 3122 3366 
z
" transform="scale(0.015625)"/>
       <path id="DejaVuSans-70" d="M 1159 525 
L 1159 -1331 
L 581 -1331 
L 581 3500 
L 1159 3500 
L 1159 2969 
Q 1341 3281 1617 3432 
Q 1894 3584 2278 3584 
Q 2916 3584 3314 3078 
Q 3713 2572 3713 1747 
Q 3713 922 3314 415 
Q 2916 -91 2278 -91 
Q 1894 -91 1617 61 
Q 1341 213 1159 525 
z
M 3116 1747 
Q 3116 2381 2855 2742 
Q 2594 3103 2138 3103 
Q 1681 3103 1420 2742 
Q 1159 2381 1159 1747 
Q 1159 1113 1420 752 
Q 1681 391 2138 391 
Q 2594 391 2855 752 
Q 3116 1113 3116 1747 
z
" transform="scale(0.015625)"/>
       <path id="DejaVuSans-75" d="M 544 1381 
L 544 3500 
L 1119 3500 
L 1119 1403 
Q 1119 906 1312 657 
Q 1506 409 1894 409 
Q 2359 409 2629 706 
Q 2900 1003 2900 1516 
L 2900 3500 
L 3475 3500 
L 3475 0 
L 2900 0 
L 2900 538 
Q 2691 219 2414 64 
Q 2138 -91 1772 -91 
Q 1169 -91 856 284 
Q 544 659 544 1381 
z
M 1991 3584 
L 1991 3584 
z
" transform="scale(0.015625)"/>
      </defs>
      <use xlink:href="#DejaVuSans-67"/>
      <use xlink:href="#DejaVuSans-6f" x="63.476562"/>
      <use xlink:href="#DejaVuSans-6f" x="124.658203"/>
      <use xlink:href="#DejaVuSans-67" x="185.839844"/>
      <use xlink:href="#DejaVuSans-6c" x="249.316406"/>
      <use xlink:href="#DejaVuSans-65" x="277.099609"/>
      <use xlink:href="#DejaVuSans-2f" x="338.623047"/>
      <use xlink:href="#DejaVuSans-67" x="372.314453"/>
      <use xlink:href="#DejaVuSans-6b" x="435.791016"/>
      <use xlink:href="#DejaVuSans-65" x="490.076172"/>
      <use xlink:href="#DejaVuSans-2f" x="551.599609"/>
      <use xlink:href="#DejaVuSans-63" x="585.291016"/>
      <use xlink:href="#DejaVuSans-70" x="640.271484"/>
      <use xlink:href="#DejaVuSans-75" x="703.748047"/>
     </g>
    </g>
    <g id="line2d_18">
     <defs>
      <path id="mcac274077d" d="M -2.5 2.5 
L 2.5 2.5 
L 2.5 -2.5 
L -2.5 -2.5 
z
"/>
     </defs>
     <g>
      <use xlink:href="#mcac274077d" x="68.0825" y="57.818219" style="fill: #6c3baa"/>
     </g>
    </g>
    <g id="text_19">
     <!-- google/compute-engine/cpu -->
     <g style="fill: #262626" transform="translate(87.8825 61.668219) scale(0.11 -0.11)">
      <defs>
       <path id="DejaVuSans-6d" d="M 3328 2828 
Q 3544 3216 3844 3400 
Q 4144 3584 4550 3584 
Q 5097 3584 5394 3201 
Q 5691 2819 5691 2113 
L 5691 0 
L 5113 0 
L 5113 2094 
Q 5113 2597 4934 2840 
Q 4756 3084 4391 3084 
Q 3944 3084 3684 2787 
Q 3425 2491 3425 1978 
L 3425 0 
L 2847 0 
L 2847 2094 
Q 2847 2600 2669 2842 
Q 2491 3084 2119 3084 
Q 1678 3084 1418 2786 
Q 1159 2488 1159 1978 
L 1159 0 
L 581 0 
L 581 3500 
L 1159 3500 
L 1159 2956 
Q 1356 3278 1631 3431 
Q 1906 3584 2284 3584 
Q 2666 3584 2933 3390 
Q 3200 3197 3328 2828 
z
" transform="scale(0.015625)"/>
       <path id="DejaVuSans-74" d="M 1172 4494 
L 1172 3500 
L 2356 3500 
L 2356 3053 
L 1172 3053 
L 1172 1153 
Q 1172 725 1289 603 
Q 1406 481 1766 481 
L 2356 481 
L 2356 0 
L 1766 0 
Q 1100 0 847 248 
Q 594 497 594 1153 
L 594 3053 
L 172 3053 
L 172 3500 
L 594 3500 
L 594 4494 
L 1172 4494 
z
" transform="scale(0.015625)"/>
       <path id="DejaVuSans-2d" d="M 313 2009 
L 1997 2009 
L 1997 1497 
L 313 1497 
L 313 2009 
z
" transform="scale(0.015625)"/>
       <path id="DejaVuSans-6e" d="M 3513 2113 
L 3513 0 
L 2938 0 
L 2938 2094 
Q 2938 2591 2744 2837 
Q 2550 3084 2163 3084 
Q 1697 3084 1428 2787 
Q 1159 2491 1159 1978 
L 1159 0 
L 581 0 
L 581 3500 
L 1159 3500 
L 1159 2956 
Q 1366 3272 1645 3428 
Q 1925 3584 2291 3584 
Q 2894 3584 3203 3211 
Q 3513 2838 3513 2113 
z
" transform="scale(0.015625)"/>
       <path id="DejaVuSans-69" d="M 603 3500 
L 1178 3500 
L 1178 0 
L 603 0 
L 603 3500 
z
M 603 4863 
L 1178 4863 
L 1178 4134 
L 603 4134 
L 603 4863 
z
" transform="scale(0.015625)"/>
      </defs>
      <use xlink:href="#DejaVuSans-67"/>
      <use xlink:href="#DejaVuSans-6f" x="63.476562"/>
      <use xlink:href="#DejaVuSans-6f" x="124.658203"/>
      <use xlink:href="#DejaVuSans-67" x="185.839844"/>
      <use xlink:href="#DejaVuSans-6c" x="249.316406"/>
      <use xlink:href="#DejaVuSans-65" x="277.099609"/>
      <use xlink:href="#DejaVuSans-2f" x="338.623047"/>
      <use xlink:href="#DejaVuSans-63" x="372.314453"/>
      <use xlink:href="#DejaVuSans-6f" x="427.294922"/>
      <use xlink:href="#DejaVuSans-6d" x="488.476562"/>
      <use xlink:href="#DejaVuSans-70" x="585.888672"/>
      <use xlink:href="#DejaVuSans-75" x="649.365234"/>
      <use xlink:href="#DejaVuSans-74" x="712.744141"/>
      <use xlink:href="#DejaVuSans-65" x="751.953125"/>
      <use xlink:href="#DejaVuSans-2d" x="813.476562"/>
      <use xlink:href="#DejaVuSans-65" x="849.560547"/>
      <use xlink:href="#DejaVuSans-6e" x="911.083984"/>
      <use xlink:href="#DejaVuSans-67" x="974.462891"/>
      <use xlink:href="#DejaVuSans-69" x="1037.939453"/>
      <use xlink:href="#DejaVuSans-6e" x="1065.722656"/>
      <use xlink:href="#DejaVuSans-65" x="1129.101562"/>
      <use xlink:href="#DejaVuSans-2f" x="1190.625"/>
      <use xlink:href="#DejaVuSans-63" x="1224.316406"/>
      <use xlink:href="#DejaVuSans-70" x="1279.296875"/>
      <use xlink:href="#DejaVuSans-75" x="1342.773438"/>
     </g>
    </g>
    <g id="line2d_19">
     <defs>
      <path id="m9a4bd53613" d="M -0 3.535534 
L 3.535534 0 
L 0 -3.535534 
L -3.535534 -0 
z
"/>
     </defs>
     <g>
      <use xlink:href="#m9a4bd53613" x="68.0825" y="73.964156" style="fill: #dc7ec0"/>
     </g>
    </g>
    <g id="text_20">
     <!-- on-premises/dane/cpu -->
     <g style="fill: #262626" transform="translate(87.8825 77.814156) scale(0.11 -0.11)">
      <use xlink:href="#DejaVuSans-6f"/>
      <use xlink:href="#DejaVuSans-6e" x="61.181641"/>
      <use xlink:href="#DejaVuSans-2d" x="124.560547"/>
      <use xlink:href="#DejaVuSans-70" x="160.644531"/>
      <use xlink:href="#DejaVuSans-72" x="224.121094"/>
      <use xlink:href="#DejaVuSans-65" x="262.984375"/>
      <use xlink:href="#DejaVuSans-6d" x="324.507812"/>
      <use xlink:href="#DejaVuSans-69" x="421.919922"/>
      <use xlink:href="#DejaVuSans-73" x="449.703125"/>
      <use xlink:href="#DejaVuSans-65" x="501.802734"/>
      <use xlink:href="#DejaVuSans-73" x="563.326172"/>
      <use xlink:href="#DejaVuSans-2f" x="615.425781"/>
      <use xlink:href="#DejaVuSans-64" x="649.117188"/>
      <use xlink:href="#DejaVuSans-61" x="712.59375"/>
      <use xlink:href="#DejaVuSans-6e" x="773.873047"/>
      <use xlink:href="#DejaVuSans-65" x="837.251953"/>
      <use xlink:href="#DejaVuSans-2f" x="898.775391"/>
      <use xlink:href="#DejaVuSans-63" x="932.466797"/>
      <use xlink:href="#DejaVuSans-70" x="987.447266"/>
      <use xlink:href="#DejaVuSans-75" x="1050.923828"/>
     </g>
    </g>
    <g id="line2d_20">
     <defs>
      <path id="m9103be75ba" d="M 0 2.5 
C 0.663008 2.5 1.29895 2.236584 1.767767 1.767767 
C 2.236584 1.29895 2.5 0.663008 2.5 0 
C 2.5 -0.663008 2.236584 -1.29895 1.767767 -1.767767 
C 1.29895 -2.236584 0.663008 -2.5 0 -2.5 
C -0.663008 -2.5 -1.29895 -2.236584 -1.767767 -1.767767 
C -2.236584 -1.29895 -2.5 -0.663008 -2.5 0 
C -2.5 0.663008 -2.236584 1.29895 -1.767767 1.767767 
C -1.29895 2.236584 -0.663008 2.5 0 2.5 
z
"/>
     </defs>
     <g>
      <use xlink:href="#m9103be75ba" x="68.0825" y="90.110094" style="fill: #4878d0"/>
     </g>
    </g>
    <g id="text_21">
     <!-- aws/eks/cpu -->
     <g style="fill: #262626" transform="translate(87.8825 93.960094) scale(0.11 -0.11)">
      <defs>
       <path id="DejaVuSans-77" d="M 269 3500 
L 844 3500 
L 1563 769 
L 2278 3500 
L 2956 3500 
L 3675 769 
L 4391 3500 
L 4966 3500 
L 4050 0 
L 3372 0 
L 2619 2869 
L 1863 0 
L 1184 0 
L 269 3500 
z
" transform="scale(0.015625)"/>
      </defs>
      <use xlink:href="#DejaVuSans-61"/>
      <use xlink:href="#DejaVuSans-77" x="61.279297"/>
      <use xlink:href="#DejaVuSans-73" x="143.066406"/>
      <use xlink:href="#DejaVuSans-2f" x="195.166016"/>
      <use xlink:href="#DejaVuSans-65" x="228.857422"/>
      <use xlink:href="#DejaVuSans-6b" x="290.380859"/>
      <use xlink:href="#DejaVuSans-73" x="348.291016"/>
      <use xlink:href="#DejaVuSans-2f" x="400.390625"/>
      <use xlink:href="#DejaVuSans-63" x="434.082031"/>
      <use xlink:href="#DejaVuSans-70" x="489.0625"/>
      <use xlink:href="#DejaVuSans-75" x="552.539062"/>
     </g>
    </g>
    <g id="line2d_21">
     <defs>
      <path id="mb2ed2c15c1" d="M 0 -2.5 
L -2.5 2.5 
L 2.5 2.5 
z
"/>
     </defs>
     <g>
      <use xlink:href="#mb2ed2c15c1" x="68.0825" y="106.256031" style="fill: #ee854a"/>
     </g>
    </g>
    <g id="text_22">
     <!-- aws/parallel-cluster/cpu -->
     <g style="fill: #262626" transform="translate(87.8825 110.106031) scale(0.11 -0.11)">
      <use xlink:href="#DejaVuSans-61"/>
      <use xlink:href="#DejaVuSans-77" x="61.279297"/>
      <use xlink:href="#DejaVuSans-73" x="143.066406"/>
      <use xlink:href="#DejaVuSans-2f" x="195.166016"/>
      <use xlink:href="#DejaVuSans-70" x="228.857422"/>
      <use xlink:href="#DejaVuSans-61" x="292.333984"/>
      <use xlink:href="#DejaVuSans-72" x="353.613281"/>
      <use xlink:href="#DejaVuSans-61" x="394.726562"/>
      <use xlink:href="#DejaVuSans-6c" x="456.005859"/>
      <use xlink:href="#DejaVuSans-6c" x="483.789062"/>
      <use xlink:href="#DejaVuSans-65" x="511.572266"/>
      <use xlink:href="#DejaVuSans-6c" x="573.095703"/>
      <use xlink:href="#DejaVuSans-2d" x="600.878906"/>
      <use xlink:href="#DejaVuSans-63" x="636.962891"/>
      <use xlink:href="#DejaVuSans-6c" x="691.943359"/>
      <use xlink:href="#DejaVuSans-75" x="719.726562"/>
      <use xlink:href="#DejaVuSans-73" x="783.105469"/>
      <use xlink:href="#DejaVuSans-74" x="835.205078"/>
      <use xlink:href="#DejaVuSans-65" x="874.414062"/>
      <use xlink:href="#DejaVuSans-72" x="935.9375"/>
      <use xlink:href="#DejaVuSans-2f" x="977.050781"/>
      <use xlink:href="#DejaVuSans-63" x="1010.742188"/>
      <use xlink:href="#DejaVuSans-70" x="1065.722656"/>
      <use xlink:href="#DejaVuSans-75" x="1129.199219"/>
     </g>
    </g>
    <g id="line2d_22">
     <defs>
      <path id="m0cf82fa7b5" d="M -2.5 -0 
L 2.5 2.5 
L 2.5 -2.5 
z
"/>
     </defs>
     <g>
      <use xlink:href="#m0cf82fa7b5" x="68.0825" y="122.401969" style="fill: #d65f5f"/>
     </g>
    </g>
    <g id="text_23">
     <!-- azure/cyclecloud/cpu -->
     <g style="fill: #262626" transform="translate(87.8825 126.251969) scale(0.11 -0.11)">
      <defs>
       <path id="DejaVuSans-7a" d="M 353 3500 
L 3084 3500 
L 3084 2975 
L 922 459 
L 3084 459 
L 3084 0 
L 275 0 
L 275 525 
L 2438 3041 
L 353 3041 
L 353 3500 
z
" transform="scale(0.015625)"/>
       <path id="DejaVuSans-79" d="M 2059 -325 
Q 1816 -950 1584 -1140 
Q 1353 -1331 966 -1331 
L 506 -1331 
L 506 -850 
L 844 -850 
Q 1081 -850 1212 -737 
Q 1344 -625 1503 -206 
L 1606 56 
L 191 3500 
L 800 3500 
L 1894 763 
L 2988 3500 
L 3597 3500 
L 2059 -325 
z
" transform="scale(0.015625)"/>
      </defs>
      <use xlink:href="#DejaVuSans-61"/>
      <use xlink:href="#DejaVuSans-7a" x="61.279297"/>
      <use xlink:href="#DejaVuSans-75" x="113.769531"/>
      <use xlink:href="#DejaVuSans-72" x="177.148438"/>
      <use xlink:href="#DejaVuSans-65" x="216.011719"/>
      <use xlink:href="#DejaVuSans-2f" x="277.535156"/>
      <use xlink:href="#DejaVuSans-63" x="311.226562"/>
      <use xlink:href="#DejaVuSans-79" x="366.207031"/>
      <use xlink:href="#DejaVuSans-63" x="425.386719"/>
      <use xlink:href="#DejaVuSans-6c" x="480.367188"/>
      <use xlink:href="#DejaVuSans-65" x="508.150391"/>
      <use xlink:href="#DejaVuSans-63" x="569.673828"/>
      <use xlink:href="#DejaVuSans-6c" x="624.654297"/>
      <use xlink:href="#DejaVuSans-6f" x="652.4375"/>
      <use xlink:href="#DejaVuSans-75" x="713.619141"/>
      <use xlink:href="#DejaVuSans-64" x="776.998047"/>
      <use xlink:href="#DejaVuSans-2f" x="840.474609"/>
      <use xlink:href="#DejaVuSans-63" x="874.166016"/>
      <use xlink:href="#DejaVuSans-70" x="929.146484"/>
      <use xlink:href="#DejaVuSans-75" x="992.623047"/>
     </g>
    </g>
    <g id="line2d_23">
     <defs>
      <path id="mde074ed2fa" d="M -0 3.535534 
L 2.12132 0 
L -0 -3.535534 
L -2.12132 -0 
z
"/>
     </defs>
     <g>
      <use xlink:href="#mde074ed2fa" x="68.0825" y="138.547906" style="fill: #008000"/>
     </g>
    </g>
    <g id="text_24">
     <!-- azure/aks/cpu -->
     <g style="fill: #262626" transform="translate(87.8825 142.397906) scale(0.11 -0.11)">
      <use xlink:href="#DejaVuSans-61"/>
      <use xlink:href="#DejaVuSans-7a" x="61.279297"/>
      <use xlink:href="#DejaVuSans-75" x="113.769531"/>
      <use xlink:href="#DejaVuSans-72" x="177.148438"/>
      <use xlink:href="#DejaVuSans-65" x="216.011719"/>
      <use xlink:href="#DejaVuSans-2f" x="277.535156"/>
      <use xlink:href="#DejaVuSans-61" x="311.226562"/>
      <use xlink:href="#DejaVuSans-6b" x="372.505859"/>
      <use xlink:href="#DejaVuSans-73" x="430.416016"/>
      <use xlink:href="#DejaVuSans-2f" x="482.515625"/>
      <use xlink:href="#DejaVuSans-63" x="516.207031"/>
      <use xlink:href="#DejaVuSans-70" x="571.1875"/>
      <use xlink:href="#DejaVuSans-75" x="634.664062"/>
     </g>
    </g>
   </g>
  </g>
 </g>
 <defs>
  <clipPath id="p45e96afee0">
   <rect x="47.1825" y="27.264" width="263.8575" height="354.516"/>
  </clipPath>
 </defs>
</svg>
