<?xml version="1.0" encoding="utf-8" standalone="no"?>
<!DOCTYPE svg PUBLIC "-//W3C//DTD SVG 1.1//EN"
  "http://www.w3.org/Graphics/SVG/1.1/DTD/svg11.dtd">
<svg xmlns:xlink="http://www.w3.org/1999/xlink" width="324pt" height="432pt" viewBox="0 0 324 432" xmlns="http://www.w3.org/2000/svg" version="1.1">
 <metadata>
  <rdf:RDF xmlns:dc="http://purl.org/dc/elements/1.1/" xmlns:cc="http://creativecommons.org/ns#" xmlns:rdf="http://www.w3.org/1999/02/22-rdf-syntax-ns#">
   <cc:Work>
    <dc:type rdf:resource="http://purl.org/dc/dcmitype/StillImage"/>
    <dc:date>2025-02-04T20:10:21.308317</dc:date>
    <dc:format>image/svg+xml</dc:format>
    <dc:creator>
     <cc:Agent>
      <dc:title>Matplotlib v3.8.4, https://matplotlib.org/</dc:title>
     </cc:Agent>
    </dc:creator>
   </cc:Work>
  </rdf:RDF>
 </metadata>
 <defs>
  <style type="text/css">*{stroke-linejoin: round; stroke-linecap: butt}</style>
 </defs>
 <g id="figure_1">
  <g id="patch_1">
   <path d="M 0 432 
L 324 432 
L 324 0 
L 0 0 
z
" style="fill: #ffffff"/>
  </g>
  <g id="axes_1">
   <g id="patch_2">
    <path d="M 47.1825 381.78 
L 311.04 381.78 
L 311.04 26.16 
L 47.1825 26.16 
z
" style="fill: #ffffff"/>
   </g>
   <g id="matplotlib.axis_1">
    <g id="xtick_1">
     <g id="text_1">
      <!-- 32 -->
      <g style="fill: #262626" transform="translate(73.165938 399.638281) scale(0.11 -0.11)">
       <defs>
        <path id="DejaVuSans-33" d="M 2597 2516 
Q 3050 2419 3304 2112 
Q 3559 1806 3559 1356 
Q 3559 666 3084 287 
Q 2609 -91 1734 -91 
Q 1441 -91 1130 -33 
Q 819 25 488 141 
L 488 750 
Q 750 597 1062 519 
Q 1375 441 1716 441 
Q 2309 441 2620 675 
Q 2931 909 2931 1356 
Q 2931 1769 2642 2001 
Q 2353 2234 1838 2234 
L 1294 2234 
L 1294 2753 
L 1863 2753 
Q 2328 2753 2575 2939 
Q 2822 3125 2822 3475 
Q 2822 3834 2567 4026 
Q 2313 4219 1838 4219 
Q 1578 4219 1281 4162 
Q 984 4106 628 3988 
L 628 4550 
Q 988 4650 1302 4700 
Q 1616 4750 1894 4750 
Q 2613 4750 3031 4423 
Q 3450 4097 3450 3541 
Q 3450 3153 3228 2886 
Q 3006 2619 2597 2516 
z
" transform="scale(0.015625)"/>
        <path id="DejaVuSans-32" d="M 1228 531 
L 3431 531 
L 3431 0 
L 469 0 
L 469 531 
Q 828 903 1448 1529 
Q 2069 2156 2228 2338 
Q 2531 2678 2651 2914 
Q 2772 3150 2772 3378 
Q 2772 3750 2511 3984 
Q 2250 4219 1831 4219 
Q 1534 4219 1204 4116 
Q 875 4013 500 3803 
L 500 4441 
Q 881 4594 1212 4672 
Q 1544 4750 1819 4750 
Q 2544 4750 2975 4387 
Q 3406 4025 3406 3419 
Q 3406 3131 3298 2873 
Q 3191 2616 2906 2266 
Q 2828 2175 2409 1742 
Q 1991 1309 1228 531 
z
" transform="scale(0.015625)"/>
       </defs>
       <use xlink:href="#DejaVuSans-33"/>
       <use xlink:href="#DejaVuSans-32" x="63.623047"/>
      </g>
     </g>
    </g>
    <g id="xtick_2">
     <g id="text_2">
      <!-- 64 -->
      <g style="fill: #262626" transform="translate(139.130313 399.638281) scale(0.11 -0.11)">
       <defs>
        <path id="DejaVuSans-36" d="M 2113 2584 
Q 1688 2584 1439 2293 
Q 1191 2003 1191 1497 
Q 1191 994 1439 701 
Q 1688 409 2113 409 
Q 2538 409 2786 701 
Q 3034 994 3034 1497 
Q 3034 2003 2786 2293 
Q 2538 2584 2113 2584 
z
M 3366 4563 
L 3366 3988 
Q 3128 4100 2886 4159 
Q 2644 4219 2406 4219 
Q 1781 4219 1451 3797 
Q 1122 3375 1075 2522 
Q 1259 2794 1537 2939 
Q 1816 3084 2150 3084 
Q 2853 3084 3261 2657 
Q 3669 2231 3669 1497 
Q 3669 778 3244 343 
Q 2819 -91 2113 -91 
Q 1303 -91 875 529 
Q 447 1150 447 2328 
Q 447 3434 972 4092 
Q 1497 4750 2381 4750 
Q 2619 4750 2861 4703 
Q 3103 4656 3366 4563 
z
" transform="scale(0.015625)"/>
        <path id="DejaVuSans-34" d="M 2419 4116 
L 825 1625 
L 2419 1625 
L 2419 4116 
z
M 2253 4666 
L 3047 4666 
L 3047 1625 
L 3713 1625 
L 3713 1100 
L 3047 1100 
L 3047 0 
L 2419 0 
L 2419 1100 
L 313 1100 
L 313 1709 
L 2253 4666 
z
" transform="scale(0.015625)"/>
       </defs>
       <use xlink:href="#DejaVuSans-36"/>
       <use xlink:href="#DejaVuSans-34" x="63.623047"/>
      </g>
     </g>
    </g>
    <g id="xtick_3">
     <g id="text_3">
      <!-- 128 -->
      <g style="fill: #262626" transform="translate(201.595313 399.638281) scale(0.11 -0.11)">
       <defs>
        <path id="DejaVuSans-31" d="M 794 531 
L 1825 531 
L 1825 4091 
L 703 3866 
L 703 4441 
L 1819 4666 
L 2450 4666 
L 2450 531 
L 3481 531 
L 3481 0 
L 794 0 
L 794 531 
z
" transform="scale(0.015625)"/>
        <path id="DejaVuSans-38" d="M 2034 2216 
Q 1584 2216 1326 1975 
Q 1069 1734 1069 1313 
Q 1069 891 1326 650 
Q 1584 409 2034 409 
Q 2484 409 2743 651 
Q 3003 894 3003 1313 
Q 3003 1734 2745 1975 
Q 2488 2216 2034 2216 
z
M 1403 2484 
Q 997 2584 770 2862 
Q 544 3141 544 3541 
Q 544 4100 942 4425 
Q 1341 4750 2034 4750 
Q 2731 4750 3128 4425 
Q 3525 4100 3525 3541 
Q 3525 3141 3298 2862 
Q 3072 2584 2669 2484 
Q 3125 2378 3379 2068 
Q 3634 1759 3634 1313 
Q 3634 634 3220 271 
Q 2806 -91 2034 -91 
Q 1263 -91 848 271 
Q 434 634 434 1313 
Q 434 1759 690 2068 
Q 947 2378 1403 2484 
z
M 1172 3481 
Q 1172 3119 1398 2916 
Q 1625 2713 2034 2713 
Q 2441 2713 2670 2916 
Q 2900 3119 2900 3481 
Q 2900 3844 2670 4047 
Q 2441 4250 2034 4250 
Q 1625 4250 1398 4047 
Q 1172 3844 1172 3481 
z
" transform="scale(0.015625)"/>
       </defs>
       <use xlink:href="#DejaVuSans-31"/>
       <use xlink:href="#DejaVuSans-32" x="63.623047"/>
       <use xlink:href="#DejaVuSans-38" x="127.246094"/>
      </g>
     </g>
    </g>
    <g id="xtick_4">
     <g id="text_4">
      <!-- 256 -->
      <g style="fill: #262626" transform="translate(267.559687 399.638281) scale(0.11 -0.11)">
       <defs>
        <path id="DejaVuSans-35" d="M 691 4666 
L 3169 4666 
L 3169 4134 
L 1269 4134 
L 1269 2991 
Q 1406 3038 1543 3061 
Q 1681 3084 1819 3084 
Q 2600 3084 3056 2656 
Q 3513 2228 3513 1497 
Q 3513 744 3044 326 
Q 2575 -91 1722 -91 
Q 1428 -91 1123 -41 
Q 819 9 494 109 
L 494 744 
Q 775 591 1075 516 
Q 1375 441 1709 441 
Q 2250 441 2565 725 
Q 2881 1009 2881 1497 
Q 2881 1984 2565 2268 
Q 2250 2553 1709 2553 
Q 1456 2553 1204 2497 
Q 953 2441 691 2322 
L 691 4666 
z
" transform="scale(0.015625)"/>
       </defs>
       <use xlink:href="#DejaVuSans-32"/>
       <use xlink:href="#DejaVuSans-35" x="63.623047"/>
       <use xlink:href="#DejaVuSans-36" x="127.246094"/>
      </g>
     </g>
    </g>
    <g id="text_5">
     <!-- Nodes -->
     <g style="fill: #262626" transform="translate(158.759141 415.803906) scale(0.13 -0.13)">
      <defs>
       <path id="DejaVuSans-4e" d="M 628 4666 
L 1478 4666 
L 3547 763 
L 3547 4666 
L 4159 4666 
L 4159 0 
L 3309 0 
L 1241 3903 
L 1241 0 
L 628 0 
L 628 4666 
z
" transform="scale(0.015625)"/>
       <path id="DejaVuSans-6f" d="M 1959 3097 
Q 1497 3097 1228 2736 
Q 959 2375 959 1747 
Q 959 1119 1226 758 
Q 1494 397 1959 397 
Q 2419 397 2687 759 
Q 2956 1122 2956 1747 
Q 2956 2369 2687 2733 
Q 2419 3097 1959 3097 
z
M 1959 3584 
Q 2709 3584 3137 3096 
Q 3566 2609 3566 1747 
Q 3566 888 3137 398 
Q 2709 -91 1959 -91 
Q 1206 -91 779 398 
Q 353 888 353 1747 
Q 353 2609 779 3096 
Q 1206 3584 1959 3584 
z
" transform="scale(0.015625)"/>
       <path id="DejaVuSans-64" d="M 2906 2969 
L 2906 4863 
L 3481 4863 
L 3481 0 
L 2906 0 
L 2906 525 
Q 2725 213 2448 61 
Q 2172 -91 1784 -91 
Q 1150 -91 751 415 
Q 353 922 353 1747 
Q 353 2572 751 3078 
Q 1150 3584 1784 3584 
Q 2172 3584 2448 3432 
Q 2725 3281 2906 2969 
z
M 947 1747 
Q 947 1113 1208 752 
Q 1469 391 1925 391 
Q 2381 391 2643 752 
Q 2906 1113 2906 1747 
Q 2906 2381 2643 2742 
Q 2381 3103 1925 3103 
Q 1469 3103 1208 2742 
Q 947 2381 947 1747 
z
" transform="scale(0.015625)"/>
       <path id="DejaVuSans-65" d="M 3597 1894 
L 3597 1613 
L 953 1613 
Q 991 1019 1311 708 
Q 1631 397 2203 397 
Q 2534 397 2845 478 
Q 3156 559 3463 722 
L 3463 178 
Q 3153 47 2828 -22 
Q 2503 -91 2169 -91 
Q 1331 -91 842 396 
Q 353 884 353 1716 
Q 353 2575 817 3079 
Q 1281 3584 2069 3584 
Q 2775 3584 3186 3129 
Q 3597 2675 3597 1894 
z
M 3022 2063 
Q 3016 2534 2758 2815 
Q 2500 3097 2075 3097 
Q 1594 3097 1305 2825 
Q 1016 2553 972 2059 
L 3022 2063 
z
" transform="scale(0.015625)"/>
       <path id="DejaVuSans-73" d="M 2834 3397 
L 2834 2853 
Q 2591 2978 2328 3040 
Q 2066 3103 1784 3103 
Q 1356 3103 1142 2972 
Q 928 2841 928 2578 
Q 928 2378 1081 2264 
Q 1234 2150 1697 2047 
L 1894 2003 
Q 2506 1872 2764 1633 
Q 3022 1394 3022 966 
Q 3022 478 2636 193 
Q 2250 -91 1575 -91 
Q 1294 -91 989 -36 
Q 684 19 347 128 
L 347 722 
Q 666 556 975 473 
Q 1284 391 1588 391 
Q 1994 391 2212 530 
Q 2431 669 2431 922 
Q 2431 1156 2273 1281 
Q 2116 1406 1581 1522 
L 1381 1569 
Q 847 1681 609 1914 
Q 372 2147 372 2553 
Q 372 3047 722 3315 
Q 1072 3584 1716 3584 
Q 2034 3584 2315 3537 
Q 2597 3491 2834 3397 
z
" transform="scale(0.015625)"/>
      </defs>
      <use xlink:href="#DejaVuSans-4e"/>
      <use xlink:href="#DejaVuSans-6f" x="74.804688"/>
      <use xlink:href="#DejaVuSans-64" x="135.986328"/>
      <use xlink:href="#DejaVuSans-65" x="199.462891"/>
      <use xlink:href="#DejaVuSans-73" x="260.986328"/>
     </g>
    </g>
   </g>
   <g id="matplotlib.axis_2">
    <g id="ytick_1">
     <g id="line2d_1">
      <path d="M 47.1825 364.960991 
L 311.04 364.960991 
" clip-path="url(#p4a5fae43b1)" style="fill: none; stroke: #cccccc; stroke-linecap: round"/>
     </g>
     <g id="text_6">
      <!-- $\mathdefault{1}$ -->
      <g style="fill: #262626" transform="translate(30.6425 369.140131) scale(0.11 -0.11)">
       <use xlink:href="#DejaVuSans-31" transform="translate(0 0.09375)"/>
      </g>
     </g>
    </g>
    <g id="ytick_2">
     <g id="line2d_2">
      <path d="M 47.1825 312.057454 
L 311.04 312.057454 
" clip-path="url(#p4a5fae43b1)" style="fill: none; stroke: #cccccc; stroke-linecap: round"/>
     </g>
     <g id="text_7">
      <!-- $\mathdefault{2}$ -->
      <g style="fill: #262626" transform="translate(30.6425 316.236595) scale(0.11 -0.11)">
       <use xlink:href="#DejaVuSans-32" transform="translate(0 0.78125)"/>
      </g>
     </g>
    </g>
    <g id="ytick_3">
     <g id="line2d_3">
      <path d="M 47.1825 259.153918 
L 311.04 259.153918 
" clip-path="url(#p4a5fae43b1)" style="fill: none; stroke: #cccccc; stroke-linecap: round"/>
     </g>
     <g id="text_8">
      <!-- $\mathdefault{3}$ -->
      <g style="fill: #262626" transform="translate(30.6425 263.333059) scale(0.11 -0.11)">
       <use xlink:href="#DejaVuSans-33" transform="translate(0 0.78125)"/>
      </g>
     </g>
    </g>
    <g id="ytick_4">
     <g id="line2d_4">
      <path d="M 47.1825 206.250382 
L 311.04 206.250382 
" clip-path="url(#p4a5fae43b1)" style="fill: none; stroke: #cccccc; stroke-linecap: round"/>
     </g>
     <g id="text_9">
      <!-- $\mathdefault{4}$ -->
      <g style="fill: #262626" transform="translate(30.6425 210.429523) scale(0.11 -0.11)">
       <use xlink:href="#DejaVuSans-34" transform="translate(0 0.09375)"/>
      </g>
     </g>
    </g>
    <g id="ytick_5">
     <g id="line2d_5">
      <path d="M 47.1825 153.346846 
L 311.04 153.346846 
" clip-path="url(#p4a5fae43b1)" style="fill: none; stroke: #cccccc; stroke-linecap: round"/>
     </g>
     <g id="text_10">
      <!-- $\mathdefault{5}$ -->
      <g style="fill: #262626" transform="translate(30.6425 157.525986) scale(0.11 -0.11)">
       <use xlink:href="#DejaVuSans-35" transform="translate(0 0.09375)"/>
      </g>
     </g>
    </g>
    <g id="ytick_6">
     <g id="line2d_6">
      <path d="M 47.1825 100.44331 
L 311.04 100.44331 
" clip-path="url(#p4a5fae43b1)" style="fill: none; stroke: #cccccc; stroke-linecap: round"/>
     </g>
     <g id="text_11">
      <!-- $\mathdefault{6}$ -->
      <g style="fill: #262626" transform="translate(30.6425 104.62245) scale(0.11 -0.11)">
       <use xlink:href="#DejaVuSans-36" transform="translate(0 0.78125)"/>
      </g>
     </g>
    </g>
    <g id="ytick_7">
     <g id="line2d_7">
      <path d="M 47.1825 47.539773 
L 311.04 47.539773 
" clip-path="url(#p4a5fae43b1)" style="fill: none; stroke: #cccccc; stroke-linecap: round"/>
     </g>
     <g id="text_12">
      <!-- $\mathdefault{7}$ -->
      <g style="fill: #262626" transform="translate(30.6425 51.718914) scale(0.11 -0.11)">
       <defs>
        <path id="DejaVuSans-37" d="M 525 4666 
L 3525 4666 
L 3525 4397 
L 1831 0 
L 1172 0 
L 2766 4134 
L 525 4134 
L 525 4666 
z
" transform="scale(0.015625)"/>
       </defs>
       <use xlink:href="#DejaVuSans-37" transform="translate(0 0.09375)"/>
      </g>
     </g>
    </g>
    <g id="text_13">
     <!-- FOM Overall (Speedup) -->
     <g style="fill: #262626" transform="translate(23.938906 279.491875) rotate(-90) scale(0.13 -0.13)">
      <defs>
       <path id="DejaVuSans-46" d="M 628 4666 
L 3309 4666 
L 3309 4134 
L 1259 4134 
L 1259 2759 
L 3109 2759 
L 3109 2228 
L 1259 2228 
L 1259 0 
L 628 0 
L 628 4666 
z
" transform="scale(0.015625)"/>
       <path id="DejaVuSans-4f" d="M 2522 4238 
Q 1834 4238 1429 3725 
Q 1025 3213 1025 2328 
Q 1025 1447 1429 934 
Q 1834 422 2522 422 
Q 3209 422 3611 934 
Q 4013 1447 4013 2328 
Q 4013 3213 3611 3725 
Q 3209 4238 2522 4238 
z
M 2522 4750 
Q 3503 4750 4090 4092 
Q 4678 3434 4678 2328 
Q 4678 1225 4090 567 
Q 3503 -91 2522 -91 
Q 1538 -91 948 565 
Q 359 1222 359 2328 
Q 359 3434 948 4092 
Q 1538 4750 2522 4750 
z
" transform="scale(0.015625)"/>
       <path id="DejaVuSans-4d" d="M 628 4666 
L 1569 4666 
L 2759 1491 
L 3956 4666 
L 4897 4666 
L 4897 0 
L 4281 0 
L 4281 4097 
L 3078 897 
L 2444 897 
L 1241 4097 
L 1241 0 
L 628 0 
L 628 4666 
z
" transform="scale(0.015625)"/>
       <path id="DejaVuSans-20" transform="scale(0.015625)"/>
       <path id="DejaVuSans-76" d="M 191 3500 
L 800 3500 
L 1894 563 
L 2988 3500 
L 3597 3500 
L 2284 0 
L 1503 0 
L 191 3500 
z
" transform="scale(0.015625)"/>
       <path id="DejaVuSans-72" d="M 2631 2963 
Q 2534 3019 2420 3045 
Q 2306 3072 2169 3072 
Q 1681 3072 1420 2755 
Q 1159 2438 1159 1844 
L 1159 0 
L 581 0 
L 581 3500 
L 1159 3500 
L 1159 2956 
Q 1341 3275 1631 3429 
Q 1922 3584 2338 3584 
Q 2397 3584 2469 3576 
Q 2541 3569 2628 3553 
L 2631 2963 
z
" transform="scale(0.015625)"/>
       <path id="DejaVuSans-61" d="M 2194 1759 
Q 1497 1759 1228 1600 
Q 959 1441 959 1056 
Q 959 750 1161 570 
Q 1363 391 1709 391 
Q 2188 391 2477 730 
Q 2766 1069 2766 1631 
L 2766 1759 
L 2194 1759 
z
M 3341 1997 
L 3341 0 
L 2766 0 
L 2766 531 
Q 2569 213 2275 61 
Q 1981 -91 1556 -91 
Q 1019 -91 701 211 
Q 384 513 384 1019 
Q 384 1609 779 1909 
Q 1175 2209 1959 2209 
L 2766 2209 
L 2766 2266 
Q 2766 2663 2505 2880 
Q 2244 3097 1772 3097 
Q 1472 3097 1187 3025 
Q 903 2953 641 2809 
L 641 3341 
Q 956 3463 1253 3523 
Q 1550 3584 1831 3584 
Q 2591 3584 2966 3190 
Q 3341 2797 3341 1997 
z
" transform="scale(0.015625)"/>
       <path id="DejaVuSans-6c" d="M 603 4863 
L 1178 4863 
L 1178 0 
L 603 0 
L 603 4863 
z
" transform="scale(0.015625)"/>
       <path id="DejaVuSans-28" d="M 1984 4856 
Q 1566 4138 1362 3434 
Q 1159 2731 1159 2009 
Q 1159 1288 1364 580 
Q 1569 -128 1984 -844 
L 1484 -844 
Q 1016 -109 783 600 
Q 550 1309 550 2009 
Q 550 2706 781 3412 
Q 1013 4119 1484 4856 
L 1984 4856 
z
" transform="scale(0.015625)"/>
       <path id="DejaVuSans-53" d="M 3425 4513 
L 3425 3897 
Q 3066 4069 2747 4153 
Q 2428 4238 2131 4238 
Q 1616 4238 1336 4038 
Q 1056 3838 1056 3469 
Q 1056 3159 1242 3001 
Q 1428 2844 1947 2747 
L 2328 2669 
Q 3034 2534 3370 2195 
Q 3706 1856 3706 1288 
Q 3706 609 3251 259 
Q 2797 -91 1919 -91 
Q 1588 -91 1214 -16 
Q 841 59 441 206 
L 441 856 
Q 825 641 1194 531 
Q 1563 422 1919 422 
Q 2459 422 2753 634 
Q 3047 847 3047 1241 
Q 3047 1584 2836 1778 
Q 2625 1972 2144 2069 
L 1759 2144 
Q 1053 2284 737 2584 
Q 422 2884 422 3419 
Q 422 4038 858 4394 
Q 1294 4750 2059 4750 
Q 2388 4750 2728 4690 
Q 3069 4631 3425 4513 
z
" transform="scale(0.015625)"/>
       <path id="DejaVuSans-70" d="M 1159 525 
L 1159 -1331 
L 581 -1331 
L 581 3500 
L 1159 3500 
L 1159 2969 
Q 1341 3281 1617 3432 
Q 1894 3584 2278 3584 
Q 2916 3584 3314 3078 
Q 3713 2572 3713 1747 
Q 3713 922 3314 415 
Q 2916 -91 2278 -91 
Q 1894 -91 1617 61 
Q 1341 213 1159 525 
z
M 3116 1747 
Q 3116 2381 2855 2742 
Q 2594 3103 2138 3103 
Q 1681 3103 1420 2742 
Q 1159 2381 1159 1747 
Q 1159 1113 1420 752 
Q 1681 391 2138 391 
Q 2594 391 2855 752 
Q 3116 1113 3116 1747 
z
" transform="scale(0.015625)"/>
       <path id="DejaVuSans-75" d="M 544 1381 
L 544 3500 
L 1119 3500 
L 1119 1403 
Q 1119 906 1312 657 
Q 1506 409 1894 409 
Q 2359 409 2629 706 
Q 2900 1003 2900 1516 
L 2900 3500 
L 3475 3500 
L 3475 0 
L 2900 0 
L 2900 538 
Q 2691 219 2414 64 
Q 2138 -91 1772 -91 
Q 1169 -91 856 284 
Q 544 659 544 1381 
z
M 1991 3584 
L 1991 3584 
z
" transform="scale(0.015625)"/>
       <path id="DejaVuSans-29" d="M 513 4856 
L 1013 4856 
Q 1481 4119 1714 3412 
Q 1947 2706 1947 2009 
Q 1947 1309 1714 600 
Q 1481 -109 1013 -844 
L 513 -844 
Q 928 -128 1133 580 
Q 1338 1288 1338 2009 
Q 1338 2731 1133 3434 
Q 928 4138 513 4856 
z
" transform="scale(0.015625)"/>
      </defs>
      <use xlink:href="#DejaVuSans-46"/>
      <use xlink:href="#DejaVuSans-4f" x="57.519531"/>
      <use xlink:href="#DejaVuSans-4d" x="136.230469"/>
      <use xlink:href="#DejaVuSans-20" x="222.509766"/>
      <use xlink:href="#DejaVuSans-4f" x="254.296875"/>
      <use xlink:href="#DejaVuSans-76" x="333.007812"/>
      <use xlink:href="#DejaVuSans-65" x="392.1875"/>
      <use xlink:href="#DejaVuSans-72" x="453.710938"/>
      <use xlink:href="#DejaVuSans-61" x="494.824219"/>
      <use xlink:href="#DejaVuSans-6c" x="556.103516"/>
      <use xlink:href="#DejaVuSans-6c" x="583.886719"/>
      <use xlink:href="#DejaVuSans-20" x="611.669922"/>
      <use xlink:href="#DejaVuSans-28" x="643.457031"/>
      <use xlink:href="#DejaVuSans-53" x="682.470703"/>
      <use xlink:href="#DejaVuSans-70" x="745.947266"/>
      <use xlink:href="#DejaVuSans-65" x="809.423828"/>
      <use xlink:href="#DejaVuSans-65" x="870.947266"/>
      <use xlink:href="#DejaVuSans-64" x="932.470703"/>
      <use xlink:href="#DejaVuSans-75" x="995.947266"/>
      <use xlink:href="#DejaVuSans-70" x="1059.326172"/>
      <use xlink:href="#DejaVuSans-29" x="1122.802734"/>
     </g>
    </g>
   </g>
   <g id="patch_3">
    <path d="M 47.1825 381.78 
L 47.1825 26.16 
" style="fill: none; stroke: #cccccc; stroke-width: 1.25; stroke-linejoin: miter; stroke-linecap: square"/>
   </g>
   <g id="patch_4">
    <path d="M 311.04 381.78 
L 311.04 26.16 
" style="fill: none; stroke: #cccccc; stroke-width: 1.25; stroke-linejoin: miter; stroke-linecap: square"/>
   </g>
   <g id="patch_5">
    <path d="M 47.1825 381.78 
L 311.04 381.78 
" style="fill: none; stroke: #cccccc; stroke-width: 1.25; stroke-linejoin: miter; stroke-linecap: square"/>
   </g>
   <g id="patch_6">
    <path d="M 47.1825 26.16 
L 311.04 26.16 
" style="fill: none; stroke: #cccccc; stroke-width: 1.25; stroke-linejoin: miter; stroke-linecap: square"/>
   </g>
   <g id="PathCollection_1">
    <defs>
     <path id="C0_0_c86a12c231" d="M 0 -2.5 
L -2.377641 -0.772542 
L -1.469463 2.022542 
L 1.469463 2.022542 
L 2.377641 -0.772542 
z
"/>
    </defs>
    <g clip-path="url(#p4a5fae43b1)">
     <use xlink:href="#C0_0_c86a12c231" x="75.634169" y="364.994772" style="fill: #8c613c"/>
    </g>
    <g clip-path="url(#p4a5fae43b1)">
     <use xlink:href="#C0_0_c86a12c231" x="81.058636" y="364.820706" style="fill: #8c613c"/>
    </g>
    <g clip-path="url(#p4a5fae43b1)">
     <use xlink:href="#C0_0_c86a12c231" x="77.046714" y="365.044983" style="fill: #8c613c"/>
    </g>
    <g clip-path="url(#p4a5fae43b1)">
     <use xlink:href="#C0_0_c86a12c231" x="76.712559" y="364.960991" style="fill: #8c613c"/>
    </g>
    <g clip-path="url(#p4a5fae43b1)">
     <use xlink:href="#C0_0_c86a12c231" x="74.97838" y="364.71927" style="fill: #8c613c"/>
    </g>
   </g>
   <g id="PathCollection_2">
    <defs>
     <path id="C1_0_53ead4db4c" d="M 0 -2.5 
L -2.377641 -0.772542 
L -1.469463 2.022542 
L 1.469463 2.022542 
L 2.377641 -0.772542 
z
"/>
    </defs>
    <g clip-path="url(#p4a5fae43b1)">
     <use xlink:href="#C1_0_53ead4db4c" x="145.28822" y="244.099747" style="fill: #8c613c"/>
    </g>
    <g clip-path="url(#p4a5fae43b1)">
     <use xlink:href="#C1_0_53ead4db4c" x="139.82164" y="243.6934" style="fill: #8c613c"/>
    </g>
    <g clip-path="url(#p4a5fae43b1)">
     <use xlink:href="#C1_0_53ead4db4c" x="140.866656" y="242.462255" style="fill: #8c613c"/>
    </g>
    <g clip-path="url(#p4a5fae43b1)">
     <use xlink:href="#C1_0_53ead4db4c" x="145.029711" y="244.657378" style="fill: #8c613c"/>
    </g>
    <g clip-path="url(#p4a5fae43b1)">
     <use xlink:href="#C1_0_53ead4db4c" x="148.917109" y="244.22622" style="fill: #8c613c"/>
    </g>
   </g>
   <g id="PathCollection_3">
    <defs>
     <path id="C2_0_5051cfaf1f" d="M 0 -2.5 
L -2.377641 -0.772542 
L -1.469463 2.022542 
L 1.469463 2.022542 
L 2.377641 -0.772542 
z
"/>
    </defs>
    <g clip-path="url(#p4a5fae43b1)">
     <use xlink:href="#C2_0_5051cfaf1f" x="205.79098" y="302.152261" style="fill: #8c613c"/>
    </g>
    <g clip-path="url(#p4a5fae43b1)">
     <use xlink:href="#C2_0_5051cfaf1f" x="212.14182" y="302.121399" style="fill: #8c613c"/>
    </g>
    <g clip-path="url(#p4a5fae43b1)">
     <use xlink:href="#C2_0_5051cfaf1f" x="209.974384" y="302.198781" style="fill: #8c613c"/>
    </g>
    <g clip-path="url(#p4a5fae43b1)">
     <use xlink:href="#C2_0_5051cfaf1f" x="207.774709" y="301.972839" style="fill: #8c613c"/>
    </g>
    <g clip-path="url(#p4a5fae43b1)">
     <use xlink:href="#C2_0_5051cfaf1f" x="208.13845" y="302.215225" style="fill: #8c613c"/>
    </g>
   </g>
   <g id="PathCollection_4">
    <path d="M 272.043708 192.198136 
L 269.666067 193.925593 
L 270.574245 196.720678 
L 273.513171 196.720678 
L 274.421349 193.925593 
z
" clip-path="url(#p4a5fae43b1)" style="fill: #8c613c"/>
    <path d="M 278.883922 191.194219 
L 276.50628 192.921676 
L 277.414458 195.716761 
L 280.353385 195.716761 
L 281.261563 192.921676 
z
" clip-path="url(#p4a5fae43b1)" style="fill: #8c613c"/>
   </g>
   <g id="line2d_8"/>
   <g id="PathCollection_5">
    <path d="M 81.139926 367.120502 
L 86.139926 367.120502 
L 86.139926 362.120502 
L 81.139926 362.120502 
z
" clip-path="url(#p4a5fae43b1)" style="fill: #6c3baa"/>
    <path d="M 80.456362 367.11588 
L 85.456362 367.11588 
L 85.456362 362.11588 
L 80.456362 362.11588 
z
" clip-path="url(#p4a5fae43b1)" style="fill: #6c3baa"/>
    <path d="M 80.366979 367.843252 
L 85.366979 367.843252 
L 85.366979 362.843252 
L 80.366979 362.843252 
z
" clip-path="url(#p4a5fae43b1)" style="fill: #6c3baa"/>
    <path d="M 82.102883 367.460991 
L 87.102883 367.460991 
L 87.102883 362.460991 
L 82.102883 362.460991 
z
" clip-path="url(#p4a5fae43b1)" style="fill: #6c3baa"/>
    <path d="M 71.825802 367.500726 
L 76.825802 367.500726 
L 76.825802 362.500726 
L 71.825802 362.500726 
z
" clip-path="url(#p4a5fae43b1)" style="fill: #6c3baa"/>
   </g>
   <g id="PathCollection_6">
    <path d="M 147.850804 320.497294 
L 152.850804 320.497294 
L 152.850804 315.497294 
L 147.850804 315.497294 
z
" clip-path="url(#p4a5fae43b1)" style="fill: #6c3baa"/>
    <path d="M 137.789412 320.436125 
L 142.789412 320.436125 
L 142.789412 315.436125 
L 137.789412 315.436125 
z
" clip-path="url(#p4a5fae43b1)" style="fill: #6c3baa"/>
    <path d="M 141.212019 320.627248 
L 146.212019 320.627248 
L 146.212019 315.627248 
L 141.212019 315.627248 
z
" clip-path="url(#p4a5fae43b1)" style="fill: #6c3baa"/>
    <path d="M 139.555884 319.449255 
L 144.555884 319.449255 
L 144.555884 314.449255 
L 139.555884 314.449255 
z
" clip-path="url(#p4a5fae43b1)" style="fill: #6c3baa"/>
    <path d="M 148.026826 319.362305 
L 153.026826 319.362305 
L 153.026826 314.362305 
L 148.026826 314.362305 
z
" clip-path="url(#p4a5fae43b1)" style="fill: #6c3baa"/>
   </g>
   <g id="PathCollection_7">
    <path d="M 211.285441 233.687734 
L 216.285441 233.687734 
L 216.285441 228.687734 
L 211.285441 228.687734 
z
" clip-path="url(#p4a5fae43b1)" style="fill: #6c3baa"/>
    <path d="M 213.418739 234.769748 
L 218.418739 234.769748 
L 218.418739 229.769748 
L 213.418739 229.769748 
z
" clip-path="url(#p4a5fae43b1)" style="fill: #6c3baa"/>
    <path d="M 207.926342 233.302387 
L 212.926342 233.302387 
L 212.926342 228.302387 
L 207.926342 228.302387 
z
" clip-path="url(#p4a5fae43b1)" style="fill: #6c3baa"/>
    <path d="M 210.482964 233.255263 
L 215.482964 233.255263 
L 215.482964 228.255263 
L 210.482964 228.255263 
z
" clip-path="url(#p4a5fae43b1)" style="fill: #6c3baa"/>
    <path d="M 211.404712 233.558677 
L 216.404712 233.558677 
L 216.404712 228.558677 
L 211.404712 228.558677 
z
" clip-path="url(#p4a5fae43b1)" style="fill: #6c3baa"/>
   </g>
   <g id="PathCollection_8">
    <path d="M 279.026666 72.085894 
L 284.026666 72.085894 
L 284.026666 67.085894 
L 279.026666 67.085894 
z
" clip-path="url(#p4a5fae43b1)" style="fill: #6c3baa"/>
    <path d="M 271.711369 80.454396 
L 276.711369 80.454396 
L 276.711369 75.454396 
L 271.711369 75.454396 
z
" clip-path="url(#p4a5fae43b1)" style="fill: #6c3baa"/>
    <path d="M 272.704406 67.151469 
L 277.704406 67.151469 
L 277.704406 62.151469 
L 272.704406 62.151469 
z
" clip-path="url(#p4a5fae43b1)" style="fill: #6c3baa"/>
    <path d="M 276.55206 62.207316 
L 281.55206 62.207316 
L 281.55206 57.207316 
L 276.55206 57.207316 
z
" clip-path="url(#p4a5fae43b1)" style="fill: #6c3baa"/>
    <path d="M 275.188505 84.571915 
L 280.188505 84.571915 
L 280.188505 79.571915 
L 275.188505 79.571915 
z
" clip-path="url(#p4a5fae43b1)" style="fill: #6c3baa"/>
   </g>
   <g id="line2d_9"/>
   <g id="PathCollection_9">
    <path d="M 85.027811 368.581998 
L 88.563345 365.046464 
L 85.027811 361.51093 
L 81.492277 365.046464 
z
" clip-path="url(#p4a5fae43b1)" style="fill: #dc7ec0"/>
    <path d="M 78.632842 368.496525 
L 82.168376 364.960991 
L 78.632842 361.425457 
L 75.097308 364.960991 
z
" clip-path="url(#p4a5fae43b1)" style="fill: #dc7ec0"/>
    <path d="M 82.767426 368.307437 
L 86.30296 364.771903 
L 82.767426 361.236369 
L 79.231892 364.771903 
z
" clip-path="url(#p4a5fae43b1)" style="fill: #dc7ec0"/>
    <path d="M 81.29093 368.566474 
L 84.826464 365.03094 
L 81.29093 361.495407 
L 77.755397 365.03094 
z
" clip-path="url(#p4a5fae43b1)" style="fill: #dc7ec0"/>
    <path d="M 80.953189 368.489763 
L 84.488723 364.954229 
L 80.953189 361.418695 
L 77.417655 364.954229 
z
" clip-path="url(#p4a5fae43b1)" style="fill: #dc7ec0"/>
   </g>
   <g id="PathCollection_10">
    <path d="M 146.988949 325.034101 
L 150.524483 321.498567 
L 146.988949 317.963034 
L 143.453415 321.498567 
z
" clip-path="url(#p4a5fae43b1)" style="fill: #dc7ec0"/>
    <path d="M 148.71423 323.267217 
L 152.249764 319.731683 
L 148.71423 316.196149 
L 145.178696 319.731683 
z
" clip-path="url(#p4a5fae43b1)" style="fill: #dc7ec0"/>
    <path d="M 144.207831 323.272074 
L 147.743365 319.73654 
L 144.207831 316.201006 
L 140.672298 319.73654 
z
" clip-path="url(#p4a5fae43b1)" style="fill: #dc7ec0"/>
    <path d="M 141.232042 325.10367 
L 144.767576 321.568136 
L 141.232042 318.032602 
L 137.696508 321.568136 
z
" clip-path="url(#p4a5fae43b1)" style="fill: #dc7ec0"/>
    <path d="M 152.441904 323.452734 
L 155.977438 319.9172 
L 152.441904 316.381666 
L 148.90637 319.9172 
z
" clip-path="url(#p4a5fae43b1)" style="fill: #dc7ec0"/>
   </g>
   <g id="PathCollection_11">
    <path d="M 217.635929 226.252235 
L 221.171463 222.716701 
L 217.635929 219.181167 
L 214.100395 222.716701 
z
" clip-path="url(#p4a5fae43b1)" style="fill: #dc7ec0"/>
    <path d="M 216.234321 228.338345 
L 219.769855 224.802811 
L 216.234321 221.267277 
L 212.698787 224.802811 
z
" clip-path="url(#p4a5fae43b1)" style="fill: #dc7ec0"/>
    <path d="M 211.39494 229.727958 
L 214.930474 226.192424 
L 211.39494 222.656891 
L 207.859406 226.192424 
z
" clip-path="url(#p4a5fae43b1)" style="fill: #dc7ec0"/>
    <path d="M 213.371167 229.572393 
L 216.906701 226.036859 
L 213.371167 222.501325 
L 209.835633 226.036859 
z
" clip-path="url(#p4a5fae43b1)" style="fill: #dc7ec0"/>
    <path d="M 206.597104 229.16798 
L 210.132637 225.632446 
L 206.597104 222.096912 
L 203.06157 225.632446 
z
" clip-path="url(#p4a5fae43b1)" style="fill: #dc7ec0"/>
   </g>
   <g id="PathCollection_12">
    <path d="M 275.591248 49.257568 
L 279.126782 45.722034 
L 275.591248 42.1865 
L 272.055715 45.722034 
z
" clip-path="url(#p4a5fae43b1)" style="fill: #dc7ec0"/>
    <path d="M 281.488101 45.860079 
L 285.023635 42.324545 
L 281.488101 38.789012 
L 277.952567 42.324545 
z
" clip-path="url(#p4a5fae43b1)" style="fill: #dc7ec0"/>
    <path d="M 271.613703 46.365393 
L 275.149237 42.829859 
L 271.613703 39.294325 
L 268.078169 42.829859 
z
" clip-path="url(#p4a5fae43b1)" style="fill: #dc7ec0"/>
    <path d="M 281.641946 47.003797 
L 285.17748 43.468263 
L 281.641946 39.932729 
L 278.106413 43.468263 
z
" clip-path="url(#p4a5fae43b1)" style="fill: #dc7ec0"/>
    <path d="M 273.595556 52.120505 
L 277.13109 48.584971 
L 273.595556 45.049437 
L 270.060022 48.584971 
z
" clip-path="url(#p4a5fae43b1)" style="fill: #dc7ec0"/>
   </g>
   <g id="line2d_10"/>
   <g id="PathCollection_13">
    <defs>
     <path id="C3_0_01f1315370" d="M 0 2.5 
C 0.663008 2.5 1.29895 2.236584 1.767767 1.767767 
C 2.236584 1.29895 2.5 0.663008 2.5 -0 
C 2.5 -0.663008 2.236584 -1.29895 1.767767 -1.767767 
C 1.29895 -2.236584 0.663008 -2.5 0 -2.5 
C -0.663008 -2.5 -1.29895 -2.236584 -1.767767 -1.767767 
C -2.236584 -1.29895 -2.5 -0.663008 -2.5 0 
C -2.5 0.663008 -2.236584 1.29895 -1.767767 1.767767 
C -1.29895 2.236584 -0.663008 2.5 0 2.5 
z
"/>
    </defs>
    <g clip-path="url(#p4a5fae43b1)">
     <use xlink:href="#C3_0_01f1315370" x="81.794345" y="365.138365" style="fill: #4878d0"/>
    </g>
    <g clip-path="url(#p4a5fae43b1)">
     <use xlink:href="#C3_0_01f1315370" x="86.427635" y="364.841185" style="fill: #4878d0"/>
    </g>
    <g clip-path="url(#p4a5fae43b1)">
     <use xlink:href="#C3_0_01f1315370" x="75.614802" y="365.398202" style="fill: #4878d0"/>
    </g>
    <g clip-path="url(#p4a5fae43b1)">
     <use xlink:href="#C3_0_01f1315370" x="78.052002" y="364.960991" style="fill: #4878d0"/>
    </g>
    <g clip-path="url(#p4a5fae43b1)">
     <use xlink:href="#C3_0_01f1315370" x="79.541904" y="364.783569" style="fill: #4878d0"/>
    </g>
   </g>
   <g id="PathCollection_14">
    <defs>
     <path id="C4_0_f007bbb5e3" d="M 0 2.5 
C 0.663008 2.5 1.29895 2.236584 1.767767 1.767767 
C 2.236584 1.29895 2.5 0.663008 2.5 -0 
C 2.5 -0.663008 2.236584 -1.29895 1.767767 -1.767767 
C 1.29895 -2.236584 0.663008 -2.5 0 -2.5 
C -0.663008 -2.5 -1.29895 -2.236584 -1.767767 -1.767767 
C -2.236584 -1.29895 -2.5 -0.663008 -2.5 0 
C -2.5 0.663008 -2.236584 1.29895 -1.767767 1.767767 
C -1.29895 2.236584 -0.663008 2.5 0 2.5 
z
"/>
    </defs>
    <g clip-path="url(#p4a5fae43b1)">
     <use xlink:href="#C4_0_f007bbb5e3" x="151.301798" y="317.0154" style="fill: #4878d0"/>
    </g>
    <g clip-path="url(#p4a5fae43b1)">
     <use xlink:href="#C4_0_f007bbb5e3" x="151.777844" y="318.792152" style="fill: #4878d0"/>
    </g>
    <g clip-path="url(#p4a5fae43b1)">
     <use xlink:href="#C4_0_f007bbb5e3" x="149.281143" y="317.531055" style="fill: #4878d0"/>
    </g>
    <g clip-path="url(#p4a5fae43b1)">
     <use xlink:href="#C4_0_f007bbb5e3" x="140.407405" y="316.428317" style="fill: #4878d0"/>
    </g>
    <g clip-path="url(#p4a5fae43b1)">
     <use xlink:href="#C4_0_f007bbb5e3" x="149.480891" y="319.18093" style="fill: #4878d0"/>
    </g>
   </g>
   <g id="PathCollection_15">
    <defs>
     <path id="C5_0_9b7fea2214" d="M 0 2.5 
C 0.663008 2.5 1.29895 2.236584 1.767767 1.767767 
C 2.236584 1.29895 2.5 0.663008 2.5 -0 
C 2.5 -0.663008 2.236584 -1.29895 1.767767 -1.767767 
C 1.29895 -2.236584 0.663008 -2.5 0 -2.5 
C -0.663008 -2.5 -1.29895 -2.236584 -1.767767 -1.767767 
C -2.236584 -1.29895 -2.5 -0.663008 -2.5 0 
C -2.5 0.663008 -2.236584 1.29895 -1.767767 1.767767 
C -1.29895 2.236584 -0.663008 2.5 0 2.5 
z
"/>
    </defs>
    <g clip-path="url(#p4a5fae43b1)">
     <use xlink:href="#C5_0_9b7fea2214" x="215.279942" y="246.187301" style="fill: #4878d0"/>
    </g>
    <g clip-path="url(#p4a5fae43b1)">
     <use xlink:href="#C5_0_9b7fea2214" x="209.722068" y="247.707214" style="fill: #4878d0"/>
    </g>
    <g clip-path="url(#p4a5fae43b1)">
     <use xlink:href="#C5_0_9b7fea2214" x="211.545541" y="245.215" style="fill: #4878d0"/>
    </g>
    <g clip-path="url(#p4a5fae43b1)">
     <use xlink:href="#C5_0_9b7fea2214" x="215.692608" y="248.406619" style="fill: #4878d0"/>
    </g>
    <g clip-path="url(#p4a5fae43b1)">
     <use xlink:href="#C5_0_9b7fea2214" x="206.336373" y="247.24076" style="fill: #4878d0"/>
    </g>
   </g>
   <g id="PathCollection_16">
    <defs>
     <path id="C6_0_2d5a425912" d="M 0 2.5 
C 0.663008 2.5 1.29895 2.236584 1.767767 1.767767 
C 2.236584 1.29895 2.5 0.663008 2.5 -0 
C 2.5 -0.663008 2.236584 -1.29895 1.767767 -1.767767 
C 1.29895 -2.236584 0.663008 -2.5 0 -2.5 
C -0.663008 -2.5 -1.29895 -2.236584 -1.767767 -1.767767 
C -2.236584 -1.29895 -2.5 -0.663008 -2.5 0 
C -2.5 0.663008 -2.236584 1.29895 -1.767767 1.767767 
C -1.29895 2.236584 -0.663008 2.5 0 2.5 
z
"/>
    </defs>
    <g clip-path="url(#p4a5fae43b1)">
     <use xlink:href="#C6_0_2d5a425912" x="279.853361" y="92.456517" style="fill: #4878d0"/>
    </g>
    <g clip-path="url(#p4a5fae43b1)">
     <use xlink:href="#C6_0_2d5a425912" x="280.528608" y="99.873835" style="fill: #4878d0"/>
    </g>
    <g clip-path="url(#p4a5fae43b1)">
     <use xlink:href="#C6_0_2d5a425912" x="279.482887" y="94.889565" style="fill: #4878d0"/>
    </g>
    <g clip-path="url(#p4a5fae43b1)">
     <use xlink:href="#C6_0_2d5a425912" x="284.477469" y="100.127114" style="fill: #4878d0"/>
    </g>
    <g clip-path="url(#p4a5fae43b1)">
     <use xlink:href="#C6_0_2d5a425912" x="278.438447" y="96.289008" style="fill: #4878d0"/>
    </g>
   </g>
   <g id="line2d_11"/>
   <g id="PathCollection_17">
    <path d="M 83.189084 362.723539 
L 80.689084 367.723539 
L 85.689084 367.723539 
z
" clip-path="url(#p4a5fae43b1)" style="fill: #ee854a"/>
    <path d="M 75.787711 362.335875 
L 73.287711 367.335875 
L 78.287711 367.335875 
z
" clip-path="url(#p4a5fae43b1)" style="fill: #ee854a"/>
    <path d="M 81.818285 362.750484 
L 79.318285 367.750484 
L 84.318285 367.750484 
z
" clip-path="url(#p4a5fae43b1)" style="fill: #ee854a"/>
    <path d="M 74.447493 362.460991 
L 71.947493 367.460991 
L 76.947493 367.460991 
z
" clip-path="url(#p4a5fae43b1)" style="fill: #ee854a"/>
    <path d="M 80.983023 362.322733 
L 78.483023 367.322733 
L 83.483023 367.322733 
z
" clip-path="url(#p4a5fae43b1)" style="fill: #ee854a"/>
   </g>
   <g id="PathCollection_18">
    <path d="M 141.847013 312.278557 
L 139.347013 317.278557 
L 144.347013 317.278557 
z
" clip-path="url(#p4a5fae43b1)" style="fill: #ee854a"/>
    <path d="M 151.468716 312.544248 
L 148.968716 317.544248 
L 153.968716 317.544248 
z
" clip-path="url(#p4a5fae43b1)" style="fill: #ee854a"/>
    <path d="M 152.317057 311.724319 
L 149.817057 316.724319 
L 154.817057 316.724319 
z
" clip-path="url(#p4a5fae43b1)" style="fill: #ee854a"/>
    <path d="M 147.356783 313.559833 
L 144.856783 318.559833 
L 149.856783 318.559833 
z
" clip-path="url(#p4a5fae43b1)" style="fill: #ee854a"/>
    <path d="M 147.984861 313.514204 
L 145.484861 318.514204 
L 150.484861 318.514204 
z
" clip-path="url(#p4a5fae43b1)" style="fill: #ee854a"/>
   </g>
   <g id="PathCollection_19">
    <path d="M 205.572286 230.193861 
L 203.072286 235.193861 
L 208.072286 235.193861 
z
" clip-path="url(#p4a5fae43b1)" style="fill: #ee854a"/>
    <path d="M 207.150257 232.631282 
L 204.650257 237.631282 
L 209.650257 237.631282 
z
" clip-path="url(#p4a5fae43b1)" style="fill: #ee854a"/>
    <path d="M 214.986405 247.379386 
L 212.486405 252.379386 
L 217.486405 252.379386 
z
" clip-path="url(#p4a5fae43b1)" style="fill: #ee854a"/>
    <path d="M 216.97717 230.374662 
L 214.47717 235.374662 
L 219.47717 235.374662 
z
" clip-path="url(#p4a5fae43b1)" style="fill: #ee854a"/>
    <path d="M 215.090209 232.547126 
L 212.590209 237.547126 
L 217.590209 237.547126 
z
" clip-path="url(#p4a5fae43b1)" style="fill: #ee854a"/>
   </g>
   <g id="PathCollection_20">
    <path d="M 273.388284 58.280001 
L 270.888284 63.280001 
L 275.888284 63.280001 
z
" clip-path="url(#p4a5fae43b1)" style="fill: #ee854a"/>
    <path d="M 274.568418 98.122168 
L 272.068418 103.122168 
L 277.068418 103.122168 
z
" clip-path="url(#p4a5fae43b1)" style="fill: #ee854a"/>
    <path d="M 280.276836 55.151865 
L 277.776836 60.151865 
L 282.776836 60.151865 
z
" clip-path="url(#p4a5fae43b1)" style="fill: #ee854a"/>
    <path d="M 279.602362 57.489784 
L 277.102362 62.489784 
L 282.102362 62.489784 
z
" clip-path="url(#p4a5fae43b1)" style="fill: #ee854a"/>
    <path d="M 276.536241 57.807961 
L 274.036241 62.807961 
L 279.036241 62.807961 
z
" clip-path="url(#p4a5fae43b1)" style="fill: #ee854a"/>
   </g>
   <g id="line2d_12"/>
   <g id="PathCollection_21">
    <path d="M 71.510081 364.960991 
L 76.510081 367.460991 
L 76.510081 362.460991 
z
" clip-path="url(#p4a5fae43b1)" style="fill: #d65f5f"/>
    <path d="M 75.22454 364.634261 
L 80.22454 367.134261 
L 80.22454 362.134261 
z
" clip-path="url(#p4a5fae43b1)" style="fill: #d65f5f"/>
    <path d="M 73.103287 364.939995 
L 78.103287 367.439995 
L 78.103287 362.439995 
z
" clip-path="url(#p4a5fae43b1)" style="fill: #d65f5f"/>
    <path d="M 83.654594 365.010596 
L 88.654594 367.510596 
L 88.654594 362.510596 
z
" clip-path="url(#p4a5fae43b1)" style="fill: #d65f5f"/>
    <path d="M 77.669011 364.969558 
L 82.669011 367.469558 
L 82.669011 362.469558 
z
" clip-path="url(#p4a5fae43b1)" style="fill: #d65f5f"/>
   </g>
   <g id="PathCollection_22">
    <path d="M 138.98879 312.791224 
L 143.98879 315.291224 
L 143.98879 310.291224 
z
" clip-path="url(#p4a5fae43b1)" style="fill: #d65f5f"/>
    <path d="M 144.883201 311.855575 
L 149.883201 314.355575 
L 149.883201 309.355575 
z
" clip-path="url(#p4a5fae43b1)" style="fill: #d65f5f"/>
    <path d="M 141.013921 312.472065 
L 146.013921 314.972065 
L 146.013921 309.972065 
z
" clip-path="url(#p4a5fae43b1)" style="fill: #d65f5f"/>
    <path d="M 138.061706 313.230186 
L 143.061706 315.730186 
L 143.061706 310.730186 
z
" clip-path="url(#p4a5fae43b1)" style="fill: #d65f5f"/>
    <path d="M 147.814599 312.444433 
L 152.814599 314.944433 
L 152.814599 309.944433 
z
" clip-path="url(#p4a5fae43b1)" style="fill: #d65f5f"/>
    <path d="M 139.428504 312.408851 
L 144.428504 314.908851 
L 144.428504 309.908851 
z
" clip-path="url(#p4a5fae43b1)" style="fill: #d65f5f"/>
    <path d="M 148.071077 313.75583 
L 153.071077 316.25583 
L 153.071077 311.25583 
z
" clip-path="url(#p4a5fae43b1)" style="fill: #d65f5f"/>
   </g>
   <g id="PathCollection_23">
    <path d="M 211.230892 229.792513 
L 216.230892 232.292513 
L 216.230892 227.292513 
z
" clip-path="url(#p4a5fae43b1)" style="fill: #d65f5f"/>
    <path d="M 215.702625 229.943228 
L 220.702625 232.443228 
L 220.702625 227.443228 
z
" clip-path="url(#p4a5fae43b1)" style="fill: #d65f5f"/>
    <path d="M 213.874185 231.289135 
L 218.874185 233.789135 
L 218.874185 228.789135 
z
" clip-path="url(#p4a5fae43b1)" style="fill: #d65f5f"/>
    <path d="M 213.724187 231.936537 
L 218.724187 234.436537 
L 218.724187 229.436537 
z
" clip-path="url(#p4a5fae43b1)" style="fill: #d65f5f"/>
    <path d="M 204.895309 229.379984 
L 209.895309 231.879984 
L 209.895309 226.879984 
z
" clip-path="url(#p4a5fae43b1)" style="fill: #d65f5f"/>
   </g>
   <g id="PathCollection_24">
    <path d="M 269.066886 77.78579 
L 274.066886 80.28579 
L 274.066886 75.28579 
z
" clip-path="url(#p4a5fae43b1)" style="fill: #d65f5f"/>
    <path d="M 275.242563 97.463314 
L 280.242563 99.963314 
L 280.242563 94.963314 
z
" clip-path="url(#p4a5fae43b1)" style="fill: #d65f5f"/>
   </g>
   <g id="line2d_13"/>
   <g id="PathCollection_25">
    <path d="M 80.359488 368.496525 
L 82.480808 364.960991 
L 80.359488 361.425457 
L 78.238168 364.960991 
z
" clip-path="url(#p4a5fae43b1)" style="fill: #008000"/>
    <path d="M 83.928064 368.557765 
L 86.049384 365.022231 
L 83.928064 361.486698 
L 81.806743 365.022231 
z
" clip-path="url(#p4a5fae43b1)" style="fill: #008000"/>
    <path d="M 73.787274 368.08909 
L 75.908594 364.553556 
L 73.787274 361.018022 
L 71.665953 364.553556 
z
" clip-path="url(#p4a5fae43b1)" style="fill: #008000"/>
    <path d="M 84.240846 369.150988 
L 86.362167 365.615455 
L 84.240846 362.079921 
L 82.119526 365.615455 
z
" clip-path="url(#p4a5fae43b1)" style="fill: #008000"/>
    <path d="M 73.865576 367.704415 
L 75.986896 364.168881 
L 73.865576 360.633347 
L 71.744255 364.168881 
z
" clip-path="url(#p4a5fae43b1)" style="fill: #008000"/>
   </g>
   <g id="PathCollection_26">
    <path d="M 150.809517 319.716402 
L 152.930837 316.180868 
L 150.809517 312.645334 
L 148.688197 316.180868 
z
" clip-path="url(#p4a5fae43b1)" style="fill: #008000"/>
    <path d="M 140.434648 318.880254 
L 142.555968 315.34472 
L 140.434648 311.809186 
L 138.313328 315.34472 
z
" clip-path="url(#p4a5fae43b1)" style="fill: #008000"/>
    <path d="M 151.574516 318.017965 
L 153.695836 314.482431 
L 151.574516 310.946898 
L 149.453195 314.482431 
z
" clip-path="url(#p4a5fae43b1)" style="fill: #008000"/>
    <path d="M 144.05838 320.304636 
L 146.179701 316.769102 
L 144.05838 313.233568 
L 141.93706 316.769102 
z
" clip-path="url(#p4a5fae43b1)" style="fill: #008000"/>
    <path d="M 152.462552 320.029949 
L 154.583872 316.494415 
L 152.462552 312.958881 
L 150.341231 316.494415 
z
" clip-path="url(#p4a5fae43b1)" style="fill: #008000"/>
   </g>
   <g id="PathCollection_27">
    <path d="M 214.763668 249.824711 
L 216.884989 246.289177 
L 214.763668 242.753643 
L 212.642348 246.289177 
z
" clip-path="url(#p4a5fae43b1)" style="fill: #008000"/>
    <path d="M 208.195903 244.282902 
L 210.317224 240.747368 
L 208.195903 237.211834 
L 206.074583 240.747368 
z
" clip-path="url(#p4a5fae43b1)" style="fill: #008000"/>
    <path d="M 212.046362 243.733247 
L 214.167682 240.197713 
L 212.046362 236.662179 
L 209.925042 240.197713 
z
" clip-path="url(#p4a5fae43b1)" style="fill: #008000"/>
    <path d="M 217.941823 243.251262 
L 220.063144 239.715728 
L 217.941823 236.180194 
L 215.820503 239.715728 
z
" clip-path="url(#p4a5fae43b1)" style="fill: #008000"/>
   </g>
   <g id="PathCollection_28">
    <path d="M 274.284217 93.84139 
L 276.405538 90.305856 
L 274.284217 86.770322 
L 272.162897 90.305856 
z
" clip-path="url(#p4a5fae43b1)" style="fill: #008000"/>
    <path d="M 276.659106 87.915412 
L 278.780427 84.379878 
L 276.659106 80.844345 
L 274.537786 84.379878 
z
" clip-path="url(#p4a5fae43b1)" style="fill: #008000"/>
    <path d="M 274.773634 86.139116 
L 276.894955 82.603582 
L 274.773634 79.068048 
L 272.652314 82.603582 
z
" clip-path="url(#p4a5fae43b1)" style="fill: #008000"/>
    <path d="M 279.124726 89.006572 
L 281.246047 85.471038 
L 279.124726 81.935504 
L 277.003406 85.471038 
z
" clip-path="url(#p4a5fae43b1)" style="fill: #008000"/>
    <path d="M 272.605507 85.21 
L 274.726827 81.674466 
L 272.605507 78.138932 
L 270.484187 81.674466 
z
" clip-path="url(#p4a5fae43b1)" style="fill: #008000"/>
   </g>
   <g id="line2d_14"/>
   <g id="text_14">
    <!-- AMG2023 FOM Overall (CPU) Speedup -->
    <g style="fill: #262626" transform="translate(92.917266 20.16) scale(0.09 -0.09)">
     <defs>
      <path id="DejaVuSans-41" d="M 2188 4044 
L 1331 1722 
L 3047 1722 
L 2188 4044 
z
M 1831 4666 
L 2547 4666 
L 4325 0 
L 3669 0 
L 3244 1197 
L 1141 1197 
L 716 0 
L 50 0 
L 1831 4666 
z
" transform="scale(0.015625)"/>
      <path id="DejaVuSans-47" d="M 3809 666 
L 3809 1919 
L 2778 1919 
L 2778 2438 
L 4434 2438 
L 4434 434 
Q 4069 175 3628 42 
Q 3188 -91 2688 -91 
Q 1594 -91 976 548 
Q 359 1188 359 2328 
Q 359 3472 976 4111 
Q 1594 4750 2688 4750 
Q 3144 4750 3555 4637 
Q 3966 4525 4313 4306 
L 4313 3634 
Q 3963 3931 3569 4081 
Q 3175 4231 2741 4231 
Q 1884 4231 1454 3753 
Q 1025 3275 1025 2328 
Q 1025 1384 1454 906 
Q 1884 428 2741 428 
Q 3075 428 3337 486 
Q 3600 544 3809 666 
z
" transform="scale(0.015625)"/>
      <path id="DejaVuSans-30" d="M 2034 4250 
Q 1547 4250 1301 3770 
Q 1056 3291 1056 2328 
Q 1056 1369 1301 889 
Q 1547 409 2034 409 
Q 2525 409 2770 889 
Q 3016 1369 3016 2328 
Q 3016 3291 2770 3770 
Q 2525 4250 2034 4250 
z
M 2034 4750 
Q 2819 4750 3233 4129 
Q 3647 3509 3647 2328 
Q 3647 1150 3233 529 
Q 2819 -91 2034 -91 
Q 1250 -91 836 529 
Q 422 1150 422 2328 
Q 422 3509 836 4129 
Q 1250 4750 2034 4750 
z
" transform="scale(0.015625)"/>
      <path id="DejaVuSans-43" d="M 4122 4306 
L 4122 3641 
Q 3803 3938 3442 4084 
Q 3081 4231 2675 4231 
Q 1875 4231 1450 3742 
Q 1025 3253 1025 2328 
Q 1025 1406 1450 917 
Q 1875 428 2675 428 
Q 3081 428 3442 575 
Q 3803 722 4122 1019 
L 4122 359 
Q 3791 134 3420 21 
Q 3050 -91 2638 -91 
Q 1578 -91 968 557 
Q 359 1206 359 2328 
Q 359 3453 968 4101 
Q 1578 4750 2638 4750 
Q 3056 4750 3426 4639 
Q 3797 4528 4122 4306 
z
" transform="scale(0.015625)"/>
      <path id="DejaVuSans-50" d="M 1259 4147 
L 1259 2394 
L 2053 2394 
Q 2494 2394 2734 2622 
Q 2975 2850 2975 3272 
Q 2975 3691 2734 3919 
Q 2494 4147 2053 4147 
L 1259 4147 
z
M 628 4666 
L 2053 4666 
Q 2838 4666 3239 4311 
Q 3641 3956 3641 3272 
Q 3641 2581 3239 2228 
Q 2838 1875 2053 1875 
L 1259 1875 
L 1259 0 
L 628 0 
L 628 4666 
z
" transform="scale(0.015625)"/>
      <path id="DejaVuSans-55" d="M 556 4666 
L 1191 4666 
L 1191 1831 
Q 1191 1081 1462 751 
Q 1734 422 2344 422 
Q 2950 422 3222 751 
Q 3494 1081 3494 1831 
L 3494 4666 
L 4128 4666 
L 4128 1753 
Q 4128 841 3676 375 
Q 3225 -91 2344 -91 
Q 1459 -91 1007 375 
Q 556 841 556 1753 
L 556 4666 
z
" transform="scale(0.015625)"/>
     </defs>
     <use xlink:href="#DejaVuSans-41"/>
     <use xlink:href="#DejaVuSans-4d" x="68.408203"/>
     <use xlink:href="#DejaVuSans-47" x="154.6875"/>
     <use xlink:href="#DejaVuSans-32" x="232.177734"/>
     <use xlink:href="#DejaVuSans-30" x="295.800781"/>
     <use xlink:href="#DejaVuSans-32" x="359.423828"/>
     <use xlink:href="#DejaVuSans-33" x="423.046875"/>
     <use xlink:href="#DejaVuSans-20" x="486.669922"/>
     <use xlink:href="#DejaVuSans-46" x="518.457031"/>
     <use xlink:href="#DejaVuSans-4f" x="575.976562"/>
     <use xlink:href="#DejaVuSans-4d" x="654.6875"/>
     <use xlink:href="#DejaVuSans-20" x="740.966797"/>
     <use xlink:href="#DejaVuSans-4f" x="772.753906"/>
     <use xlink:href="#DejaVuSans-76" x="851.464844"/>
     <use xlink:href="#DejaVuSans-65" x="910.644531"/>
     <use xlink:href="#DejaVuSans-72" x="972.167969"/>
     <use xlink:href="#DejaVuSans-61" x="1013.28125"/>
     <use xlink:href="#DejaVuSans-6c" x="1074.560547"/>
     <use xlink:href="#DejaVuSans-6c" x="1102.34375"/>
     <use xlink:href="#DejaVuSans-20" x="1130.126953"/>
     <use xlink:href="#DejaVuSans-28" x="1161.914062"/>
     <use xlink:href="#DejaVuSans-43" x="1200.927734"/>
     <use xlink:href="#DejaVuSans-50" x="1270.751953"/>
     <use xlink:href="#DejaVuSans-55" x="1331.054688"/>
     <use xlink:href="#DejaVuSans-29" x="1404.248047"/>
     <use xlink:href="#DejaVuSans-20" x="1443.261719"/>
     <use xlink:href="#DejaVuSans-53" x="1475.048828"/>
     <use xlink:href="#DejaVuSans-70" x="1538.525391"/>
     <use xlink:href="#DejaVuSans-65" x="1602.001953"/>
     <use xlink:href="#DejaVuSans-65" x="1663.525391"/>
     <use xlink:href="#DejaVuSans-64" x="1725.048828"/>
     <use xlink:href="#DejaVuSans-75" x="1788.525391"/>
     <use xlink:href="#DejaVuSans-70" x="1851.904297"/>
    </g>
   </g>
   <g id="legend_1">
    <g id="patch_7">
     <path d="M 54.8825 147.981562 
L 244.764844 147.981562 
Q 246.964844 147.981562 246.964844 145.781563 
L 246.964844 33.86 
Q 246.964844 31.66 244.764844 31.66 
L 54.8825 31.66 
Q 52.6825 31.66 52.6825 33.86 
L 52.6825 145.781563 
Q 52.6825 147.981562 54.8825 147.981562 
z
" style="fill: #ffffff; opacity: 0.8; stroke: #cccccc; stroke-linejoin: miter"/>
    </g>
    <g id="line2d_15">
     <defs>
      <path id="ma301828a04" d="M 0 -2.5 
L -2.377641 -0.772542 
L -1.469463 2.022542 
L 1.469463 2.022542 
L 2.377641 -0.772542 
z
"/>
     </defs>
     <g>
      <use xlink:href="#ma301828a04" x="68.0825" y="40.568281" style="fill: #8c613c"/>
     </g>
    </g>
    <g id="text_15">
     <!-- google/gke/cpu -->
     <g style="fill: #262626" transform="translate(87.8825 44.418281) scale(0.11 -0.11)">
      <defs>
       <path id="DejaVuSans-67" d="M 2906 1791 
Q 2906 2416 2648 2759 
Q 2391 3103 1925 3103 
Q 1463 3103 1205 2759 
Q 947 2416 947 1791 
Q 947 1169 1205 825 
Q 1463 481 1925 481 
Q 2391 481 2648 825 
Q 2906 1169 2906 1791 
z
M 3481 434 
Q 3481 -459 3084 -895 
Q 2688 -1331 1869 -1331 
Q 1566 -1331 1297 -1286 
Q 1028 -1241 775 -1147 
L 775 -588 
Q 1028 -725 1275 -790 
Q 1522 -856 1778 -856 
Q 2344 -856 2625 -561 
Q 2906 -266 2906 331 
L 2906 616 
Q 2728 306 2450 153 
Q 2172 0 1784 0 
Q 1141 0 747 490 
Q 353 981 353 1791 
Q 353 2603 747 3093 
Q 1141 3584 1784 3584 
Q 2172 3584 2450 3431 
Q 2728 3278 2906 2969 
L 2906 3500 
L 3481 3500 
L 3481 434 
z
" transform="scale(0.015625)"/>
       <path id="DejaVuSans-2f" d="M 1625 4666 
L 2156 4666 
L 531 -594 
L 0 -594 
L 1625 4666 
z
" transform="scale(0.015625)"/>
       <path id="DejaVuSans-6b" d="M 581 4863 
L 1159 4863 
L 1159 1991 
L 2875 3500 
L 3609 3500 
L 1753 1863 
L 3688 0 
L 2938 0 
L 1159 1709 
L 1159 0 
L 581 0 
L 581 4863 
z
" transform="scale(0.015625)"/>
       <path id="DejaVuSans-63" d="M 3122 3366 
L 3122 2828 
Q 2878 2963 2633 3030 
Q 2388 3097 2138 3097 
Q 1578 3097 1268 2742 
Q 959 2388 959 1747 
Q 959 1106 1268 751 
Q 1578 397 2138 397 
Q 2388 397 2633 464 
Q 2878 531 3122 666 
L 3122 134 
Q 2881 22 2623 -34 
Q 2366 -91 2075 -91 
Q 1284 -91 818 406 
Q 353 903 353 1747 
Q 353 2603 823 3093 
Q 1294 3584 2113 3584 
Q 2378 3584 2631 3529 
Q 2884 3475 3122 3366 
z
" transform="scale(0.015625)"/>
      </defs>
      <use xlink:href="#DejaVuSans-67"/>
      <use xlink:href="#DejaVuSans-6f" x="63.476562"/>
      <use xlink:href="#DejaVuSans-6f" x="124.658203"/>
      <use xlink:href="#DejaVuSans-67" x="185.839844"/>
      <use xlink:href="#DejaVuSans-6c" x="249.316406"/>
      <use xlink:href="#DejaVuSans-65" x="277.099609"/>
      <use xlink:href="#DejaVuSans-2f" x="338.623047"/>
      <use xlink:href="#DejaVuSans-67" x="372.314453"/>
      <use xlink:href="#DejaVuSans-6b" x="435.791016"/>
      <use xlink:href="#DejaVuSans-65" x="490.076172"/>
      <use xlink:href="#DejaVuSans-2f" x="551.599609"/>
      <use xlink:href="#DejaVuSans-63" x="585.291016"/>
      <use xlink:href="#DejaVuSans-70" x="640.271484"/>
      <use xlink:href="#DejaVuSans-75" x="703.748047"/>
     </g>
    </g>
    <g id="line2d_16">
     <defs>
      <path id="m82b026926d" d="M -2.5 2.5 
L 2.5 2.5 
L 2.5 -2.5 
L -2.5 -2.5 
z
"/>
     </defs>
     <g>
      <use xlink:href="#m82b026926d" x="68.0825" y="56.714219" style="fill: #6c3baa"/>
     </g>
    </g>
    <g id="text_16">
     <!-- google/compute-engine/cpu -->
     <g style="fill: #262626" transform="translate(87.8825 60.564219) scale(0.11 -0.11)">
      <defs>
       <path id="DejaVuSans-6d" d="M 3328 2828 
Q 3544 3216 3844 3400 
Q 4144 3584 4550 3584 
Q 5097 3584 5394 3201 
Q 5691 2819 5691 2113 
L 5691 0 
L 5113 0 
L 5113 2094 
Q 5113 2597 4934 2840 
Q 4756 3084 4391 3084 
Q 3944 3084 3684 2787 
Q 3425 2491 3425 1978 
L 3425 0 
L 2847 0 
L 2847 2094 
Q 2847 2600 2669 2842 
Q 2491 3084 2119 3084 
Q 1678 3084 1418 2786 
Q 1159 2488 1159 1978 
L 1159 0 
L 581 0 
L 581 3500 
L 1159 3500 
L 1159 2956 
Q 1356 3278 1631 3431 
Q 1906 3584 2284 3584 
Q 2666 3584 2933 3390 
Q 3200 3197 3328 2828 
z
" transform="scale(0.015625)"/>
       <path id="DejaVuSans-74" d="M 1172 4494 
L 1172 3500 
L 2356 3500 
L 2356 3053 
L 1172 3053 
L 1172 1153 
Q 1172 725 1289 603 
Q 1406 481 1766 481 
L 2356 481 
L 2356 0 
L 1766 0 
Q 1100 0 847 248 
Q 594 497 594 1153 
L 594 3053 
L 172 3053 
L 172 3500 
L 594 3500 
L 594 4494 
L 1172 4494 
z
" transform="scale(0.015625)"/>
       <path id="DejaVuSans-2d" d="M 313 2009 
L 1997 2009 
L 1997 1497 
L 313 1497 
L 313 2009 
z
" transform="scale(0.015625)"/>
       <path id="DejaVuSans-6e" d="M 3513 2113 
L 3513 0 
L 2938 0 
L 2938 2094 
Q 2938 2591 2744 2837 
Q 2550 3084 2163 3084 
Q 1697 3084 1428 2787 
Q 1159 2491 1159 1978 
L 1159 0 
L 581 0 
L 581 3500 
L 1159 3500 
L 1159 2956 
Q 1366 3272 1645 3428 
Q 1925 3584 2291 3584 
Q 2894 3584 3203 3211 
Q 3513 2838 3513 2113 
z
" transform="scale(0.015625)"/>
       <path id="DejaVuSans-69" d="M 603 3500 
L 1178 3500 
L 1178 0 
L 603 0 
L 603 3500 
z
M 603 4863 
L 1178 4863 
L 1178 4134 
L 603 4134 
L 603 4863 
z
" transform="scale(0.015625)"/>
      </defs>
      <use xlink:href="#DejaVuSans-67"/>
      <use xlink:href="#DejaVuSans-6f" x="63.476562"/>
      <use xlink:href="#DejaVuSans-6f" x="124.658203"/>
      <use xlink:href="#DejaVuSans-67" x="185.839844"/>
      <use xlink:href="#DejaVuSans-6c" x="249.316406"/>
      <use xlink:href="#DejaVuSans-65" x="277.099609"/>
      <use xlink:href="#DejaVuSans-2f" x="338.623047"/>
      <use xlink:href="#DejaVuSans-63" x="372.314453"/>
      <use xlink:href="#DejaVuSans-6f" x="427.294922"/>
      <use xlink:href="#DejaVuSans-6d" x="488.476562"/>
      <use xlink:href="#DejaVuSans-70" x="585.888672"/>
      <use xlink:href="#DejaVuSans-75" x="649.365234"/>
      <use xlink:href="#DejaVuSans-74" x="712.744141"/>
      <use xlink:href="#DejaVuSans-65" x="751.953125"/>
      <use xlink:href="#DejaVuSans-2d" x="813.476562"/>
      <use xlink:href="#DejaVuSans-65" x="849.560547"/>
      <use xlink:href="#DejaVuSans-6e" x="911.083984"/>
      <use xlink:href="#DejaVuSans-67" x="974.462891"/>
      <use xlink:href="#DejaVuSans-69" x="1037.939453"/>
      <use xlink:href="#DejaVuSans-6e" x="1065.722656"/>
      <use xlink:href="#DejaVuSans-65" x="1129.101562"/>
      <use xlink:href="#DejaVuSans-2f" x="1190.625"/>
      <use xlink:href="#DejaVuSans-63" x="1224.316406"/>
      <use xlink:href="#DejaVuSans-70" x="1279.296875"/>
      <use xlink:href="#DejaVuSans-75" x="1342.773438"/>
     </g>
    </g>
    <g id="line2d_17">
     <defs>
      <path id="m51acc0e437" d="M -0 3.535534 
L 3.535534 0 
L 0 -3.535534 
L -3.535534 -0 
z
"/>
     </defs>
     <g>
      <use xlink:href="#m51acc0e437" x="68.0825" y="72.860156" style="fill: #dc7ec0"/>
     </g>
    </g>
    <g id="text_17">
     <!-- on-premises/a/cpu -->
     <g style="fill: #262626" transform="translate(87.8825 76.710156) scale(0.11 -0.11)">
      <use xlink:href="#DejaVuSans-6f"/>
      <use xlink:href="#DejaVuSans-6e" x="61.181641"/>
      <use xlink:href="#DejaVuSans-2d" x="124.560547"/>
      <use xlink:href="#DejaVuSans-70" x="160.644531"/>
      <use xlink:href="#DejaVuSans-72" x="224.121094"/>
      <use xlink:href="#DejaVuSans-65" x="262.984375"/>
      <use xlink:href="#DejaVuSans-6d" x="324.507812"/>
      <use xlink:href="#DejaVuSans-69" x="421.919922"/>
      <use xlink:href="#DejaVuSans-73" x="449.703125"/>
      <use xlink:href="#DejaVuSans-65" x="501.802734"/>
      <use xlink:href="#DejaVuSans-73" x="563.326172"/>
      <use xlink:href="#DejaVuSans-2f" x="615.425781"/>
      <use xlink:href="#DejaVuSans-61" x="649.117188"/>
      <use xlink:href="#DejaVuSans-2f" x="710.396484"/>
      <use xlink:href="#DejaVuSans-63" x="744.087891"/>
      <use xlink:href="#DejaVuSans-70" x="799.068359"/>
      <use xlink:href="#DejaVuSans-75" x="862.544922"/>
     </g>
    </g>
    <g id="line2d_18">
     <defs>
      <path id="m6d563802d0" d="M 0 2.5 
C 0.663008 2.5 1.29895 2.236584 1.767767 1.767767 
C 2.236584 1.29895 2.5 0.663008 2.5 0 
C 2.5 -0.663008 2.236584 -1.29895 1.767767 -1.767767 
C 1.29895 -2.236584 0.663008 -2.5 0 -2.5 
C -0.663008 -2.5 -1.29895 -2.236584 -1.767767 -1.767767 
C -2.236584 -1.29895 -2.5 -0.663008 -2.5 0 
C -2.5 0.663008 -2.236584 1.29895 -1.767767 1.767767 
C -1.29895 2.236584 -0.663008 2.5 0 2.5 
z
"/>
     </defs>
     <g>
      <use xlink:href="#m6d563802d0" x="68.0825" y="89.006094" style="fill: #4878d0"/>
     </g>
    </g>
    <g id="text_18">
     <!-- aws/eks/cpu -->
     <g style="fill: #262626" transform="translate(87.8825 92.856094) scale(0.11 -0.11)">
      <defs>
       <path id="DejaVuSans-77" d="M 269 3500 
L 844 3500 
L 1563 769 
L 2278 3500 
L 2956 3500 
L 3675 769 
L 4391 3500 
L 4966 3500 
L 4050 0 
L 3372 0 
L 2619 2869 
L 1863 0 
L 1184 0 
L 269 3500 
z
" transform="scale(0.015625)"/>
      </defs>
      <use xlink:href="#DejaVuSans-61"/>
      <use xlink:href="#DejaVuSans-77" x="61.279297"/>
      <use xlink:href="#DejaVuSans-73" x="143.066406"/>
      <use xlink:href="#DejaVuSans-2f" x="195.166016"/>
      <use xlink:href="#DejaVuSans-65" x="228.857422"/>
      <use xlink:href="#DejaVuSans-6b" x="290.380859"/>
      <use xlink:href="#DejaVuSans-73" x="348.291016"/>
      <use xlink:href="#DejaVuSans-2f" x="400.390625"/>
      <use xlink:href="#DejaVuSans-63" x="434.082031"/>
      <use xlink:href="#DejaVuSans-70" x="489.0625"/>
      <use xlink:href="#DejaVuSans-75" x="552.539062"/>
     </g>
    </g>
    <g id="line2d_19">
     <defs>
      <path id="m3a2eac6924" d="M 0 -2.5 
L -2.5 2.5 
L 2.5 2.5 
z
"/>
     </defs>
     <g>
      <use xlink:href="#m3a2eac6924" x="68.0825" y="105.152031" style="fill: #ee854a"/>
     </g>
    </g>
    <g id="text_19">
     <!-- aws/parallel-cluster/cpu -->
     <g style="fill: #262626" transform="translate(87.8825 109.002031) scale(0.11 -0.11)">
      <use xlink:href="#DejaVuSans-61"/>
      <use xlink:href="#DejaVuSans-77" x="61.279297"/>
      <use xlink:href="#DejaVuSans-73" x="143.066406"/>
      <use xlink:href="#DejaVuSans-2f" x="195.166016"/>
      <use xlink:href="#DejaVuSans-70" x="228.857422"/>
      <use xlink:href="#DejaVuSans-61" x="292.333984"/>
      <use xlink:href="#DejaVuSans-72" x="353.613281"/>
      <use xlink:href="#DejaVuSans-61" x="394.726562"/>
      <use xlink:href="#DejaVuSans-6c" x="456.005859"/>
      <use xlink:href="#DejaVuSans-6c" x="483.789062"/>
      <use xlink:href="#DejaVuSans-65" x="511.572266"/>
      <use xlink:href="#DejaVuSans-6c" x="573.095703"/>
      <use xlink:href="#DejaVuSans-2d" x="600.878906"/>
      <use xlink:href="#DejaVuSans-63" x="636.962891"/>
      <use xlink:href="#DejaVuSans-6c" x="691.943359"/>
      <use xlink:href="#DejaVuSans-75" x="719.726562"/>
      <use xlink:href="#DejaVuSans-73" x="783.105469"/>
      <use xlink:href="#DejaVuSans-74" x="835.205078"/>
      <use xlink:href="#DejaVuSans-65" x="874.414062"/>
      <use xlink:href="#DejaVuSans-72" x="935.9375"/>
      <use xlink:href="#DejaVuSans-2f" x="977.050781"/>
      <use xlink:href="#DejaVuSans-63" x="1010.742188"/>
      <use xlink:href="#DejaVuSans-70" x="1065.722656"/>
      <use xlink:href="#DejaVuSans-75" x="1129.199219"/>
     </g>
    </g>
    <g id="line2d_20">
     <defs>
      <path id="m47e44a6c38" d="M -2.5 -0 
L 2.5 2.5 
L 2.5 -2.5 
z
"/>
     </defs>
     <g>
      <use xlink:href="#m47e44a6c38" x="68.0825" y="121.297969" style="fill: #d65f5f"/>
     </g>
    </g>
    <g id="text_20">
     <!-- azure/cyclecloud/cpu -->
     <g style="fill: #262626" transform="translate(87.8825 125.147969) scale(0.11 -0.11)">
      <defs>
       <path id="DejaVuSans-7a" d="M 353 3500 
L 3084 3500 
L 3084 2975 
L 922 459 
L 3084 459 
L 3084 0 
L 275 0 
L 275 525 
L 2438 3041 
L 353 3041 
L 353 3500 
z
" transform="scale(0.015625)"/>
       <path id="DejaVuSans-79" d="M 2059 -325 
Q 1816 -950 1584 -1140 
Q 1353 -1331 966 -1331 
L 506 -1331 
L 506 -850 
L 844 -850 
Q 1081 -850 1212 -737 
Q 1344 -625 1503 -206 
L 1606 56 
L 191 3500 
L 800 3500 
L 1894 763 
L 2988 3500 
L 3597 3500 
L 2059 -325 
z
" transform="scale(0.015625)"/>
      </defs>
      <use xlink:href="#DejaVuSans-61"/>
      <use xlink:href="#DejaVuSans-7a" x="61.279297"/>
      <use xlink:href="#DejaVuSans-75" x="113.769531"/>
      <use xlink:href="#DejaVuSans-72" x="177.148438"/>
      <use xlink:href="#DejaVuSans-65" x="216.011719"/>
      <use xlink:href="#DejaVuSans-2f" x="277.535156"/>
      <use xlink:href="#DejaVuSans-63" x="311.226562"/>
      <use xlink:href="#DejaVuSans-79" x="366.207031"/>
      <use xlink:href="#DejaVuSans-63" x="425.386719"/>
      <use xlink:href="#DejaVuSans-6c" x="480.367188"/>
      <use xlink:href="#DejaVuSans-65" x="508.150391"/>
      <use xlink:href="#DejaVuSans-63" x="569.673828"/>
      <use xlink:href="#DejaVuSans-6c" x="624.654297"/>
      <use xlink:href="#DejaVuSans-6f" x="652.4375"/>
      <use xlink:href="#DejaVuSans-75" x="713.619141"/>
      <use xlink:href="#DejaVuSans-64" x="776.998047"/>
      <use xlink:href="#DejaVuSans-2f" x="840.474609"/>
      <use xlink:href="#DejaVuSans-63" x="874.166016"/>
      <use xlink:href="#DejaVuSans-70" x="929.146484"/>
      <use xlink:href="#DejaVuSans-75" x="992.623047"/>
     </g>
    </g>
    <g id="line2d_21">
     <defs>
      <path id="m18e9b3d3b0" d="M -0 3.535534 
L 2.12132 0 
L -0 -3.535534 
L -2.12132 -0 
z
"/>
     </defs>
     <g>
      <use xlink:href="#m18e9b3d3b0" x="68.0825" y="137.443906" style="fill: #008000"/>
     </g>
    </g>
    <g id="text_21">
     <!-- azure/aks/cpu -->
     <g style="fill: #262626" transform="translate(87.8825 141.293906) scale(0.11 -0.11)">
      <use xlink:href="#DejaVuSans-61"/>
      <use xlink:href="#DejaVuSans-7a" x="61.279297"/>
      <use xlink:href="#DejaVuSans-75" x="113.769531"/>
      <use xlink:href="#DejaVuSans-72" x="177.148438"/>
      <use xlink:href="#DejaVuSans-65" x="216.011719"/>
      <use xlink:href="#DejaVuSans-2f" x="277.535156"/>
      <use xlink:href="#DejaVuSans-61" x="311.226562"/>
      <use xlink:href="#DejaVuSans-6b" x="372.505859"/>
      <use xlink:href="#DejaVuSans-73" x="430.416016"/>
      <use xlink:href="#DejaVuSans-2f" x="482.515625"/>
      <use xlink:href="#DejaVuSans-63" x="516.207031"/>
      <use xlink:href="#DejaVuSans-70" x="571.1875"/>
      <use xlink:href="#DejaVuSans-75" x="634.664062"/>
     </g>
    </g>
   </g>
  </g>
 </g>
 <defs>
  <clipPath id="p4a5fae43b1">
   <rect x="47.1825" y="26.16" width="263.8575" height="355.62"/>
  </clipPath>
 </defs>
</svg>
