<?xml version="1.0" encoding="utf-8" standalone="no"?>
<!DOCTYPE svg PUBLIC "-//W3C//DTD SVG 1.1//EN"
  "http://www.w3.org/Graphics/SVG/1.1/DTD/svg11.dtd">
<svg xmlns:xlink="http://www.w3.org/1999/xlink" width="324pt" height="432pt" viewBox="0 0 324 432" xmlns="http://www.w3.org/2000/svg" version="1.1">
 <metadata>
  <rdf:RDF xmlns:dc="http://purl.org/dc/elements/1.1/" xmlns:cc="http://creativecommons.org/ns#" xmlns:rdf="http://www.w3.org/1999/02/22-rdf-syntax-ns#">
   <cc:Work>
    <dc:type rdf:resource="http://purl.org/dc/dcmitype/StillImage"/>
    <dc:date>2025-02-04T20:10:21.977628</dc:date>
    <dc:format>image/svg+xml</dc:format>
    <dc:creator>
     <cc:Agent>
      <dc:title>Matplotlib v3.8.4, https://matplotlib.org/</dc:title>
     </cc:Agent>
    </dc:creator>
   </cc:Work>
  </rdf:RDF>
 </metadata>
 <defs>
  <style type="text/css">*{stroke-linejoin: round; stroke-linecap: butt}</style>
 </defs>
 <g id="figure_1">
  <g id="patch_1">
   <path d="M 0 432 
L 324 432 
L 324 0 
L 0 0 
z
" style="fill: #ffffff"/>
  </g>
  <g id="axes_1">
   <g id="patch_2">
    <path d="M 47.1825 381.78 
L 311.04 381.78 
L 311.04 26.16 
L 47.1825 26.16 
z
" style="fill: #ffffff"/>
   </g>
   <g id="matplotlib.axis_1">
    <g id="xtick_1">
     <g id="text_1">
      <!-- 32 -->
      <g style="fill: #262626" transform="translate(73.165937 399.638281) scale(0.11 -0.11)">
       <defs>
        <path id="DejaVuSans-33" d="M 2597 2516 
Q 3050 2419 3304 2112 
Q 3559 1806 3559 1356 
Q 3559 666 3084 287 
Q 2609 -91 1734 -91 
Q 1441 -91 1130 -33 
Q 819 25 488 141 
L 488 750 
Q 750 597 1062 519 
Q 1375 441 1716 441 
Q 2309 441 2620 675 
Q 2931 909 2931 1356 
Q 2931 1769 2642 2001 
Q 2353 2234 1838 2234 
L 1294 2234 
L 1294 2753 
L 1863 2753 
Q 2328 2753 2575 2939 
Q 2822 3125 2822 3475 
Q 2822 3834 2567 4026 
Q 2313 4219 1838 4219 
Q 1578 4219 1281 4162 
Q 984 4106 628 3988 
L 628 4550 
Q 988 4650 1302 4700 
Q 1616 4750 1894 4750 
Q 2613 4750 3031 4423 
Q 3450 4097 3450 3541 
Q 3450 3153 3228 2886 
Q 3006 2619 2597 2516 
z
" transform="scale(0.015625)"/>
        <path id="DejaVuSans-32" d="M 1228 531 
L 3431 531 
L 3431 0 
L 469 0 
L 469 531 
Q 828 903 1448 1529 
Q 2069 2156 2228 2338 
Q 2531 2678 2651 2914 
Q 2772 3150 2772 3378 
Q 2772 3750 2511 3984 
Q 2250 4219 1831 4219 
Q 1534 4219 1204 4116 
Q 875 4013 500 3803 
L 500 4441 
Q 881 4594 1212 4672 
Q 1544 4750 1819 4750 
Q 2544 4750 2975 4387 
Q 3406 4025 3406 3419 
Q 3406 3131 3298 2873 
Q 3191 2616 2906 2266 
Q 2828 2175 2409 1742 
Q 1991 1309 1228 531 
z
" transform="scale(0.015625)"/>
       </defs>
       <use xlink:href="#DejaVuSans-33"/>
       <use xlink:href="#DejaVuSans-32" x="63.623047"/>
      </g>
     </g>
    </g>
    <g id="xtick_2">
     <g id="text_2">
      <!-- 64 -->
      <g style="fill: #262626" transform="translate(139.130312 399.638281) scale(0.11 -0.11)">
       <defs>
        <path id="DejaVuSans-36" d="M 2113 2584 
Q 1688 2584 1439 2293 
Q 1191 2003 1191 1497 
Q 1191 994 1439 701 
Q 1688 409 2113 409 
Q 2538 409 2786 701 
Q 3034 994 3034 1497 
Q 3034 2003 2786 2293 
Q 2538 2584 2113 2584 
z
M 3366 4563 
L 3366 3988 
Q 3128 4100 2886 4159 
Q 2644 4219 2406 4219 
Q 1781 4219 1451 3797 
Q 1122 3375 1075 2522 
Q 1259 2794 1537 2939 
Q 1816 3084 2150 3084 
Q 2853 3084 3261 2657 
Q 3669 2231 3669 1497 
Q 3669 778 3244 343 
Q 2819 -91 2113 -91 
Q 1303 -91 875 529 
Q 447 1150 447 2328 
Q 447 3434 972 4092 
Q 1497 4750 2381 4750 
Q 2619 4750 2861 4703 
Q 3103 4656 3366 4563 
z
" transform="scale(0.015625)"/>
        <path id="DejaVuSans-34" d="M 2419 4116 
L 825 1625 
L 2419 1625 
L 2419 4116 
z
M 2253 4666 
L 3047 4666 
L 3047 1625 
L 3713 1625 
L 3713 1100 
L 3047 1100 
L 3047 0 
L 2419 0 
L 2419 1100 
L 313 1100 
L 313 1709 
L 2253 4666 
z
" transform="scale(0.015625)"/>
       </defs>
       <use xlink:href="#DejaVuSans-36"/>
       <use xlink:href="#DejaVuSans-34" x="63.623047"/>
      </g>
     </g>
    </g>
    <g id="xtick_3">
     <g id="text_3">
      <!-- 128 -->
      <g style="fill: #262626" transform="translate(201.595313 399.638281) scale(0.11 -0.11)">
       <defs>
        <path id="DejaVuSans-31" d="M 794 531 
L 1825 531 
L 1825 4091 
L 703 3866 
L 703 4441 
L 1819 4666 
L 2450 4666 
L 2450 531 
L 3481 531 
L 3481 0 
L 794 0 
L 794 531 
z
" transform="scale(0.015625)"/>
        <path id="DejaVuSans-38" d="M 2034 2216 
Q 1584 2216 1326 1975 
Q 1069 1734 1069 1313 
Q 1069 891 1326 650 
Q 1584 409 2034 409 
Q 2484 409 2743 651 
Q 3003 894 3003 1313 
Q 3003 1734 2745 1975 
Q 2488 2216 2034 2216 
z
M 1403 2484 
Q 997 2584 770 2862 
Q 544 3141 544 3541 
Q 544 4100 942 4425 
Q 1341 4750 2034 4750 
Q 2731 4750 3128 4425 
Q 3525 4100 3525 3541 
Q 3525 3141 3298 2862 
Q 3072 2584 2669 2484 
Q 3125 2378 3379 2068 
Q 3634 1759 3634 1313 
Q 3634 634 3220 271 
Q 2806 -91 2034 -91 
Q 1263 -91 848 271 
Q 434 634 434 1313 
Q 434 1759 690 2068 
Q 947 2378 1403 2484 
z
M 1172 3481 
Q 1172 3119 1398 2916 
Q 1625 2713 2034 2713 
Q 2441 2713 2670 2916 
Q 2900 3119 2900 3481 
Q 2900 3844 2670 4047 
Q 2441 4250 2034 4250 
Q 1625 4250 1398 4047 
Q 1172 3844 1172 3481 
z
" transform="scale(0.015625)"/>
       </defs>
       <use xlink:href="#DejaVuSans-31"/>
       <use xlink:href="#DejaVuSans-32" x="63.623047"/>
       <use xlink:href="#DejaVuSans-38" x="127.246094"/>
      </g>
     </g>
    </g>
    <g id="xtick_4">
     <g id="text_4">
      <!-- 256 -->
      <g style="fill: #262626" transform="translate(267.559687 399.638281) scale(0.11 -0.11)">
       <defs>
        <path id="DejaVuSans-35" d="M 691 4666 
L 3169 4666 
L 3169 4134 
L 1269 4134 
L 1269 2991 
Q 1406 3038 1543 3061 
Q 1681 3084 1819 3084 
Q 2600 3084 3056 2656 
Q 3513 2228 3513 1497 
Q 3513 744 3044 326 
Q 2575 -91 1722 -91 
Q 1428 -91 1123 -41 
Q 819 9 494 109 
L 494 744 
Q 775 591 1075 516 
Q 1375 441 1709 441 
Q 2250 441 2565 725 
Q 2881 1009 2881 1497 
Q 2881 1984 2565 2268 
Q 2250 2553 1709 2553 
Q 1456 2553 1204 2497 
Q 953 2441 691 2322 
L 691 4666 
z
" transform="scale(0.015625)"/>
       </defs>
       <use xlink:href="#DejaVuSans-32"/>
       <use xlink:href="#DejaVuSans-35" x="63.623047"/>
       <use xlink:href="#DejaVuSans-36" x="127.246094"/>
      </g>
     </g>
    </g>
    <g id="text_5">
     <!-- Number of GPU -->
     <g style="fill: #262626" transform="translate(128.889609 415.803906) scale(0.13 -0.13)">
      <defs>
       <path id="DejaVuSans-4e" d="M 628 4666 
L 1478 4666 
L 3547 763 
L 3547 4666 
L 4159 4666 
L 4159 0 
L 3309 0 
L 1241 3903 
L 1241 0 
L 628 0 
L 628 4666 
z
" transform="scale(0.015625)"/>
       <path id="DejaVuSans-75" d="M 544 1381 
L 544 3500 
L 1119 3500 
L 1119 1403 
Q 1119 906 1312 657 
Q 1506 409 1894 409 
Q 2359 409 2629 706 
Q 2900 1003 2900 1516 
L 2900 3500 
L 3475 3500 
L 3475 0 
L 2900 0 
L 2900 538 
Q 2691 219 2414 64 
Q 2138 -91 1772 -91 
Q 1169 -91 856 284 
Q 544 659 544 1381 
z
M 1991 3584 
L 1991 3584 
z
" transform="scale(0.015625)"/>
       <path id="DejaVuSans-6d" d="M 3328 2828 
Q 3544 3216 3844 3400 
Q 4144 3584 4550 3584 
Q 5097 3584 5394 3201 
Q 5691 2819 5691 2113 
L 5691 0 
L 5113 0 
L 5113 2094 
Q 5113 2597 4934 2840 
Q 4756 3084 4391 3084 
Q 3944 3084 3684 2787 
Q 3425 2491 3425 1978 
L 3425 0 
L 2847 0 
L 2847 2094 
Q 2847 2600 2669 2842 
Q 2491 3084 2119 3084 
Q 1678 3084 1418 2786 
Q 1159 2488 1159 1978 
L 1159 0 
L 581 0 
L 581 3500 
L 1159 3500 
L 1159 2956 
Q 1356 3278 1631 3431 
Q 1906 3584 2284 3584 
Q 2666 3584 2933 3390 
Q 3200 3197 3328 2828 
z
" transform="scale(0.015625)"/>
       <path id="DejaVuSans-62" d="M 3116 1747 
Q 3116 2381 2855 2742 
Q 2594 3103 2138 3103 
Q 1681 3103 1420 2742 
Q 1159 2381 1159 1747 
Q 1159 1113 1420 752 
Q 1681 391 2138 391 
Q 2594 391 2855 752 
Q 3116 1113 3116 1747 
z
M 1159 2969 
Q 1341 3281 1617 3432 
Q 1894 3584 2278 3584 
Q 2916 3584 3314 3078 
Q 3713 2572 3713 1747 
Q 3713 922 3314 415 
Q 2916 -91 2278 -91 
Q 1894 -91 1617 61 
Q 1341 213 1159 525 
L 1159 0 
L 581 0 
L 581 4863 
L 1159 4863 
L 1159 2969 
z
" transform="scale(0.015625)"/>
       <path id="DejaVuSans-65" d="M 3597 1894 
L 3597 1613 
L 953 1613 
Q 991 1019 1311 708 
Q 1631 397 2203 397 
Q 2534 397 2845 478 
Q 3156 559 3463 722 
L 3463 178 
Q 3153 47 2828 -22 
Q 2503 -91 2169 -91 
Q 1331 -91 842 396 
Q 353 884 353 1716 
Q 353 2575 817 3079 
Q 1281 3584 2069 3584 
Q 2775 3584 3186 3129 
Q 3597 2675 3597 1894 
z
M 3022 2063 
Q 3016 2534 2758 2815 
Q 2500 3097 2075 3097 
Q 1594 3097 1305 2825 
Q 1016 2553 972 2059 
L 3022 2063 
z
" transform="scale(0.015625)"/>
       <path id="DejaVuSans-72" d="M 2631 2963 
Q 2534 3019 2420 3045 
Q 2306 3072 2169 3072 
Q 1681 3072 1420 2755 
Q 1159 2438 1159 1844 
L 1159 0 
L 581 0 
L 581 3500 
L 1159 3500 
L 1159 2956 
Q 1341 3275 1631 3429 
Q 1922 3584 2338 3584 
Q 2397 3584 2469 3576 
Q 2541 3569 2628 3553 
L 2631 2963 
z
" transform="scale(0.015625)"/>
       <path id="DejaVuSans-20" transform="scale(0.015625)"/>
       <path id="DejaVuSans-6f" d="M 1959 3097 
Q 1497 3097 1228 2736 
Q 959 2375 959 1747 
Q 959 1119 1226 758 
Q 1494 397 1959 397 
Q 2419 397 2687 759 
Q 2956 1122 2956 1747 
Q 2956 2369 2687 2733 
Q 2419 3097 1959 3097 
z
M 1959 3584 
Q 2709 3584 3137 3096 
Q 3566 2609 3566 1747 
Q 3566 888 3137 398 
Q 2709 -91 1959 -91 
Q 1206 -91 779 398 
Q 353 888 353 1747 
Q 353 2609 779 3096 
Q 1206 3584 1959 3584 
z
" transform="scale(0.015625)"/>
       <path id="DejaVuSans-66" d="M 2375 4863 
L 2375 4384 
L 1825 4384 
Q 1516 4384 1395 4259 
Q 1275 4134 1275 3809 
L 1275 3500 
L 2222 3500 
L 2222 3053 
L 1275 3053 
L 1275 0 
L 697 0 
L 697 3053 
L 147 3053 
L 147 3500 
L 697 3500 
L 697 3744 
Q 697 4328 969 4595 
Q 1241 4863 1831 4863 
L 2375 4863 
z
" transform="scale(0.015625)"/>
       <path id="DejaVuSans-47" d="M 3809 666 
L 3809 1919 
L 2778 1919 
L 2778 2438 
L 4434 2438 
L 4434 434 
Q 4069 175 3628 42 
Q 3188 -91 2688 -91 
Q 1594 -91 976 548 
Q 359 1188 359 2328 
Q 359 3472 976 4111 
Q 1594 4750 2688 4750 
Q 3144 4750 3555 4637 
Q 3966 4525 4313 4306 
L 4313 3634 
Q 3963 3931 3569 4081 
Q 3175 4231 2741 4231 
Q 1884 4231 1454 3753 
Q 1025 3275 1025 2328 
Q 1025 1384 1454 906 
Q 1884 428 2741 428 
Q 3075 428 3337 486 
Q 3600 544 3809 666 
z
" transform="scale(0.015625)"/>
       <path id="DejaVuSans-50" d="M 1259 4147 
L 1259 2394 
L 2053 2394 
Q 2494 2394 2734 2622 
Q 2975 2850 2975 3272 
Q 2975 3691 2734 3919 
Q 2494 4147 2053 4147 
L 1259 4147 
z
M 628 4666 
L 2053 4666 
Q 2838 4666 3239 4311 
Q 3641 3956 3641 3272 
Q 3641 2581 3239 2228 
Q 2838 1875 2053 1875 
L 1259 1875 
L 1259 0 
L 628 0 
L 628 4666 
z
" transform="scale(0.015625)"/>
       <path id="DejaVuSans-55" d="M 556 4666 
L 1191 4666 
L 1191 1831 
Q 1191 1081 1462 751 
Q 1734 422 2344 422 
Q 2950 422 3222 751 
Q 3494 1081 3494 1831 
L 3494 4666 
L 4128 4666 
L 4128 1753 
Q 4128 841 3676 375 
Q 3225 -91 2344 -91 
Q 1459 -91 1007 375 
Q 556 841 556 1753 
L 556 4666 
z
" transform="scale(0.015625)"/>
      </defs>
      <use xlink:href="#DejaVuSans-4e"/>
      <use xlink:href="#DejaVuSans-75" x="74.804688"/>
      <use xlink:href="#DejaVuSans-6d" x="138.183594"/>
      <use xlink:href="#DejaVuSans-62" x="235.595703"/>
      <use xlink:href="#DejaVuSans-65" x="299.072266"/>
      <use xlink:href="#DejaVuSans-72" x="360.595703"/>
      <use xlink:href="#DejaVuSans-20" x="401.708984"/>
      <use xlink:href="#DejaVuSans-6f" x="433.496094"/>
      <use xlink:href="#DejaVuSans-66" x="494.677734"/>
      <use xlink:href="#DejaVuSans-20" x="529.882812"/>
      <use xlink:href="#DejaVuSans-47" x="561.669922"/>
      <use xlink:href="#DejaVuSans-50" x="639.160156"/>
      <use xlink:href="#DejaVuSans-55" x="699.462891"/>
     </g>
    </g>
   </g>
   <g id="matplotlib.axis_2">
    <g id="ytick_1">
     <g id="line2d_1">
      <path d="M 47.1825 378.286816 
L 311.04 378.286816 
" clip-path="url(#p58cbd07969)" style="fill: none; stroke: #cccccc; stroke-linecap: round"/>
     </g>
     <g id="text_6">
      <!-- $\mathdefault{0}$ -->
      <g style="fill: #262626" transform="translate(30.6425 382.465956) scale(0.11 -0.11)">
       <defs>
        <path id="DejaVuSans-30" d="M 2034 4250 
Q 1547 4250 1301 3770 
Q 1056 3291 1056 2328 
Q 1056 1369 1301 889 
Q 1547 409 2034 409 
Q 2525 409 2770 889 
Q 3016 1369 3016 2328 
Q 3016 3291 2770 3770 
Q 2525 4250 2034 4250 
z
M 2034 4750 
Q 2819 4750 3233 4129 
Q 3647 3509 3647 2328 
Q 3647 1150 3233 529 
Q 2819 -91 2034 -91 
Q 1250 -91 836 529 
Q 422 1150 422 2328 
Q 422 3509 836 4129 
Q 1250 4750 2034 4750 
z
" transform="scale(0.015625)"/>
       </defs>
       <use xlink:href="#DejaVuSans-30" transform="translate(0 0.78125)"/>
      </g>
     </g>
    </g>
    <g id="ytick_2">
     <g id="line2d_2">
      <path d="M 47.1825 332.025712 
L 311.04 332.025712 
" clip-path="url(#p58cbd07969)" style="fill: none; stroke: #cccccc; stroke-linecap: round"/>
     </g>
     <g id="text_7">
      <!-- $\mathdefault{1}$ -->
      <g style="fill: #262626" transform="translate(30.6425 336.204853) scale(0.11 -0.11)">
       <use xlink:href="#DejaVuSans-31" transform="translate(0 0.09375)"/>
      </g>
     </g>
    </g>
    <g id="ytick_3">
     <g id="line2d_3">
      <path d="M 47.1825 285.764609 
L 311.04 285.764609 
" clip-path="url(#p58cbd07969)" style="fill: none; stroke: #cccccc; stroke-linecap: round"/>
     </g>
     <g id="text_8">
      <!-- $\mathdefault{2}$ -->
      <g style="fill: #262626" transform="translate(30.6425 289.94375) scale(0.11 -0.11)">
       <use xlink:href="#DejaVuSans-32" transform="translate(0 0.78125)"/>
      </g>
     </g>
    </g>
    <g id="ytick_4">
     <g id="line2d_4">
      <path d="M 47.1825 239.503506 
L 311.04 239.503506 
" clip-path="url(#p58cbd07969)" style="fill: none; stroke: #cccccc; stroke-linecap: round"/>
     </g>
     <g id="text_9">
      <!-- $\mathdefault{3}$ -->
      <g style="fill: #262626" transform="translate(30.6425 243.682646) scale(0.11 -0.11)">
       <use xlink:href="#DejaVuSans-33" transform="translate(0 0.78125)"/>
      </g>
     </g>
    </g>
    <g id="ytick_5">
     <g id="line2d_5">
      <path d="M 47.1825 193.242402 
L 311.04 193.242402 
" clip-path="url(#p58cbd07969)" style="fill: none; stroke: #cccccc; stroke-linecap: round"/>
     </g>
     <g id="text_10">
      <!-- $\mathdefault{4}$ -->
      <g style="fill: #262626" transform="translate(30.6425 197.421543) scale(0.11 -0.11)">
       <use xlink:href="#DejaVuSans-34" transform="translate(0 0.09375)"/>
      </g>
     </g>
    </g>
    <g id="ytick_6">
     <g id="line2d_6">
      <path d="M 47.1825 146.981299 
L 311.04 146.981299 
" clip-path="url(#p58cbd07969)" style="fill: none; stroke: #cccccc; stroke-linecap: round"/>
     </g>
     <g id="text_11">
      <!-- $\mathdefault{5}$ -->
      <g style="fill: #262626" transform="translate(30.6425 151.160439) scale(0.11 -0.11)">
       <use xlink:href="#DejaVuSans-35" transform="translate(0 0.09375)"/>
      </g>
     </g>
    </g>
    <g id="ytick_7">
     <g id="line2d_7">
      <path d="M 47.1825 100.720195 
L 311.04 100.720195 
" clip-path="url(#p58cbd07969)" style="fill: none; stroke: #cccccc; stroke-linecap: round"/>
     </g>
     <g id="text_12">
      <!-- $\mathdefault{6}$ -->
      <g style="fill: #262626" transform="translate(30.6425 104.899336) scale(0.11 -0.11)">
       <use xlink:href="#DejaVuSans-36" transform="translate(0 0.78125)"/>
      </g>
     </g>
    </g>
    <g id="ytick_8">
     <g id="line2d_8">
      <path d="M 47.1825 54.459092 
L 311.04 54.459092 
" clip-path="url(#p58cbd07969)" style="fill: none; stroke: #cccccc; stroke-linecap: round"/>
     </g>
     <g id="text_13">
      <!-- $\mathdefault{7}$ -->
      <g style="fill: #262626" transform="translate(30.6425 58.638233) scale(0.11 -0.11)">
       <defs>
        <path id="DejaVuSans-37" d="M 525 4666 
L 3525 4666 
L 3525 4397 
L 1831 0 
L 1172 0 
L 2766 4134 
L 525 4134 
L 525 4666 
z
" transform="scale(0.015625)"/>
       </defs>
       <use xlink:href="#DejaVuSans-37" transform="translate(0 0.09375)"/>
      </g>
     </g>
    </g>
    <g id="text_14">
     <!-- FOM Overall -->
     <g style="fill: #262626" transform="translate(23.938906 243.729687) rotate(-90) scale(0.13 -0.13)">
      <defs>
       <path id="DejaVuSans-46" d="M 628 4666 
L 3309 4666 
L 3309 4134 
L 1259 4134 
L 1259 2759 
L 3109 2759 
L 3109 2228 
L 1259 2228 
L 1259 0 
L 628 0 
L 628 4666 
z
" transform="scale(0.015625)"/>
       <path id="DejaVuSans-4f" d="M 2522 4238 
Q 1834 4238 1429 3725 
Q 1025 3213 1025 2328 
Q 1025 1447 1429 934 
Q 1834 422 2522 422 
Q 3209 422 3611 934 
Q 4013 1447 4013 2328 
Q 4013 3213 3611 3725 
Q 3209 4238 2522 4238 
z
M 2522 4750 
Q 3503 4750 4090 4092 
Q 4678 3434 4678 2328 
Q 4678 1225 4090 567 
Q 3503 -91 2522 -91 
Q 1538 -91 948 565 
Q 359 1222 359 2328 
Q 359 3434 948 4092 
Q 1538 4750 2522 4750 
z
" transform="scale(0.015625)"/>
       <path id="DejaVuSans-4d" d="M 628 4666 
L 1569 4666 
L 2759 1491 
L 3956 4666 
L 4897 4666 
L 4897 0 
L 4281 0 
L 4281 4097 
L 3078 897 
L 2444 897 
L 1241 4097 
L 1241 0 
L 628 0 
L 628 4666 
z
" transform="scale(0.015625)"/>
       <path id="DejaVuSans-76" d="M 191 3500 
L 800 3500 
L 1894 563 
L 2988 3500 
L 3597 3500 
L 2284 0 
L 1503 0 
L 191 3500 
z
" transform="scale(0.015625)"/>
       <path id="DejaVuSans-61" d="M 2194 1759 
Q 1497 1759 1228 1600 
Q 959 1441 959 1056 
Q 959 750 1161 570 
Q 1363 391 1709 391 
Q 2188 391 2477 730 
Q 2766 1069 2766 1631 
L 2766 1759 
L 2194 1759 
z
M 3341 1997 
L 3341 0 
L 2766 0 
L 2766 531 
Q 2569 213 2275 61 
Q 1981 -91 1556 -91 
Q 1019 -91 701 211 
Q 384 513 384 1019 
Q 384 1609 779 1909 
Q 1175 2209 1959 2209 
L 2766 2209 
L 2766 2266 
Q 2766 2663 2505 2880 
Q 2244 3097 1772 3097 
Q 1472 3097 1187 3025 
Q 903 2953 641 2809 
L 641 3341 
Q 956 3463 1253 3523 
Q 1550 3584 1831 3584 
Q 2591 3584 2966 3190 
Q 3341 2797 3341 1997 
z
" transform="scale(0.015625)"/>
       <path id="DejaVuSans-6c" d="M 603 4863 
L 1178 4863 
L 1178 0 
L 603 0 
L 603 4863 
z
" transform="scale(0.015625)"/>
      </defs>
      <use xlink:href="#DejaVuSans-46"/>
      <use xlink:href="#DejaVuSans-4f" x="57.519531"/>
      <use xlink:href="#DejaVuSans-4d" x="136.230469"/>
      <use xlink:href="#DejaVuSans-20" x="222.509766"/>
      <use xlink:href="#DejaVuSans-4f" x="254.296875"/>
      <use xlink:href="#DejaVuSans-76" x="333.007812"/>
      <use xlink:href="#DejaVuSans-65" x="392.1875"/>
      <use xlink:href="#DejaVuSans-72" x="453.710938"/>
      <use xlink:href="#DejaVuSans-61" x="494.824219"/>
      <use xlink:href="#DejaVuSans-6c" x="556.103516"/>
      <use xlink:href="#DejaVuSans-6c" x="583.886719"/>
     </g>
    </g>
   </g>
   <g id="patch_3">
    <path d="M 47.1825 381.78 
L 47.1825 26.16 
" style="fill: none; stroke: #cccccc; stroke-width: 1.25; stroke-linejoin: miter; stroke-linecap: square"/>
   </g>
   <g id="patch_4">
    <path d="M 311.04 381.78 
L 311.04 26.16 
" style="fill: none; stroke: #cccccc; stroke-width: 1.25; stroke-linejoin: miter; stroke-linecap: square"/>
   </g>
   <g id="patch_5">
    <path d="M 47.1825 381.78 
L 311.04 381.78 
" style="fill: none; stroke: #cccccc; stroke-width: 1.25; stroke-linejoin: miter; stroke-linecap: square"/>
   </g>
   <g id="patch_6">
    <path d="M 47.1825 26.16 
L 311.04 26.16 
" style="fill: none; stroke: #cccccc; stroke-width: 1.25; stroke-linejoin: miter; stroke-linecap: square"/>
   </g>
   <g id="PathCollection_1">
    <defs>
     <path id="C0_0_2743db5dd9" d="M 0 -2.5 
L -2.377641 -0.772542 
L -1.469463 2.022542 
L 1.469463 2.022542 
L 2.377641 -0.772542 
z
"/>
    </defs>
    <g clip-path="url(#p58cbd07969)">
     <use xlink:href="#C0_0_2743db5dd9" x="73.900459" y="332.025712" style="fill: #8c613c"/>
    </g>
    <g clip-path="url(#p58cbd07969)">
     <use xlink:href="#C0_0_2743db5dd9" x="74.124329" y="329.890229" style="fill: #8c613c"/>
    </g>
    <g clip-path="url(#p58cbd07969)">
     <use xlink:href="#C0_0_2743db5dd9" x="80.602755" y="318.384353" style="fill: #8c613c"/>
    </g>
    <g clip-path="url(#p58cbd07969)">
     <use xlink:href="#C0_0_2743db5dd9" x="76.113033" y="332.500736" style="fill: #8c613c"/>
    </g>
    <g clip-path="url(#p58cbd07969)">
     <use xlink:href="#C0_0_2743db5dd9" x="74.234653" y="332.334696" style="fill: #8c613c"/>
    </g>
   </g>
   <g id="PathCollection_2">
    <defs>
     <path id="C1_0_040d17d40b" d="M 0 -2.5 
L -2.377641 -0.772542 
L -1.469463 2.022542 
L 1.469463 2.022542 
L 2.377641 -0.772542 
z
"/>
    </defs>
    <g clip-path="url(#p58cbd07969)">
     <use xlink:href="#C1_0_040d17d40b" x="152.22485" y="289.656697" style="fill: #8c613c"/>
    </g>
    <g clip-path="url(#p58cbd07969)">
     <use xlink:href="#C1_0_040d17d40b" x="142.521599" y="284.031023" style="fill: #8c613c"/>
    </g>
    <g clip-path="url(#p58cbd07969)">
     <use xlink:href="#C1_0_040d17d40b" x="144.179876" y="287.082736" style="fill: #8c613c"/>
    </g>
    <g clip-path="url(#p58cbd07969)">
     <use xlink:href="#C1_0_040d17d40b" x="141.361198" y="288.207947" style="fill: #8c613c"/>
    </g>
    <g clip-path="url(#p58cbd07969)">
     <use xlink:href="#C1_0_040d17d40b" x="143.329684" y="290.781707" style="fill: #8c613c"/>
    </g>
   </g>
   <g id="PathCollection_3">
    <defs>
     <path id="C2_0_b478176f48" d="M 0 -2.5 
L -2.377641 -0.772542 
L -1.469463 2.022542 
L 1.469463 2.022542 
L 2.377641 -0.772542 
z
"/>
    </defs>
    <g clip-path="url(#p58cbd07969)">
     <use xlink:href="#C2_0_b478176f48" x="208.539039" y="256.74229" style="fill: #8c613c"/>
    </g>
    <g clip-path="url(#p58cbd07969)">
     <use xlink:href="#C2_0_b478176f48" x="218.375908" y="253.220025" style="fill: #8c613c"/>
    </g>
    <g clip-path="url(#p58cbd07969)">
     <use xlink:href="#C2_0_b478176f48" x="211.499164" y="248.365256" style="fill: #8c613c"/>
    </g>
    <g clip-path="url(#p58cbd07969)">
     <use xlink:href="#C2_0_b478176f48" x="217.798154" y="255.413252" style="fill: #8c613c"/>
    </g>
    <g clip-path="url(#p58cbd07969)">
     <use xlink:href="#C2_0_b478176f48" x="207.277039" y="258.647305" style="fill: #8c613c"/>
    </g>
   </g>
   <g id="PathCollection_4">
    <defs>
     <path id="C3_0_85d8959a3a" d="M 0 -2.5 
L -2.377641 -0.772542 
L -1.469463 2.022542 
L 1.469463 2.022542 
L 2.377641 -0.772542 
z
"/>
    </defs>
    <g clip-path="url(#p58cbd07969)">
     <use xlink:href="#C3_0_85d8959a3a" x="283.773509" y="157.382579" style="fill: #8c613c"/>
    </g>
    <g clip-path="url(#p58cbd07969)">
     <use xlink:href="#C3_0_85d8959a3a" x="276.247775" y="132.768312" style="fill: #8c613c"/>
    </g>
    <g clip-path="url(#p58cbd07969)">
     <use xlink:href="#C3_0_85d8959a3a" x="277.032267" y="158.690599" style="fill: #8c613c"/>
    </g>
    <g clip-path="url(#p58cbd07969)">
     <use xlink:href="#C3_0_85d8959a3a" x="278.620269" y="139.906304" style="fill: #8c613c"/>
    </g>
    <g clip-path="url(#p58cbd07969)">
     <use xlink:href="#C3_0_85d8959a3a" x="284.635756" y="171.323061" style="fill: #8c613c"/>
    </g>
    <g clip-path="url(#p58cbd07969)">
     <use xlink:href="#C3_0_85d8959a3a" x="272.520683" y="139.725529" style="fill: #8c613c"/>
    </g>
   </g>
   <g id="line2d_9"/>
   <g id="PathCollection_5">
    <path d="M 81.489744 332.75247 
L 86.489744 332.75247 
L 86.489744 327.75247 
L 81.489744 327.75247 
z
" clip-path="url(#p58cbd07969)" style="fill: #6c3baa"/>
    <path d="M 72.450013 334.525712 
L 77.450013 334.525712 
L 77.450013 329.525712 
L 72.450013 329.525712 
z
" clip-path="url(#p58cbd07969)" style="fill: #6c3baa"/>
    <path d="M 82.523394 341.7161 
L 87.523394 341.7161 
L 87.523394 336.7161 
L 82.523394 336.7161 
z
" clip-path="url(#p58cbd07969)" style="fill: #6c3baa"/>
    <path d="M 73.411544 336.844974 
L 78.411544 336.844974 
L 78.411544 331.844974 
L 73.411544 331.844974 
z
" clip-path="url(#p58cbd07969)" style="fill: #6c3baa"/>
    <path d="M 78.849986 333.215441 
L 83.849986 333.215441 
L 83.849986 328.215441 
L 78.849986 328.215441 
z
" clip-path="url(#p58cbd07969)" style="fill: #6c3baa"/>
   </g>
   <g id="PathCollection_6">
    <path d="M 139.045535 332.219763 
L 144.045535 332.219763 
L 144.045535 327.219763 
L 139.045535 327.219763 
z
" clip-path="url(#p58cbd07969)" style="fill: #6c3baa"/>
    <path d="M 143.402219 336.303761 
L 148.402219 336.303761 
L 148.402219 331.303761 
L 143.402219 331.303761 
z
" clip-path="url(#p58cbd07969)" style="fill: #6c3baa"/>
    <path d="M 144.831987 333.751596 
L 149.831987 333.751596 
L 149.831987 328.751596 
L 144.831987 328.751596 
z
" clip-path="url(#p58cbd07969)" style="fill: #6c3baa"/>
    <path d="M 149.216068 331.482819 
L 154.216068 331.482819 
L 154.216068 326.482819 
L 149.216068 326.482819 
z
" clip-path="url(#p58cbd07969)" style="fill: #6c3baa"/>
    <path d="M 150.138856 333.053512 
L 155.138856 333.053512 
L 155.138856 328.053512 
L 150.138856 328.053512 
z
" clip-path="url(#p58cbd07969)" style="fill: #6c3baa"/>
   </g>
   <g id="PathCollection_7">
    <path d="M 216.097501 306.714245 
L 221.097501 306.714245 
L 221.097501 301.714245 
L 216.097501 301.714245 
z
" clip-path="url(#p58cbd07969)" style="fill: #6c3baa"/>
    <path d="M 209.855281 311.914452 
L 214.855281 311.914452 
L 214.855281 306.914452 
L 209.855281 306.914452 
z
" clip-path="url(#p58cbd07969)" style="fill: #6c3baa"/>
    <path d="M 206.600224 305.553386 
L 211.600224 305.553386 
L 211.600224 300.553386 
L 206.600224 300.553386 
z
" clip-path="url(#p58cbd07969)" style="fill: #6c3baa"/>
    <path d="M 207.741393 310.280628 
L 212.741393 310.280628 
L 212.741393 305.280628 
L 207.741393 305.280628 
z
" clip-path="url(#p58cbd07969)" style="fill: #6c3baa"/>
    <path d="M 214.658236 310.616004 
L 219.658236 310.616004 
L 219.658236 305.616004 
L 214.658236 305.616004 
z
" clip-path="url(#p58cbd07969)" style="fill: #6c3baa"/>
   </g>
   <g id="PathCollection_8">
    <path d="M 276.676376 250.516746 
L 281.676376 250.516746 
L 281.676376 245.516746 
L 276.676376 245.516746 
z
" clip-path="url(#p58cbd07969)" style="fill: #6c3baa"/>
    <path d="M 281.913056 247.270552 
L 286.913056 247.270552 
L 286.913056 242.270552 
L 281.913056 242.270552 
z
" clip-path="url(#p58cbd07969)" style="fill: #6c3baa"/>
    <path d="M 278.799428 265.114948 
L 283.799428 265.114948 
L 283.799428 260.114948 
L 278.799428 260.114948 
z
" clip-path="url(#p58cbd07969)" style="fill: #6c3baa"/>
    <path d="M 280.357838 257.239854 
L 285.357838 257.239854 
L 285.357838 252.239854 
L 280.357838 252.239854 
z
" clip-path="url(#p58cbd07969)" style="fill: #6c3baa"/>
    <path d="M 276.442422 251.753141 
L 281.442422 251.753141 
L 281.442422 246.753141 
L 276.442422 246.753141 
z
" clip-path="url(#p58cbd07969)" style="fill: #6c3baa"/>
   </g>
   <g id="line2d_10"/>
   <g id="PathCollection_9">
    <defs>
     <path id="C4_0_141c4d9683" d="M -0.833333 2.5 
L 0.833333 2.5 
L 0.833333 0.833333 
L 2.5 0.833333 
L 2.5 -0.833333 
L 0.833333 -0.833333 
L 0.833333 -2.5 
L -0.833333 -2.5 
L -0.833333 -0.833333 
L -2.5 -0.833333 
L -2.5 0.833333 
L -0.833333 0.833333 
z
"/>
    </defs>
    <g clip-path="url(#p58cbd07969)">
     <use xlink:href="#C4_0_141c4d9683" x="84.320764" y="332.025712" style="fill: #797979"/>
    </g>
    <g clip-path="url(#p58cbd07969)">
     <use xlink:href="#C4_0_141c4d9683" x="75.189849" y="331.826016" style="fill: #797979"/>
    </g>
    <g clip-path="url(#p58cbd07969)">
     <use xlink:href="#C4_0_141c4d9683" x="82.571617" y="332.122502" style="fill: #797979"/>
    </g>
    <g clip-path="url(#p58cbd07969)">
     <use xlink:href="#C4_0_141c4d9683" x="78.680641" y="331.79495" style="fill: #797979"/>
    </g>
    <g clip-path="url(#p58cbd07969)">
     <use xlink:href="#C4_0_141c4d9683" x="78.850846" y="365.615455" style="fill: #797979"/>
    </g>
   </g>
   <g id="PathCollection_10">
    <defs>
     <path id="C5_0_d6d4c9da67" d="M -0.833333 2.5 
L 0.833333 2.5 
L 0.833333 0.833333 
L 2.5 0.833333 
L 2.5 -0.833333 
L 0.833333 -0.833333 
L 0.833333 -2.5 
L -0.833333 -2.5 
L -0.833333 -0.833333 
L -2.5 -0.833333 
L -2.5 0.833333 
L -0.833333 0.833333 
z
"/>
    </defs>
    <g clip-path="url(#p58cbd07969)">
     <use xlink:href="#C5_0_d6d4c9da67" x="149.1846" y="346.84616" style="fill: #797979"/>
    </g>
    <g clip-path="url(#p58cbd07969)">
     <use xlink:href="#C5_0_d6d4c9da67" x="146.800957" y="357.059531" style="fill: #797979"/>
    </g>
    <g clip-path="url(#p58cbd07969)">
     <use xlink:href="#C5_0_d6d4c9da67" x="148.962516" y="357.036509" style="fill: #797979"/>
    </g>
    <g clip-path="url(#p58cbd07969)">
     <use xlink:href="#C5_0_d6d4c9da67" x="151.261166" y="355.804487" style="fill: #797979"/>
    </g>
    <g clip-path="url(#p58cbd07969)">
     <use xlink:href="#C5_0_d6d4c9da67" x="145.855926" y="342.42187" style="fill: #797979"/>
    </g>
   </g>
   <g id="PathCollection_11">
    <defs>
     <path id="C6_0_4c8b4b448e" d="M -0.833333 2.5 
L 0.833333 2.5 
L 0.833333 0.833333 
L 2.5 0.833333 
L 2.5 -0.833333 
L 0.833333 -0.833333 
L 0.833333 -2.5 
L -0.833333 -2.5 
L -0.833333 -0.833333 
L -2.5 -0.833333 
L -2.5 0.833333 
L -0.833333 0.833333 
z
"/>
    </defs>
    <g clip-path="url(#p58cbd07969)">
     <use xlink:href="#C6_0_4c8b4b448e" x="210.72492" y="310.6383" style="fill: #797979"/>
    </g>
    <g clip-path="url(#p58cbd07969)">
     <use xlink:href="#C6_0_4c8b4b448e" x="209.282574" y="310.559054" style="fill: #797979"/>
    </g>
    <g clip-path="url(#p58cbd07969)">
     <use xlink:href="#C6_0_4c8b4b448e" x="206.972274" y="313.631097" style="fill: #797979"/>
    </g>
    <g clip-path="url(#p58cbd07969)">
     <use xlink:href="#C6_0_4c8b4b448e" x="206.12677" y="312.71129" style="fill: #797979"/>
    </g>
    <g clip-path="url(#p58cbd07969)">
     <use xlink:href="#C6_0_4c8b4b448e" x="210.814149" y="328.771172" style="fill: #797979"/>
    </g>
   </g>
   <g id="PathCollection_12">
    <defs>
     <path id="C7_0_a081aaee4f" d="M -0.833333 2.5 
L 0.833333 2.5 
L 0.833333 0.833333 
L 2.5 0.833333 
L 2.5 -0.833333 
L 0.833333 -0.833333 
L 0.833333 -2.5 
L -0.833333 -2.5 
L -0.833333 -0.833333 
L -2.5 -0.833333 
L -2.5 0.833333 
L -0.833333 0.833333 
z
"/>
    </defs>
    <g clip-path="url(#p58cbd07969)">
     <use xlink:href="#C7_0_a081aaee4f" x="281.854833" y="307.363346" style="fill: #797979"/>
    </g>
    <g clip-path="url(#p58cbd07969)">
     <use xlink:href="#C7_0_a081aaee4f" x="278.137743" y="308.684439" style="fill: #797979"/>
    </g>
    <g clip-path="url(#p58cbd07969)">
     <use xlink:href="#C7_0_a081aaee4f" x="276.069322" y="308.414254" style="fill: #797979"/>
    </g>
    <g clip-path="url(#p58cbd07969)">
     <use xlink:href="#C7_0_a081aaee4f" x="282.503412" y="308.870611" style="fill: #797979"/>
    </g>
   </g>
   <g id="line2d_11"/>
   <g id="PathCollection_13">
    <defs>
     <path id="C8_0_c66e8888c2" d="M 0 2.5 
C 0.663008 2.5 1.29895 2.236584 1.767767 1.767767 
C 2.236584 1.29895 2.5 0.663008 2.5 -0 
C 2.5 -0.663008 2.236584 -1.29895 1.767767 -1.767767 
C 1.29895 -2.236584 0.663008 -2.5 0 -2.5 
C -0.663008 -2.5 -1.29895 -2.236584 -1.767767 -1.767767 
C -2.236584 -1.29895 -2.5 -0.663008 -2.5 0 
C -2.5 0.663008 -2.236584 1.29895 -1.767767 1.767767 
C -1.29895 2.236584 -0.663008 2.5 0 2.5 
z
"/>
    </defs>
    <g clip-path="url(#p58cbd07969)">
     <use xlink:href="#C8_0_c66e8888c2" x="85.438379" y="332.410671" style="fill: #4878d0"/>
    </g>
    <g clip-path="url(#p58cbd07969)">
     <use xlink:href="#C8_0_c66e8888c2" x="75.353784" y="332.534047" style="fill: #4878d0"/>
    </g>
    <g clip-path="url(#p58cbd07969)">
     <use xlink:href="#C8_0_c66e8888c2" x="78.894051" y="331.661942" style="fill: #4878d0"/>
    </g>
    <g clip-path="url(#p58cbd07969)">
     <use xlink:href="#C8_0_c66e8888c2" x="86.126444" y="331.697259" style="fill: #4878d0"/>
    </g>
    <g clip-path="url(#p58cbd07969)">
     <use xlink:href="#C8_0_c66e8888c2" x="74.411815" y="332.263393" style="fill: #4878d0"/>
    </g>
    <g clip-path="url(#p58cbd07969)">
     <use xlink:href="#C8_0_c66e8888c2" x="77.941279" y="331.481293" style="fill: #4878d0"/>
    </g>
    <g clip-path="url(#p58cbd07969)">
     <use xlink:href="#C8_0_c66e8888c2" x="82.230741" y="332.023177" style="fill: #4878d0"/>
    </g>
    <g clip-path="url(#p58cbd07969)">
     <use xlink:href="#C8_0_c66e8888c2" x="81.387941" y="332.55926" style="fill: #4878d0"/>
    </g>
    <g clip-path="url(#p58cbd07969)">
     <use xlink:href="#C8_0_c66e8888c2" x="83.093741" y="331.490947" style="fill: #4878d0"/>
    </g>
    <g clip-path="url(#p58cbd07969)">
     <use xlink:href="#C8_0_c66e8888c2" x="82.378413" y="331.608978" style="fill: #4878d0"/>
    </g>
    <g clip-path="url(#p58cbd07969)">
     <use xlink:href="#C8_0_c66e8888c2" x="77.526975" y="332.119585" style="fill: #4878d0"/>
    </g>
    <g clip-path="url(#p58cbd07969)">
     <use xlink:href="#C8_0_c66e8888c2" x="75.055928" y="332.386738" style="fill: #4878d0"/>
    </g>
    <g clip-path="url(#p58cbd07969)">
     <use xlink:href="#C8_0_c66e8888c2" x="82.294021" y="332.656258" style="fill: #4878d0"/>
    </g>
    <g clip-path="url(#p58cbd07969)">
     <use xlink:href="#C8_0_c66e8888c2" x="77.199415" y="331.642701" style="fill: #4878d0"/>
    </g>
    <g clip-path="url(#p58cbd07969)">
     <use xlink:href="#C8_0_c66e8888c2" x="78.958989" y="332.114597" style="fill: #4878d0"/>
    </g>
    <g clip-path="url(#p58cbd07969)">
     <use xlink:href="#C8_0_c66e8888c2" x="79.891078" y="332.028248" style="fill: #4878d0"/>
    </g>
    <g clip-path="url(#p58cbd07969)">
     <use xlink:href="#C8_0_c66e8888c2" x="84.390704" y="331.7406" style="fill: #4878d0"/>
    </g>
    <g clip-path="url(#p58cbd07969)">
     <use xlink:href="#C8_0_c66e8888c2" x="83.512992" y="331.800996" style="fill: #4878d0"/>
    </g>
    <g clip-path="url(#p58cbd07969)">
     <use xlink:href="#C8_0_c66e8888c2" x="85.887266" y="331.782537" style="fill: #4878d0"/>
    </g>
    <g clip-path="url(#p58cbd07969)">
     <use xlink:href="#C8_0_c66e8888c2" x="85.99064" y="332.069076" style="fill: #4878d0"/>
    </g>
    <g clip-path="url(#p58cbd07969)">
     <use xlink:href="#C8_0_c66e8888c2" x="74.444887" y="332.177499" style="fill: #4878d0"/>
    </g>
    <g clip-path="url(#p58cbd07969)">
     <use xlink:href="#C8_0_c66e8888c2" x="82.242883" y="332.032702" style="fill: #4878d0"/>
    </g>
    <g clip-path="url(#p58cbd07969)">
     <use xlink:href="#C8_0_c66e8888c2" x="84.452852" y="331.873485" style="fill: #4878d0"/>
    </g>
    <g clip-path="url(#p58cbd07969)">
     <use xlink:href="#C8_0_c66e8888c2" x="77.594772" y="332.236761" style="fill: #4878d0"/>
    </g>
    <g clip-path="url(#p58cbd07969)">
     <use xlink:href="#C8_0_c66e8888c2" x="79.577822" y="332.342325" style="fill: #4878d0"/>
    </g>
    <g clip-path="url(#p58cbd07969)">
     <use xlink:href="#C8_0_c66e8888c2" x="77.27622" y="331.867902" style="fill: #4878d0"/>
    </g>
    <g clip-path="url(#p58cbd07969)">
     <use xlink:href="#C8_0_c66e8888c2" x="86.759048" y="331.728713" style="fill: #4878d0"/>
    </g>
    <g clip-path="url(#p58cbd07969)">
     <use xlink:href="#C8_0_c66e8888c2" x="82.409633" y="332.116549" style="fill: #4878d0"/>
    </g>
    <g clip-path="url(#p58cbd07969)">
     <use xlink:href="#C8_0_c66e8888c2" x="73.723218" y="331.968085" style="fill: #4878d0"/>
    </g>
    <g clip-path="url(#p58cbd07969)">
     <use xlink:href="#C8_0_c66e8888c2" x="85.447602" y="331.627712" style="fill: #4878d0"/>
    </g>
   </g>
   <g id="PathCollection_14">
    <defs>
     <path id="C9_0_3613fa57cd" d="M 0 2.5 
C 0.663008 2.5 1.29895 2.236584 1.767767 1.767767 
C 2.236584 1.29895 2.5 0.663008 2.5 -0 
C 2.5 -0.663008 2.236584 -1.29895 1.767767 -1.767767 
C 1.29895 -2.236584 0.663008 -2.5 0 -2.5 
C -0.663008 -2.5 -1.29895 -2.236584 -1.767767 -1.767767 
C -2.236584 -1.29895 -2.5 -0.663008 -2.5 0 
C -2.5 0.663008 -2.236584 1.29895 -1.767767 1.767767 
C -1.29895 2.236584 -0.663008 2.5 0 2.5 
z
"/>
    </defs>
    <g clip-path="url(#p58cbd07969)">
     <use xlink:href="#C9_0_3613fa57cd" x="141.080607" y="294.618177" style="fill: #4878d0"/>
    </g>
    <g clip-path="url(#p58cbd07969)">
     <use xlink:href="#C9_0_3613fa57cd" x="148.249956" y="294.425196" style="fill: #4878d0"/>
    </g>
    <g clip-path="url(#p58cbd07969)">
     <use xlink:href="#C9_0_3613fa57cd" x="149.876124" y="294.38314" style="fill: #4878d0"/>
    </g>
    <g clip-path="url(#p58cbd07969)">
     <use xlink:href="#C9_0_3613fa57cd" x="149.229638" y="294.299132" style="fill: #4878d0"/>
    </g>
    <g clip-path="url(#p58cbd07969)">
     <use xlink:href="#C9_0_3613fa57cd" x="146.092651" y="294.158928" style="fill: #4878d0"/>
    </g>
    <g clip-path="url(#p58cbd07969)">
     <use xlink:href="#C9_0_3613fa57cd" x="143.146305" y="294.210048" style="fill: #4878d0"/>
    </g>
    <g clip-path="url(#p58cbd07969)">
     <use xlink:href="#C9_0_3613fa57cd" x="145.603032" y="294.192076" style="fill: #4878d0"/>
    </g>
    <g clip-path="url(#p58cbd07969)">
     <use xlink:href="#C9_0_3613fa57cd" x="140.305536" y="294.338754" style="fill: #4878d0"/>
    </g>
    <g clip-path="url(#p58cbd07969)">
     <use xlink:href="#C9_0_3613fa57cd" x="143.629081" y="294.157892" style="fill: #4878d0"/>
    </g>
    <g clip-path="url(#p58cbd07969)">
     <use xlink:href="#C9_0_3613fa57cd" x="141.669033" y="294.150331" style="fill: #4878d0"/>
    </g>
    <g clip-path="url(#p58cbd07969)">
     <use xlink:href="#C9_0_3613fa57cd" x="140.920455" y="294.278622" style="fill: #4878d0"/>
    </g>
    <g clip-path="url(#p58cbd07969)">
     <use xlink:href="#C9_0_3613fa57cd" x="149.57777" y="294.215797" style="fill: #4878d0"/>
    </g>
    <g clip-path="url(#p58cbd07969)">
     <use xlink:href="#C9_0_3613fa57cd" x="146.341717" y="294.341291" style="fill: #4878d0"/>
    </g>
    <g clip-path="url(#p58cbd07969)">
     <use xlink:href="#C9_0_3613fa57cd" x="139.989689" y="294.124952" style="fill: #4878d0"/>
    </g>
    <g clip-path="url(#p58cbd07969)">
     <use xlink:href="#C9_0_3613fa57cd" x="143.597477" y="294.568714" style="fill: #4878d0"/>
    </g>
    <g clip-path="url(#p58cbd07969)">
     <use xlink:href="#C9_0_3613fa57cd" x="151.290375" y="294.479216" style="fill: #4878d0"/>
    </g>
    <g clip-path="url(#p58cbd07969)">
     <use xlink:href="#C9_0_3613fa57cd" x="145.323513" y="294.798986" style="fill: #4878d0"/>
    </g>
    <g clip-path="url(#p58cbd07969)">
     <use xlink:href="#C9_0_3613fa57cd" x="147.460658" y="294.284112" style="fill: #4878d0"/>
    </g>
    <g clip-path="url(#p58cbd07969)">
     <use xlink:href="#C9_0_3613fa57cd" x="142.257546" y="294.364391" style="fill: #4878d0"/>
    </g>
    <g clip-path="url(#p58cbd07969)">
     <use xlink:href="#C9_0_3613fa57cd" x="140.305129" y="294.557113" style="fill: #4878d0"/>
    </g>
    <g clip-path="url(#p58cbd07969)">
     <use xlink:href="#C9_0_3613fa57cd" x="139.851426" y="294.073832" style="fill: #4878d0"/>
    </g>
    <g clip-path="url(#p58cbd07969)">
     <use xlink:href="#C9_0_3613fa57cd" x="149.15825" y="294.750508" style="fill: #4878d0"/>
    </g>
    <g clip-path="url(#p58cbd07969)">
     <use xlink:href="#C9_0_3613fa57cd" x="143.882315" y="294.233769" style="fill: #4878d0"/>
    </g>
    <g clip-path="url(#p58cbd07969)">
     <use xlink:href="#C9_0_3613fa57cd" x="148.24282" y="294.55675" style="fill: #4878d0"/>
    </g>
    <g clip-path="url(#p58cbd07969)">
     <use xlink:href="#C9_0_3613fa57cd" x="145.406555" y="294.872946" style="fill: #4878d0"/>
    </g>
    <g clip-path="url(#p58cbd07969)">
     <use xlink:href="#C9_0_3613fa57cd" x="148.068307" y="294.553902" style="fill: #4878d0"/>
    </g>
    <g clip-path="url(#p58cbd07969)">
     <use xlink:href="#C9_0_3613fa57cd" x="152.36002" y="294.539814" style="fill: #4878d0"/>
    </g>
    <g clip-path="url(#p58cbd07969)">
     <use xlink:href="#C9_0_3613fa57cd" x="151.034813" y="294.534531" style="fill: #4878d0"/>
    </g>
    <g clip-path="url(#p58cbd07969)">
     <use xlink:href="#C9_0_3613fa57cd" x="151.818238" y="294.496929" style="fill: #4878d0"/>
    </g>
    <g clip-path="url(#p58cbd07969)">
     <use xlink:href="#C9_0_3613fa57cd" x="144.674819" y="294.506615" style="fill: #4878d0"/>
    </g>
   </g>
   <g id="PathCollection_15">
    <defs>
     <path id="Ca_0_4c44c6b19b" d="M 0 2.5 
C 0.663008 2.5 1.29895 2.236584 1.767767 1.767767 
C 2.236584 1.29895 2.5 0.663008 2.5 -0 
C 2.5 -0.663008 2.236584 -1.29895 1.767767 -1.767767 
C 1.29895 -2.236584 0.663008 -2.5 0 -2.5 
C -0.663008 -2.5 -1.29895 -2.236584 -1.767767 -1.767767 
C -2.236584 -1.29895 -2.5 -0.663008 -2.5 0 
C -2.5 0.663008 -2.236584 1.29895 -1.767767 1.767767 
C -1.29895 2.236584 -0.663008 2.5 0 2.5 
z
"/>
    </defs>
    <g clip-path="url(#p58cbd07969)">
     <use xlink:href="#Ca_0_4c44c6b19b" x="209.200907" y="228.448672" style="fill: #4878d0"/>
    </g>
    <g clip-path="url(#p58cbd07969)">
     <use xlink:href="#Ca_0_4c44c6b19b" x="214.758004" y="228.289046" style="fill: #4878d0"/>
    </g>
    <g clip-path="url(#p58cbd07969)">
     <use xlink:href="#Ca_0_4c44c6b19b" x="216.714007" y="228.408274" style="fill: #4878d0"/>
    </g>
    <g clip-path="url(#p58cbd07969)">
     <use xlink:href="#Ca_0_4c44c6b19b" x="215.144453" y="228.468509" style="fill: #4878d0"/>
    </g>
    <g clip-path="url(#p58cbd07969)">
     <use xlink:href="#Ca_0_4c44c6b19b" x="206.158558" y="227.748742" style="fill: #4878d0"/>
    </g>
    <g clip-path="url(#p58cbd07969)">
     <use xlink:href="#Ca_0_4c44c6b19b" x="217.698939" y="227.632208" style="fill: #4878d0"/>
    </g>
    <g clip-path="url(#p58cbd07969)">
     <use xlink:href="#Ca_0_4c44c6b19b" x="216.327827" y="228.378803" style="fill: #4878d0"/>
    </g>
    <g clip-path="url(#p58cbd07969)">
     <use xlink:href="#Ca_0_4c44c6b19b" x="215.366617" y="228.710434" style="fill: #4878d0"/>
    </g>
    <g clip-path="url(#p58cbd07969)">
     <use xlink:href="#Ca_0_4c44c6b19b" x="211.68225" y="228.423345" style="fill: #4878d0"/>
    </g>
    <g clip-path="url(#p58cbd07969)">
     <use xlink:href="#Ca_0_4c44c6b19b" x="206.793816" y="227.889153" style="fill: #4878d0"/>
    </g>
    <g clip-path="url(#p58cbd07969)">
     <use xlink:href="#Ca_0_4c44c6b19b" x="208.107231" y="228.195094" style="fill: #4878d0"/>
    </g>
    <g clip-path="url(#p58cbd07969)">
     <use xlink:href="#Ca_0_4c44c6b19b" x="208.646266" y="229.427559" style="fill: #4878d0"/>
    </g>
    <g clip-path="url(#p58cbd07969)">
     <use xlink:href="#Ca_0_4c44c6b19b" x="214.911093" y="229.397416" style="fill: #4878d0"/>
    </g>
    <g clip-path="url(#p58cbd07969)">
     <use xlink:href="#Ca_0_4c44c6b19b" x="215.829641" y="227.83477" style="fill: #4878d0"/>
    </g>
    <g clip-path="url(#p58cbd07969)">
     <use xlink:href="#Ca_0_4c44c6b19b" x="218.380174" y="227.616048" style="fill: #4878d0"/>
    </g>
   </g>
   <g id="line2d_12"/>
   <g id="PathCollection_16">
    <path d="M 75.845086 334.807793 
L 80.845086 337.307793 
L 80.845086 332.307793 
z
" clip-path="url(#p58cbd07969)" style="fill: #d65f5f"/>
    <path d="M 74.236318 331.599215 
L 79.236318 334.099215 
L 79.236318 329.099215 
z
" clip-path="url(#p58cbd07969)" style="fill: #d65f5f"/>
    <path d="M 83.797401 330.353079 
L 88.797401 332.853079 
L 88.797401 327.853079 
z
" clip-path="url(#p58cbd07969)" style="fill: #d65f5f"/>
    <path d="M 72.524666 346.360488 
L 77.524666 348.860488 
L 77.524666 343.860488 
z
" clip-path="url(#p58cbd07969)" style="fill: #d65f5f"/>
    <path d="M 80.533979 332.232907 
L 85.533979 334.732907 
L 85.533979 329.732907 
z
" clip-path="url(#p58cbd07969)" style="fill: #d65f5f"/>
    <path d="M 84.059461 331.885698 
L 89.059461 334.385698 
L 89.059461 329.385698 
z
" clip-path="url(#p58cbd07969)" style="fill: #d65f5f"/>
    <path d="M 75.33294 332.165727 
L 80.33294 334.665727 
L 80.33294 329.665727 
z
" clip-path="url(#p58cbd07969)" style="fill: #d65f5f"/>
    <path d="M 79.982751 332.57386 
L 84.982751 335.07386 
L 84.982751 330.07386 
z
" clip-path="url(#p58cbd07969)" style="fill: #d65f5f"/>
    <path d="M 79.080743 329.748019 
L 84.080743 332.248019 
L 84.080743 327.248019 
z
" clip-path="url(#p58cbd07969)" style="fill: #d65f5f"/>
    <path d="M 72.327822 330.567929 
L 77.327822 333.067929 
L 77.327822 328.067929 
z
" clip-path="url(#p58cbd07969)" style="fill: #d65f5f"/>
    <path d="M 82.621829 330.386496 
L 87.621829 332.886496 
L 87.621829 327.886496 
z
" clip-path="url(#p58cbd07969)" style="fill: #d65f5f"/>
    <path d="M 78.571889 334.613832 
L 83.571889 337.113832 
L 83.571889 332.113832 
z
" clip-path="url(#p58cbd07969)" style="fill: #d65f5f"/>
    <path d="M 77.395402 330.203536 
L 82.395402 332.703536 
L 82.395402 327.703536 
z
" clip-path="url(#p58cbd07969)" style="fill: #d65f5f"/>
    <path d="M 73.152979 333.863729 
L 78.152979 336.363729 
L 78.152979 331.363729 
z
" clip-path="url(#p58cbd07969)" style="fill: #d65f5f"/>
   </g>
   <g id="PathCollection_17">
    <path d="M 145.694632 304.132773 
L 150.694632 306.632773 
L 150.694632 301.632773 
z
" clip-path="url(#p58cbd07969)" style="fill: #d65f5f"/>
    <path d="M 146.690823 312.447022 
L 151.690823 314.947022 
L 151.690823 309.947022 
z
" clip-path="url(#p58cbd07969)" style="fill: #d65f5f"/>
    <path d="M 141.363855 304.842109 
L 146.363855 307.342109 
L 146.363855 302.342109 
z
" clip-path="url(#p58cbd07969)" style="fill: #d65f5f"/>
    <path d="M 141.810328 313.499319 
L 146.810328 315.999319 
L 146.810328 310.999319 
z
" clip-path="url(#p58cbd07969)" style="fill: #d65f5f"/>
    <path d="M 148.709524 301.359019 
L 153.709524 303.859019 
L 153.709524 298.859019 
z
" clip-path="url(#p58cbd07969)" style="fill: #d65f5f"/>
   </g>
   <g id="PathCollection_18">
    <path d="M 213.796662 238.97261 
L 218.796662 241.47261 
L 218.796662 236.47261 
z
" clip-path="url(#p58cbd07969)" style="fill: #d65f5f"/>
    <path d="M 211.337667 237.860489 
L 216.337667 240.360489 
L 216.337667 235.360489 
z
" clip-path="url(#p58cbd07969)" style="fill: #d65f5f"/>
    <path d="M 215.328373 244.580857 
L 220.328373 247.080857 
L 220.328373 242.080857 
z
" clip-path="url(#p58cbd07969)" style="fill: #d65f5f"/>
    <path d="M 210.621212 234.07716 
L 215.621212 236.57716 
L 215.621212 231.57716 
z
" clip-path="url(#p58cbd07969)" style="fill: #d65f5f"/>
    <path d="M 204.138954 252.471574 
L 209.138954 254.971574 
L 209.138954 249.971574 
z
" clip-path="url(#p58cbd07969)" style="fill: #d65f5f"/>
   </g>
   <g id="PathCollection_19">
    <path d="M 273.26776 262.725117 
L 278.26776 265.225117 
L 278.26776 260.225117 
z
" clip-path="url(#p58cbd07969)" style="fill: #d65f5f"/>
    <path d="M 275.255463 227.479494 
L 280.255463 229.979494 
L 280.255463 224.979494 
z
" clip-path="url(#p58cbd07969)" style="fill: #d65f5f"/>
   </g>
   <g id="line2d_13"/>
   <g id="PathCollection_20">
    <path d="M 77.674629 336.383493 
L 79.795949 332.847959 
L 77.674629 329.312425 
L 75.553309 332.847959 
z
" clip-path="url(#p58cbd07969)" style="fill: #008000"/>
    <path d="M 74.818006 335.984172 
L 76.939327 332.448638 
L 74.818006 328.913104 
L 72.696686 332.448638 
z
" clip-path="url(#p58cbd07969)" style="fill: #008000"/>
    <path d="M 83.328452 335.547191 
L 85.449772 332.011657 
L 83.328452 328.476123 
L 81.207131 332.011657 
z
" clip-path="url(#p58cbd07969)" style="fill: #008000"/>
    <path d="M 86.39518 335.561246 
L 88.5165 332.025712 
L 86.39518 328.490178 
L 84.27386 332.025712 
z
" clip-path="url(#p58cbd07969)" style="fill: #008000"/>
    <path d="M 78.663994 334.846922 
L 80.785314 331.311388 
L 78.663994 327.775854 
L 76.542673 331.311388 
z
" clip-path="url(#p58cbd07969)" style="fill: #008000"/>
   </g>
   <g id="PathCollection_21">
    <path d="M 144.051163 288.507029 
L 146.172483 284.971495 
L 144.051163 281.435961 
L 141.929843 284.971495 
z
" clip-path="url(#p58cbd07969)" style="fill: #008000"/>
    <path d="M 152.247908 285.295931 
L 154.369228 281.760397 
L 152.247908 278.224863 
L 150.126587 281.760397 
z
" clip-path="url(#p58cbd07969)" style="fill: #008000"/>
    <path d="M 144.373183 286.131775 
L 146.494503 282.596241 
L 144.373183 279.060707 
L 142.251863 282.596241 
z
" clip-path="url(#p58cbd07969)" style="fill: #008000"/>
    <path d="M 143.898685 282.608774 
L 146.020006 279.07324 
L 143.898685 275.537706 
L 141.777365 279.07324 
z
" clip-path="url(#p58cbd07969)" style="fill: #008000"/>
    <path d="M 150.300452 284.788331 
L 152.421772 281.252797 
L 150.300452 277.717263 
L 148.179131 281.252797 
z
" clip-path="url(#p58cbd07969)" style="fill: #008000"/>
   </g>
   <g id="PathCollection_22">
    <path d="M 209.601114 296.299367 
L 211.722435 292.763833 
L 209.601114 289.228299 
L 207.479794 292.763833 
z
" clip-path="url(#p58cbd07969)" style="fill: #008000"/>
    <path d="M 211.920917 277.60904 
L 214.042237 274.073506 
L 211.920917 270.537972 
L 209.799597 274.073506 
z
" clip-path="url(#p58cbd07969)" style="fill: #008000"/>
    <path d="M 215.769631 194.844566 
L 217.890952 191.309032 
L 215.769631 187.773498 
L 213.648311 191.309032 
z
" clip-path="url(#p58cbd07969)" style="fill: #008000"/>
    <path d="M 215.56469 193.758687 
L 217.68601 190.223154 
L 215.56469 186.68762 
L 213.44337 190.223154 
z
" clip-path="url(#p58cbd07969)" style="fill: #008000"/>
    <path d="M 209.69512 311.215045 
L 211.81644 307.679511 
L 209.69512 304.143977 
L 207.5738 307.679511 
z
" clip-path="url(#p58cbd07969)" style="fill: #008000"/>
   </g>
   <g id="PathCollection_23">
    <path d="M 272.177138 230.037929 
L 274.298458 226.502395 
L 272.177138 222.966861 
L 270.055818 226.502395 
z
" clip-path="url(#p58cbd07969)" style="fill: #008000"/>
    <path d="M 272.600156 179.998357 
L 274.721476 176.462823 
L 272.600156 172.927289 
L 270.478836 176.462823 
z
" clip-path="url(#p58cbd07969)" style="fill: #008000"/>
    <path d="M 278.796927 45.860079 
L 280.918247 42.324545 
L 278.796927 38.789012 
L 276.675606 42.324545 
z
" clip-path="url(#p58cbd07969)" style="fill: #008000"/>
    <path d="M 275.947902 224.54613 
L 278.069223 221.010596 
L 275.947902 217.475062 
L 273.826582 221.010596 
z
" clip-path="url(#p58cbd07969)" style="fill: #008000"/>
    <path d="M 280.607898 230.045932 
L 282.729218 226.510398 
L 280.607898 222.974864 
L 278.486578 226.510398 
z
" clip-path="url(#p58cbd07969)" style="fill: #008000"/>
   </g>
   <g id="line2d_14"/>
   <g id="text_15">
    <!-- AMG2023 FOM Overall (GPU) -->
    <g style="fill: #262626" transform="translate(113.819766 20.16) scale(0.09 -0.09)">
     <defs>
      <path id="DejaVuSans-41" d="M 2188 4044 
L 1331 1722 
L 3047 1722 
L 2188 4044 
z
M 1831 4666 
L 2547 4666 
L 4325 0 
L 3669 0 
L 3244 1197 
L 1141 1197 
L 716 0 
L 50 0 
L 1831 4666 
z
" transform="scale(0.015625)"/>
      <path id="DejaVuSans-28" d="M 1984 4856 
Q 1566 4138 1362 3434 
Q 1159 2731 1159 2009 
Q 1159 1288 1364 580 
Q 1569 -128 1984 -844 
L 1484 -844 
Q 1016 -109 783 600 
Q 550 1309 550 2009 
Q 550 2706 781 3412 
Q 1013 4119 1484 4856 
L 1984 4856 
z
" transform="scale(0.015625)"/>
      <path id="DejaVuSans-29" d="M 513 4856 
L 1013 4856 
Q 1481 4119 1714 3412 
Q 1947 2706 1947 2009 
Q 1947 1309 1714 600 
Q 1481 -109 1013 -844 
L 513 -844 
Q 928 -128 1133 580 
Q 1338 1288 1338 2009 
Q 1338 2731 1133 3434 
Q 928 4138 513 4856 
z
" transform="scale(0.015625)"/>
     </defs>
     <use xlink:href="#DejaVuSans-41"/>
     <use xlink:href="#DejaVuSans-4d" x="68.408203"/>
     <use xlink:href="#DejaVuSans-47" x="154.6875"/>
     <use xlink:href="#DejaVuSans-32" x="232.177734"/>
     <use xlink:href="#DejaVuSans-30" x="295.800781"/>
     <use xlink:href="#DejaVuSans-32" x="359.423828"/>
     <use xlink:href="#DejaVuSans-33" x="423.046875"/>
     <use xlink:href="#DejaVuSans-20" x="486.669922"/>
     <use xlink:href="#DejaVuSans-46" x="518.457031"/>
     <use xlink:href="#DejaVuSans-4f" x="575.976562"/>
     <use xlink:href="#DejaVuSans-4d" x="654.6875"/>
     <use xlink:href="#DejaVuSans-20" x="740.966797"/>
     <use xlink:href="#DejaVuSans-4f" x="772.753906"/>
     <use xlink:href="#DejaVuSans-76" x="851.464844"/>
     <use xlink:href="#DejaVuSans-65" x="910.644531"/>
     <use xlink:href="#DejaVuSans-72" x="972.167969"/>
     <use xlink:href="#DejaVuSans-61" x="1013.28125"/>
     <use xlink:href="#DejaVuSans-6c" x="1074.560547"/>
     <use xlink:href="#DejaVuSans-6c" x="1102.34375"/>
     <use xlink:href="#DejaVuSans-20" x="1130.126953"/>
     <use xlink:href="#DejaVuSans-28" x="1161.914062"/>
     <use xlink:href="#DejaVuSans-47" x="1200.927734"/>
     <use xlink:href="#DejaVuSans-50" x="1278.417969"/>
     <use xlink:href="#DejaVuSans-55" x="1338.720703"/>
     <use xlink:href="#DejaVuSans-29" x="1411.914062"/>
    </g>
   </g>
   <g id="legend_1">
    <g id="patch_7">
     <path d="M 54.8825 131.835625 
L 245.699844 131.835625 
Q 247.899844 131.835625 247.899844 129.635625 
L 247.899844 33.86 
Q 247.899844 31.66 245.699844 31.66 
L 54.8825 31.66 
Q 52.6825 31.66 52.6825 33.86 
L 52.6825 129.635625 
Q 52.6825 131.835625 54.8825 131.835625 
z
" style="fill: #ffffff; opacity: 0.8; stroke: #cccccc; stroke-linejoin: miter"/>
    </g>
    <g id="line2d_15">
     <defs>
      <path id="mb1c7dde6e6" d="M 0 -2.5 
L -2.377641 -0.772542 
L -1.469463 2.022542 
L 1.469463 2.022542 
L 2.377641 -0.772542 
z
"/>
     </defs>
     <g>
      <use xlink:href="#mb1c7dde6e6" x="68.0825" y="40.568281" style="fill: #8c613c"/>
     </g>
    </g>
    <g id="text_16">
     <!-- google/gke/gpu -->
     <g style="fill: #262626" transform="translate(87.8825 44.418281) scale(0.11 -0.11)">
      <defs>
       <path id="DejaVuSans-67" d="M 2906 1791 
Q 2906 2416 2648 2759 
Q 2391 3103 1925 3103 
Q 1463 3103 1205 2759 
Q 947 2416 947 1791 
Q 947 1169 1205 825 
Q 1463 481 1925 481 
Q 2391 481 2648 825 
Q 2906 1169 2906 1791 
z
M 3481 434 
Q 3481 -459 3084 -895 
Q 2688 -1331 1869 -1331 
Q 1566 -1331 1297 -1286 
Q 1028 -1241 775 -1147 
L 775 -588 
Q 1028 -725 1275 -790 
Q 1522 -856 1778 -856 
Q 2344 -856 2625 -561 
Q 2906 -266 2906 331 
L 2906 616 
Q 2728 306 2450 153 
Q 2172 0 1784 0 
Q 1141 0 747 490 
Q 353 981 353 1791 
Q 353 2603 747 3093 
Q 1141 3584 1784 3584 
Q 2172 3584 2450 3431 
Q 2728 3278 2906 2969 
L 2906 3500 
L 3481 3500 
L 3481 434 
z
" transform="scale(0.015625)"/>
       <path id="DejaVuSans-2f" d="M 1625 4666 
L 2156 4666 
L 531 -594 
L 0 -594 
L 1625 4666 
z
" transform="scale(0.015625)"/>
       <path id="DejaVuSans-6b" d="M 581 4863 
L 1159 4863 
L 1159 1991 
L 2875 3500 
L 3609 3500 
L 1753 1863 
L 3688 0 
L 2938 0 
L 1159 1709 
L 1159 0 
L 581 0 
L 581 4863 
z
" transform="scale(0.015625)"/>
       <path id="DejaVuSans-70" d="M 1159 525 
L 1159 -1331 
L 581 -1331 
L 581 3500 
L 1159 3500 
L 1159 2969 
Q 1341 3281 1617 3432 
Q 1894 3584 2278 3584 
Q 2916 3584 3314 3078 
Q 3713 2572 3713 1747 
Q 3713 922 3314 415 
Q 2916 -91 2278 -91 
Q 1894 -91 1617 61 
Q 1341 213 1159 525 
z
M 3116 1747 
Q 3116 2381 2855 2742 
Q 2594 3103 2138 3103 
Q 1681 3103 1420 2742 
Q 1159 2381 1159 1747 
Q 1159 1113 1420 752 
Q 1681 391 2138 391 
Q 2594 391 2855 752 
Q 3116 1113 3116 1747 
z
" transform="scale(0.015625)"/>
      </defs>
      <use xlink:href="#DejaVuSans-67"/>
      <use xlink:href="#DejaVuSans-6f" x="63.476562"/>
      <use xlink:href="#DejaVuSans-6f" x="124.658203"/>
      <use xlink:href="#DejaVuSans-67" x="185.839844"/>
      <use xlink:href="#DejaVuSans-6c" x="249.316406"/>
      <use xlink:href="#DejaVuSans-65" x="277.099609"/>
      <use xlink:href="#DejaVuSans-2f" x="338.623047"/>
      <use xlink:href="#DejaVuSans-67" x="372.314453"/>
      <use xlink:href="#DejaVuSans-6b" x="435.791016"/>
      <use xlink:href="#DejaVuSans-65" x="490.076172"/>
      <use xlink:href="#DejaVuSans-2f" x="551.599609"/>
      <use xlink:href="#DejaVuSans-67" x="585.291016"/>
      <use xlink:href="#DejaVuSans-70" x="648.767578"/>
      <use xlink:href="#DejaVuSans-75" x="712.244141"/>
     </g>
    </g>
    <g id="line2d_16">
     <defs>
      <path id="m1b6d83f5e3" d="M -2.5 2.5 
L 2.5 2.5 
L 2.5 -2.5 
L -2.5 -2.5 
z
"/>
     </defs>
     <g>
      <use xlink:href="#m1b6d83f5e3" x="68.0825" y="56.714219" style="fill: #6c3baa"/>
     </g>
    </g>
    <g id="text_17">
     <!-- google/compute-engine/gpu -->
     <g style="fill: #262626" transform="translate(87.8825 60.564219) scale(0.11 -0.11)">
      <defs>
       <path id="DejaVuSans-63" d="M 3122 3366 
L 3122 2828 
Q 2878 2963 2633 3030 
Q 2388 3097 2138 3097 
Q 1578 3097 1268 2742 
Q 959 2388 959 1747 
Q 959 1106 1268 751 
Q 1578 397 2138 397 
Q 2388 397 2633 464 
Q 2878 531 3122 666 
L 3122 134 
Q 2881 22 2623 -34 
Q 2366 -91 2075 -91 
Q 1284 -91 818 406 
Q 353 903 353 1747 
Q 353 2603 823 3093 
Q 1294 3584 2113 3584 
Q 2378 3584 2631 3529 
Q 2884 3475 3122 3366 
z
" transform="scale(0.015625)"/>
       <path id="DejaVuSans-74" d="M 1172 4494 
L 1172 3500 
L 2356 3500 
L 2356 3053 
L 1172 3053 
L 1172 1153 
Q 1172 725 1289 603 
Q 1406 481 1766 481 
L 2356 481 
L 2356 0 
L 1766 0 
Q 1100 0 847 248 
Q 594 497 594 1153 
L 594 3053 
L 172 3053 
L 172 3500 
L 594 3500 
L 594 4494 
L 1172 4494 
z
" transform="scale(0.015625)"/>
       <path id="DejaVuSans-2d" d="M 313 2009 
L 1997 2009 
L 1997 1497 
L 313 1497 
L 313 2009 
z
" transform="scale(0.015625)"/>
       <path id="DejaVuSans-6e" d="M 3513 2113 
L 3513 0 
L 2938 0 
L 2938 2094 
Q 2938 2591 2744 2837 
Q 2550 3084 2163 3084 
Q 1697 3084 1428 2787 
Q 1159 2491 1159 1978 
L 1159 0 
L 581 0 
L 581 3500 
L 1159 3500 
L 1159 2956 
Q 1366 3272 1645 3428 
Q 1925 3584 2291 3584 
Q 2894 3584 3203 3211 
Q 3513 2838 3513 2113 
z
" transform="scale(0.015625)"/>
       <path id="DejaVuSans-69" d="M 603 3500 
L 1178 3500 
L 1178 0 
L 603 0 
L 603 3500 
z
M 603 4863 
L 1178 4863 
L 1178 4134 
L 603 4134 
L 603 4863 
z
" transform="scale(0.015625)"/>
      </defs>
      <use xlink:href="#DejaVuSans-67"/>
      <use xlink:href="#DejaVuSans-6f" x="63.476562"/>
      <use xlink:href="#DejaVuSans-6f" x="124.658203"/>
      <use xlink:href="#DejaVuSans-67" x="185.839844"/>
      <use xlink:href="#DejaVuSans-6c" x="249.316406"/>
      <use xlink:href="#DejaVuSans-65" x="277.099609"/>
      <use xlink:href="#DejaVuSans-2f" x="338.623047"/>
      <use xlink:href="#DejaVuSans-63" x="372.314453"/>
      <use xlink:href="#DejaVuSans-6f" x="427.294922"/>
      <use xlink:href="#DejaVuSans-6d" x="488.476562"/>
      <use xlink:href="#DejaVuSans-70" x="585.888672"/>
      <use xlink:href="#DejaVuSans-75" x="649.365234"/>
      <use xlink:href="#DejaVuSans-74" x="712.744141"/>
      <use xlink:href="#DejaVuSans-65" x="751.953125"/>
      <use xlink:href="#DejaVuSans-2d" x="813.476562"/>
      <use xlink:href="#DejaVuSans-65" x="849.560547"/>
      <use xlink:href="#DejaVuSans-6e" x="911.083984"/>
      <use xlink:href="#DejaVuSans-67" x="974.462891"/>
      <use xlink:href="#DejaVuSans-69" x="1037.939453"/>
      <use xlink:href="#DejaVuSans-6e" x="1065.722656"/>
      <use xlink:href="#DejaVuSans-65" x="1129.101562"/>
      <use xlink:href="#DejaVuSans-2f" x="1190.625"/>
      <use xlink:href="#DejaVuSans-67" x="1224.316406"/>
      <use xlink:href="#DejaVuSans-70" x="1287.792969"/>
      <use xlink:href="#DejaVuSans-75" x="1351.269531"/>
     </g>
    </g>
    <g id="line2d_17">
     <defs>
      <path id="m0ffbca0f77" d="M -0.833333 2.5 
L 0.833333 2.5 
L 0.833333 0.833333 
L 2.5 0.833333 
L 2.5 -0.833333 
L 0.833333 -0.833333 
L 0.833333 -2.5 
L -0.833333 -2.5 
L -0.833333 -0.833333 
L -2.5 -0.833333 
L -2.5 0.833333 
L -0.833333 0.833333 
z
"/>
     </defs>
     <g>
      <use xlink:href="#m0ffbca0f77" x="68.0825" y="72.860156" style="fill: #797979"/>
     </g>
    </g>
    <g id="text_18">
     <!-- on-premises/b/gpu -->
     <g style="fill: #262626" transform="translate(87.8825 76.710156) scale(0.11 -0.11)">
      <defs>
       <path id="DejaVuSans-73" d="M 2834 3397 
L 2834 2853 
Q 2591 2978 2328 3040 
Q 2066 3103 1784 3103 
Q 1356 3103 1142 2972 
Q 928 2841 928 2578 
Q 928 2378 1081 2264 
Q 1234 2150 1697 2047 
L 1894 2003 
Q 2506 1872 2764 1633 
Q 3022 1394 3022 966 
Q 3022 478 2636 193 
Q 2250 -91 1575 -91 
Q 1294 -91 989 -36 
Q 684 19 347 128 
L 347 722 
Q 666 556 975 473 
Q 1284 391 1588 391 
Q 1994 391 2212 530 
Q 2431 669 2431 922 
Q 2431 1156 2273 1281 
Q 2116 1406 1581 1522 
L 1381 1569 
Q 847 1681 609 1914 
Q 372 2147 372 2553 
Q 372 3047 722 3315 
Q 1072 3584 1716 3584 
Q 2034 3584 2315 3537 
Q 2597 3491 2834 3397 
z
" transform="scale(0.015625)"/>
      </defs>
      <use xlink:href="#DejaVuSans-6f"/>
      <use xlink:href="#DejaVuSans-6e" x="61.181641"/>
      <use xlink:href="#DejaVuSans-2d" x="124.560547"/>
      <use xlink:href="#DejaVuSans-70" x="160.644531"/>
      <use xlink:href="#DejaVuSans-72" x="224.121094"/>
      <use xlink:href="#DejaVuSans-65" x="262.984375"/>
      <use xlink:href="#DejaVuSans-6d" x="324.507812"/>
      <use xlink:href="#DejaVuSans-69" x="421.919922"/>
      <use xlink:href="#DejaVuSans-73" x="449.703125"/>
      <use xlink:href="#DejaVuSans-65" x="501.802734"/>
      <use xlink:href="#DejaVuSans-73" x="563.326172"/>
      <use xlink:href="#DejaVuSans-2f" x="615.425781"/>
      <use xlink:href="#DejaVuSans-62" x="649.117188"/>
      <use xlink:href="#DejaVuSans-2f" x="712.59375"/>
      <use xlink:href="#DejaVuSans-67" x="746.285156"/>
      <use xlink:href="#DejaVuSans-70" x="809.761719"/>
      <use xlink:href="#DejaVuSans-75" x="873.238281"/>
     </g>
    </g>
    <g id="line2d_18">
     <defs>
      <path id="mbe743861bd" d="M 0 2.5 
C 0.663008 2.5 1.29895 2.236584 1.767767 1.767767 
C 2.236584 1.29895 2.5 0.663008 2.5 0 
C 2.5 -0.663008 2.236584 -1.29895 1.767767 -1.767767 
C 1.29895 -2.236584 0.663008 -2.5 0 -2.5 
C -0.663008 -2.5 -1.29895 -2.236584 -1.767767 -1.767767 
C -2.236584 -1.29895 -2.5 -0.663008 -2.5 0 
C -2.5 0.663008 -2.236584 1.29895 -1.767767 1.767767 
C -1.29895 2.236584 -0.663008 2.5 0 2.5 
z
"/>
     </defs>
     <g>
      <use xlink:href="#mbe743861bd" x="68.0825" y="89.006094" style="fill: #4878d0"/>
     </g>
    </g>
    <g id="text_19">
     <!-- aws/eks/gpu -->
     <g style="fill: #262626" transform="translate(87.8825 92.856094) scale(0.11 -0.11)">
      <defs>
       <path id="DejaVuSans-77" d="M 269 3500 
L 844 3500 
L 1563 769 
L 2278 3500 
L 2956 3500 
L 3675 769 
L 4391 3500 
L 4966 3500 
L 4050 0 
L 3372 0 
L 2619 2869 
L 1863 0 
L 1184 0 
L 269 3500 
z
" transform="scale(0.015625)"/>
      </defs>
      <use xlink:href="#DejaVuSans-61"/>
      <use xlink:href="#DejaVuSans-77" x="61.279297"/>
      <use xlink:href="#DejaVuSans-73" x="143.066406"/>
      <use xlink:href="#DejaVuSans-2f" x="195.166016"/>
      <use xlink:href="#DejaVuSans-65" x="228.857422"/>
      <use xlink:href="#DejaVuSans-6b" x="290.380859"/>
      <use xlink:href="#DejaVuSans-73" x="348.291016"/>
      <use xlink:href="#DejaVuSans-2f" x="400.390625"/>
      <use xlink:href="#DejaVuSans-67" x="434.082031"/>
      <use xlink:href="#DejaVuSans-70" x="497.558594"/>
      <use xlink:href="#DejaVuSans-75" x="561.035156"/>
     </g>
    </g>
    <g id="line2d_19">
     <defs>
      <path id="meef6b352ee" d="M -2.5 -0 
L 2.5 2.5 
L 2.5 -2.5 
z
"/>
     </defs>
     <g>
      <use xlink:href="#meef6b352ee" x="68.0825" y="105.152031" style="fill: #d65f5f"/>
     </g>
    </g>
    <g id="text_20">
     <!-- azure/cyclecloud/gpu -->
     <g style="fill: #262626" transform="translate(87.8825 109.002031) scale(0.11 -0.11)">
      <defs>
       <path id="DejaVuSans-7a" d="M 353 3500 
L 3084 3500 
L 3084 2975 
L 922 459 
L 3084 459 
L 3084 0 
L 275 0 
L 275 525 
L 2438 3041 
L 353 3041 
L 353 3500 
z
" transform="scale(0.015625)"/>
       <path id="DejaVuSans-79" d="M 2059 -325 
Q 1816 -950 1584 -1140 
Q 1353 -1331 966 -1331 
L 506 -1331 
L 506 -850 
L 844 -850 
Q 1081 -850 1212 -737 
Q 1344 -625 1503 -206 
L 1606 56 
L 191 3500 
L 800 3500 
L 1894 763 
L 2988 3500 
L 3597 3500 
L 2059 -325 
z
" transform="scale(0.015625)"/>
       <path id="DejaVuSans-64" d="M 2906 2969 
L 2906 4863 
L 3481 4863 
L 3481 0 
L 2906 0 
L 2906 525 
Q 2725 213 2448 61 
Q 2172 -91 1784 -91 
Q 1150 -91 751 415 
Q 353 922 353 1747 
Q 353 2572 751 3078 
Q 1150 3584 1784 3584 
Q 2172 3584 2448 3432 
Q 2725 3281 2906 2969 
z
M 947 1747 
Q 947 1113 1208 752 
Q 1469 391 1925 391 
Q 2381 391 2643 752 
Q 2906 1113 2906 1747 
Q 2906 2381 2643 2742 
Q 2381 3103 1925 3103 
Q 1469 3103 1208 2742 
Q 947 2381 947 1747 
z
" transform="scale(0.015625)"/>
      </defs>
      <use xlink:href="#DejaVuSans-61"/>
      <use xlink:href="#DejaVuSans-7a" x="61.279297"/>
      <use xlink:href="#DejaVuSans-75" x="113.769531"/>
      <use xlink:href="#DejaVuSans-72" x="177.148438"/>
      <use xlink:href="#DejaVuSans-65" x="216.011719"/>
      <use xlink:href="#DejaVuSans-2f" x="277.535156"/>
      <use xlink:href="#DejaVuSans-63" x="311.226562"/>
      <use xlink:href="#DejaVuSans-79" x="366.207031"/>
      <use xlink:href="#DejaVuSans-63" x="425.386719"/>
      <use xlink:href="#DejaVuSans-6c" x="480.367188"/>
      <use xlink:href="#DejaVuSans-65" x="508.150391"/>
      <use xlink:href="#DejaVuSans-63" x="569.673828"/>
      <use xlink:href="#DejaVuSans-6c" x="624.654297"/>
      <use xlink:href="#DejaVuSans-6f" x="652.4375"/>
      <use xlink:href="#DejaVuSans-75" x="713.619141"/>
      <use xlink:href="#DejaVuSans-64" x="776.998047"/>
      <use xlink:href="#DejaVuSans-2f" x="840.474609"/>
      <use xlink:href="#DejaVuSans-67" x="874.166016"/>
      <use xlink:href="#DejaVuSans-70" x="937.642578"/>
      <use xlink:href="#DejaVuSans-75" x="1001.119141"/>
     </g>
    </g>
    <g id="line2d_20">
     <defs>
      <path id="me65bd4d696" d="M -0 3.535534 
L 2.12132 0 
L -0 -3.535534 
L -2.12132 -0 
z
"/>
     </defs>
     <g>
      <use xlink:href="#me65bd4d696" x="68.0825" y="121.297969" style="fill: #008000"/>
     </g>
    </g>
    <g id="text_21">
     <!-- azure/aks/gpu -->
     <g style="fill: #262626" transform="translate(87.8825 125.147969) scale(0.11 -0.11)">
      <use xlink:href="#DejaVuSans-61"/>
      <use xlink:href="#DejaVuSans-7a" x="61.279297"/>
      <use xlink:href="#DejaVuSans-75" x="113.769531"/>
      <use xlink:href="#DejaVuSans-72" x="177.148438"/>
      <use xlink:href="#DejaVuSans-65" x="216.011719"/>
      <use xlink:href="#DejaVuSans-2f" x="277.535156"/>
      <use xlink:href="#DejaVuSans-61" x="311.226562"/>
      <use xlink:href="#DejaVuSans-6b" x="372.505859"/>
      <use xlink:href="#DejaVuSans-73" x="430.416016"/>
      <use xlink:href="#DejaVuSans-2f" x="482.515625"/>
      <use xlink:href="#DejaVuSans-67" x="516.207031"/>
      <use xlink:href="#DejaVuSans-70" x="579.683594"/>
      <use xlink:href="#DejaVuSans-75" x="643.160156"/>
     </g>
    </g>
   </g>
  </g>
 </g>
 <defs>
  <clipPath id="p58cbd07969">
   <rect x="47.1825" y="26.16" width="263.8575" height="355.62"/>
  </clipPath>
 </defs>
</svg>
