<?xml version="1.0" encoding="utf-8" standalone="no"?>
<!DOCTYPE svg PUBLIC "-//W3C//DTD SVG 1.1//EN"
  "http://www.w3.org/Graphics/SVG/1.1/DTD/svg11.dtd">
<svg xmlns:xlink="http://www.w3.org/1999/xlink" width="324pt" height="432pt" viewBox="0 0 324 432" xmlns="http://www.w3.org/2000/svg" version="1.1">
 <metadata>
  <rdf:RDF xmlns:dc="http://purl.org/dc/elements/1.1/" xmlns:cc="http://creativecommons.org/ns#" xmlns:rdf="http://www.w3.org/1999/02/22-rdf-syntax-ns#">
   <cc:Work>
    <dc:type rdf:resource="http://purl.org/dc/dcmitype/StillImage"/>
    <dc:date>2025-02-04T20:10:21.493667</dc:date>
    <dc:format>image/svg+xml</dc:format>
    <dc:creator>
     <cc:Agent>
      <dc:title>Matplotlib v3.8.4, https://matplotlib.org/</dc:title>
     </cc:Agent>
    </dc:creator>
   </cc:Work>
  </rdf:RDF>
 </metadata>
 <defs>
  <style type="text/css">*{stroke-linejoin: round; stroke-linecap: butt}</style>
 </defs>
 <g id="figure_1">
  <g id="patch_1">
   <path d="M 0 432 
L 324 432 
L 324 0 
L 0 0 
z
" style="fill: #ffffff"/>
  </g>
  <g id="axes_1">
   <g id="patch_2">
    <path d="M 47.1825 381.78 
L 311.04 381.78 
L 311.04 27.264 
L 47.1825 27.264 
z
" style="fill: #ffffff"/>
   </g>
   <g id="matplotlib.axis_1">
    <g id="xtick_1">
     <g id="text_1">
      <!-- 32 -->
      <g style="fill: #262626" transform="translate(73.165937 399.638281) scale(0.11 -0.11)">
       <defs>
        <path id="DejaVuSans-33" d="M 2597 2516 
Q 3050 2419 3304 2112 
Q 3559 1806 3559 1356 
Q 3559 666 3084 287 
Q 2609 -91 1734 -91 
Q 1441 -91 1130 -33 
Q 819 25 488 141 
L 488 750 
Q 750 597 1062 519 
Q 1375 441 1716 441 
Q 2309 441 2620 675 
Q 2931 909 2931 1356 
Q 2931 1769 2642 2001 
Q 2353 2234 1838 2234 
L 1294 2234 
L 1294 2753 
L 1863 2753 
Q 2328 2753 2575 2939 
Q 2822 3125 2822 3475 
Q 2822 3834 2567 4026 
Q 2313 4219 1838 4219 
Q 1578 4219 1281 4162 
Q 984 4106 628 3988 
L 628 4550 
Q 988 4650 1302 4700 
Q 1616 4750 1894 4750 
Q 2613 4750 3031 4423 
Q 3450 4097 3450 3541 
Q 3450 3153 3228 2886 
Q 3006 2619 2597 2516 
z
" transform="scale(0.015625)"/>
        <path id="DejaVuSans-32" d="M 1228 531 
L 3431 531 
L 3431 0 
L 469 0 
L 469 531 
Q 828 903 1448 1529 
Q 2069 2156 2228 2338 
Q 2531 2678 2651 2914 
Q 2772 3150 2772 3378 
Q 2772 3750 2511 3984 
Q 2250 4219 1831 4219 
Q 1534 4219 1204 4116 
Q 875 4013 500 3803 
L 500 4441 
Q 881 4594 1212 4672 
Q 1544 4750 1819 4750 
Q 2544 4750 2975 4387 
Q 3406 4025 3406 3419 
Q 3406 3131 3298 2873 
Q 3191 2616 2906 2266 
Q 2828 2175 2409 1742 
Q 1991 1309 1228 531 
z
" transform="scale(0.015625)"/>
       </defs>
       <use xlink:href="#DejaVuSans-33"/>
       <use xlink:href="#DejaVuSans-32" x="63.623047"/>
      </g>
     </g>
    </g>
    <g id="xtick_2">
     <g id="text_2">
      <!-- 64 -->
      <g style="fill: #262626" transform="translate(139.130312 399.638281) scale(0.11 -0.11)">
       <defs>
        <path id="DejaVuSans-36" d="M 2113 2584 
Q 1688 2584 1439 2293 
Q 1191 2003 1191 1497 
Q 1191 994 1439 701 
Q 1688 409 2113 409 
Q 2538 409 2786 701 
Q 3034 994 3034 1497 
Q 3034 2003 2786 2293 
Q 2538 2584 2113 2584 
z
M 3366 4563 
L 3366 3988 
Q 3128 4100 2886 4159 
Q 2644 4219 2406 4219 
Q 1781 4219 1451 3797 
Q 1122 3375 1075 2522 
Q 1259 2794 1537 2939 
Q 1816 3084 2150 3084 
Q 2853 3084 3261 2657 
Q 3669 2231 3669 1497 
Q 3669 778 3244 343 
Q 2819 -91 2113 -91 
Q 1303 -91 875 529 
Q 447 1150 447 2328 
Q 447 3434 972 4092 
Q 1497 4750 2381 4750 
Q 2619 4750 2861 4703 
Q 3103 4656 3366 4563 
z
" transform="scale(0.015625)"/>
        <path id="DejaVuSans-34" d="M 2419 4116 
L 825 1625 
L 2419 1625 
L 2419 4116 
z
M 2253 4666 
L 3047 4666 
L 3047 1625 
L 3713 1625 
L 3713 1100 
L 3047 1100 
L 3047 0 
L 2419 0 
L 2419 1100 
L 313 1100 
L 313 1709 
L 2253 4666 
z
" transform="scale(0.015625)"/>
       </defs>
       <use xlink:href="#DejaVuSans-36"/>
       <use xlink:href="#DejaVuSans-34" x="63.623047"/>
      </g>
     </g>
    </g>
    <g id="xtick_3">
     <g id="text_3">
      <!-- 128 -->
      <g style="fill: #262626" transform="translate(201.595313 399.638281) scale(0.11 -0.11)">
       <defs>
        <path id="DejaVuSans-31" d="M 794 531 
L 1825 531 
L 1825 4091 
L 703 3866 
L 703 4441 
L 1819 4666 
L 2450 4666 
L 2450 531 
L 3481 531 
L 3481 0 
L 794 0 
L 794 531 
z
" transform="scale(0.015625)"/>
        <path id="DejaVuSans-38" d="M 2034 2216 
Q 1584 2216 1326 1975 
Q 1069 1734 1069 1313 
Q 1069 891 1326 650 
Q 1584 409 2034 409 
Q 2484 409 2743 651 
Q 3003 894 3003 1313 
Q 3003 1734 2745 1975 
Q 2488 2216 2034 2216 
z
M 1403 2484 
Q 997 2584 770 2862 
Q 544 3141 544 3541 
Q 544 4100 942 4425 
Q 1341 4750 2034 4750 
Q 2731 4750 3128 4425 
Q 3525 4100 3525 3541 
Q 3525 3141 3298 2862 
Q 3072 2584 2669 2484 
Q 3125 2378 3379 2068 
Q 3634 1759 3634 1313 
Q 3634 634 3220 271 
Q 2806 -91 2034 -91 
Q 1263 -91 848 271 
Q 434 634 434 1313 
Q 434 1759 690 2068 
Q 947 2378 1403 2484 
z
M 1172 3481 
Q 1172 3119 1398 2916 
Q 1625 2713 2034 2713 
Q 2441 2713 2670 2916 
Q 2900 3119 2900 3481 
Q 2900 3844 2670 4047 
Q 2441 4250 2034 4250 
Q 1625 4250 1398 4047 
Q 1172 3844 1172 3481 
z
" transform="scale(0.015625)"/>
       </defs>
       <use xlink:href="#DejaVuSans-31"/>
       <use xlink:href="#DejaVuSans-32" x="63.623047"/>
       <use xlink:href="#DejaVuSans-38" x="127.246094"/>
      </g>
     </g>
    </g>
    <g id="xtick_4">
     <g id="text_4">
      <!-- 256 -->
      <g style="fill: #262626" transform="translate(267.559687 399.638281) scale(0.11 -0.11)">
       <defs>
        <path id="DejaVuSans-35" d="M 691 4666 
L 3169 4666 
L 3169 4134 
L 1269 4134 
L 1269 2991 
Q 1406 3038 1543 3061 
Q 1681 3084 1819 3084 
Q 2600 3084 3056 2656 
Q 3513 2228 3513 1497 
Q 3513 744 3044 326 
Q 2575 -91 1722 -91 
Q 1428 -91 1123 -41 
Q 819 9 494 109 
L 494 744 
Q 775 591 1075 516 
Q 1375 441 1709 441 
Q 2250 441 2565 725 
Q 2881 1009 2881 1497 
Q 2881 1984 2565 2268 
Q 2250 2553 1709 2553 
Q 1456 2553 1204 2497 
Q 953 2441 691 2322 
L 691 4666 
z
" transform="scale(0.015625)"/>
       </defs>
       <use xlink:href="#DejaVuSans-32"/>
       <use xlink:href="#DejaVuSans-35" x="63.623047"/>
       <use xlink:href="#DejaVuSans-36" x="127.246094"/>
      </g>
     </g>
    </g>
    <g id="text_5">
     <!-- Number of GPU -->
     <g style="fill: #262626" transform="translate(128.889609 415.803906) scale(0.13 -0.13)">
      <defs>
       <path id="DejaVuSans-4e" d="M 628 4666 
L 1478 4666 
L 3547 763 
L 3547 4666 
L 4159 4666 
L 4159 0 
L 3309 0 
L 1241 3903 
L 1241 0 
L 628 0 
L 628 4666 
z
" transform="scale(0.015625)"/>
       <path id="DejaVuSans-75" d="M 544 1381 
L 544 3500 
L 1119 3500 
L 1119 1403 
Q 1119 906 1312 657 
Q 1506 409 1894 409 
Q 2359 409 2629 706 
Q 2900 1003 2900 1516 
L 2900 3500 
L 3475 3500 
L 3475 0 
L 2900 0 
L 2900 538 
Q 2691 219 2414 64 
Q 2138 -91 1772 -91 
Q 1169 -91 856 284 
Q 544 659 544 1381 
z
M 1991 3584 
L 1991 3584 
z
" transform="scale(0.015625)"/>
       <path id="DejaVuSans-6d" d="M 3328 2828 
Q 3544 3216 3844 3400 
Q 4144 3584 4550 3584 
Q 5097 3584 5394 3201 
Q 5691 2819 5691 2113 
L 5691 0 
L 5113 0 
L 5113 2094 
Q 5113 2597 4934 2840 
Q 4756 3084 4391 3084 
Q 3944 3084 3684 2787 
Q 3425 2491 3425 1978 
L 3425 0 
L 2847 0 
L 2847 2094 
Q 2847 2600 2669 2842 
Q 2491 3084 2119 3084 
Q 1678 3084 1418 2786 
Q 1159 2488 1159 1978 
L 1159 0 
L 581 0 
L 581 3500 
L 1159 3500 
L 1159 2956 
Q 1356 3278 1631 3431 
Q 1906 3584 2284 3584 
Q 2666 3584 2933 3390 
Q 3200 3197 3328 2828 
z
" transform="scale(0.015625)"/>
       <path id="DejaVuSans-62" d="M 3116 1747 
Q 3116 2381 2855 2742 
Q 2594 3103 2138 3103 
Q 1681 3103 1420 2742 
Q 1159 2381 1159 1747 
Q 1159 1113 1420 752 
Q 1681 391 2138 391 
Q 2594 391 2855 752 
Q 3116 1113 3116 1747 
z
M 1159 2969 
Q 1341 3281 1617 3432 
Q 1894 3584 2278 3584 
Q 2916 3584 3314 3078 
Q 3713 2572 3713 1747 
Q 3713 922 3314 415 
Q 2916 -91 2278 -91 
Q 1894 -91 1617 61 
Q 1341 213 1159 525 
L 1159 0 
L 581 0 
L 581 4863 
L 1159 4863 
L 1159 2969 
z
" transform="scale(0.015625)"/>
       <path id="DejaVuSans-65" d="M 3597 1894 
L 3597 1613 
L 953 1613 
Q 991 1019 1311 708 
Q 1631 397 2203 397 
Q 2534 397 2845 478 
Q 3156 559 3463 722 
L 3463 178 
Q 3153 47 2828 -22 
Q 2503 -91 2169 -91 
Q 1331 -91 842 396 
Q 353 884 353 1716 
Q 353 2575 817 3079 
Q 1281 3584 2069 3584 
Q 2775 3584 3186 3129 
Q 3597 2675 3597 1894 
z
M 3022 2063 
Q 3016 2534 2758 2815 
Q 2500 3097 2075 3097 
Q 1594 3097 1305 2825 
Q 1016 2553 972 2059 
L 3022 2063 
z
" transform="scale(0.015625)"/>
       <path id="DejaVuSans-72" d="M 2631 2963 
Q 2534 3019 2420 3045 
Q 2306 3072 2169 3072 
Q 1681 3072 1420 2755 
Q 1159 2438 1159 1844 
L 1159 0 
L 581 0 
L 581 3500 
L 1159 3500 
L 1159 2956 
Q 1341 3275 1631 3429 
Q 1922 3584 2338 3584 
Q 2397 3584 2469 3576 
Q 2541 3569 2628 3553 
L 2631 2963 
z
" transform="scale(0.015625)"/>
       <path id="DejaVuSans-20" transform="scale(0.015625)"/>
       <path id="DejaVuSans-6f" d="M 1959 3097 
Q 1497 3097 1228 2736 
Q 959 2375 959 1747 
Q 959 1119 1226 758 
Q 1494 397 1959 397 
Q 2419 397 2687 759 
Q 2956 1122 2956 1747 
Q 2956 2369 2687 2733 
Q 2419 3097 1959 3097 
z
M 1959 3584 
Q 2709 3584 3137 3096 
Q 3566 2609 3566 1747 
Q 3566 888 3137 398 
Q 2709 -91 1959 -91 
Q 1206 -91 779 398 
Q 353 888 353 1747 
Q 353 2609 779 3096 
Q 1206 3584 1959 3584 
z
" transform="scale(0.015625)"/>
       <path id="DejaVuSans-66" d="M 2375 4863 
L 2375 4384 
L 1825 4384 
Q 1516 4384 1395 4259 
Q 1275 4134 1275 3809 
L 1275 3500 
L 2222 3500 
L 2222 3053 
L 1275 3053 
L 1275 0 
L 697 0 
L 697 3053 
L 147 3053 
L 147 3500 
L 697 3500 
L 697 3744 
Q 697 4328 969 4595 
Q 1241 4863 1831 4863 
L 2375 4863 
z
" transform="scale(0.015625)"/>
       <path id="DejaVuSans-47" d="M 3809 666 
L 3809 1919 
L 2778 1919 
L 2778 2438 
L 4434 2438 
L 4434 434 
Q 4069 175 3628 42 
Q 3188 -91 2688 -91 
Q 1594 -91 976 548 
Q 359 1188 359 2328 
Q 359 3472 976 4111 
Q 1594 4750 2688 4750 
Q 3144 4750 3555 4637 
Q 3966 4525 4313 4306 
L 4313 3634 
Q 3963 3931 3569 4081 
Q 3175 4231 2741 4231 
Q 1884 4231 1454 3753 
Q 1025 3275 1025 2328 
Q 1025 1384 1454 906 
Q 1884 428 2741 428 
Q 3075 428 3337 486 
Q 3600 544 3809 666 
z
" transform="scale(0.015625)"/>
       <path id="DejaVuSans-50" d="M 1259 4147 
L 1259 2394 
L 2053 2394 
Q 2494 2394 2734 2622 
Q 2975 2850 2975 3272 
Q 2975 3691 2734 3919 
Q 2494 4147 2053 4147 
L 1259 4147 
z
M 628 4666 
L 2053 4666 
Q 2838 4666 3239 4311 
Q 3641 3956 3641 3272 
Q 3641 2581 3239 2228 
Q 2838 1875 2053 1875 
L 1259 1875 
L 1259 0 
L 628 0 
L 628 4666 
z
" transform="scale(0.015625)"/>
       <path id="DejaVuSans-55" d="M 556 4666 
L 1191 4666 
L 1191 1831 
Q 1191 1081 1462 751 
Q 1734 422 2344 422 
Q 2950 422 3222 751 
Q 3494 1081 3494 1831 
L 3494 4666 
L 4128 4666 
L 4128 1753 
Q 4128 841 3676 375 
Q 3225 -91 2344 -91 
Q 1459 -91 1007 375 
Q 556 841 556 1753 
L 556 4666 
z
" transform="scale(0.015625)"/>
      </defs>
      <use xlink:href="#DejaVuSans-4e"/>
      <use xlink:href="#DejaVuSans-75" x="74.804688"/>
      <use xlink:href="#DejaVuSans-6d" x="138.183594"/>
      <use xlink:href="#DejaVuSans-62" x="235.595703"/>
      <use xlink:href="#DejaVuSans-65" x="299.072266"/>
      <use xlink:href="#DejaVuSans-72" x="360.595703"/>
      <use xlink:href="#DejaVuSans-20" x="401.708984"/>
      <use xlink:href="#DejaVuSans-6f" x="433.496094"/>
      <use xlink:href="#DejaVuSans-66" x="494.677734"/>
      <use xlink:href="#DejaVuSans-20" x="529.882812"/>
      <use xlink:href="#DejaVuSans-47" x="561.669922"/>
      <use xlink:href="#DejaVuSans-50" x="639.160156"/>
      <use xlink:href="#DejaVuSans-55" x="699.462891"/>
     </g>
    </g>
   </g>
   <g id="matplotlib.axis_2">
    <g id="ytick_1">
     <g id="line2d_1">
      <path d="M 47.1825 368.538049 
L 311.04 368.538049 
" clip-path="url(#pd85e1639b3)" style="fill: none; stroke: #cccccc; stroke-linecap: round"/>
     </g>
     <g id="text_6">
      <!-- $\mathdefault{0}$ -->
      <g style="fill: #262626" transform="translate(30.6425 372.71719) scale(0.11 -0.11)">
       <defs>
        <path id="DejaVuSans-30" d="M 2034 4250 
Q 1547 4250 1301 3770 
Q 1056 3291 1056 2328 
Q 1056 1369 1301 889 
Q 1547 409 2034 409 
Q 2525 409 2770 889 
Q 3016 1369 3016 2328 
Q 3016 3291 2770 3770 
Q 2525 4250 2034 4250 
z
M 2034 4750 
Q 2819 4750 3233 4129 
Q 3647 3509 3647 2328 
Q 3647 1150 3233 529 
Q 2819 -91 2034 -91 
Q 1250 -91 836 529 
Q 422 1150 422 2328 
Q 422 3509 836 4129 
Q 1250 4750 2034 4750 
z
" transform="scale(0.015625)"/>
       </defs>
       <use xlink:href="#DejaVuSans-30" transform="translate(0 0.78125)"/>
      </g>
     </g>
    </g>
    <g id="ytick_2">
     <g id="line2d_2">
      <path d="M 47.1825 303.450866 
L 311.04 303.450866 
" clip-path="url(#pd85e1639b3)" style="fill: none; stroke: #cccccc; stroke-linecap: round"/>
     </g>
     <g id="text_7">
      <!-- $\mathdefault{1}$ -->
      <g style="fill: #262626" transform="translate(30.6425 307.630007) scale(0.11 -0.11)">
       <use xlink:href="#DejaVuSans-31" transform="translate(0 0.09375)"/>
      </g>
     </g>
    </g>
    <g id="ytick_3">
     <g id="line2d_3">
      <path d="M 47.1825 238.363683 
L 311.04 238.363683 
" clip-path="url(#pd85e1639b3)" style="fill: none; stroke: #cccccc; stroke-linecap: round"/>
     </g>
     <g id="text_8">
      <!-- $\mathdefault{2}$ -->
      <g style="fill: #262626" transform="translate(30.6425 242.542823) scale(0.11 -0.11)">
       <use xlink:href="#DejaVuSans-32" transform="translate(0 0.78125)"/>
      </g>
     </g>
    </g>
    <g id="ytick_4">
     <g id="line2d_4">
      <path d="M 47.1825 173.2765 
L 311.04 173.2765 
" clip-path="url(#pd85e1639b3)" style="fill: none; stroke: #cccccc; stroke-linecap: round"/>
     </g>
     <g id="text_9">
      <!-- $\mathdefault{3}$ -->
      <g style="fill: #262626" transform="translate(30.6425 177.45564) scale(0.11 -0.11)">
       <use xlink:href="#DejaVuSans-33" transform="translate(0 0.78125)"/>
      </g>
     </g>
    </g>
    <g id="ytick_5">
     <g id="line2d_5">
      <path d="M 47.1825 108.189317 
L 311.04 108.189317 
" clip-path="url(#pd85e1639b3)" style="fill: none; stroke: #cccccc; stroke-linecap: round"/>
     </g>
     <g id="text_10">
      <!-- $\mathdefault{4}$ -->
      <g style="fill: #262626" transform="translate(30.6425 112.368457) scale(0.11 -0.11)">
       <use xlink:href="#DejaVuSans-34" transform="translate(0 0.09375)"/>
      </g>
     </g>
    </g>
    <g id="ytick_6">
     <g id="line2d_6">
      <path d="M 47.1825 43.102134 
L 311.04 43.102134 
" clip-path="url(#pd85e1639b3)" style="fill: none; stroke: #cccccc; stroke-linecap: round"/>
     </g>
     <g id="text_11">
      <!-- $\mathdefault{5}$ -->
      <g style="fill: #262626" transform="translate(30.6425 47.281274) scale(0.11 -0.11)">
       <use xlink:href="#DejaVuSans-35" transform="translate(0 0.09375)"/>
      </g>
     </g>
    </g>
    <g id="text_12">
     <!-- FOM Overall -->
     <g style="fill: #262626" transform="translate(23.938906 244.281688) rotate(-90) scale(0.13 -0.13)">
      <defs>
       <path id="DejaVuSans-46" d="M 628 4666 
L 3309 4666 
L 3309 4134 
L 1259 4134 
L 1259 2759 
L 3109 2759 
L 3109 2228 
L 1259 2228 
L 1259 0 
L 628 0 
L 628 4666 
z
" transform="scale(0.015625)"/>
       <path id="DejaVuSans-4f" d="M 2522 4238 
Q 1834 4238 1429 3725 
Q 1025 3213 1025 2328 
Q 1025 1447 1429 934 
Q 1834 422 2522 422 
Q 3209 422 3611 934 
Q 4013 1447 4013 2328 
Q 4013 3213 3611 3725 
Q 3209 4238 2522 4238 
z
M 2522 4750 
Q 3503 4750 4090 4092 
Q 4678 3434 4678 2328 
Q 4678 1225 4090 567 
Q 3503 -91 2522 -91 
Q 1538 -91 948 565 
Q 359 1222 359 2328 
Q 359 3434 948 4092 
Q 1538 4750 2522 4750 
z
" transform="scale(0.015625)"/>
       <path id="DejaVuSans-4d" d="M 628 4666 
L 1569 4666 
L 2759 1491 
L 3956 4666 
L 4897 4666 
L 4897 0 
L 4281 0 
L 4281 4097 
L 3078 897 
L 2444 897 
L 1241 4097 
L 1241 0 
L 628 0 
L 628 4666 
z
" transform="scale(0.015625)"/>
       <path id="DejaVuSans-76" d="M 191 3500 
L 800 3500 
L 1894 563 
L 2988 3500 
L 3597 3500 
L 2284 0 
L 1503 0 
L 191 3500 
z
" transform="scale(0.015625)"/>
       <path id="DejaVuSans-61" d="M 2194 1759 
Q 1497 1759 1228 1600 
Q 959 1441 959 1056 
Q 959 750 1161 570 
Q 1363 391 1709 391 
Q 2188 391 2477 730 
Q 2766 1069 2766 1631 
L 2766 1759 
L 2194 1759 
z
M 3341 1997 
L 3341 0 
L 2766 0 
L 2766 531 
Q 2569 213 2275 61 
Q 1981 -91 1556 -91 
Q 1019 -91 701 211 
Q 384 513 384 1019 
Q 384 1609 779 1909 
Q 1175 2209 1959 2209 
L 2766 2209 
L 2766 2266 
Q 2766 2663 2505 2880 
Q 2244 3097 1772 3097 
Q 1472 3097 1187 3025 
Q 903 2953 641 2809 
L 641 3341 
Q 956 3463 1253 3523 
Q 1550 3584 1831 3584 
Q 2591 3584 2966 3190 
Q 3341 2797 3341 1997 
z
" transform="scale(0.015625)"/>
       <path id="DejaVuSans-6c" d="M 603 4863 
L 1178 4863 
L 1178 0 
L 603 0 
L 603 4863 
z
" transform="scale(0.015625)"/>
      </defs>
      <use xlink:href="#DejaVuSans-46"/>
      <use xlink:href="#DejaVuSans-4f" x="57.519531"/>
      <use xlink:href="#DejaVuSans-4d" x="136.230469"/>
      <use xlink:href="#DejaVuSans-20" x="222.509766"/>
      <use xlink:href="#DejaVuSans-4f" x="254.296875"/>
      <use xlink:href="#DejaVuSans-76" x="333.007812"/>
      <use xlink:href="#DejaVuSans-65" x="392.1875"/>
      <use xlink:href="#DejaVuSans-72" x="453.710938"/>
      <use xlink:href="#DejaVuSans-61" x="494.824219"/>
      <use xlink:href="#DejaVuSans-6c" x="556.103516"/>
      <use xlink:href="#DejaVuSans-6c" x="583.886719"/>
     </g>
    </g>
    <g id="text_13">
     <!-- $\times\mathdefault{10^{9}}\mathdefault{}$ -->
     <g style="fill: #262626" transform="translate(47.1825 24.264) scale(0.11 -0.11)">
      <defs>
       <path id="DejaVuSans-d7" d="M 4488 3438 
L 3059 2003 
L 4488 575 
L 4116 197 
L 2681 1631 
L 1247 197 
L 878 575 
L 2303 2003 
L 878 3438 
L 1247 3816 
L 2681 2381 
L 4116 3816 
L 4488 3438 
z
" transform="scale(0.015625)"/>
       <path id="DejaVuSans-39" d="M 703 97 
L 703 672 
Q 941 559 1184 500 
Q 1428 441 1663 441 
Q 2288 441 2617 861 
Q 2947 1281 2994 2138 
Q 2813 1869 2534 1725 
Q 2256 1581 1919 1581 
Q 1219 1581 811 2004 
Q 403 2428 403 3163 
Q 403 3881 828 4315 
Q 1253 4750 1959 4750 
Q 2769 4750 3195 4129 
Q 3622 3509 3622 2328 
Q 3622 1225 3098 567 
Q 2575 -91 1691 -91 
Q 1453 -91 1209 -44 
Q 966 3 703 97 
z
M 1959 2075 
Q 2384 2075 2632 2365 
Q 2881 2656 2881 3163 
Q 2881 3666 2632 3958 
Q 2384 4250 1959 4250 
Q 1534 4250 1286 3958 
Q 1038 3666 1038 3163 
Q 1038 2656 1286 2365 
Q 1534 2075 1959 2075 
z
" transform="scale(0.015625)"/>
      </defs>
      <use xlink:href="#DejaVuSans-d7" transform="translate(0 0.765625)"/>
      <use xlink:href="#DejaVuSans-31" transform="translate(83.789062 0.765625)"/>
      <use xlink:href="#DejaVuSans-30" transform="translate(147.412109 0.765625)"/>
      <use xlink:href="#DejaVuSans-39" transform="translate(211.992188 39.046875) scale(0.7)"/>
     </g>
    </g>
   </g>
   <g id="patch_3">
    <path d="M 47.1825 381.78 
L 47.1825 27.264 
" style="fill: none; stroke: #cccccc; stroke-width: 1.25; stroke-linejoin: miter; stroke-linecap: square"/>
   </g>
   <g id="patch_4">
    <path d="M 311.04 381.78 
L 311.04 27.264 
" style="fill: none; stroke: #cccccc; stroke-width: 1.25; stroke-linejoin: miter; stroke-linecap: square"/>
   </g>
   <g id="patch_5">
    <path d="M 47.1825 381.78 
L 311.04 381.78 
" style="fill: none; stroke: #cccccc; stroke-width: 1.25; stroke-linejoin: miter; stroke-linecap: square"/>
   </g>
   <g id="patch_6">
    <path d="M 47.1825 27.264 
L 311.04 27.264 
" style="fill: none; stroke: #cccccc; stroke-width: 1.25; stroke-linejoin: miter; stroke-linecap: square"/>
   </g>
   <g id="PathCollection_1">
    <defs>
     <path id="C0_0_da215fed65" d="M 0 -2.5 
L -2.377641 -0.772542 
L -1.469463 2.022542 
L 1.469463 2.022542 
L 2.377641 -0.772542 
z
"/>
    </defs>
    <g clip-path="url(#pd85e1639b3)">
     <use xlink:href="#C0_0_da215fed65" x="73.814443" y="341.605174" style="fill: #8c613c"/>
    </g>
    <g clip-path="url(#pd85e1639b3)">
     <use xlink:href="#C0_0_da215fed65" x="79.578356" y="340.361912" style="fill: #8c613c"/>
    </g>
    <g clip-path="url(#pd85e1639b3)">
     <use xlink:href="#C0_0_da215fed65" x="82.838789" y="333.663275" style="fill: #8c613c"/>
    </g>
    <g clip-path="url(#pd85e1639b3)">
     <use xlink:href="#C0_0_da215fed65" x="85.022672" y="341.88173" style="fill: #8c613c"/>
    </g>
    <g clip-path="url(#pd85e1639b3)">
     <use xlink:href="#C0_0_da215fed65" x="75.780786" y="341.785062" style="fill: #8c613c"/>
    </g>
   </g>
   <g id="PathCollection_2">
    <defs>
     <path id="C1_0_63b169d2d4" d="M 0 -2.5 
L -2.377641 -0.772542 
L -1.469463 2.022542 
L 1.469463 2.022542 
L 2.377641 -0.772542 
z
"/>
    </defs>
    <g clip-path="url(#pd85e1639b3)">
     <use xlink:href="#C1_0_63b169d2d4" x="142.574578" y="316.938245" style="fill: #8c613c"/>
    </g>
    <g clip-path="url(#pd85e1639b3)">
     <use xlink:href="#C1_0_63b169d2d4" x="146.874098" y="313.663019" style="fill: #8c613c"/>
    </g>
    <g clip-path="url(#pd85e1639b3)">
     <use xlink:href="#C1_0_63b169d2d4" x="146.556985" y="315.439704" style="fill: #8c613c"/>
    </g>
    <g clip-path="url(#pd85e1639b3)">
     <use xlink:href="#C1_0_63b169d2d4" x="142.81762" y="316.094793" style="fill: #8c613c"/>
    </g>
    <g clip-path="url(#pd85e1639b3)">
     <use xlink:href="#C1_0_63b169d2d4" x="142.204468" y="317.593217" style="fill: #8c613c"/>
    </g>
   </g>
   <g id="PathCollection_3">
    <defs>
     <path id="C2_0_ce5c3a5288" d="M 0 -2.5 
L -2.377641 -0.772542 
L -1.469463 2.022542 
L 1.469463 2.022542 
L 2.377641 -0.772542 
z
"/>
    </defs>
    <g clip-path="url(#pd85e1639b3)">
     <use xlink:href="#C2_0_ce5c3a5288" x="212.874171" y="297.775719" style="fill: #8c613c"/>
    </g>
    <g clip-path="url(#pd85e1639b3)">
     <use xlink:href="#C2_0_ce5c3a5288" x="209.215473" y="295.725082" style="fill: #8c613c"/>
    </g>
    <g clip-path="url(#pd85e1639b3)">
     <use xlink:href="#C2_0_ce5c3a5288" x="218.459717" y="292.898671" style="fill: #8c613c"/>
    </g>
    <g clip-path="url(#pd85e1639b3)">
     <use xlink:href="#C2_0_ce5c3a5288" x="210.683725" y="297.001963" style="fill: #8c613c"/>
    </g>
    <g clip-path="url(#pd85e1639b3)">
     <use xlink:href="#C2_0_ce5c3a5288" x="210.814531" y="298.884805" style="fill: #8c613c"/>
    </g>
   </g>
   <g id="PathCollection_4">
    <defs>
     <path id="C3_0_a048202b70" d="M 0 -2.5 
L -2.377641 -0.772542 
L -1.469463 2.022542 
L 1.469463 2.022542 
L 2.377641 -0.772542 
z
"/>
    </defs>
    <g clip-path="url(#pd85e1639b3)">
     <use xlink:href="#C3_0_a048202b70" x="283.646872" y="239.929225" style="fill: #8c613c"/>
    </g>
    <g clip-path="url(#pd85e1639b3)">
     <use xlink:href="#C3_0_a048202b70" x="278.480089" y="225.59898" style="fill: #8c613c"/>
    </g>
    <g clip-path="url(#pd85e1639b3)">
     <use xlink:href="#C3_0_a048202b70" x="275.51784" y="240.690745" style="fill: #8c613c"/>
    </g>
    <g clip-path="url(#pd85e1639b3)">
     <use xlink:href="#C3_0_a048202b70" x="272.550156" y="229.754666" style="fill: #8c613c"/>
    </g>
    <g clip-path="url(#pd85e1639b3)">
     <use xlink:href="#C3_0_a048202b70" x="274.130317" y="248.045271" style="fill: #8c613c"/>
    </g>
    <g clip-path="url(#pd85e1639b3)">
     <use xlink:href="#C3_0_a048202b70" x="284.180105" y="229.64942" style="fill: #8c613c"/>
    </g>
   </g>
   <g id="line2d_7"/>
   <g id="PathCollection_5">
    <path d="M 74.907944 364.800608 
L 79.907944 364.800608 
L 79.907944 359.800608 
L 74.907944 359.800608 
z
" clip-path="url(#pd85e1639b3)" style="fill: #6c3baa"/>
    <path d="M 76.550881 365.03087 
L 81.550881 365.03087 
L 81.550881 360.03087 
L 76.550881 360.03087 
z
" clip-path="url(#pd85e1639b3)" style="fill: #6c3baa"/>
    <path d="M 78.052731 365.964569 
L 83.052731 365.964569 
L 83.052731 360.964569 
L 78.052731 360.964569 
z
" clip-path="url(#pd85e1639b3)" style="fill: #6c3baa"/>
    <path d="M 78.865885 365.332035 
L 83.865885 365.332035 
L 83.865885 360.332035 
L 78.865885 360.332035 
z
" clip-path="url(#pd85e1639b3)" style="fill: #6c3baa"/>
    <path d="M 72.473412 364.860726 
L 77.473412 364.860726 
L 77.473412 359.860726 
L 72.473412 359.860726 
z
" clip-path="url(#pd85e1639b3)" style="fill: #6c3baa"/>
   </g>
   <g id="PathCollection_6">
    <path d="M 141.617556 364.731434 
L 146.617556 364.731434 
L 146.617556 359.731434 
L 141.617556 359.731434 
z
" clip-path="url(#pd85e1639b3)" style="fill: #6c3baa"/>
    <path d="M 148.734771 365.261756 
L 153.734771 365.261756 
L 153.734771 360.261756 
L 148.734771 360.261756 
z
" clip-path="url(#pd85e1639b3)" style="fill: #6c3baa"/>
    <path d="M 149.19104 364.930348 
L 154.19104 364.930348 
L 154.19104 359.930348 
L 149.19104 359.930348 
z
" clip-path="url(#pd85e1639b3)" style="fill: #6c3baa"/>
    <path d="M 146.79814 364.635738 
L 151.79814 364.635738 
L 151.79814 359.635738 
L 146.79814 359.635738 
z
" clip-path="url(#pd85e1639b3)" style="fill: #6c3baa"/>
    <path d="M 137.730714 364.839699 
L 142.730714 364.839699 
L 142.730714 359.839699 
L 137.730714 359.839699 
z
" clip-path="url(#pd85e1639b3)" style="fill: #6c3baa"/>
   </g>
   <g id="PathCollection_7">
    <path d="M 210.108145 361.419446 
L 215.108145 361.419446 
L 215.108145 356.419446 
L 210.108145 356.419446 
z
" clip-path="url(#pd85e1639b3)" style="fill: #6c3baa"/>
    <path d="M 208.848507 362.094712 
L 213.848507 362.094712 
L 213.848507 357.094712 
L 208.848507 357.094712 
z
" clip-path="url(#pd85e1639b3)" style="fill: #6c3baa"/>
    <path d="M 212.726345 361.268704 
L 217.726345 361.268704 
L 217.726345 356.268704 
L 212.726345 356.268704 
z
" clip-path="url(#pd85e1639b3)" style="fill: #6c3baa"/>
    <path d="M 204.510486 361.882554 
L 209.510486 361.882554 
L 209.510486 356.882554 
L 204.510486 356.882554 
z
" clip-path="url(#pd85e1639b3)" style="fill: #6c3baa"/>
    <path d="M 212.714574 361.926104 
L 217.714574 361.926104 
L 217.714574 356.926104 
L 212.714574 356.926104 
z
" clip-path="url(#pd85e1639b3)" style="fill: #6c3baa"/>
   </g>
   <g id="PathCollection_8">
    <path d="M 270.861737 354.121988 
L 275.861737 354.121988 
L 275.861737 349.121988 
L 270.861737 349.121988 
z
" clip-path="url(#pd85e1639b3)" style="fill: #6c3baa"/>
    <path d="M 275.779002 353.700457 
L 280.779002 353.700457 
L 280.779002 348.700457 
L 275.779002 348.700457 
z
" clip-path="url(#pd85e1639b3)" style="fill: #6c3baa"/>
    <path d="M 269.327912 356.017619 
L 274.327912 356.017619 
L 274.327912 351.017619 
L 269.327912 351.017619 
z
" clip-path="url(#pd85e1639b3)" style="fill: #6c3baa"/>
    <path d="M 275.361528 354.995009 
L 280.361528 354.995009 
L 280.361528 349.995009 
L 275.361528 349.995009 
z
" clip-path="url(#pd85e1639b3)" style="fill: #6c3baa"/>
    <path d="M 272.74975 354.282538 
L 277.74975 354.282538 
L 277.74975 349.282538 
L 272.74975 349.282538 
z
" clip-path="url(#pd85e1639b3)" style="fill: #6c3baa"/>
   </g>
   <g id="line2d_8"/>
   <g id="PathCollection_9">
    <defs>
     <path id="C4_0_e60eb695b9" d="M -0.833333 2.5 
L 0.833333 2.5 
L 0.833333 0.833333 
L 2.5 0.833333 
L 2.5 -0.833333 
L 0.833333 -0.833333 
L 0.833333 -2.5 
L -0.833333 -2.5 
L -0.833333 -0.833333 
L -2.5 -0.833333 
L -2.5 0.833333 
L -0.833333 0.833333 
z
"/>
    </defs>
    <g clip-path="url(#pd85e1639b3)">
     <use xlink:href="#C4_0_e60eb695b9" x="74.824193" y="358.051332" style="fill: #797979"/>
    </g>
    <g clip-path="url(#pd85e1639b3)">
     <use xlink:href="#C4_0_e60eb695b9" x="79.510012" y="358.006064" style="fill: #797979"/>
    </g>
    <g clip-path="url(#pd85e1639b3)">
     <use xlink:href="#C4_0_e60eb695b9" x="84.696143" y="358.073273" style="fill: #797979"/>
    </g>
    <g clip-path="url(#pd85e1639b3)">
     <use xlink:href="#C4_0_e60eb695b9" x="83.370215" y="357.999022" style="fill: #797979"/>
    </g>
    <g clip-path="url(#pd85e1639b3)">
     <use xlink:href="#C4_0_e60eb695b9" x="77.467" y="365.665636" style="fill: #797979"/>
    </g>
   </g>
   <g id="PathCollection_10">
    <defs>
     <path id="C5_0_419723f486" d="M -0.833333 2.5 
L 0.833333 2.5 
L 0.833333 0.833333 
L 2.5 0.833333 
L 2.5 -0.833333 
L 0.833333 -0.833333 
L 0.833333 -2.5 
L -0.833333 -2.5 
L -0.833333 -0.833333 
L -2.5 -0.833333 
L -2.5 0.833333 
L -0.833333 0.833333 
z
"/>
    </defs>
    <g clip-path="url(#pd85e1639b3)">
     <use xlink:href="#C5_0_419723f486" x="145.811012" y="361.410911" style="fill: #797979"/>
    </g>
    <g clip-path="url(#pd85e1639b3)">
     <use xlink:href="#C5_0_419723f486" x="141.265638" y="363.726133" style="fill: #797979"/>
    </g>
    <g clip-path="url(#pd85e1639b3)">
     <use xlink:href="#C5_0_419723f486" x="144.47752" y="363.720915" style="fill: #797979"/>
    </g>
    <g clip-path="url(#pd85e1639b3)">
     <use xlink:href="#C5_0_419723f486" x="143.121301" y="363.441633" style="fill: #797979"/>
    </g>
    <g clip-path="url(#pd85e1639b3)">
     <use xlink:href="#C5_0_419723f486" x="147.949919" y="360.407989" style="fill: #797979"/>
    </g>
   </g>
   <g id="PathCollection_11">
    <defs>
     <path id="C6_0_c40a5fdb85" d="M -0.833333 2.5 
L 0.833333 2.5 
L 0.833333 0.833333 
L 2.5 0.833333 
L 2.5 -0.833333 
L 0.833333 -0.833333 
L 0.833333 -2.5 
L -0.833333 -2.5 
L -0.833333 -0.833333 
L -2.5 -0.833333 
L -2.5 0.833333 
L -0.833333 0.833333 
z
"/>
    </defs>
    <g clip-path="url(#pd85e1639b3)">
     <use xlink:href="#C6_0_c40a5fdb85" x="210.610871" y="353.203118" style="fill: #797979"/>
    </g>
    <g clip-path="url(#pd85e1639b3)">
     <use xlink:href="#C6_0_c40a5fdb85" x="212.453412" y="353.185154" style="fill: #797979"/>
    </g>
    <g clip-path="url(#pd85e1639b3)">
     <use xlink:href="#C6_0_c40a5fdb85" x="208.512635" y="353.881541" style="fill: #797979"/>
    </g>
    <g clip-path="url(#pd85e1639b3)">
     <use xlink:href="#C6_0_c40a5fdb85" x="206.601553" y="353.673035" style="fill: #797979"/>
    </g>
    <g clip-path="url(#pd85e1639b3)">
     <use xlink:href="#C6_0_c40a5fdb85" x="206.755267" y="357.313575" style="fill: #797979"/>
    </g>
   </g>
   <g id="PathCollection_12">
    <defs>
     <path id="C7_0_f7c7ed988a" d="M -0.833333 2.5 
L 0.833333 2.5 
L 0.833333 0.833333 
L 2.5 0.833333 
L 2.5 -0.833333 
L 0.833333 -0.833333 
L 0.833333 -2.5 
L -0.833333 -2.5 
L -0.833333 -0.833333 
L -2.5 -0.833333 
L -2.5 0.833333 
L -0.833333 0.833333 
z
"/>
    </defs>
    <g clip-path="url(#pd85e1639b3)">
     <use xlink:href="#C7_0_f7c7ed988a" x="282.766742" y="352.460734" style="fill: #797979"/>
    </g>
    <g clip-path="url(#pd85e1639b3)">
     <use xlink:href="#C7_0_f7c7ed988a" x="276.040147" y="352.760206" style="fill: #797979"/>
    </g>
    <g clip-path="url(#pd85e1639b3)">
     <use xlink:href="#C7_0_f7c7ed988a" x="274.133619" y="352.698959" style="fill: #797979"/>
    </g>
    <g clip-path="url(#pd85e1639b3)">
     <use xlink:href="#C7_0_f7c7ed988a" x="284.501632" y="352.802409" style="fill: #797979"/>
    </g>
   </g>
   <g id="line2d_9"/>
   <g id="PathCollection_13">
    <defs>
     <path id="C8_0_fe937b0723" d="M 0 2.5 
C 0.663008 2.5 1.29895 2.236584 1.767767 1.767767 
C 2.236584 1.29895 2.5 0.663008 2.5 -0 
C 2.5 -0.663008 2.236584 -1.29895 1.767767 -1.767767 
C 1.29895 -2.236584 0.663008 -2.5 0 -2.5 
C -0.663008 -2.5 -1.29895 -2.236584 -1.767767 -1.767767 
C -2.236584 -1.29895 -2.5 -0.663008 -2.5 0 
C -2.5 0.663008 -2.236584 1.29895 -1.767767 1.767767 
C -1.29895 2.236584 -0.663008 2.5 0 2.5 
z
"/>
    </defs>
    <g clip-path="url(#pd85e1639b3)">
     <use xlink:href="#C8_0_fe937b0723" x="74.52043" y="310.886419" style="fill: #4878d0"/>
    </g>
    <g clip-path="url(#pd85e1639b3)">
     <use xlink:href="#C8_0_fe937b0723" x="83.04895" y="311.041463" style="fill: #4878d0"/>
    </g>
    <g clip-path="url(#pd85e1639b3)">
     <use xlink:href="#C8_0_fe937b0723" x="82.139453" y="309.945506" style="fill: #4878d0"/>
    </g>
    <g clip-path="url(#pd85e1639b3)">
     <use xlink:href="#C8_0_fe937b0723" x="74.463929" y="309.989889" style="fill: #4878d0"/>
    </g>
    <g clip-path="url(#pd85e1639b3)">
     <use xlink:href="#C8_0_fe937b0723" x="76.402984" y="310.701337" style="fill: #4878d0"/>
    </g>
    <g clip-path="url(#pd85e1639b3)">
     <use xlink:href="#C8_0_fe937b0723" x="77.435289" y="309.718488" style="fill: #4878d0"/>
    </g>
    <g clip-path="url(#pd85e1639b3)">
     <use xlink:href="#C8_0_fe937b0723" x="79.246439" y="310.399463" style="fill: #4878d0"/>
    </g>
    <g clip-path="url(#pd85e1639b3)">
     <use xlink:href="#C8_0_fe937b0723" x="83.641041" y="311.073148" style="fill: #4878d0"/>
    </g>
    <g clip-path="url(#pd85e1639b3)">
     <use xlink:href="#C8_0_fe937b0723" x="78.292947" y="309.730621" style="fill: #4878d0"/>
    </g>
    <g clip-path="url(#pd85e1639b3)">
     <use xlink:href="#C8_0_fe937b0723" x="81.709659" y="309.878948" style="fill: #4878d0"/>
    </g>
    <g clip-path="url(#pd85e1639b3)">
     <use xlink:href="#C8_0_fe937b0723" x="78.085479" y="310.520616" style="fill: #4878d0"/>
    </g>
    <g clip-path="url(#pd85e1639b3)">
     <use xlink:href="#C8_0_fe937b0723" x="74.761884" y="310.856342" style="fill: #4878d0"/>
    </g>
    <g clip-path="url(#pd85e1639b3)">
     <use xlink:href="#C8_0_fe937b0723" x="83.480265" y="311.195043" style="fill: #4878d0"/>
    </g>
    <g clip-path="url(#pd85e1639b3)">
     <use xlink:href="#C8_0_fe937b0723" x="85.673336" y="309.921326" style="fill: #4878d0"/>
    </g>
    <g clip-path="url(#pd85e1639b3)">
     <use xlink:href="#C8_0_fe937b0723" x="75.816517" y="310.514348" style="fill: #4878d0"/>
    </g>
    <g clip-path="url(#pd85e1639b3)">
     <use xlink:href="#C8_0_fe937b0723" x="86.237611" y="310.405835" style="fill: #4878d0"/>
    </g>
    <g clip-path="url(#pd85e1639b3)">
     <use xlink:href="#C8_0_fe937b0723" x="76.111226" y="310.044354" style="fill: #4878d0"/>
    </g>
    <g clip-path="url(#pd85e1639b3)">
     <use xlink:href="#C8_0_fe937b0723" x="84.009901" y="310.120252" style="fill: #4878d0"/>
    </g>
    <g clip-path="url(#pd85e1639b3)">
     <use xlink:href="#C8_0_fe937b0723" x="80.916224" y="310.097055" style="fill: #4878d0"/>
    </g>
    <g clip-path="url(#pd85e1639b3)">
     <use xlink:href="#C8_0_fe937b0723" x="86.12837" y="310.457143" style="fill: #4878d0"/>
    </g>
    <g clip-path="url(#pd85e1639b3)">
     <use xlink:href="#C8_0_fe937b0723" x="83.537482" y="310.593397" style="fill: #4878d0"/>
    </g>
    <g clip-path="url(#pd85e1639b3)">
     <use xlink:href="#C8_0_fe937b0723" x="75.935447" y="310.411432" style="fill: #4878d0"/>
    </g>
    <g clip-path="url(#pd85e1639b3)">
     <use xlink:href="#C8_0_fe937b0723" x="76.206162" y="310.211348" style="fill: #4878d0"/>
    </g>
    <g clip-path="url(#pd85e1639b3)">
     <use xlink:href="#C8_0_fe937b0723" x="83.955516" y="310.667869" style="fill: #4878d0"/>
    </g>
    <g clip-path="url(#pd85e1639b3)">
     <use xlink:href="#C8_0_fe937b0723" x="74.968447" y="310.80053" style="fill: #4878d0"/>
    </g>
    <g clip-path="url(#pd85e1639b3)">
     <use xlink:href="#C8_0_fe937b0723" x="84.481328" y="310.204332" style="fill: #4878d0"/>
    </g>
    <g clip-path="url(#pd85e1639b3)">
     <use xlink:href="#C8_0_fe937b0723" x="80.829936" y="310.029416" style="fill: #4878d0"/>
    </g>
    <g clip-path="url(#pd85e1639b3)">
     <use xlink:href="#C8_0_fe937b0723" x="86.217524" y="310.516802" style="fill: #4878d0"/>
    </g>
    <g clip-path="url(#pd85e1639b3)">
     <use xlink:href="#C8_0_fe937b0723" x="82.881989" y="310.33023" style="fill: #4878d0"/>
    </g>
    <g clip-path="url(#pd85e1639b3)">
     <use xlink:href="#C8_0_fe937b0723" x="81.60069" y="309.90249" style="fill: #4878d0"/>
    </g>
   </g>
   <g id="PathCollection_14">
    <defs>
     <path id="C9_0_2e66f4c934" d="M 0 2.5 
C 0.663008 2.5 1.29895 2.236584 1.767767 1.767767 
C 2.236584 1.29895 2.5 0.663008 2.5 -0 
C 2.5 -0.663008 2.236584 -1.29895 1.767767 -1.767767 
C 1.29895 -2.236584 0.663008 -2.5 0 -2.5 
C -0.663008 -2.5 -1.29895 -2.236584 -1.767767 -1.767767 
C -2.236584 -1.29895 -2.5 -0.663008 -2.5 0 
C -2.5 0.663008 -2.236584 1.29895 -1.767767 1.767767 
C -1.29895 2.236584 -0.663008 2.5 0 2.5 
z
"/>
    </defs>
    <g clip-path="url(#pd85e1639b3)">
     <use xlink:href="#C9_0_2e66f4c934" x="147.521413" y="263.39335" style="fill: #4878d0"/>
    </g>
    <g clip-path="url(#pd85e1639b3)">
     <use xlink:href="#C9_0_2e66f4c934" x="146.195738" y="263.150835" style="fill: #4878d0"/>
    </g>
    <g clip-path="url(#pd85e1639b3)">
     <use xlink:href="#C9_0_2e66f4c934" x="143.422624" y="263.097984" style="fill: #4878d0"/>
    </g>
    <g clip-path="url(#pd85e1639b3)">
     <use xlink:href="#C9_0_2e66f4c934" x="143.616783" y="262.992413" style="fill: #4878d0"/>
    </g>
    <g clip-path="url(#pd85e1639b3)">
     <use xlink:href="#C9_0_2e66f4c934" x="152.580882" y="262.816222" style="fill: #4878d0"/>
    </g>
    <g clip-path="url(#pd85e1639b3)">
     <use xlink:href="#C9_0_2e66f4c934" x="147.474809" y="262.880463" style="fill: #4878d0"/>
    </g>
    <g clip-path="url(#pd85e1639b3)">
     <use xlink:href="#C9_0_2e66f4c934" x="142.8424" y="262.857877" style="fill: #4878d0"/>
    </g>
    <g clip-path="url(#pd85e1639b3)">
     <use xlink:href="#C9_0_2e66f4c934" x="144.669638" y="263.042204" style="fill: #4878d0"/>
    </g>
    <g clip-path="url(#pd85e1639b3)">
     <use xlink:href="#C9_0_2e66f4c934" x="147.163753" y="262.81492" style="fill: #4878d0"/>
    </g>
    <g clip-path="url(#pd85e1639b3)">
     <use xlink:href="#C9_0_2e66f4c934" x="152.664917" y="262.805417" style="fill: #4878d0"/>
    </g>
    <g clip-path="url(#pd85e1639b3)">
     <use xlink:href="#C9_0_2e66f4c934" x="143.047743" y="262.966638" style="fill: #4878d0"/>
    </g>
    <g clip-path="url(#pd85e1639b3)">
     <use xlink:href="#C9_0_2e66f4c934" x="151.881072" y="262.887687" style="fill: #4878d0"/>
    </g>
    <g clip-path="url(#pd85e1639b3)">
     <use xlink:href="#C9_0_2e66f4c934" x="143.680701" y="263.045394" style="fill: #4878d0"/>
    </g>
    <g clip-path="url(#pd85e1639b3)">
     <use xlink:href="#C9_0_2e66f4c934" x="148.175839" y="262.773524" style="fill: #4878d0"/>
    </g>
    <g clip-path="url(#pd85e1639b3)">
     <use xlink:href="#C9_0_2e66f4c934" x="146.269958" y="263.331191" style="fill: #4878d0"/>
    </g>
    <g clip-path="url(#pd85e1639b3)">
     <use xlink:href="#C9_0_2e66f4c934" x="146.407366" y="263.218721" style="fill: #4878d0"/>
    </g>
    <g clip-path="url(#pd85e1639b3)">
     <use xlink:href="#C9_0_2e66f4c934" x="151.586637" y="263.620569" style="fill: #4878d0"/>
    </g>
    <g clip-path="url(#pd85e1639b3)">
     <use xlink:href="#C9_0_2e66f4c934" x="149.073742" y="262.973537" style="fill: #4878d0"/>
    </g>
    <g clip-path="url(#pd85e1639b3)">
     <use xlink:href="#C9_0_2e66f4c934" x="141.003772" y="263.074422" style="fill: #4878d0"/>
    </g>
    <g clip-path="url(#pd85e1639b3)">
     <use xlink:href="#C9_0_2e66f4c934" x="147.044848" y="263.316612" style="fill: #4878d0"/>
    </g>
    <g clip-path="url(#pd85e1639b3)">
     <use xlink:href="#C9_0_2e66f4c934" x="151.251162" y="262.709283" style="fill: #4878d0"/>
    </g>
    <g clip-path="url(#pd85e1639b3)">
     <use xlink:href="#C9_0_2e66f4c934" x="147.611151" y="263.559647" style="fill: #4878d0"/>
    </g>
    <g clip-path="url(#pd85e1639b3)">
     <use xlink:href="#C9_0_2e66f4c934" x="142.167727" y="262.910273" style="fill: #4878d0"/>
    </g>
    <g clip-path="url(#pd85e1639b3)">
     <use xlink:href="#C9_0_2e66f4c934" x="151.258537" y="263.316156" style="fill: #4878d0"/>
    </g>
    <g clip-path="url(#pd85e1639b3)">
     <use xlink:href="#C9_0_2e66f4c934" x="143.968916" y="263.713513" style="fill: #4878d0"/>
    </g>
    <g clip-path="url(#pd85e1639b3)">
     <use xlink:href="#C9_0_2e66f4c934" x="142.817" y="263.312576" style="fill: #4878d0"/>
    </g>
    <g clip-path="url(#pd85e1639b3)">
     <use xlink:href="#C9_0_2e66f4c934" x="140.404061" y="263.294873" style="fill: #4878d0"/>
    </g>
    <g clip-path="url(#pd85e1639b3)">
     <use xlink:href="#C9_0_2e66f4c934" x="145.044747" y="263.288234" style="fill: #4878d0"/>
    </g>
    <g clip-path="url(#pd85e1639b3)">
     <use xlink:href="#C9_0_2e66f4c934" x="139.874671" y="263.240981" style="fill: #4878d0"/>
    </g>
    <g clip-path="url(#pd85e1639b3)">
     <use xlink:href="#C9_0_2e66f4c934" x="142.715357" y="263.253152" style="fill: #4878d0"/>
    </g>
   </g>
   <g id="PathCollection_15">
    <defs>
     <path id="Ca_0_6cbd43457a" d="M 0 2.5 
C 0.663008 2.5 1.29895 2.236584 1.767767 1.767767 
C 2.236584 1.29895 2.5 0.663008 2.5 -0 
C 2.5 -0.663008 2.236584 -1.29895 1.767767 -1.767767 
C 1.29895 -2.236584 0.663008 -2.5 0 -2.5 
C -0.663008 -2.5 -1.29895 -2.236584 -1.767767 -1.767767 
C -2.236584 -1.29895 -2.5 -0.663008 -2.5 0 
C -2.5 0.663008 -2.236584 1.29895 -1.767767 1.767767 
C -1.29895 2.236584 -0.663008 2.5 0 2.5 
z
"/>
    </defs>
    <g clip-path="url(#pd85e1639b3)">
     <use xlink:href="#Ca_0_6cbd43457a" x="207.93229" y="180.239462" style="fill: #4878d0"/>
    </g>
    <g clip-path="url(#pd85e1639b3)">
     <use xlink:href="#Ca_0_6cbd43457a" x="215.984597" y="180.038863" style="fill: #4878d0"/>
    </g>
    <g clip-path="url(#pd85e1639b3)">
     <use xlink:href="#Ca_0_6cbd43457a" x="215.978778" y="180.188694" style="fill: #4878d0"/>
    </g>
    <g clip-path="url(#pd85e1639b3)">
     <use xlink:href="#Ca_0_6cbd43457a" x="211.965451" y="180.26439" style="fill: #4878d0"/>
    </g>
    <g clip-path="url(#pd85e1639b3)">
     <use xlink:href="#Ca_0_6cbd43457a" x="205.820501" y="179.359873" style="fill: #4878d0"/>
    </g>
    <g clip-path="url(#pd85e1639b3)">
     <use xlink:href="#Ca_0_6cbd43457a" x="217.07298" y="179.213427" style="fill: #4878d0"/>
    </g>
    <g clip-path="url(#pd85e1639b3)">
     <use xlink:href="#Ca_0_6cbd43457a" x="206.616839" y="180.151659" style="fill: #4878d0"/>
    </g>
    <g clip-path="url(#pd85e1639b3)">
     <use xlink:href="#Ca_0_6cbd43457a" x="212.420909" y="180.568412" style="fill: #4878d0"/>
    </g>
    <g clip-path="url(#pd85e1639b3)">
     <use xlink:href="#Ca_0_6cbd43457a" x="207.256089" y="180.207634" style="fill: #4878d0"/>
    </g>
    <g clip-path="url(#pd85e1639b3)">
     <use xlink:href="#Ca_0_6cbd43457a" x="215.176644" y="179.536325" style="fill: #4878d0"/>
    </g>
    <g clip-path="url(#pd85e1639b3)">
     <use xlink:href="#Ca_0_6cbd43457a" x="210.211161" y="179.920795" style="fill: #4878d0"/>
    </g>
    <g clip-path="url(#pd85e1639b3)">
     <use xlink:href="#Ca_0_6cbd43457a" x="218.376777" y="181.469609" style="fill: #4878d0"/>
    </g>
    <g clip-path="url(#pd85e1639b3)">
     <use xlink:href="#Ca_0_6cbd43457a" x="217.39708" y="181.431729" style="fill: #4878d0"/>
    </g>
    <g clip-path="url(#pd85e1639b3)">
     <use xlink:href="#Ca_0_6cbd43457a" x="215.994238" y="179.467983" style="fill: #4878d0"/>
    </g>
    <g clip-path="url(#pd85e1639b3)">
     <use xlink:href="#Ca_0_6cbd43457a" x="213.671941" y="179.19312" style="fill: #4878d0"/>
    </g>
   </g>
   <g id="line2d_10"/>
   <g id="PathCollection_16">
    <path d="M 80.848884 326.839333 
L 85.848884 329.339333 
L 85.848884 324.339333 
z
" clip-path="url(#pd85e1639b3)" style="fill: #d65f5f"/>
    <path d="M 75.041705 323.762135 
L 80.041705 326.262135 
L 80.041705 321.262135 
z
" clip-path="url(#pd85e1639b3)" style="fill: #d65f5f"/>
    <path d="M 79.682175 322.567024 
L 84.682175 325.067024 
L 84.682175 320.067024 
z
" clip-path="url(#pd85e1639b3)" style="fill: #d65f5f"/>
    <path d="M 79.661153 337.918988 
L 84.661153 340.418988 
L 84.661153 335.418988 
z
" clip-path="url(#pd85e1639b3)" style="fill: #d65f5f"/>
    <path d="M 81.90609 324.36988 
L 86.90609 326.86988 
L 86.90609 321.86988 
z
" clip-path="url(#pd85e1639b3)" style="fill: #d65f5f"/>
    <path d="M 80.986089 324.036887 
L 85.986089 326.536887 
L 85.986089 321.536887 
z
" clip-path="url(#pd85e1639b3)" style="fill: #d65f5f"/>
    <path d="M 78.13785 324.30545 
L 83.13785 326.80545 
L 83.13785 321.80545 
z
" clip-path="url(#pd85e1639b3)" style="fill: #d65f5f"/>
    <path d="M 73.651787 324.696872 
L 78.651787 327.196872 
L 78.651787 322.196872 
z
" clip-path="url(#pd85e1639b3)" style="fill: #d65f5f"/>
    <path d="M 77.476799 321.986739 
L 82.476799 324.486739 
L 82.476799 319.486739 
z
" clip-path="url(#pd85e1639b3)" style="fill: #d65f5f"/>
    <path d="M 79.023073 322.773077 
L 84.023073 325.273077 
L 84.023073 320.273077 
z
" clip-path="url(#pd85e1639b3)" style="fill: #d65f5f"/>
    <path d="M 79.416443 322.599073 
L 84.416443 325.099073 
L 84.416443 320.099073 
z
" clip-path="url(#pd85e1639b3)" style="fill: #d65f5f"/>
    <path d="M 75.667044 326.653314 
L 80.667044 329.153314 
L 80.667044 324.153314 
z
" clip-path="url(#pd85e1639b3)" style="fill: #d65f5f"/>
    <path d="M 77.909811 322.423604 
L 82.909811 324.923604 
L 82.909811 319.923604 
z
" clip-path="url(#pd85e1639b3)" style="fill: #d65f5f"/>
    <path d="M 75.432537 325.933925 
L 80.432537 328.433925 
L 80.432537 323.433925 
z
" clip-path="url(#pd85e1639b3)" style="fill: #d65f5f"/>
   </g>
   <g id="PathCollection_17">
    <path d="M 141.577283 297.420343 
L 146.577283 299.920343 
L 146.577283 294.920343 
z
" clip-path="url(#pd85e1639b3)" style="fill: #d65f5f"/>
    <path d="M 139.574589 305.394154 
L 144.574589 307.894154 
L 144.574589 302.894154 
z
" clip-path="url(#pd85e1639b3)" style="fill: #d65f5f"/>
    <path d="M 139.628421 298.100634 
L 144.628421 300.600634 
L 144.628421 295.600634 
z
" clip-path="url(#pd85e1639b3)" style="fill: #d65f5f"/>
    <path d="M 148.052696 306.403364 
L 153.052696 308.903364 
L 153.052696 303.903364 
z
" clip-path="url(#pd85e1639b3)" style="fill: #d65f5f"/>
    <path d="M 139.549565 294.760165 
L 144.549565 297.260165 
L 144.549565 292.260165 
z
" clip-path="url(#pd85e1639b3)" style="fill: #d65f5f"/>
   </g>
   <g id="PathCollection_18">
    <path d="M 205.352603 234.928251 
L 210.352603 237.428251 
L 210.352603 232.428251 
z
" clip-path="url(#pd85e1639b3)" style="fill: #d65f5f"/>
    <path d="M 204.817505 233.861667 
L 209.817505 236.361667 
L 209.817505 231.361667 
z
" clip-path="url(#pd85e1639b3)" style="fill: #d65f5f"/>
    <path d="M 213.75992 240.306861 
L 218.75992 242.806861 
L 218.75992 237.806861 
z
" clip-path="url(#pd85e1639b3)" style="fill: #d65f5f"/>
    <path d="M 212.160759 230.233252 
L 217.160759 232.733252 
L 217.160759 227.733252 
z
" clip-path="url(#pd85e1639b3)" style="fill: #d65f5f"/>
    <path d="M 207.224182 247.874482 
L 212.224182 250.374482 
L 212.224182 245.374482 
z
" clip-path="url(#pd85e1639b3)" style="fill: #d65f5f"/>
   </g>
   <g id="PathCollection_19">
    <path d="M 271.39148 257.708179 
L 276.39148 260.208179 
L 276.39148 255.208179 
z
" clip-path="url(#pd85e1639b3)" style="fill: #d65f5f"/>
    <path d="M 279.86275 223.905737 
L 284.86275 226.405737 
L 284.86275 221.405737 
z
" clip-path="url(#pd85e1639b3)" style="fill: #d65f5f"/>
   </g>
   <g id="line2d_11"/>
   <g id="PathCollection_20">
    <path d="M 80.160161 328.095774 
L 82.281481 324.560241 
L 80.160161 321.024707 
L 78.03884 324.560241 
z
" clip-path="url(#pd85e1639b3)" style="fill: #008000"/>
    <path d="M 79.631643 327.709293 
L 81.752963 324.173759 
L 79.631643 320.638225 
L 77.510323 324.173759 
z
" clip-path="url(#pd85e1639b3)" style="fill: #008000"/>
    <path d="M 81.33241 327.286363 
L 83.45373 323.750829 
L 81.33241 320.215295 
L 79.21109 323.750829 
z
" clip-path="url(#pd85e1639b3)" style="fill: #008000"/>
    <path d="M 82.504664 327.299966 
L 84.625985 323.764433 
L 82.504664 320.228899 
L 80.383344 323.764433 
z
" clip-path="url(#pd85e1639b3)" style="fill: #008000"/>
    <path d="M 76.62725 326.60861 
L 78.74857 323.073076 
L 76.62725 319.537543 
L 74.50593 323.073076 
z
" clip-path="url(#pd85e1639b3)" style="fill: #008000"/>
   </g>
   <g id="PathCollection_21">
    <path d="M 151.519069 281.758738 
L 153.640389 278.223204 
L 151.519069 274.68767 
L 149.397749 278.223204 
z
" clip-path="url(#pd85e1639b3)" style="fill: #008000"/>
    <path d="M 151.146145 278.65089 
L 153.267465 275.115356 
L 151.146145 271.579822 
L 149.024824 275.115356 
z
" clip-path="url(#pd85e1639b3)" style="fill: #008000"/>
    <path d="M 142.919835 279.459859 
L 145.041155 275.924325 
L 142.919835 272.388791 
L 140.798514 275.924325 
z
" clip-path="url(#pd85e1639b3)" style="fill: #008000"/>
    <path d="M 147.930739 276.050136 
L 150.05206 272.514602 
L 147.930739 268.979068 
L 145.809419 272.514602 
z
" clip-path="url(#pd85e1639b3)" style="fill: #008000"/>
    <path d="M 150.42426 278.159612 
L 152.545581 274.624078 
L 150.42426 271.088544 
L 148.30294 274.624078 
z
" clip-path="url(#pd85e1639b3)" style="fill: #008000"/>
   </g>
   <g id="PathCollection_22">
    <path d="M 215.621202 289.30052 
L 217.742522 285.764986 
L 215.621202 282.229452 
L 213.499881 285.764986 
z
" clip-path="url(#pd85e1639b3)" style="fill: #008000"/>
    <path d="M 213.358607 271.211165 
L 215.479927 267.675631 
L 213.358607 264.140097 
L 211.237286 267.675631 
z
" clip-path="url(#pd85e1639b3)" style="fill: #008000"/>
    <path d="M 212.875656 191.107913 
L 214.996976 187.572379 
L 212.875656 184.036845 
L 210.754335 187.572379 
z
" clip-path="url(#pd85e1639b3)" style="fill: #008000"/>
    <path d="M 218.051727 190.05695 
L 220.173047 186.521416 
L 218.051727 182.985882 
L 215.930407 186.521416 
z
" clip-path="url(#pd85e1639b3)" style="fill: #008000"/>
    <path d="M 216.199774 303.736597 
L 218.321095 300.201063 
L 216.199774 296.665529 
L 214.078454 300.201063 
z
" clip-path="url(#pd85e1639b3)" style="fill: #008000"/>
   </g>
   <g id="PathCollection_23">
    <path d="M 279.033502 225.169663 
L 281.154823 221.634129 
L 279.033502 218.098595 
L 276.912182 221.634129 
z
" clip-path="url(#pd85e1639b3)" style="fill: #008000"/>
    <path d="M 281.890532 176.739071 
L 284.011852 173.203537 
L 281.890532 169.668003 
L 279.769212 173.203537 
z
" clip-path="url(#pd85e1639b3)" style="fill: #008000"/>
    <path d="M 283.448328 46.913898 
L 285.569648 43.378364 
L 283.448328 39.84283 
L 281.327007 43.378364 
z
" clip-path="url(#pd85e1639b3)" style="fill: #008000"/>
    <path d="M 280.451196 219.854448 
L 282.572517 216.318914 
L 280.451196 212.78338 
L 278.329876 216.318914 
z
" clip-path="url(#pd85e1639b3)" style="fill: #008000"/>
    <path d="M 283.852661 225.177408 
L 285.973982 221.641874 
L 283.852661 218.10634 
L 281.731341 221.641874 
z
" clip-path="url(#pd85e1639b3)" style="fill: #008000"/>
   </g>
   <g id="line2d_12"/>
   <g id="text_14">
    <!-- AMG2023 FOM Overall (GPU) -->
    <g style="fill: #262626" transform="translate(113.819766 21.264) scale(0.09 -0.09)">
     <defs>
      <path id="DejaVuSans-41" d="M 2188 4044 
L 1331 1722 
L 3047 1722 
L 2188 4044 
z
M 1831 4666 
L 2547 4666 
L 4325 0 
L 3669 0 
L 3244 1197 
L 1141 1197 
L 716 0 
L 50 0 
L 1831 4666 
z
" transform="scale(0.015625)"/>
      <path id="DejaVuSans-28" d="M 1984 4856 
Q 1566 4138 1362 3434 
Q 1159 2731 1159 2009 
Q 1159 1288 1364 580 
Q 1569 -128 1984 -844 
L 1484 -844 
Q 1016 -109 783 600 
Q 550 1309 550 2009 
Q 550 2706 781 3412 
Q 1013 4119 1484 4856 
L 1984 4856 
z
" transform="scale(0.015625)"/>
      <path id="DejaVuSans-29" d="M 513 4856 
L 1013 4856 
Q 1481 4119 1714 3412 
Q 1947 2706 1947 2009 
Q 1947 1309 1714 600 
Q 1481 -109 1013 -844 
L 513 -844 
Q 928 -128 1133 580 
Q 1338 1288 1338 2009 
Q 1338 2731 1133 3434 
Q 928 4138 513 4856 
z
" transform="scale(0.015625)"/>
     </defs>
     <use xlink:href="#DejaVuSans-41"/>
     <use xlink:href="#DejaVuSans-4d" x="68.408203"/>
     <use xlink:href="#DejaVuSans-47" x="154.6875"/>
     <use xlink:href="#DejaVuSans-32" x="232.177734"/>
     <use xlink:href="#DejaVuSans-30" x="295.800781"/>
     <use xlink:href="#DejaVuSans-32" x="359.423828"/>
     <use xlink:href="#DejaVuSans-33" x="423.046875"/>
     <use xlink:href="#DejaVuSans-20" x="486.669922"/>
     <use xlink:href="#DejaVuSans-46" x="518.457031"/>
     <use xlink:href="#DejaVuSans-4f" x="575.976562"/>
     <use xlink:href="#DejaVuSans-4d" x="654.6875"/>
     <use xlink:href="#DejaVuSans-20" x="740.966797"/>
     <use xlink:href="#DejaVuSans-4f" x="772.753906"/>
     <use xlink:href="#DejaVuSans-76" x="851.464844"/>
     <use xlink:href="#DejaVuSans-65" x="910.644531"/>
     <use xlink:href="#DejaVuSans-72" x="972.167969"/>
     <use xlink:href="#DejaVuSans-61" x="1013.28125"/>
     <use xlink:href="#DejaVuSans-6c" x="1074.560547"/>
     <use xlink:href="#DejaVuSans-6c" x="1102.34375"/>
     <use xlink:href="#DejaVuSans-20" x="1130.126953"/>
     <use xlink:href="#DejaVuSans-28" x="1161.914062"/>
     <use xlink:href="#DejaVuSans-47" x="1200.927734"/>
     <use xlink:href="#DejaVuSans-50" x="1278.417969"/>
     <use xlink:href="#DejaVuSans-55" x="1338.720703"/>
     <use xlink:href="#DejaVuSans-29" x="1411.914062"/>
    </g>
   </g>
   <g id="legend_1">
    <g id="patch_7">
     <path d="M 54.8825 132.939625 
L 245.699844 132.939625 
Q 247.899844 132.939625 247.899844 130.739625 
L 247.899844 34.964 
Q 247.899844 32.764 245.699844 32.764 
L 54.8825 32.764 
Q 52.6825 32.764 52.6825 34.964 
L 52.6825 130.739625 
Q 52.6825 132.939625 54.8825 132.939625 
z
" style="fill: #ffffff; opacity: 0.8; stroke: #cccccc; stroke-linejoin: miter"/>
    </g>
    <g id="line2d_13">
     <defs>
      <path id="m5858c1534b" d="M 0 -2.5 
L -2.377641 -0.772542 
L -1.469463 2.022542 
L 1.469463 2.022542 
L 2.377641 -0.772542 
z
"/>
     </defs>
     <g>
      <use xlink:href="#m5858c1534b" x="68.0825" y="41.672281" style="fill: #8c613c"/>
     </g>
    </g>
    <g id="text_15">
     <!-- google/gke/gpu -->
     <g style="fill: #262626" transform="translate(87.8825 45.522281) scale(0.11 -0.11)">
      <defs>
       <path id="DejaVuSans-67" d="M 2906 1791 
Q 2906 2416 2648 2759 
Q 2391 3103 1925 3103 
Q 1463 3103 1205 2759 
Q 947 2416 947 1791 
Q 947 1169 1205 825 
Q 1463 481 1925 481 
Q 2391 481 2648 825 
Q 2906 1169 2906 1791 
z
M 3481 434 
Q 3481 -459 3084 -895 
Q 2688 -1331 1869 -1331 
Q 1566 -1331 1297 -1286 
Q 1028 -1241 775 -1147 
L 775 -588 
Q 1028 -725 1275 -790 
Q 1522 -856 1778 -856 
Q 2344 -856 2625 -561 
Q 2906 -266 2906 331 
L 2906 616 
Q 2728 306 2450 153 
Q 2172 0 1784 0 
Q 1141 0 747 490 
Q 353 981 353 1791 
Q 353 2603 747 3093 
Q 1141 3584 1784 3584 
Q 2172 3584 2450 3431 
Q 2728 3278 2906 2969 
L 2906 3500 
L 3481 3500 
L 3481 434 
z
" transform="scale(0.015625)"/>
       <path id="DejaVuSans-2f" d="M 1625 4666 
L 2156 4666 
L 531 -594 
L 0 -594 
L 1625 4666 
z
" transform="scale(0.015625)"/>
       <path id="DejaVuSans-6b" d="M 581 4863 
L 1159 4863 
L 1159 1991 
L 2875 3500 
L 3609 3500 
L 1753 1863 
L 3688 0 
L 2938 0 
L 1159 1709 
L 1159 0 
L 581 0 
L 581 4863 
z
" transform="scale(0.015625)"/>
       <path id="DejaVuSans-70" d="M 1159 525 
L 1159 -1331 
L 581 -1331 
L 581 3500 
L 1159 3500 
L 1159 2969 
Q 1341 3281 1617 3432 
Q 1894 3584 2278 3584 
Q 2916 3584 3314 3078 
Q 3713 2572 3713 1747 
Q 3713 922 3314 415 
Q 2916 -91 2278 -91 
Q 1894 -91 1617 61 
Q 1341 213 1159 525 
z
M 3116 1747 
Q 3116 2381 2855 2742 
Q 2594 3103 2138 3103 
Q 1681 3103 1420 2742 
Q 1159 2381 1159 1747 
Q 1159 1113 1420 752 
Q 1681 391 2138 391 
Q 2594 391 2855 752 
Q 3116 1113 3116 1747 
z
" transform="scale(0.015625)"/>
      </defs>
      <use xlink:href="#DejaVuSans-67"/>
      <use xlink:href="#DejaVuSans-6f" x="63.476562"/>
      <use xlink:href="#DejaVuSans-6f" x="124.658203"/>
      <use xlink:href="#DejaVuSans-67" x="185.839844"/>
      <use xlink:href="#DejaVuSans-6c" x="249.316406"/>
      <use xlink:href="#DejaVuSans-65" x="277.099609"/>
      <use xlink:href="#DejaVuSans-2f" x="338.623047"/>
      <use xlink:href="#DejaVuSans-67" x="372.314453"/>
      <use xlink:href="#DejaVuSans-6b" x="435.791016"/>
      <use xlink:href="#DejaVuSans-65" x="490.076172"/>
      <use xlink:href="#DejaVuSans-2f" x="551.599609"/>
      <use xlink:href="#DejaVuSans-67" x="585.291016"/>
      <use xlink:href="#DejaVuSans-70" x="648.767578"/>
      <use xlink:href="#DejaVuSans-75" x="712.244141"/>
     </g>
    </g>
    <g id="line2d_14">
     <defs>
      <path id="m9faf7b3ff2" d="M -2.5 2.5 
L 2.5 2.5 
L 2.5 -2.5 
L -2.5 -2.5 
z
"/>
     </defs>
     <g>
      <use xlink:href="#m9faf7b3ff2" x="68.0825" y="57.818219" style="fill: #6c3baa"/>
     </g>
    </g>
    <g id="text_16">
     <!-- google/compute-engine/gpu -->
     <g style="fill: #262626" transform="translate(87.8825 61.668219) scale(0.11 -0.11)">
      <defs>
       <path id="DejaVuSans-63" d="M 3122 3366 
L 3122 2828 
Q 2878 2963 2633 3030 
Q 2388 3097 2138 3097 
Q 1578 3097 1268 2742 
Q 959 2388 959 1747 
Q 959 1106 1268 751 
Q 1578 397 2138 397 
Q 2388 397 2633 464 
Q 2878 531 3122 666 
L 3122 134 
Q 2881 22 2623 -34 
Q 2366 -91 2075 -91 
Q 1284 -91 818 406 
Q 353 903 353 1747 
Q 353 2603 823 3093 
Q 1294 3584 2113 3584 
Q 2378 3584 2631 3529 
Q 2884 3475 3122 3366 
z
" transform="scale(0.015625)"/>
       <path id="DejaVuSans-74" d="M 1172 4494 
L 1172 3500 
L 2356 3500 
L 2356 3053 
L 1172 3053 
L 1172 1153 
Q 1172 725 1289 603 
Q 1406 481 1766 481 
L 2356 481 
L 2356 0 
L 1766 0 
Q 1100 0 847 248 
Q 594 497 594 1153 
L 594 3053 
L 172 3053 
L 172 3500 
L 594 3500 
L 594 4494 
L 1172 4494 
z
" transform="scale(0.015625)"/>
       <path id="DejaVuSans-2d" d="M 313 2009 
L 1997 2009 
L 1997 1497 
L 313 1497 
L 313 2009 
z
" transform="scale(0.015625)"/>
       <path id="DejaVuSans-6e" d="M 3513 2113 
L 3513 0 
L 2938 0 
L 2938 2094 
Q 2938 2591 2744 2837 
Q 2550 3084 2163 3084 
Q 1697 3084 1428 2787 
Q 1159 2491 1159 1978 
L 1159 0 
L 581 0 
L 581 3500 
L 1159 3500 
L 1159 2956 
Q 1366 3272 1645 3428 
Q 1925 3584 2291 3584 
Q 2894 3584 3203 3211 
Q 3513 2838 3513 2113 
z
" transform="scale(0.015625)"/>
       <path id="DejaVuSans-69" d="M 603 3500 
L 1178 3500 
L 1178 0 
L 603 0 
L 603 3500 
z
M 603 4863 
L 1178 4863 
L 1178 4134 
L 603 4134 
L 603 4863 
z
" transform="scale(0.015625)"/>
      </defs>
      <use xlink:href="#DejaVuSans-67"/>
      <use xlink:href="#DejaVuSans-6f" x="63.476562"/>
      <use xlink:href="#DejaVuSans-6f" x="124.658203"/>
      <use xlink:href="#DejaVuSans-67" x="185.839844"/>
      <use xlink:href="#DejaVuSans-6c" x="249.316406"/>
      <use xlink:href="#DejaVuSans-65" x="277.099609"/>
      <use xlink:href="#DejaVuSans-2f" x="338.623047"/>
      <use xlink:href="#DejaVuSans-63" x="372.314453"/>
      <use xlink:href="#DejaVuSans-6f" x="427.294922"/>
      <use xlink:href="#DejaVuSans-6d" x="488.476562"/>
      <use xlink:href="#DejaVuSans-70" x="585.888672"/>
      <use xlink:href="#DejaVuSans-75" x="649.365234"/>
      <use xlink:href="#DejaVuSans-74" x="712.744141"/>
      <use xlink:href="#DejaVuSans-65" x="751.953125"/>
      <use xlink:href="#DejaVuSans-2d" x="813.476562"/>
      <use xlink:href="#DejaVuSans-65" x="849.560547"/>
      <use xlink:href="#DejaVuSans-6e" x="911.083984"/>
      <use xlink:href="#DejaVuSans-67" x="974.462891"/>
      <use xlink:href="#DejaVuSans-69" x="1037.939453"/>
      <use xlink:href="#DejaVuSans-6e" x="1065.722656"/>
      <use xlink:href="#DejaVuSans-65" x="1129.101562"/>
      <use xlink:href="#DejaVuSans-2f" x="1190.625"/>
      <use xlink:href="#DejaVuSans-67" x="1224.316406"/>
      <use xlink:href="#DejaVuSans-70" x="1287.792969"/>
      <use xlink:href="#DejaVuSans-75" x="1351.269531"/>
     </g>
    </g>
    <g id="line2d_15">
     <defs>
      <path id="m880c1f8ce0" d="M -0.833333 2.5 
L 0.833333 2.5 
L 0.833333 0.833333 
L 2.5 0.833333 
L 2.5 -0.833333 
L 0.833333 -0.833333 
L 0.833333 -2.5 
L -0.833333 -2.5 
L -0.833333 -0.833333 
L -2.5 -0.833333 
L -2.5 0.833333 
L -0.833333 0.833333 
z
"/>
     </defs>
     <g>
      <use xlink:href="#m880c1f8ce0" x="68.0825" y="73.964156" style="fill: #797979"/>
     </g>
    </g>
    <g id="text_17">
     <!-- on-premises/lassen/gpu -->
     <g style="fill: #262626" transform="translate(87.8825 77.814156) scale(0.11 -0.11)">
      <defs>
       <path id="DejaVuSans-73" d="M 2834 3397 
L 2834 2853 
Q 2591 2978 2328 3040 
Q 2066 3103 1784 3103 
Q 1356 3103 1142 2972 
Q 928 2841 928 2578 
Q 928 2378 1081 2264 
Q 1234 2150 1697 2047 
L 1894 2003 
Q 2506 1872 2764 1633 
Q 3022 1394 3022 966 
Q 3022 478 2636 193 
Q 2250 -91 1575 -91 
Q 1294 -91 989 -36 
Q 684 19 347 128 
L 347 722 
Q 666 556 975 473 
Q 1284 391 1588 391 
Q 1994 391 2212 530 
Q 2431 669 2431 922 
Q 2431 1156 2273 1281 
Q 2116 1406 1581 1522 
L 1381 1569 
Q 847 1681 609 1914 
Q 372 2147 372 2553 
Q 372 3047 722 3315 
Q 1072 3584 1716 3584 
Q 2034 3584 2315 3537 
Q 2597 3491 2834 3397 
z
" transform="scale(0.015625)"/>
      </defs>
      <use xlink:href="#DejaVuSans-6f"/>
      <use xlink:href="#DejaVuSans-6e" x="61.181641"/>
      <use xlink:href="#DejaVuSans-2d" x="124.560547"/>
      <use xlink:href="#DejaVuSans-70" x="160.644531"/>
      <use xlink:href="#DejaVuSans-72" x="224.121094"/>
      <use xlink:href="#DejaVuSans-65" x="262.984375"/>
      <use xlink:href="#DejaVuSans-6d" x="324.507812"/>
      <use xlink:href="#DejaVuSans-69" x="421.919922"/>
      <use xlink:href="#DejaVuSans-73" x="449.703125"/>
      <use xlink:href="#DejaVuSans-65" x="501.802734"/>
      <use xlink:href="#DejaVuSans-73" x="563.326172"/>
      <use xlink:href="#DejaVuSans-2f" x="615.425781"/>
      <use xlink:href="#DejaVuSans-6c" x="649.117188"/>
      <use xlink:href="#DejaVuSans-61" x="676.900391"/>
      <use xlink:href="#DejaVuSans-73" x="738.179688"/>
      <use xlink:href="#DejaVuSans-73" x="790.279297"/>
      <use xlink:href="#DejaVuSans-65" x="842.378906"/>
      <use xlink:href="#DejaVuSans-6e" x="903.902344"/>
      <use xlink:href="#DejaVuSans-2f" x="967.28125"/>
      <use xlink:href="#DejaVuSans-67" x="1000.972656"/>
      <use xlink:href="#DejaVuSans-70" x="1064.449219"/>
      <use xlink:href="#DejaVuSans-75" x="1127.925781"/>
     </g>
    </g>
    <g id="line2d_16">
     <defs>
      <path id="me9ec07f3a4" d="M 0 2.5 
C 0.663008 2.5 1.29895 2.236584 1.767767 1.767767 
C 2.236584 1.29895 2.5 0.663008 2.5 0 
C 2.5 -0.663008 2.236584 -1.29895 1.767767 -1.767767 
C 1.29895 -2.236584 0.663008 -2.5 0 -2.5 
C -0.663008 -2.5 -1.29895 -2.236584 -1.767767 -1.767767 
C -2.236584 -1.29895 -2.5 -0.663008 -2.5 0 
C -2.5 0.663008 -2.236584 1.29895 -1.767767 1.767767 
C -1.29895 2.236584 -0.663008 2.5 0 2.5 
z
"/>
     </defs>
     <g>
      <use xlink:href="#me9ec07f3a4" x="68.0825" y="90.110094" style="fill: #4878d0"/>
     </g>
    </g>
    <g id="text_18">
     <!-- aws/eks/gpu -->
     <g style="fill: #262626" transform="translate(87.8825 93.960094) scale(0.11 -0.11)">
      <defs>
       <path id="DejaVuSans-77" d="M 269 3500 
L 844 3500 
L 1563 769 
L 2278 3500 
L 2956 3500 
L 3675 769 
L 4391 3500 
L 4966 3500 
L 4050 0 
L 3372 0 
L 2619 2869 
L 1863 0 
L 1184 0 
L 269 3500 
z
" transform="scale(0.015625)"/>
      </defs>
      <use xlink:href="#DejaVuSans-61"/>
      <use xlink:href="#DejaVuSans-77" x="61.279297"/>
      <use xlink:href="#DejaVuSans-73" x="143.066406"/>
      <use xlink:href="#DejaVuSans-2f" x="195.166016"/>
      <use xlink:href="#DejaVuSans-65" x="228.857422"/>
      <use xlink:href="#DejaVuSans-6b" x="290.380859"/>
      <use xlink:href="#DejaVuSans-73" x="348.291016"/>
      <use xlink:href="#DejaVuSans-2f" x="400.390625"/>
      <use xlink:href="#DejaVuSans-67" x="434.082031"/>
      <use xlink:href="#DejaVuSans-70" x="497.558594"/>
      <use xlink:href="#DejaVuSans-75" x="561.035156"/>
     </g>
    </g>
    <g id="line2d_17">
     <defs>
      <path id="md4a0fef8c8" d="M -2.5 -0 
L 2.5 2.5 
L 2.5 -2.5 
z
"/>
     </defs>
     <g>
      <use xlink:href="#md4a0fef8c8" x="68.0825" y="106.256031" style="fill: #d65f5f"/>
     </g>
    </g>
    <g id="text_19">
     <!-- azure/cyclecloud/gpu -->
     <g style="fill: #262626" transform="translate(87.8825 110.106031) scale(0.11 -0.11)">
      <defs>
       <path id="DejaVuSans-7a" d="M 353 3500 
L 3084 3500 
L 3084 2975 
L 922 459 
L 3084 459 
L 3084 0 
L 275 0 
L 275 525 
L 2438 3041 
L 353 3041 
L 353 3500 
z
" transform="scale(0.015625)"/>
       <path id="DejaVuSans-79" d="M 2059 -325 
Q 1816 -950 1584 -1140 
Q 1353 -1331 966 -1331 
L 506 -1331 
L 506 -850 
L 844 -850 
Q 1081 -850 1212 -737 
Q 1344 -625 1503 -206 
L 1606 56 
L 191 3500 
L 800 3500 
L 1894 763 
L 2988 3500 
L 3597 3500 
L 2059 -325 
z
" transform="scale(0.015625)"/>
       <path id="DejaVuSans-64" d="M 2906 2969 
L 2906 4863 
L 3481 4863 
L 3481 0 
L 2906 0 
L 2906 525 
Q 2725 213 2448 61 
Q 2172 -91 1784 -91 
Q 1150 -91 751 415 
Q 353 922 353 1747 
Q 353 2572 751 3078 
Q 1150 3584 1784 3584 
Q 2172 3584 2448 3432 
Q 2725 3281 2906 2969 
z
M 947 1747 
Q 947 1113 1208 752 
Q 1469 391 1925 391 
Q 2381 391 2643 752 
Q 2906 1113 2906 1747 
Q 2906 2381 2643 2742 
Q 2381 3103 1925 3103 
Q 1469 3103 1208 2742 
Q 947 2381 947 1747 
z
" transform="scale(0.015625)"/>
      </defs>
      <use xlink:href="#DejaVuSans-61"/>
      <use xlink:href="#DejaVuSans-7a" x="61.279297"/>
      <use xlink:href="#DejaVuSans-75" x="113.769531"/>
      <use xlink:href="#DejaVuSans-72" x="177.148438"/>
      <use xlink:href="#DejaVuSans-65" x="216.011719"/>
      <use xlink:href="#DejaVuSans-2f" x="277.535156"/>
      <use xlink:href="#DejaVuSans-63" x="311.226562"/>
      <use xlink:href="#DejaVuSans-79" x="366.207031"/>
      <use xlink:href="#DejaVuSans-63" x="425.386719"/>
      <use xlink:href="#DejaVuSans-6c" x="480.367188"/>
      <use xlink:href="#DejaVuSans-65" x="508.150391"/>
      <use xlink:href="#DejaVuSans-63" x="569.673828"/>
      <use xlink:href="#DejaVuSans-6c" x="624.654297"/>
      <use xlink:href="#DejaVuSans-6f" x="652.4375"/>
      <use xlink:href="#DejaVuSans-75" x="713.619141"/>
      <use xlink:href="#DejaVuSans-64" x="776.998047"/>
      <use xlink:href="#DejaVuSans-2f" x="840.474609"/>
      <use xlink:href="#DejaVuSans-67" x="874.166016"/>
      <use xlink:href="#DejaVuSans-70" x="937.642578"/>
      <use xlink:href="#DejaVuSans-75" x="1001.119141"/>
     </g>
    </g>
    <g id="line2d_18">
     <defs>
      <path id="m50a766d167" d="M -0 3.535534 
L 2.12132 0 
L -0 -3.535534 
L -2.12132 -0 
z
"/>
     </defs>
     <g>
      <use xlink:href="#m50a766d167" x="68.0825" y="122.401969" style="fill: #008000"/>
     </g>
    </g>
    <g id="text_20">
     <!-- azure/aks/gpu -->
     <g style="fill: #262626" transform="translate(87.8825 126.251969) scale(0.11 -0.11)">
      <use xlink:href="#DejaVuSans-61"/>
      <use xlink:href="#DejaVuSans-7a" x="61.279297"/>
      <use xlink:href="#DejaVuSans-75" x="113.769531"/>
      <use xlink:href="#DejaVuSans-72" x="177.148438"/>
      <use xlink:href="#DejaVuSans-65" x="216.011719"/>
      <use xlink:href="#DejaVuSans-2f" x="277.535156"/>
      <use xlink:href="#DejaVuSans-61" x="311.226562"/>
      <use xlink:href="#DejaVuSans-6b" x="372.505859"/>
      <use xlink:href="#DejaVuSans-73" x="430.416016"/>
      <use xlink:href="#DejaVuSans-2f" x="482.515625"/>
      <use xlink:href="#DejaVuSans-67" x="516.207031"/>
      <use xlink:href="#DejaVuSans-70" x="579.683594"/>
      <use xlink:href="#DejaVuSans-75" x="643.160156"/>
     </g>
    </g>
   </g>
  </g>
 </g>
 <defs>
  <clipPath id="pd85e1639b3">
   <rect x="47.1825" y="27.264" width="263.8575" height="354.516"/>
  </clipPath>
 </defs>
</svg>
