<?xml version="1.0" encoding="utf-8" standalone="no"?>
<!DOCTYPE svg PUBLIC "-//W3C//DTD SVG 1.1//EN"
  "http://www.w3.org/Graphics/SVG/1.1/DTD/svg11.dtd">
<svg xmlns:xlink="http://www.w3.org/1999/xlink" width="324pt" height="432pt" viewBox="0 0 324 432" xmlns="http://www.w3.org/2000/svg" version="1.1">
 <metadata>
  <rdf:RDF xmlns:dc="http://purl.org/dc/elements/1.1/" xmlns:cc="http://creativecommons.org/ns#" xmlns:rdf="http://www.w3.org/1999/02/22-rdf-syntax-ns#">
   <cc:Work>
    <dc:type rdf:resource="http://purl.org/dc/dcmitype/StillImage"/>
    <dc:date>2025-01-15T20:37:07.350345</dc:date>
    <dc:format>image/svg+xml</dc:format>
    <dc:creator>
     <cc:Agent>
      <dc:title>Matplotlib v3.8.4, https://matplotlib.org/</dc:title>
     </cc:Agent>
    </dc:creator>
   </cc:Work>
  </rdf:RDF>
 </metadata>
 <defs>
  <style type="text/css">*{stroke-linejoin: round; stroke-linecap: butt}</style>
 </defs>
 <g id="figure_1">
  <g id="patch_1">
   <path d="M 0 432 
L 324 432 
L 324 0 
L 0 0 
z
" style="fill: #ffffff"/>
  </g>
  <g id="axes_1">
   <g id="patch_2">
    <path d="M 71.01 381.78 
L 311.04 381.78 
L 311.04 26.16 
L 71.01 26.16 
z
" style="fill: #ffffff"/>
   </g>
   <g id="matplotlib.axis_1">
    <g id="xtick_1">
     <g id="text_1">
      <!-- 32 -->
      <g style="fill: #262626" transform="translate(94.015 399.638281) scale(0.11 -0.11)">
       <defs>
        <path id="DejaVuSans-33" d="M 2597 2516 
Q 3050 2419 3304 2112 
Q 3559 1806 3559 1356 
Q 3559 666 3084 287 
Q 2609 -91 1734 -91 
Q 1441 -91 1130 -33 
Q 819 25 488 141 
L 488 750 
Q 750 597 1062 519 
Q 1375 441 1716 441 
Q 2309 441 2620 675 
Q 2931 909 2931 1356 
Q 2931 1769 2642 2001 
Q 2353 2234 1838 2234 
L 1294 2234 
L 1294 2753 
L 1863 2753 
Q 2328 2753 2575 2939 
Q 2822 3125 2822 3475 
Q 2822 3834 2567 4026 
Q 2313 4219 1838 4219 
Q 1578 4219 1281 4162 
Q 984 4106 628 3988 
L 628 4550 
Q 988 4650 1302 4700 
Q 1616 4750 1894 4750 
Q 2613 4750 3031 4423 
Q 3450 4097 3450 3541 
Q 3450 3153 3228 2886 
Q 3006 2619 2597 2516 
z
" transform="scale(0.015625)"/>
        <path id="DejaVuSans-32" d="M 1228 531 
L 3431 531 
L 3431 0 
L 469 0 
L 469 531 
Q 828 903 1448 1529 
Q 2069 2156 2228 2338 
Q 2531 2678 2651 2914 
Q 2772 3150 2772 3378 
Q 2772 3750 2511 3984 
Q 2250 4219 1831 4219 
Q 1534 4219 1204 4116 
Q 875 4013 500 3803 
L 500 4441 
Q 881 4594 1212 4672 
Q 1544 4750 1819 4750 
Q 2544 4750 2975 4387 
Q 3406 4025 3406 3419 
Q 3406 3131 3298 2873 
Q 3191 2616 2906 2266 
Q 2828 2175 2409 1742 
Q 1991 1309 1228 531 
z
" transform="scale(0.015625)"/>
       </defs>
       <use xlink:href="#DejaVuSans-33"/>
       <use xlink:href="#DejaVuSans-32" x="63.623047"/>
      </g>
     </g>
    </g>
    <g id="xtick_2">
     <g id="text_2">
      <!-- 64 -->
      <g style="fill: #262626" transform="translate(154.0225 399.638281) scale(0.11 -0.11)">
       <defs>
        <path id="DejaVuSans-36" d="M 2113 2584 
Q 1688 2584 1439 2293 
Q 1191 2003 1191 1497 
Q 1191 994 1439 701 
Q 1688 409 2113 409 
Q 2538 409 2786 701 
Q 3034 994 3034 1497 
Q 3034 2003 2786 2293 
Q 2538 2584 2113 2584 
z
M 3366 4563 
L 3366 3988 
Q 3128 4100 2886 4159 
Q 2644 4219 2406 4219 
Q 1781 4219 1451 3797 
Q 1122 3375 1075 2522 
Q 1259 2794 1537 2939 
Q 1816 3084 2150 3084 
Q 2853 3084 3261 2657 
Q 3669 2231 3669 1497 
Q 3669 778 3244 343 
Q 2819 -91 2113 -91 
Q 1303 -91 875 529 
Q 447 1150 447 2328 
Q 447 3434 972 4092 
Q 1497 4750 2381 4750 
Q 2619 4750 2861 4703 
Q 3103 4656 3366 4563 
z
" transform="scale(0.015625)"/>
        <path id="DejaVuSans-34" d="M 2419 4116 
L 825 1625 
L 2419 1625 
L 2419 4116 
z
M 2253 4666 
L 3047 4666 
L 3047 1625 
L 3713 1625 
L 3713 1100 
L 3047 1100 
L 3047 0 
L 2419 0 
L 2419 1100 
L 313 1100 
L 313 1709 
L 2253 4666 
z
" transform="scale(0.015625)"/>
       </defs>
       <use xlink:href="#DejaVuSans-36"/>
       <use xlink:href="#DejaVuSans-34" x="63.623047"/>
      </g>
     </g>
    </g>
    <g id="xtick_3">
     <g id="text_3">
      <!-- 128 -->
      <g style="fill: #262626" transform="translate(210.530625 399.638281) scale(0.11 -0.11)">
       <defs>
        <path id="DejaVuSans-31" d="M 794 531 
L 1825 531 
L 1825 4091 
L 703 3866 
L 703 4441 
L 1819 4666 
L 2450 4666 
L 2450 531 
L 3481 531 
L 3481 0 
L 794 0 
L 794 531 
z
" transform="scale(0.015625)"/>
        <path id="DejaVuSans-38" d="M 2034 2216 
Q 1584 2216 1326 1975 
Q 1069 1734 1069 1313 
Q 1069 891 1326 650 
Q 1584 409 2034 409 
Q 2484 409 2743 651 
Q 3003 894 3003 1313 
Q 3003 1734 2745 1975 
Q 2488 2216 2034 2216 
z
M 1403 2484 
Q 997 2584 770 2862 
Q 544 3141 544 3541 
Q 544 4100 942 4425 
Q 1341 4750 2034 4750 
Q 2731 4750 3128 4425 
Q 3525 4100 3525 3541 
Q 3525 3141 3298 2862 
Q 3072 2584 2669 2484 
Q 3125 2378 3379 2068 
Q 3634 1759 3634 1313 
Q 3634 634 3220 271 
Q 2806 -91 2034 -91 
Q 1263 -91 848 271 
Q 434 634 434 1313 
Q 434 1759 690 2068 
Q 947 2378 1403 2484 
z
M 1172 3481 
Q 1172 3119 1398 2916 
Q 1625 2713 2034 2713 
Q 2441 2713 2670 2916 
Q 2900 3119 2900 3481 
Q 2900 3844 2670 4047 
Q 2441 4250 2034 4250 
Q 1625 4250 1398 4047 
Q 1172 3844 1172 3481 
z
" transform="scale(0.015625)"/>
       </defs>
       <use xlink:href="#DejaVuSans-31"/>
       <use xlink:href="#DejaVuSans-32" x="63.623047"/>
       <use xlink:href="#DejaVuSans-38" x="127.246094"/>
      </g>
     </g>
    </g>
    <g id="xtick_4">
     <g id="text_4">
      <!-- 256 -->
      <g style="fill: #262626" transform="translate(270.538125 399.638281) scale(0.11 -0.11)">
       <defs>
        <path id="DejaVuSans-35" d="M 691 4666 
L 3169 4666 
L 3169 4134 
L 1269 4134 
L 1269 2991 
Q 1406 3038 1543 3061 
Q 1681 3084 1819 3084 
Q 2600 3084 3056 2656 
Q 3513 2228 3513 1497 
Q 3513 744 3044 326 
Q 2575 -91 1722 -91 
Q 1428 -91 1123 -41 
Q 819 9 494 109 
L 494 744 
Q 775 591 1075 516 
Q 1375 441 1709 441 
Q 2250 441 2565 725 
Q 2881 1009 2881 1497 
Q 2881 1984 2565 2268 
Q 2250 2553 1709 2553 
Q 1456 2553 1204 2497 
Q 953 2441 691 2322 
L 691 4666 
z
" transform="scale(0.015625)"/>
       </defs>
       <use xlink:href="#DejaVuSans-32"/>
       <use xlink:href="#DejaVuSans-35" x="63.623047"/>
       <use xlink:href="#DejaVuSans-36" x="127.246094"/>
      </g>
     </g>
    </g>
    <g id="text_5">
     <!-- Nodes -->
     <g style="fill: #262626" transform="translate(170.672891 415.803906) scale(0.13 -0.13)">
      <defs>
       <path id="DejaVuSans-4e" d="M 628 4666 
L 1478 4666 
L 3547 763 
L 3547 4666 
L 4159 4666 
L 4159 0 
L 3309 0 
L 1241 3903 
L 1241 0 
L 628 0 
L 628 4666 
z
" transform="scale(0.015625)"/>
       <path id="DejaVuSans-6f" d="M 1959 3097 
Q 1497 3097 1228 2736 
Q 959 2375 959 1747 
Q 959 1119 1226 758 
Q 1494 397 1959 397 
Q 2419 397 2687 759 
Q 2956 1122 2956 1747 
Q 2956 2369 2687 2733 
Q 2419 3097 1959 3097 
z
M 1959 3584 
Q 2709 3584 3137 3096 
Q 3566 2609 3566 1747 
Q 3566 888 3137 398 
Q 2709 -91 1959 -91 
Q 1206 -91 779 398 
Q 353 888 353 1747 
Q 353 2609 779 3096 
Q 1206 3584 1959 3584 
z
" transform="scale(0.015625)"/>
       <path id="DejaVuSans-64" d="M 2906 2969 
L 2906 4863 
L 3481 4863 
L 3481 0 
L 2906 0 
L 2906 525 
Q 2725 213 2448 61 
Q 2172 -91 1784 -91 
Q 1150 -91 751 415 
Q 353 922 353 1747 
Q 353 2572 751 3078 
Q 1150 3584 1784 3584 
Q 2172 3584 2448 3432 
Q 2725 3281 2906 2969 
z
M 947 1747 
Q 947 1113 1208 752 
Q 1469 391 1925 391 
Q 2381 391 2643 752 
Q 2906 1113 2906 1747 
Q 2906 2381 2643 2742 
Q 2381 3103 1925 3103 
Q 1469 3103 1208 2742 
Q 947 2381 947 1747 
z
" transform="scale(0.015625)"/>
       <path id="DejaVuSans-65" d="M 3597 1894 
L 3597 1613 
L 953 1613 
Q 991 1019 1311 708 
Q 1631 397 2203 397 
Q 2534 397 2845 478 
Q 3156 559 3463 722 
L 3463 178 
Q 3153 47 2828 -22 
Q 2503 -91 2169 -91 
Q 1331 -91 842 396 
Q 353 884 353 1716 
Q 353 2575 817 3079 
Q 1281 3584 2069 3584 
Q 2775 3584 3186 3129 
Q 3597 2675 3597 1894 
z
M 3022 2063 
Q 3016 2534 2758 2815 
Q 2500 3097 2075 3097 
Q 1594 3097 1305 2825 
Q 1016 2553 972 2059 
L 3022 2063 
z
" transform="scale(0.015625)"/>
       <path id="DejaVuSans-73" d="M 2834 3397 
L 2834 2853 
Q 2591 2978 2328 3040 
Q 2066 3103 1784 3103 
Q 1356 3103 1142 2972 
Q 928 2841 928 2578 
Q 928 2378 1081 2264 
Q 1234 2150 1697 2047 
L 1894 2003 
Q 2506 1872 2764 1633 
Q 3022 1394 3022 966 
Q 3022 478 2636 193 
Q 2250 -91 1575 -91 
Q 1294 -91 989 -36 
Q 684 19 347 128 
L 347 722 
Q 666 556 975 473 
Q 1284 391 1588 391 
Q 1994 391 2212 530 
Q 2431 669 2431 922 
Q 2431 1156 2273 1281 
Q 2116 1406 1581 1522 
L 1381 1569 
Q 847 1681 609 1914 
Q 372 2147 372 2553 
Q 372 3047 722 3315 
Q 1072 3584 1716 3584 
Q 2034 3584 2315 3537 
Q 2597 3491 2834 3397 
z
" transform="scale(0.015625)"/>
      </defs>
      <use xlink:href="#DejaVuSans-4e"/>
      <use xlink:href="#DejaVuSans-6f" x="74.804688"/>
      <use xlink:href="#DejaVuSans-64" x="135.986328"/>
      <use xlink:href="#DejaVuSans-65" x="199.462891"/>
      <use xlink:href="#DejaVuSans-73" x="260.986328"/>
     </g>
    </g>
   </g>
   <g id="matplotlib.axis_2">
    <g id="ytick_1">
     <g id="line2d_1">
      <path d="M 71.01 381.577618 
L 311.04 381.577618 
" clip-path="url(#pb527c2c88e)" style="fill: none; stroke: #cccccc; stroke-linecap: round"/>
     </g>
     <g id="text_6">
      <!-- 0.000 -->
      <g style="fill: #262626" transform="translate(30.019063 385.756758) scale(0.11 -0.11)">
       <defs>
        <path id="DejaVuSans-30" d="M 2034 4250 
Q 1547 4250 1301 3770 
Q 1056 3291 1056 2328 
Q 1056 1369 1301 889 
Q 1547 409 2034 409 
Q 2525 409 2770 889 
Q 3016 1369 3016 2328 
Q 3016 3291 2770 3770 
Q 2525 4250 2034 4250 
z
M 2034 4750 
Q 2819 4750 3233 4129 
Q 3647 3509 3647 2328 
Q 3647 1150 3233 529 
Q 2819 -91 2034 -91 
Q 1250 -91 836 529 
Q 422 1150 422 2328 
Q 422 3509 836 4129 
Q 1250 4750 2034 4750 
z
" transform="scale(0.015625)"/>
        <path id="DejaVuSans-2e" d="M 684 794 
L 1344 794 
L 1344 0 
L 684 0 
L 684 794 
z
" transform="scale(0.015625)"/>
       </defs>
       <use xlink:href="#DejaVuSans-30"/>
       <use xlink:href="#DejaVuSans-2e" x="63.623047"/>
       <use xlink:href="#DejaVuSans-30" x="95.410156"/>
       <use xlink:href="#DejaVuSans-30" x="159.033203"/>
       <use xlink:href="#DejaVuSans-30" x="222.65625"/>
      </g>
     </g>
    </g>
    <g id="ytick_2">
     <g id="line2d_2">
      <path d="M 71.01 307.085675 
L 311.04 307.085675 
" clip-path="url(#pb527c2c88e)" style="fill: none; stroke: #cccccc; stroke-linecap: round"/>
     </g>
     <g id="text_7">
      <!-- 0.500 -->
      <g style="fill: #262626" transform="translate(30.019063 311.264816) scale(0.11 -0.11)">
       <use xlink:href="#DejaVuSans-30"/>
       <use xlink:href="#DejaVuSans-2e" x="63.623047"/>
       <use xlink:href="#DejaVuSans-35" x="95.410156"/>
       <use xlink:href="#DejaVuSans-30" x="159.033203"/>
       <use xlink:href="#DejaVuSans-30" x="222.65625"/>
      </g>
     </g>
    </g>
    <g id="ytick_3">
     <g id="line2d_3">
      <path d="M 71.01 232.593733 
L 311.04 232.593733 
" clip-path="url(#pb527c2c88e)" style="fill: none; stroke: #cccccc; stroke-linecap: round"/>
     </g>
     <g id="text_8">
      <!-- 1.000 -->
      <g style="fill: #262626" transform="translate(30.019063 236.772873) scale(0.11 -0.11)">
       <use xlink:href="#DejaVuSans-31"/>
       <use xlink:href="#DejaVuSans-2e" x="63.623047"/>
       <use xlink:href="#DejaVuSans-30" x="95.410156"/>
       <use xlink:href="#DejaVuSans-30" x="159.033203"/>
       <use xlink:href="#DejaVuSans-30" x="222.65625"/>
      </g>
     </g>
    </g>
    <g id="ytick_4">
     <g id="line2d_4">
      <path d="M 71.01 158.10179 
L 311.04 158.10179 
" clip-path="url(#pb527c2c88e)" style="fill: none; stroke: #cccccc; stroke-linecap: round"/>
     </g>
     <g id="text_9">
      <!-- 1.500 -->
      <g style="fill: #262626" transform="translate(30.019063 162.280931) scale(0.11 -0.11)">
       <use xlink:href="#DejaVuSans-31"/>
       <use xlink:href="#DejaVuSans-2e" x="63.623047"/>
       <use xlink:href="#DejaVuSans-35" x="95.410156"/>
       <use xlink:href="#DejaVuSans-30" x="159.033203"/>
       <use xlink:href="#DejaVuSans-30" x="222.65625"/>
      </g>
     </g>
    </g>
    <g id="ytick_5">
     <g id="line2d_5">
      <path d="M 71.01 83.609848 
L 311.04 83.609848 
" clip-path="url(#pb527c2c88e)" style="fill: none; stroke: #cccccc; stroke-linecap: round"/>
     </g>
     <g id="text_10">
      <!-- 2.000 -->
      <g style="fill: #262626" transform="translate(30.019063 87.788988) scale(0.11 -0.11)">
       <use xlink:href="#DejaVuSans-32"/>
       <use xlink:href="#DejaVuSans-2e" x="63.623047"/>
       <use xlink:href="#DejaVuSans-30" x="95.410156"/>
       <use xlink:href="#DejaVuSans-30" x="159.033203"/>
       <use xlink:href="#DejaVuSans-30" x="222.65625"/>
      </g>
     </g>
    </g>
    <g id="text_11">
     <!-- Total Cg Mflops (Speedup) -->
     <g style="fill: #262626" transform="translate(23.315469 288.900625) rotate(-90) scale(0.13 -0.13)">
      <defs>
       <path id="DejaVuSans-54" d="M -19 4666 
L 3928 4666 
L 3928 4134 
L 2272 4134 
L 2272 0 
L 1638 0 
L 1638 4134 
L -19 4134 
L -19 4666 
z
" transform="scale(0.015625)"/>
       <path id="DejaVuSans-74" d="M 1172 4494 
L 1172 3500 
L 2356 3500 
L 2356 3053 
L 1172 3053 
L 1172 1153 
Q 1172 725 1289 603 
Q 1406 481 1766 481 
L 2356 481 
L 2356 0 
L 1766 0 
Q 1100 0 847 248 
Q 594 497 594 1153 
L 594 3053 
L 172 3053 
L 172 3500 
L 594 3500 
L 594 4494 
L 1172 4494 
z
" transform="scale(0.015625)"/>
       <path id="DejaVuSans-61" d="M 2194 1759 
Q 1497 1759 1228 1600 
Q 959 1441 959 1056 
Q 959 750 1161 570 
Q 1363 391 1709 391 
Q 2188 391 2477 730 
Q 2766 1069 2766 1631 
L 2766 1759 
L 2194 1759 
z
M 3341 1997 
L 3341 0 
L 2766 0 
L 2766 531 
Q 2569 213 2275 61 
Q 1981 -91 1556 -91 
Q 1019 -91 701 211 
Q 384 513 384 1019 
Q 384 1609 779 1909 
Q 1175 2209 1959 2209 
L 2766 2209 
L 2766 2266 
Q 2766 2663 2505 2880 
Q 2244 3097 1772 3097 
Q 1472 3097 1187 3025 
Q 903 2953 641 2809 
L 641 3341 
Q 956 3463 1253 3523 
Q 1550 3584 1831 3584 
Q 2591 3584 2966 3190 
Q 3341 2797 3341 1997 
z
" transform="scale(0.015625)"/>
       <path id="DejaVuSans-6c" d="M 603 4863 
L 1178 4863 
L 1178 0 
L 603 0 
L 603 4863 
z
" transform="scale(0.015625)"/>
       <path id="DejaVuSans-20" transform="scale(0.015625)"/>
       <path id="DejaVuSans-43" d="M 4122 4306 
L 4122 3641 
Q 3803 3938 3442 4084 
Q 3081 4231 2675 4231 
Q 1875 4231 1450 3742 
Q 1025 3253 1025 2328 
Q 1025 1406 1450 917 
Q 1875 428 2675 428 
Q 3081 428 3442 575 
Q 3803 722 4122 1019 
L 4122 359 
Q 3791 134 3420 21 
Q 3050 -91 2638 -91 
Q 1578 -91 968 557 
Q 359 1206 359 2328 
Q 359 3453 968 4101 
Q 1578 4750 2638 4750 
Q 3056 4750 3426 4639 
Q 3797 4528 4122 4306 
z
" transform="scale(0.015625)"/>
       <path id="DejaVuSans-67" d="M 2906 1791 
Q 2906 2416 2648 2759 
Q 2391 3103 1925 3103 
Q 1463 3103 1205 2759 
Q 947 2416 947 1791 
Q 947 1169 1205 825 
Q 1463 481 1925 481 
Q 2391 481 2648 825 
Q 2906 1169 2906 1791 
z
M 3481 434 
Q 3481 -459 3084 -895 
Q 2688 -1331 1869 -1331 
Q 1566 -1331 1297 -1286 
Q 1028 -1241 775 -1147 
L 775 -588 
Q 1028 -725 1275 -790 
Q 1522 -856 1778 -856 
Q 2344 -856 2625 -561 
Q 2906 -266 2906 331 
L 2906 616 
Q 2728 306 2450 153 
Q 2172 0 1784 0 
Q 1141 0 747 490 
Q 353 981 353 1791 
Q 353 2603 747 3093 
Q 1141 3584 1784 3584 
Q 2172 3584 2450 3431 
Q 2728 3278 2906 2969 
L 2906 3500 
L 3481 3500 
L 3481 434 
z
" transform="scale(0.015625)"/>
       <path id="DejaVuSans-4d" d="M 628 4666 
L 1569 4666 
L 2759 1491 
L 3956 4666 
L 4897 4666 
L 4897 0 
L 4281 0 
L 4281 4097 
L 3078 897 
L 2444 897 
L 1241 4097 
L 1241 0 
L 628 0 
L 628 4666 
z
" transform="scale(0.015625)"/>
       <path id="DejaVuSans-66" d="M 2375 4863 
L 2375 4384 
L 1825 4384 
Q 1516 4384 1395 4259 
Q 1275 4134 1275 3809 
L 1275 3500 
L 2222 3500 
L 2222 3053 
L 1275 3053 
L 1275 0 
L 697 0 
L 697 3053 
L 147 3053 
L 147 3500 
L 697 3500 
L 697 3744 
Q 697 4328 969 4595 
Q 1241 4863 1831 4863 
L 2375 4863 
z
" transform="scale(0.015625)"/>
       <path id="DejaVuSans-70" d="M 1159 525 
L 1159 -1331 
L 581 -1331 
L 581 3500 
L 1159 3500 
L 1159 2969 
Q 1341 3281 1617 3432 
Q 1894 3584 2278 3584 
Q 2916 3584 3314 3078 
Q 3713 2572 3713 1747 
Q 3713 922 3314 415 
Q 2916 -91 2278 -91 
Q 1894 -91 1617 61 
Q 1341 213 1159 525 
z
M 3116 1747 
Q 3116 2381 2855 2742 
Q 2594 3103 2138 3103 
Q 1681 3103 1420 2742 
Q 1159 2381 1159 1747 
Q 1159 1113 1420 752 
Q 1681 391 2138 391 
Q 2594 391 2855 752 
Q 3116 1113 3116 1747 
z
" transform="scale(0.015625)"/>
       <path id="DejaVuSans-28" d="M 1984 4856 
Q 1566 4138 1362 3434 
Q 1159 2731 1159 2009 
Q 1159 1288 1364 580 
Q 1569 -128 1984 -844 
L 1484 -844 
Q 1016 -109 783 600 
Q 550 1309 550 2009 
Q 550 2706 781 3412 
Q 1013 4119 1484 4856 
L 1984 4856 
z
" transform="scale(0.015625)"/>
       <path id="DejaVuSans-53" d="M 3425 4513 
L 3425 3897 
Q 3066 4069 2747 4153 
Q 2428 4238 2131 4238 
Q 1616 4238 1336 4038 
Q 1056 3838 1056 3469 
Q 1056 3159 1242 3001 
Q 1428 2844 1947 2747 
L 2328 2669 
Q 3034 2534 3370 2195 
Q 3706 1856 3706 1288 
Q 3706 609 3251 259 
Q 2797 -91 1919 -91 
Q 1588 -91 1214 -16 
Q 841 59 441 206 
L 441 856 
Q 825 641 1194 531 
Q 1563 422 1919 422 
Q 2459 422 2753 634 
Q 3047 847 3047 1241 
Q 3047 1584 2836 1778 
Q 2625 1972 2144 2069 
L 1759 2144 
Q 1053 2284 737 2584 
Q 422 2884 422 3419 
Q 422 4038 858 4394 
Q 1294 4750 2059 4750 
Q 2388 4750 2728 4690 
Q 3069 4631 3425 4513 
z
" transform="scale(0.015625)"/>
       <path id="DejaVuSans-75" d="M 544 1381 
L 544 3500 
L 1119 3500 
L 1119 1403 
Q 1119 906 1312 657 
Q 1506 409 1894 409 
Q 2359 409 2629 706 
Q 2900 1003 2900 1516 
L 2900 3500 
L 3475 3500 
L 3475 0 
L 2900 0 
L 2900 538 
Q 2691 219 2414 64 
Q 2138 -91 1772 -91 
Q 1169 -91 856 284 
Q 544 659 544 1381 
z
M 1991 3584 
L 1991 3584 
z
" transform="scale(0.015625)"/>
       <path id="DejaVuSans-29" d="M 513 4856 
L 1013 4856 
Q 1481 4119 1714 3412 
Q 1947 2706 1947 2009 
Q 1947 1309 1714 600 
Q 1481 -109 1013 -844 
L 513 -844 
Q 928 -128 1133 580 
Q 1338 1288 1338 2009 
Q 1338 2731 1133 3434 
Q 928 4138 513 4856 
z
" transform="scale(0.015625)"/>
      </defs>
      <use xlink:href="#DejaVuSans-54"/>
      <use xlink:href="#DejaVuSans-6f" x="44.083984"/>
      <use xlink:href="#DejaVuSans-74" x="105.265625"/>
      <use xlink:href="#DejaVuSans-61" x="144.474609"/>
      <use xlink:href="#DejaVuSans-6c" x="205.753906"/>
      <use xlink:href="#DejaVuSans-20" x="233.537109"/>
      <use xlink:href="#DejaVuSans-43" x="265.324219"/>
      <use xlink:href="#DejaVuSans-67" x="335.148438"/>
      <use xlink:href="#DejaVuSans-20" x="398.625"/>
      <use xlink:href="#DejaVuSans-4d" x="430.412109"/>
      <use xlink:href="#DejaVuSans-66" x="516.691406"/>
      <use xlink:href="#DejaVuSans-6c" x="551.896484"/>
      <use xlink:href="#DejaVuSans-6f" x="579.679688"/>
      <use xlink:href="#DejaVuSans-70" x="640.861328"/>
      <use xlink:href="#DejaVuSans-73" x="704.337891"/>
      <use xlink:href="#DejaVuSans-20" x="756.4375"/>
      <use xlink:href="#DejaVuSans-28" x="788.224609"/>
      <use xlink:href="#DejaVuSans-53" x="827.238281"/>
      <use xlink:href="#DejaVuSans-70" x="890.714844"/>
      <use xlink:href="#DejaVuSans-65" x="954.191406"/>
      <use xlink:href="#DejaVuSans-65" x="1015.714844"/>
      <use xlink:href="#DejaVuSans-64" x="1077.238281"/>
      <use xlink:href="#DejaVuSans-75" x="1140.714844"/>
      <use xlink:href="#DejaVuSans-70" x="1204.09375"/>
      <use xlink:href="#DejaVuSans-29" x="1267.570312"/>
     </g>
    </g>
   </g>
   <g id="patch_3">
    <path d="M 71.01 381.78 
L 71.01 26.16 
" style="fill: none; stroke: #cccccc; stroke-width: 1.25; stroke-linejoin: miter; stroke-linecap: square"/>
   </g>
   <g id="patch_4">
    <path d="M 311.04 381.78 
L 311.04 26.16 
" style="fill: none; stroke: #cccccc; stroke-width: 1.25; stroke-linejoin: miter; stroke-linecap: square"/>
   </g>
   <g id="patch_5">
    <path d="M 71.01 381.78 
L 311.04 381.78 
" style="fill: none; stroke: #cccccc; stroke-width: 1.25; stroke-linejoin: miter; stroke-linecap: square"/>
   </g>
   <g id="patch_6">
    <path d="M 71.01 26.16 
L 311.04 26.16 
" style="fill: none; stroke: #cccccc; stroke-width: 1.25; stroke-linejoin: miter; stroke-linecap: square"/>
   </g>
   <g id="PathCollection_1">
    <defs>
     <path id="C0_0_6188696581" d="M 0 2.5 
C 0.663008 2.5 1.29895 2.236584 1.767767 1.767767 
C 2.236584 1.29895 2.5 0.663008 2.5 -0 
C 2.5 -0.663008 2.236584 -1.29895 1.767767 -1.767767 
C 1.29895 -2.236584 0.663008 -2.5 0 -2.5 
C -0.663008 -2.5 -1.29895 -2.236584 -1.767767 -1.767767 
C -2.236584 -1.29895 -2.5 -0.663008 -2.5 0 
C -2.5 0.663008 -2.236584 1.29895 -1.767767 1.767767 
C -1.29895 2.236584 -0.663008 2.5 0 2.5 
z
"/>
    </defs>
    <g clip-path="url(#pb527c2c88e)">
     <use xlink:href="#C0_0_6188696581" x="97.81816" y="268.094446" style="fill: #956cb4"/>
    </g>
    <g clip-path="url(#pb527c2c88e)">
     <use xlink:href="#C0_0_6188696581" x="99.801491" y="224.211676" style="fill: #956cb4"/>
    </g>
    <g clip-path="url(#pb527c2c88e)">
     <use xlink:href="#C0_0_6188696581" x="105.850683" y="217.399371" style="fill: #956cb4"/>
    </g>
    <g clip-path="url(#pb527c2c88e)">
     <use xlink:href="#C0_0_6188696581" x="101.89536" y="232.593733" style="fill: #956cb4"/>
    </g>
    <g clip-path="url(#pb527c2c88e)">
     <use xlink:href="#C0_0_6188696581" x="101.736167" y="246.088784" style="fill: #956cb4"/>
    </g>
    <g clip-path="url(#pb527c2c88e)">
     <use xlink:href="#C0_0_6188696581" x="99.546109" y="232.216058" style="fill: #ee854a"/>
    </g>
    <g clip-path="url(#pb527c2c88e)">
     <use xlink:href="#C0_0_6188696581" x="105.945286" y="232.306019" style="fill: #ee854a"/>
    </g>
    <g clip-path="url(#pb527c2c88e)">
     <use xlink:href="#C0_0_6188696581" x="102.700681" y="232.881447" style="fill: #ee854a"/>
    </g>
    <g clip-path="url(#pb527c2c88e)">
     <use xlink:href="#C0_0_6188696581" x="103.43791" y="233.05529" style="fill: #ee854a"/>
    </g>
    <g clip-path="url(#pb527c2c88e)">
     <use xlink:href="#C0_0_6188696581" x="96.494824" y="232.593733" style="fill: #d65f5f"/>
    </g>
    <g clip-path="url(#pb527c2c88e)">
     <use xlink:href="#C0_0_6188696581" x="101.072182" y="232.564386" style="fill: #d65f5f"/>
    </g>
    <g clip-path="url(#pb527c2c88e)">
     <use xlink:href="#C0_0_6188696581" x="101.802557" y="232.851494" style="fill: #d65f5f"/>
    </g>
    <g clip-path="url(#pb527c2c88e)">
     <use xlink:href="#C0_0_6188696581" x="96.772167" y="232.593733" style="fill: #6acc64"/>
    </g>
    <g clip-path="url(#pb527c2c88e)">
     <use xlink:href="#C0_0_6188696581" x="104.779269" y="42.324545" style="fill: #6acc64"/>
    </g>
    <g clip-path="url(#pb527c2c88e)">
     <use xlink:href="#C0_0_6188696581" x="97.596407" y="258.384114" style="fill: #6acc64"/>
    </g>
    <g clip-path="url(#pb527c2c88e)">
     <use xlink:href="#C0_0_6188696581" x="95.596641" y="307.907129" style="fill: #6acc64"/>
    </g>
    <g clip-path="url(#pb527c2c88e)">
     <use xlink:href="#C0_0_6188696581" x="99.653884" y="228.117139" style="fill: #6acc64"/>
    </g>
   </g>
   <g id="PathCollection_2">
    <defs>
     <path id="C1_0_f8c55ecae5" d="M 0 2.5 
C 0.663008 2.5 1.29895 2.236584 1.767767 1.767767 
C 2.236584 1.29895 2.5 0.663008 2.5 -0 
C 2.5 -0.663008 2.236584 -1.29895 1.767767 -1.767767 
C 1.29895 -2.236584 0.663008 -2.5 0 -2.5 
C -0.663008 -2.5 -1.29895 -2.236584 -1.767767 -1.767767 
C -2.236584 -1.29895 -2.5 -0.663008 -2.5 0 
C -2.5 0.663008 -2.236584 1.29895 -1.767767 1.767767 
C -1.29895 2.236584 -0.663008 2.5 0 2.5 
z
"/>
    </defs>
    <g clip-path="url(#pb527c2c88e)">
     <use xlink:href="#C1_0_f8c55ecae5" x="161.862796" y="232.593733" style="fill: #8c613c"/>
    </g>
    <g clip-path="url(#pb527c2c88e)">
     <use xlink:href="#C1_0_f8c55ecae5" x="165.924714" y="225.948605" style="fill: #8c613c"/>
    </g>
    <g clip-path="url(#pb527c2c88e)">
     <use xlink:href="#C1_0_f8c55ecae5" x="166.302244" y="220.908535" style="fill: #8c613c"/>
    </g>
    <g clip-path="url(#pb527c2c88e)">
     <use xlink:href="#C1_0_f8c55ecae5" x="158.969881" y="263.577806" style="fill: #8c613c"/>
    </g>
    <g clip-path="url(#pb527c2c88e)">
     <use xlink:href="#C1_0_f8c55ecae5" x="159.189626" y="260.335867" style="fill: #8c613c"/>
    </g>
    <g clip-path="url(#pb527c2c88e)">
     <use xlink:href="#C1_0_f8c55ecae5" x="156.949862" y="192.675014" style="fill: #956cb4"/>
    </g>
    <g clip-path="url(#pb527c2c88e)">
     <use xlink:href="#C1_0_f8c55ecae5" x="158.596043" y="159.603751" style="fill: #956cb4"/>
    </g>
    <g clip-path="url(#pb527c2c88e)">
     <use xlink:href="#C1_0_f8c55ecae5" x="161.396833" y="159.28036" style="fill: #956cb4"/>
    </g>
    <g clip-path="url(#pb527c2c88e)">
     <use xlink:href="#C1_0_f8c55ecae5" x="166.693716" y="129.170838" style="fill: #956cb4"/>
    </g>
    <g clip-path="url(#pb527c2c88e)">
     <use xlink:href="#C1_0_f8c55ecae5" x="164.544422" y="143.942381" style="fill: #956cb4"/>
    </g>
    <g clip-path="url(#pb527c2c88e)">
     <use xlink:href="#C1_0_f8c55ecae5" x="164.562602" y="216.433817" style="fill: #4878d0"/>
    </g>
    <g clip-path="url(#pb527c2c88e)">
     <use xlink:href="#C1_0_f8c55ecae5" x="157.074555" y="242.792847" style="fill: #4878d0"/>
    </g>
    <g clip-path="url(#pb527c2c88e)">
     <use xlink:href="#C1_0_f8c55ecae5" x="155.740516" y="260.831874" style="fill: #4878d0"/>
    </g>
    <g clip-path="url(#pb527c2c88e)">
     <use xlink:href="#C1_0_f8c55ecae5" x="159.252538" y="204.724696" style="fill: #4878d0"/>
    </g>
    <g clip-path="url(#pb527c2c88e)">
     <use xlink:href="#C1_0_f8c55ecae5" x="163.039397" y="232.593733" style="fill: #4878d0"/>
    </g>
    <g clip-path="url(#pb527c2c88e)">
     <use xlink:href="#C1_0_f8c55ecae5" x="165.862996" y="235.008908" style="fill: #ee854a"/>
    </g>
    <g clip-path="url(#pb527c2c88e)">
     <use xlink:href="#C1_0_f8c55ecae5" x="161.956505" y="234.979731" style="fill: #ee854a"/>
    </g>
    <g clip-path="url(#pb527c2c88e)">
     <use xlink:href="#C1_0_f8c55ecae5" x="164.926128" y="235.076581" style="fill: #ee854a"/>
    </g>
    <g clip-path="url(#pb527c2c88e)">
     <use xlink:href="#C1_0_f8c55ecae5" x="159.44907" y="233.710371" style="fill: #d65f5f"/>
    </g>
    <g clip-path="url(#pb527c2c88e)">
     <use xlink:href="#C1_0_f8c55ecae5" x="156.390094" y="233.799878" style="fill: #d65f5f"/>
    </g>
    <g clip-path="url(#pb527c2c88e)">
     <use xlink:href="#C1_0_f8c55ecae5" x="166.176892" y="233.901124" style="fill: #d65f5f"/>
    </g>
    <g clip-path="url(#pb527c2c88e)">
     <use xlink:href="#C1_0_f8c55ecae5" x="156.746644" y="355.132089" style="fill: #6acc64"/>
    </g>
    <g clip-path="url(#pb527c2c88e)">
     <use xlink:href="#C1_0_f8c55ecae5" x="156.99529" y="345.631847" style="fill: #6acc64"/>
    </g>
    <g clip-path="url(#pb527c2c88e)">
     <use xlink:href="#C1_0_f8c55ecae5" x="159.403091" y="352.558156" style="fill: #6acc64"/>
    </g>
    <g clip-path="url(#pb527c2c88e)">
     <use xlink:href="#C1_0_f8c55ecae5" x="156.356804" y="344.918723" style="fill: #6acc64"/>
    </g>
    <g clip-path="url(#pb527c2c88e)">
     <use xlink:href="#C1_0_f8c55ecae5" x="162.952818" y="357.147547" style="fill: #6acc64"/>
    </g>
   </g>
   <g id="PathCollection_3">
    <defs>
     <path id="C2_0_6348dd0509" d="M 0 2.5 
C 0.663008 2.5 1.29895 2.236584 1.767767 1.767767 
C 2.236584 1.29895 2.5 0.663008 2.5 -0 
C 2.5 -0.663008 2.236584 -1.29895 1.767767 -1.767767 
C 1.29895 -2.236584 0.663008 -2.5 0 -2.5 
C -0.663008 -2.5 -1.29895 -2.236584 -1.767767 -1.767767 
C -2.236584 -1.29895 -2.5 -0.663008 -2.5 0 
C -2.5 0.663008 -2.236584 1.29895 -1.767767 1.767767 
C -1.29895 2.236584 -0.663008 2.5 0 2.5 
z
"/>
    </defs>
    <g clip-path="url(#pb527c2c88e)">
     <use xlink:href="#C2_0_6348dd0509" x="225.25528" y="316.826982" style="fill: #8c613c"/>
    </g>
    <g clip-path="url(#pb527c2c88e)">
     <use xlink:href="#C2_0_6348dd0509" x="217.701145" y="318.562099" style="fill: #8c613c"/>
    </g>
    <g clip-path="url(#pb527c2c88e)">
     <use xlink:href="#C2_0_6348dd0509" x="221.060847" y="322.02724" style="fill: #8c613c"/>
    </g>
    <g clip-path="url(#pb527c2c88e)">
     <use xlink:href="#C2_0_6348dd0509" x="224.872913" y="299.285607" style="fill: #8c613c"/>
    </g>
    <g clip-path="url(#pb527c2c88e)">
     <use xlink:href="#C2_0_6348dd0509" x="222.272774" y="321.047338" style="fill: #8c613c"/>
    </g>
    <g clip-path="url(#pb527c2c88e)">
     <use xlink:href="#C2_0_6348dd0509" x="220.663885" y="217.694641" style="fill: #956cb4"/>
    </g>
    <g clip-path="url(#pb527c2c88e)">
     <use xlink:href="#C2_0_6348dd0509" x="222.265007" y="225.479128" style="fill: #956cb4"/>
    </g>
    <g clip-path="url(#pb527c2c88e)">
     <use xlink:href="#C2_0_6348dd0509" x="224.988191" y="246.11088" style="fill: #956cb4"/>
    </g>
    <g clip-path="url(#pb527c2c88e)">
     <use xlink:href="#C2_0_6348dd0509" x="215.472107" y="230.180351" style="fill: #956cb4"/>
    </g>
    <g clip-path="url(#pb527c2c88e)">
     <use xlink:href="#C2_0_6348dd0509" x="220.842624" y="230.595135" style="fill: #956cb4"/>
    </g>
    <g clip-path="url(#pb527c2c88e)">
     <use xlink:href="#C2_0_6348dd0509" x="226.999026" y="287.604184" style="fill: #4878d0"/>
    </g>
    <g clip-path="url(#pb527c2c88e)">
     <use xlink:href="#C2_0_6348dd0509" x="218.160691" y="310.353583" style="fill: #4878d0"/>
    </g>
    <g clip-path="url(#pb527c2c88e)">
     <use xlink:href="#C2_0_6348dd0509" x="222.248785" y="326.8063" style="fill: #4878d0"/>
    </g>
    <g clip-path="url(#pb527c2c88e)">
     <use xlink:href="#C2_0_6348dd0509" x="223.872605" y="324.023229" style="fill: #4878d0"/>
    </g>
    <g clip-path="url(#pb527c2c88e)">
     <use xlink:href="#C2_0_6348dd0509" x="218.076502" y="320.48041" style="fill: #4878d0"/>
    </g>
    <g clip-path="url(#pb527c2c88e)">
     <use xlink:href="#C2_0_6348dd0509" x="220.074534" y="237.828098" style="fill: #ee854a"/>
    </g>
    <g clip-path="url(#pb527c2c88e)">
     <use xlink:href="#C2_0_6348dd0509" x="218.657643" y="238.01653" style="fill: #ee854a"/>
    </g>
    <g clip-path="url(#pb527c2c88e)">
     <use xlink:href="#C2_0_6348dd0509" x="223.080658" y="237.268474" style="fill: #ee854a"/>
    </g>
    <g clip-path="url(#pb527c2c88e)">
     <use xlink:href="#C2_0_6348dd0509" x="224.817928" y="235.014827" style="fill: #d65f5f"/>
    </g>
    <g clip-path="url(#pb527c2c88e)">
     <use xlink:href="#C2_0_6348dd0509" x="225.384256" y="363.050356" style="fill: #6acc64"/>
    </g>
    <g clip-path="url(#pb527c2c88e)">
     <use xlink:href="#C2_0_6348dd0509" x="217.521052" y="361.648326" style="fill: #6acc64"/>
    </g>
    <g clip-path="url(#pb527c2c88e)">
     <use xlink:href="#C2_0_6348dd0509" x="224.342263" y="359.691718" style="fill: #6acc64"/>
    </g>
    <g clip-path="url(#pb527c2c88e)">
     <use xlink:href="#C2_0_6348dd0509" x="225.239326" y="360.221003" style="fill: #6acc64"/>
    </g>
   </g>
   <g id="PathCollection_4">
    <defs>
     <path id="C3_0_d5f0d41a67" d="M 0 2.5 
C 0.663008 2.5 1.29895 2.236584 1.767767 1.767767 
C 2.236584 1.29895 2.5 0.663008 2.5 -0 
C 2.5 -0.663008 2.236584 -1.29895 1.767767 -1.767767 
C 1.29895 -2.236584 0.663008 -2.5 0 -2.5 
C -0.663008 -2.5 -1.29895 -2.236584 -1.767767 -1.767767 
C -2.236584 -1.29895 -2.5 -0.663008 -2.5 0 
C -2.5 0.663008 -2.236584 1.29895 -1.767767 1.767767 
C -1.29895 2.236584 -0.663008 2.5 0 2.5 
z
"/>
    </defs>
    <g clip-path="url(#pb527c2c88e)">
     <use xlink:href="#C3_0_d5f0d41a67" x="280.915048" y="236.771705" style="fill: #956cb4"/>
    </g>
    <g clip-path="url(#pb527c2c88e)">
     <use xlink:href="#C3_0_d5f0d41a67" x="283.084292" y="219.541586" style="fill: #956cb4"/>
    </g>
    <g clip-path="url(#pb527c2c88e)">
     <use xlink:href="#C3_0_d5f0d41a67" x="276.636401" y="218.372557" style="fill: #956cb4"/>
    </g>
    <g clip-path="url(#pb527c2c88e)">
     <use xlink:href="#C3_0_d5f0d41a67" x="284.499006" y="204.629438" style="fill: #956cb4"/>
    </g>
    <g clip-path="url(#pb527c2c88e)">
     <use xlink:href="#C3_0_d5f0d41a67" x="278.719377" y="225.186871" style="fill: #956cb4"/>
    </g>
    <g clip-path="url(#pb527c2c88e)">
     <use xlink:href="#C3_0_d5f0d41a67" x="282.780405" y="348.192349" style="fill: #4878d0"/>
    </g>
    <g clip-path="url(#pb527c2c88e)">
     <use xlink:href="#C3_0_d5f0d41a67" x="286.373062" y="348.417973" style="fill: #4878d0"/>
    </g>
    <g clip-path="url(#pb527c2c88e)">
     <use xlink:href="#C3_0_d5f0d41a67" x="283.073169" y="328.566392" style="fill: #4878d0"/>
    </g>
    <g clip-path="url(#pb527c2c88e)">
     <use xlink:href="#C3_0_d5f0d41a67" x="282.766831" y="356.726185" style="fill: #4878d0"/>
    </g>
    <g clip-path="url(#pb527c2c88e)">
     <use xlink:href="#C3_0_d5f0d41a67" x="281.648049" y="342.086717" style="fill: #4878d0"/>
    </g>
    <g clip-path="url(#pb527c2c88e)">
     <use xlink:href="#C3_0_d5f0d41a67" x="282.869481" y="239.81697" style="fill: #ee854a"/>
    </g>
    <g clip-path="url(#pb527c2c88e)">
     <use xlink:href="#C3_0_d5f0d41a67" x="285.608455" y="239.352576" style="fill: #ee854a"/>
    </g>
    <g clip-path="url(#pb527c2c88e)">
     <use xlink:href="#C3_0_d5f0d41a67" x="283.324834" y="239.077424" style="fill: #ee854a"/>
    </g>
    <g clip-path="url(#pb527c2c88e)">
     <use xlink:href="#C3_0_d5f0d41a67" x="278.768365" y="236.211679" style="fill: #d65f5f"/>
    </g>
    <g clip-path="url(#pb527c2c88e)">
     <use xlink:href="#C3_0_d5f0d41a67" x="285.006278" y="236.318794" style="fill: #d65f5f"/>
    </g>
    <g clip-path="url(#pb527c2c88e)">
     <use xlink:href="#C3_0_d5f0d41a67" x="278.27553" y="365.615455" style="fill: #6acc64"/>
    </g>
   </g>
   <g id="line2d_6"/>
   <g id="line2d_7"/>
   <g id="line2d_8"/>
   <g id="line2d_9"/>
   <g id="line2d_10"/>
   <g id="line2d_11"/>
   <g id="text_12">
    <!-- MiniFE Total CG Mflops 230nx-ny-nz for CPU Speedup -->
    <g style="fill: #262626" transform="translate(71.382656 20.16) scale(0.09 -0.09)">
     <defs>
      <path id="DejaVuSans-69" d="M 603 3500 
L 1178 3500 
L 1178 0 
L 603 0 
L 603 3500 
z
M 603 4863 
L 1178 4863 
L 1178 4134 
L 603 4134 
L 603 4863 
z
" transform="scale(0.015625)"/>
      <path id="DejaVuSans-6e" d="M 3513 2113 
L 3513 0 
L 2938 0 
L 2938 2094 
Q 2938 2591 2744 2837 
Q 2550 3084 2163 3084 
Q 1697 3084 1428 2787 
Q 1159 2491 1159 1978 
L 1159 0 
L 581 0 
L 581 3500 
L 1159 3500 
L 1159 2956 
Q 1366 3272 1645 3428 
Q 1925 3584 2291 3584 
Q 2894 3584 3203 3211 
Q 3513 2838 3513 2113 
z
" transform="scale(0.015625)"/>
      <path id="DejaVuSans-46" d="M 628 4666 
L 3309 4666 
L 3309 4134 
L 1259 4134 
L 1259 2759 
L 3109 2759 
L 3109 2228 
L 1259 2228 
L 1259 0 
L 628 0 
L 628 4666 
z
" transform="scale(0.015625)"/>
      <path id="DejaVuSans-45" d="M 628 4666 
L 3578 4666 
L 3578 4134 
L 1259 4134 
L 1259 2753 
L 3481 2753 
L 3481 2222 
L 1259 2222 
L 1259 531 
L 3634 531 
L 3634 0 
L 628 0 
L 628 4666 
z
" transform="scale(0.015625)"/>
      <path id="DejaVuSans-47" d="M 3809 666 
L 3809 1919 
L 2778 1919 
L 2778 2438 
L 4434 2438 
L 4434 434 
Q 4069 175 3628 42 
Q 3188 -91 2688 -91 
Q 1594 -91 976 548 
Q 359 1188 359 2328 
Q 359 3472 976 4111 
Q 1594 4750 2688 4750 
Q 3144 4750 3555 4637 
Q 3966 4525 4313 4306 
L 4313 3634 
Q 3963 3931 3569 4081 
Q 3175 4231 2741 4231 
Q 1884 4231 1454 3753 
Q 1025 3275 1025 2328 
Q 1025 1384 1454 906 
Q 1884 428 2741 428 
Q 3075 428 3337 486 
Q 3600 544 3809 666 
z
" transform="scale(0.015625)"/>
      <path id="DejaVuSans-78" d="M 3513 3500 
L 2247 1797 
L 3578 0 
L 2900 0 
L 1881 1375 
L 863 0 
L 184 0 
L 1544 1831 
L 300 3500 
L 978 3500 
L 1906 2253 
L 2834 3500 
L 3513 3500 
z
" transform="scale(0.015625)"/>
      <path id="DejaVuSans-2d" d="M 313 2009 
L 1997 2009 
L 1997 1497 
L 313 1497 
L 313 2009 
z
" transform="scale(0.015625)"/>
      <path id="DejaVuSans-79" d="M 2059 -325 
Q 1816 -950 1584 -1140 
Q 1353 -1331 966 -1331 
L 506 -1331 
L 506 -850 
L 844 -850 
Q 1081 -850 1212 -737 
Q 1344 -625 1503 -206 
L 1606 56 
L 191 3500 
L 800 3500 
L 1894 763 
L 2988 3500 
L 3597 3500 
L 2059 -325 
z
" transform="scale(0.015625)"/>
      <path id="DejaVuSans-7a" d="M 353 3500 
L 3084 3500 
L 3084 2975 
L 922 459 
L 3084 459 
L 3084 0 
L 275 0 
L 275 525 
L 2438 3041 
L 353 3041 
L 353 3500 
z
" transform="scale(0.015625)"/>
      <path id="DejaVuSans-72" d="M 2631 2963 
Q 2534 3019 2420 3045 
Q 2306 3072 2169 3072 
Q 1681 3072 1420 2755 
Q 1159 2438 1159 1844 
L 1159 0 
L 581 0 
L 581 3500 
L 1159 3500 
L 1159 2956 
Q 1341 3275 1631 3429 
Q 1922 3584 2338 3584 
Q 2397 3584 2469 3576 
Q 2541 3569 2628 3553 
L 2631 2963 
z
" transform="scale(0.015625)"/>
      <path id="DejaVuSans-50" d="M 1259 4147 
L 1259 2394 
L 2053 2394 
Q 2494 2394 2734 2622 
Q 2975 2850 2975 3272 
Q 2975 3691 2734 3919 
Q 2494 4147 2053 4147 
L 1259 4147 
z
M 628 4666 
L 2053 4666 
Q 2838 4666 3239 4311 
Q 3641 3956 3641 3272 
Q 3641 2581 3239 2228 
Q 2838 1875 2053 1875 
L 1259 1875 
L 1259 0 
L 628 0 
L 628 4666 
z
" transform="scale(0.015625)"/>
      <path id="DejaVuSans-55" d="M 556 4666 
L 1191 4666 
L 1191 1831 
Q 1191 1081 1462 751 
Q 1734 422 2344 422 
Q 2950 422 3222 751 
Q 3494 1081 3494 1831 
L 3494 4666 
L 4128 4666 
L 4128 1753 
Q 4128 841 3676 375 
Q 3225 -91 2344 -91 
Q 1459 -91 1007 375 
Q 556 841 556 1753 
L 556 4666 
z
" transform="scale(0.015625)"/>
     </defs>
     <use xlink:href="#DejaVuSans-4d"/>
     <use xlink:href="#DejaVuSans-69" x="86.279297"/>
     <use xlink:href="#DejaVuSans-6e" x="114.0625"/>
     <use xlink:href="#DejaVuSans-69" x="177.441406"/>
     <use xlink:href="#DejaVuSans-46" x="205.224609"/>
     <use xlink:href="#DejaVuSans-45" x="262.744141"/>
     <use xlink:href="#DejaVuSans-20" x="325.927734"/>
     <use xlink:href="#DejaVuSans-54" x="357.714844"/>
     <use xlink:href="#DejaVuSans-6f" x="401.798828"/>
     <use xlink:href="#DejaVuSans-74" x="462.980469"/>
     <use xlink:href="#DejaVuSans-61" x="502.189453"/>
     <use xlink:href="#DejaVuSans-6c" x="563.46875"/>
     <use xlink:href="#DejaVuSans-20" x="591.251953"/>
     <use xlink:href="#DejaVuSans-43" x="623.039062"/>
     <use xlink:href="#DejaVuSans-47" x="692.863281"/>
     <use xlink:href="#DejaVuSans-20" x="770.353516"/>
     <use xlink:href="#DejaVuSans-4d" x="802.140625"/>
     <use xlink:href="#DejaVuSans-66" x="888.419922"/>
     <use xlink:href="#DejaVuSans-6c" x="923.625"/>
     <use xlink:href="#DejaVuSans-6f" x="951.408203"/>
     <use xlink:href="#DejaVuSans-70" x="1012.589844"/>
     <use xlink:href="#DejaVuSans-73" x="1076.066406"/>
     <use xlink:href="#DejaVuSans-20" x="1128.166016"/>
     <use xlink:href="#DejaVuSans-32" x="1159.953125"/>
     <use xlink:href="#DejaVuSans-33" x="1223.576172"/>
     <use xlink:href="#DejaVuSans-30" x="1287.199219"/>
     <use xlink:href="#DejaVuSans-6e" x="1350.822266"/>
     <use xlink:href="#DejaVuSans-78" x="1414.201172"/>
     <use xlink:href="#DejaVuSans-2d" x="1473.380859"/>
     <use xlink:href="#DejaVuSans-6e" x="1509.464844"/>
     <use xlink:href="#DejaVuSans-79" x="1572.84375"/>
     <use xlink:href="#DejaVuSans-2d" x="1630.273438"/>
     <use xlink:href="#DejaVuSans-6e" x="1666.357422"/>
     <use xlink:href="#DejaVuSans-7a" x="1729.736328"/>
     <use xlink:href="#DejaVuSans-20" x="1782.226562"/>
     <use xlink:href="#DejaVuSans-66" x="1814.013672"/>
     <use xlink:href="#DejaVuSans-6f" x="1849.21875"/>
     <use xlink:href="#DejaVuSans-72" x="1910.400391"/>
     <use xlink:href="#DejaVuSans-20" x="1951.513672"/>
     <use xlink:href="#DejaVuSans-43" x="1983.300781"/>
     <use xlink:href="#DejaVuSans-50" x="2053.125"/>
     <use xlink:href="#DejaVuSans-55" x="2113.427734"/>
     <use xlink:href="#DejaVuSans-20" x="2186.621094"/>
     <use xlink:href="#DejaVuSans-53" x="2218.408203"/>
     <use xlink:href="#DejaVuSans-70" x="2281.884766"/>
     <use xlink:href="#DejaVuSans-65" x="2345.361328"/>
     <use xlink:href="#DejaVuSans-65" x="2406.884766"/>
     <use xlink:href="#DejaVuSans-64" x="2468.408203"/>
     <use xlink:href="#DejaVuSans-75" x="2531.884766"/>
     <use xlink:href="#DejaVuSans-70" x="2595.263672"/>
    </g>
   </g>
   <g id="legend_1">
    <g id="patch_7">
     <path d="M 113.457656 131.835625 
L 303.34 131.835625 
Q 305.54 131.835625 305.54 129.635625 
L 305.54 33.86 
Q 305.54 31.66 303.34 31.66 
L 113.457656 31.66 
Q 111.257656 31.66 111.257656 33.86 
L 111.257656 129.635625 
Q 111.257656 131.835625 113.457656 131.835625 
z
" style="fill: #ffffff; opacity: 0.8; stroke: #cccccc; stroke-linejoin: miter"/>
    </g>
    <g id="line2d_12">
     <defs>
      <path id="maf643b0264" d="M 0 2.5 
C 0.663008 2.5 1.29895 2.236584 1.767767 1.767767 
C 2.236584 1.29895 2.5 0.663008 2.5 0 
C 2.5 -0.663008 2.236584 -1.29895 1.767767 -1.767767 
C 1.29895 -2.236584 0.663008 -2.5 0 -2.5 
C -0.663008 -2.5 -1.29895 -2.236584 -1.767767 -1.767767 
C -2.236584 -1.29895 -2.5 -0.663008 -2.5 0 
C -2.5 0.663008 -2.236584 1.29895 -1.767767 1.767767 
C -1.29895 2.236584 -0.663008 2.5 0 2.5 
z
"/>
     </defs>
     <g>
      <use xlink:href="#maf643b0264" x="126.657656" y="40.568281" style="fill: #956cb4"/>
     </g>
    </g>
    <g id="text_13">
     <!-- google/compute-engine/cpu -->
     <g style="fill: #262626" transform="translate(146.457656 44.418281) scale(0.11 -0.11)">
      <defs>
       <path id="DejaVuSans-2f" d="M 1625 4666 
L 2156 4666 
L 531 -594 
L 0 -594 
L 1625 4666 
z
" transform="scale(0.015625)"/>
       <path id="DejaVuSans-63" d="M 3122 3366 
L 3122 2828 
Q 2878 2963 2633 3030 
Q 2388 3097 2138 3097 
Q 1578 3097 1268 2742 
Q 959 2388 959 1747 
Q 959 1106 1268 751 
Q 1578 397 2138 397 
Q 2388 397 2633 464 
Q 2878 531 3122 666 
L 3122 134 
Q 2881 22 2623 -34 
Q 2366 -91 2075 -91 
Q 1284 -91 818 406 
Q 353 903 353 1747 
Q 353 2603 823 3093 
Q 1294 3584 2113 3584 
Q 2378 3584 2631 3529 
Q 2884 3475 3122 3366 
z
" transform="scale(0.015625)"/>
       <path id="DejaVuSans-6d" d="M 3328 2828 
Q 3544 3216 3844 3400 
Q 4144 3584 4550 3584 
Q 5097 3584 5394 3201 
Q 5691 2819 5691 2113 
L 5691 0 
L 5113 0 
L 5113 2094 
Q 5113 2597 4934 2840 
Q 4756 3084 4391 3084 
Q 3944 3084 3684 2787 
Q 3425 2491 3425 1978 
L 3425 0 
L 2847 0 
L 2847 2094 
Q 2847 2600 2669 2842 
Q 2491 3084 2119 3084 
Q 1678 3084 1418 2786 
Q 1159 2488 1159 1978 
L 1159 0 
L 581 0 
L 581 3500 
L 1159 3500 
L 1159 2956 
Q 1356 3278 1631 3431 
Q 1906 3584 2284 3584 
Q 2666 3584 2933 3390 
Q 3200 3197 3328 2828 
z
" transform="scale(0.015625)"/>
      </defs>
      <use xlink:href="#DejaVuSans-67"/>
      <use xlink:href="#DejaVuSans-6f" x="63.476562"/>
      <use xlink:href="#DejaVuSans-6f" x="124.658203"/>
      <use xlink:href="#DejaVuSans-67" x="185.839844"/>
      <use xlink:href="#DejaVuSans-6c" x="249.316406"/>
      <use xlink:href="#DejaVuSans-65" x="277.099609"/>
      <use xlink:href="#DejaVuSans-2f" x="338.623047"/>
      <use xlink:href="#DejaVuSans-63" x="372.314453"/>
      <use xlink:href="#DejaVuSans-6f" x="427.294922"/>
      <use xlink:href="#DejaVuSans-6d" x="488.476562"/>
      <use xlink:href="#DejaVuSans-70" x="585.888672"/>
      <use xlink:href="#DejaVuSans-75" x="649.365234"/>
      <use xlink:href="#DejaVuSans-74" x="712.744141"/>
      <use xlink:href="#DejaVuSans-65" x="751.953125"/>
      <use xlink:href="#DejaVuSans-2d" x="813.476562"/>
      <use xlink:href="#DejaVuSans-65" x="849.560547"/>
      <use xlink:href="#DejaVuSans-6e" x="911.083984"/>
      <use xlink:href="#DejaVuSans-67" x="974.462891"/>
      <use xlink:href="#DejaVuSans-69" x="1037.939453"/>
      <use xlink:href="#DejaVuSans-6e" x="1065.722656"/>
      <use xlink:href="#DejaVuSans-65" x="1129.101562"/>
      <use xlink:href="#DejaVuSans-2f" x="1190.625"/>
      <use xlink:href="#DejaVuSans-63" x="1224.316406"/>
      <use xlink:href="#DejaVuSans-70" x="1279.296875"/>
      <use xlink:href="#DejaVuSans-75" x="1342.773438"/>
     </g>
    </g>
    <g id="line2d_13">
     <defs>
      <path id="md3a33674f4" d="M 0 2.5 
C 0.663008 2.5 1.29895 2.236584 1.767767 1.767767 
C 2.236584 1.29895 2.5 0.663008 2.5 0 
C 2.5 -0.663008 2.236584 -1.29895 1.767767 -1.767767 
C 1.29895 -2.236584 0.663008 -2.5 0 -2.5 
C -0.663008 -2.5 -1.29895 -2.236584 -1.767767 -1.767767 
C -2.236584 -1.29895 -2.5 -0.663008 -2.5 0 
C -2.5 0.663008 -2.236584 1.29895 -1.767767 1.767767 
C -1.29895 2.236584 -0.663008 2.5 0 2.5 
z
"/>
     </defs>
     <g>
      <use xlink:href="#md3a33674f4" x="126.657656" y="56.714219" style="fill: #ee854a"/>
     </g>
    </g>
    <g id="text_14">
     <!-- aws/parallel-cluster/cpu -->
     <g style="fill: #262626" transform="translate(146.457656 60.564219) scale(0.11 -0.11)">
      <defs>
       <path id="DejaVuSans-77" d="M 269 3500 
L 844 3500 
L 1563 769 
L 2278 3500 
L 2956 3500 
L 3675 769 
L 4391 3500 
L 4966 3500 
L 4050 0 
L 3372 0 
L 2619 2869 
L 1863 0 
L 1184 0 
L 269 3500 
z
" transform="scale(0.015625)"/>
      </defs>
      <use xlink:href="#DejaVuSans-61"/>
      <use xlink:href="#DejaVuSans-77" x="61.279297"/>
      <use xlink:href="#DejaVuSans-73" x="143.066406"/>
      <use xlink:href="#DejaVuSans-2f" x="195.166016"/>
      <use xlink:href="#DejaVuSans-70" x="228.857422"/>
      <use xlink:href="#DejaVuSans-61" x="292.333984"/>
      <use xlink:href="#DejaVuSans-72" x="353.613281"/>
      <use xlink:href="#DejaVuSans-61" x="394.726562"/>
      <use xlink:href="#DejaVuSans-6c" x="456.005859"/>
      <use xlink:href="#DejaVuSans-6c" x="483.789062"/>
      <use xlink:href="#DejaVuSans-65" x="511.572266"/>
      <use xlink:href="#DejaVuSans-6c" x="573.095703"/>
      <use xlink:href="#DejaVuSans-2d" x="600.878906"/>
      <use xlink:href="#DejaVuSans-63" x="636.962891"/>
      <use xlink:href="#DejaVuSans-6c" x="691.943359"/>
      <use xlink:href="#DejaVuSans-75" x="719.726562"/>
      <use xlink:href="#DejaVuSans-73" x="783.105469"/>
      <use xlink:href="#DejaVuSans-74" x="835.205078"/>
      <use xlink:href="#DejaVuSans-65" x="874.414062"/>
      <use xlink:href="#DejaVuSans-72" x="935.9375"/>
      <use xlink:href="#DejaVuSans-2f" x="977.050781"/>
      <use xlink:href="#DejaVuSans-63" x="1010.742188"/>
      <use xlink:href="#DejaVuSans-70" x="1065.722656"/>
      <use xlink:href="#DejaVuSans-75" x="1129.199219"/>
     </g>
    </g>
    <g id="line2d_14">
     <defs>
      <path id="mbd59f52afd" d="M 0 2.5 
C 0.663008 2.5 1.29895 2.236584 1.767767 1.767767 
C 2.236584 1.29895 2.5 0.663008 2.5 0 
C 2.5 -0.663008 2.236584 -1.29895 1.767767 -1.767767 
C 1.29895 -2.236584 0.663008 -2.5 0 -2.5 
C -0.663008 -2.5 -1.29895 -2.236584 -1.767767 -1.767767 
C -2.236584 -1.29895 -2.5 -0.663008 -2.5 0 
C -2.5 0.663008 -2.236584 1.29895 -1.767767 1.767767 
C -1.29895 2.236584 -0.663008 2.5 0 2.5 
z
"/>
     </defs>
     <g>
      <use xlink:href="#mbd59f52afd" x="126.657656" y="72.860156" style="fill: #d65f5f"/>
     </g>
    </g>
    <g id="text_15">
     <!-- azure/cyclecloud/cpu -->
     <g style="fill: #262626" transform="translate(146.457656 76.710156) scale(0.11 -0.11)">
      <use xlink:href="#DejaVuSans-61"/>
      <use xlink:href="#DejaVuSans-7a" x="61.279297"/>
      <use xlink:href="#DejaVuSans-75" x="113.769531"/>
      <use xlink:href="#DejaVuSans-72" x="177.148438"/>
      <use xlink:href="#DejaVuSans-65" x="216.011719"/>
      <use xlink:href="#DejaVuSans-2f" x="277.535156"/>
      <use xlink:href="#DejaVuSans-63" x="311.226562"/>
      <use xlink:href="#DejaVuSans-79" x="366.207031"/>
      <use xlink:href="#DejaVuSans-63" x="425.386719"/>
      <use xlink:href="#DejaVuSans-6c" x="480.367188"/>
      <use xlink:href="#DejaVuSans-65" x="508.150391"/>
      <use xlink:href="#DejaVuSans-63" x="569.673828"/>
      <use xlink:href="#DejaVuSans-6c" x="624.654297"/>
      <use xlink:href="#DejaVuSans-6f" x="652.4375"/>
      <use xlink:href="#DejaVuSans-75" x="713.619141"/>
      <use xlink:href="#DejaVuSans-64" x="776.998047"/>
      <use xlink:href="#DejaVuSans-2f" x="840.474609"/>
      <use xlink:href="#DejaVuSans-63" x="874.166016"/>
      <use xlink:href="#DejaVuSans-70" x="929.146484"/>
      <use xlink:href="#DejaVuSans-75" x="992.623047"/>
     </g>
    </g>
    <g id="line2d_15">
     <defs>
      <path id="m491804cda2" d="M 0 2.5 
C 0.663008 2.5 1.29895 2.236584 1.767767 1.767767 
C 2.236584 1.29895 2.5 0.663008 2.5 0 
C 2.5 -0.663008 2.236584 -1.29895 1.767767 -1.767767 
C 1.29895 -2.236584 0.663008 -2.5 0 -2.5 
C -0.663008 -2.5 -1.29895 -2.236584 -1.767767 -1.767767 
C -2.236584 -1.29895 -2.5 -0.663008 -2.5 0 
C -2.5 0.663008 -2.236584 1.29895 -1.767767 1.767767 
C -1.29895 2.236584 -0.663008 2.5 0 2.5 
z
"/>
     </defs>
     <g>
      <use xlink:href="#m491804cda2" x="126.657656" y="89.006094" style="fill: #6acc64"/>
     </g>
    </g>
    <g id="text_16">
     <!-- azure/aks/cpu -->
     <g style="fill: #262626" transform="translate(146.457656 92.856094) scale(0.11 -0.11)">
      <defs>
       <path id="DejaVuSans-6b" d="M 581 4863 
L 1159 4863 
L 1159 1991 
L 2875 3500 
L 3609 3500 
L 1753 1863 
L 3688 0 
L 2938 0 
L 1159 1709 
L 1159 0 
L 581 0 
L 581 4863 
z
" transform="scale(0.015625)"/>
      </defs>
      <use xlink:href="#DejaVuSans-61"/>
      <use xlink:href="#DejaVuSans-7a" x="61.279297"/>
      <use xlink:href="#DejaVuSans-75" x="113.769531"/>
      <use xlink:href="#DejaVuSans-72" x="177.148438"/>
      <use xlink:href="#DejaVuSans-65" x="216.011719"/>
      <use xlink:href="#DejaVuSans-2f" x="277.535156"/>
      <use xlink:href="#DejaVuSans-61" x="311.226562"/>
      <use xlink:href="#DejaVuSans-6b" x="372.505859"/>
      <use xlink:href="#DejaVuSans-73" x="430.416016"/>
      <use xlink:href="#DejaVuSans-2f" x="482.515625"/>
      <use xlink:href="#DejaVuSans-63" x="516.207031"/>
      <use xlink:href="#DejaVuSans-70" x="571.1875"/>
      <use xlink:href="#DejaVuSans-75" x="634.664062"/>
     </g>
    </g>
    <g id="line2d_16">
     <defs>
      <path id="mb884afa3e2" d="M 0 2.5 
C 0.663008 2.5 1.29895 2.236584 1.767767 1.767767 
C 2.236584 1.29895 2.5 0.663008 2.5 0 
C 2.5 -0.663008 2.236584 -1.29895 1.767767 -1.767767 
C 1.29895 -2.236584 0.663008 -2.5 0 -2.5 
C -0.663008 -2.5 -1.29895 -2.236584 -1.767767 -1.767767 
C -2.236584 -1.29895 -2.5 -0.663008 -2.5 0 
C -2.5 0.663008 -2.236584 1.29895 -1.767767 1.767767 
C -1.29895 2.236584 -0.663008 2.5 0 2.5 
z
"/>
     </defs>
     <g>
      <use xlink:href="#mb884afa3e2" x="126.657656" y="105.152031" style="fill: #8c613c"/>
     </g>
    </g>
    <g id="text_17">
     <!-- google/gke/cpu -->
     <g style="fill: #262626" transform="translate(146.457656 109.002031) scale(0.11 -0.11)">
      <use xlink:href="#DejaVuSans-67"/>
      <use xlink:href="#DejaVuSans-6f" x="63.476562"/>
      <use xlink:href="#DejaVuSans-6f" x="124.658203"/>
      <use xlink:href="#DejaVuSans-67" x="185.839844"/>
      <use xlink:href="#DejaVuSans-6c" x="249.316406"/>
      <use xlink:href="#DejaVuSans-65" x="277.099609"/>
      <use xlink:href="#DejaVuSans-2f" x="338.623047"/>
      <use xlink:href="#DejaVuSans-67" x="372.314453"/>
      <use xlink:href="#DejaVuSans-6b" x="435.791016"/>
      <use xlink:href="#DejaVuSans-65" x="490.076172"/>
      <use xlink:href="#DejaVuSans-2f" x="551.599609"/>
      <use xlink:href="#DejaVuSans-63" x="585.291016"/>
      <use xlink:href="#DejaVuSans-70" x="640.271484"/>
      <use xlink:href="#DejaVuSans-75" x="703.748047"/>
     </g>
    </g>
    <g id="line2d_17">
     <defs>
      <path id="m63b450c0fc" d="M 0 2.5 
C 0.663008 2.5 1.29895 2.236584 1.767767 1.767767 
C 2.236584 1.29895 2.5 0.663008 2.5 0 
C 2.5 -0.663008 2.236584 -1.29895 1.767767 -1.767767 
C 1.29895 -2.236584 0.663008 -2.5 0 -2.5 
C -0.663008 -2.5 -1.29895 -2.236584 -1.767767 -1.767767 
C -2.236584 -1.29895 -2.5 -0.663008 -2.5 0 
C -2.5 0.663008 -2.236584 1.29895 -1.767767 1.767767 
C -1.29895 2.236584 -0.663008 2.5 0 2.5 
z
"/>
     </defs>
     <g>
      <use xlink:href="#m63b450c0fc" x="126.657656" y="121.297969" style="fill: #4878d0"/>
     </g>
    </g>
    <g id="text_18">
     <!-- aws/eks/cpu -->
     <g style="fill: #262626" transform="translate(146.457656 125.147969) scale(0.11 -0.11)">
      <use xlink:href="#DejaVuSans-61"/>
      <use xlink:href="#DejaVuSans-77" x="61.279297"/>
      <use xlink:href="#DejaVuSans-73" x="143.066406"/>
      <use xlink:href="#DejaVuSans-2f" x="195.166016"/>
      <use xlink:href="#DejaVuSans-65" x="228.857422"/>
      <use xlink:href="#DejaVuSans-6b" x="290.380859"/>
      <use xlink:href="#DejaVuSans-73" x="348.291016"/>
      <use xlink:href="#DejaVuSans-2f" x="400.390625"/>
      <use xlink:href="#DejaVuSans-63" x="434.082031"/>
      <use xlink:href="#DejaVuSans-70" x="489.0625"/>
      <use xlink:href="#DejaVuSans-75" x="552.539062"/>
     </g>
    </g>
   </g>
  </g>
 </g>
 <defs>
  <clipPath id="pb527c2c88e">
   <rect x="71.01" y="26.16" width="240.03" height="355.62"/>
  </clipPath>
 </defs>
</svg>
